<?xml version="1.0" encoding="UTF-8"?>
<svg id="Layer_2" data-name="Layer 2" xmlns="http://www.w3.org/2000/svg" viewBox="0 0 94.57 94.63">
  <defs>
    <style>
      .cls-1 {
        fill: #fff;
        stroke-width: 0px;
      }
    </style>
  </defs>
  <g id="Layer_1-2" data-name="Layer 1">
    <g>
      <path class="cls-1" d="M38.16,91.66c-2.91-.59-5.76-1.48-8.5-2.64-2.68-1.13-5.27-2.54-7.69-4.17-2.4-1.62-4.65-3.48-6.7-5.53s-3.91-4.3-5.53-6.7c-1.64-2.42-3.04-5.01-4.17-7.69-1.15-2.73-2.04-5.59-2.64-8.5-.37-1.83-.64-3.69-.78-5.56-.05-.61-.08-1.23-.11-1.84H0c.02.61.06,1.23.1,1.84.15,2.01.43,4.01.83,5.97.62,3.04,1.55,6.03,2.76,8.88,1.19,2.8,2.65,5.51,4.36,8.04,1.69,2.51,3.64,4.86,5.78,7,2.14,2.14,4.5,4.08,7,5.78,2.53,1.71,5.23,3.18,8.04,4.36,2.86,1.21,5.84,2.14,8.88,2.76.51.1,1.02.2,1.54.29.61.1,1.23.2,1.84.28v-2.07c-.62-.08-1.23-.18-1.84-.29-.38-.07-.75-.14-1.12-.22Z"/>
      <path class="cls-1" d="M92.52,49.04c-.02.61-.06,1.23-.11,1.84-.15,1.87-.41,3.73-.78,5.56-.59,2.91-1.48,5.76-2.64,8.5-1.13,2.68-2.54,5.27-4.17,7.69-1.62,2.4-3.48,4.65-5.53,6.7s-4.3,3.91-6.7,5.53c-2.42,1.64-5.01,3.04-7.69,4.17-2.73,1.15-5.59,2.04-8.5,2.64-.46.1-.92.18-1.39.26-.61.1-1.23.2-1.84.28v2.07c.62-.08,1.23-.17,1.84-.27.6-.1,1.2-.21,1.8-.33,3.04-.62,6.03-1.55,8.88-2.76,2.8-1.19,5.51-2.65,8.04-4.36,2.51-1.69,4.86-3.64,7-5.78,2.14-2.14,4.08-4.5,5.78-7,1.71-2.53,3.18-5.23,4.36-8.04,1.21-2.86,2.14-5.84,2.76-8.88.4-1.96.68-3.96.83-5.97.05-.61.08-1.23.1-1.84h-2.05Z"/>
      <path class="cls-1" d="M64.86,46.67c3.32-1.39,6.84-2.09,10.46-2.09h19.21c-.03-.62-.08-1.24-.14-1.85-.16-1.67-.41-3.32-.74-4.96-.62-3.04-1.55-6.03-2.76-8.88-1.19-2.8-2.65-5.51-4.36-8.04-1.69-2.5-3.63-4.86-5.77-7-2.15-2.14-4.5-4.08-7-5.78-2.53-1.71-5.23-3.18-8.04-4.36-2.86-1.21-5.85-2.14-8.89-2.76-3.12-.64-6.32-.96-9.53-.96s-6.42.32-9.53.96c-3.04.62-6.03,1.55-8.88,2.76-2.8,1.18-5.51,2.65-8.04,4.36-2.5,1.69-4.86,3.64-7,5.78-2.15,2.14-4.08,4.5-5.78,7-1.71,2.53-3.18,5.23-4.36,8.04-1.21,2.86-2.13,5.85-2.76,8.88-.33,1.64-.58,3.29-.74,4.96-.05.61-.11,1.23-.14,1.85h19.21c1.37,0,2.73.1,4.07.3.34.05.67.11,1.01.17,1.84.34,3.63.89,5.38,1.61,3.2,1.34,6.09,3.26,8.57,5.71,2.48,2.44,4.45,5.3,5.83,8.48,1.44,3.29,2.19,6.78,2.25,10.4v23.36c.31,0,.62,0,.92,0s.62,0,.92,0v-23.36c.06-3.62.81-7.11,2.25-10.4,1.39-3.18,3.35-6.04,5.83-8.48,2.48-2.45,5.36-4.37,8.56-5.71ZM92.32,42.73h-12.22c.74-.27,1.54-.51,2.38-.72,1.5-.39,3.15-.68,4.91-.89,2.08-.24,3.82-.29,4.7-.31.09.64.17,1.28.23,1.92ZM91.63,38.19c.12.56.22,1.14.31,1.71-.92,0-2.61.07-4.64.31-1.79.21-3.5.52-5.04.91-1.7.43-3.22.98-4.54,1.62h-2.4c-.7,0-1.4.03-2.09.07.82-.56,2.03-1.32,3.64-2.14,1.93-.99,4.04-1.89,6.27-2.66.3-.11.6-.21.9-.31l7.53.17c.02.12.05.22.07.33ZM91.09,35.84c.09.37.19.73.27,1.1l-4.47-.1c1.37-.38,2.77-.71,4.2-1ZM90.84,34.95c-2.8.56-5.49,1.3-8.03,2.19-2.28.8-4.43,1.71-6.4,2.73-2.96,1.52-4.6,2.8-4.99,3.12h-.04c-.68.1-1.36.21-2.03.36,1.47-1.57,3.3-3.06,5.45-4.44,2.15-1.38,4.63-2.66,7.36-3.81,3.51-1.47,6.56-2.35,7.88-2.69.29.83.56,1.68.8,2.54ZM88.99,29.69c.26.61.51,1.23.74,1.85-1.38.37-4.43,1.24-7.91,2.7-2.78,1.17-5.31,2.47-7.51,3.88-2.68,1.72-4.88,3.6-6.53,5.59-.98.26-1.94.58-2.89.94.81-.95,2.04-2.3,3.7-3.89,1.91-1.83,4.01-3.62,6.23-5.31,2.78-2.11,5.76-4.07,8.86-5.84l.07-.04,3.26-3.97c.73,1.33,1.39,2.69,1.98,4.08ZM84.82,22c.61.9,1.17,1.81,1.71,2.75l-3.38,4.11c-3.12,1.77-6.11,3.75-8.9,5.88-2.25,1.71-4.38,3.53-6.31,5.39-2.88,2.76-4.46,4.78-4.86,5.31-1.04.49-2.05,1.03-3.02,1.63.96-1.1,2.26-2.5,3.86-4.17,2.85-2.96,5.7-5.74,5.73-5.77l.09-.09.03-.13c.46-2.12,3.02-5.91,7.4-10.95,2.39-2.76,4.73-5.21,5.87-6.38.62.8,1.21,1.61,1.77,2.44ZM79.29,15.31l.24.24c-.89,1.59-3.81,5.08-5.61,7.14-1.75,2.03-3.47,3.95-4.45,5.03.08-.71.27-1.73.72-3.04.55-1.59,1.37-3.3,2.44-5.05,1.23-2.01,2.78-4.1,4.64-6.23.69.61,1.36,1.25,2.01,1.9ZM72.59,9.78c.24.16.49.33.72.49-.15.62-.5,1.79-1.27,3.38-.71,1.46-1.63,2.98-2.72,4.51-1.13,1.57-2.45,3.15-3.94,4.72.52-2.48,1.65-5.61,3.29-9.17.97-2.11,1.91-3.89,2.46-4.9.5.3.99.62,1.47.95ZM64.91,5.6c.69.29,1.37.61,2.05.93-.28.78-.78,2.13-1.41,3.63-.64,1.49-1.39,3.12-2.2,4.46.14-3.65.96-7.39,1.38-9.09.07.03.12.05.19.07ZM61.02,4.17c-.17,2.22-.5,4.45-.96,6.6-.41,1.93-.94,3.82-1.57,5.61-.51,1.45-1,2.61-1.38,3.42-.18-4.46,1.07-13.28,1.53-16.31.8.21,1.6.43,2.39.68ZM52.42,2.33c.61.07,1.21.15,1.81.24-.17.98-.47,2.62-.9,4.45-.42,1.83-.96,3.85-1.62,5.61l.7-10.31ZM47.29,2.05c.3,0,.61,0,.9,0-.16,2.42-.44,5.4-.9,7.89-.03.18-.07.35-.1.52-.09.42-.17.77-.24,1.07-.61-2.92-.68-7.55-.68-9.47.34,0,.68-.01,1.02-.01ZM38.16,2.96c1-.2,2.01-.37,3.02-.51.31,2.96,1.4,13.99.96,19-.25-.42-.46-.7-.64-.96-.47-.63-.81-1.09-1.42-3.37-.64-2.4-1.54-6.72-2.89-13.95.32-.07.64-.14.96-.21ZM29.67,5.6c.15-.06.3-.12.44-.19,1.32,3.62,3.08,8.51,4.54,12.62,1.47,4.11,2.64,7.44,2.77,7.96.21.82.12,2.19.03,3.1-1.85-1.83-3.5-4.07-4.9-6.66-1.27-2.34-2.35-4.97-3.21-7.82-1.09-3.63-1.55-6.72-1.71-8.07.67-.32,1.36-.64,2.04-.93ZM21.98,9.78c.21-.14.41-.28.62-.42.29.8.72,1.97,1.13,3.21.41,1.24.82,2.55,1.1,3.64-1.83-1.83-3.32-4.52-3.93-5.68.36-.26.72-.51,1.08-.75ZM20.15,11.08c.27.52.69,1.28,1.22,2.13,1.29,2.06,2.58,3.59,3.84,4.56,3.54,6.02,8.87,15.33,9.16,16.5.29,1.18.52,3.89.62,5.28-1.43-1.78-2.91-4.23-3.75-5.68-.7-1.22-2.01-2.46-3.28-3.65-1.18-1.12-2.3-2.17-2.68-3-.15-.33-.35-.84-.59-1.43-1.06-2.62-2.81-6.98-5.01-8.49-.27-.67-.61-1.55-.92-2.38-.31-.83-.61-1.61-.78-2.09.7-.6,1.43-1.18,2.17-1.74ZM17.23,13.47c.28.75.71,1.91,1.1,2.95-1.05-.71-1.87-1.34-2.39-1.76.42-.4.85-.8,1.29-1.19ZM13.3,17.42c1.55,1.81,6.02,7.16,8.34,11.19-3.4-2.58-8.47-7.51-10.08-9.09.56-.72,1.13-1.42,1.73-2.09ZM7.95,24.91c.49-.85,1-1.69,1.54-2.5,1.27,1.47,4.31,5.05,6.72,8.12-.55-.29-1.22-.64-1.93-1.04-3.2-1.81-5.21-3.4-6.38-4.47l.05-.11ZM4.15,33.57c1.87.64,4.79,2.15,8.58,4.43-.6-.21-1.22-.42-1.86-.62-3.04-.97-5.83-1.65-7.26-1.97.17-.62.35-1.22.54-1.83ZM2.25,42.73c.06-.61.13-1.22.22-1.83,1.09.1,2.87.29,4.8.59,1.93.3,3.99.7,5.65,1.24H2.25ZM19.26,42.73h-4.11l.04-.07c-1.64-.86-4.45-1.59-8.37-2.16-1.68-.24-3.22-.41-4.21-.51.1-.61.21-1.21.33-1.81.13-.64.28-1.27.43-1.91,1.4.32,4.18,1,7.22,1.97,2.81.9,4.99,1.77,6.68,2.58,1.12.72,2.13,1.39,2.93,1.92-.31,0-.63,0-.94,0ZM22.25,42.88c-1.07-.98-2.6-1.94-4.55-2.88-.86-.55-1.79-1.15-2.76-1.74-4.75-2.94-8.28-4.82-10.52-5.58.34-1.01.72-2.01,1.14-3,.04-.09.08-.18.12-.27,1.44.9,4.92,3.08,8.76,5.64,3.77,2.52,8.52,5.82,11.62,8.48-1.25-.31-2.52-.53-3.82-.66ZM30.43,44.96c-.77-.32-1.56-.61-2.35-.86-2.38-2.3-6.78-5.59-13.11-9.81-3.95-2.63-7.52-4.87-8.9-5.72.42-.92.88-1.83,1.36-2.73,2.05,1.84,4.58,3.42,6.4,4.45,1.93,1.1,3.42,1.78,3.7,1.91,4.48,3.28,9,7.65,11.98,10.73,1.01,1.04,1.93,2.01,2.7,2.86-.58-.29-1.17-.56-1.78-.82ZM30.19,42.29c-3.02-3.11-7.56-7.51-12.1-10.83-1.3-1.73-2.98-3.8-4.5-5.64-1.53-1.83-2.9-3.43-3.57-4.21.32-.46.64-.92.98-1.36,1.99,1.97,8.42,8.2,11.65,10.18.15.11,1.69,1.29,3.95,4.04,1.39,1.69,2.78,3.64,4.13,5.79,1.27,2.03,2.5,4.23,3.69,6.59-.98-1.1-2.45-2.72-4.24-4.57ZM36.07,48.11c-1.45-3.03-2.98-5.84-4.57-8.36-1.37-2.19-2.8-4.18-4.22-5.9-2.12-2.57-3.6-3.79-3.99-4.08-.48-1.04-1.2-2.29-2.16-3.73-.96-1.44-2.17-3.07-3.59-4.9-1.52-1.94-2.91-3.59-3.61-4.4.44-.49.9-.96,1.36-1.42.71.57,2.03,1.57,3.77,2.68.86.54,1.78,1.73,2.74,3.55.83,1.57,1.54,3.32,2.05,4.6.24.61.45,1.12.61,1.47.45.98,1.64,2.09,2.89,3.28,1.22,1.15,2.48,2.35,3.12,3.44,1.02,1.77,3,5.03,4.73,6.84.33.35,1.2,1.73,3.29,7.09.37.96.72,1.89,1.04,2.74-1.08-1.05-2.23-2.02-3.44-2.88ZM41.1,52.69c-.41-1.15-1.06-2.93-1.78-4.76-.7-1.82-1.34-3.34-1.87-4.52-.7-1.53-1.22-2.47-1.61-2.88-.05-.05-.11-.11-.17-.18h.29c0-.2-.29-4.6-.7-6.29-.07-.27-.28-1.11-4.84-9.09-2.06-3.61-4.1-7.1-4.43-7.65h0c-.36-2.25-1.91-6.57-2.6-8.44,1.09-.68,2.21-1.31,3.35-1.89.2,1.52.68,4.46,1.71,7.88.88,2.92,1.98,5.61,3.28,8.01,1.6,2.96,3.5,5.46,5.65,7.45l6.19,25.69c-.74-1.15-1.57-2.26-2.48-3.3ZM38.27,30.03c.07-.5.39-2.93.05-4.26-.31-1.23-5.81-16.44-7.35-20.69,1.74-.67,3.53-1.24,5.33-1.69,1.35,7.23,2.25,11.55,2.89,13.98.66,2.45,1.06,3,1.57,3.68.33.43.68.92,1.22,2.1.47,1.04.9,3.63,1.28,7.67.31,3.27.59,7.47.81,12.5.21,4.73.34,9.32.42,12.48l-6.22-25.78ZM45.94,60.45c-.05-.11-.09-.22-.14-.33-.1-.24-.21-.46-.31-.7-.04-2.05-.18-8.93-.51-16.14-.51-11.31-1.22-18.16-2.11-20.37.19-.96.29-2.42.29-4.37,0-2.1-.11-4.77-.34-7.99-.25-3.55-.58-6.8-.73-8.21,1.08-.12,2.16-.21,3.24-.25,0,2.34.11,8.43,1.12,11.13l-.52,47.23ZM47.29,63.93v.09l-.02.29c-.13-.49-.27-.97-.42-1.45l.44-41.05.09-8.58c.23-.54,1.21-3.27,1.73-11.16.8.03,1.59.09,2.39.16l-4.22,61.69ZM48.77,60.12c-.12.28-.24.56-.35.84l3.12-45.61c.5-.94.99-2.13,1.45-3.55s.92-3.06,1.34-4.94c.39-1.69.66-3.2.82-4.15.42.07.84.15,1.26.24.44.09.88.19,1.32.29-.21,1.37-.6,4.05-.93,6.95-.64,5.55-.8,9.31-.46,11.19-.22.89-1.89,7.79-3.56,15.6-2.35,10.98-3.6,18.55-3.73,22.52-.1.2-.19.4-.27.61ZM50.16,57.33s-.03.07-.05.1c.41-4.26,1.63-11.17,3.57-20.24,1.69-7.91,3.38-14.88,3.56-15.61.19-.34,1.1-2.03,2.11-4.88.64-1.83,1.18-3.75,1.61-5.73.46-2.13.78-4.31.97-6.51.65.22,1.3.46,1.93.71-.16.64-.39,1.6-.62,2.77-.7,3.56-.84,6.15-.84,7.7,0,4.9-6.36,21.85-9.07,29.08-.21.57-.41,1.08-.57,1.54-1.24,3.32-1.88,6.21-2.2,8.06-.26,1.5-.35,2.55-.39,3.01ZM51.66,53.41c.37-1.86.97-4.21,1.95-6.82.17-.45.36-.96.57-1.54,1.37-3.67,3.68-9.8,5.61-15.57,1.07-3.19,1.91-5.92,2.48-8.1.58-2.17.91-3.81,1.01-5.01.52-.7,1.05-1.57,1.61-2.64.55-1.06,1.12-2.3,1.7-3.71.52-1.25.93-2.37,1.19-3.09.86.44,1.71.9,2.55,1.4-.55,1.01-1.51,2.83-2.5,4.98-.9,1.94-1.65,3.77-2.22,5.43-.73,2.07-1.2,3.91-1.39,5.44-.15.58-2.57,9.61-4.79,12.69-1.19,1.64-3.37,5.8-5.19,9.89-.97,2.17-1.76,4.15-2.29,5.73-.1.32-.2.62-.28.91ZM53.06,52.47l-.37.74c.51-1.59,1.32-3.68,2.38-6.06,1.8-4.04,3.94-8.12,5.1-9.72,1.01-1.39,2.15-4.02,3.39-7.79.8-2.44,1.38-4.59,1.52-5.11h0c1.91-1.93,3.59-3.88,4.98-5.81,1.14-1.57,2.08-3.14,2.81-4.64.68-1.4,1.05-2.48,1.24-3.21h0c.84.62,1.66,1.27,2.47,1.95-1.91,2.19-3.51,4.35-4.77,6.42-1.1,1.83-1.95,3.59-2.52,5.26-.78,2.28-.81,3.74-.79,4.28-3.08,3.1-4.11,4.98-6.55,9.39l-.13.24c-2.54,4.59-8.69,13.96-8.76,14.05l-.02.02ZM62.63,38.84l.13-.24c2.5-4.54,3.44-6.23,6.54-9.33l.16-.16h0c.59-.66,2.84-3.14,5.16-5.81,1.57-1.82,2.86-3.37,3.83-4.62.79-1.02,1.37-1.83,1.74-2.44.79.84,1.55,1.71,2.28,2.61-1.12,1.15-3.53,3.66-5.99,6.5-4.46,5.14-7,8.92-7.58,11.23-.52.52-3.15,3.1-5.75,5.8-1.7,1.77-3.06,3.24-4.03,4.38-.89,1.04-1.38,1.69-1.65,2.13-.78.62-1.54,1.27-2.27,1.98,1.98-3.06,5.61-8.74,7.42-12.02Z"/>
    </g>
  </g>
</svg>