<?xml version="1.0" encoding="UTF-8"?>
<svg id="Layer_2" data-name="Layer 2" xmlns="http://www.w3.org/2000/svg" viewBox="0 0 103.94 104.4">
  <defs>
    <style>
      .cls-1 {
        fill-rule: evenodd;
      }

      .cls-1, .cls-2 {
        fill: #fff;
        stroke-width: 0px;
      }
    </style>
  </defs>
  <g id="Layer_1-2" data-name="Layer 1">
    <g>
      <g>
        <path class="cls-1" d="M0,64.61v.89h27.01v-.89H0Z"/>
        <path class="cls-1" d="M76.93,64.61v.89h27.01v-.89h-27.01Z"/>
      </g>
      <path class="cls-1" d="M20.83,73.17l-2.6,7.53-8.22,1.03c1.47,1.9,3.11,3.72,4.84,5.36l8.82-9.43.6.52c.52.69,1.21,1.3,1.82,1.82l.69-.78c-2.16-1.73-4.24-3.81-5.97-6.05Z"/>
      <path class="cls-1" d="M85.7,80.7l-2.6-7.53c-1.82,2.25-3.81,4.32-5.97,6.05l.61.78c.69-.52,1.3-1.13,1.99-1.82l.52-.52,8.82,9.43c1.73-1.64,3.37-3.46,4.84-5.36l-8.22-1.03Z"/>
      <g>
        <path class="cls-2" d="M39.8,75.59c0-1.38,7.52-3.63,10.22-3.63.35,0,.79.08.79.38,0,1.22-3.42,3.93-3.65,3.93-.25,0-.35-.03-.35-.12s.07-.24.25-.24c.11,0,.28-.11.28-.11.44-.23,3.12-2.45,3.12-3.4,0-.11-.09-.2-.41-.2-3.07,0-9.9,2.45-9.9,3.36,0,.68,3.14,1.29,3.9,1.69.09.05.14.14.14.18,0,.06,0,.18-.16.27-1.15.7-3.92,2.35-3.92,2.89,0,.08.08.11.21.11,2.05,0,6.43-2.44,6.74-2.6.02-.01.04-.02.05-.02.05,0,.06.06.06.09,0,.06-.02.11-.11.12-.58.3-4.62,2.73-6.77,2.73-.35,0-.56-.11-.56-.39,0-.94,3.97-2.92,3.97-3.14,0-.29-3.92-.93-3.92-1.9Z"/>
        <path class="cls-2" d="M46.37,78.99c0-.18.32-.19.71-.44,0,0-.03-.08-.03-.22l.03-.24c.02-.09.12-.18.26-.18.06,0,.09.06.09.13,0,.06-.03.13-.09.18-.02.02-.02.04-.02.07l.02.14c.37-.2.87-.49.94-.49.04,0,.12.05.12.09,0,.09-.19.18-.99.64,0,0,.05.17.32.17.51,0,2.01-.74,2.01-.74.07,0,.11.06.11.11l-.02.06c-.09.05-1.43.81-2.1.81-.48,0-.56-.27-.56-.27,0,0-.58.32-.67.32s-.12-.06-.12-.12Z"/>
        <path class="cls-2" d="M52.27,78.25l-.32.18c-.35.2-1.25.64-1.99.64h-.07c-.46,0-.56-.19-.56-.45,0-.37.74-.8,1.18-.8.23,0,.28.09.28.18,0,.06-.09.09-.14.09-.11,0-.11-.06-.16-.06h-.02c-.19,0-.85.3-.85.58,0,.18.16.23.34.23h.04c.72,0,2.14-.74,2.15-.74.07,0,.12.05.12.11v.05Z"/>
        <path class="cls-2" d="M54.35,78.23c0,.08-1.2.87-1.75.87-.4,0-.59-.26-.59-.48,0-1.01,2.15-3.58,2.97-3.58.17,0,.28.16.28.3,0,.79-2.41,2.69-2.87,2.91,0,0-.06.11-.06.29,0,.1.09.29.3.29.55,0,1.48-.67,1.64-.74.07,0,.09.06.09.14ZM52.49,77.9c.22-.05,2.5-1.95,2.5-2.48,0-.08-.05-.14-.11-.14-.52,0-2.05,1.86-2.39,2.61Z"/>
        <path class="cls-2" d="M53.95,78.65c0-.26.36-.65.44-.65.11,0,.18.03.18.09,0,.03-.05.14-.11.14-.02,0-.19.2-.19.32,0,.06.04.1.14.1.32,0,.74-.3,1.13-.58l.06-.02c.06,0,.14.05.14.12s-.09.16-.09.24c0,.07.05.12.21.12.65,0,1.34-.46,1.41-.46s.09.06.09.09c0,.05-.88.59-1.54.59-.36,0-.42-.15-.42-.25l.02-.1c-.23.21-.74.46-1.02.47-.3,0-.44-.11-.44-.25Z"/>
        <path class="cls-2" d="M56.62,78.86c0-.34.68-.35.68-.35,0-.05-.08-.28-.08-.41,0-.41.43-.45.54-.45.16,0,.22.11.22.16,0,.11-.07.17-.24.26-.11.07-.18.1-.18.1-.04.09.05.21.05.32.56-.04.84-.1,1.49-.39.05,0,.12.04.12.09,0,.06-.06.08-.12.12-.32.24-.97.37-1.48.4-.04.17-.17.41-.64.41-.16,0-.35-.09-.35-.25ZM57.29,78.71c-.19,0-.36.05-.36.1,0,.03.02.07.09.07.16,0,.28-.08.28-.17Z"/>
        <path class="cls-2" d="M58.85,78.56c0-.19.08-.34.24-.48.05-.08.21-.2.36-.2.07,0,.16.04.16.14s-.26.2-.39.26c0,0-.09.06-.09.26,0,.04.05.11.18.11.51,0,1.44-.41,1.75-.57.04,0,.05.03.05.06,0,.06-.02.12-.05.14-.35.21-1.2.58-1.85.58-.28,0-.37-.2-.37-.31ZM59.84,77.44c0-.06.05-.08.11-.08.08,0,.19.06.19.17,0,.07-.08.09-.11.09-.06,0-.19-.1-.19-.17Z"/>
        <path class="cls-2" d="M60.77,78.92c0-.38.39-1.08.53-1.08.09,0,.19.03.19.12,0,.11-.14.33-.28.33-.04.08-.16.32-.16.47,0,.03.02.06.07.06.23,0,.92-.53.92-.53,0,0-.07-.08-.07-.19s.1-.22.28-.22c.09,0,.21.08.21.2,0,.14-.11.21-.11.21,0,0,.11.06.28.06.41,0,.69-.02,1.09-.26.05,0,.09.11.09.17,0,.03-.53.27-1.2.27-.25,0-.42-.11-.42-.11,0,0-.83.67-1.25.67-.12,0-.18-.08-.18-.18Z"/>
        <path class="cls-2" d="M65.79,78.32s-1.1.75-1.95.75c-.39,0-.6-.19-.6-.38,0-.41.82-.86,1.24-.86.12,0,.27.05.27.19,0,.29-.55.47-.9.51-.22.02-.29.12-.29.17,0,.07.05.13.4.13.71,0,1.78-.72,1.83-.72.04,0,.06.02.06.07v.02c0,.07-.04.11-.06.13ZM63.8,78.32c.14,0,.62-.15.62-.22,0-.03-.02-.04-.05-.04-.09,0-.57.19-.57.25Z"/>
      </g>
      <g>
        <path class="cls-2" d="M33.87,65.71c0,.08,0,.19,0,.35,0,.16.01.28.01.35,0,.06-.04.09-.1.09-.03,0-.19-.03-.44-.03h-1.86c-.08,0-.17,0-.28.02s-.17.02-.19.02c-.05,0-.07-.05-.07-.14,0-.08.03-.12.07-.12.02,0,.11.03.17.03.09,0,.14-.06.14-.18v-2.69c0-.12-.05-.18-.14-.18-.06,0-.15.03-.17.03-.05,0-.07-.04-.07-.12,0-.09.03-.14.07-.14.02,0,.08,0,.19.02.11.01.2.02.28.02h1.78c.25,0,.42-.03.44-.03.07,0,.1.03.1.09,0,.07,0,.19-.01.35s-.01.28,0,.35l.02.37c0,.08-.05.09-.12.09-.09,0-.14-.03-.14-.09,0,0,.01-.13.01-.25,0-.42-.3-.66-.72-.66h-.54c-.15,0-.22.06-.22.23v1.08h.18c.38,0,.61-.19.61-.41,0-.05-.02-.12-.02-.15,0-.04.04-.06.11-.06.1,0,.11.03.11.13,0,.03,0,.1-.02.23,0,.13-.01.25-.01.38,0,.29.03.58.03.62,0,.1-.02.13-.11.13-.07,0-.11-.02-.11-.07,0-.02.02-.11.02-.17,0-.21-.23-.39-.61-.39h-.18v1.21c0,.17.07.23.22.23h.62c.42,0,.72-.24.72-.66,0-.12-.01-.24-.01-.25,0-.06.05-.09.14-.09.07,0,.12.02.12.09-.01.13-.02.25-.03.37Z"/>
        <path class="cls-2" d="M36.33,66.28c-.23-.2-.35-.42-.35-.67s.17-.4.4-.4.38.14.38.34c0,.12-.04.21-.11.29-.05.05-.07.09-.07.14-.02.09.19.34.62.34.45,0,.66-.24.66-.6,0-.21-.07-.36-.25-.48-.18-.12-.29-.16-.56-.26l-.3-.11c-.07-.03-.16-.08-.27-.14-.1-.06-.19-.12-.24-.19-.11-.13-.21-.35-.21-.62,0-.31.11-.55.34-.72s.52-.27.89-.27c.34,0,.62.07.85.22.22.15.34.34.34.59s-.16.41-.36.41-.34-.14-.34-.3c0-.1.03-.18.09-.25.05-.05.07-.1.07-.15.02-.07-.15-.27-.65-.27-.4,0-.6.23-.6.5,0,.17.07.31.24.42.09.06.17.1.23.14.07.03.18.07.31.12s.23.09.31.12c.08.04.17.08.28.15.11.07.2.14.26.21.12.14.23.37.23.64,0,.32-.11.58-.35.79-.23.2-.55.3-.96.3-.34,0-.62-.1-.86-.3Z"/>
        <path class="cls-2" d="M43.4,64.07c0,.08-.04.1-.1.09-.1,0-.16-.04-.16-.1,0-.03.01-.13.01-.19,0-.38-.25-.61-.62-.61h-.27v2.79c0,.18.04.22.12.22s.23-.03.29-.03c.05,0,.07.04.07.13,0,.1-.03.13-.13.13-.05,0-.11,0-.19-.01-.14-.02-.31-.02-.51-.02s-.38,0-.53.02c-.08,0-.14.01-.19.01-.09,0-.12-.03-.12-.13,0-.09.02-.13.07-.13s.2.03.29.03.12-.05.12-.22v-2.79h-.26c-.37,0-.62.23-.62.61,0,.06.01.17.01.19,0,.06-.05.1-.16.1-.06,0-.11-.02-.1-.09v-.11s.03-.16.03-.16c0-.08,0-.2,0-.36,0-.16-.01-.28-.01-.34,0-.06.04-.09.1-.09.03,0,.19.03.44.03h1.89c.24,0,.41-.03.44-.03.07,0,.1.03.1.09,0,.07,0,.18-.02.34,0,.16,0,.28,0,.36l.02.16v.11Z"/>
        <path class="cls-2" d="M48.66,64.75c0,1.23-.62,1.76-1.84,1.76-.11,0-.25,0-.41-.02-.16,0-.27-.01-.3-.01h-.33c-.08,0-.17,0-.28.02-.11.01-.17.02-.19.02-.05,0-.07-.05-.07-.14,0-.08.03-.12.07-.12.02,0,.11.03.17.03.09,0,.14-.06.14-.18v-2.69c0-.12-.05-.18-.14-.18-.06,0-.15.03-.17.03-.05,0-.07-.04-.07-.12,0-.09.03-.14.07-.14.02,0,.08,0,.19.02.11.01.2.02.28.02h.28c.1,0,.24,0,.42-.01.17-.01.29-.02.34-.02,1.21,0,1.84.51,1.84,1.75ZM46.73,66.28c.76,0,1.11-.49,1.11-1.53,0-.54-.08-.92-.25-1.17-.17-.24-.46-.36-.87-.36h-.11c-.15,0-.22.06-.22.23v2.6c0,.17.07.23.22.23h.12Z"/>
        <path class="cls-2" d="M50.69,66.16c0-.19.15-.34.35-.34.19,0,.34.16.35.34,0,.21-.15.37-.34.37-.2,0-.35-.16-.36-.37Z"/>
        <path class="cls-2" d="M58.58,65.47c-.05.24-.09.55-.12.93,0,.06-.04.09-.09.09,0,0-.06,0-.16,0-.1,0-.19,0-.28,0h-1.57c-.1,0-.15-.05-.15-.15,0-.33.09-.6.28-.83.09-.11.18-.2.25-.27.08-.07.19-.16.32-.26l.29-.22c.07-.06.14-.13.23-.22.17-.19.24-.4.24-.66,0-.42-.18-.71-.55-.71-.24,0-.44.16-.44.32,0,.03.03.08.08.15.06.07.08.14.08.23,0,.19-.16.35-.36.35-.25,0-.42-.16-.42-.41,0-.21.11-.41.34-.58.22-.18.49-.27.8-.27.38,0,.69.09.91.28.23.18.34.42.34.71,0,.23-.1.45-.21.59-.05.07-.13.15-.24.22-.11.08-.2.14-.27.18-.07.04-.17.1-.31.17-.15.08-.25.14-.32.18-.07.04-.16.1-.28.18-.22.15-.35.31-.45.51h1.48c.17,0,.25-.07.29-.22.03-.1.04-.26.04-.27.01-.06.06-.09.16-.09.08,0,.11.04.09.08Z"/>
        <path class="cls-2" d="M61.07,63.43c.27-.32.64-.48,1.12-.48s.83.16,1.09.49c.27.32.4.76.4,1.31s-.13,1.01-.4,1.34c-.27.33-.63.49-1.12.49s-.84-.17-1.1-.49c-.26-.33-.39-.78-.39-1.34s.13-.99.4-1.32ZM61.6,65.9c.1.29.28.43.57.43s.47-.15.57-.44c.1-.29.14-.63.14-1.14,0-1.06-.16-1.58-.68-1.58s-.71.55-.71,1.59c0,.54.03.85.12,1.15Z"/>
        <path class="cls-2" d="M68.11,65.47c-.05.24-.09.55-.12.93,0,.06-.04.09-.09.09,0,0-.06,0-.16,0-.1,0-.19,0-.28,0h-1.57c-.1,0-.15-.05-.15-.15,0-.33.09-.6.28-.83.09-.11.18-.2.25-.27.08-.07.19-.16.32-.26l.29-.22c.07-.06.14-.13.23-.22.17-.19.24-.4.24-.66,0-.42-.18-.71-.55-.71-.24,0-.44.16-.44.32,0,.03.03.08.08.15.06.07.08.14.08.23,0,.19-.16.35-.36.35-.25,0-.42-.16-.42-.41,0-.21.11-.41.34-.58.22-.18.49-.27.8-.27.38,0,.69.09.91.28.23.18.34.42.34.71,0,.23-.1.45-.21.59-.05.07-.13.15-.24.22-.11.08-.2.14-.27.18-.07.04-.17.1-.31.17-.15.08-.25.14-.32.18-.07.04-.16.1-.28.18-.22.15-.35.31-.45.51h1.48c.17,0,.25-.07.29-.22.03-.1.04-.26.04-.27.01-.06.06-.09.16-.09.08,0,.11.04.09.08Z"/>
        <path class="cls-2" d="M70.6,63.43c.27-.32.64-.48,1.12-.48s.83.16,1.09.49c.27.32.4.76.4,1.31s-.13,1.01-.4,1.34c-.27.33-.63.49-1.12.49s-.84-.17-1.1-.49c-.26-.33-.39-.78-.39-1.34s.13-.99.4-1.32ZM71.13,65.9c.1.29.28.43.57.43s.47-.15.57-.44c.1-.29.14-.63.14-1.14,0-1.06-.16-1.58-.68-1.58s-.71.55-.71,1.59c0,.54.03.85.12,1.15Z"/>
      </g>
      <path class="cls-1" d="M26.1,24.39c-.6.61-1.3,1.13-1.82,1.82l-.6.52-8.82-9.43c-1.73,1.64-3.37,3.46-4.84,5.36l8.22,1.04,2.6,7.52c1.73-2.16,3.81-4.24,5.97-6.05l-.69-.78Z"/>
      <path class="cls-1" d="M89.07,17.3l-8.82,9.43-.52-.52c-.69-.69-1.3-1.21-1.99-1.82l-.61.78c2.16,1.82,4.15,3.89,5.97,6.05l2.6-7.52,8.22-1.04c-1.47-1.9-3.11-3.72-4.84-5.36Z"/>
      <g>
        <path class="cls-1" d="M14.97,27.08c-2.88-.17-4.79,2.91-3.4,5.38.3-.73.69-1.45,1.16-2.11-.36.69-.66,1.42-.86,2.21.79.03,1.59-.27,2.18-.86.53-.56.79-1.32.76-2.11-.07-.86-.83-1.52.17-2.51Z"/>
        <path class="cls-1" d="M10.21,31.24c-.56-.69-1.55-.76-1.32-2.15-2.45,1.49-2.25,5.12.3,6.37-.16-.79-.23-1.62-.23-2.45.07.79.26,1.59.53,2.31.69-.43,1.19-1.12,1.32-1.91.1-.79-.1-1.59-.59-2.18Z"/>
        <path class="cls-1" d="M8.13,35.23c-.59-.63-1.59-.63-1.49-2.01-2.31,1.72-1.78,5.32.89,6.31-.23-.76-.4-1.59-.46-2.38.13.76.39,1.52.73,2.25.66-.5,1.06-1.22,1.12-2.05.07-.79-.23-1.55-.79-2.11Z"/>
        <path class="cls-1" d="M6.68,39.65c-.07-.08-.15-.15-.24-.22-.66-.6-1.65-.5-1.65-1.88-.66.59-1.04,1.34-1.16,2.11-.05.3-.06.59-.03.89h3.65c-.13-.33-.32-.63-.57-.89Z"/>
        <path class="cls-1" d="M15.59,33.02c-.99,1.03-1.65.27-2.51.2-.79-.07-1.55.2-2.11.76-.59.56-.89,1.35-.83,2.18.76-.23,1.49-.49,2.18-.89-.66.46-1.39.86-2.11,1.19,2.48,1.39,5.55-.56,5.38-3.44Z"/>
        <path class="cls-1" d="M13.31,37.28c-.89,1.12-1.59.43-2.48.46-.79.03-1.52.39-2.01.99-.23.27-.4.59-.5.92-.09.29-.14.59-.13.89h1.01c.39-.2.76-.43,1.1-.69-.26.25-.54.48-.83.69h2.76c.27-.26.5-.56.68-.89.37-.68.53-1.5.38-2.37Z"/>
      </g>
      <g>
        <path class="cls-1" d="M89.24,27.08c.99.99.23,1.65.16,2.51-.07.79.23,1.55.76,2.11.56.59,1.35.89,2.18.86-.2-.79-.49-1.52-.89-2.21.5.66.89,1.39,1.19,2.11,1.39-2.48-.53-5.55-3.4-5.38Z"/>
        <path class="cls-1" d="M95.28,29.09c.27,1.39-.73,1.45-1.29,2.15-.49.59-.69,1.39-.59,2.18.13.79.63,1.49,1.29,1.91.3-.73.46-1.52.56-2.31,0,.83-.1,1.65-.26,2.45,2.57-1.25,2.74-4.89.3-6.37Z"/>
        <path class="cls-1" d="M97.56,33.22c.1,1.39-.89,1.39-1.52,2.01-.53.56-.83,1.32-.76,2.11.03.83.46,1.55,1.09,2.05.36-.73.59-1.49.76-2.25-.07.79-.23,1.62-.46,2.38,2.68-.99,3.17-4.59.89-6.31Z"/>
        <path class="cls-1" d="M100.57,39.65c-.12-.77-.5-1.52-1.16-2.11,0,1.39-.99,1.29-1.68,1.88-.08.07-.16.14-.24.22-.24.26-.43.56-.55.89h3.66c.03-.3.02-.6-.03-.89Z"/>
        <path class="cls-1" d="M93.24,33.98c-.56-.56-1.35-.83-2.11-.76-.89.07-1.52.83-2.51-.2-.2,2.87,2.87,4.82,5.38,3.44-.76-.33-1.45-.73-2.11-1.19.69.4,1.42.66,2.18.89.07-.83-.23-1.62-.83-2.18Z"/>
        <path class="cls-1" d="M96.01,40.54c0-.3-.04-.61-.13-.89-.1-.33-.27-.64-.5-.92-.49-.6-1.25-.96-2.01-.99-.89-.03-1.59.66-2.48-.46-.15.87,0,1.69.38,2.37.18.33.41.63.68.89h2.77c-.29-.21-.57-.44-.83-.69.34.25.71.49,1.09.69h1.03Z"/>
      </g>
      <g>
        <g>
          <path class="cls-1" d="M13.74,70.32c.3,1.39-.66,1.52-1.19,2.21-.46.63-.66,1.42-.5,2.21.17.79.69,1.49,1.39,1.85.23-.73.39-1.52.43-2.31.03.83,0,1.62-.13,2.41,2.51-1.35,2.51-4.99,0-6.37Z"/>
          <path class="cls-1" d="M6.92,65.46h-2.14c.67.23,1.43.27,2.19.04-.02-.01-.03-.02-.05-.04Z"/>
          <path class="cls-1" d="M8.03,67.08c-.25-.3-.56-.55-.9-.73-.33-.17-.7-.28-1.08-.3-.89-.03-1.62.63-2.48-.49-.05.27-.07.53-.06.79.06,2.46,2.56,4.26,4.98,3.3-.69-.43-1.35-.93-1.95-1.45.63.46,1.32.86,2.05,1.15.17-.79-.03-1.62-.56-2.28Z"/>
          <path class="cls-1" d="M9.68,71.11c-.53-.56-1.29-.86-2.08-.83-.86.03-1.52.76-2.48-.27-.3,2.87,2.71,4.89,5.25,3.6-.73-.33-1.42-.76-2.08-1.26.7.4,1.42.73,2.15.96.1-.79-.16-1.62-.76-2.21Z"/>
          <path class="cls-1" d="M12.68,77.09c0-.79-.36-1.59-.96-2.11-.59-.5-1.39-.73-2.18-.63-.86.1-1.45.89-2.51-.03,0,2.87,3.17,4.62,5.58,3.1-.76-.26-1.49-.63-2.18-1.06.7.33,1.46.59,2.25.73Z"/>
          <path class="cls-1" d="M7.84,65.46c.03.31.11.61.23.89.16.37.4.7.71.96.18-.31.34-.63.48-.96.13-.29.24-.59.34-.89h-1.76Z"/>
          <path class="cls-1" d="M9.66,65.46c-.06.3-.13.6-.22.89-.11.38-.24.75-.39,1.12.72-.21,1.31-.61,1.75-1.12.23-.27.42-.57.56-.89h-1.71Z"/>
          <path class="cls-1" d="M12.4,66.36c-.16-.17-.34-.32-.54-.46.02.17.02.33,0,.46-.11.94-.93,1.04-1.45,1.59-.53.59-.79,1.36-.73,2.15.07.79.53,1.55,1.19,2.02.3-.73.53-1.49.66-2.28-.03.83-.17,1.62-.39,2.41,2.42-1,2.98-4.1,1.27-5.88Z"/>
        </g>
        <g>
          <path class="cls-1" d="M91.65,72.5c-.53-.69-1.52-.83-1.19-2.21-2.51,1.39-2.51,5.02,0,6.37-.13-.79-.2-1.58-.13-2.41.03.79.17,1.58.43,2.31.69-.36,1.22-1.06,1.38-1.85.14-.79-.03-1.59-.49-2.21Z"/>
          <path class="cls-1" d="M97.28,65.43s-.03.02-.05.04c.77.23,1.52.2,2.19-.04h-2.15Z"/>
          <path class="cls-1" d="M100.64,65.53c-.86,1.12-1.59.46-2.48.49-.38.02-.75.12-1.09.3-.35.18-.66.43-.89.73-.53.66-.73,1.49-.56,2.28.73-.3,1.42-.69,2.05-1.15-.59.53-1.25,1.03-1.95,1.45,2.39.96,4.92-.85,4.98-3.3,0-.26,0-.52-.06-.79Z"/>
          <path class="cls-1" d="M99.08,69.99c-.96,1.03-1.62.3-2.51.27-.76-.03-1.52.27-2.08.83-.56.59-.83,1.42-.76,2.21.76-.23,1.49-.56,2.18-.96-.66.5-1.35.93-2.08,1.26,2.54,1.29,5.55-.73,5.25-3.6Z"/>
          <path class="cls-1" d="M94.62,74.32c-.76-.1-1.55.13-2.15.63-.63.53-.96,1.32-.96,2.11.76-.13,1.52-.4,2.25-.73-.69.43-1.42.79-2.18,1.06,2.41,1.52,5.58-.23,5.55-3.1-1.03.92-1.62.13-2.51.03Z"/>
          <path class="cls-1" d="M94.59,65.43c.09.3.21.6.34.89.14.33.31.65.49.96.3-.26.54-.59.7-.96.12-.28.2-.58.23-.89h-1.75Z"/>
          <path class="cls-1" d="M94.77,66.32c-.08-.29-.16-.59-.22-.89h-1.71c.14.32.33.62.56.89.44.51,1.03.91,1.75,1.12-.14-.37-.28-.74-.39-1.12Z"/>
          <path class="cls-1" d="M93.8,67.91c-.52-.55-1.37-.64-1.46-1.59-.01-.14-.01-.29,0-.46-.2.14-.38.3-.54.46-1.72,1.79-1.18,4.88,1.27,5.88-.23-.79-.36-1.59-.43-2.41.13.79.36,1.55.69,2.28.66-.46,1.09-1.22,1.19-2.02.07-.79-.2-1.55-.73-2.15Z"/>
        </g>
      </g>
      <path class="cls-1" d="M0,39.65v.89h17.08v-.89H0ZM86.81,39.65v.89h17.13v-.89h-17.13Z"/>
      <g>
        <path class="cls-1" d="M45.39,97.22c.61.09.95.17,1.56.26-.26-.78-.35-1.12-.52-1.82-.43.6-.6.95-1.04,1.55Z"/>
        <path class="cls-1" d="M33.29,89.78c-1.04-.6-2.07-.17-2.94,1.04-.95,1.3-1.04,2.33.17,3.03,1.04.6,2.07.26,2.85-1.21.87-1.39.78-2.34-.09-2.86Z"/>
        <path class="cls-1" d="M80.26,78.79c-7.18,7.26-17.22,11.76-28.29,11.76-10.12,0-19.29-3.72-26.3-9.95l-.09-.08-.26-.26h-.09v-.08l-.26-.17v-.09h-.09l-.09-.08-.09-.09v-.08h-.09l-.17-.17h-.09v-.09c-.09-.08-.17-.26-.26-.26l-.08-.08c-.09-.09-.17-.18-.35-.26l-9.43,10.04c9.69,9.6,23.01,15.57,37.71,15.57s28.02-5.97,37.71-15.57l-9.43-10.04ZM34.76,93.33c-.69,1.38-2.08,1.73-4.15,1.04-.86-.35-1.64-.51-2.25-.6.52.09.95.26,1.38.52.17.17.43.26.61.43l.43.43c.09.17.17.26.26.35.26.34.52.6.69.69.35.18.69.09.86-.17.09-.09.17-.09.26-.09.17.09.17.17.17.26-.43.69-1.13.86-1.9.52-.43-.26-.87-.6-1.3-1.12-.86-1.12-1.64-1.64-2.77-1.73-.17,0-.26,0-.26-.17q0-.09.17-.17c.95-.09,1.73,0,2.77.26-.69-.52-1.12-1.21-1.21-1.91-.17-.6.09-1.3.52-1.9.52-.69,1.21-1.04,1.99-1.12.78-.09,1.56.17,2.42.6.78.52,1.3,1.04,1.56,1.73.17.69.17,1.47-.26,2.16ZM42.37,94.36c-.26.78-.35,1.21-.61,2.08-.26.78-.6,1.21-1.12,1.47-.52.26-1.21.35-1.82.09-1.82-.52-2.42-1.73-1.82-3.12.34-.95.6-1.38.95-2.34.17-.26.09-.26,0-.35-.17-.08-.43-.08-.52-.17-.09,0-.09-.09,0-.26.09-.08.17-.08.26-.08.09.08.17.08.35.17.17.09.52.26.78.35.35.17.69.26.86.26.17.08.26.08.35.17.17,0,.17.08.09.26,0,.09-.09.17-.17.09-.09,0-.26-.09-.43-.17-.09-.09-.26,0-.34.26-.35.87-.52,1.39-.87,2.25-.52,1.3-.43,1.99.6,2.34,1.21.35,1.99-.09,2.42-1.39.26-.78.34-1.21.6-2.07.09-.35,0-.61-.26-.69h-.26c-.08-.09-.08-.17,0-.26,0-.17.09-.17.26-.08.09,0,.17,0,.26.08.17.09.35.09.43.17.26,0,.43.09.52.09.43.08.52.08.52.26q-.08.17-.17.17c-.08,0-.17-.08-.26-.08-.26-.09-.52.17-.61.52ZM49.63,99.9s-.6-.08-1.47-.08c-.6-.09-1.21-.09-1.38-.17q-.26,0-.26-.17c0-.17.09-.26.17-.26,0,.09.17.09.35.09.34.08.43-.09.34-.35-.17-.43-.17-.61-.34-1.04-.78-.09-1.12-.17-1.9-.35-.26.43-.43.61-.69.95-.17.26-.09.43.26.43.09.08.26.08.35.08s.09.09.09.17q-.09.17-.35.17c-.09,0-.52-.17-.95-.26-.43-.09-.78-.09-.86-.09q-.26-.08-.26-.26t.17-.17c.09,0,.26.08.34.08.26.09.52,0,.78-.26,1.21-1.64,1.73-2.51,2.85-4.15,0-.09.09-.09.26-.09.09,0,.17.09.26.17.43,1.9.78,2.85,1.47,4.76.17.26.35.43.6.43h.35c.08,0,.08.09.08.17,0,.17,0,.26-.26.17ZM56.99,99.81h-.95c-1.12.08-1.73.17-2.85.17h-1.04c-.09,0-.17,0-.17-.17,0-.09.08-.17.17-.17h.26c.26,0,.35,0,.35-.35,0-1.56,0-2.34-.09-3.98,0-.26,0-.35-.17-.35s-.43.08-.52.08c-.09,0-.09-.08-.09-.17,0-.17.09-.26.26-.26,0,0,.17,0,.43.08h.78c.52,0,1.04-.08,1.21-.08.17-.09.17,0,.17.17,0,.08,0,.17-.09.17h-.52c-.09,0-.17.08-.17.35.08,1.55.17,2.34.17,3.89.08.26.17.35.52.35h.43c.43,0,.78-.17,1.04-.43.35-.26.43-.6.43-.95,0-.09-.08-.35-.08-.44s.08-.17.26-.17.26,0,.26.09v.35c0,.26,0,.43.09.6v.6c.09.17.09.35.09.44s0,.08-.17.17ZM62.18,98.86c-.09.09-.17.09-.35.09-.26.08-.61.08-1.04.17-.35.08-.69.17-.95.26-.17,0-.35.09-.43.09-.17,0-.26,0-.26-.17s0-.17.09-.26h.61c.17-.08.17-.17.17-.43-.35-1.56-.52-2.34-.78-3.89-.09-.26-.17-.26-.26-.26-.17,0-.43.08-.52.08-.09,0-.17,0-.17-.17s0-.17.17-.17c.08-.09.17-.09.34-.09.26,0,.52-.09.87-.09.35-.08.69-.17.86-.26.17,0,.26-.08.35-.08q.17,0,.26.17c0,.08,0,.17-.09.17s-.35.09-.52.09c-.08,0-.17.09-.08.35.35,1.56.6,2.34.95,3.89.09.26.09.35.26.26.17,0,.43-.08.61-.08.09-.09.09,0,.17.08,0,.17,0,.26-.26.26ZM68.41,96.96c-.09,0-.17.08-.35.08-.26.09-.61.26-.95.35-.43.17-.78.26-1.04.35-.09.09-.26.17-.35.17-.17.09-.26,0-.26-.08-.09-.17-.09-.26.09-.26.09,0,.35-.08.52-.17.17,0,.17-.08.09-.35-.61-1.64-.95-2.42-1.56-4.06-.17.08-.26.08-.43.17-.61.17-.87.69-.69,1.21,0,.09.09.26.09.26.09.08,0,.17-.17.26-.17,0-.26,0-.26-.08q0-.09-.09-.17v-.26c0-.08-.08-.26-.17-.52-.08-.26-.17-.44-.17-.52,0-.09,0-.17.09-.17s.34-.09.78-.17c1.21-.44,1.82-.61,3.03-1.13.43-.17.69-.34.69-.34.17,0,.26,0,.26.08.09.09.09.26.17.52.17.17.26.35.26.43.09.09.09.17.17.26,0,.08.09.08.09.17.09.08,0,.17-.09.17-.17.08-.35.08-.35,0,0-.09-.09-.26-.09-.35-.26-.52-.87-.61-1.47-.44-.17.09-.26.17-.43.17.69,1.65,1.04,2.42,1.73,3.98.09.26.17.35.35.26.09-.09.35-.17.52-.26q.09,0,.17.17c.09.09,0,.17-.17.26ZM75.67,93.24c-.08.09-.26.09-.34.17-.26.17-.61.35-.95.52-.35.26-.6.43-.87.6-.17.09-.26.09-.34.17-.17.09-.26.09-.35-.08-.09-.09-.09-.17,0-.17.09-.09.43-.17.52-.26.17-.09.17-.18.09-.44-.35-.52-.52-.69-.78-1.21-1.13-.6-1.64-.86-2.6-1.47-.26-.17-.52-.17-.78-.08-.09.08-.26.17-.26.17-.08.08-.17,0-.17-.09-.09-.17-.09-.26.09-.26,0-.09.52-.26,1.21-.61.52-.26.95-.6,1.04-.69.17-.09.26-.09.35.08.09.08.09.17,0,.26-.08,0-.26.08-.35.08q-.17.17.09.43c.86.44,1.21.61,2.07,1.04-.08-.87-.17-1.3-.26-2.07-.09-.35-.26-.35-.43-.26-.09.09-.17.17-.26.17s-.09,0-.17-.08q-.09-.17.09-.26c.09-.08.43-.26.69-.43.34-.26.61-.44.69-.52.17-.09.26-.09.35,0,.09.08.09.17,0,.26,0,0-.17.09-.26.17-.26.17-.35.35-.35.69.17,1.04.26,1.56.35,2.68.34.52.52.78.86,1.3.17.17.26.17.43.09.09-.09.35-.26.43-.35.09,0,.17,0,.26.08.08.17.08.26-.09.35Z"/>
      </g>
      <g>
        <path class="cls-1" d="M36.39,7.7c-.09,0-.17.08-.34.08-.26.17-.35.26-.26.52.26.6.43.86.6,1.39.17,0,.26-.09.43-.09.86-.43,1.21-.86.95-1.56-.17-.52-.69-.69-1.39-.34Z"/>
        <path class="cls-1" d="M31.46,11.5c-.34-.69-.95-.86-1.82-.26h-.09c-.26.17-.34.35-.17.61.43.69.69,1.04,1.13,1.64.08-.09.17-.09.34-.17.78-.61,1.04-1.21.6-1.82Z"/>
        <path class="cls-1" d="M51.96,0c-14.71,0-28.03,5.97-37.71,15.57l9.43,10.12c.17-.17.26-.26.35-.34h.08c.09-.09.17-.17.26-.26v-.08h.09l.17-.26h.09l.09-.08v-.09h.09l.09-.08v-.09l.26-.17.09-.08.26-.26h.09c7.01-6.23,16.17-10.03,26.3-10.03,11.07,0,21.11,4.58,28.29,11.85l9.43-10.12C79.99,5.97,66.67,0,51.96,0ZM31.46,14.97c.17.26.26.26.35.17.09-.08.35-.26.43-.26q.09,0,.17.09c.09.09,0,.17-.08.26-.09.09-.52.26-.95.61-.26.17-.43.26-.6.43-.17.17-.26.26-.35.26q-.17.09-.26,0c-.09-.09-.09-.17-.09-.17.09-.09.35-.17.44-.26.08-.08.17-.17,0-.43-.95-1.21-1.39-1.82-2.25-3.11-.17-.17-.26-.17-.43-.09-.08.09-.17.17-.17.26-.09,0-.17,0-.26-.08-.09-.08-.09-.17,0-.26,0,0,.26-.17.43-.26.35-.26.52-.34.78-.6.09,0,.26-.09.52-.26.26-.26.43-.35.52-.43,1.47-.95,2.51-.95,3.03,0,.52.86,0,1.64-1.3,2.51-.26.17-.43.26-.69.43.35.52.43.78.78,1.21ZM40.2,11.42c-.69.17-1.3-.08-1.64-.87-.09-.17-.17-.26-.26-.34-.09-.17-.26-.43-.35-.52-.26-.09-.52-.09-1.04.17-.17.09-.26.09-.35.17.26.69.44,1.04.78,1.73.09.26.17.34.26.26.17-.09.34-.17.43-.17.09-.09.09,0,.17.08q0,.17-.17.26c-.09.08-.52.17-.95.43-.26.08-.52.17-.69.26-.17.17-.34.17-.34.26-.17.08-.26,0-.26-.09-.09-.08-.09-.17,0-.26,0,0,.26-.09.43-.17.09,0,.17-.08,0-.35-.6-1.39-.95-2.07-1.64-3.46-.09-.26-.17-.26-.34-.17-.09,0-.17.17-.26.17s-.17,0-.17-.09q-.09-.17,0-.26s.26-.09.52-.17c.34-.17.52-.26.86-.43,0,0,.17-.09.43-.17.26-.17.43-.26.6-.35,1.47-.61,2.42-.43,2.68.35.17.6-.17,1.21-.95,1.64.87-.17,1.47,0,1.73.69.17.43.26.69.35.78.09.17.17.17.26.17.09-.09.17-.09.26-.26,0,0,.09-.09.17,0,.09,0,.09.08.09.08-.09.26-.26.43-.61.6ZM46.6,9.86h-.69c-1.12.26-1.73.35-2.86.6-.08.08-.26.08-.43.17-.17.09-.26.09-.26.09q-.09,0-.17-.18c0-.08,0-.17.09-.17,0,0,.17,0,.26-.09.17,0,.17-.08.17-.26-.43-1.56-.61-2.34-1.04-3.81,0-.17-.17-.26-.26-.26-.17.09-.26.17-.35.17s-.08-.08-.17-.17c0-.08,0-.17.09-.26h.35c.17-.09.34-.09.52-.17,1.21-.26,1.82-.44,3.11-.61.43-.08.69-.17.69-.17.17,0,.26,0,.26.09s0,.26.09.52v.52c.09.17.09.34.17.52,0,.08-.09.17-.17.17-.17,0-.26,0-.26-.08,0,0-.08-.17-.08-.35-.09-.6-.69-.87-1.39-.78-.43.08-.61.17-.95.17-.26.08-.35.17-.35.43.17.6.26.95.43,1.56.09,0,.17,0,.26-.09.61-.08.95-.43.87-.78,0-.09,0-.17-.09-.17,0-.08.09-.17.17-.17.17,0,.26,0,.26.17v.35c.09.17.09.35.09.52.09.43.26.87.26.95s0,.17-.17.17c-.09,0-.17,0-.17-.09v-.17c-.09-.35-.52-.52-1.13-.44q-.17.09-.35.09c.17.69.26,1.03.43,1.73.09.26.17.35.43.26.35-.09.52-.09.95-.17.61-.17,1.04-.61.95-1.21,0-.17-.09-.35-.09-.35,0-.08.09-.08.26-.17.09,0,.17,0,.17.17s0,.35.09.52c0,.08,0,.26.09.52,0,.26,0,.35.09.52,0,.08-.09.08-.17.17ZM55.59,4.76h-.35c-.09,0-.17.09-.26.26-.09,1.47-.17,2.25-.26,3.81,0,.26,0,.35.17.35h.43c.09,0,.09.08.09.17,0,.17-.09.26-.17.17h-.35c-.17,0-.43-.09-.78-.09h-1.13c-.09,0-.17-.08-.17-.17,0-.17,0-.26.09-.26.09.08.35.08.43.08.17,0,.26-.08.26-.35,0-1.3.09-1.99.09-3.37-.78,1.64-1.13,2.42-1.82,3.98,0,.08-.08.17-.26.17-.09,0-.17-.09-.17-.17-.78-1.56-1.21-2.34-2.08-3.89.09,1.21.09,1.82.17,3.12,0,.34.26.6.44.52h.26c.09,0,.09.09.09.17q0,.17-.17.17h-.69c-.26,0-.35.09-.52.09-.35.08-.43.08-.43-.09-.09-.17,0-.26.09-.26,0,0,.17.08.26,0,.17,0,.35-.26.26-.6-.09-1.39-.09-2.08-.26-3.46,0-.26-.09-.35-.35-.35-.09,0-.26.09-.35.09s-.09-.09-.09-.17c-.09-.17,0-.17.09-.26h1.38c.17-.08.44-.08.52-.08s.17,0,.17.08c.78,1.39,1.13,2.08,1.82,3.46.52-1.39.87-2.08,1.56-3.46q.09-.08.17-.08c.08,0,.35,0,.6.08h1.21c.09,0,.17.09.17.26-.09.08-.09.17-.17.08ZM60.52,5.36q0,.17-.08.17c-.09,0-.35-.09-.52-.17-.17,0-.26.08-.26.35-.26,1.47-.43,2.16-.69,3.72q-.09.26.09.35h.43q.09.09.09.26c0,.17-.09.17-.26.08h-.26c-.26-.08-.52-.17-.78-.17-.35-.08-.61-.08-.87-.17h-.26c-.17,0-.17-.08-.17-.17,0-.17.09-.26.17-.17,0,0,.26.09.43.09.09,0,.17-.09.17-.35.26-1.47.43-2.25.6-3.72.09-.26,0-.35-.08-.35h-.52c-.09-.08-.17-.08-.09-.26,0-.09.09-.17.26-.17,0,.08.17.08.26.08.26.09.61.17.95.17.35.09.69.17.95.17h.26c.17.09.26.09.17.26ZM67.1,8.22c-.26.69-.43,1.12-.78,1.9-.26.69-.61,1.12-1.13,1.3-.43.26-.86.26-1.38.09-1.38-.44-1.99-1.47-1.64-2.86.26-.87.34-1.3.61-2.25.08-.26.08-.35-.09-.35-.17-.09-.43-.09-.52-.09s-.09-.08-.09-.26c.09-.09.09-.17.26-.09.09,0,.26.09.34.09.26.08.52.17.87.26.35.09.69.17.95.26.09.09.26.09.34.09.09.09.17.09.09.26,0,.09-.09.17-.17.17-.09-.08-.26-.17-.43-.26-.17,0-.26.08-.35.26-.26.95-.35,1.39-.69,2.25-.34,1.3-.17,1.9.61,2.16.87.35,1.64-.09,2.08-1.21.26-.78.43-1.12.78-1.9.08-.35,0-.69-.26-.78h-.26c-.09-.08-.09-.17,0-.26,0-.17.09-.17.26-.09.09,0,.17.09.34.17.09,0,.26.09.44.17.17.09.34.17.52.17.35.09.52.17.43.35q-.09.17-.17.17c-.09,0-.17-.17-.26-.17-.26-.08-.52.09-.69.44ZM76.53,12.63c-.09.08-.17.08-.17,0-.09,0-.17-.08-.26-.17-.17-.08-.26-.08-.34.09-.95,1.21-1.39,1.82-2.25,3.11q-.17.26-.08.35c.08.08.35.26.43.26.09.09.09.17,0,.26-.08.08-.17.08-.35,0,0,0-.08-.09-.17-.17-.17-.17-.43-.35-.69-.52-.26-.17-.52-.35-.78-.44-.09-.08-.17-.17-.26-.17-.09-.08-.09-.17,0-.26,0-.17.08-.17.17-.09.09,0,.26.18.35.26.17.08.26.08.35-.17.78-1.12,1.13-1.64,1.9-2.77-1.56.86-2.34,1.38-3.72,2.34-.09.08-.17.08-.26,0-.09-.09-.17-.17-.17-.26.17-1.73.26-2.59.26-4.41-.61,1.03-.87,1.64-1.47,2.77-.17.26-.08.6.09.69.08.08.26.08.26.08q.09.09,0,.26c-.08.08-.17.08-.26,0-.09,0-.17-.09-.26-.09-.17-.08-.26-.17-.35-.26-.17-.09-.35-.17-.43-.17-.43-.17-.52-.17-.43-.35s.17-.17.17-.17c.09,0,.17.08.26.17.17.09.43-.09.61-.35.61-1.3.95-1.9,1.56-3.2.17-.17.09-.35-.09-.43-.17-.09-.35-.09-.35-.09-.09-.08-.09-.17-.09-.26.09-.09.17-.17.26-.09,0,0,.09,0,.26.18.17.08.35.17.61.26.17.08.17.17.34.17.17.17.44.26.52.26.09.09.09.17.09.26,0,1.55-.09,2.34-.17,3.81,1.21-.87,1.82-1.3,3.11-2.08.09,0,.17,0,.26.09.09,0,.26.17.52.35.09.08.17.08.26.17.17.08.34.26.52.35.17.08.26.17.26.17.09.08.09.17,0,.26Z"/>
      </g>
      <g>
        <path class="cls-2" d="M28.57,40.81c0,.62-.38.87-1.1.87h-1.41v-.18l.28-.18v-3.62l-.23-.16v-.17h1.36c.57,0,.97.15.97.79v.62c0,.24-.12.47-.34.57.28.11.47.33.47.73v.73ZM27.46,41.31c.33,0,.47-.18.47-.5v-.73c0-.36-.14-.53-.52-.53h-.44v1.53c0,.11-.02.17-.13.2v.03h.63ZM27.8,38.78v-.62c0-.23-.13-.43-.38-.43h-.46v1.52h.46c.27,0,.38-.18.38-.46Z"/>
        <path class="cls-2" d="M32.6,41.38l.22.11v.19h-.84v-.19l.22-.12c.31-1.27.65-2.77.97-4.03h.63l.99,4.02.22.14v.19h-1.1v-.16l.22-.14-.2-.87h-1.13l-.2.86ZM32.89,40.17h.97l-.48-2.08h0l-.48,2.08Z"/>
        <path class="cls-2" d="M41.09,37.6c-.21,0-.27.1-.35.3-.14.32-.33,1.32-.61,1.42h0c.32.04.49.42.58.82l.19.9c.04.2.17.41.36.36v.24c-.12.07-.3.08-.41.08-.39,0-.53-.26-.6-.6l-.18-.86c-.08-.38-.22-.69-.61-.69h-.18v1.75l.28.18v.18h-1.17v-.18l.27-.18v-3.62l-.23-.16v-.18h1.09v.18l-.23.16v1.52c.78,0,.55-1.36,1.11-1.76.2-.14.47-.1.7-.1v.24Z"/>
        <path class="cls-2" d="M44.69,41.68v-.18l.28-.18v-3.63l-.23-.16v-.16h2.19v.97h-.31l-.17-.6h-.84v1.62h.59l.16-.34h.18v1.04h-.18l-.16-.33h-.59v1.36c0,.1-.02.15-.13.19v.03h1.05l.21-.59h.27v.97h-2.32Z"/>
        <path class="cls-2" d="M50.63,37.54v-.18h1.09v.18l-.23.16v1.6h1v-1.6l-.23-.16v-.18h1.09v.18l-.23.16v3.65l.28.15v.18h-1.17v-.18l.27-.15v-1.7h-1v1.7l.28.15v.18h-1.18v-.18l.28-.15v-3.65l-.23-.16Z"/>
        <path class="cls-2" d="M59.59,40.59c0,.7-.48,1.15-1.24,1.15s-1.23-.46-1.23-1.15v-2.14c0-.69.48-1.15,1.23-1.15s1.24.46,1.24,1.15v2.14ZM57.76,40.59c0,.48.18.74.59.74s.6-.34.6-.74v-2.14c0-.41-.19-.74-.6-.74s-.59.25-.59.74v2.14Z"/>
        <path class="cls-2" d="M65.39,40.58v-2.86l-.23-.16v-.19h.91v.19l-.23.16v2.88c0,.83-.51,1.15-1.15,1.15-.64,0-1.16-.36-1.16-1.15v-2.86l-.27-.18v-.18h1.19v.18l-.27.18v2.86c0,.51.23.71.6.71.42,0,.62-.21.62-.73Z"/>
        <path class="cls-2" d="M70.79,41.33c.33,0,.47-.22.47-.52v-.52c0-.81-1.56-.48-1.56-1.56v-.52c0-.65.47-.89.97-.89.25,0,.5.05.7.28h.02l.05-.23h.42v1.16h-.63v-.31c0-.31-.17-.47-.46-.47s-.44.18-.44.47v.52c0,.75,1.57.41,1.57,1.55v.53c0,.68-.57.94-1.15.94s-1.1-.29-1.1-.95v-.34h.7v.34c0,.37.16.52.44.52Z"/>
        <path class="cls-2" d="M75.56,41.68v-.18l.28-.18v-3.63l-.23-.16v-.16h2.19v.97h-.31l-.17-.6h-.84v1.62h.59l.16-.34h.18v1.04h-.18l-.16-.33h-.59v1.36c0,.1-.02.15-.13.19v.03h1.05l.21-.59h.27v.97h-2.32Z"/>
      </g>
      <g>
        <path class="cls-2" d="M3.66,46.57c2.03,0,3.41.85,3.41,3.07v5.69c0,2.1-1.42,3.12-3.41,3.12H0v-.49l.75-.51v-9.88l-.64-.51v-.49h3.56ZM2.53,47.6v9.15c0,.29-.08.44-.37.52l.02.1h1.49c1.25-.02,1.64-.92,1.64-2.05v-5.69c0-1.12-.39-2.02-1.64-2.03h-1.14Z"/>
        <path class="cls-2" d="M8.87,58.45v-.49l.76-.51v-10l-.64-.44v-.44h6.04v2.66h-.85l-.47-1.66h-2.31v4.46h1.63l.44-.93h.51v2.86h-.51l-.44-.9h-1.63v3.75c0,.27-.07.42-.36.53v.08h2.88l.58-1.63h.75v2.66h-6.37Z"/>
        <path class="cls-2" d="M19.82,57.48c.9,0,1.29-.59,1.29-1.44v-1.44c0-2.22-4.29-1.32-4.29-4.29v-1.44c0-1.78,1.31-2.44,2.68-2.44.68,0,1.37.14,1.93.76h.07l.14-.64h1.15v3.19h-1.75v-.86c0-.85-.46-1.3-1.25-1.3s-1.2.49-1.2,1.3v1.44c0,2.05,4.32,1.14,4.32,4.27v1.46c0,1.88-1.56,2.59-3.17,2.59s-3.03-.8-3.03-2.61v-.93h1.92v.95c0,1.02.44,1.44,1.2,1.44Z"/>
        <path class="cls-2" d="M27.65,57.48c.9,0,1.29-.59,1.29-1.44v-1.44c0-2.22-4.29-1.32-4.29-4.29v-1.44c0-1.78,1.31-2.44,2.68-2.44.68,0,1.37.14,1.93.76h.07l.14-.64h1.15v3.19h-1.75v-.86c0-.85-.46-1.3-1.25-1.3s-1.2.49-1.2,1.3v1.44c0,2.05,4.32,1.14,4.32,4.27v1.46c0,1.88-1.56,2.59-3.17,2.59s-3.03-.8-3.03-2.61v-.93h1.92v.95c0,1.02.44,1.44,1.2,1.44Z"/>
        <path class="cls-2" d="M32.32,58.45v-.49l.76-.51v-10l-.64-.44v-.44h6.03v2.66h-.85l-.47-1.66h-2.31v4.46h1.63l.44-.93h.51v2.86h-.51l-.44-.9h-1.63v3.75c0,.27-.07.42-.36.53v.08h2.88l.58-1.63h.75v2.66h-6.37Z"/>
        <path class="cls-2" d="M44.22,54.72c-.34-.91-.64-1.15-1.64-1.15v3.88l.75.51v.49h-3.22v-.49l.75-.51v-9.95l-.63-.44v-.49h3.44c1.83,0,3.32.69,3.32,2.76v1.54c0,1.46-.81,2.27-1.92,2.49.51.27.73.59.92,1.12l.8,2.19c.17.46.47,1.12,1.02,1v.66c-.34.17-.86.22-1.24.22-1.07,0-1.17-.76-1.51-1.66l-.83-2.17ZM42.56,47.62v4.97h1.08c1.14,0,1.58-.63,1.58-1.71v-1.54c0-1.08-.39-1.71-1.56-1.71h-1.1Z"/>
        <path class="cls-2" d="M52.78,47.63v9.71l.75.53v.58h-3.27v-.58l.75-.53v-9.71h-1.27l-.54,1.95h-.81l.07-3.02h6.9l.07,3.02h-.81l-.58-1.95h-1.24Z"/>
        <path class="cls-2" d="M59.75,46.57h5.66v.59l-3.92,10.26h2.71l.58-1.71h.81l-.08,2.75h-6.19v-.49l4.05-10.38h-2.32l-.58,1.73h-.81l.08-2.75Z"/>
        <path class="cls-2" d="M67.98,57.62l.61.31v.52h-2.32v-.52l.61-.32c.85-3.51,1.8-7.61,2.66-11.1h1.75l2.73,11.05.61.37v.52h-3.02v-.44l.61-.37-.56-2.39h-3.12l-.56,2.37ZM68.76,54.28h2.66l-1.32-5.71h-.02l-1.32,5.71Z"/>
        <path class="cls-2" d="M75.41,58.45v-.49l.76-.51v-9.95l-.64-.44v-.49h3.05v.49l-.64.44v9.31c0,.27-.07.42-.36.53v.08h2.71l.58-1.63h.75v2.66h-6.2Z"/>
        <path class="cls-2" d="M85.15,57.45l.75.51v.49h-3.22v-.49l.76-.51v-9.95l-.64-.44v-.49h3v.49l-.64.44v9.95Z"/>
        <path class="cls-2" d="M90.04,57.92v.52h-2.64v-.52l.71-.44v-9.98l-.64-.44v-.49h2c.75,0,.88.07,1.07.71l1.66,5.29.76,3.32h.03c0-.86-.07-2-.07-2.86v-5.49l-.64-.44v-.52h2.49v.52l-.64.44v10.92h-1.46c-.41,0-.63-.24-.73-.58l-2.76-9.49-.05.02.2,1.7v7.39l.71.44Z"/>
        <path class="cls-2" d="M97.3,57.62l.61.31v.52h-2.32v-.52l.61-.32c.85-3.51,1.8-7.61,2.66-11.1h1.75l2.73,11.05.61.37v.52h-3.02v-.44l.61-.37-.56-2.39h-3.12l-.56,2.37ZM98.07,54.28h2.66l-1.32-5.71h-.02l-1.32,5.71Z"/>
      </g>
    </g>
  </g>
</svg>