<?xml version="1.0" encoding="UTF-8"?>
<svg id="Layer_2" data-name="Layer 2" xmlns="http://www.w3.org/2000/svg" viewBox="0 0 101.28 101.21">
  <defs>
    <style>
      .cls-1 {
        fill: #fff;
        stroke-width: 0px;
      }
    </style>
  </defs>
  <g id="Layer_1-2" data-name="Layer 1">
    <g>
      <g>
        <path class="cls-1" d="M40.09,79.97v.68q0,.07-.07.07h-2.6c-.07,0-.07-.07-.07-.14s0-.14.07-.14h.14c.07,0,.14-.07.14-.14v-2.53c0-.14-.07-.14-.14-.14h-.14c-.07,0-.07-.07-.07-.14s0-.14.07-.14h2.53q.07,0,.07.07v1.02c0,.07-.07.07-.14.07s-.14,0-.14-.07v-.2c0-.41-.27-.61-.68-.61h-.48c-.14,0-.2.07-.2.2v1.02h.14c.34,0,.55-.2.55-.41v-.14q0-.07.07-.07c.07,0,.14,0,.14.14v1.09c0,.07,0,.14-.14.14q-.07,0-.07-.07v-.14c0-.2-.2-.34-.55-.34h-.14v1.09c0,.14.07.2.2.2h.55c.41,0,.68-.2.68-.61v-.2c0-.07.07-.07.14-.07s.14,0,.14.07c.07.2.07.27,0,.41Z"/>
        <path class="cls-1" d="M40.98,80.52c-.2-.2-.34-.41-.34-.61s.14-.34.34-.34.34.14.34.34c0,.14,0,.2-.14.27q-.07.07-.07.14c0,.07.2.34.55.34.41,0,.61-.2.61-.55,0-.2-.07-.34-.2-.48s-.27-.14-.55-.2l-.27-.07c-.07,0-.14-.07-.27-.14s-.2-.14-.2-.2c-.07-.14-.2-.34-.2-.55,0-.27.14-.48.34-.68.2-.14.48-.27.82-.27s.55.07.82.2c.2.14.34.34.34.55s-.14.41-.34.41-.34-.14-.34-.27c0-.07,0-.14.07-.2.14-.2.14-.27.14-.27,0-.07-.14-.27-.61-.27-.34,0-.55.2-.55.48,0,.14.07.27.2.41.07.07.14.07.2.14.07,0,.14.07.27.14s.2.07.27.14c.07,0,.14.07.27.14s.2.14.27.2c.14.14.2.34.2.61s-.14.55-.34.75c-.2.2-.48.27-.89.27-.27-.14-.55-.2-.75-.41Z"/>
        <path class="cls-1" d="M46.17,78.47c0,.07-.07.07-.07.07-.07,0-.14-.07-.14-.07v-.2c0-.34-.2-.55-.55-.55h-.27v2.6c0,.14,0,.2.14.2h.27c.07,0,.07.07.07.14s0,.14-.14.14h-1.37c-.07,0-.14,0-.14-.14,0-.07,0-.14.07-.14h.27c.07,0,.14-.07.14-.2v-2.6h-.27c-.34,0-.55.2-.55.55v.2c0,.07-.07.07-.14.07s-.07,0-.07-.07v-.96q0-.07.07-.07h2.6q.07,0,.07.07v.96Z"/>
        <path class="cls-1" d="M49.65,79.08c0,1.16-.55,1.64-1.71,1.64h-1.43c-.07,0-.07-.07-.07-.14s0-.14.07-.14h.14c.07,0,.14-.07.14-.14v-2.53c0-.14-.07-.14-.14-.14h-.14c-.07,0-.07-.07-.07-.14s0-.14.07-.14h1.43c1.09.07,1.71.55,1.71,1.71ZM47.81,80.52c.68,0,1.02-.48,1.02-1.43,0-.48-.07-.89-.2-1.09-.14-.2-.41-.34-.82-.34h-.07c-.14,0-.2.07-.2.2v2.39c0,.14.07.2.2.2h.07v.07Z"/>
        <path class="cls-1" d="M50.06,80.38c0-.2.14-.34.34-.34s.34.14.34.34-.14.34-.34.34c-.14,0-.27-.14-.34-.34Z"/>
        <path class="cls-1" d="M54.57,79.77c-.07.2-.07.48-.14.89q0,.07-.07.07h-1.84c-.07,0-.14-.07-.14-.14,0-.34.07-.55.27-.75.07-.14.14-.2.2-.27.07-.07.2-.14.27-.2l.27-.2.2-.2c.14-.2.2-.34.2-.61,0-.41-.14-.68-.48-.68-.2,0-.41.14-.41.27,0,0,0,.07.07.14s.07.14.07.2c0,.2-.14.34-.34.34s-.41-.14-.41-.41c0-.2.14-.41.34-.55.2-.14.48-.27.75-.27.34,0,.61.07.82.27.2.14.34.41.34.68,0,.2-.07.41-.2.55l-.2.2c-.07.07-.2.14-.27.14-.07.07-.14.07-.27.14-.14.07-.2.14-.27.14s-.14.07-.27.14c-.2.14-.34.27-.41.48h1.37c.14,0,.2-.07.27-.2v-.27c0-.07.07-.07.14-.07.14.14.2.14.14.2Z"/>
        <path class="cls-1" d="M55.45,77.86c.27-.27.61-.48,1.02-.48s.75.14,1.02.48c.27.27.34.68.34,1.23s-.14.96-.34,1.23c-.27.27-.61.48-1.02.48s-.75-.14-1.02-.48-.34-.75-.34-1.23c0-.55.14-.96.34-1.23ZM56,80.18c.07.27.27.41.55.41s.41-.14.55-.41c.07-.27.14-.61.14-1.09,0-.96-.14-1.5-.61-1.5s-.68.48-.68,1.5c-.07.48-.07.82.07,1.09Z"/>
        <path class="cls-1" d="M59.55,80.31c0,.14.07.2.14.2h.34c.07,0,.07.07.07.14s0,.14-.14.14h-1.57c-.07,0-.14,0-.14-.14,0-.07,0-.14.07-.14h.34q.14,0,.14-.2v-2.05c0-.2-.07-.27-.27-.27h-.27c-.07,0-.07-.07-.07-.14s0-.14.07-.14h.27c.34,0,.61-.07.75-.27q.07-.07.14-.07t.07.07v2.87h.07Z"/>
        <path class="cls-1" d="M62.83,80.59c0,.07,0,.14-.14.14h-1.37c-.07,0-.14,0-.14-.14,0-.07,0-.14.07-.14h.27c.07,0,.14-.07.14-.2v-.48h-1.16c-.07,0-.14-.07-.07-.2l1.57-2.12c.07-.07.14-.07.2-.07s.14.07.14.14v1.98h.34c.07,0,.07.07.07.14s0,.14-.07.14h-.34v.48c0,.14,0,.2.14.2h.27c.07,0,.07.07.07.14ZM60.78,79.56h.96v-1.3l-.96,1.3Z"/>
      </g>
      <g>
        <path class="cls-1" d="M24.31,87.83c.2-.34.68-.48,1.09-.2.34.2.41.68.2,1.02-.27.41-.75.48-1.09.27-.34-.27-.41-.75-.2-1.09Z"/>
        <path class="cls-1" d="M35.1,92.27c-.07.14-.14.14-.27.07-.14-.07-.2-.2-.2-.27s.14-.2.14-.34c.27-.61,0-1.23-.61-1.43l-.41-.2-1.98,4.64c-.14.27-.07.41.07.48s.41.14.48.14.07.14,0,.27c-.07.2-.14.2-.34.14-.07,0-.2-.07-.34-.14-.2-.14-.48-.27-.82-.41-.34-.14-.61-.27-.89-.34-.14-.07-.27-.07-.34-.14-.14-.07-.2-.14-.14-.27s.14-.2.2-.14c.07,0,.34.2.48.27.14.07.2,0,.34-.27l1.98-4.64-.41-.2c-.61-.27-1.23-.07-1.43.61-.07.14-.07.27-.14.34-.07.14-.14.14-.34.07-.07,0-.2-.14-.14-.2l.07-.2.14-.27c.07-.14.14-.34.27-.61s.2-.48.2-.61c.07-.14.14-.14.27-.07.07,0,.27.2.75.34l3.14,1.3c.41.2.68.27.75.27.14.07.14.14.14.2-.07.14-.14.27-.27.55-.14.27-.2.48-.27.61l-.07.27v.2Z"/>
        <path class="cls-1" d="M43.78,97.32c-.07.14-.07.34-.14.61s-.07.48-.07.61-.07.14-.2.14c-.07,0-.34-.14-.75-.2l-3.35-.61c-.14,0-.34-.07-.48-.07-.2,0-.34,0-.34-.07-.07,0-.14-.14-.07-.27,0-.14.07-.2.14-.2s.2.07.27.07c.14,0,.27-.07.34-.27l.89-4.78c.07-.2,0-.34-.2-.34h-.34c-.07,0-.14-.07-.07-.27,0-.14.07-.2.2-.2.07,0,.14.07.34.07.2.07.34.07.48.14l3.21.55c.48.07.75.07.82.07.14,0,.2.07.14.2,0,.14-.07.34-.14.61s-.14.48-.14.61l-.07.68c0,.14-.14.14-.27.14s-.27-.07-.2-.2c0,0,.07-.2.07-.41.14-.75-.34-1.3-1.09-1.43l-.96-.2c-.27-.07-.41,0-.48.34l-.34,1.91.34.07c.68.14,1.16-.14,1.23-.55v-.27c0-.07.07-.07.2-.07.2,0,.2.07.14.27,0,.07-.07.2-.14.41-.07.2-.07.48-.14.68-.07.55-.14,1.02-.14,1.09,0,.2-.07.2-.27.2-.14,0-.2-.07-.2-.14s.07-.2.07-.27c.07-.41-.27-.75-.96-.89l-.34-.07-.41,2.19c-.07.27.07.41.34.48l1.09.2c.75.14,1.37-.2,1.5-.96.07-.2.07-.41.07-.48,0-.14.14-.14.27-.14s.2.07.2.2c.07.41,0,.61-.07.82Z"/>
        <path class="cls-1" d="M49.17,98.89c0-.14.07-.27.14-.27s.2.07.27.07c.2,0,.27-.07.27-.41l-.14-4.71c0-.34-.07-.41-.2-.41s-.48.07-.55.07-.14-.07-.14-.2c0-.2.07-.2.2-.27h1.3c.61,0,1.09-.07,1.23-.07.2,0,.2.07.27.2,0,.14,0,.2-.14.27-.07,0-.41-.07-.55,0-.14,0-.2.07-.2.41l.14,4.58c0,.34.14.48.48.48h.34c.41,0,.75-.14,1.02-.48.27-.27.41-.68.41-1.09v-.55c0-.14.07-.2.27-.2.14,0,.2.07.2.14v1.78c0,.27,0,.41.07.55,0,.14-.07.14-.2.14h-.89l-2.6.07h-.96c-.07.14-.07.07-.07-.07Z"/>
        <path class="cls-1" d="M62.97,93.08c-.14,0-.2,0-.27-.14,0,0-.07-.2-.07-.41-.2-.75-.82-1.02-1.57-.82l-.75.2c-.34.07-.41.27-.34.55l.48,1.91.2-.07c.68-.14,1.02-.61.89-.96,0-.07-.07-.2-.07-.27s0-.14.14-.14c.2-.07.2,0,.27.2,0,.07.07.2.07.41.07.2.07.48.14.68.14.55.27,1.02.34,1.09.07.2,0,.2-.14.27-.14,0-.2,0-.2-.07s0-.2-.07-.34c-.07-.34-.61-.61-1.23-.41l-.2.07.55,2.12c.07.34.14.34.27.34.14-.07.41-.14.48-.2.07,0,.14.07.14.2.07.2,0,.27-.2.27-.14.07-.68.14-1.23.27-.27.07-.55.14-.82.2-.27.07-.41.14-.48.14-.2.07-.27,0-.27-.2-.07-.14,0-.2.07-.27.07,0,.41-.07.55-.07.14-.07.2-.14.14-.41l-1.16-4.58c-.07-.34-.14-.41-.34-.34-.07,0-.2.14-.27.14s-.14-.07-.2-.2c0-.14,0-.2.07-.2s.27-.07.48-.14l3.35-.82c.41-.07.75-.2.75-.27.14,0,.2,0,.2.14.07.34.14.75.2.96.07.34.2.68.27.96.07.07,0,.14-.14.2Z"/>
        <path class="cls-1" d="M69.45,94.45c-.55-.14-.89-.41-1.09-.82s-.07-.75.34-.96c.41-.2.75-.07.89.27.07.2.14.41.07.55s-.07.2,0,.27c.07.14.61.41,1.3.07.75-.34.89-.96.61-1.5-.14-.34-.41-.55-.82-.55-.41-.07-.61,0-1.09,0l-.55.07h-.55c-.2,0-.41-.07-.55-.14-.27-.14-.61-.41-.82-.82-.27-.48-.27-.96,0-1.43.2-.48.61-.82,1.23-1.16.55-.27,1.09-.41,1.57-.34.48.07.82.27,1.02.68s.07.82-.27.96-.68.07-.82-.2c-.07-.14-.07-.34-.07-.48.07-.14,0-.2,0-.27,0-.14-.48-.34-1.3.07-.61.34-.82.89-.55,1.3.14.27.34.48.75.48h.48c.14,0,.34,0,.61-.07.27,0,.48-.07.61-.07h.55c.27,0,.41.07.61.14.27.14.68.41.89.89.27.55.27,1.02.07,1.57-.2.48-.68.96-1.3,1.23-.75.34-1.3.41-1.84.27Z"/>
        <path class="cls-1" d="M75.6,87.35c-.27-.34-.2-.82.2-1.09.34-.27.82-.14,1.09.14.27.34.2.82-.14,1.09-.41.27-.89.2-1.16-.14Z"/>
      </g>
      <g>
        <path class="cls-1" d="M7.79,65.97c-.34.14-.82-.07-.96-.48s.07-.82.48-.96c.41-.14.82.07.96.41.14.48-.07.89-.48,1.02Z"/>
        <path class="cls-1" d="M7.24,48.35h1.23c.14,0,.14.07.14.2,0,.07-.07.34-.07.75v4.1c0,.07-.07.14-.2.14s-.2-.07-.2-.14.07-.2.07-.27c0-.14-.14-.27-.34-.27H3.14c-.2,0-.34.07-.34.27,0,.07.07.27.07.27,0,.07-.07.14-.2.14s-.2-.07-.2-.14v-3.89c0-.41-.07-.75-.07-.75,0-.14.07-.2.14-.2h1.91c.14,0,.14.07.14.2s-.07.27-.14.27h-.41c-.75,0-1.16.55-1.16,1.23v.96c0,.27.07.41.41.41h1.91v-.34c0-.68-.34-1.09-.68-1.09h-.27c-.07-.14-.07-.2-.07-.27,0-.2.07-.2.2-.2h1.09c.48,0,1.02-.07,1.09-.07q.2,0,.2.2c0,.14-.07.2-.14.2h-.27c-.34,0-.68.41-.68,1.09v.34h2.12c.27,0,.41-.14.41-.41v-1.09c0-.75-.41-1.3-1.16-1.3h-.41c-.14,0-.14-.07-.14-.27,0-.14,0-.2.14-.2.2.07.41.14.61.14Z"/>
        <path class="cls-1" d="M10.18,38.11q.2.07.2.27c0,.07-.07.2-.07.34-.07.2-.14.55-.2.89s-.14.68-.14.89c0,.14-.07.27-.07.34,0,.14-.07.2-.27.14-.14,0-.2-.07-.2-.14s.14-.34.14-.48-.07-.2-.34-.27l-3.96-.89,4.23,2.87c.07.07.07.14.07.27s-.07.2-.2.2l-5.12.96,3.62.82c.41.07.75-.07.82-.27v-.27c0-.07.14-.07.27-.07.14.07.2.07.14.27,0,.07-.07.2-.07.34,0,.14-.07.27-.07.41-.07.2-.07.34-.07.48-.07.41-.07.55-.27.48-.14,0-.2-.07-.2-.14s.07-.2.14-.27c.07-.2-.2-.48-.61-.55l-4.1-.89c-.27-.07-.41,0-.48.2v.34c0,.07-.07.14-.2.07-.27,0-.34-.07-.34-.14,0,0,.07-.14.07-.27.07-.2.14-.41.14-.61l.07-.34c.07-.2.07-.48.07-.48,0-.07.07-.14.14-.2l4.37-.82-3.48-2.46c-.07-.07-.14-.14-.07-.2,0,0,.07-.27.14-.55l.07-.27c.07-.2.07-.34.14-.55,0-.2.07-.27.07-.34s.07-.14.27-.07c.14,0,.2.07.2.14s-.07.2-.14.27c-.07.14.07.27.27.34l4.51.96c.34.07.41,0,.41-.14s.07-.41.07-.48c-.14-.14-.07-.14.07-.14Z"/>
        <path class="cls-1" d="M11.27,35.24c-.48.2-.96.27-1.3.07-.41-.2-.48-.55-.34-.89s.48-.48.82-.34c.2.07.34.2.41.41.07.14.07.2.2.2.14.07.68-.07.96-.75.34-.75.07-1.23-.48-1.5-.34-.14-.61-.14-.96.07s-.48.34-.82.75l-.41.41c-.07.07-.2.2-.41.34s-.34.2-.48.27c-.27.07-.68.07-1.16-.07-.48-.2-.82-.55-.89-1.02-.14-.48-.07-1.02.2-1.64.2-.55.55-.96.96-1.23.41-.27.82-.27,1.16-.14.41.2.55.55.41.89s-.48.48-.75.34c-.14-.07-.27-.2-.34-.34s-.14-.2-.2-.2c-.07-.07-.55.07-.89.82-.27.61-.07,1.09.41,1.3.27.14.55.14.82-.07.14-.07.27-.2.41-.27.07-.07.27-.2.41-.41.14-.2.27-.34.41-.41.14-.07.27-.2.41-.34.2-.14.34-.2.55-.27.34-.07.75-.14,1.16.07.55.2.82.61,1.02,1.09.14.55.07,1.09-.2,1.78-.27.48-.61.82-1.09,1.09Z"/>
        <path class="cls-1" d="M21.1,20.56c.14.14.14.2,0,.34-.07.07-.14.14-.2.27-.2.14-.41.41-.61.68s-.41.48-.55.75c-.07.14-.14.2-.2.27-.07.14-.2.14-.34,0-.14-.07-.14-.2-.07-.2.07-.07.27-.27.34-.34.07-.14.07-.2-.14-.41l-3.07-2.6,2.39,4.58c.07.07,0,.2-.07.27-.07.14-.2.14-.27.14l-4.99-1.57,2.8,2.39c.34.27.68.27.82.14.07-.07.14-.2.14-.2.07-.07.14-.07.27.07.14.14.14.2,0,.34-.07.07-.14.14-.2.2l-.34.34c-.14.14-.27.27-.34.41-.2.34-.27.41-.48.27-.14-.07-.14-.2-.14-.2,0-.07.14-.14.2-.2.14-.2.07-.55-.27-.82l-3.14-2.73c-.2-.2-.41-.2-.55,0-.07.14-.14.27-.2.27-.07.07-.14.07-.27-.07-.14-.07-.14-.2-.07-.2,0,0,.07-.07.2-.2.14-.14.27-.34.48-.48l.27-.27c.14-.14.27-.34.34-.41s.14-.07.2-.07l4.23,1.37-1.98-4.17c-.07-.07,0-.2,0-.27l.41-.41.2-.2c.14-.14.27-.27.34-.41.14-.14.2-.2.2-.27.07-.07.14-.07.27.07.14.07.14.14.07.2l-.2.2c-.14.14-.07.27.07.41l3.48,3c.27.2.34.2.41.07.07-.14.2-.34.27-.41s.14-.07.27.07Z"/>
        <path class="cls-1" d="M27.8,15.3c.14.14.07.2-.07.27,0,0-.48.27-1.09.75-.48.34-.82.68-.96.82s-.2.14-.27,0c-.07-.14-.14-.2-.07-.27.07,0,.2-.07.27-.14.27-.2.2-.34-.07-.55l-1.02-.68-1.43,1.09.34,1.16c.14.34.27.41.48.27.07-.07.2-.2.2-.2.07-.07.14,0,.2.14.14.14.07.2-.07.27-.07.07-.41.27-.68.48-.34.2-.55.48-.61.55-.14.14-.2.07-.27-.07-.07-.14-.14-.2-.07-.27.07,0,.2-.07.27-.14.2-.14.27-.41.14-.75l-1.57-5.26c0-.07,0-.14.14-.27.14-.07.2-.14.27-.07l4.71,2.94c.27.2.55.2.75.07.07-.07.2-.2.2-.2.14-.07.2-.07.27.07ZM22.95,16.12l1.16-.89-1.78-1.16.61,2.05Z"/>
        <path class="cls-1" d="M35.03,11.27c.14,0,.14.07.14.2-.07.27-.27.55-.61.68-.75.34-1.37.07-1.91-.82-.14-.2-.2-.34-.27-.48-.14-.2-.34-.48-.48-.55-.2-.14-.55-.14-1.02.14l-.34.2,1.02,2.12c.14.27.2.34.34.27s.41-.2.41-.27c.07,0,.14,0,.2.14s.07.2-.14.27c-.14.07-.61.2-1.09.48-.27.14-.48.27-.68.34-.2.14-.34.2-.41.2-.14.07-.2.07-.27-.07-.07-.14-.07-.2,0-.27.07,0,.34-.14.48-.2.14-.07.14-.14,0-.41l-1.98-4.1c-.14-.27-.2-.34-.41-.2-.07,0-.2.14-.2.14-.07.07-.14,0-.2-.14s-.07-.2,0-.2c0,0,.27-.14.48-.2l.82-.41c.07,0,.2-.14.41-.2.27-.14.41-.2.55-.27,1.37-.68,2.32-.55,2.73.27.34.68.14,1.43-.68,1.98.96-.27,1.57-.07,1.98.68.2.41.41.75.48.89.14.14.2.2.27.14.07-.07.14-.14.2-.27.07-.07.14-.14.2-.07ZM30.32,10.31l.41-.2c.89-.41,1.16-1.02.82-1.71-.27-.61-.82-.82-1.5-.48l-.34.14c-.27.14-.34.27-.2.61l.82,1.64Z"/>
        <path class="cls-1" d="M43.57,9.22c.07.14,0,.2-.2.27l-.41.07c-.27.07-.61.14-1.02.2-.61.14-1.02.34-1.16.34-.14.07-.2,0-.27-.14-.07-.14,0-.27.07-.27h.34c.27-.07.27-.27.07-.48l-1.57-1.78-.55.96.34,1.3c.07.34.14.34.27.34.14-.07.41-.14.48-.14s.14.07.14.2c.07.2,0,.2-.14.27-.07,0-.2.07-.34.07-.27,0-.55.07-.89.2-.34.07-.61.2-.89.27-.14.07-.2.07-.34.07-.14.07-.2,0-.27-.14-.07-.14,0-.2.07-.27.07,0,.34-.07.48-.07.14-.07.2-.14.14-.41l-1.09-4.37c-.07-.34-.14-.34-.27-.34-.14,0-.34.14-.48.14-.07,0-.14-.07-.14-.2-.07-.2,0-.2.14-.27.07,0,.2-.07.34-.07.27,0,.55-.07.89-.2.34-.07.61-.2.89-.27.14-.07.2-.07.34-.07.14-.07.2,0,.27.14.07.14,0,.2-.07.27-.07,0-.34.07-.48.07-.14.07-.2.14-.14.41l.61,2.53,1.5-2.94c.2-.34.07-.48-.14-.48-.14-.07-.27.07-.41.14-.07,0-.14-.07-.14-.2-.07-.14,0-.2.14-.27.07,0,.2-.07.41-.07.2-.07.41-.07.61-.14.41-.14.75-.27.89-.27.14-.07.2,0,.27.14,0,.14,0,.2-.07.2s-.2,0-.34.07c-.2.14-.41.34-.68.82l-.68,1.3,2.39,2.66c.27.34.41.34.61.34.14,0,.27-.14.27-.14.14,0,.14.07.2.2Z"/>
        <path class="cls-1" d="M50.81,7.58c0,.14,0,.34.07.61,0,.27.07.48.07.61s-.07.14-.2.2h-.75l-3.28.2c-.14,0-.27,0-.48.07-.2,0-.27.07-.34.07s-.14-.07-.14-.2,0-.2.14-.2c.07,0,.2.07.27,0,.14,0,.27-.14.2-.34l-.27-4.71c0-.2-.07-.34-.27-.27-.07,0-.27.07-.27.07-.07,0-.14-.07-.14-.2s0-.2.14-.27h.82l3.07-.14c.48-.2.75-.27.82-.27.14,0,.2.07.2.14v1.23l.14.68c0,.14-.07.14-.2.2-.14,0-.27-.07-.27-.14v-.41c-.07-.75-.61-1.09-1.3-1.09h-.96c-.27,0-.34.14-.34.41l.07,1.84h.34c.68-.07,1.02-.41,1.02-.75,0-.07-.07-.2-.07-.27s.07-.14.2-.14c.2,0,.2.07.2.2v1.09c0,.48.07,1.02.14,1.09q0,.2-.2.2c-.14,0-.2,0-.2-.14v-.27c0-.34-.48-.68-1.09-.61h-.34l.14,2.12c0,.27.14.41.41.41l1.09-.07c.75-.07,1.23-.48,1.23-1.23,0-.2-.07-.41-.07-.41,0-.14.07-.14.2-.2.14,0,.2,0,.2.14v.75Z"/>
        <path class="cls-1" d="M59.07,5.46c0,.14-.07.14-.2.14-.2,0-.27-.14-.27-.2s.07-.2.07-.34c.07-.68-.34-1.09-.96-1.16l-.48-.07-.61,4.85c-.07.34,0,.41.14.41h.48c.07,0,.14.07.07.27,0,.2-.07.2-.27.2-.07,0-.2,0-.34-.07-.27-.07-.55-.14-.89-.14-.34-.07-.68-.07-.89-.07h-.34c-.14,0-.2-.07-.2-.27,0-.14.07-.2.14-.2s.34.07.48.14c.14,0,.2-.07.27-.34l.61-4.85-.48-.07c-.61-.07-1.09.27-1.23.89v.34c0,.14-.14.14-.27.14-.07,0-.2-.07-.14-.2l.07-.2.07-.27c.14-.2.14-.41.14-.68s.07-.48.07-.61.07-.14.2-.14c.07,0,.34.07.75.14l3.28.41c.41.07.75.07.75.07.14,0,.2.07.14.2,0,.14-.07.34-.07.61-.07.27-.07.48-.07.61v.48Z"/>
        <path class="cls-1" d="M62.9,5.33c.07-.27.07-.41-.07-.41-.14-.07-.41-.07-.55-.14-.07,0-.07-.07-.07-.27.07-.2.14-.2.27-.14.07,0,.2.07.34.14.2.07.55.2.89.27s.61.14.89.2c.14,0,.27.07.34.07.14.07.2.14.14.27s-.14.2-.2.2-.34-.14-.48-.2-.2,0-.27.34l-1.23,4.37c-.07.27-.07.41.07.41.14.07.41.07.48.07s.07.07.07.27c-.07.2-.14.2-.27.14-.07,0-.2-.07-.34-.14-.2-.07-.55-.2-.89-.27s-.61-.14-.89-.2c-.14,0-.27-.07-.34-.07-.14-.07-.2-.14-.14-.27.07-.14.07-.2.2-.2.07,0,.34.14.48.2s.2,0,.27-.34l1.3-4.3Z"/>
        <path class="cls-1" d="M73.48,9.08c-.07,0-.14-.14-.27-.14-.2-.07-.55.14-.68.48l-1.78,3.89c-.07.14-.14.41-.14.41-.07.14-.14.14-.27.07l-.34-.14c-.14-.07-.14-.14-.14-.27v-.34l-.89-5.12-1.57,3.28c-.2.34-.14.75.07.82.07.07.2.07.27.07.07.07.07.14,0,.27-.07.14-.14.14-.27.07-.07,0-.14-.07-.27-.14-.14-.07-.27-.14-.41-.2-.2-.07-.34-.14-.48-.2-.41-.14-.48-.2-.41-.41.07-.14.14-.2.2-.14.07,0,.14.14.27.14.2.07.55-.14.68-.48l1.84-3.96c.07-.14,0-.2-.14-.27-.07-.07-.27-.07-.27-.07-.07-.07-.07-.14,0-.27s.14-.2.2-.14c0,0,.14.07.27.14.14.07.34.14.48.27.34.14.55.2.61.27.07.07.14.07.14.2l.82,4.99,1.3-2.8c.2-.34.14-.75-.07-.82-.07-.07-.2-.07-.27-.07-.07-.07-.07-.14,0-.27s.14-.14.27-.07c.07,0,.14.07.27.14.14.07.27.14.41.2.2.07.34.14.48.2.41.14.48.2.41.41-.2,0-.27.07-.34,0Z"/>
        <path class="cls-1" d="M77.1,11.68c.82-.14,1.57.14,2.39.68.55.41.82.82,1.02,1.3.14.48.14.82-.14,1.16-.27.34-.68.41-1.02.14-.27-.2-.34-.61-.14-.89.14-.14.27-.2.41-.27.07,0,.14-.07.2-.07.14-.2-.07-.68-.55-1.09-.96-.68-1.98-.34-3.07,1.16s-1.23,2.53-.41,3.07c.68.55,1.43.27,2.12-.61l.14-.14c.2-.27.2-.34.07-.41-.27-.2-.61-.41-.61-.41-.07-.07-.07-.14.07-.27.14-.14.2-.14.34-.07.14.14.61.55,1.16.96.48.34.96.61,1.02.68.14.14.14.2.07.34s-.14.14-.2.14c-.07-.07-.27-.27-.41-.34s-.2-.07-.41.2l-1.09,1.5c-.07.07-.2.27-.2.27-.07.07-.14.07-.27-.07-.14-.14-.2-.2-.14-.27.07-.07.2-.2.27-.34.14-.2.2-.34.07-.41s-.41,0-.75.07-.89-.07-1.37-.48c-.68-.55-1.09-1.16-1.16-1.98-.07-.82.14-1.57.75-2.32.34-.68,1.02-1.16,1.84-1.23Z"/>
        <path class="cls-1" d="M87.21,20.9c.82.14,1.5.55,2.05,1.37.41.55.55,1.02.61,1.5,0,.48-.14.82-.41,1.09-.34.27-.75.2-1.02-.14-.2-.27-.14-.68.14-.89.14-.14.27-.14.48-.14.07,0,.14,0,.2-.07.2-.14.14-.68-.2-1.16-.68-.96-1.78-.89-3.21.2-1.43,1.09-1.91,2.05-1.3,2.87.55.68,1.3.68,2.19,0l.14-.14c.27-.2.27-.27.2-.41-.2-.27-.48-.55-.48-.61-.07-.07,0-.14.14-.2.14-.14.2-.07.34.07.14.14.41.68.82,1.23.34.48.75.89.82.96.14.14.07.2-.07.34-.14.07-.2.14-.27.07-.07-.07-.2-.34-.27-.41-.07-.14-.2-.14-.41.07l-1.5,1.09c-.07.07-.27.2-.27.2-.07.07-.14,0-.27-.14-.14-.14-.14-.2-.07-.27.07-.07.2-.14.34-.2.2-.14.27-.27.2-.34s-.34-.14-.68-.14c-.34-.07-.82-.34-1.23-.82-.55-.68-.68-1.43-.55-2.19.14-.75.61-1.43,1.37-2.05.61-.61,1.43-.89,2.19-.75Z"/>
        <path class="cls-1" d="M90.76,37.29c-.14.07-.2.07-.27-.14,0-.07-.07-.2-.14-.34-.07-.2-.2-.48-.34-.82s-.27-.61-.41-.82c-.07-.14-.14-.2-.14-.27-.07-.14-.07-.2.14-.27.14-.07.2-.07.27,0,0,.07.14.34.14.48.07.14.14.14.41,0l3.69-1.64-5.12.2c-.07,0-.14-.07-.2-.2s-.07-.2,0-.27l3.48-3.76-3.41,1.5c-.34.14-.55.48-.48.68,0,.07.14.2.14.2,0,.07,0,.14-.14.2s-.2.07-.27-.14c0-.07-.07-.14-.14-.34-.07-.14-.14-.34-.2-.48-.07-.2-.14-.34-.2-.48-.2-.34-.27-.48-.07-.55.14-.07.2-.07.27,0,0,.07.07.2.07.27.07.2.48.27.82.07l3.82-1.71c.27-.14.34-.27.27-.48-.07-.14-.14-.27-.2-.27,0-.07,0-.14.14-.2s.2-.07.27,0c0,0,.07.14.14.27.07.2.14.41.27.61l.14.34c.07.2.2.41.2.48.07.07,0,.2,0,.27l-3,3.28,4.37-.27c.07,0,.14.07.2.14,0,0,.07.27.2.55l.14.27c.07.2.14.34.27.48.07.14.14.27.14.27,0,.07,0,.14-.14.2s-.2.07-.27,0c0,0-.07-.2-.07-.27-.07-.14-.2-.2-.41-.07l-4.23,1.91c-.27.14-.34.2-.27.34s.2.34.27.48c.07.14,0,.2-.14.27Z"/>
        <path class="cls-1" d="M93.9,44.6c-1.09.2-1.84-.61-2.25-2.39,0-.07-.07-.27-.07-.55-.07-.27-.07-.41-.07-.48l-.14-.61c0-.14-.07-.27-.14-.48-.07-.2-.07-.27-.07-.34s.07-.14.2-.2c.14,0,.2,0,.27.07v.27c.07.14.14.2.34.2l4.58-.96c.2-.07.27-.14.27-.27,0-.07-.07-.27-.14-.27,0-.07.07-.14.2-.14s.27,0,.27.07,0,.14.07.34c0,.2.07.34.07.48l.14.61c0,.07.07.2.14.41.07.2.14.41.14.48.34,1.71,0,2.6-.96,2.87-.61.14-1.09-.07-1.43-.68-.2.89-.61,1.43-1.43,1.57ZM92.06,42.14c.2.89.75,1.3,1.57,1.09.82-.2,1.23-.68,1.09-1.57l-.14-.75-2.19.48c-.27.07-.34.2-.34.48v.27ZM97.25,41.04l-.07-.27c-.07-.27-.2-.34-.48-.27l-1.84.41.14.55c.14.75.68,1.02,1.37.89.75-.2,1.09-.61.89-1.3Z"/>
        <path class="cls-1" d="M92.88,53.88c-.2,0-.2-.07-.2-.2v-1.23c0-.34,0-.68-.07-.89v-.34c0-.14.07-.2.2-.2s.2,0,.2.14c0,.07-.07.34-.07.48s.07.2.41.2h1.98v-2.39h-1.98c-.34,0-.41.07-.41.2s.07.41.07.48-.07.14-.2.14c-.2,0-.2-.07-.2-.2v-1.23c0-.34,0-.68-.07-.89v-.34c0-.14.07-.2.2-.2s.2,0,.2.14c0,.07-.07.34-.07.48s.07.2.41.2l4.51-.07c.34,0,.41-.07.41-.2s-.07-.41-.07-.48.07-.14.2-.14c.2,0,.2.07.2.2v1.23c0,.34,0,.68.07.89v.34c0,.14-.07.2-.2.2s-.2,0-.2-.14c0-.07.07-.34.07-.48s-.07-.2-.41-.2h-2.05v2.39h2.05c.34,0,.41-.07.41-.2s-.07-.41-.07-.48.07-.14.2-.14c.2,0,.2.07.2.2v1.23c0,.34,0,.68.07.89v.34c0,.14-.07.2-.2.2s-.2,0-.2-.14c0-.07.07-.34.07-.48s-.07-.2-.41-.2l-4.51.07c-.34,0-.41.07-.41.2s.07.41.07.48-.07.14-.2.14Z"/>
        <path class="cls-1" d="M93.84,64.74c.34.14.61.55.48.96s-.55.61-.96.48c-.41-.14-.61-.55-.48-.96.14-.41.55-.61.96-.48Z"/>
      </g>
      <g>
        <path class="cls-1" d="M42.27,66.18c0,.55-.41.82-1.02.82-.2,0-1.64-.2-3.69-.2h-14.89c-.68,0-1.43.07-2.39.14s-1.43.14-1.64.14c-.41,0-.61-.41-.61-1.16,0-.68.2-1.09.61-1.09.2,0,.96.2,1.43.2.82,0,1.16-.55,1.16-1.57v-22.74c0-1.02-.41-1.57-1.16-1.57-.48,0-1.3.2-1.43.2-.41,0-.61-.34-.61-1.09s.2-1.16.61-1.16c.2,0,.68.07,1.64.14.96.07,1.71.14,2.39.14h15.09c2.12,0,3.35-.2,3.55-.2.55,0,.89.27.89.82l.07,9.15c.07.68-.41.82-1.02.82-.82,0-1.16-.27-1.16-.82,0-.07.07-1.09.07-2.12,0-3.55-2.6-5.6-6.15-5.6h-4.58c-1.3,0-1.64.48-1.64,1.91v9.15h1.5c3.21,0,5.19-1.64,5.19-3.41,0-.41-.14-1.09-.14-1.3,0-.34.34-.55.96-.55.82,0,.96.2.96,1.09v10.52c0,.82-.14,1.09-.96,1.09-.61,0-.96-.2-.96-.55,0-.2.14-.96.14-1.43,0-1.84-1.98-3.35-5.19-3.35h-1.5v10.24c0,1.43.55,1.91,1.84,1.91h4.37c3.55,0,6.15-2.05,6.15-5.6,0-1.02-.07-2.05-.07-2.12,0-.55.41-.82,1.16-.82.55,0,1.09.14,1.02.82v9.15Z"/>
        <path class="cls-1" d="M64.74,65.49c-1.98-1.71-3-3.55-3-5.67s1.43-3.35,3.41-3.35,3.21,1.16,3.21,2.87c0,1.02-.34,1.84-.96,2.46-.41.41-.55.82-.55,1.16-.2.75,1.64,2.87,5.26,2.87,3.82,0,5.6-2.05,5.6-5.05,0-1.78-.61-3.07-2.19-4.1-1.57-1.02-2.46-1.3-4.78-2.19l-2.6-.96c-.61-.27-1.37-.68-2.25-1.16-.89-.55-1.57-1.09-2.05-1.64-.96-1.09-1.84-3-1.84-5.26,0-2.6.96-4.64,2.87-6.15,1.91-1.5,4.44-2.25,7.58-2.25,2.87,0,5.33.61,7.17,1.91,1.91,1.3,2.87,2.94,2.87,4.99,0,2.19-1.3,3.41-3.07,3.41s-2.94-1.16-2.94-2.6c0-.82.27-1.57.82-2.12.41-.41.55-.89.55-1.3.2-.55-1.3-2.25-5.46-2.32-3.35,0-5.12,1.91-5.12,4.3,0,1.43.61,2.66,2.05,3.55.75.48,1.43.82,1.98,1.16.61.27,1.5.61,2.6,1.02,1.09.41,1.98.75,2.66,1.09s1.43.68,2.39,1.3c.96.55,1.71,1.16,2.19,1.78,1.02,1.16,1.91,3.14,1.91,5.46,0,2.73-.96,4.92-2.94,6.69-1.98,1.71-4.71,2.53-8.2,2.53-2.73.07-5.19-.82-7.17-2.46Z"/>
        <g>
          <path class="cls-1" d="M46.64,70.75c0,.89-.34,1.09-1.09,1.09-.41,0-.96-.07-1.57-.07-1.23-.14-2.73-.2-4.44-.2s-3.21.07-4.37.2c-.68.07-1.23.07-1.64.07-.82,0-1.09-.2-1.09-1.09,0-.75.2-1.09.55-1.09.48,0,1.78.2,2.46.2s.96-.34.96-1.84v-.82h1.16c1.57,0,2.73.14,3.28.2.2,0,.34.07.41.07.68,0,1.16-.34,1.3-.89v1.5c0,1.43.34,1.84,1.02,1.84s2.05-.2,2.46-.2c.41-.07.61.27.61,1.02Z"/>
          <path class="cls-1" d="M71.5,30.46c0,.68-.2,1.02-.61,1.02h-.07c-.2,0-.55-.14-.82-.14h-.82q-.07,0-.14.07h-.07s-.07,0-.07.07c0,0-.07,0-.07.07h0s-.07,0-.07.07l-.07.07-.07.07-.07.07s0,.07-.07.07c0,0,0,.07-.07.07v.2q0,.07-.07.14v5.26c-1.37.41-2.53.96-3.55,1.78-1.3,1.02-2.12,2.25-2.6,3.69v-7.44l-9.42,23.29h0c-.14.48-.82.48-.96,0h0l-9.22-23.29v2.39c0-.75-.48-1.16-1.23-1.16-.07,0-.2,0-.41.07-.55.07-1.57.2-3.14.2h-1.37v-4.99c0-.07,0-.14-.07-.14v-.2s0-.07-.07-.07c0,0,0-.07-.07-.07l-.07-.07s0-.07-.07-.07l-.07-.07s-.07,0-.07-.07h0s-.07,0-.07-.07c0,0-.07,0-.07-.07h-.07q-.07,0-.14-.07h-.82c-.34.07-.68.14-.89.14h-.07c-.41,0-.61-.34-.61-1.02s.2-1.09.61-1.09h.41c.14,0,.34,0,.61.07h.48c.89.07,6.15.07,6.56,0,.27,0,2.46-.07,2.53-.07.14,0,.27,0,.41.07.27.07.34.2.48.55h0l7.1,16.8,7.1-16.8h0c.07-.2.2-.34.41-.41h0c.14-.07.27-.07.41-.14h.41c.41,0,6.01.07,6.01.07.96,0,1.84-.07,2.73-.07h.48c.2,0,.41,0,.61-.07h.41c.27.2.48.55.48,1.3Z"/>
          <path class="cls-1" d="M71.64,69.66c-.48,0-1.78.2-2.46.2s-.96-.34-.96-1.84v-.2c-.07,0-.2-.07-.27-.07-1.23-.41-2.39-1.09-3.48-1.98h0c-1.09-.96-1.91-1.91-2.39-2.94v5.19c0,1.43-.34,1.84-1.02,1.84s-2.05-.2-2.46-.2-.55.34-.55,1.09c0,.89.34,1.09,1.09,1.09.41,0,.96-.07,1.57-.07,1.23-.14,2.73-.2,4.44-.2s3.21.07,4.37.2c.68.07,1.23.07,1.64.07.82,0,1.09-.2,1.09-1.09,0-.75-.2-1.09-.61-1.09Z"/>
        </g>
      </g>
      <path class="cls-1" d="M50.61,90.15c-5.33,0-10.52-1.02-15.37-3.07-4.71-1.98-8.95-4.85-12.57-8.47-3.62-3.62-6.49-7.85-8.47-12.57-2.05-4.85-3.07-10.04-3.07-15.37s1.02-10.52,3.07-15.37c1.98-4.71,4.85-8.95,8.47-12.57,3.62-3.62,7.85-6.49,12.57-8.47,4.85-2.05,10.04-3.07,15.37-3.07s10.52,1.02,15.37,3.07c4.71,1.98,8.95,4.85,12.57,8.47,3.62,3.62,6.49,7.85,8.47,12.57,2.05,4.85,3.07,10.04,3.07,15.37s-1.02,10.52-3.07,15.37c-1.98,4.71-4.85,8.95-8.47,12.57s-7.85,6.49-12.57,8.47c-4.85,2.05-10.04,3.07-15.37,3.07ZM50.61,11.47c-5.26,0-10.38,1.02-15.23,3.07-4.64,1.98-8.88,4.78-12.43,8.4-3.62,3.62-6.42,7.79-8.4,12.43-2.05,4.85-3.07,9.97-3.07,15.23s1.02,10.38,3.07,15.23c1.98,4.64,4.78,8.88,8.4,12.43,3.62,3.62,7.79,6.42,12.43,8.4,4.85,2.05,9.97,3.07,15.23,3.07s10.38-1.02,15.23-3.07c4.64-1.98,8.88-4.78,12.43-8.4,3.62-3.62,6.42-7.79,8.4-12.43,2.05-4.85,3.07-9.97,3.07-15.23s-1.02-10.38-3.07-15.23c-1.98-4.64-4.78-8.88-8.4-12.43-3.62-3.62-7.79-6.42-12.43-8.4-4.85-2.05-9.97-3.07-15.23-3.07Z"/>
      <path class="cls-1" d="M50.61,101.21c-6.83,0-13.45-1.37-19.74-3.96-3-1.3-5.87-2.87-8.61-4.64-2.66-1.84-5.19-3.89-7.51-6.21s-4.37-4.78-6.21-7.51c-1.84-2.73-3.41-5.6-4.64-8.61-2.6-6.21-3.89-12.84-3.89-19.67s1.37-13.45,3.96-19.74c1.3-3,2.87-5.87,4.64-8.61,1.84-2.66,3.89-5.19,6.21-7.51,2.32-2.32,4.78-4.37,7.51-6.21,2.73-1.84,5.6-3.41,8.61-4.64,6.21-2.6,12.84-3.89,19.67-3.89s13.45,1.37,19.74,3.96c3,1.3,5.87,2.87,8.61,4.64,2.66,1.84,5.19,3.89,7.51,6.21,2.32,2.32,4.37,4.78,6.21,7.51,1.84,2.73,3.41,5.6,4.64,8.61,2.66,6.21,3.96,12.91,3.96,19.74s-1.37,13.45-3.96,19.74c-1.3,3-2.87,5.87-4.64,8.61-1.84,2.66-3.89,5.19-6.21,7.51-2.32,2.32-4.78,4.37-7.51,6.21s-5.6,3.41-8.61,4.64c-6.28,2.53-12.91,3.82-19.74,3.82ZM50.61.34c-6.76,0-13.39,1.3-19.53,3.96-3,1.3-5.87,2.8-8.54,4.64-2.66,1.78-5.19,3.89-7.44,6.15-2.25,2.25-4.37,4.78-6.15,7.44-1.84,2.66-3.35,5.53-4.64,8.54C1.71,37.22.34,43.84.34,50.61s1.3,13.39,3.96,19.53c1.23,3,2.8,5.87,4.64,8.54,1.78,2.66,3.89,5.19,6.15,7.44,2.25,2.25,4.78,4.37,7.44,6.15,2.66,1.84,5.53,3.35,8.54,4.64,6.21,2.6,12.77,3.96,19.53,3.96s13.39-1.3,19.53-3.96c3-1.23,5.87-2.8,8.54-4.64,2.66-1.78,5.19-3.89,7.44-6.15,2.25-2.25,4.37-4.78,6.15-7.44,1.84-2.66,3.35-5.53,4.64-8.54,2.6-6.21,3.96-12.77,3.96-19.53s-1.3-13.39-3.96-19.53c-1.23-3-2.8-5.87-4.64-8.54-1.78-2.66-3.89-5.19-6.15-7.44-2.25-2.25-4.78-4.37-7.44-6.15-2.66-1.84-5.53-3.35-8.54-4.64C63.99,1.71,57.37.34,50.61.34Z"/>
      <path class="cls-1" d="M50.61,101.21c-6.83,0-13.45-1.37-19.74-3.96-3-1.3-5.87-2.87-8.61-4.64-2.66-1.84-5.19-3.89-7.51-6.21s-4.37-4.78-6.21-7.51c-1.84-2.73-3.41-5.6-4.64-8.61-2.6-6.21-3.89-12.84-3.89-19.67s1.37-13.45,3.96-19.74c1.3-3,2.87-5.87,4.64-8.61,1.84-2.66,3.89-5.19,6.21-7.51,2.32-2.32,4.78-4.37,7.51-6.21,2.73-1.84,5.6-3.41,8.61-4.64,6.21-2.6,12.84-3.89,19.67-3.89s13.45,1.37,19.74,3.96c3,1.3,5.87,2.87,8.61,4.64,2.66,1.84,5.19,3.89,7.51,6.21,2.32,2.32,4.37,4.78,6.21,7.51,1.84,2.73,3.41,5.6,4.64,8.61,2.66,6.21,3.96,12.91,3.96,19.74s-1.37,13.45-3.96,19.74c-1.3,3-2.87,5.87-4.64,8.61-1.84,2.66-3.89,5.19-6.21,7.51-2.32,2.32-4.78,4.37-7.51,6.21s-5.6,3.41-8.61,4.64c-6.28,2.53-12.91,3.82-19.74,3.82ZM50.61.34c-6.76,0-13.39,1.3-19.53,3.96-3,1.3-5.87,2.8-8.54,4.64-2.66,1.78-5.19,3.89-7.44,6.15-2.25,2.25-4.37,4.78-6.15,7.44-1.84,2.66-3.35,5.53-4.64,8.54C1.71,37.22.34,43.84.34,50.61s1.3,13.39,3.96,19.53c1.23,3,2.8,5.87,4.64,8.54,1.78,2.66,3.89,5.19,6.15,7.44,2.25,2.25,4.78,4.37,7.44,6.15,2.66,1.84,5.53,3.35,8.54,4.64,6.21,2.6,12.77,3.96,19.53,3.96s13.39-1.3,19.53-3.96c3-1.23,5.87-2.8,8.54-4.64,2.66-1.78,5.19-3.89,7.44-6.15,2.25-2.25,4.37-4.78,6.15-7.44,1.84-2.66,3.35-5.53,4.64-8.54,2.6-6.21,3.96-12.77,3.96-19.53s-1.3-13.39-3.96-19.53c-1.23-3-2.8-5.87-4.64-8.54-1.78-2.66-3.89-5.19-6.15-7.44-2.25-2.25-4.78-4.37-7.44-6.15-2.66-1.84-5.53-3.35-8.54-4.64C63.99,1.71,57.37.34,50.61.34Z"/>
    </g>
  </g>
</svg>