<?xml version="1.0" encoding="UTF-8"?>
<svg id="Layer_2" data-name="Layer 2" xmlns="http://www.w3.org/2000/svg" viewBox="0 0 106.25 113.57">
  <defs>
    <style>
      .cls-1 {
        fill: #fff;
        stroke-width: 0px;
      }
    </style>
  </defs>
  <g id="Layer_1-2" data-name="Layer 1">
    <g>
      <path class="cls-1" d="M53.13,12.42c-24.46,0-44.29,19.83-44.29,44.29s19.83,44.29,44.29,44.29,44.29-19.83,44.29-44.29S77.59,12.42,53.13,12.42ZM53.13,99.16c-23.45,0-42.45-19.01-42.45-42.45S29.68,14.26,53.13,14.26s42.45,19.01,42.45,42.45-19.01,42.45-42.45,42.45Z"/>
      <path class="cls-1" d="M87.15,15.91l-1.4.94c11.53,9.45,18.88,23.79,18.88,39.86,0,4.89-.68,9.62-1.96,14.11l1.39.99c1.42-4.79,2.18-9.86,2.18-15.1,0-16.4-7.43-31.06-19.1-40.8ZM0,56.71c0,5.69.89,11.17,2.55,16.31l1.4-.94c-1.52-4.85-2.33-10.02-2.33-15.37C1.62,39.22,10.33,23.77,23.66,14.46l-1.4-.99C8.78,23.1,0,38.88,0,56.71Z"/>
      <g>
        <path class="cls-1" d="M32.63,10.88l.84,1.63-4.67,2.41-3.83-7.42,4.61-2.38.84,1.63-2.92,1.51.64,1.23,2.65-1.37.83,1.61-2.65,1.37.68,1.31,2.97-1.53Z"/>
        <path class="cls-1" d="M38.25,7.9l-.87.26.79,2.63-1.83.55-2.41-8,3.2-.96c1.52-.46,3.11.4,3.57,1.92.3.98-.03,2.05-.78,2.76l2.59,2.42-1.97.59-2.3-2.17ZM36.9,6.56l1.37-.41c.5-.15.78-.72.6-1.3-.18-.58-.72-.9-1.22-.75l-1.37.41.62,2.06Z"/>
        <path class="cls-1" d="M49.93,8.51l-3.04-3.59.38,3.85-1.9.19-.82-8.31,1.9-.19.35,3.61,2.19-3.86,2.16-.21-2.41,4.33,3.34,3.98-2.16.21Z"/>
        <path class="cls-1" d="M54.66,5.66L55.19.03l1.9.18-.51,5.47c-.06.63.19,1.19,1.2,1.29,1.01.09,1.36-.41,1.42-1.04l.51-5.47,1.9.18-.52,5.63c-.17,1.78-1.64,2.72-3.47,2.55-1.83-.17-3.11-1.37-2.94-3.15Z"/>
        <path class="cls-1" d="M67.62,7.78l-.87-.26-.78,2.63-1.83-.55,2.39-8.01,3.2.95c1.52.45,2.38,2.04,1.93,3.56-.29.98-1.15,1.7-2.17,1.88l.83,3.45-1.97-.59-.73-3.08ZM67.23,5.92l1.37.41c.5.15,1.05-.17,1.22-.76.17-.58-.1-1.15-.61-1.3l-1.37-.41-.61,2.06Z"/>
        <path class="cls-1" d="M80.79,9.3l-1.91-.98-2.96,5.8-1.7-.87,2.96-5.8-1.91-.98.83-1.64,5.53,2.82-.83,1.64Z"/>
      </g>
      <g>
        <path class="cls-1" d="M9.37,86.65c-2.22,1.27-4.45.49-5.61-1.54-1.3-2.28-.56-4.88,1.53-6.06,2.1-1.2,4.74-.49,5.95,1.64.79,1.39.78,2.95.15,4.12l-1.61-.95c.31-.57.31-1.44-.16-2.26-.7-1.22-2.12-1.62-3.4-.89-1.23.7-1.64,2.09-.83,3.5.55.96,1.34,1.35,2.18,1.22l-1.11-1.94,1.45-.83,2.08,3.64-.62.35Z"/>
        <path class="cls-1" d="M11.03,92.87l-1.95-2.41-1.28.5-1.31-1.62,8.28-3.05,1.53,1.89-4.7,7.47-1.31-1.62.76-1.15ZM12.06,91.3l1.77-2.69-3,1.17,1.23,1.52Z"/>
        <path class="cls-1" d="M16.6,96.55l-.67-.61-1.85,2.03-1.41-1.29,5.63-6.17,2.47,2.25c1.17,1.07,1.25,2.87.18,4.05-.69.76-1.78,1.03-2.77.75l-.76,3.46-1.52-1.38.69-3.09ZM17.06,94.71l1.06.97c.39.35,1.02.3,1.43-.15.41-.45.41-1.08.02-1.44l-1.06-.97-1.45,1.59Z"/>
        <path class="cls-1" d="M26.89,99.72l-1.76-1.23-3.73,5.34-1.57-1.09,3.73-5.34-1.76-1.23,1.05-1.51,5.09,3.55-1.05,1.51Z"/>
        <path class="cls-1" d="M29.95,106.62l-.86,1.63-4.65-2.45,3.89-7.39,4.59,2.42-.86,1.63-2.9-1.53-.65,1.22,2.64,1.39-.85,1.6-2.64-1.39-.69,1.31,2.96,1.56Z"/>
        <path class="cls-1" d="M39.73,103.36l-2.83,7.86-1.35-.49-1.49-5.36-1.54,4.27-1.8-.65,2.83-7.86,1.35.49,1.49,5.36,1.54-4.27,1.8.65Z"/>
        <path class="cls-1" d="M47.93,109.48c-.46,2.51-2.49,3.72-4.79,3.3-2.58-.47-4.09-2.71-3.66-5.07.44-2.38,2.67-3.94,5.09-3.5,1.57.29,2.76,1.3,3.25,2.53l-1.76.62c-.24-.6-.9-1.16-1.83-1.33-1.39-.25-2.6.58-2.87,2.02-.26,1.4.54,2.6,2.14,2.89,1.09.2,1.9-.15,2.33-.88l-2.2-.4.3-1.64,4.12.75-.13.7Z"/>
        <path class="cls-1" d="M54.39,111.73l-.05,1.84-5.25-.15.24-8.35,5.19.15-.05,1.84-3.28-.09-.04,1.38,2.98.09-.05,1.81-2.98-.09-.04,1.48,3.34.1Z"/>
        <path class="cls-1" d="M55.48,111.65l1.54-1.12c.37.66.92,1.07,1.86.97.9-.09,1.09-.47,1.06-.79-.05-.51-.55-.66-1.83-.88-1.27-.22-2.54-.69-2.7-2.28-.16-1.6,1.1-2.67,2.53-2.81,1.37-.14,2.5.41,3.23,1.57l-1.51,1.1c-.35-.56-.77-.89-1.53-.82-.59.06-.86.39-.83.72.04.38.27.62,1.6.88,1.3.25,2.75.55,2.93,2.31.16,1.6-1.02,2.68-2.83,2.87-1.75.18-2.95-.54-3.53-1.72Z"/>
        <path class="cls-1" d="M67.37,105.03l-2.09.48,1.46,6.35-1.86.43-1.46-6.35-2.09.48-.41-1.79,6.05-1.39.41,1.79Z"/>
        <path class="cls-1" d="M73.84,108.2l-2.91,1.08.07,1.38-1.96.73-.24-8.82,2.28-.85,5.57,6.84-1.96.73-.85-1.09ZM72.68,106.72l-1.98-2.53.15,3.22,1.83-.68Z"/>
        <path class="cls-1" d="M81.33,103.94l.86,1.62-4.32,2.3-3.92-7.38,1.69-.9,3.06,5.75,2.63-1.4Z"/>
        <path class="cls-1" d="M83.68,96.75l-1.79,1.19,3.62,5.41-1.59,1.06-3.62-5.41-1.79,1.19-1.02-1.53,5.16-3.45,1.02,1.53Z"/>
        <path class="cls-1" d="M86.69,99.25l-3.76-4.23,1.43-1.27,3.65,4.1c.42.47,1,.68,1.76,0,.76-.67.62-1.27.2-1.75l-3.65-4.1,1.43-1.27,3.76,4.23c1.19,1.34.87,3.06-.51,4.28-1.37,1.22-3.12,1.34-4.31,0Z"/>
        <path class="cls-1" d="M92.56,85.05l6.43,5.33-.91,1.1-5.55-.41,3.49,2.89-1.22,1.47-6.43-5.33.91-1.1,5.55.41-3.49-2.89,1.22-1.47Z"/>
        <path class="cls-1" d="M101.07,79.37c2.21,1.27,2.67,3.59,1.5,5.62-1.31,2.28-3.93,2.95-6,1.75-2.1-1.21-2.82-3.84-1.59-5.97.8-1.39,2.15-2.16,3.48-2.21v1.87c-.65.03-1.4.46-1.87,1.28-.7,1.22-.33,2.65.95,3.38,1.23.71,2.63.36,3.44-1.05.55-.96.49-1.84-.05-2.49l-1.11,1.93-1.45-.83,2.09-3.63.62.36Z"/>
      </g>
      <path class="cls-1" d="M89.08,45.67c0-.47-.39-.86-.86-.86-.55,0-1.11,0-1.66.05-4.12.31-8.14,2.04-11.29,5.19-3.15,3.15-4.88,7.18-5.19,11.29-.02.31-.04.62-.04.93l-2.48,2.48c-.44-1.13-1.12-2.2-2.04-3.11-1.32-1.32-2.95-2.16-4.66-2.49-.4-.08-.81-.13-1.22-.16-.64-.04-1.18.49-1.14,1.13.03.47.09.94.2,1.4.36,1.64,1.18,3.2,2.46,4.48.92.92,1.98,1.6,3.12,2.04l-9.93,9.92v-19.47l5.65-5.65c.33,0,.65-.02.97-.04,4.12-.31,8.14-2.04,11.29-5.19,3.15-3.15,4.88-7.17,5.19-11.29.04-.55.06-1.11.05-1.66,0-.47-.39-.86-.86-.86-.55,0-1.11,0-1.66.05-4.12.31-8.14,2.04-11.29,5.19-3.15,3.15-4.88,7.18-5.19,11.29-.02.25-.03.5-.04.76l-4.11,4.11v-7.96c.2-.21.39-.42.58-.64,2.69-3.13,4.31-7.2,4.31-11.66s-1.62-8.52-4.31-11.65c-.37-.43-.77-.85-1.18-1.25-.17-.16-.39-.24-.6-.23-.22,0-.44.07-.6.23-.41.4-.81.81-1.18,1.25-2.69,3.13-4.31,7.2-4.31,11.65s1.62,8.52,4.31,11.66c.19.22.38.43.58.64v7.96l-4.11-4.11c0-.25-.02-.5-.04-.76-.31-4.12-2.04-8.14-5.19-11.29-3.15-3.15-7.17-4.88-11.29-5.19-.55-.04-1.11-.06-1.66-.05-.47,0-.86.39-.86.86,0,.55,0,1.11.05,1.66.31,4.12,2.04,8.14,5.19,11.29,3.15,3.15,7.18,4.88,11.29,5.19.32.02.65.04.97.04l5.65,5.65v19.47l-9.93-9.92c1.13-.44,2.2-1.12,3.12-2.04,1.28-1.28,2.1-2.84,2.46-4.48.1-.46.17-.93.2-1.4.04-.64-.49-1.17-1.14-1.13-.41.02-.81.08-1.22.16-1.71.34-3.34,1.17-4.66,2.49-.92.92-1.6,1.98-2.04,3.11l-2.48-2.48c0-.31-.02-.62-.04-.93-.31-4.12-2.04-8.14-5.19-11.29-3.15-3.15-7.17-4.88-11.29-5.19-.55-.04-1.11-.06-1.66-.05-.47,0-.86.39-.86.86,0,.55,0,1.11.05,1.66.31,4.12,2.04,8.14,5.19,11.29,3.15,3.15,7.18,4.88,11.29,5.19.27.02.54.03.8.04l2.46,2.46c-1.02.44-1.98,1.08-2.82,1.92-1.32,1.32-2.16,2.95-2.49,4.66-.08.4-.13.81-.16,1.22-.04.64.49,1.18,1.13,1.14.47-.03.94-.09,1.4-.2,1.64-.36,3.2-1.18,4.48-2.46.84-.84,1.48-1.8,1.92-2.82l11.49,11.49v9.18c0,.65.54,1.18,1.19,1.17,0,0,0,0,0,0,0,0,0,0,0,0,.66.01,1.19-.52,1.19-1.17v-9.18l11.49-11.49c.44,1.02,1.08,1.98,1.92,2.82,1.28,1.28,2.84,2.1,4.48,2.46.46.1.93.17,1.4.2.64.04,1.17-.49,1.13-1.14-.02-.41-.08-.81-.16-1.22-.34-1.71-1.17-3.34-2.49-4.66-.84-.84-1.8-1.48-2.82-1.92l2.46-2.46c.27,0,.54-.02.8-.04,4.12-.31,8.14-2.04,11.29-5.19,3.15-3.15,4.88-7.17,5.19-11.29.04-.55.06-1.11.05-1.66ZM65.42,40.79c2.66-2.66,6.04-4.14,9.51-4.45-.31,3.47-1.79,6.86-4.45,9.51-2.66,2.66-6.04,4.14-9.51,4.45.31-3.47,1.8-6.85,4.45-9.51ZM35.77,45.85c-2.66-2.66-4.14-6.04-4.45-9.51,3.47.31,6.85,1.8,9.51,4.45,2.66,2.66,4.14,6.04,4.45,9.51-3.47-.31-6.86-1.79-9.51-4.45ZM24.18,56.86c-2.66-2.66-4.14-6.04-4.45-9.51,3.47.31,6.85,1.8,9.51,4.45,2.66,2.66,4.14,6.04,4.45,9.51-3.47-.31-6.86-1.79-9.51-4.45ZM36.85,70.93c-.72.72-1.56,1.24-2.46,1.57.32-.9.83-1.75,1.56-2.47.72-.72,1.57-1.24,2.47-1.56-.33.9-.85,1.74-1.57,2.46ZM42.55,63.43c.72-.72,1.57-1.24,2.47-1.56-.33.9-.85,1.74-1.57,2.46-.72.72-1.56,1.24-2.46,1.57.32-.9.83-1.75,1.56-2.47ZM49.58,34.93c0-3.74,1.33-7.16,3.55-9.83,2.21,2.67,3.55,6.1,3.55,9.83s-1.33,7.16-3.55,9.83c-2.21-2.67-3.55-6.1-3.55-9.83ZM62.8,64.33c-.72-.72-1.24-1.56-1.57-2.46.9.32,1.75.84,2.47,1.56.72.72,1.24,1.57,1.56,2.47-.9-.33-1.74-.85-2.46-1.57ZM70.31,70.03c.72.72,1.24,1.57,1.56,2.47-.9-.33-1.74-.85-2.46-1.57-.72-.72-1.24-1.56-1.57-2.46.9.32,1.75.84,2.47,1.56ZM82.08,56.86c-2.66,2.66-6.04,4.14-9.51,4.45.31-3.47,1.8-6.85,4.45-9.51,2.66-2.66,6.04-4.14,9.51-4.45-.31,3.47-1.79,6.86-4.45,9.51Z"/>
    </g>
  </g>
</svg>