<?xml version="1.0" encoding="UTF-8"?>
<svg id="Layer_2" data-name="Layer 2" xmlns="http://www.w3.org/2000/svg" viewBox="0 0 119.49 27.04">
  <defs>
    <style>
      .cls-1 {
        fill: #fff;
        stroke-width: 0px;
      }
    </style>
  </defs>
  <g id="Layer_1-2" data-name="Layer 1">
    <g>
      <g>
        <path class="cls-1" d="M23.11,25.69c0,.8-.6,1.36-1.4,1.36s-1.4-.55-1.4-1.36.59-1.4,1.4-1.4,1.4.57,1.4,1.4ZM22.64,25.63c0-.63-.28-1.2-.93-1.2s-.93.57-.93,1.2.22,1.27.93,1.27.93-.64.93-1.27Z"/>
        <path class="cls-1" d="M24.99,24.8c0-.32-.11-.38-.41-.38v-.08h2.08l.02.66h-.09c-.12-.45-.19-.52-.72-.52-.45,0-.47.01-.47.16v.9h.54c.66,0,1.04.23,1.04.71,0,.53-.52.72-.99.72h-1.41v-.08c.3,0,.41-.06.41-.38v-1.73ZM25.4,26.69c0,.13.08.15.23.15h.19c.39,0,.7-.15.7-.58s-.3-.57-.7-.57h-.42v1Z"/>
        <path class="cls-1" d="M29.33,26.53c0,.32.11.38.41.38v.08h-1.23v-.08c.3,0,.41-.06.41-.38v-1.73c0-.32-.11-.38-.41-.38v-.08h1.18c.67,0,.96.29.96.68,0,.56-.49.76-1.02.76h-.31v.74ZM29.33,25.64h.16c.4,0,.72-.15.72-.6,0-.36-.24-.56-.58-.56-.29,0-.3.02-.3.29v.87Z"/>
        <path class="cls-1" d="M33.06,24.31h.1l1.07,2.28c.03.07.07.14.11.19.07.08.16.13.29.13v.08h-1.13v-.08h.04c.22,0,.27-.09.27-.16,0-.13-.21-.49-.26-.63h-1.15c-.04.13-.24.52-.24.63,0,.08.03.16.28.16h.03v.08h-.88v-.08c.08,0,.15-.02.21-.06.08-.05.16-.24.2-.33l1.06-2.21ZM32.47,25.95h1l-.5-1.1-.5,1.1Z"/>
        <path class="cls-1" d="M36.75,25.55c.31,0,.84-.02.84-.58,0-.31-.2-.55-.57-.55-.58,0-.78.55-.85.76h-.08l.06-.9h.07c.02.11.04.17.11.17.15,0,.38-.17.81-.17.6,0,.86.36.86.68,0,.27-.19.55-.68.63h0c.55.04.81.3.81.67,0,.39-.33.79-1.05.79-.58,0-.91-.26-1.16-.54l.11-.1c.22.24.55.45.92.45.45,0,.71-.27.71-.6,0-.56-.58-.56-.94-.56v-.14Z"/>
        <path class="cls-1" d="M42.54,25.69c0,.8-.6,1.36-1.4,1.36s-1.4-.55-1.4-1.36.59-1.4,1.4-1.4,1.4.57,1.4,1.4ZM42.07,25.63c0-.63-.28-1.2-.93-1.2s-.93.57-.93,1.2.22,1.27.93,1.27.93-.64.93-1.27Z"/>
        <path class="cls-1" d="M44.38,24.8c0-.32-.11-.38-.41-.38v-.08h1.35c.41,0,.91.16.91.65,0,.32-.25.52-.54.58h0c.37.08.68.26.68.68,0,.53-.52.72-.99.72h-1.41v-.08c.3,0,.41-.06.41-.38v-1.73ZM44.79,25.55h.32c.37,0,.7-.11.7-.54,0-.5-.41-.52-.8-.52-.15,0-.23.02-.23.15v.91ZM44.79,26.69c0,.13.08.15.23.15h.19c.39,0,.7-.15.7-.59,0-.41-.37-.56-.74-.56h-.38v1Z"/>
        <path class="cls-1" d="M49.13,24.31h.1l1.07,2.28c.03.07.07.14.11.19.07.08.16.13.29.13v.08h-1.13v-.08h.04c.22,0,.27-.09.27-.16,0-.13-.21-.49-.26-.63h-1.15c-.04.13-.24.52-.24.63,0,.08.03.16.28.16h.03v.08h-.88v-.08c.08,0,.15-.02.21-.06.08-.05.16-.24.2-.33l1.06-2.21ZM48.55,25.95h1l-.5-1.1-.5,1.1Z"/>
        <path class="cls-1" d="M52.84,26.53c0,.32.11.38.41.38v.08h-1.23v-.08c.3,0,.41-.06.41-.38v-1.73c0-.32-.11-.38-.41-.38v-.08h1.23v.08c-.3,0-.41.06-.41.38v.75h1.38v-.75c0-.32-.11-.38-.41-.38v-.08h1.23v.08c-.3,0-.41.06-.41.38v1.73c0,.32.11.38.41.38v.08h-1.23v-.08c.3,0,.41-.06.41-.38v-.82h-1.38v.82Z"/>
        <path class="cls-1" d="M56.78,24.8c0-.32-.11-.38-.41-.38v-.08h1.23v.08c-.3,0-.41.06-.41.38v1.52h0l1.32-1.67c0-.15-.11-.23-.41-.23v-.08h1.23v.08c-.3,0-.41.06-.41.38v1.73c0,.32.11.38.41.38v.08h-1.23v-.08c.3,0,.41-.06.41-.38v-1.59h0l-1.32,1.66c0,.23.11.31.41.31v.08h-1.23v-.08c.3,0,.41-.06.41-.38v-1.73Z"/>
        <path class="cls-1" d="M61.09,24.8c0-.32-.11-.38-.41-.38v-.08h2.29l.03.58h-.07c-.04-.32-.21-.42-.52-.42h-.73c-.17,0-.17.05-.17.27v.74h.81c.26,0,.34-.11.37-.36h.08v.89h-.08c-.02-.26-.11-.37-.37-.37h-.81v.83c0,.24.02.32.19.32h.8c.34,0,.56-.21.66-.51l.07.03-.21.65h-2.34v-.08c.3,0,.41-.06.41-.38v-1.73Z"/>
        <path class="cls-1" d="M67.1,24.8c0-.32-.11-.38-.41-.38v-.08h1.35c.41,0,.91.16.91.65,0,.32-.25.52-.54.58h0c.37.08.68.26.68.68,0,.53-.52.72-.99.72h-1.41v-.08c.3,0,.41-.06.41-.38v-1.73ZM67.52,25.55h.32c.37,0,.7-.11.7-.54,0-.5-.41-.52-.8-.52-.15,0-.23.02-.23.15v.91ZM67.52,26.69c0,.13.08.15.23.15h.19c.39,0,.7-.15.7-.59,0-.41-.37-.56-.74-.56h-.38v1Z"/>
        <path class="cls-1" d="M73.96,24.31h.1l1.07,2.28c.03.07.07.14.11.19.07.08.16.13.29.13v.08h-1.13v-.08h.04c.22,0,.27-.09.27-.16,0-.13-.21-.49-.26-.63h-1.15c-.04.13-.24.52-.24.63,0,.08.03.16.28.16h.03v.08h-.88v-.08c.08,0,.15-.02.21-.06.08-.05.16-.24.2-.33l1.06-2.21ZM73.37,25.95h1l-.5-1.1-.5,1.1Z"/>
        <path class="cls-1" d="M77.25,24.8c0-.32-.11-.38-.41-.38v-.08h1.35c.41,0,.91.16.91.65,0,.32-.25.52-.54.58h0c.37.08.68.26.68.68,0,.53-.52.72-.99.72h-1.41v-.08c.3,0,.41-.06.41-.38v-1.73ZM77.66,25.55h.32c.37,0,.7-.11.7-.54,0-.5-.41-.52-.8-.52-.15,0-.23.02-.23.15v.91ZM77.66,26.69c0,.13.08.15.23.15h.19c.39,0,.7-.15.7-.59,0-.41-.37-.56-.74-.56h-.38v1Z"/>
        <path class="cls-1" d="M83.34,25.16h-.1c-.1-.44-.45-.74-.91-.74-.69,0-1.01.6-1.01,1.2,0,.79.41,1.27,1.01,1.27.45,0,.74-.22.98-.52l.06.06c-.37.52-.81.6-1.08.6-.76,0-1.44-.45-1.44-1.35,0-.82.63-1.41,1.44-1.41.52,0,.85.32.88.03h.08l.08.85Z"/>
        <path class="cls-1" d="M85.64,24.67c0-.14,0-.19-.22-.19-.53,0-.64.04-.73.53h-.06l.02-.67h2.39l.02.67h-.06c-.09-.49-.2-.53-.73-.53-.22,0-.22.05-.22.19v1.85c0,.32.11.38.41.38v.08h-1.23v-.08c.3,0,.41-.06.41-.38v-1.85Z"/>
        <path class="cls-1" d="M89.18,26.53c0,.32.11.38.41.38v.08h-1.23v-.08c.3,0,.41-.06.41-.38v-1.73c0-.32-.11-.38-.41-.38v-.08h1.18c.67,0,.96.29.96.68,0,.56-.49.76-1.02.76h-.31v.74ZM89.18,25.64h.16c.4,0,.72-.15.72-.6,0-.36-.24-.56-.58-.56-.29,0-.3.02-.3.29v.87Z"/>
        <path class="cls-1" d="M92.27,24.8c0-.32-.11-.38-.41-.38v-.08h1.23v.08c-.3,0-.41.06-.41.38v1.52h0l1.32-1.67c0-.15-.11-.23-.41-.23v-.08h1.23v.08c-.3,0-.41.06-.41.38v1.73c0,.32.11.38.41.38v.08h-1.23v-.08c.3,0,.41-.06.41-.38v-1.59h0l-1.32,1.66c0,.23.11.31.41.31v.08h-1.23v-.08c.3,0,.41-.06.41-.38v-1.73Z"/>
        <path class="cls-1" d="M96.6,24.8c0-.32-.11-.38-.41-.38v-.08h1.23v.08c-.3,0-.41.06-.41.38v1.52h0l1.32-1.67c0-.15-.11-.23-.41-.23v-.08h1.23v.08c-.3,0-.41.06-.41.38v1.73c0,.32.11.38.41.38v.08h-1.23v-.08c.3,0,.41-.06.41-.38v-1.59h0l-1.32,1.66c0,.23.11.31.41.31v.08h-1.23v-.08c.3,0,.41-.06.41-.38v-1.73Z"/>
      </g>
      <g>
        <path class="cls-1" d="M13.59.67c-1.83,0-4.63.11-6.89.11s-5.06-.11-6.7-.11v.81h.38c.97,0,1.99.13,1.99,1.53v14.1c0,1.4-1.02,1.53-1.99,1.53h-.38v.81c1.08,0,2.72-.11,4.12-.11,1.53,0,3.36.11,4.63.11v-.81s-.35,0-.35,0c-1.35,0-2.58-.03-2.58-1.53v-6.86h3.34c1.72,0,2.15,1.13,2.15,2.64h.81c-.08-1.1-.11-2.18-.11-3.28,0-.97.05-1.91.11-2.88h-.81c0,1.35-.4,2.18-1.72,2.18h-3.77V1.86h4.3c2.13,0,2.56,1.29,2.72,3.15l.81-.22c-.08-1.18-.11-2.96-.05-4.12Z"/>
        <path class="cls-1" d="M30.83,17.03l-4.6-6.89c2.13-.83,3.74-2.31,3.74-4.74,0-3.82-3.01-4.74-6.4-4.74-1.43,0-2.72.11-4.33.11s-3.31-.11-4.17-.11v.81h.48c.83,0,1.91.08,1.91,2.04v13.67c0,1-.91,1.45-1.91,1.45h-.48v.81c1.35,0,2.61-.11,3.9-.11,1.53,0,3.09.11,4.63.11v-.81h-.48c-1.24,0-2.21-.08-2.21-2.15v-5.76h1.78c1.75,3.09,3.52,6,5.6,8.72.83,0,1.69-.11,2.53-.11.89,0,1.75.11,2.64.11v-.81c-1.32-.16-1.86-.48-2.61-1.61ZM22.22,9.77h-1.32V1.75c.38-.03.73-.11,1.53-.11,2.39,0,3.93,1.53,3.93,3.93,0,3.17-1.45,4.2-4.14,4.2Z"/>
        <path class="cls-1" d="M51.04,17.57c-.35-.81-.67-1.8-1-2.74L45.09.75c-.08-.22-.16-.46-.24-.67-.05-.08-.11-.08-.19-.08s-.13.03-.22.05c-.51.32-1.59.86-2.45,1.16-.16,1-.65,2.34-1,3.34l-4.3,12.35c-.4,1.13-1.29,1.75-2.34,1.75h-.16v.81c.97-.05,1.94-.11,2.91-.11,1.08,0,2.18.05,3.26.11v-.81h-.3c-.89,0-2.02-.13-2.02-.94,0-.48.32-1.18.59-2.1l.86-2.8h6.11l1.05,3.12c.3.86.54,1.59.54,1.94,0,.67-1.05.78-1.67.78h-.3v.81c1.37-.05,2.72-.11,4.04-.11s2.5.05,3.71.11v-.81h-.16c-.89,0-1.45-.32-1.78-1.08ZM40.01,11.3l2.5-7.61h.05l2.48,7.61h-5.03Z"/>
        <path class="cls-1" d="M77.38,17.14l-1.02-12.32c-.05-.59-.16-1.4-.13-2.1.05-1.18,1.69-1.24,2.5-1.24h.24v-.81c-.94,0-1.91.11-2.85.11s-1.94-.11-2.74-.11l-6.38,14.07L60.7.67c-.81,0-1.61.11-2.42.11-1.1,0-2.18-.11-3.28-.11v.81h.35c1.18,0,2.34.51,2.34,2.02,0,1.08-.11,2.83-.32,4.74l-.81,7.48c-.24,1.94-.32,2.85-2.45,2.93h-.38v.81c1.05-.05,2.13-.11,3.17-.11,1.21,0,2.45.05,3.66.11v-.81h-.32c-.75-.03-1.32-.05-1.72-.3-.35-.24-.57-.67-.57-1.53l.91-11.81h.05l6.51,14.85h.65l6.86-15.15h.05l.75,11.35c.03.7.03,1,.03,1.32,0,1.18-.91,1.18-2.31,1.26v.81c1.48-.05,2.96-.11,4.44-.11,1.29,0,2.61.05,3.87.11v-.81c-1.61-.05-2.29-.16-2.39-1.51Z"/>
        <path class="cls-1" d="M96.67,17.17l-6.91-8.69,4.25-4.6c1.1-1.18,2.56-2.39,4.33-2.39h.35v-.81c-1.21,0-2.39.11-3.61.11s-2.29-.11-3.44-.11v.81h.3c.35,0,1.51.03,1.51.56,0,.57-.83,1.48-1.18,1.83l-5.65,6.3,5.81,7.26c.38.43,1.16,1.51,1.4,2.02.86,0,1.69-.05,2.56-.05.91,0,1.86.05,2.74.05v-.81c-1.02,0-1.88-.67-2.45-1.48Z"/>
        <path class="cls-1" d="M86.53,17.11V3.01c0-1.51,1.4-1.53,2.21-1.53h.32v-.81c-1.1,0-2.82.11-4.28.11-1.37,0-2.99-.11-4.06-.11v.81h.38c.97,0,1.99.13,1.99,1.53v14.1c0,1.4-1.02,1.53-1.99,1.53h-.38v.81c1.08,0,2.69-.11,4.06-.11,1.45,0,3.17.11,4.28.11v-.81h-.32c-.81,0-2.21-.03-2.21-1.53Z"/>
        <path class="cls-1" d="M109.18.27c-5.6,0-9.93,4.33-9.93,9.93s4.36,9.66,10.06,9.66,10.17-4.12,10.17-10.3c0-5.73-4.57-9.28-10.3-9.28ZM103.02,9.26c0-3.61,1.4-7.8,6.11-7.8,4.09,0,6.21,3.99,6.54,7.68-.57-1.61-1.64-3.14-3.27-4.37,0,0,1.39,2.02.89,3.83-.56,2.03-2.9,2.65-4.19,2.2-1.51-.53-2.4-2.33-2.14-3.7-1.17,2.45,0,4.99,3.17,6.27,3.24,1.3,2.37,4.15.54,5.25-.34.05-.7.08-1.09.08-4.36,0-6.56-4.6-6.56-9.42Z"/>
        <path class="cls-1" d="M109.94,7.18c-.72.32-1.05,1.17-.73,1.89.32.72,1.17,1.05,1.89.73.72-.32,1.05-1.17.73-1.89-.32-.72-1.17-1.05-1.89-.73Z"/>
        <path class="cls-1" d="M109.81,6.89c.82-.37,1.78-.04,2.22.73l.77-1.19-3.5-.67-1.84,3.05,1.39.23c-.27-.84.13-1.77.95-2.14Z"/>
      </g>
    </g>
  </g>
</svg>