<?xml version="1.0" encoding="UTF-8"?>
<svg id="Layer_2" data-name="Layer 2" xmlns="http://www.w3.org/2000/svg" viewBox="0 0 103.87 104.86">
  <defs>
    <style>
      .cls-1 {
        fill: #fff;
        stroke-width: 0px;
      }
    </style>
  </defs>
  <g id="Layer_1-2" data-name="Layer 1">
    <g>
      <rect class="cls-1" y="97.77" width="103.87" height=".6"/>
      <rect class="cls-1" y="75.35" width="103.87" height=".6"/>
      <path class="cls-1" d="M32.02,56.8c-1.02.11-2.03.35-2.97.75-.94.39-1.84.89-2.6,1.55,1.78-.93,3.68-1.55,5.63-1.75.98-.1,1.96-.07,2.93.05.97.13,1.93.4,2.88.74-.85-.55-1.81-.93-2.81-1.16-1-.23-2.04-.28-3.06-.18Z"/>
      <path class="cls-1" d="M34.89,56.71c.97.14,1.93.4,2.88.74-.85-.55-1.8-.93-2.8-1.16-1-.24-2.04-.28-3.06-.19-1.02.11-2.03.36-2.97.75-.94.39-1.84.89-2.61,1.55,1.78-.93,3.68-1.55,5.63-1.75.97-.1,1.96-.07,2.93.05Z"/>
      <path class="cls-1" d="M34.89,56.01c.97.14,1.93.4,2.88.74-.85-.54-1.8-.93-2.8-1.16-1-.24-2.04-.28-3.06-.18-1.02.11-2.03.36-2.97.75-.94.4-1.84.89-2.61,1.55,1.78-.93,3.68-1.55,5.63-1.75.97-.1,1.96-.08,2.93.05Z"/>
      <path class="cls-1" d="M71.85,56.8c-1.02-.1-2.06-.05-3.06.18-1,.23-1.96.61-2.8,1.16.95-.34,1.91-.6,2.88-.74.97-.13,1.96-.16,2.93-.05,1.95.2,3.85.82,5.63,1.75-.76-.66-1.67-1.16-2.61-1.55-.94-.4-1.95-.64-2.97-.75Z"/>
      <path class="cls-1" d="M71.96,56.1c-1.02-.1-2.06-.05-3.06.19-1,.23-1.96.61-2.81,1.16.95-.34,1.91-.6,2.89-.74.97-.13,1.95-.15,2.93-.05,1.95.2,3.85.82,5.63,1.75-.76-.66-1.67-1.16-2.61-1.55-.94-.4-1.95-.64-2.97-.75Z"/>
      <path class="cls-1" d="M71.96,55.41c-1.02-.1-2.06-.05-3.06.18-1,.23-1.96.61-2.81,1.16.95-.34,1.91-.6,2.89-.74.97-.13,1.95-.15,2.93-.05,1.95.2,3.85.82,5.63,1.75-.76-.66-1.67-1.16-2.61-1.55-.94-.39-1.95-.64-2.97-.75Z"/>
      <path class="cls-1" d="M59.49,13.31l4.96-9.47s-1.53-.23-2.81,1.74c-.92-.61-1.53,2.39-2.19,2.94,0,0,1.04.03,1.73-1.17-.38,2.51-3.93,1.73-2.78-.52,0,0-.09,1.14.66,1.51-.13-1.22,1.75-2.12,1.55-2.92-.11-.44-.74-.68-.74-.68.91-.68.49-2.29.39-3.26-.92.88-2.29,1.29-2.36,2.68,0,0-.83-.41-1.52,0-1.32.79-.43,2.97-1.07,3.6,0,0,1.51-.25,1.78-1.5.25,2.59-4.08,3.23-4.31-.41,0,0,.77,1.78,1.86,1.86-.17-.7.27-1.55.5-2.32.47-1.6-.49-2.13-1.96-1.66,0,0,.65-.71-.15-1.37,0,0,1.37-1.44-.47-2.2-.03-.02-.06-.03-.09-.04-.15-.07-.33-.11-.51-.11s-.36.04-.52.12c-.02,0-.04.02-.06.03,0,0,0,0,0,0-1.87.75-.49,2.21-.49,2.21-.8.67-.15,1.37-.15,1.37-1.47-.46-2.43.06-1.96,1.66.23.77.67,1.62.5,2.32,1.09-.08,1.86-1.86,1.86-1.86-.23,3.64-4.57,3.01-4.31.41.28,1.25,1.78,1.5,1.78,1.5-.64-.63.25-2.81-1.07-3.6-.69-.41-1.52,0-1.52,0-.07-1.4-1.43-1.81-2.36-2.68-.1.97-.52,2.58.39,3.26,0,0-.63.24-.74.68-.2.8,1.68,1.7,1.55,2.92.74-.37.66-1.51.66-1.51,1.16,2.25-2.4,3.03-2.77.52.68,1.2,1.73,1.17,1.73,1.17-.66-.55-1.27-3.55-2.19-2.94-1.29-1.97-2.81-1.74-2.81-1.74l4.93,9.47h15.08Z"/>
      <path class="cls-1" d="M4.82,43.34c.12.2.81,1.27,1.06,1.59-.42.7-.83,1.71-.52,2.78h-.01c0,.1.09,2.46.89,4.27-1.11.89-.42,2.01-.35,2.18.84,2,3.8,6.95,3.96,7.21.28.1,8.12,3.39,18.79-1.83,3.18-1.56,6.38-1.09,8.99-.06-.27.48-1.05,1.65-2.65,2.7-.15.1-.33.2-.5.29l.14.56.98,3.81.14.54c.15-.07.32-.14.52-.21,1.27-.43,3.53-.66,6.36,1.48,5.44,4.13,9.31,3.76,9.33,3.76.02,0,3.87.37,9.33-3.76,2.82-2.13,5.08-1.9,6.36-1.48.19.07.37.14.52.21l.14-.54.98-3.81.14-.56c-.17-.1-.34-.19-.5-.29-1.6-1.05-2.38-2.22-2.65-2.7,2.61-1.04,5.8-1.49,8.99.06,11.07,5.39,18.52,1.94,18.79,1.83.16-.26,3.11-5.21,3.96-7.21.07-.16.74-1.37-.35-2.18.8-1.81.88-4.16.89-4.27h-.02c.31-1.07-.09-2.09-.52-2.78.24-.32.94-1.39,1.06-1.59-1.31-4.16-3.1-5.7-3.32-5.9,1.49,4.69-3.43,5.95-3.61,6.01.73,2.51,2.46,4.35,2.59,4.48,0,.15,0,.31-.03.47-.48-.12-1.42-.32-1.52.5l-.12,5.32c1.28.77.66,1.61.55,1.76-1.26.32-2.68.53-4.16.63.41-.42.61-.97.58-1.64-.03-.72.04-1.62.11-2.49.15-1.92.29-3.73-.47-4.48-.26-.25-.6-.36-1.01-.32-.71.07-1.56-.33-2.43-1.08.91.37,2.17.6,2.53.64-.9-.64-1.86-1.68-2.31-2.25.36.25,1.35.85,1.99,1.03-.08-.07-.67-.83-1.07-2.16.6.08,1.17.13,1.69.13,1.8,0,3.06-.48,3.77-1.44,1.69-2.29-.47-6.38-.56-6.55-.04-.08-4.04-6.86-2.77-9.52.33-.7.78-1.12,1.34-1.26.37-.09.75-.05,1.1.04-.21.21-.39.45-.51.74-.42,1.04-.13,2.45.81,3.97.56.91.62,1.71.48,2.35-.05.25-.13.47-.23.67,1.36-.86,1.66-1.92,1.72-2.15.95.68,2.13.56,2.16.55-.2-.13-.44-.31-.66-.54-.56-.56-1.02-1.41-.58-2.52.11-.26.19-.5.26-.73.1.2.38.78.47,1.6,1.04-2.27,1.4-4.45,0-5.41-1.29-.88-2.31-.64-2.93-.29-1.13-.42-2.47-.59-3.77.1-.9.48-1.52,1.28-1.84,2.38-.69,2.35.14,5.41,1.26,7.41,1.1,1.95,3.59,6.38,2.28,7.97-.57.7-1.94.78-3.96.27,0-.04.03-2.28-3.18-3.52-.71-.27-1.32-.69-1.88-1.14.22.01.44,0,.65-.05.35-.09.65-.31.85-.58.11-.15.19-.32.26-.49.02-.04.02-.08.04-.12-.03,0-.05.01-.08.02-.17.04-.34.08-.51.09-.3.05-.65.02-.67-.14-.06-.16.01-.49.11-.77.1-.29.22-.58.35-.88.23-.57.55-1.22.54-1.92,0-.53-.11-1.05-.35-1.5.2-.18.39-.38.54-.63.34-.66.4-1.46.22-2.14-.11-.41-.29-.84-.58-1.17.13-.19.25-.39.35-.6.46-1.09.23-2.33-.41-3.23.11-.14.21-.28.27-.44.15-.38.15-.83.01-1.21-.13-.37-.4-.71-.66-.93-.28-.23-.69-.47-1.15-.39-.21.04-.37.13-.52.24-1.8-1.36-3.38-1.94-4.71-1.68-1.04.21-1.61.86-1.84,1.19-1.4-.33-2.29-.22-2.72.34-.12.16-.18.35-.22.54-.14.06-.27.13-.38.24-.36.4-.33,1.06.09,2.02.31.7.79,1.04,1.3,1.19l.49,1.01.43-.89c.17,0,.33-.01.49-.02l.44.91.47-.97c.17,0,.3.02.35.09.04.06.12.27-.14,1.01-.14.39-.46.61-.95.67l-.46-.96-.43.9c-.13-.03-.27-.06-.41-.1l-.51-1.07-.34.72c-.11-.05-.42-.21-.47-.24-.03.21-.18,1.38.73,1.96-1.23,1.13-2.08-.2-2.11-.24-.12,1.16.31,1.58.35,1.64-.15.15-.3.29-.43.46-.26-.28-.72-.87-1.23-1.87-.14-2.76-.4-4.59-.43-4.84l-.22-1.5-1.51.07c-.16,0-5.67.62-7.16-5.47l-.24-1.38h-14.76l-.24,1.38c-.04.23-1.05,5.76-7.16,5.47l-1.51-.07-.22,1.5c-.04.25-.3,2.08-.44,4.86-.51,1-.96,1.57-1.22,1.85-.12-.17-.27-.31-.43-.46.52-.45.36-1.56.35-1.64-.03.04-.83,1.33-2.11.24.94-.67.77-1.76.73-1.96-.05.03-.35.19-.46.24l-.34-.72-.51,1.07c-.14.04-.28.08-.41.1l-.43-.9-.46.96c-.49-.06-.81-.28-.95-.67-.26-.74-.19-.95-.14-1.01.05-.06.19-.08.35-.09l.47.97.43-.91c.16.01.32.02.49.02l.42.89.49-1.01c.51-.16.99-.49,1.3-1.19.43-.96.46-1.62.09-2.02-.11-.12-.24-.19-.38-.24-.03-.19-.09-.38-.22-.54-.43-.56-1.32-.67-2.72-.34-.23-.33-.8-.98-1.84-1.19-1.33-.26-2.91.31-4.71,1.68-.14-.11-.31-.2-.52-.24-.46-.08-.87.16-1.15.39-.27.22-.53.56-.66.93-.13.38-.14.82.01,1.21.07.17.17.31.27.44-.63.9-.87,2.13-.41,3.23.09.21.22.41.35.6-.29.32-.47.76-.58,1.17-.18.68-.12,1.48.22,2.14.15.25.34.45.54.63-.24.45-.36.98-.35,1.5-.01.71.32,1.35.55,1.92.12.29.25.59.34.88.1.28.17.61.11.77-.02.15-.37.19-.67.14-.17-.01-.34-.05-.51-.09-.03,0-.05-.01-.08-.02.01.04.02.08.04.12.07.17.15.33.26.49.2.27.5.49.85.58.21.06.43.07.65.05-.55.45-1.18.84-1.88,1.14-3.31,1.39-3.17,3.48-3.18,3.52-2.02.52-3.39.43-3.96-.27-1.3-1.59,1.19-6.02,2.28-7.97,1.12-1.99,1.95-5.06,1.26-7.41-.32-1.1-.94-1.9-1.84-2.38-1.3-.69-2.64-.52-3.77-.1-.62-.34-1.65-.59-2.93.29-1.4.96-1.07,3.14,0,5.41.14-.9.37-1.4.47-1.6.07.22.15.46.26.73.44,1.12-.01,1.96-.58,2.52-.22.23-.46.41-.66.54.03,0,1.31.05,2.16-.55.06.23.43,1.39,1.72,2.15-.1-.2-.18-.42-.23-.67-.14-.64-.08-1.43.48-2.35.93-1.51,1.22-2.93.81-3.97-.11-.29-.29-.53-.51-.74.35-.09.73-.13,1.1-.04.56.14,1.02.56,1.35,1.26,1.26,2.66-2.73,9.44-2.77,9.52-.09.17-2.26,4.27-.56,6.55.71.96,1.97,1.44,3.77,1.44.52,0,1.09-.06,1.69-.13-.41,1.4-1,2.08-1.07,2.16.27-.09,1.26-.5,1.99-1.03-.82,1.07-2.03,2.04-2.31,2.25.36-.04,1.64-.28,2.53-.64-.87.76-1.72,1.15-2.43,1.08-.41-.04-.75.07-1.01.32-.75.74-.61,2.55-.46,4.48.07.87.14,1.77.11,2.49-.03.67.17,1.23.59,1.65-1.48-.1-2.91-.31-4.17-.64-.11-.14-.73-.95.55-1.76l-.12-5.32c-.02-.16-.09-.87-1.52-.5-.02-.16-.03-.31-.03-.47,1.84-2.03,2.54-4.32,2.59-4.48-.18-.06-4.97-1.31-3.61-6.01-.22.2-1.85,1.46-3.32,5.9ZM97.91,47.76c.01-.08.03-.16.03-.24,0-.69-.3-1.28-.69-1.75.12-.13.25-.25.36-.39.36.63.64,1.49.3,2.37ZM96.81,46.26c.15-.15.29-.3.42-.46.23.55.32,1.14.15,1.64-.06.2-.16.37-.28.54.03-.15.06-.31.06-.46,0-.47-.14-.89-.35-1.26ZM94.59,45.09s-.06.02-.09.02c.04-.02.09-.05.13-.08.39-.24.76-.52,1.1-.82.67-.61,1.22-1.39,1.44-2.24-.4.78-1.05,1.37-1.77,1.79-.36.21-.74.38-1.13.52-.15.05-.31.1-.47.15.14-.08.28-.15.42-.24.39-.24.76-.52,1.1-.82.67-.61,1.22-1.39,1.44-2.24-.4.78-1.05,1.37-1.77,1.79-.36.21-.75.38-1.14.52-.28.1-.58.18-.86.24,1.62-.69,2.71-1.64,3.23-2.87.22-.52.31-1.05.33-1.56.62.91,1.3,2.18,1.89,3.99-.22.37-.5.76-.8,1.17-.11.15-.23.3-.35.45-.12.15-.28.3-.41.46-.14.1-.28.2-.42.28.64-.6,1.16-1.35,1.37-2.17-.4.79-1.05,1.37-1.77,1.79-.24.14-.51.24-.77.35.27-.18.54-.36.77-.58.67-.61,1.22-1.39,1.44-2.24-.4.78-1.05,1.37-1.77,1.79-.36.21-.74.38-1.13.52ZM96.62,47.44c-.05.16-.13.32-.22.45,0-.37-.09-.72-.23-1.04.17-.14.34-.28.49-.43.06.35.07.7-.03,1.01ZM95.55,47.36c.13-.1.24-.19.36-.29.02.26,0,.52-.07.75-.06.2-.16.37-.28.54.03-.15.05-.31.05-.46,0-.19-.02-.37-.06-.54ZM94.54,48.94c.12.03.24.06.36.09.06.02.12.03.18.05.91.23,2.03.48,2.79-.23-.1.81-.31,1.89-.7,2.83-.16-.08-.35-.15-.52-.22.17-.08.34-.16.49-.27-.24.1-.49.15-.73.17-.11-.05-.21-.1-.33-.14,0,0-.01,0-.02,0,.44-.07.86-.22,1.21-.48-.7.28-1.45.21-2.13.01-.08-.02-.15-.06-.22-.09.12.01.24.04.36.05.78.04,1.6-.11,2.21-.56-.7.28-1.45.21-2.12,0-.18-.05-.34-.13-.51-.2.2.03.41.07.61.08.78.03,1.6-.11,2.21-.56-.7.28-1.45.21-2.13,0-.45-.14-.88-.35-1.28-.59.09.02.18.04.27.06ZM93.63,52.24l.04-1.77c.44.5,1.1.82,1.76,1.08-.23-.02-.45-.03-.69-.03.56.13,1.16.33,1.59.65-.31-.19-.64-.3-.95-.35-.4-.06-.8-.06-1.19-.04.75.14,1.57.39,1.98.91.12.15.17.32.2.48-.1-.16-.22-.31-.37-.42-.36-.29-.78-.41-1.18-.48-.4-.06-.79-.06-1.18-.04.75.14,1.57.38,1.98.91.13.17.18.36.2.55-.04-.06-.08-.13-.13-.18-.31-.35-.7-.55-1.07-.68-.32-.11-.65-.18-.98-.22v-.38ZM93.62,52.67c.66.27,1.32.63,1.6,1.17.06.12.08.24.1.37-.23-.38-.57-.64-.91-.84-.26-.15-.53-.25-.79-.35v-.35ZM93.61,53.11c.55.37,1.06.82,1.22,1.36.03.09.01.18.02.27-.03-.09-.07-.18-.11-.27-.23-.4-.57-.67-.92-.88-.07-.04-.14-.07-.22-.11v-.37ZM93.6,53.97v-.2c.3.28.54.59.64.93h0c-.13-.25-.35-.5-.64-.73ZM38.13,59.69c.1.04.18.09.28.13-.15.41-.46.69-.78.95-.21.17-.43.32-.66.45.62-.65,1-1.23,1.16-1.54ZM38.42,59.83c.18.08.37.17.54.26-.16.39-.46.66-.76.91-.04.03-.09.06-.12.09.2-.39.37-.83.34-1.26ZM37.19,52.24s.07-.09.1-.13c.18.08.74.35,1.07.68-.19-.8-.62-1.34-.77-1.53,0-.06.01-.11,0-.16-.05-.35-.22-.62-.5-.79-.66-.41-1.71-.15-2-.08-2.19-.27-3.18-.96-3.63-1.51.15.04.31.09.46.12.09.01.17.03.26.04.03,0,.06,0,.09,0-.06-.1-.11-.19-.16-.29-.17-.3-.31-.61-.43-.93.02,0,.04.01.06.02.27.05.54.09.82.08.03,0,.05,0,.08,0,.08,0,.15-.03.23-.04-.06-.07-.11-.14-.16-.21-.21-.3-.39-.61-.55-.94.16.07.32.12.49.17.12.02.25.04.38.06.17.02.35.03.52.02.16-.01.32-.04.48-.09-.13-.05-.26-.1-.36-.16-.66-.36-.82-.86-.99-1.42-.15-.5-.32-1.07-.83-1.61-.55-.58-1.57-1.02-2.7-1.35,2.44-1.24,3.77-2.75,3.84-2.84.59.5,1.19.67,1.73.67.3,0,.58-.06.83-.14.85,5.76,2.69,11.92,6.47,16.76,4.39,5.63,9.92,7.22,9.92,7.22,0,0,5.56-1.66,9.92-7.22,3.79-4.83,5.61-11,6.46-16.76.26.08.54.14.84.14.54,0,1.14-.18,1.73-.67.07.09,1.7,1.84,3.84,2.84-1.12.33-2.15.77-2.7,1.35-.51.54-.68,1.11-.83,1.61-.17.56-.33,1.06-.99,1.42-.11.06-.23.11-.36.16.15.05.31.08.48.09.18.01.35,0,.52-.02.12-.01.25-.03.37-.06.17-.05.33-.11.49-.17-.16.33-.34.64-.55.94-.05.07-.11.14-.16.21.08.01.15.04.23.04.03,0,.05,0,.08,0,.28.01.55-.02.82-.08.02,0,.04-.01.06-.02-.12.32-.26.64-.43.93-.05.1-.1.19-.16.29.03,0,.06,0,.09,0,.09,0,.17-.02.26-.04.15-.03.31-.07.46-.12-.45.55-1.45,1.23-3.64,1.51-.28-.08-1.34-.34-2,.08-.28.18-.45.45-.5.79-.01.05,0,.1,0,.16-.15.19-.64.87-.77,1.53.27-.3.89-.61,1.07-.68.03.04.07.09.1.13-.05.17-.06.35,0,.55-.09.21-.19.54-.25.91-1.46.4-2.57,1.07-2.81,1.2-1.03,2.81-1.69,6.8-1.73,7.05,0,0,0,0,0,.01.09.17.2.33.3.49-.4.22-.81.46-1.24.77-2.44,1.74-4.55,2.82-6.5,3.32-.86.22-1.69.34-2.51.34-.82,0-1.65-.11-2.51-.34-1.95-.5-4.06-1.58-6.5-3.32-.43-.3-.84-.55-1.24-.77.11-.16.21-.32.3-.49,0,0,0,0,0-.01-.04-.24-.68-4.1-1.73-7.05-.24-.13-.93-.6-2.81-1.21-.07-.37-.17-.69-.25-.91.05-.2.04-.38-.01-.55ZM37.45,51.87c.04-.07.06-.15.08-.22.08.11.16.24.24.38-.12-.07-.23-.12-.33-.16ZM36.2,51.83c.19.12.35.26.42.44.08.19.1.38.03.45-.13.2-.58.24-.99.2-.16-.64-.82-1.04-1.38-.89.65.04,1.11.72,1,1.17-.11.42-.8.43-1.38.33.13-.05.28-.08.4-.14.06-.02.11-.04.17-.07,0,0-.81.03-1.48-.14.23-.07.46-.14.67-.25.06-.02.11-.04.16-.06,0,0-.76.03-1.42-.13.24-.07.48-.15.71-.26.06-.02.12-.04.17-.07,0,0-.81.03-1.49-.14.23-.07.46-.14.67-.25.06-.02.11-.04.17-.06,0,0-1.09.04-1.8-.24.15-.04.32-.07.46-.12.06-.01.12-.03.17-.05,0,0-.93-.05-1.6-.33.2-.03.4-.04.6-.1.06,0,.12-.02.18-.03,0,0-.67-.1-1.27-.35.21,0,.43,0,.64-.04.06,0,.12,0,.17-.02,0,0-1.3-.34-1.82-.92.51.23.84.44.84.44-.2-.38-.48-.72-.81-1.02.56.24.92.48.92.48-.19-.37-.46-.69-.77-.98.53.23.86.45.86.45-.23-.43-.58-.81-.97-1.14v-.02c.63.25,1.05.52,1.05.52-.25-.48-.63-.9-1.08-1.25.43.13.84.33,1.2.65-.25-.57-.71-1.04-1.24-1.43.52.13,1.02.34,1.45.72-.25-.58-.72-1.05-1.25-1.45.53.13,1.05.34,1.49.73-.25-.57-.71-1.04-1.24-1.44.52.13,1.02.34,1.45.72-.27-.61-.77-1.11-1.34-1.52.61.12,1.2.34,1.7.79-.25-.57-.71-1.04-1.24-1.43.52.13,1.02.33,1.45.72-.25-.56-.7-1.03-1.22-1.42.76.27,1.43.59,1.8.99.42.45.56.93.71,1.39.12.41.26.78.5,1.09-.22-.06-.44-.12-.66-.2-.09-.03-.19-.06-.28-.1.02.1.04.19.07.28.07.25.17.49.29.72.07.12.15.23.23.34-.25-.04-.5-.09-.74-.16-.09-.02-.17-.05-.26-.08.01.12.03.23.06.35.05.23.12.46.2.68.04.08.08.15.13.23-.17-.06-.34-.14-.51-.21-.22-.09-.45-.19-.67-.3.02.1.05.22.09.35.07.22.19.45.37.7.72.95,2.11,1.56,4.13,1.81h.06s.06-.01.06-.01c.3-.09,1.16-.27,1.6,0,.14.09.22.22.25.4.03.2-.05.39-.18.58-.15-.14-.32-.25-.49-.31-.55-.19-1.11-.15-1.61,0,.52.07,1.04.15,1.44.38ZM35.31,54.32s-.04-.02-.06-.02c-.07-.1-.14-.2-.2-.27.08-.03.15-.07.22-.11.02.12.03.26.04.4ZM21.67,55.43c-.42-.47-1.21-.7-2.41-.7-.6,0-1.37-.12-1.68-.71-.23-.45-.25-1.29.5-2.84.09.37.21.7.36.97.17.32.35.58.53.77-.04-.29-.02-.58.05-.87.13-.54.43-1.08.76-1.57.09.28.19.55.34.83.11.21.25.42.4.62.04-.21.11-.44.21-.68.31-.76.9-1.65,2.01-2.54.36-.29.64-.59.9-.91.1,0,.2.01.31.01.45,0,.95-.05,1.46-.2-.02.02-.03.04-.05.06-.15.14-.33.28-.54.41.23.09.46.15.68.2.58.11,1.13.06,1.56-.31.51-.43.73-.43.77-.41.1.07.16.66-.3,1.68-.26.58-.29,1.09-.09,1.53.28.61.91.8.93.81l3.26,1.09c.06.09.13.17.19.25-1.99.1-3.87.6-5.47,1.54-1.27.75-2.77,1.28-4.39,1.64-.04-.25-.12-.49-.29-.68ZM21.79,57.55c-.06-.09-.12-.18-.18-.25.06-.05.1-.12.15-.18.02.13.03.27.03.43ZM37.03,53.12c.04.11.08.23.11.37-.1-.09-.19-.17-.27-.23.06-.04.11-.09.16-.14ZM65.18,38.98c.03.07.07.14.11.21-.1.05-.22.1-.35.18.08-.15.16-.28.24-.39ZM64.72,37.51c.12-.06.22-.09.32-.13,0,.06.02.13.03.19-.1-.02-.22-.04-.36-.06ZM64.96,36.19c.14-.07.27-.12.39-.16-.02.07-.04.14-.05.22-.1-.02-.21-.04-.34-.06ZM65.13,35.82c-.21.08-.61.24-1.08.65.16-.02.55-.05,1.02.02-.02.2-.04.4-.06.61-.24.08-.73.27-1.2.69.51-.06.95.01,1.13.04-.05.44-.12.89-.18,1.34-.08.15-.28.48-.37.98.08-.09.18-.15.27-.23-.8,5.1-2.45,10.39-5.65,14.5-1.89,2.44-4.27,4.3-7.06,5.55-2.8-1.24-5.17-3.11-7.07-5.55-3.19-4.1-4.84-9.4-5.65-14.5.09.07.19.14.27.23-.07-.43-.29-.83-.37-.98-.07-.45-.13-.9-.18-1.34.18-.03.66-.12,1.13-.04-.43-.39-.97-.61-1.2-.69-.02-.2-.04-.4-.06-.61.52-.08.86-.05,1.02-.02-.45-.4-.87-.56-1.08-.64-.4-4.9-.14-9.22.08-11.54,4.74-.47,7.53-3.72,8.63-6.81h8.97c1.1,3.09,3.89,6.35,8.63,6.81.22,2.31.47,6.64.08,11.54ZM38.79,37.57c.01-.06.03-.12.03-.19.1.04.2.07.32.13-.14.02-.26.04-.36.06ZM38.92,39.37c-.13-.08-.25-.13-.35-.18.04-.07.08-.14.11-.21.07.11.16.24.23.39ZM38.9,36.19c-.13.02-.24.04-.34.06-.01-.08-.03-.15-.06-.22.12.04.25.1.4.16ZM43.55,55.43c3.47,4.55,8.38,6.35,8.38,6.35,0,0,4.92-1.81,8.38-6.35,3.41-4.48,5.2-10.15,6.03-15.57.59,0,.86-.25.91-.28-.82,5.63-2.61,11.64-6.28,16.37-1.73,2.22-4.92,5.25-9.05,6.72-4.44-1.72-7.32-4.5-9.05-6.72-3.67-4.72-5.46-10.73-6.28-16.37.05.04.32.29.92.28.83,5.43,2.61,11.09,6.02,15.57ZM75.04,45.04c-.52.39-.98.86-1.23,1.44.43-.4.95-.6,1.49-.73-.53.4-1,.87-1.25,1.45.43-.39.93-.59,1.45-.72-.52.39-.99.86-1.24,1.43.36-.32.77-.52,1.2-.65-.44.35-.83.77-1.08,1.25,0,0,.42-.27,1.06-.52v.02c-.39.33-.74.7-.97,1.14,0,0,.34-.22.86-.45-.31.29-.58.62-.77.98,0,0,.36-.24.92-.48-.32.3-.61.64-.81,1.02,0,0,.33-.21.84-.44-.52.58-1.82.92-1.82.92.05.01.11.01.18.02.21.04.42.03.64.04-.6.24-1.26.35-1.26.35.05.01.11.03.17.03.19.06.4.07.6.1-.67.28-1.6.33-1.6.33.05.02.11.04.17.05.15.06.31.08.46.12-.7.29-1.79.24-1.79.24.05.02.1.04.17.06.21.11.44.18.67.25-.67.17-1.48.14-1.48.14.05.02.1.05.17.07.22.11.46.19.71.26-.66.15-1.42.13-1.42.13.05.02.1.04.16.06.21.11.44.18.67.25-.67.17-1.48.14-1.48.14.05.02.11.04.17.07.13.06.27.1.4.14-.57.1-1.26.09-1.38-.33-.11-.45.35-1.13,1-1.17-.56-.15-1.22.25-1.38.89-.41.04-.86,0-.99-.2-.08-.07-.06-.27.02-.45.07-.18.23-.32.42-.44.4-.22.92-.31,1.44-.38-.51-.16-1.06-.2-1.61,0-.17.06-.34.17-.49.31-.13-.18-.21-.37-.18-.58.03-.19.11-.31.25-.4.43-.27,1.3-.09,1.6,0l.06.02h.06c2.02-.25,3.42-.86,4.14-1.81.18-.24.3-.48.37-.7.04-.12.08-.24.09-.35-.22.11-.45.21-.67.3-.17.07-.34.15-.51.21.04-.08.09-.15.12-.23.09-.22.15-.45.2-.68.03-.12.04-.23.06-.35-.08.03-.17.05-.25.08-.24.07-.49.12-.74.16.08-.11.16-.22.23-.34.12-.23.21-.47.29-.72.03-.09.05-.19.07-.28-.09.03-.19.07-.28.1-.22.08-.44.14-.66.2.23-.32.37-.69.5-1.09.14-.46.28-.95.71-1.39.37-.4,1.04-.72,1.8-.99-.51.39-.97.85-1.21,1.42.43-.39.93-.59,1.45-.72-.53.39-.99.86-1.24,1.43.49-.45,1.09-.67,1.7-.79-.57.41-1.08.91-1.34,1.52.43-.39.93-.59,1.45-.72ZM76.34,49.24c-.45-1.01-.39-1.6-.3-1.68.03-.03.26-.03.77.41.43.37.98.42,1.56.31.22-.04.45-.11.68-.2-.21-.13-.39-.27-.54-.41-.02-.02-.03-.04-.05-.06.51.15,1.01.2,1.46.2.11,0,.21,0,.31-.01.25.32.54.63.9.91,1.12.89,1.71,1.78,2.01,2.54.1.24.17.47.21.68.15-.21.29-.42.4-.62.14-.28.25-.56.34-.83.33.48.62,1.02.76,1.57.07.29.1.59.06.87.17-.19.36-.45.53-.77.14-.27.26-.59.36-.97.75,1.55.73,2.4.49,2.84-.31.59-1.08.71-1.68.71-1.21,0-1.99.23-2.41.7-.17.19-.25.43-.29.68-1.61-.36-3.12-.9-4.39-1.64-1.6-.94-3.48-1.44-5.47-1.55.06-.08.13-.16.19-.25l3.27-1.09s.65-.2.93-.81c.2-.43.17-.95-.09-1.53ZM82.26,57.3c-.06.08-.12.16-.18.25,0-.16.02-.3.04-.43.05.06.09.13.14.18ZM68.82,54.03c-.06.07-.13.17-.2.27-.02,0-.04.01-.06.02,0-.14.02-.28.04-.4.08.05.15.09.22.11ZM67,53.26c-.08.07-.17.14-.27.23.04-.14.08-.26.11-.37.05.05.1.1.15.14ZM66.41,51.87c-.1.04-.2.09-.33.16.08-.15.17-.27.24-.38.03.08.04.15.08.22ZM65.78,61.09s-.08-.06-.12-.09c-.31-.25-.61-.53-.76-.91.18-.09.36-.18.54-.26-.03.43.15.87.34,1.26ZM65.19,61.28c-.06-.04-.12-.08-.17-.12-.27-.22-.52-.46-.69-.77.18-.1.35-.2.54-.29-.01.41.14.81.32,1.18ZM64.57,61.47s-.09-.06-.12-.09c-.25-.2-.49-.42-.66-.69.14-.08.29-.17.44-.25.03.35.18.71.34,1.03ZM63.99,61.68h0c-.24-.21-.45-.45-.58-.75.09-.06.18-.11.27-.16.04.31.18.63.32.92ZM63.54,61.79c-.2-.18-.36-.4-.48-.66.1-.06.19-.12.3-.19,0,.28.07.57.18.84ZM63.17,61.89c-.17-.15-.31-.34-.42-.55.09-.06.19-.12.28-.18,0,.24.05.49.14.73ZM62.82,62.07c-.16-.14-.29-.31-.41-.49.04-.03.08-.05.12-.08.04-.03.09-.06.13-.09.02.22.07.44.16.66ZM41.34,61.5s.08.06.12.08c-.11.18-.25.34-.41.49.09-.21.14-.44.16-.66.04.03.09.06.13.09ZM40.7,61.89c.09-.24.14-.49.14-.73.1.06.19.12.28.18-.11.21-.25.39-.42.55ZM40.32,61.79c.11-.27.18-.56.18-.84.1.06.2.12.3.19-.11.26-.28.47-.48.66ZM39.88,61.68h0c.14-.29.28-.61.32-.92.09.05.18.11.27.16-.13.3-.34.55-.59.75ZM39.42,61.38s-.08.06-.12.09c.16-.32.3-.68.33-1.03.15.08.3.17.44.25-.17.28-.41.49-.66.69ZM38.84,61.16c-.06.04-.11.08-.17.12.18-.37.34-.77.33-1.18.19.09.36.19.54.29-.17.31-.42.55-.69.77ZM67.89,62.29c-.2-.05-.4-.11-.61-.14-.66-.1-1.32-.08-1.95.02-1.27.21-2.42.76-3.44,1.46,1.11-.53,2.3-.89,3.49-.91.59,0,1.17.07,1.71.24-.63-.08-1.27-.07-1.88.03-1.27.21-2.42.77-3.44,1.46,1.11-.54,2.3-.9,3.49-.91.56,0,1.11.07,1.63.22-.54-.05-1.09-.04-1.63.04-1.27.21-2.42.76-3.44,1.46,1.11-.53,2.31-.89,3.49-.91.59,0,1.17.07,1.71.24-.63-.09-1.27-.07-1.88.02-1.27.21-2.43.77-3.44,1.46,1.11-.53,2.31-.89,3.49-.91.54,0,1.08.07,1.58.21-.49-.03-.98-.02-1.46.05-1.27.21-2.42.77-3.44,1.46,1.11-.54,2.3-.89,3.49-.91.59,0,1.17.07,1.71.24-.63-.09-1.27-.07-1.88.02-.96.16-1.85.51-2.66.97-.52.26-1.05.55-1.62.96-2.44,1.74-4.55,2.82-6.5,3.32-.86.22-1.69.34-2.51.34-.82,0-1.65-.11-2.51-.34-1.95-.5-4.06-1.58-6.5-3.32-.57-.4-1.1-.7-1.62-.96-.81-.46-1.7-.82-2.66-.97-.61-.1-1.25-.11-1.88-.02.54-.17,1.12-.24,1.71-.24,1.18.01,2.38.37,3.49.91-1.02-.69-2.17-1.25-3.44-1.46-.48-.08-.96-.08-1.46-.05.51-.14,1.04-.21,1.58-.21,1.18.01,2.38.37,3.49.91-1.02-.69-2.17-1.25-3.44-1.46-.61-.1-1.24-.11-1.87-.02.54-.17,1.12-.25,1.71-.24,1.19.01,2.38.37,3.49.91-1.02-.69-2.17-1.25-3.44-1.46-.53-.09-1.08-.1-1.62-.04.52-.15,1.07-.23,1.63-.22,1.19.01,2.38.37,3.49.91-1.01-.69-2.17-1.25-3.44-1.46-.61-.1-1.25-.11-1.88-.03.54-.17,1.12-.24,1.71-.24,1.18.01,2.38.37,3.49.91-1.02-.69-2.17-1.25-3.44-1.46-.63-.1-1.29-.12-1.95-.02-.2.04-.4.09-.6.14.98-.39,2.66-.69,4.89.36.16.08.33.17.5.26.4.21.81.45,1.23.76,5.71,4.23,9.31,3.76,9.33,3.76.02,0,3.97.38,9.33-3.76.42-.32.84-.54,1.23-.76.17-.09.34-.18.5-.26,2.23-1.05,3.91-.75,4.9-.36ZM66.9,61.23c-.23-.14-.45-.29-.66-.45-.32-.26-.63-.54-.78-.95.09-.04.18-.09.28-.13.17.31.54.88,1.17,1.54ZM92.84,56.72c-.21.06-.41.12-.62.17-1.46.35-2.94.63-4.44.84,1.52-.02,3.03-.12,4.54-.3.39-.05.78-.11,1.17-.17-.44.12-.87.25-1.31.35-1.46.35-2.95.64-4.44.84,1.51-.03,3.03-.12,4.54-.3.41-.05.82-.11,1.23-.17-.46.13-.92.26-1.39.38-1.46.35-2.94.64-4.44.85,1.51-.02,3.03-.13,4.54-.3.39-.04.78-.11,1.17-.16-.44.12-.87.24-1.31.35-1.46.36-2.95.64-4.44.85,1.51-.03,3.03-.12,4.54-.3.44-.05.87-.12,1.3-.18-.35.09-.7.2-1.05.28-1.46.35-2.95.64-4.44.85,1.51-.02,3.03-.12,4.54-.3.24-.03.47-.07.71-.1-.29.07-.57.16-.85.23-1.46.35-2.95.63-4.44.85,1.47-.03,2.95-.13,4.43-.3-.91.24-2.71.66-4.39.72,0,0,1.13.05,2.62-.06-4.6.74-10.01-.11-15.09-2.6-.41-.2-.82-.36-1.23-.51,1.08.31,2.15.73,3.16,1.26-.76-.66-1.67-1.16-2.6-1.55-.94-.4-1.95-.64-2.97-.75-1.02-.09-2.06-.05-3.06.18-1,.23-1.96.62-2.8,1.16.95-.33,1.91-.6,2.88-.74.34-.04.67-.06,1.01-.08-2.85.26-5.4,1.53-7.2,2.71.33-1.69.8-3.71,1.39-5.44,2.03-1.05,3.64-1.39,4.28-1.52,0,.02,0,.04,0,.06-.74.22-1.46.51-2.1.92.68-.24,1.36-.42,2.05-.56,0,.06,0,.14,0,.21-.77.23-1.52.54-2.19.96.72-.25,1.46-.45,2.19-.6,0,.02,0,.04,0,.06,0,.09.03.17.04.26-.79.23-1.55.54-2.23.97.95-.33,1.91-.6,2.89-.74.97-.13,1.95-.15,2.93-.05,1.95.2,3.85.82,5.63,1.75-.76-.66-1.67-1.16-2.61-1.55-.94-.4-1.95-.64-2.97-.75-1.02-.1-2.06-.05-3.06.18-.14.03-.27.09-.4.13.02-.05.04-.1.07-.14.04-.08.09-.13.13-.2.09-.01.19-.04.28-.06.97-.12,1.95-.15,2.93-.05,1.95.2,3.85.82,5.63,1.75-.76-.66-1.67-1.16-2.61-1.55-.94-.4-1.95-.64-2.97-.75-.5-.04-1.01-.06-1.51-.03.09-.02.17-.06.26-.09.44,0,.89,0,1.33.05,1.95.2,3.85.82,5.63,1.75-.76-.66-1.67-1.16-2.6-1.56-.72-.3-1.48-.49-2.26-.62,1.6.18,3.11.64,4.42,1.41,1.34.79,2.96,1.34,4.67,1.71,0,0,0,.01,0,.01-.22,1.08-.05,1.66,0,1.82.23-.59.47-.89.59-1.04.07.04.15.08.23.11.07.47.33.65.34.65.09.24.32.83.86,1.36-.1-.5-.05-1.04-.02-1.24.04,0,.09-.01.12-.02.19-.06.34-.16.5-.25.06.07.12.13.19.17.05.03.09.06.14.08.27.73.73,1.22.85,1.34-.1-.46-.05-1.02-.03-1.21.44-.06.83-.29,1.1-.57.12-.13.22-.27.32-.4.4-.02.87-.09,1.32-.24,1.55-.05,3.06-.21,4.43-.5ZM83.42,58.35c.06,0,.13.02.19.02-.01.09-.02.2-.03.31-.06-.12-.12-.23-.16-.33ZM85.19,58.41c.07.01.13.03.2.03-.01.09-.02.19-.03.3-.07-.12-.12-.23-.17-.33ZM81.82,37.68c.51.39,1.06.7,1.62.93,2.87,1.16,2.86,2.93,2.86,2.97.02.18.05.33.08.5.2.06.39.1.58.15.81.19,1.53.3,2.14.3,1,0,1.72-.27,2.17-.81,1.55-1.88-.98-6.38-2.2-8.54-1.06-1.89-1.88-4.86-1.24-7.03.28-.95.8-1.64,1.56-2.04.98-.52,2.02-.47,2.95-.19.21.06.41.14.6.22.92-.61,1.79-.41,2.58.13.92.63.75,2.03.39,3.21,0,0,.13-2.37-1.31-2.92,0,0,.97,1.18-.02,3.58-.39.94-.21,1.75.17,2.41-.17-.08-2.46-1.6-.9-4.84,0,0-1.53,1.28-1.4,3.55-1.75-3.34.42-4.01.64-4.09-.18-.1-.4-.21-.66-.3-.51-.19-1.14-.32-1.76-.17-.73.18-1.3.7-1.71,1.56-1.39,2.93,2.62,9.74,2.79,10.03.02.03,2.09,3.94.6,5.95-.81,1.09-2.55,1.45-5.17,1.06-.07-.01-.25,0-.47-.04l.48,1.68-1.65-.67c.18.7,1.65,2.27,1.65,2.27-.83-.24-1.49-.58-2-.94.14.87,1.02,1.7,1.87,2.31.85.61,1.67,1.01,1.67,1.01-.61.06-1.47-.09-1.47-.09.04.04.11.08.19.12.48.36,1.04.63,1.64.77.18.04.36.06.55.08h0c-1.44.39-2.54-.06-2.54-.06.5.44,1.15.73,1.83.89.23.06.48.08.72.1,0,.01,0,.02,0,.03-1.22.22-2.31-.03-2.31-.03.5.44,1.15.73,1.83.89.14.03.28.04.43.06,0,.01,0,.02,0,.03-1.29.31-2.42-.08-2.42-.08.5.44,1.15.73,1.83.89.17.04.35.06.52.08,0,.01,0,.03,0,.04-.95.34-2.15-.02-2.15-.02.5.44,1.15.73,1.83.89.08.02.17.02.26.04,0,0,0,0,0,0h0c-.94.26-2.25-.03-2.25-.03.5.44,1.15.73,1.83.89.13.03.26.04.39.05h0s-.02.01-.02.01c-.56.3-1.97.04-1.97.04.5.44,1.15.73,1.83.89.04,0,.08.01.12.02,0,0,0,.02,0,.02-.72.31-2.11-.02-2.11-.02.04.03.09.06.15.1.41.32.91.55,1.42.7-.75.14-1.8-.11-1.8-.11.04.03.09.07.15.1.25.2.53.36.83.5-.2,0-.4.01-.6.01-.55-.03-1.05-.15-1.05-.15.04.03.09.07.15.1.18.14.39.26.6.37,0,0-.01,0-.02.02-.59-.02-1.14-.15-1.14-.15.04.03.09.07.15.1.18.14.39.26.6.37,0,0,0,0,0,0-.57-.02-1.09-.15-1.09-.15.04.03.09.07.15.1.16.13.35.23.54.33-.58-.02-1.13-.15-1.13-.15.04.03.1.06.15.1.15.11.31.2.47.29-.79.25-1.05-.11-1.03-.35.03-.32.32-.71.56-1.05-.4.2-.79.45-.98.97-.03.07-.04.15-.03.23-.37.16-.79.24-.96.1-.1-.05-.14-.24-.12-.44.01-.19.12-.37.27-.55.31-.34.77-.58,1.24-.81-.53,0-1.07.14-1.53.49-.17.13-.33.33-.42.55-.19-.1-.35-.26-.38-.52-.03-.29.03-.51.18-.69.3-.33.99-.51,2-.51,1.07,0,1.82-.35,2.17-1.01.46-.87.18-2.21-.85-4.05-.17-.31-.37-.64-.59-.98.04.39.04.74.02,1.06-.02-.02-.05-.04-.07-.06-.4-.36-.76-.76-1.08-1.2-.64-.87-1.09-1.92-1.07-3.06-.19,1.04.04,2.14.5,3.13-.06-.08-.12-.15-.17-.24-.59-.9-.98-1.98-.9-3.11-.22.91-.11,1.88.19,2.79-.51-.88-.83-1.89-.72-2.95-.24.87-.16,1.82.1,2.72,0-.01-.01-.02-.02-.04-.5-.95-.79-2.06-.61-3.18-.31.91-.28,1.92-.04,2.89-.05-.1-.11-.2-.15-.3-.44-.98-.65-2.11-.39-3.21-.34.81-.41,1.72-.29,2.61,0-.01,0-.02-.01-.03-.37-1.01-.51-2.15-.17-3.23-.38.75-.52,1.62-.47,2.49-.38-.88-.49-1.77-.48-2.52,0-.2.02-.39.03-.57-.01,0-.03,0-.04,0l-.83-.92,1.2.65-.9-.99,1.26.69-.81-.9,1.22.66-.9-.99,1.27.69-1.11-1.23s-.95,1.11-2.27,1.85l-1.34-.98,1.26.69-.81-.9,1.22.66-.9-.99,1.26.69-.83-.92,1.2.66-.9-.99,1.26.69-.81-.9,1.22.66-.89-.99,1.26.69-1.11-1.23s-1.29,1.51-2.96,2.19l-1.66-1.25,1.64,1-1.06-1.4,1.59.97-1.04-1.38,1.76,1.08-1.11-1.46,1.67,1.02-1.04-1.37,1.64,1-1.06-1.4,1.59.97-1.13-1.5,1.61.98-1.11-1.46,1.67,1.02-.33-.44,1.53.91-1-1.19,1.41.84-.95-1.13,1.34.8-1-1.19,1.41.84-.29-.34ZM74.67,35.94c-.29-.42-.54-.88-.69-1.38,0-.03-.01-.05-.02-.08.03-.16.07-.32.14-.46.19-.45.56-.79,1-1.03.18-.09.36-.17.55-.25-.08.08-.16.15-.23.23-.57.7-.67,1.73-.41,2.56.1.35.25.66.39.94-.22-.21-.46-.4-.72-.55ZM75.1,36.89s-.04-.05-.07-.07c.02.02.04.04.07.06,0,0,0,0,0,.01ZM79.51,26.96c.23-.08.45-.18.66-.31.37-.23.69-.58.89-.99.33-.7.26-1.5-.08-2.13.23.05.48.06.73.05,1.26,2.8-.95,4.26-.95,4.26.01.09.01.19.02.28.05.64-.06,1.27-.42,1.76-.58.79-1.55,1.21-2.52,1.54-.97.36-2.02.6-2.96,1.21-.46.31-.88.75-1.04,1.3,0,.01,0,.03,0,.04v-.02c.17-.73.44-1.44,1.02-1.82.7-.46,1.65-.57,2.52-1.01.86-.43,1.63-1.15,1.99-2.07.27-.67.31-1.41.14-2.09ZM80.48,36.3c0,.3-.16.61-.38.88-.13.17-.3.3-.48.44.03-.05.07-.1.1-.15.27-.49.45-1.05.37-1.65-.05-.32-.21-.53-.29-.79-.09-.24-.13-.5-.17-.77,0-.12,0-.25,0-.38.58-.35.97-.94,1.13-1.56.06-.23.09-.46.1-.69.26-.06.51-.14.76-.23.02.53-.09,1.03-.39,1.46-.38.66-.71,1.43-.78,2.25-.04.39.01.85.02,1.17ZM79.24,36.18c-.25-.29-.42-.42-.53-.67-.14-.31-.2-.66-.22-1.02.28-.18.61-.32.96-.49,0,.09-.02.19-.02.28,0,.28.06.56.14.83.08.27.24.52.26.75.09.49-.07,1.02-.29,1.5.01-.08.03-.17.03-.26,0-.33-.12-.67-.33-.94ZM77.16,37.41c-.02.27-.12.52-.29.74-.22.27-.53.47-.86.63.34-.39.55-.9.61-1.4.08-.56,0-1.04.01-1.53,0-.49,0-.98.11-1.41.09-.45.39-.67.85-.92.44-.24.88-.56,1.2-.99.23-.34.41-.72.45-1.12.47-.26.91-.58,1.25-1.02.07.63.05,1.25-.14,1.83-.19.55-.55,1.04-1.04,1.28-.53.25-1.2.46-1.7,1.01-.51.62-.45,1.37-.46,1.98,0,.31.02.66.01.93ZM76.11,36.95c-.14-.58-.43-1.1-.57-1.56-.23-.73-.17-1.51.23-2.16.18-.3.44-.57.73-.79.5-.16,1.01-.31,1.52-.49.36-.13.74-.29,1.1-.48-.29.8-.96,1.36-1.72,1.67-.22.1-.48.2-.7.41-.23.2-.37.48-.45.74-.15.54-.16,1.05-.16,1.56,0,.38.03.75.03,1.1ZM80.7,30.13s.01-.01.02-.02c.07-.11.12-.23.17-.35.9-.78,1.05-1.64,1.06-2,.14-.07.28-.16.41-.25.09.6.05,1.94-1.57,3.03-.02-.13-.04-.27-.08-.4ZM81.01,28.08c.22-.04.43-.11.64-.19-.03.3-.16.8-.6,1.32.06-.38.05-.76-.03-1.13ZM82.94,32.1c-.08.6-.37,1.13-.63,1.75-.12.3-.24.61-.34.94-.06.33-.21.68.02,1.12.13.23.4.3.58.29.19,0,.36-.04.52-.1.11-.04.2-.11.3-.15-.27.32-.61.56-.99.56-.5.02-1.01-.25-1.4-.56-.01-.27-.02-.51.01-.78.05-.72.32-1.41.61-2.11.15-.34.29-.79.26-1.19-.01-.18-.07-.35-.12-.51.03-.01.06-.02.09-.03.34-.14.69-.33,1.01-.58.09.46.14.91.07,1.35ZM83.35,27.94c.07.64,0,1.26-.28,1.8-.28.5-.84.88-1.39,1.22-.26.15-.53.28-.81.41,0-.18-.02-.35-.04-.52,1.96-1.26,1.87-2.93,1.76-3.52.16-.14.31-.28.45-.44.02.04.06.09.07.14.12.29.2.61.23.93ZM82.9,23.09c.11.25.21.5.27.75.15.69.13,1.42-.15,2.03-.22.51-.59.95-1.04,1.31.95-1.41.54-3.07.31-3.73.12-.04.23-.09.34-.15.09-.05.18-.14.26-.21ZM73.1,24.36l-.14-.29c.09.01.17.03.26.03l-.12.26ZM74.45,24.36l-.14-.3c.1,0,.2-.02.3-.03l-.15.32ZM73.72,25.48l.15.32c-.1,0-.2,0-.3-.01l.15-.31ZM72.37,25.2l.14.29c-.08-.03-.15-.06-.23-.1l.1-.2ZM71.99,25.87c1.24.59,2.08.49,2.15.49.76-.06,1.29-.43,1.52-1.05.27-.77.29-1.24.06-1.54-.29-.38-.83-.32-1.45-.26-.91.09-1.94.19-2.44-.94-.29-.67-.57-1.62.32-1.57l1.29.2-.99-.99c.38-.24,1.11-.24,2.16.03l.21.06.1-.2s.47-.87,1.58-1.09c1.14-.22,2.59.32,4.22,1.55-.01.01-.02.03-.03.04-.16.31-.28.62-.32.95.37-.51.89-1.03,1.29-1,.35.02.83.53.97.95.17.44.03.91-.36,1.27-.34.3-.83.5-1.37.62-.03,0-.07.01-.11.02,0,.02,0,.05,0,.08.08.71.04,1.37-.24,1.94-.24.51-.65.92-1.13,1.32-.03.02-.07.05-.1.08,0,.06.01.13.02.19.03.65-.09,1.31-.37,1.87-.4.76-1.07,1.37-1.85,1.75-.76.42-1.72.53-2.53,1.17-.26.22-.44.48-.58.76.09-.36.19-.72.32-1.05.17-.37.36-.69.67-.91.3-.22.71-.4,1.08-.65.73-.51,1.38-1.18,1.72-2.03.24-.58.29-1.22.16-1.81.52-.33.98-.79,1.23-1.4.17-.43.22-.94.08-1.38-.12-.45-.37-.85-.72-1.11.35.8.42,1.59.12,2.3-.13.36-.36.68-.6,1.01-.07.09-.15.18-.22.26-.03.03-.06.07-.09.1.01.12.01.23.01.35,0,.54-.12,1.06-.36,1.52-.38.7-.97,1.29-1.64,1.74-.33.23-.71.4-1.09.7-.38.3-.63.75-.75,1.18-.15.52-.21,1.03-.24,1.55-.06-.79.02-1.57.29-2.3.11-.31.3-.56.5-.88.18-.31.35-.62.48-.96.19-.53.31-1.09.27-1.65,0-.02,0-.04-.01-.07-.02,0-2.65.19-3.23-1.18ZM71.72,33.92c-.21-.29-.39-.59-.51-.92-.24-.66-.28-1.39-.12-2.08.14-.67.46-1.33.93-1.81.01-.01.02-.02.03-.03.09-.09.17-.19.26-.28.38-.42.67-.92.75-1.47.34.08.67.13,1,.09.03,0,.06-.01.09-.02-.21.46-.44.91-.75,1.31-.21.3-.48.53-.73.86-.24.31-.44.64-.62.99-.35.7-.57,1.48-.54,2.3,0,.36.09.71.21,1.05ZM71.15,33.65c-.01.07-.02.14-.02.21-.04.45-.05.89-.04,1.34-.06-.44-.1-.88-.11-1.33,0-.15.01-.3.02-.45.05.08.1.16.16.23ZM72.43,30.74c.14-.34.31-.66.52-.97.19-.29.48-.57.68-.91.28-.47.47-.97.63-1.48.31-.05.61-.13.91-.24-.04.53-.21,1.05-.45,1.52-.15.31-.33.6-.53.88-.19.26-.45.55-.6.9-.59,1.37-.54,2.9-.13,4.29.08.24.18.46.29.69-.34-.21-.65-.42-.92-.72-.49-.5-.78-1.16-.82-1.87-.05-.7.15-1.42.42-2.09ZM70.28,27.14c.94,1.36,2.27.3,2.5.11.07.02.13.04.2.06-.23.52-.6.95-1.03,1.3-.5.02-1.48-.08-1.67-1.47ZM70.92,28.75c.34.25.49.24.57.26-.87.95-.96,1.92-.97,1.99-.13.1-.56.43-.92,1.11-.26-2.1,1.01-3.14,1.32-3.36ZM70.68,35.51c-.08-.54-.15-1.09-.16-1.65-.01-.44.01-.9.07-1.34.05.2.12.38.21.56-.04.25-.08.51-.1.76-.04.55-.04,1.11-.02,1.66ZM70.23,35.71c-.1-.59-.17-1.19-.19-1.79-.01-.67.03-1.35.22-2,.07-.07.14-.15.22-.21,0,.17.03.35.06.52-.17.53-.25,1.08-.3,1.63-.05.62-.04,1.24,0,1.86ZM69.75,35.68c-.29-1.6.06-3.1.09-3.24.09-.12.17-.25.27-.37.02-.02.04-.04.06-.06-.23.6-.34,1.25-.4,1.9-.04.59-.04,1.18-.01,1.77ZM68.96,31.49c.16-.56.36-1.11.61-1.64-.38,1.03-.22,1.7-.17,2.04-.46,1.71-.35,2.6-.33,2.97-.08-.17-.14-.35-.21-.53.06-.98.08-1.94.09-2.85ZM68.79,35.67c.08.2.18.4.28.59-.11,0-.21-.02-.32-.03.02-.19.03-.38.04-.56ZM69.16,36.82c.35,0,.72-.06,1.09-.2,1.1-.42,1.81-.96,2.29-1.44.54.53,1.26.86,1.85,1.17.2.11.4.25.58.4.25.43.21.91.02,1.29-.02.04-.05.07-.07.11.03-.53-.18-1.08-.56-1.36.26.44.22.92.02,1.3-.02.03-.05.07-.06.1.04-.54-.17-1.11-.57-1.4.26.44.22.92.03,1.3-.02.04-.05.07-.07.11.03-.53-.18-1.08-.56-1.36.26.43.22.92.03,1.3-.01.02-.03.04-.04.07.03-.53-.18-1.09-.56-1.37.26.43.22.92.03,1.3-.02.04-.05.07-.07.11.03-.53-.18-1.08-.56-1.36.25.44.22.92.03,1.3-.02.03-.05.07-.07.1.04-.54-.17-1.11-.57-1.4.26.44.22.92.02,1.3-.02.04-.05.07-.07.11.03-.53-.18-1.08-.56-1.36.26.44.22.92.03,1.31,0,0,0,0,0,0-.04-.45-.24-.87-.56-1.11.26.44.22.92.03,1.3-.02.04-.05.07-.07.11.03-.53-.18-1.08-.56-1.36.26.44.21.92.02,1.3-.02.03-.04.07-.07.1.04-.54-.17-1.11-.56-1.4.02.03.02.06.04.09.12.31.42,1.39-1.12,1.8.13-.14.27-.28.38-.44-.45.25-.88.51-1.33.65-.45.13-.85.09-1.08-.22-.13-.15-.22-.35-.29-.57-.08-.26-.1-.36-.03-.42.12-.09.39-.1.62-.08.25,0,.49.05.75.09-.44-.25-.88-.56-1.56-.39.02-.13.05-.26.09-.38.09-.22.16-.3.31-.33.16-.05.4-.01.64.01.25.03.5.09.78.12-.17-.23-.4-.39-.65-.52-.2-.1-.43-.15-.69-.15.02-.29.09-.38.13-.4.14-.1.63.09,1.05.25.59.23,1.34.52,2.15.52ZM36.52,22.29l.08-.5.5.02c7.06.33,8.27-6.13,8.32-6.39l.08-.46h12.89l.08.46c.04.26,1.32,6.77,8.31,6.39l.5-.02.07.5c.07.46.91,6.39.32,13.66-.16-.06-.31-.11-.45-.17-.14-.06-.27-.1-.4-.15.41-5.37.06-10.02-.18-12.23l-.08-.72-.72-.03c-4.62-.17-7.17-3.34-8.01-6.26l-.18-.6h-11.43l-.18.6c-.84,2.92-3.39,6.09-8.01,6.26l-.72.03-.08.72c-.24,2.22-.59,6.86-.18,12.23-.13.05-.26.09-.4.15-.14.06-.3.11-.45.17-.59-7.28.25-13.2.32-13.66ZM36.85,36.3c.42-.17.9-.35,1.05-.25.03.02.1.12.13.4-.26,0-.49.05-.69.15-.25.13-.48.29-.65.52.28-.03.53-.08.78-.12.24-.03.48-.06.64-.01.15.03.22.11.31.33.04.11.07.24.09.38-.67-.16-1.11.14-1.56.39.25-.03.5-.08.75-.09.23-.02.5-.01.62.08.07.06.05.16-.03.42-.07.21-.16.42-.29.57-.24.31-.64.35-1.09.22-.44-.14-.87-.4-1.33-.65.11.16.25.3.39.44-1.54-.42-1.24-1.49-1.12-1.8.02-.03.02-.06.04-.09-.4.29-.61.86-.57,1.4-.02-.03-.04-.06-.06-.1-.2-.38-.24-.87.02-1.3-.38.28-.6.83-.56,1.36-.02-.04-.05-.07-.07-.11-.19-.38-.23-.87.03-1.3-.32.24-.52.66-.56,1.11h0c-.19-.39-.23-.88.03-1.32-.39.29-.6.83-.56,1.36-.02-.04-.05-.07-.07-.11-.19-.38-.23-.86.03-1.3-.4.29-.61.86-.57,1.4-.02-.03-.05-.06-.07-.1-.19-.38-.23-.87.03-1.3-.39.29-.59.83-.56,1.36-.02-.04-.05-.07-.07-.11-.19-.38-.23-.87.03-1.3-.39.28-.6.84-.57,1.37-.01-.02-.03-.04-.04-.07-.19-.38-.23-.87.02-1.3-.38.28-.59.83-.56,1.36-.02-.04-.05-.07-.07-.11-.19-.38-.23-.87.03-1.3-.4.29-.61.86-.57,1.4-.02-.03-.05-.06-.07-.1-.19-.38-.23-.86.02-1.3-.38.28-.59.83-.56,1.36-.02-.04-.05-.07-.07-.11-.19-.38-.23-.86.02-1.29.18-.15.38-.29.58-.4.59-.3,1.31-.64,1.85-1.17.48.49,1.19,1.03,2.29,1.44.37.14.74.2,1.09.2.81,0,1.55-.29,2.15-.52ZM28.45,32.98c-.07-.09-.15-.16-.23-.23.19.08.37.15.55.25.44.23.81.57,1,1.03.07.14.11.3.14.46,0,.03-.01.05-.02.08-.15.5-.4.95-.7,1.38-.26.15-.5.34-.72.55.13-.29.29-.6.39-.94.26-.84.16-1.86-.41-2.56ZM26.26,34.5c-.5-.55-1.17-.76-1.7-1.01-.5-.24-.85-.73-1.05-1.28-.18-.58-.21-1.2-.14-1.83.34.44.78.76,1.26,1.02.04.4.21.79.45,1.12.31.42.76.74,1.2.99.46.25.76.47.85.92.11.43.12.93.11,1.41.01.49-.07.97.01,1.53.07.5.27,1.01.61,1.4-.34-.16-.65-.36-.86-.63-.17-.22-.27-.47-.29-.74-.01-.27,0-.62.01-.93-.01-.61.04-1.36-.46-1.98ZM24.33,37.37c-.22-.48-.38-1.01-.29-1.5.02-.23.18-.48.26-.75.08-.27.14-.55.14-.83,0-.09-.02-.19-.02-.28.34.16.67.31.96.49-.02.36-.08.71-.22,1.02-.11.25-.28.38-.52.67-.21.27-.33.61-.33.94,0,.09.01.18.03.26ZM23.41,35.13c-.07-.82-.4-1.59-.78-2.25-.29-.44-.4-.94-.38-1.46.25.09.5.17.76.23.01.23.04.46.1.69.15.62.55,1.21,1.13,1.56,0,.13,0,.25,0,.38-.03.27-.08.53-.17.77-.08.25-.24.46-.29.79-.08.59.1,1.16.37,1.65.03.05.07.1.1.15-.18-.13-.34-.27-.48-.44-.22-.27-.38-.58-.38-.88.01-.31.06-.78.02-1.17ZM22.81,25.66c.2.41.52.76.89.99.21.14.43.24.66.31-.17.68-.13,1.42.14,2.09.36.92,1.13,1.64,1.99,2.07.87.44,1.82.55,2.52,1.01.58.38.85,1.09,1.02,1.82,0,0,0,0,0,.02,0-.02,0-.03,0-.04-.16-.55-.58-.99-1.04-1.3-.94-.61-1.99-.85-2.96-1.21-.97-.33-1.94-.75-2.52-1.54-.37-.49-.48-1.12-.42-1.76,0-.09,0-.19.02-.28,0,0-2.21-1.47-.95-4.26.25.02.5,0,.73-.05-.34.63-.41,1.43-.08,2.13ZM22.83,29.21c-.44-.51-.57-1.02-.61-1.32.21.08.42.14.64.19-.09.36-.1.75-.03,1.13ZM22.99,29.76c.05.12.1.24.17.35,0,0,.01.01.01.02-.03.13-.06.27-.08.4-1.61-1.09-1.65-2.43-1.56-3.03.13.09.26.18.4.25.01.36.16,1.22,1.06,2ZM27.76,36.95c0-.35.03-.72.03-1.1,0-.51,0-1.03-.16-1.56-.08-.26-.22-.54-.46-.74-.23-.2-.48-.31-.7-.41-.76-.31-1.43-.88-1.72-1.67.36.19.73.35,1.1.48.51.18,1.02.33,1.52.49.29.22.55.49.73.79.4.65.46,1.44.23,2.16-.13.46-.43.98-.56,1.56ZM28.83,36.82s-.05.05-.07.07c0,0,0,0,0-.01.02-.02.04-.04.07-.06ZM30.28,30.44c-.15-.35-.41-.64-.6-.9-.19-.28-.38-.57-.52-.88-.24-.47-.41-.99-.45-1.52.29.12.59.2.9.24.16.51.35,1.01.63,1.48.2.34.49.62.68.91.2.31.38.63.52.97.27.67.47,1.39.42,2.09-.04.7-.32,1.37-.82,1.87-.27.29-.58.51-.92.72.11-.22.21-.45.29-.69.41-1.39.46-2.92-.13-4.29ZM32.66,33c-.12.33-.29.63-.5.92.12-.34.2-.7.21-1.05.03-.81-.19-1.6-.54-2.3-.18-.35-.38-.68-.62-.99-.25-.33-.52-.56-.73-.86-.3-.4-.54-.85-.75-1.31.03,0,.06.01.08.02.33.03.67,0,1.01-.09.08.54.37,1.05.75,1.47.08.09.17.19.26.28.01.01.02.02.03.03.47.48.79,1.14.93,1.81.16.69.13,1.42-.12,2.08ZM32.88,33.42c0,.15.02.3.01.45-.01.45-.06.89-.11,1.33,0-.45,0-.89-.04-1.34,0-.07-.02-.14-.03-.21.06-.07.11-.15.16-.23ZM34.11,33.91c-.06-.64-.17-1.3-.4-1.9.02.02.13.13.33.43.03.14.41,1.43.09,3.24.03-.59.03-1.18-.01-1.77ZM33.83,33.92c-.02.6-.09,1.2-.19,1.79.03-.62.04-1.24,0-1.86-.05-.55-.13-1.11-.3-1.63.03-.17.06-.34.06-.52.08.07.14.14.22.21.19.65.23,1.33.22,2ZM33.36,33.86c-.02.55-.08,1.11-.17,1.65.02-.55.02-1.11-.02-1.66-.02-.25-.05-.51-.1-.76.09-.18.16-.37.21-.56.06.44.08.89.08,1.34ZM35.12,36.23c-.1.01-.21.03-.31.03.1-.19.19-.38.27-.58.01.18.03.36.04.54ZM34.89,31.47c.01.92.04,1.88.1,2.88-.07.17-.13.35-.2.51.11-1.32-.24-2.65-.33-2.97.06-.34.09-.68.07-1.03-.03-.34-.12-.68-.23-1,.25.52.45,1.06.6,1.62ZM34.26,32.12c-.06-.1-.33-.64-.92-1.11-.01-.07-.14-1.14-.97-1.99.25-.07.23-.02.57-.26,1.61,1.24,1.35,3.08,1.32,3.36ZM33.59,27.14c-.04.34-.22,1.5-1.67,1.47-.42-.35-.8-.78-1.03-1.3.07-.02.13-.03.2-.06,1.57,1.25,2.34.11,2.5-.11ZM31.5,25.2l.1.2c-.08.03-.16.06-.24.1l.14-.29ZM30.15,25.48l.15.31c-.11.01-.2.01-.3.01l.15-.32ZM29.42,24.36l-.15-.32c.1,0,.2.02.29.03l-.14.3ZM30.77,24.36l-.12-.26c.09,0,.17-.02.27-.03l-.14.29ZM21.24,21.5c.14-.42.62-.93.97-.95.4-.03.92.49,1.29,1-.03-.33-.15-.64-.32-.95,0-.01-.02-.02-.02-.04,1.63-1.23,3.09-1.77,4.22-1.55,1.11.22,1.56,1.06,1.58,1.09l.1.2.21-.06c1.05-.27,1.78-.27,2.16-.03l-.99.99,1.29-.2c.9-.02.61.9.31,1.57-.5,1.13-1.53,1.03-2.44.94-.62-.06-1.16-.11-1.45.26-.23.3-.21.77.06,1.54.22.62.76,1,1.52,1.05.07,0,.89.1,2.15-.49-.51,1.33-3.21,1.18-3.23,1.18,0,.02-.01.05-.01.07-.04.56.09,1.13.27,1.65.13.34.3.65.48.96.2.32.39.57.5.88.26.73.34,1.51.28,2.3-.03-.52-.09-1.03-.24-1.55-.11-.43-.37-.87-.75-1.18-.38-.3-.76-.46-1.09-.7-.67-.45-1.26-1.04-1.64-1.74-.24-.46-.36-.99-.36-1.52,0-.12,0-.23.01-.35-.03-.03-.06-.07-.09-.1-.07-.09-.15-.17-.22-.26-.24-.33-.46-.65-.6-1.01-.29-.7-.22-1.49.12-2.3-.36.27-.6.67-.72,1.11-.13.45-.09.95.08,1.38.25.61.71,1.08,1.23,1.4-.13.59-.08,1.24.16,1.81.34.85.99,1.52,1.72,2.03.37.25.77.43,1.07.65.31.21.5.54.67.91.14.33.23.69.32,1.05-.13-.28-.32-.54-.58-.76-.81-.65-1.77-.76-2.53-1.17-.78-.38-1.45-.98-1.85-1.75-.29-.56-.41-1.21-.37-1.87,0-.07.01-.13.02-.19-.03-.03-.07-.05-.1-.08-.48-.4-.89-.81-1.13-1.32-.28-.57-.32-1.23-.24-1.94,0-.03,0-.05.01-.08-.03,0-.07-.01-.1-.02-.54-.12-1.03-.31-1.37-.62-.39-.36-.54-.83-.36-1.27ZM20.69,23.84c.06-.26.16-.51.27-.75.09.07.17.16.26.21.11.07.23.11.34.15-.22.65-.63,2.32.31,3.73-.45-.35-.82-.8-1.04-1.31-.28-.62-.3-1.35-.15-2.03ZM20.8,29.74c-.28-.54-.35-1.16-.29-1.8.03-.32.11-.63.23-.93.02-.05.05-.09.07-.14.13.16.29.31.45.44-.11.59-.2,2.26,1.76,3.52-.02.17-.04.35-.04.52-.28-.13-.55-.26-.81-.41-.55-.34-1.11-.71-1.39-1.22ZM21.47,36.51c-.38,0-.73-.24-.99-.56.1.05.19.11.3.15.16.05.33.09.52.1.18,0,.45-.06.58-.29.23-.44.08-.79.02-1.12-.09-.33-.21-.64-.34-.94-.26-.62-.55-1.15-.63-1.75-.07-.43-.03-.89.07-1.35.31.24.66.43,1.01.58.03.01.06.02.09.03-.05.17-.1.33-.12.51-.02.4.11.84.26,1.19.29.71.56,1.39.61,2.11.03.27.02.51.01.78-.39.31-.9.57-1.4.56ZM14.44,55.41s0-.01,0-.02c.04,0,.08,0,.12-.02.68-.16,1.33-.45,1.83-.89,0,0-1.4.27-1.97-.04h-.01s0-.01,0-.01c.13-.01.26-.02.39-.05.68-.16,1.33-.45,1.83-.89,0,0-1.3.29-2.24.03h0c.09-.02.17-.03.25-.04.68-.16,1.33-.45,1.83-.89,0,0-1.2.36-2.15.02h0s0-.03,0-.04c.17-.02.35-.03.52-.08.68-.15,1.33-.45,1.83-.89,0,0-1.12.39-2.42.08,0-.01,0-.02,0-.03.14-.01.29-.03.43-.06.68-.16,1.33-.45,1.83-.89,0,0-1.09.24-2.31.03,0-.01,0-.02,0-.03.24-.02.49-.05.72-.1.68-.15,1.33-.45,1.83-.89,0,0-1.11.45-2.54.07,0,0,0,0,0,0,.19-.02.37-.03.55-.08.61-.14,1.17-.41,1.64-.77.08-.04.15-.08.19-.12,0,0-.85.15-1.46.09.1-.05,3.27-1.6,3.54-3.31-.51.36-1.17.69-2,.93,0,0,1.47-1.57,1.65-2.27l-1.65.67.48-1.68c-.22.04-.4.03-.47.04-2.62.39-4.36.03-5.17-1.06-1.48-2.01.59-5.92.6-5.95.17-.29,4.18-7.11,2.79-10.03-.41-.85-.98-1.38-1.71-1.56-.63-.15-1.25-.02-1.76.17-.26.09-.48.2-.66.3.22.08,2.41.79.64,4.09.13-2.28-1.4-3.55-1.4-3.55,1.56,3.24-.72,4.77-.9,4.84.38-.66.55-1.47.17-2.41-.99-2.4-.02-3.58-.02-3.58-1.44.55-1.31,2.92-1.31,2.92-.36-1.18-.53-2.58.39-3.21.79-.54,1.71-.72,2.58-.13.19-.08.39-.15.6-.22.92-.28,1.97-.33,2.95.19.76.4,1.29,1.09,1.57,2.04.64,2.18-.18,5.15-1.24,7.03-1.22,2.16-3.74,6.66-2.2,8.54.45.54,1.16.82,2.17.81,1.17,0,2.52-.4,2.72-.45.14-2.14,1.55-2.78,2.94-3.47.56-.28,1.13-.58,1.66-.97l-.32.39,1.41-.84-1,1.19,1.34-.8-.95,1.13,1.41-.84-1.01,1.19,1.53-.91-.33.44,1.67-1.02-1.11,1.46,1.61-.98-1.13,1.5,1.59-.97-1.06,1.4,1.64-1-1.04,1.37,1.67-1.02-1.11,1.46,1.76-1.08-1.04,1.38,1.59-.97-1.06,1.4,1.64-1-1.66,1.25c-1.68-.68-2.97-2.19-2.97-2.19l-1.11,1.23,1.26-.69-.9.99,1.22-.66-.81.9,1.26-.69-.9.99,1.2-.66-.83.92,1.26-.69-.9.99,1.22-.66-.81.9,1.26-.69-1.34.98c-1.33-.74-2.27-1.85-2.27-1.85l-1.11,1.23,1.27-.69-.9.99,1.22-.66-.81.9,1.26-.69-.9.99,1.2-.65-.83.92s-.02,0-.04,0c.02.18.03.36.03.57.02.74-.1,1.64-.48,2.52.04-.86-.09-1.73-.47-2.49.34,1.08.2,2.22-.17,3.23,0,0,0,.02-.01.03.12-.9.05-1.81-.29-2.61.26,1.11.05,2.23-.39,3.21-.05.1-.1.2-.15.3.24-.96.27-1.98-.04-2.89.19,1.12-.1,2.23-.6,3.18,0,.01-.01.02-.02.04.26-.9.34-1.84.1-2.72.1,1.06-.22,2.07-.72,2.95.3-.91.41-1.88.19-2.79.08,1.14-.31,2.21-.9,3.11-.05.08-.11.16-.17.24.45-.98.69-2.09.5-3.13.02,1.14-.43,2.19-1.07,3.06-.32.44-.69.84-1.08,1.2-.02.02-.05.04-.07.06-.02-.32-.02-.67.02-1.06-.22.34-.41.67-.59.98-1.03,1.84-1.31,3.18-.85,4.05.35.66,1.1,1.01,2.17,1.01,1.01,0,1.69.18,2,.51.15.17.21.4.18.69-.03.26-.19.42-.38.52-.1-.22-.25-.42-.43-.55-.46-.35-1.01-.49-1.53-.49.47.22.94.47,1.25.81.14.18.25.35.27.55.02.2-.02.4-.12.44-.18.14-.59.06-.96-.1,0-.08,0-.16-.03-.23-.19-.53-.58-.77-.98-.97.25.35.53.73.56,1.05.02.22-.28.6-1.03.35.16-.09.33-.18.47-.29.06-.03.11-.07.15-.1,0,0-.54.13-1.13.15.19-.1.37-.2.54-.33.05-.03.1-.07.15-.1,0,0-.52.13-1.09.15,0,0,0,0,0,0,.21-.11.42-.22.6-.37.05-.03.1-.07.15-.1,0,0-.55.13-1.14.15,0,0-.01-.01-.02-.02.21-.11.41-.22.6-.37.05-.03.1-.06.15-.1,0,0-.51.12-1.08.15-.19,0-.37,0-.56-.01,0,0,0,0-.01,0,.3-.13.58-.3.83-.5.06-.03.11-.06.15-.1,0,0-1.06.25-1.8.11.52-.16,1.01-.38,1.42-.7.05-.03.1-.06.15-.1,0,0-1.4.34-2.11.02ZM20.45,58.35c-.04.1-.1.21-.16.33,0-.11-.02-.22-.03-.31.07,0,.13,0,.19-.02ZM18.68,58.41c-.05.1-.1.22-.17.33,0-.11-.02-.21-.03-.3.07,0,.13-.02.2-.03ZM11.7,57.63c-.44-.11-.87-.23-1.31-.35.39.06.78.12,1.17.17,1.51.17,3.03.27,4.54.3-1.5-.21-2.98-.49-4.44-.84-.21-.05-.41-.11-.62-.17,1.37.29,2.88.46,4.44.5.45.15.91.22,1.3.23.1.14.2.28.33.4.27.28.66.51,1.1.57.09.61,0,1.05-.03,1.21.45-.4.75-1.08.85-1.34.05-.02.09-.04.14-.08.07-.04.13-.1.19-.17.16.09.31.19.5.25.04.01.08.02.12.02.09.53.01,1.08-.02,1.24.46-.42.76-1.11.86-1.36,0,0,.28-.23.34-.65.08-.03.15-.07.23-.11.36.46.54.88.59,1.04.21-.9.03-1.67,0-1.82,0,0,0-.01,0-.01,1.71-.37,3.33-.92,4.67-1.71,1.31-.77,2.82-1.23,4.42-1.41-.77.14-1.54.32-2.26.62-.94.4-1.84.89-2.6,1.56,1.78-.93,3.68-1.56,5.63-1.75.44-.05.89-.06,1.33-.05.09.03.17.06.26.09-.5-.02-1.01-.01-1.51.03-1.02.11-2.03.35-2.97.75-.94.39-1.84.89-2.61,1.55,1.78-.93,3.68-1.55,5.63-1.75.97-.1,1.96-.07,2.93.05.09.01.18.04.28.06.04.07.09.13.13.2.03.04.04.1.07.14-.14-.04-.26-.09-.4-.13-1-.23-2.04-.28-3.06-.18-1.02.11-2.03.35-2.97.75-.94.39-1.84.89-2.61,1.55,1.78-.93,3.68-1.55,5.63-1.75.97-.1,1.96-.08,2.93.05.97.14,1.93.41,2.88.74-.68-.43-1.44-.74-2.23-.97.01-.09.04-.17.04-.26,0-.02,0-.04,0-.06.74.15,1.46.34,2.19.6-.67-.43-1.42-.73-2.19-.96,0-.07,0-.15,0-.22.69.14,1.37.32,2.05.56-.65-.41-1.36-.7-2.1-.92,0-.02,0-.04,0-.06,3.17.78,3.82,1.27,4.28,1.52.59,1.73,1.06,3.75,1.39,5.44-1.8-1.18-4.35-2.46-7.2-2.71.34.02.67.03,1.01.08.97.13,1.93.4,2.88.74-.85-.54-1.81-.93-2.8-1.16-1-.23-2.04-.28-3.06-.18-1.02.11-2.03.35-2.97.75-.94.39-1.84.89-2.6,1.55,1.02-.53,2.08-.95,3.16-1.26-.41.14-.82.3-1.23.51-5.08,2.5-10.5,3.34-15.09,2.6,1.49.11,2.62.06,2.62.06-1.68-.06-3.48-.48-4.39-.72,1.47.17,2.95.27,4.43.3-1.5-.22-2.98-.5-4.44-.85-.29-.07-.57-.15-.85-.23.24.03.48.07.71.1,1.51.18,3.03.28,4.54.3-1.5-.21-2.98-.49-4.44-.85-.35-.09-.7-.19-1.05-.28.43.06.86.13,1.3.18,1.51.18,3.03.27,4.54.3-1.5-.21-2.98-.49-4.44-.85-.44-.11-.87-.23-1.31-.35.39.05.77.11,1.17.16,1.51.18,3.03.28,4.54.3-1.5-.21-2.98-.49-4.44-.85-.47-.12-.93-.25-1.39-.38.41.06.82.12,1.23.17,1.51.18,3.03.27,4.54.3-1.5-.21-2.98-.49-4.44-.84ZM6.25,45.38c.11.13.24.26.36.39-.39.46-.69,1.06-.68,1.75,0,.08.02.16.03.24-.35-.88-.06-1.75.3-2.37ZM6.76,47.98c-.12-.17-.22-.34-.28-.54-.16-.5-.08-1.1.15-1.64.14.15.28.31.42.46-.21.37-.35.79-.35,1.26,0,.15.02.31.06.46ZM10.27,53.97c-.29.23-.5.47-.63.73h0c.1-.34.34-.66.63-.93v.2ZM10.26,53.48c-.07.04-.15.07-.22.11-.34.21-.68.48-.91.88-.05.08-.08.18-.11.27,0-.09,0-.17.02-.27.17-.54.67-.99,1.22-1.36v.37ZM10.25,53.03c-.27.1-.54.2-.79.35-.34.19-.67.45-.91.84.01-.13.03-.25.1-.37.28-.54.94-.91,1.6-1.17v.35ZM10.19,50.47l.04,1.77v.38c-.32.05-.64.11-.97.22-.38.13-.77.33-1.07.68-.05.05-.09.12-.13.18.01-.19.06-.38.2-.55.41-.53,1.22-.77,1.97-.91-.39-.02-.79-.02-1.18.04-.4.06-.82.19-1.18.48-.14.11-.26.26-.36.42.02-.17.08-.33.19-.48.41-.53,1.23-.77,1.98-.91-.39-.02-.79-.02-1.19.04-.32.05-.65.17-.95.35.43-.33,1.02-.52,1.59-.65-.23,0-.46,0-.69.03.66-.26,1.32-.58,1.76-1.08ZM9.33,48.94c.09-.02.18-.04.27-.06-.4.24-.83.45-1.28.59-.67.2-1.43.27-2.13,0,.61.44,1.43.59,2.21.56.21,0,.41-.05.61-.08-.17.07-.34.15-.51.2-.67.2-1.42.27-2.12,0,.61.45,1.43.59,2.21.56.12,0,.24-.04.36-.05-.07.03-.14.07-.22.09-.68.2-1.42.27-2.13-.01.35.25.77.4,1.21.48,0,0,0,0-.01,0-.12.05-.22.1-.33.14-.24-.02-.49-.07-.73-.17.15.11.32.2.49.27-.17.07-.36.14-.52.22-.4-.94-.6-2.02-.7-2.83.76.71,1.89.47,2.79.23.06-.02.12-.03.18-.05.11-.03.23-.06.36-.09ZM7.48,47.91c-.09-.14-.17-.3-.23-.46-.1-.31-.1-.66-.03-1.01.15.15.32.29.49.43-.14.31-.23.66-.23,1.04,0,0,0,0,0,0ZM8.31,48.36c-.12-.17-.22-.34-.28-.54-.07-.23-.09-.49-.07-.75.12.1.23.19.35.29-.04.17-.06.35-.06.54,0,.15.02.31.05.46ZM10.88,43.7c-.29-.07-.58-.14-.87-.24-.39-.14-.77-.31-1.13-.52-.72-.42-1.37-1.01-1.77-1.79.22.85.76,1.62,1.44,2.24.34.31.71.58,1.1.82.14.09.28.16.42.24-.16-.05-.32-.1-.47-.15-.39-.14-.77-.31-1.13-.52-.72-.42-1.37-1.01-1.77-1.79.22.85.76,1.62,1.44,2.24.34.31.71.58,1.1.82.04.03.09.05.13.08-.03,0-.06-.02-.09-.02-.39-.14-.77-.31-1.13-.52-.72-.42-1.37-1.01-1.77-1.79.22.85.76,1.62,1.44,2.24.24.21.51.4.77.58-.26-.11-.52-.21-.77-.35-.72-.42-1.37-1-1.77-1.79.21.82.73,1.57,1.37,2.17-.15-.09-.29-.18-.43-.28-.13-.15-.29-.3-.41-.46-.12-.15-.24-.3-.35-.45-.3-.41-.58-.8-.8-1.17.59-1.81,1.26-3.09,1.89-3.99.02.51.11,1.04.33,1.56.51,1.23,1.61,2.18,3.23,2.87Z"/>
      <path class="cls-1" d="M81.29,22.26s0-.01.01-.02c.18.31-.32.61-.32.61,0,0,1.03-.1.96-.85-.06-.75-.77-.58-.77-.58-.16.03-.34.12-.49.29-.26.28-.33.63-.17.79.17.15.51.05.77-.23Z"/>
      <path class="cls-1" d="M76.91,22.02c-.55-.4-.9-.88-1.12-1.27.18.2.46.33.76.34.31,0,.59-.12.79-.29.14-.12.25-.26.34-.42.38.19.74.45,1.08.79-.15-.78-.88-1.45-1.72-1.58-.84-.13-1.67.18-2.24.71.1-.02.2-.04.31-.06.34,1.28,1.71,1.75,1.8,1.78ZM76.96,20.14c.19.03.36.08.54.15-.35.14-.66.26-.93.24-.29,0-.57-.15-.91-.38.45-.07.88-.1,1.3-.02Z"/>
      <path class="cls-1" d="M76.54,25.44c.11-.05,2.18-1.06.47-3.07.69,2.07-.74,2.9-.81,2.96,0,.08.36,1.82-.86,3.79,2.03-1.67,1.25-3.54,1.2-3.68Z"/>
      <polygon class="cls-1" points="31.02 47.5 30.75 47.46 31.02 47.5 31.02 47.5"/>
      <path class="cls-1" d="M22.88,22.85s-.51-.3-.32-.61c0,0,0,.01.01.02.26.28.61.38.77.23.17-.16.09-.51-.17-.79-.15-.17-.33-.26-.49-.29,0,0-.71-.17-.77.58-.07.75.96.85.96.85Z"/>
      <path class="cls-1" d="M26.82,19.59c-.84.14-1.57.8-1.72,1.58.34-.35.7-.61,1.08-.79.09.16.2.3.34.42.21.18.49.29.8.29.29-.01.57-.14.76-.34-.21.39-.56.87-1.12,1.27.09-.03,1.47-.5,1.8-1.78.1.02.2.04.31.06-.57-.53-1.4-.84-2.24-.71ZM28.21,20.16c-.33.23-.62.39-.91.38-.28.01-.58-.1-.93-.24.17-.07.35-.12.54-.15.41-.08.85-.05,1.3.02Z"/>
      <path class="cls-1" d="M27.33,25.44c-.05.14-.8,2.1,1.2,3.68-1.12-1.66-.87-3.71-.86-3.79-.07-.06-1.54-1.02-.81-2.96-.28.22-1.61,1.94.47,3.07Z"/>
      <path class="cls-1" d="M14.08,80.04c.88-.59,1.92-.88,3.12-.88.89,0,1.7.14,2.43.43.73.29,1.34.72,1.84,1.28.5.57.87,1.3,1.1,2.19h.19l-.3-3.26c-.42-.26-.9-.49-1.44-.7-.55-.21-1.16-.37-1.83-.5-.68-.12-1.41-.18-2.2-.18-1.58,0-2.96.32-4.15.97s-2.11,1.56-2.77,2.74c-.66,1.18-.99,2.56-.99,4.14s.33,2.96.99,4.13c.66,1.17,1.58,2.08,2.77,2.73,1.19.65,2.56.98,4.11.99,1.12,0,2.11-.14,2.96-.42.86-.28,1.58-.64,2.19-1.07.6-.43,1.07-.86,1.4-1.29v-3.56c-.03-.65.33-.97,1.08-.97h.32v-.22h-4.83v.22h.35c.73,0,1.1.32,1.1.97l-.02,3.64c-.32.42-.71.77-1.19,1.06-.47.29-.99.51-1.54.67-.55.16-1.13.24-1.71.24-1.16-.01-2.17-.31-3.03-.89-.86-.58-1.52-1.4-1.99-2.47-.47-1.06-.71-2.3-.71-3.71s.24-2.71.72-3.78c.48-1.07,1.16-1.9,2.05-2.49Z"/>
      <path class="cls-1" d="M31.57,93.21c-.27.27-.59.4-.96.4h-.28v.22h5.3v-.22h-.26c-.37,0-.7-.13-.97-.4-.27-.27-.41-.59-.41-.96v-12.77h.37c.26,0,.57,0,.93-.01.36,0,.7,0,1.04.03.78.03,1.4.32,1.89.87.48.55.73,1.33.74,2.32.01.23.01.45-.01.67-.02.22-.05.4-.1.54-.17.65-.43,1.14-.79,1.47-.35.33-.74.55-1.16.67-.42.12-.82.18-1.2.19-.26.01-.49.02-.68.01-.19,0-.3-.01-.31-.01v.22c.36.01.69.16.99.44.3.28.57.61.82,1,.04.07.14.23.3.49.16.25.35.55.56.89s.43.69.66,1.05c.22.35.42.67.6.94.18.27.3.46.36.56.27.36.6.69.99,1,.39.31.85.55,1.38.73.53.18,1.14.27,1.83.27h1.51v-.22c-.4,0-.77-.07-1.09-.2-.32-.14-.63-.32-.91-.56s-.56-.53-.85-.87c-.22-.24-.46-.55-.74-.93-.28-.37-.56-.75-.83-1.13-.27-.38-.5-.7-.68-.96-.18-.26-.27-.4-.27-.41-.23-.32-.5-.64-.82-.97-.32-.33-.63-.55-.95-.67.73-.03,1.37-.24,1.91-.65.54-.4.96-.92,1.26-1.54.3-.63.45-1.27.45-1.93s-.12-1.26-.35-1.77c-.23-.5-.54-.92-.94-1.26-.4-.34-.87-.59-1.43-.77-.56-.17-1.16-.26-1.81-.26h-6.34v.22h.28c.37,0,.69.13.96.4.27.27.41.59.42.96v11.95c-.01.37-.15.69-.42.96Z"/>
      <path class="cls-1" d="M58.45,93.61h-.19v.22h5.52v-.22h-.17c-.33,0-.67-.1-1.02-.31-.29-.17-.54-.44-.75-.8l-6.1-14.11h-.19c0,.13-.04.32-.13.58s-.18.52-.29.8c-.11.27-.21.51-.3.7-.09.19-.15.31-.16.33l-5,11.69c-.21.36-.46.63-.75.81-.35.21-.69.31-1.02.31h-.19v.22h4.42v-.22h-.19c-.17,0-.34-.05-.51-.16-.17-.11-.28-.26-.36-.46-.06-.16-.06-.34,0-.55l1.4-3.5h5.56l1.27,3.32h0c.17.43.15.77-.06,1-.22.24-.47.36-.75.36ZM52.73,88.19l2.54-6.37,2.44,6.37h-4.99Z"/>
      <path class="cls-1" d="M70.14,93.21c-.27.27-.59.4-.96.4h-.28v.22h5.33v-.22h-.28c-.37,0-.69-.13-.96-.4-.27-.27-.41-.59-.42-.96v-5.5h3.39c.37,0,.68.13.93.39.24.26.37.57.37.93v.28h.22v-3.92h-.22v.26c0,.36-.12.67-.37.93-.24.26-.55.4-.93.41h-3.39v-6.53h4.25c.4,0,.74.13,1,.4.27.27.4.6.4,1v.3h.22v-2.85c-.13.06-.34.12-.65.17-.3.06-.63.11-.98.15-.35.04-.69.06-1,.06h-6.9l.02.22h.26c.37,0,.7.13.97.4.27.27.41.59.41.96v11.95c-.01.37-.15.69-.42.96Z"/>
      <path class="cls-1" d="M86.51,93.21c-.27.27-.59.4-.96.4h-.28v.22h5.33v-.22h-.28c-.37,0-.69-.13-.96-.4-.27-.27-.41-.59-.42-.96v-5.5h3.39c.37,0,.68.13.93.39.24.26.37.57.37.93v.28h.22v-3.92h-.22v.26c0,.36-.12.67-.37.93-.24.26-.55.4-.93.41h-3.39v-6.53h4.25c.4,0,.74.13,1,.4.27.27.4.6.4,1v.3h.22v-2.85c-.13.06-.34.12-.65.17-.3.06-.63.11-.98.15-.35.04-.69.06-1,.06h-6.9l.02.22h.26c.37,0,.7.13.97.4.27.27.41.59.41.96v11.95c-.01.37-.15.69-.42.96Z"/>
      <path class="cls-1" d="M30.74,104.07l-.29-2.06c-.03-.23-.01-.42.26-.45.04,0,.09,0,.14,0v-.04h-.76l-1.02,2.56-1.08-2.56h-.81v.04h.08c.25,0,.36.36.36.35l-.26,1.89c-.04.3-.14.84-.53.86h-.1v.04h1.06v-.04h-.06c-.43-.02-.38-.56-.33-.87l.26-1.83,1.16,2.75h.04l1.09-2.77.28,2.01c.05.35.07.68-.33.71h-.06v.04h1.42v-.04c-.05,0-.1,0-.15,0-.29-.05-.33-.31-.38-.59Z"/>
      <path class="cls-1" d="M35.2,104.66h-.28c-.35,0-.33-.05-.33-.51v-1.04h.47c.37,0,.53.3.53.61h.03v-1.26h-.03c0,.32-.16.6-.53.6h-.47v-1.08c0-.41-.02-.43.3-.43h.24c.53,0,.83.29.96.79h.04l-.13-.88h-.02s0,.05-.08.05h-2.16v.04h.04c.34,0,.33.19.33.51v2.07c0,.33,0,.52-.33.52h-.04v.04h2.21c.08,0,.12,0,.12.04h.03l.15-1.05h-.04c-.18.57-.46.97-1.03.97Z"/>
      <path class="cls-1" d="M41.17,101.56h.09c.33.02.45.46.45.71v1.75l-2.08-2.5h-.87v.04h.08c.26,0,.44.29.44.28v2.12c0,.25-.12.69-.45.71h-.09v.03h1.12v-.03h-.09c-.33-.02-.45-.46-.45-.71v-2.09l2.41,2.89h.03v-2.49c0-.25.12-.69.45-.71h.09v-.04h-1.12v.04Z"/>
      <path class="cls-1" d="M45.02,101.5c-.13,0-.24.11-.24.24s.11.25.26.23c-.02.16-.11.27-.21.35v.03c.1-.04.28-.18.38-.38.03-.07.07-.19.05-.27-.02-.11-.12-.19-.23-.19Z"/>
      <path class="cls-1" d="M49.12,102.84c-.2-.1-.39-.2-.54-.31-.15-.11-.26-.28-.28-.46-.01-.16.05-.33.19-.44.2-.16.55-.16.8,0,.28.17.47.53.51.72h.03v-.94h-.04v.08c-.01.2-.19.23-.51.09-.27-.13-.54-.14-.85,0-.25.12-.39.33-.45.56-.05.27.03.58.27.8.15.13.36.23.57.34.2.1.44.2.61.37.15.14.22.35.19.53-.02.17-.12.32-.29.42-.26.15-.63.11-.87-.07-.27-.19-.49-.51-.54-.85h-.04v1.17h.04v-.07c-.01-.19.22-.36.53-.2.33.17.59.17.91.07.27-.09.48-.28.59-.5.12-.26.11-.6-.14-.88-.17-.18-.49-.33-.71-.44Z"/>
      <path class="cls-1" d="M59.93,101.56s.05,0,.08,0c.37.02.34.45.23.76l-.71,1.82-.88-2.67h-.04l-.86,2.59-.76-2.09c-.07-.23-.15-.41.22-.42h.08v-.04h-1.27v.04h.08c.26,0,.32.19.39.38.35.94.7,1.88,1.05,2.82h.04l.85-2.56.87,2.56h.05l.95-2.46c.14-.35.35-.74.66-.75h.08v-.04h-1.11v.04Z"/>
      <path class="cls-1" d="M64.96,104.66h-.28c-.35,0-.33-.05-.33-.51v-1.04h.47c.37,0,.53.3.53.61h.03v-1.26h-.03c0,.32-.16.6-.53.6h-.47v-1.08c0-.41-.02-.43.3-.43h.24c.53,0,.83.29.96.79h.04l-.13-.88h-.02s0,.05-.08.05h-2.16v.04h.04c.34,0,.33.19.33.51v2.07c0,.33,0,.52-.33.52h-.04v.04h2.21c.08,0,.12,0,.12.04h.03l.15-1.05h-.04c-.18.57-.46.97-1.03.97Z"/>
      <path class="cls-1" d="M71.15,104.13c-.36-.89-.74-1.78-1.1-2.67h-.04l-.9,2.32c-.14.34-.37.86-.68.88h-.08v.04h1.06v-.04h-.08c-.39-.02-.31-.55-.19-.87l.19-.49h.97l.39.96c.08.2.13.38-.2.4h-.08v.04h1.27v-.04h-.08c-.25,0-.35-.24-.47-.54ZM69.35,103.27l.45-1.17.49,1.17h-.94Z"/>
      <path class="cls-1" d="M76.56,104.32l-.66-1.19c.42-.03.99-.31.99-.82,0-.29-.19-.56-.6-.7-.17-.05-.38-.08-.63-.08h-1.5v.03h.04c.34,0,.35.19.35.52v2.07c0,.33,0,.52-.35.52h-.04v.04h1.24v-.04h-.04c-.34,0-.35-.19-.35-.52v-.99h.38l.83,1.55h.9v-.04h-.01c-.33,0-.44-.17-.54-.35ZM75.01,103.11v-1.54h.62c.54.02.78.39.77.77,0,.41-.26.76-.75.76h-.64Z"/>
      <path class="cls-1" d="M55.37,36.99h.46c.98,0,1.47.43,1.47,1.29l-.03,4.4c-.21.61-.57,1.13-1.06,1.55-.5.42-1.08.74-1.74.96-.66.22-1.35.33-2.06.33-1.4-.02-2.59-.4-3.56-1.14-.98-.74-1.72-1.79-2.23-3.16-.51-1.37-.76-2.97-.76-4.81,0-1.95.27-3.63.82-5.03.55-1.4,1.36-2.48,2.43-3.23,1.07-.76,2.4-1.14,3.97-1.14,1.02,0,1.98.17,2.89.5.91.34,1.71.89,2.4,1.67.69.78,1.22,1.82,1.58,3.12h.26l-.06-4.92c-.56-.31-1.26-.57-2.1-.8-.84-.23-1.76-.42-2.76-.56-1-.14-2.02-.22-3.08-.22-2.26,0-4.22.43-5.88,1.28-1.66.85-2.93,2.06-3.82,3.61-.89,1.55-1.34,3.4-1.34,5.55s.45,4.01,1.35,5.58c.9,1.57,2.17,2.78,3.79,3.64,1.63.85,3.54,1.28,5.72,1.28,1.53,0,2.94-.19,4.21-.56,1.27-.37,2.37-.85,3.28-1.42.91-.57,1.6-1.15,2.06-1.72v-4.74c-.04-.86.44-1.29,1.44-1.29h.43v-.29h-8.08v.29Z"/>
      <path class="cls-1" d="M45.82,66.76s-.01.02-.05,0l-.9-.61h-.01s.02.03.02.03c.14.1.09.17,0,.31l-.59.86c-.1.14-.15.22-.29.12h-.02s-.01,0-.01,0l.92.63s.05.03.04.05h.01s.36-.39.36-.39h-.01c-.24.18-.47.26-.7.1l-.11-.08c-.15-.1-.12-.12,0-.31l.3-.43.2.13c.15.11.13.27.05.4h.01s.36-.51.36-.51h-.01c-.09.12-.24.2-.39.09l-.19-.13.31-.45c.12-.17.11-.19.25-.09l.1.07c.22.15.26.36.18.6h.02s.19-.39.19-.39h0Z"/>
      <path class="cls-1" d="M47.36,67.71c-.06.09-.14.05-.24-.09-.09-.12-.2-.2-.38-.21-.14,0-.26.04-.34.13-.09.11-.13.26-.08.42.03.09.1.19.17.29.06.09.14.2.17.32.03.1,0,.21-.05.28-.05.07-.13.11-.23.11-.15,0-.3-.11-.36-.25-.07-.15-.09-.35-.02-.51,0,0-.02,0-.02-.01l-.29.51h.02s.02-.02.02-.02c.04-.08.18-.1.28.05.1.16.22.22.38.26.14.03.28,0,.38-.07.12-.08.2-.23.16-.42-.03-.12-.13-.27-.2-.37-.06-.09-.12-.18-.16-.27-.04-.09-.04-.19,0-.27.03-.07.1-.13.19-.14.13-.02.28.07.35.2.08.14.07.35.04.45h.01s.24-.41.24-.41h-.02s-.02.02-.02.03Z"/>
      <path class="cls-1" d="M49.12,68.55l-1.01-.43s-.03-.02-.03-.04h-.01s-.23.38-.23.38h.02c.18-.22.42-.25.6-.17l.04.02-.51,1.2c-.07.16-.1.24-.26.17h-.02s0,0,0,0l.57.24v-.02s-.01,0-.01,0c-.16-.07-.12-.15-.06-.31l.51-1.2.04.02c.18.08.32.26.28.56h.02s.11-.43.11-.43h-.01s0,.02-.05,0Z"/>
      <path class="cls-1" d="M51.03,69.15c-.17-.14-.36-.18-.57-.22-.22-.04-.44-.08-.66-.12v.02s.02,0,.02,0c.17.03.15.12.12.29l-.19,1.03c-.03.17-.05.26-.22.23h-.02s0,.01,0,.01c.22.04.44.08.66.12.21.04.4.07.61,0,.29-.09.46-.34.52-.61.05-.27-.03-.56-.26-.75ZM51.03,69.85c-.04.22-.14.43-.3.55-.2.16-.34.13-.57.09-.02,0-.04,0-.06-.01-.17-.03-.15-.12-.12-.29.08-.43.16-.85.24-1.28.08.01.15.03.23.04.24.05.38.07.5.29.1.17.12.4.08.62Z"/>
      <path class="cls-1" d="M51.5,70.57c-.07,0-.12.06-.11.13,0,.07.06.12.13.11.07,0,.12-.06.11-.13,0-.07-.06-.12-.13-.11Z"/>
      <path class="cls-1" d="M55.23,69.98c-.16.06-.19-.03-.25-.19-.15-.41-.3-.84-.45-1.26h-.02s-.33.32-.33.32h0c.15-.11.19-.09.25.08l.33.93c.06.16.09.25-.07.3h-.02s0,.02,0,.02c.2-.07.37-.13.57-.2v-.02s-.02,0-.02,0Z"/>
      <path class="cls-1" d="M56.89,69.23c-.16.08-.2-.01-.27-.16l-.11-.23.03-.02s.04-.01.05,0h.01s-.06-.32-.06-.32h-.01c.02.11,0,.14-.09.19l-.4-.83h-.02s-.08.3-.08.3l-.25,1.04v.03s.62-.3.62-.3l.11.23c.07.15.12.23-.04.31h-.02s0,.03,0,.03c.19-.09.35-.17.54-.27v-.02s-.02,0-.02,0ZM55.75,69.03l.2-.83.29.59-.48.24Z"/>
      <path class="cls-1" d="M58.52,68.27c-.15.09-.2,0-.28-.13l-.13-.22.03-.02s.04-.02.05,0h.01s-.09-.32-.09-.32h-.01c.03.11.02.14-.07.2l-.48-.78h-.02s-.05.31-.05.31l-.15,1.05.02.03.58-.35.13.22c.09.14.14.22,0,.31h-.02s0,.03,0,.03c.18-.11.34-.21.51-.32v-.02s-.02,0-.02,0ZM57.37,68.18l.12-.84.34.56-.46.28Z"/>
      <path class="cls-1" d="M59.22,66.72s.08-.09.1-.14c.07-.13.06-.27-.01-.36-.06-.08-.17-.13-.3-.13-.11,0-.23.05-.32.11-.11.08-.2.18-.22.3-.02.1-.01.21.05.27.1.1.22-.04.11-.12-.03-.03-.08-.03-.1-.1-.04-.11.05-.25.18-.32.13-.08.3-.08.43.1.05.08.09.17.09.26,0,.07-.03.13-.08.18,0,0-.01,0-.02.01l-.16.11.02.02c.13-.08.14-.1.16-.11.21-.1.39,0,.51.15.08.11.11.25.07.38-.03.09-.09.17-.18.23-.09.06-.2.09-.31.07-.08-.01-.14-.05-.18-.13-.03-.07-.03-.16.04-.22.02-.01.05-.02.08,0v-.02s-.29-.06-.29-.06c-.11.2.08.43.34.46.11.01.22-.01.34-.08.11-.06.19-.14.25-.25.09-.15.11-.34,0-.5-.14-.21-.4-.22-.6-.12Z"/>
      <polygon class="cls-1" points="45.61 52.02 44.96 52.01 44.76 51.39 44.55 52.01 43.9 52 44.42 52.39 44.22 53.01 44.75 52.63 45.27 53.02 45.08 52.4 45.61 52.02"/>
      <polygon class="cls-1" points="47.11 53.92 46.46 53.92 46.26 53.3 46.06 53.92 45.4 53.92 45.93 54.3 45.73 54.92 46.26 54.54 46.78 54.92 46.58 54.3 47.11 53.92"/>
      <polygon class="cls-1" points="48.16 55.42 47.94 54.81 47.75 55.43 47.1 55.45 47.64 55.82 47.46 56.45 47.97 56.05 48.51 56.42 48.29 55.8 48.81 55.41 48.16 55.42"/>
      <polygon class="cls-1" points="50.09 56.68 49.9 56.06 49.69 56.68 49.04 56.67 49.56 57.06 49.35 57.68 49.88 57.3 50.41 57.69 50.21 57.07 50.74 56.69 50.09 56.68"/>
      <polygon class="cls-1" points="59.31 52.01 59.11 51.39 58.91 52.01 58.26 52.02 58.79 52.4 58.6 53.02 59.12 52.63 59.65 53.01 59.44 52.39 59.97 52 59.31 52.01"/>
      <polygon class="cls-1" points="57.81 53.92 57.61 53.3 57.41 53.92 56.76 53.92 57.28 54.3 57.08 54.92 57.61 54.54 58.14 54.92 57.94 54.3 58.46 53.92 57.81 53.92"/>
      <polygon class="cls-1" points="56.11 55.43 55.93 54.81 55.71 55.42 55.06 55.41 55.57 55.8 55.36 56.42 55.89 56.05 56.41 56.45 56.23 55.82 56.76 55.45 56.11 55.43"/>
      <polygon class="cls-1" points="54.18 56.68 53.97 56.06 53.77 56.68 53.12 56.69 53.66 57.07 53.46 57.69 53.98 57.3 54.52 57.68 54.31 57.06 54.83 56.67 54.18 56.68"/>
      <polygon class="cls-1" points="52.11 57.73 51.9 57.11 51.7 57.73 51.05 57.73 51.58 58.12 51.38 58.74 51.9 58.35 52.43 58.74 52.23 58.12 52.76 57.73 52.11 57.73"/>
    </g>
  </g>
</svg>