<?xml version="1.0" encoding="UTF-8"?>
<svg id="Layer_2" data-name="Layer 2" xmlns="http://www.w3.org/2000/svg" viewBox="0 0 49.92 99.13">
  <defs>
    <style>
      .cls-1 {
        fill: #e9e9e7;
      }

      .cls-1, .cls-2 {
        stroke-width: 0px;
      }

      .cls-2 {
        fill: #eaebe8;
      }
    </style>
  </defs>
  <g id="Layer_1-2" data-name="Layer 1">
    <g>
      <g>
        <path class="cls-1" d="M0,92.41v-19.1h2.59v9.26c.24-.95.58-2.55,1-4.81.43-2.26.73-3.74.89-4.45h2.59v19.1h-2.65v-9.12c-.19.82-.5,2.33-.93,4.53-.44,2.2-.76,3.73-.96,4.59H0Z"/>
        <path class="cls-1" d="M17.07,92.41h-2.62v-8.2h-1.98v8.2h-2.59v-19.1h2.59v8.26h1.98v-8.26h2.62v19.1Z"/>
        <path class="cls-1" d="M31.38,92.41h-2.82l-1.67-6.81-.36,1.92v4.88h-2.65v-4.88c-.07-.26-.14-.58-.2-.95-.06-.37-.12-.7-.2-.98l-1.67,6.81h-2.79l2.98-10.35-2.76-8.76h2.73l1.9,6.58v-6.58h2.65v6.64l1.87-6.64h2.73l-2.76,8.76,3.01,10.35Z"/>
        <path class="cls-1" d="M33.33,92.41v-19.1h2.59v9.26c.24-.95.58-2.55,1-4.81.43-2.26.73-3.74.89-4.45h2.59v19.1h-2.65v-9.12c-.19.82-.5,2.33-.93,4.53-.44,2.2-.76,3.73-.96,4.59h-2.54Z"/>
        <path class="cls-1" d="M45.85,85.64v6.81h-2.65v-19.22h3.96c.74,0,1.39.25,1.94.75.55.5.82,1.12.82,1.84v5.47c0,1.28-.51,2.26-1.53,2.93l-2.54,1.42ZM47.3,81.54v-5.13c0-.37-.24-.56-.73-.56h-.73v6.97l1.17-.67c.19-.07.28-.28.28-.61Z"/>
      </g>
      <g>
        <path class="cls-1" d="M9.5,97.67v1.44h-.56v-4.08h.84c.16,0,.29.05.41.16.12.11.17.24.17.39v1.16c0,.27-.11.48-.33.62l-.54.3ZM9.81,96.8v-1.09c0-.08-.05-.12-.15-.12h-.15v1.48l.25-.14s.06-.06.06-.13Z"/>
        <path class="cls-1" d="M14.44,95.58h-.62v1.13h.7l-.3.54h-.4v1.31h.92l-.3.54h-1.18v-4.05h1.47l-.3.53Z"/>
        <path class="cls-1" d="M18.94,97.53v1.04c0,.16-.06.3-.17.41-.11.11-.25.16-.41.16h-.26c-.16,0-.3-.06-.42-.17-.12-.11-.17-.24-.17-.4v-2.97c0-.16.06-.29.18-.4.12-.11.26-.16.41-.16h.27c.15,0,.28.06.4.17.11.12.17.25.17.39v.73c-.08.05-.16.09-.24.14-.08.04-.15.08-.2.11-.06.03-.1.05-.12.07v-.98c0-.08-.05-.12-.15-.12-.1,0-.15.04-.15.12v2.86c0,.08.06.12.15.12s.15-.05.15-.15v-.62l.25-.16.31-.2Z"/>
        <path class="cls-1" d="M22.89,99.1h-.56v-3.5h-.66v-.55h1.88v.55h-.66v3.5Z"/>
        <path class="cls-1" d="M26.86,95.03h.31c.16,0,.3.06.41.17.12.11.18.24.18.4v2.98c0,.15-.06.29-.17.4-.11.11-.25.17-.4.17h-.33c-.17,0-.3-.05-.42-.16s-.17-.24-.17-.4v-2.98c0-.16.06-.3.17-.4.11-.11.25-.16.41-.16ZM27.01,98.65c.05,0,.09-.01.13-.04.04-.03.05-.07.05-.12v-2.81s-.02-.09-.06-.12c-.04-.03-.08-.04-.13-.04s-.09.02-.13.05c-.04.03-.05.07-.05.11v2.81c0,.11.06.16.19.16Z"/>
        <path class="cls-1" d="M31.28,97.67v1.44h-.56v-4.08h.84c.16,0,.29.05.41.16.12.11.17.24.17.39v1.16c0,.27-.11.48-.33.62l-.54.3ZM31.59,96.8v-1.09c0-.08-.05-.12-.15-.12h-.15v1.48l.25-.14s.06-.06.06-.13Z"/>
        <path class="cls-1" d="M36.68,99.1h-.56l-.14-.91h-.43c-.06.42-.11.72-.13.91h-.56l.65-4.05h.52c.18,1.16.4,2.51.65,4.05ZM35.77,96.55l-.14,1.11h.29l-.15-1.11Z"/>
        <path class="cls-1" d="M40.99,99.1h-.56v-1.74h-.42v1.74h-.55v-4.05h.55v1.75h.42v-1.75h.56v4.05Z"/>
      </g>
      <path class="cls-2" d="M40.22,5.61c-1.33.91-3.16,1.14-4.79,1.38-.99.15-1.97.46-2.93.94-1.39.69-2.39,1.72-3.02,3.1-.02.05-.04.05-.05,0-.09-.33-.17-.65-.25-.95-.51-1.91-.13-3.59,1.14-5.06,1.32-1.52,3.18-2.22,5.15-2.27,1.27-.03,2.1-.07,2.48-.1,2.09-.18,3.89-1.05,5.38-2.6.07-.07.1-.06.1.04.01,1.29.02,2.6.01,3.95,0,.36-.02.79-.06,1.3-.13,1.6-.7,3.25-1.44,4.65-.97,1.85-2.47,3.22-4.47,4.12-.76.34-1.46.54-2.1.61-1.73.19-3.48-.13-4.95-1.16-.06-.04-.09-.12-.08-.2.27-1.73,1.45-3.27,2.92-4.11.34-.2.75-.38,1.22-.54.94-.33,1.88-.47,2.75-.76,1.29-.44,2.3-1.2,3.02-2.3.04-.06.03-.07-.03-.03h0Z"/>
      <path class="cls-2" d="M26.57,65.74c-.64.72-1.17,1.48-1.61,2.3-.02.05-.09.05-.11,0-1.04-2.04-2.7-3.55-4.99-4.55-1.5-.65-3.11-1.06-4.7-1.56-1.92-.6-3.45-1.38-5.36-2.57-3.34-2.09-5.99-5.21-7.77-8.69-.81-1.71-1.43-3.39-1.73-5.24-.83-5.17.06-10.61,2.94-14.99,2.13-3.25,5.17-5.76,8.53-8.07,1.63-1.11,3.1-2.22,4.42-3.33,1.89-1.59,3.55-3.42,4.67-5.55,1.3-2.48,1.69-5.08,1.17-7.79-.16-.84-.47-1.58-.92-2.21-.59-.83.25-1.44,1.01-1.44,1.61-.01,3.14-.01,4.58,0,.68,0,1.14.28,1.4.84.08.18.08.34-.04.52-.6.92-.95,1.68-1.14,2.79-.65,3.91.97,7.57,3.68,10.4,1.21,1.27,2.42,2.34,3.61,3.21,1.31.95,2.63,1.85,3.96,2.76,2.1,1.43,4.2,3.05,6.02,4.88,1.85,1.87,3.27,4.03,4.26,6.49.72,1.79,1.18,3.76,1.39,5.89.36,3.81-.48,7.76-2.15,11.17-.34.69-.75,1.39-1.25,2.1-1.97,2.82-4.63,5.37-7.7,7.02-2.15,1.15-4.32,1.92-6.61,2.61-1.01.3-1.79.57-2.35.81-1.21.51-2.28,1.24-3.21,2.2M25.52,12.82s-.01-.04-.01-.06c0,0,0,0,0,0h0s0,0,0,0c.26,2.96,1.07,5.68,2.72,8.15,1.3,1.94,3.22,3.78,5.1,5.05,1.8,1.22,3.69,2.44,5.44,3.88.52.43,1.2,1.1,2.04,2.03,1.85,2.04,3.13,4.66,3.8,7.31.54,2.13.56,4.41.29,6.58-.2,1.65-.77,3.5-1.47,5.05-.7,1.55-1.61,2.89-2.72,4.04-.48.5-1.05.92-1.61,1.34,0,0-.01.01,0,.02.01.02.02.03.01.02,0,0,0,0,0-.01,1.38-.84,2.57-1.88,3.58-3.12,1.43-1.75,2.67-3.64,3.37-5.8,1.1-3.43,1.2-6.91.28-10.44-.48-1.85-1.38-3.76-2.49-5.27-1.59-2.15-3.53-3.99-5.83-5.54-2.16-1.45-4.4-2.85-6.37-4.49-2.34-1.94-4.33-4.44-5.59-7.27-.21-.48-.35-.98-.51-1.48M29.67,37.66c.81.88,1.5,1.72,2.07,2.52,1.4,1.97,2.31,4.2,2.72,6.68.35,2.09.18,4.35-.31,6.42-.63,2.65-1.75,5.07-3.75,6.83-.07.06-.06.07.02.03.72-.35,1.4-.76,2.05-1.25,2.61-1.96,4.47-4.47,5.57-7.52.84-2.31,1.11-4.96.8-7.41-.09-.72-.27-1.53-.54-2.41-.62-2.03-1.6-3.8-2.94-5.32-1.58-1.8-3.47-3.25-5.29-4.75-2.3-1.9-4.03-4.21-5.2-6.95-1.22-2.85-1.51-6.15-1.19-9.28.04-.42.12-.84.23-1.25,0,0,0-.02,0-.03,0-.01,0-.02,0-.04,0,0,0,0,0,0-.49,1.46-.94,3.01-1.35,4.65-.59,2.35-.75,4.7-.48,7.04.31,2.74,1.33,5.22,3.06,7.43.6.77,1.14,1.38,1.63,1.84.96.9,1.93,1.82,2.91,2.77M17.4,24.76c-.76,1.04-1.46,2.13-2.09,3.26-.44.79-.79,1.53-1.03,2.2-.93,2.53-1.3,5.36-.65,7.8.58,2.15,1.74,4.23,3.42,5.79.96.89,1.87,1.59,2.71,2.09.98.58,1.8,1.13,2.46,1.67,2.15,1.72,3.7,3.86,4.54,6.51.23.74.37,1.51.41,2.29v1.61s0,0,0,0c.17-.36.32-.75.44-1.17.48-1.63.66-3.33.56-5.1-.14-2.42-.93-4.58-2.35-6.47-1.32-1.75-3.04-3.1-4.45-4.61-2.26-2.41-3.61-5.51-3.68-8.88-.05-2.81.49-5.56,1.64-8.26.22-.53.56-1.1.89-1.63.03-.05.02-.05-.02-.02-.99.88-1.93,1.84-2.8,2.9M3.49,37.73c-.3,1.05-.46,2.24-.48,3.59-.02,1.11.03,2.03.15,2.77.66,4.24,2.67,7.71,6.03,10.41.94.76,2.13,1.45,3.23,1.94,1.91.85,3.89,1.25,5.94,1.2.1,0,.1-.02,0-.05-4.86-1.57-9.6-4.8-11.8-9.55-.38-.82-.69-1.56-.92-2.47-.84-3.3-.57-6.45.79-9.46.11-.25.23-.48.37-.71.02-.03.06-.02.06.02v.05s-.02.02-.02.03c-.11.37-.19.72-.22,1.04-.13,1.41-.21,3.08-.02,4.44.3,2.22,1.06,4.23,2.27,6,1.45,2.13,3.35,3.89,5.62,5.07,1.51.79,3.11,1.49,4.5,2.38,1.47.94,2.7,2.15,3.71,3.62.35.54.63,1.11.82,1.73,0,0,0,.01.02,0h.03s0-.01,0-.02c-.17-1.31-.52-2.54-1.06-3.71-.23-.49-.53-1-.92-1.52-1.07-1.46-2.29-2.58-3.65-3.35-.8-.46-1.6-.91-2.39-1.36-2.38-1.34-4.19-3.21-5.43-5.61-.98-1.89-1.41-3.96-1.39-6.04.02-1.89.34-3.67.93-5.33.41-1.13.86-2.18,1.34-3.15,1.04-2.07,2.5-3.98,4.12-5.7.07-.08.06-.09-.03-.04-.1.06-.18.14-.28.2-1.11.66-2.06,1.25-2.83,1.76-1.23.82-2.52,1.92-3.86,3.31-1.4,1.44-2.51,3.05-3.35,4.82-.49,1.04-.92,2.27-1.27,3.67h0Z"/>
    </g>
  </g>
</svg>