<?xml version="1.0" encoding="UTF-8"?>
<svg id="Layer_2" data-name="Layer 2" xmlns="http://www.w3.org/2000/svg" viewBox="0 0 93.13 117.68">
  <defs>
    <style>
      .cls-1 {
        fill: #fff;
        stroke-width: 0px;
      }
    </style>
  </defs>
  <g id="Layer_1-2" data-name="Layer 1">
    <g>
      <g>
        <path class="cls-1" d="M41.13,57.19l-.32.28c-1.35-.64-3.9-1.67-3.9-4.54v-25.5c0-2.52.07-3.54-2.02-2.09l-.11-.14c1.81-1.59,2.59-2.76,3.58-2.76,1.17,0,1.31,1.7,1.31,3.83l-.07,25.4c0,1.31.11,4.68,1.52,5.53Z"/>
        <path class="cls-1" d="M59.29,6.06c-.64,1.35-1.49,3.4-4.36,3.4h-7.44l-.07,18.75c0,1.31.11,4.68,1.52,5.53l-.32.28c-1.35-.64-3.9-1.67-3.9-4.54V9.43h-7.26c-2.23,0-5.03.04-5.99,2.13-1.49,3.26.46,7.87,5.07,7.87,1.06,0,2.09-.21,2.55-1.28l.14.07c-.74,2.48-1.38,2.98-2.69,3.12-4.43.5-8.22-3.44-5.28-9.92,1.24-2.73,2.45-3.97,4.93-3.97l17.47.04c1.31,0,4.68-.11,5.53-1.52l.11.11ZM56.95,26.37c-.07,1.56-.18,1.74-2.02,2.06-1.84.32-3.05,0-1.95-1.81h.14c-.32.53.35.78,1.7.57,1.31-.21,1.95-.39,1.95-.85,0-.5-.78-.53-2.52-.18-1.74.35-2.59.39-2.48-.67.14-1.28,1.35-2.55,3.37-3.26.5-.18.53.92.14.99-1.31.25-2.66,1.03-2.84,1.67-.11.35.25.07,1.7-.21,2.16-.43,2.87-.04,2.8,1.7ZM42.5,17.58c0,2.62-2.09,3.93-1.42,7.3h-.11c-.67-3.47.57-4.89.39-7.3-.11-1.38-1.17-1.56-2.8-.96l-.04-.07c1.06-.71,1.35-3.61-.07-4.15-.64-.25-1.42.04-1.1.71h-.11c-.74-1.06,0-2.2,1.2-2.16,2.69.07,1.81,4.18.85,5.21,1.81-.85,3.19-.07,3.19,1.42ZM44.16,5.92l-.6-.5.18-1.28c.25.28.6.39,1.06.28,3.54-.82,8.04-2.76,10.56-4.43l.28.32c-2.2,1.77-8.33,4.89-11.48,5.6Z"/>
        <path class="cls-1" d="M62.91,17.38l-.04,24.24c0,4.08-4.11,6.59-8.54,6.59-7.26,0-8.43-1.95-6.84-5.78.89-2.13-.07-2.8-2.3-2.8-2.59,0-8.97.53-12.19.25-3.44-.32-2.84-3.44-1.06-4.89l.11.18c-1.13,1.2-1.06,2.37,1.03,2.59,3.26.32,9.57-.25,12.12-.25,2.87,0,3.93,1.84,2.66,5-.99,2.45.71,3.61,6.77,3.61,3.76,0,5.56-.43,5.56-3.08l-.04-25.62q0-1.81-3.86-1.81c-1.63,0-2.91.35-4.78.35-3.15,0-3.33-1.38-2.84-4.11l.21.04c-.18,1.24.6,1.56,2.94,1.63,1.56.04,3.19-.39,4.75-.39,3.69,0,6.34,3.05,6.34,4.25ZM56.53,35.35l-1.59,2.3-1.59-2.3,1.59-2.3,1.59,2.3ZM53.34,39.95l1.59-2.3,1.59,2.3-1.59,2.3-1.59-2.3Z"/>
      </g>
      <g>
        <g>
          <path class="cls-1" d="M22.02,74.06l-.05,33.81c0,6.07-6.12,9.81-12.71,9.81-7.81,0-11.76-4.69-7.54-11.23l.21.11c-2.74,4.8,1.37,8.02,7.75,8.02,5.59.11,8.28-.11,8.28-4.59l-.05-35.86q0-2.69-5.75-2.69c-2.43,0-4.32.53-7.12.53-4.69,0-4.96-2.06-4.22-6.12l.32.05c-.26,1.85.9,2.32,4.38,2.43,2.32.05,4.75-.58,7.07-.58,5.48,0,9.44,4.54,9.44,6.33ZM12.53,98.53l-2.37,3.43-2.37-3.43,2.37-3.43,2.37,3.43ZM7.78,105.39l2.37-3.43,2.37,3.43-2.37,3.43-2.37-3.43ZM12.26,66.68l-.9-.74.26-1.9c.37.42.9.58,1.58.42,5.27-1.21,11.97-4.11,15.72-6.59l.42.47c-3.27,2.64-12.39,7.28-17.09,8.33Z"/>
          <path class="cls-1" d="M39.32,86.61v13.4c0,1.79-3.85,6.38-9.34,6.38h-3.74v-32.86c0-3.48.05-4.64-1.79-4.64l-.05-.32c4.11-.74,5.96,1,5.96,4.96v11.23c2.48-2.27,3.59-3.85,5.01-3.85,1.21,0,3.96,2.53,3.96,5.7ZM35.31,100.01v-11.66c0-3.64-2-5.12-4.96-3.22v17.56c4.96,0,4.96-.11,4.96-2.69ZM31.99,77.38c-.05-1.05.79-2,1.95-2.48-.32-.47-.21-1.05.26-2.16h.11c0,.37.47.84,2.11,1.48,2.53,1,2.27,1.48,2.27,3.27,0,1.37-1.21,2.58-3.48,2.53-3.06-.05-3.16-1.05-3.22-2.64ZM35.21,77.86c1.64,0,2.58-.16,2.58-.58q0-.32-2.37-1.42c-.47-.21-.9-.42-1.16-.63-1.64.84-1.32,2.64.95,2.64Z"/>
          <path class="cls-1" d="M46.54,96v3.27c0,4.06,4.75,4.9,7.75,2.79l.16.21c-2.69,2.37-3.85,4.11-5.33,4.11-1.21,0-6.59-2-6.59-5.7l-.05-13.5c0-1.79,3.9-6.38,9.39-6.38h3.64v2.74l.05,7.65c0,2.95-5.54,4.69-9.02,4.8ZM46.6,87.19l-.05,8.44c3.01-.42,5.01-2.53,5.01-5.48l-.05-6.17c-4.96.05-4.9.63-4.9,3.22Z"/>
          <path class="cls-1" d="M73.55,58.77c-3.27,2.64-12.39,7.28-17.09,8.33l-.9-.74.26-1.9c.37.42.9.58,1.58.42,5.27-1.21,11.97-4.11,15.72-6.59l.42.47ZM76.24,105.92c-11.18,0-17.46-2.58-17.46-11.39l-.05-20.99c0-3.48.05-4.64-1.79-4.64l-.05-.32c4.11-.74,5.96,1,5.96,4.96l-.05,22.04c0,4.48.37,7.28,13.03,7.23,14.82-.05,17.4-1.69,16.19-3.8-.74-1.32-6.28-.9-8.23-.84l-11.13.21c-4.06.05-4.64-1.05-5.8-3.96-.69-1.9-1.79-4.22,1.9-7.91,3.11-3.11,6.17-4.01,8.17-3.85,2,.16,2.58,2.43-.11,4.69l-.21-.11c1.11-1.27,1.27-1.9.32-1.9-1.9,0-5.12,1.58-7.07,3.43-2.11,1.95-3.32,3.69-2.69,5.43.63,1.21,1.74,1.27,7.38,1.21l11.13-.05c4.27,0,5.43,1.58,6.54,3.53,2.64,4.64.26,7.01-15.98,7.01ZM82.62,88.78h.26c-.16,1.69-.63,4.59-3.9,4.59s-4.01-1.95-4.17-3.85l-.37.26c-.11-.21-.16-.9.16-1.21.21-.21.63-.26.63.26,0,1.69,1,2.69,3.53,2.69,2.69,0,3.74-1.37,3.85-2.74ZM79.77,78.02c2.06,0,6.33,5.8,7.54,12.18h-.26c-1.32-4.48-4.32-8.49-6.54-9.6l-.32.37c-2.58-.84-1.9-2.95-.42-2.95Z"/>
        </g>
        <g>
          <path class="cls-1" d="M29.21,112.62v.5l-.81.04v-.45c0-.45-.17-.64-.48-.64s-.48.2-.48.56v3.04c0,.37.17.57.48.57s.48-.2.48-.64v-.62l.81.04v.67c0,.84-.49,1.34-1.31,1.34s-1.3-.49-1.3-1.34v-3.05c0-.84.48-1.34,1.3-1.34s1.31.49,1.31,1.34Z"/>
          <path class="cls-1" d="M36.6,112.69v2.91c0,.87-.52,1.41-1.36,1.41s-1.36-.53-1.36-1.41v-2.91c0-.87.52-1.41,1.36-1.41s1.36.53,1.36,1.41ZM34.73,112.7v2.89c0,.41.18.64.52.64s.52-.22.52-.64v-2.89c0-.41-.18-.64-.52-.64s-.52.22-.52.64Z"/>
          <path class="cls-1" d="M43.37,116.93l-1.11-3.69h-.02v3.69h-.8v-5.57h.94l.99,3.32h.02v-3.32h.8v5.57h-.83Z"/>
          <path class="cls-1" d="M51.38,112.56v.16l-.81.08v-.17c0-.38-.14-.56-.44-.56-.25,0-.42.14-.42.45v.12c0,.31.16.56.71,1.07.75.69,1,1.15,1,1.79v.27c0,.82-.52,1.25-1.29,1.25s-1.3-.45-1.3-1.27v-.37l.81-.08v.38c0,.37.18.56.48.56.25,0,.46-.14.46-.53v-.18c0-.35-.16-.6-.71-1.11-.75-.69-1-1.15-1-1.75v-.14c0-.82.48-1.25,1.26-1.25s1.26.45,1.26,1.27Z"/>
          <path class="cls-1" d="M58.57,115.68c0,.87-.5,1.33-1.31,1.33s-1.3-.45-1.3-1.33v-4.32h.81v4.3c0,.41.18.56.48.56s.48-.15.48-.56v-4.3h.84v4.32Z"/>
          <path class="cls-1" d="M65.7,116.14v.8h-2.25v-5.57h.84v4.77h1.41Z"/>
          <path class="cls-1" d="M71.21,112.16v4.77h-.84v-4.77h-.9v-.8h2.64v.8h-.9Z"/>
          <path class="cls-1" d="M76.66,116.93v-5.57h.84v5.57h-.84Z"/>
          <path class="cls-1" d="M84.35,116.93l-1.11-3.69h-.02v3.69h-.8v-5.57h.94l.99,3.32h.02v-3.32h.8v5.57h-.83Z"/>
          <path class="cls-1" d="M92.67,112.62v.38l-.81.04v-.33c0-.45-.17-.64-.49-.64s-.49.2-.49.56v3.04c0,.37.16.57.49.57s.49-.2.49-.64v-.95h-.48v-.78h1.3v1.82c0,.84-.49,1.34-1.33,1.34s-1.31-.49-1.31-1.34v-3.05c0-.84.48-1.34,1.31-1.34s1.33.49,1.33,1.34Z"/>
        </g>
      </g>
    </g>
  </g>
</svg>