<?xml version="1.0" encoding="UTF-8"?>
<svg id="Layer_2" data-name="Layer 2" xmlns="http://www.w3.org/2000/svg" viewBox="0 0 68.5 76.36">
  <defs>
    <style>
      .cls-1 {
        fill: #fff;
        stroke-width: 0px;
      }
    </style>
  </defs>
  <g id="Layer_1-2" data-name="Layer 1">
    <g>
      <g>
        <path class="cls-1" d="M.2,74.89c.08,0,.17.01.26.01h.26c.23,0,.44-.06.6-.18.17-.12.25-.36.25-.73v-7.23h1.49v7.12c0,.48-.06.87-.18,1.18-.12.31-.28.55-.47.72-.2.18-.43.3-.68.37-.26.07-.53.11-.81.11h-.37c-.11,0-.23,0-.35-.03v-1.35Z"/>
        <path class="cls-1" d="M5.5,66.76v7.31c0,.34.07.58.21.72.14.14.33.2.56.2s.42-.07.56-.2c.14-.14.21-.37.21-.72v-7.31h1.41v7.22c0,.77-.19,1.36-.56,1.77-.37.41-.93.62-1.66.62s-1.28-.21-1.66-.62c-.37-.41-.56-1-.56-1.77v-7.22h1.49Z"/>
        <path class="cls-1" d="M10.79,69.38v6.86h-1.34v-9.48h1.87l1.53,5.67v-5.67h1.33v9.48h-1.53l-1.85-6.86Z"/>
        <path class="cls-1" d="M17.48,70.96h2.08v3.01c0,.77-.19,1.36-.56,1.77-.37.41-.93.62-1.66.62s-1.28-.21-1.66-.62c-.37-.41-.56-1-.56-1.77v-4.93c0-.77.19-1.36.56-1.77.37-.41.93-.62,1.66-.62s1.28.21,1.66.62c.37.41.56,1,.56,1.77v.92h-1.41v-1.02c0-.34-.07-.58-.21-.72-.14-.14-.33-.21-.56-.21s-.42.07-.56.21-.21.38-.21.72v5.12c0,.34.07.58.21.72.14.14.33.2.56.2s.42-.07.56-.2.21-.37.21-.72v-1.75h-.68v-1.35Z"/>
        <path class="cls-1" d="M22.01,70.76h2.04v1.35h-2.04v2.78h2.57v1.35h-4.06v-9.48h4.06v1.35h-2.57v2.64Z"/>
        <path class="cls-1" d="M25.32,69.04c0-.77.18-1.36.55-1.77s.91-.62,1.64-.62,1.28.21,1.64.62c.37.41.55,1,.55,1.77v.37h-1.41v-.46c0-.34-.07-.58-.2-.72-.13-.14-.31-.21-.55-.21s-.42.07-.55.21c-.13.14-.2.38-.2.72,0,.32.07.61.22.86.14.25.32.48.54.7.22.22.45.44.7.66.25.22.48.46.7.72s.4.56.54.89c.14.33.22.73.22,1.18,0,.77-.19,1.36-.56,1.77-.37.41-.93.62-1.66.62s-1.28-.21-1.66-.62c-.37-.41-.56-1-.56-1.77v-.65h1.41v.74c0,.34.07.58.21.72s.33.2.56.2.42-.07.56-.2c.14-.14.21-.37.21-.72,0-.32-.07-.61-.22-.86-.14-.25-.32-.48-.54-.7-.22-.22-.45-.44-.7-.66-.25-.22-.48-.46-.7-.72-.22-.26-.4-.56-.54-.89-.14-.33-.22-.73-.22-1.18Z"/>
        <path class="cls-1" d="M32.26,66.76h4.6v1.35h-1.56v8.12h-1.49v-8.12h-1.56v-1.35Z"/>
        <path class="cls-1" d="M39.03,76.24h-1.49v-9.48h1.49v4.06h1.69v-4.06h1.52v9.48h-1.52v-4.06h-1.69v4.06Z"/>
        <path class="cls-1" d="M44.81,70.76h2.04v1.35h-2.04v2.78h2.57v1.35h-4.06v-9.48h4.06v1.35h-2.57v2.64Z"/>
        <path class="cls-1" d="M53.12,76.24h-1.5l-.26-1.72h-1.83l-.26,1.72h-1.37l1.52-9.48h2.18l1.52,9.48ZM49.72,73.24h1.44l-.72-4.79-.72,4.79Z"/>
        <path class="cls-1" d="M53.41,66.76h4.6v1.35h-1.56v8.12h-1.49v-8.12h-1.56v-1.35Z"/>
        <path class="cls-1" d="M60.17,70.76h2.04v1.35h-2.04v2.78h2.57v1.35h-4.06v-9.48h4.06v1.35h-2.57v2.64Z"/>
        <path class="cls-1" d="M66.78,76.24c-.02-.06-.04-.12-.05-.18s-.03-.12-.05-.2c-.01-.08-.02-.18-.03-.31,0-.13,0-.28,0-.47v-1.49c0-.44-.08-.75-.23-.93-.15-.18-.4-.27-.74-.27h-.51v3.86h-1.49v-9.48h2.25c.78,0,1.34.18,1.69.54.35.36.52.91.52,1.64v.74c0,.97-.33,1.62-.97,1.92.38.15.64.4.78.75.14.35.21.77.21,1.27v1.46c0,.23,0,.44.03.62.02.18.06.35.14.53h-1.52ZM65.16,68.12v2.91h.58c.28,0,.5-.07.66-.22.16-.14.24-.41.24-.79v-.93c0-.34-.06-.59-.18-.74s-.31-.23-.58-.23h-.72Z"/>
      </g>
      <g>
        <path class="cls-1" d="M1.31,1.72h.83v1.2c0,.31-.07.54-.22.7-.15.16-.37.25-.66.25s-.51-.08-.66-.25c-.15-.16-.22-.4-.22-.7V.95c0-.31.07-.54.22-.7.15-.16.37-.25.66-.25s.51.08.66.25c.15.16.22.4.22.7v.37h-.56v-.4c0-.14-.03-.23-.08-.29-.06-.06-.13-.08-.22-.08s-.17.03-.22.08c-.06.06-.08.15-.08.29v2.04c0,.14.03.23.08.29.06.05.13.08.22.08s.17-.03.22-.08.08-.15.08-.29v-.7h-.27v-.54Z"/>
        <path class="cls-1" d="M13.37,3.82h-.6l-.1-.69h-.73l-.1.69h-.54L11.9.04h.87l.6,3.78ZM12.01,2.62h.57l-.29-1.91-.29,1.91Z"/>
        <path class="cls-1" d="M23.81,3.82s-.01-.05-.02-.07c0-.02-.01-.05-.02-.08,0-.03,0-.07-.01-.12s0-.11,0-.19v-.59c0-.18-.03-.3-.09-.37s-.16-.11-.3-.11h-.2v1.54h-.59V.04h.9c.31,0,.53.07.67.22.14.14.21.36.21.65v.3c0,.39-.13.64-.39.77.15.06.25.16.31.3.06.14.08.31.08.5v.58c0,.09,0,.18.01.25s.03.14.05.21h-.6ZM23.16.58v1.16h.23c.11,0,.2-.03.26-.09s.09-.16.09-.31v-.37c0-.14-.02-.24-.07-.3-.05-.06-.13-.09-.23-.09h-.29Z"/>
        <path class="cls-1" d="M33.59.95c0-.31.07-.54.22-.7.15-.16.36-.25.66-.25s.51.08.66.25c.15.16.22.4.22.7v.15h-.56v-.18c0-.14-.03-.23-.08-.29-.05-.06-.13-.08-.22-.08s-.17.03-.22.08c-.05.06-.08.15-.08.29,0,.13.03.24.09.34.06.1.13.19.22.28.09.09.18.18.28.26.1.09.19.18.28.29.09.1.16.22.22.36s.09.29.09.47c0,.31-.07.54-.22.7-.15.16-.37.25-.66.25s-.51-.08-.66-.25c-.15-.16-.22-.4-.22-.7v-.26h.56v.3c0,.14.03.23.08.29.06.05.13.08.22.08s.17-.03.22-.08.08-.15.08-.29c0-.13-.03-.24-.09-.34-.06-.1-.13-.19-.22-.28-.09-.09-.18-.18-.28-.26-.1-.09-.19-.18-.28-.29-.09-.1-.16-.22-.22-.36s-.09-.29-.09-.47Z"/>
        <path class="cls-1" d="M44.45.04h1.83v.54h-.62v3.24h-.59V.58h-.62V.04Z"/>
        <path class="cls-1" d="M56.07,1.63h.81v.54h-.81v1.11h1.02v.54h-1.62V.04h1.62v.54h-1.02v1.05Z"/>
        <path class="cls-1" d="M66.92,1.08v2.73h-.53V.04h.74l.61,2.26V.04h.53v3.78h-.61l-.74-2.73Z"/>
      </g>
      <g>
        <path class="cls-1" d="M68.5,8.56v7.9h-21.76v22.45s-1.15,15.35,21.76,15.35v7.67s-29.32,1.6-29.32-22.91V8.56h29.32Z"/>
        <path class="cls-1" d="M60.79,22.61c-3.47-1.04-6.18.05-8.43,3.14-.09.12-.12.38-.04.48.08.11.31.16.47.14.32-.04.64-.15.96-.22,2.1-.46,4.2-.89,6.36-.64,1.34.16,2.67.39,4.01.58.16.02.42-.02.47-.11.07-.14.02-.36-.02-.54-.03-.12-.18-.39-.26-.49-.94-1.23-2.14-1.86-3.52-2.34Z"/>
        <path class="cls-1" d="M68.5,43.09v6.34c-4.71.06-8.62-2.29-12.01-6.94-.17-.23-.23-.75-.09-.94.15-.22.62-.32.93-.28.64.08,1.26.29,1.9.43,3.07.67,6.14,1.32,9.27,1.4Z"/>
      </g>
      <g>
        <path class="cls-1" d="M0,8.56v7.9h21.76v22.45s1.15,15.35-21.76,15.35v7.67s29.32,1.6,29.32-22.91V8.56H0Z"/>
        <path class="cls-1" d="M7.65,22.63c3.43-1.02,6.1.05,8.32,3.1.08.12.11.37.04.47-.08.11-.31.16-.46.14-.32-.04-.63-.15-.95-.22-2.07-.45-4.15-.88-6.28-.63-1.32.16-2.64.39-3.96.57-.15.02-.41-.02-.46-.11-.07-.14-.02-.36.02-.53.03-.12.18-.38.26-.49.93-1.21,2.12-1.84,3.47-2.31Z"/>
        <path class="cls-1" d="M0,43.09v6.34c4.71.06,8.62-2.29,12.01-6.94.17-.23.23-.75.09-.94-.15-.22-.62-.32-.93-.28-.64.08-1.26.29-1.9.43-3.07.67-6.14,1.32-9.27,1.4Z"/>
      </g>
    </g>
  </g>
</svg>