<?xml version="1.0" encoding="UTF-8"?>
<svg id="Layer_2" data-name="Layer 2" xmlns="http://www.w3.org/2000/svg" viewBox="0 0 85.4 85.4">
  <defs>
    <style>
      .cls-1 {
        fill: #fff;
        stroke-width: 0px;
      }
    </style>
  </defs>
  <g id="Layer_1-2" data-name="Layer 1">
    <g>
      <g>
        <polygon class="cls-1" points="54.27 52.56 54.27 52.99 45.32 52.99 45.32 52.15 47.58 50.94 47.58 50.94 44.87 48.23 44.87 48.18 48.01 48.18 50.21 50.38 54.27 52.56"/>
        <path class="cls-1" d="M60.34,48.18c-.39-.75-.9-1.44-1.51-2.02-.49-.48-1.04-.89-1.64-1.23.43-.3.82-.64,1.16-1.03,1.09-1.21,1.76-2.81,1.76-4.57s-.66-3.36-1.76-4.57c-1.25-1.39-3.06-2.26-5.07-2.26h-6.68l-1.73,1.73v.53h8.65c2.53,0,4.57,2.05,4.57,4.57s-2.05,4.57-4.57,4.57h-9.79l-5.6-5.6,10.39-10.39,3.41-1.84v-.49h-8.76v.91l2.32,1.25-4.75,4.75h-6.65v.97l3.69,1.99-8.44,8.44v-16.06l2.73-1.47v-.79h-7.91v.62l2.92,1.57v23.09l-2.92,1.57v.55h7.91v-.72l-2.73-1.47v-3.7l7.2-7.2,4,4h-3.52v13.66l-2.92,1.26v1h19.19c2.16,0,4.12-.86,5.55-2.26.54-.53,1.01-1.13,1.38-1.79.48-.84.8-1.78.94-2.78.05-.37.08-.75.08-1.13,0-1.33-.32-2.58-.9-3.68ZM28.26,28.42l-.03-.03.05.02h-.01ZM58.87,52.99c-.12.61-.34,1.18-.64,1.7-.98,1.71-2.83,2.87-4.94,2.87h-14.01v-11.4h14.01c1.75,0,3.31.79,4.35,2.02.84.99,1.35,2.27,1.35,3.68,0,.39-.04.76-.11,1.13Z"/>
      </g>
      <g>
        <path class="cls-1" d="M42.7,85.4c-5.76,0-11.36-1.13-16.62-3.36-5.08-2.15-9.65-5.23-13.57-9.15-3.92-3.92-7-8.49-9.15-13.57-2.23-5.26-3.36-10.86-3.36-16.62s1.13-11.36,3.36-16.62c2.15-5.08,5.23-9.65,9.15-13.57,3.92-3.92,8.49-7,13.57-9.15,5.26-2.23,10.86-3.36,16.62-3.36s11.36,1.13,16.62,3.36c5.08,2.15,9.65,5.23,13.57,9.15,3.92,3.92,7,8.49,9.15,13.57,2.23,5.26,3.36,10.86,3.36,16.62s-1.13,11.36-3.36,16.62c-2.15,5.08-5.23,9.65-9.15,13.57-3.92,3.92-8.49,7-13.57,9.15-5.26,2.23-10.86,3.36-16.62,3.36ZM42.7.75c-5.66,0-11.16,1.11-16.33,3.3-5,2.11-9.48,5.14-13.33,8.99s-6.88,8.34-8.99,13.33c-2.19,5.17-3.3,10.67-3.3,16.33s1.11,11.16,3.3,16.33c2.11,5,5.14,9.48,8.99,13.33s8.34,6.88,13.33,8.99c5.17,2.19,10.67,3.3,16.33,3.3s11.16-1.11,16.33-3.3c5-2.11,9.48-5.14,13.33-8.99,3.85-3.85,6.88-8.34,8.99-13.33,2.19-5.17,3.3-10.67,3.3-16.33s-1.11-11.16-3.3-16.33c-2.11-5-5.14-9.48-8.99-13.33-3.85-3.85-8.34-6.88-13.33-8.99-5.17-2.19-10.67-3.3-16.33-3.3Z"/>
        <path class="cls-1" d="M42.7,73.32c-4.13,0-8.14-.81-11.92-2.41-3.65-1.54-6.92-3.75-9.73-6.56-2.81-2.81-5.02-6.09-6.56-9.73-1.6-3.78-2.41-7.79-2.41-11.92s.81-8.14,2.41-11.92c1.54-3.65,3.75-6.92,6.56-9.73,2.81-2.81,6.09-5.02,9.73-6.56,3.78-1.6,7.79-2.41,11.92-2.41s8.14.81,11.92,2.41c3.65,1.54,6.92,3.75,9.73,6.56,2.81,2.81,5.02,6.09,6.56,9.73,1.6,3.78,2.41,7.79,2.41,11.92s-.81,8.14-2.41,11.92c-1.54,3.65-3.75,6.92-6.56,9.73-2.81,2.81-6.09,5.02-9.73,6.56-3.78,1.6-7.79,2.41-11.92,2.41ZM42.7,12.83c-4.03,0-7.94.79-11.63,2.35-3.56,1.5-6.75,3.66-9.49,6.4-2.74,2.74-4.9,5.94-6.4,9.49-1.56,3.68-2.35,7.59-2.35,11.63s.79,7.94,2.35,11.63c1.5,3.56,3.66,6.75,6.4,9.49,2.74,2.74,5.94,4.9,9.49,6.4,3.68,1.56,7.59,2.35,11.63,2.35s7.94-.79,11.63-2.35c3.56-1.5,6.75-3.66,9.5-6.4s4.9-5.94,6.4-9.49c1.56-3.68,2.35-7.59,2.35-11.63s-.79-7.94-2.35-11.63c-1.5-3.56-3.66-6.75-6.4-9.49s-5.94-4.9-9.5-6.4c-3.68-1.56-7.59-2.35-11.63-2.35Z"/>
        <g>
          <g>
            <path class="cls-1" d="M7.23,26.67l.09.03-.1.75h0s1.01,2.27,1.01,2.27l3.6-1.07.32-.42.09.03-.62,1.71-2.9.86.18.41,1.76.64.31-.42.1.04-.77,2.13-.09-.03.02-.53-4.46-1.62-.32.42-.09-.03.77-2.13.1.04-.03.52,2.3.83-1.45-3.28-.29.43-.09-.03.56-1.54Z"/>
            <path class="cls-1" d="M12.84,24.52l-1.18,2.02.72,1.04.42-.43.09.05-.76,1.3-.08-.05.16-.59-3.19-4.61.12-.2,5.67.36.43-.43.08.05-1.3,2.23-.09-.05.17-.59-1.27-.09ZM11.51,26.32l1.06-1.82-2.46-.18,1.4,2Z"/>
            <path class="cls-1" d="M15.51,22.75l.2-.49-3.63-3.05-.44.28-.07-.06,1.46-1.74.08.07-.21.48,3.65,3.07.53-.63c.77-.92.55-1.59-.05-2.47l.08-.1,1.43,1.2-2.95,3.51-.07-.06Z"/>
            <path class="cls-1" d="M20.64,15.59l-1.79,1.51.33,1.22.54-.26.07.08-1.15.97-.06-.07.35-.5-1.45-5.42.18-.15,5.22,2.24.55-.26.06.07-1.97,1.66-.07-.08.36-.5-1.17-.51ZM18.79,16.84l1.61-1.36-2.25-1,.64,2.36Z"/>
            <path class="cls-1" d="M21.11,10.56l-.05-.08,1.92-1.21.06.09-.35.4,2.53,4.01.51-.14.06.09-1.92,1.21-.05-.08.34-.4-2.53-4.01-.51.14Z"/>
            <path class="cls-1" d="M26,8.65c.64,1.39,3.28-.42,4.08,1.31.45.97-.24,1.81-1.45,2.37-1.08.5-2.17.5-2.44-.08-.17-.38-.02-.93.55-1.2.2-.09.32-.11.45-.14-.19.24-.29.63-.13.98.23.5.76.59,1.48.26.75-.35,1-.8.79-1.27-.61-1.33-3.3.38-4.09-1.33-.39-.85.09-1.67,1.27-2.21,1.13-.52,1.95-.36,2.19.15.17.37-.05.78-.54,1.01-.1.05-.25.1-.42.14.17-.3.26-.57.12-.87-.21-.46-.66-.52-1.26-.25-.57.26-.82.64-.59,1.13Z"/>
            <path class="cls-1" d="M34.19,8.8l-2.25.61-.22,1.24h.6s.03.09.03.09l-1.45.39-.03-.09.52-.31.97-5.52.22-.06,3.78,4.23h.61s.03.09.03.09l-2.49.67-.03-.1.53-.3-.84-.95ZM31.98,9.15l2.04-.55-1.62-1.86-.41,2.41Z"/>
            <path class="cls-1" d="M39.26,4.06v-.1s2.56-.06,2.56-.06c1.59-.04,2.29.49,2.31,1.22.01.65-.52,1.06-1.26,1.16.77.05,1.61.43,1.63,1.33.02,1-.92,1.5-2.56,1.54l-2.56.06v-.1s.5-.17.5-.17l-.11-4.74-.51-.15ZM41.02,4.16l.05,2.08h.59c.78-.03,1.2-.41,1.18-1.09-.01-.65-.47-1.02-1.26-1h-.56ZM41.08,6.48l.06,2.47h.58c1-.04,1.45-.36,1.43-1.29-.02-.95-.52-1.22-1.49-1.2h-.57Z"/>
            <path class="cls-1" d="M46.31,4.08l.02-.1,2.48.4c1.51.24,2.3.85,2.14,1.83-.15.94-1,1.22-2.38,1.03.36.19.71.36,1.08.42l.84,2.04.54.25-.02.1-1.79-.29-1.02-2.58-.61-.1-.34,2.11.47.23-.02.1-2.22-.36.02-.1.51-.08.75-4.69-.46-.23ZM48.01,4.49l-.39,2.4.46.07c.93.15,1.4-.08,1.54-.96.14-.87-.22-1.3-1.15-1.45l-.46-.07Z"/>
            <path class="cls-1" d="M54.08,11.22c-1.57-.57-2.24-2.12-1.74-3.51.5-1.38,2-2.14,3.57-1.57,1.56.56,2.23,2.11,1.74,3.48-.5,1.38-2.01,2.16-3.57,1.6ZM54.15,11.03c1.15.41,1.83-1.08,2.13-1.89.29-.81.72-2.39-.43-2.81-1.16-.42-1.84,1.07-2.13,1.88-.3.82-.72,2.4.44,2.82Z"/>
            <path class="cls-1" d="M59.09,13.12l2.38-4.12h-.01c-.86-.51-1.41-.17-2.1.38l-.12-.07.82-1.41,4.16,2.4-.82,1.41-.12-.07c.13-.88.16-1.51-.71-2.01h-.01s-2.38,4.11-2.38,4.11l.37.39-.05.09-1.97-1.14.05-.08.51.12Z"/>
            <path class="cls-1" d="M65.48,17.7l1.47-1.71-1.61-1.38-1.47,1.71.28.44-.07.08-1.72-1.48.06-.07.48.21,3.09-3.6-.28-.45.06-.07,1.72,1.48-.07.08-.48-.21-1.48,1.72,1.61,1.38,1.48-1.72-.28-.45.06-.07,1.72,1.48-.07.08-.48-.21-3.09,3.6.28.44-.07.08-1.72-1.48.06-.07.48.21Z"/>
            <path class="cls-1" d="M71.38,16.6l.08-.06,2.82,3.5-1.32,1.07-.08-.1c.58-.89.75-1.4.12-2.19l-.61-.76-1.77,1.43.17.22c.49.61.88.56,1.54.35l.08.1-1.65,1.33-.08-.1c.29-.53.4-.88.04-1.39l-.29-.36-1.77,1.43.64.8c.66.81,1.21.75,2.18.38l.08.1-1.32,1.06-2.87-3.57.08-.06.44.29,3.7-2.98-.19-.49Z"/>
            <path class="cls-1" d="M75.37,21.8l.09-.05,1.22,2.2c.74,1.33.75,2.33-.13,2.82-.83.46-1.57-.04-2.28-1.24.07.4.15.78.33,1.11l-1.09,1.92.14.58-.09.05-.87-1.58,1.4-2.4-.3-.54-1.87,1.03.11.51-.09.05-1.09-1.97.09-.05.37.35,4.15-2.29-.1-.5ZM76.11,23.39l-2.13,1.18.23.41c.46.83.92,1.05,1.7.62.78-.43.89-.97.43-1.8l-.23-.41Z"/>
            <path class="cls-1" d="M78.25,29.48c-1.45.5.09,3.3-1.71,3.93-1.02.35-1.77-.42-2.21-1.68-.39-1.13-.28-2.21.33-2.42.39-.13.93.07,1.13.67.07.21.07.33.1.47-.22-.21-.6-.35-.96-.23-.52.18-.66.7-.41,1.44.27.78.7,1.08,1.18.91,1.38-.48-.05-3.33,1.73-3.94.89-.31,1.65.26,2.08,1.48.41,1.18.16,1.98-.37,2.16-.39.13-.78-.13-.95-.63-.04-.11-.07-.26-.1-.43.28.2.54.32.86.2.48-.17.59-.6.37-1.22-.2-.59-.56-.88-1.07-.7Z"/>
          </g>
          <g>
            <path class="cls-1" d="M12.35,58.97l-.09.04-.44-.61h0s-2.28-.96-2.28-.96l-1.9,3.25.05.52-.09.04-.72-1.67,1.52-2.61-.41-.17-1.72.74.06.52-.1.04-.9-2.08.09-.04.34.4,4.36-1.88-.05-.52.09-.04.9,2.08-.1.04-.34-.4-2.25.97,3.3,1.4-.08-.51.09-.04.65,1.5Z"/>
            <path class="cls-1" d="M11.1,64.11l-1.28-1.95-1.25.18.19.57-.09.06-.82-1.26.08-.05.45.4,5.55-.79.13.19-2.86,4.91.19.58-.08.05-1.41-2.16.09-.06.45.41.65-1.1ZM10.09,62.12l1.15,1.77,1.26-2.12-2.42.35Z"/>
            <path class="cls-1" d="M12.1,67.71l.46.27,3.51-3.2-.22-.48.07-.07,1.53,1.68-.08.07-.45-.27-3.52,3.21.56.61c.81.89,1.5.75,2.46.28l.09.09-1.38,1.26-3.09-3.38.07-.07Z"/>
            <path class="cls-1" d="M19.62,73.11l-1.83-1.44-1.12.57.37.48-.06.08-1.18-.93.06-.08.56.24,5.01-2.52.18.14-1.14,5.56.36.49-.06.08-2.02-1.59.07-.08.56.25.26-1.25ZM18.02,71.55l1.66,1.31.52-2.41-2.18,1.1Z"/>
            <path class="cls-1" d="M24.25,71.77l.05-.08,1.95,1.15-.05.09-.51-.13-2.41,4.09.36.38-.05.09-1.95-1.15.05-.08.51.12,2.41-4.09-.35-.39Z"/>
            <path class="cls-1" d="M27.91,74.66c-.61,1.41,2.51,2.16,1.75,3.91-.42.99-1.5,1.03-2.73.5-1.1-.47-1.82-1.28-1.57-1.87.16-.38.68-.64,1.26-.39.2.09.3.17.41.24-.3.02-.66.21-.81.56-.22.5.07.96.79,1.27.76.33,1.27.21,1.47-.26.58-1.35-2.49-2.2-1.75-3.93.37-.86,1.3-1.05,2.5-.54,1.15.49,1.57,1.21,1.35,1.73-.16.38-.62.49-1.11.28-.1-.04-.24-.12-.39-.22.34-.07.59-.19.73-.5.2-.47-.05-.84-.66-1.1-.57-.25-1.03-.18-1.24.32Z"/>
            <path class="cls-1" d="M33.99,79.86l-2.26-.57-.8.98.53.29-.03.1-1.46-.37.02-.09h.61s3.55-4.35,3.55-4.35l.23.06,1.23,5.54.53.3-.02.09-2.5-.63.03-.1h.61s-.27-1.25-.27-1.25ZM31.89,79.09l2.05.52-.51-2.41-1.54,1.9Z"/>
            <path class="cls-1" d="M39.6,77.06v-.1s2.56.04,2.56.04c1.59.03,2.27.58,2.26,1.32-.01.65-.57,1.04-1.3,1.11.77.08,1.59.49,1.58,1.39-.02,1-.98,1.46-2.62,1.43l-2.56-.04v-.1s.51-.15.51-.15l.08-4.75-.5-.17ZM41.33,79.54l-.04,2.47h.58c1,.03,1.46-.28,1.48-1.2.02-.95-.47-1.24-1.44-1.26h-.57ZM41.37,77.22l-.04,2.08h.59c.78.02,1.22-.34,1.23-1.02.01-.65-.43-1.04-1.22-1.05h-.56Z"/>
            <path class="cls-1" d="M45.61,77.08l-.02-.1,2.48-.39c1.51-.24,2.45.09,2.6,1.08.15.94-.57,1.47-1.94,1.72.4.07.79.13,1.16.07l1.44,1.68.59.07.02.1-1.79.28-1.78-2.14-.61.1.33,2.11.51.07.02.1-2.22.35-.02-.1.46-.23-.74-4.69-.51-.08ZM47.36,76.93l.38,2.4.46-.07c.93-.15,1.3-.51,1.16-1.39-.14-.88-.61-1.17-1.55-1.02l-.46.07Z"/>
            <path class="cls-1" d="M55.86,80.1c-1.57.55-3.07-.23-3.56-1.62-.49-1.38.2-2.92,1.77-3.47,1.57-.55,3.07.23,3.55,1.6.49,1.39-.19,2.94-1.76,3.49ZM55.8,79.91c1.15-.41.74-2,.45-2.81-.29-.81-.96-2.31-2.11-1.9-1.16.41-.75,1.99-.46,2.81.29.82.96,2.31,2.12,1.9Z"/>
            <path class="cls-1" d="M61.3,77.34l-2.32-4.15h-.01c-.87.49-.86,1.13-.74,2.01l-.12.07-.8-1.42,4.19-2.35.8,1.42-.12.07c-.69-.56-1.22-.91-2.09-.42h-.01s2.32,4.16,2.32,4.16l.52-.12.05.09-1.99,1.11-.05-.09.36-.38Z"/>
            <path class="cls-1" d="M68.37,72.49l-1.42-1.75-1.65,1.34,1.42,1.75.48-.2.07.08-1.76,1.43-.06-.08.29-.44-3-3.68-.49.2-.06-.08,1.76-1.43.07.08-.3.43,1.43,1.76,1.65-1.34-1.43-1.76-.49.2-.06-.08,1.76-1.43.07.08-.3.43,3,3.68.48-.2.07.08-1.76,1.43-.06-.08.29-.44Z"/>
            <path class="cls-1" d="M67.29,66.88l-.07-.06,2.94-3.41,1.29,1.11-.08.1c-.98-.41-1.52-.48-2.17.28l-.64.74,1.72,1.49.18-.21c.51-.59.4-.97.07-1.58l.08-.1,1.61,1.39-.08.1c-.58-.19-.93-.24-1.38.21l-.3.35,1.72,1.49.67-.77c.68-.79.52-1.32-.02-2.21l.08-.1,1.28,1.1-2.99,3.47-.07-.06.21-.48-3.59-3.1-.45.28Z"/>
            <path class="cls-1" d="M70.87,62.64l-.08-.05,1.3-2.16c.79-1.31,1.64-1.82,2.5-1.3.82.49.75,1.38.07,2.59.31-.26.6-.52.8-.84l2.21-.02.43-.41.08.05-.93,1.55h-2.78s-.32.51-.32.51l1.83,1.1.38-.35.09.05-1.16,1.92-.08-.05.12-.5-4.07-2.45-.39.34ZM71.88,61.2l2.08,1.25.24-.4c.49-.81.45-1.33-.31-1.78-.76-.46-1.28-.28-1.77.53l-.24.4Z"/>
            <path class="cls-1" d="M75.09,56.54c1.42.56,2.08-2.57,3.85-1.87,1,.39,1.07,1.47.58,2.72-.44,1.11-1.23,1.86-1.82,1.62-.38-.15-.66-.66-.43-1.24.08-.2.16-.3.23-.42.03.3.23.65.58.8.51.2.96-.1,1.25-.83.3-.77.17-1.27-.3-1.46-1.36-.54-2.13,2.56-3.88,1.87-.87-.35-1.09-1.27-.61-2.48.46-1.16,1.17-1.61,1.68-1.4.38.15.5.6.31,1.1-.04.1-.11.25-.2.4-.08-.34-.2-.59-.52-.71-.47-.19-.84.07-1.08.69-.23.58-.15,1.03.35,1.23Z"/>
          </g>
          <g>
            <path class="cls-1" d="M3.11,42.74v-.03h1.58v.6h-.04c-.12-.36-.22-.51-.57-.51h-.34v.8h.1c.27,0,.35-.12.44-.34h.04v.75h-.04c-.08-.2-.15-.3-.37-.32h-.16v.8h.36c.37,0,.47-.16.59-.51h.04v.59h-1.61v-.03l.18-.06v-1.67l-.18-.06Z"/>
            <path class="cls-1" d="M5.73,43.02c0,.54,1.11.35,1.11,1.02,0,.38-.34.54-.81.54-.42,0-.77-.16-.77-.39,0-.15.13-.3.35-.3.08,0,.12.01.17.02-.09.05-.18.16-.18.29,0,.19.16.3.43.3s.44-.11.44-.29c0-.51-1.11-.36-1.11-1.03,0-.33.27-.52.73-.52s.68.17.68.37c0,.15-.13.24-.32.24-.04,0-.09,0-.16-.02.1-.07.17-.14.17-.26,0-.18-.13-.26-.36-.26-.22,0-.36.08-.36.27Z"/>
            <path class="cls-1" d="M7.93,44.46v-1.67h0c-.35,0-.46.2-.57.49h-.05v-.57h1.69v.57h-.05c-.11-.29-.22-.49-.57-.49h0v1.67l.18.05v.04h-.8v-.03l.18-.06Z"/>
            <path class="cls-1" d="M9.59,44.11c.16,0,.25.11.25.24s-.09.23-.25.23-.25-.1-.25-.23.09-.24.25-.24Z"/>
          </g>
          <g>
            <path class="cls-1" d="M77.15,43.21c0,.6-.78.61-1.17.89-.09.06-.15.13-.18.23.09-.13.24-.23.43-.23.29,0,.51.17.71.17.14,0,.19-.07.19-.13,0-.04-.02-.08-.03-.12l.05-.02c.04.08.06.15.06.22,0,.17-.1.34-.38.34-.3,0-.48-.18-.81-.18-.17,0-.24.07-.24.17h-.06s-.02-.08-.02-.13c0-.72,1.04-.68,1.04-1.37,0-.22-.1-.34-.31-.34s-.31.12-.31.33c0,.16.06.22.15.31-.04.01-.09.02-.15.02-.25,0-.36-.11-.36-.29,0-.29.31-.42.67-.42s.71.13.71.54Z"/>
            <path class="cls-1" d="M78.61,44.57c-.51,0-.87-.45-.87-.95s.36-.94.87-.94.87.44.87.94-.36.95-.87.95ZM78.61,44.5c.35,0,.39-.59.39-.88s-.03-.87-.39-.87-.38.58-.38.87.03.88.38.88Z"/>
            <path class="cls-1" d="M81.45,43.21c0,.6-.78.61-1.17.89-.09.06-.15.13-.18.23.09-.13.24-.23.43-.23.29,0,.51.17.71.17.14,0,.19-.07.19-.13,0-.04-.02-.08-.03-.12l.05-.02c.04.08.06.15.06.22,0,.17-.1.34-.38.34-.3,0-.48-.18-.81-.18-.17,0-.24.07-.24.17h-.06s-.02-.08-.02-.13c0-.72,1.04-.68,1.04-1.37,0-.22-.1-.34-.31-.34s-.31.12-.31.33c0,.16.06.22.15.31-.04.01-.09.02-.15.02-.25,0-.36-.11-.36-.29,0-.29.31-.42.67-.42s.71.13.71.54Z"/>
            <path class="cls-1" d="M81.98,42.92l.64-.25h.09v1.78l.27.05v.04h-.98v-.03l.27-.06v-1.53l-.28.05v-.05Z"/>
          </g>
        </g>
      </g>
    </g>
  </g>
</svg>