<?xml version="1.0" encoding="UTF-8"?>
<svg id="Layer_2" data-name="Layer 2" xmlns="http://www.w3.org/2000/svg" viewBox="0 0 130.97 59.76">
  <defs>
    <style>
      .cls-1 {
        fill: #fff;
        stroke-width: 0px;
      }
    </style>
  </defs>
  <g id="Layer_1-2" data-name="Layer 1">
    <g>
      <g>
        <path class="cls-1" d="M42.2,14.88c.87,1.41,2.04,2.59,3.52,3.53-1.48.94-2.66,2.13-3.52,3.55-.87,1.43-1.3,2.98-1.3,4.65v2.05h4.72v-2.05c0-.85.19-1.65.56-2.39.37-.74.88-1.4,1.54-1.96.65-.56,1.41-1,2.28-1.32.87-.32,1.79-.48,2.78-.48s1.93.16,2.81.48c.88.32,1.65.76,2.31,1.32.65.56,1.17,1.22,1.54,1.96.37.74.56,1.54.56,2.39v2.05h4.72V0h-4.72v18.5c-1.02-.67-2.15-1.18-3.37-1.55-1.22-.36-2.5-.55-3.84-.55-.99,0-1.92-.16-2.78-.48-.87-.32-1.62-.76-2.28-1.32-.65-.56-1.17-1.22-1.54-1.98-.37-.76-.56-1.56-.56-2.41v-2h-4.72v2c0,1.7.43,3.26,1.3,4.67Z"/>
        <path class="cls-1" d="M88.78,14.88c-.87,1.41-2.04,2.59-3.52,3.53,1.48.94,2.66,2.13,3.52,3.55.87,1.43,1.3,2.98,1.3,4.65v2.05h-4.72v-2.05c0-.85-.19-1.65-.56-2.39-.37-.74-.88-1.4-1.54-1.96-.65-.56-1.41-1-2.28-1.32-.87-.32-1.79-.48-2.78-.48s-1.93.16-2.81.48c-.88.32-1.65.76-2.31,1.32-.65.56-1.17,1.22-1.54,1.96-.37.74-.56,1.54-.56,2.39v2.05h-4.72V0h4.72v18.5c1.02-.67,2.15-1.18,3.37-1.55,1.22-.36,2.5-.55,3.84-.55.99,0,1.92-.16,2.78-.48.87-.32,1.62-.76,2.28-1.32.65-.56,1.17-1.22,1.54-1.98.37-.76.56-1.56.56-2.41v-2h4.72v2c0,1.7-.43,3.26-1.3,4.67Z"/>
      </g>
      <g>
        <g>
          <path class="cls-1" d="M14.89,45.15c-.57.93-1.35,1.71-2.33,2.34.98.62,1.76,1.41,2.33,2.35.57.95.86,1.97.86,3.08v1.36h-3.12v-1.36c0-.56-.12-1.09-.37-1.58-.25-.49-.58-.92-1.02-1.3-.43-.37-.94-.66-1.51-.87-.57-.21-1.19-.32-1.84-.32s-1.27.11-1.86.32c-.58.21-1.09.5-1.53.87-.43.37-.77.8-1.02,1.3-.25.49-.37,1.02-.37,1.58v1.36H0v-13.54h3.12v6.81c.68-.44,1.42-.78,2.23-1.02s1.65-.36,2.54-.36c.65,0,1.27-.11,1.84-.32.57-.21,1.07-.5,1.51-.87.43-.37.77-.81,1.02-1.31.25-.5.37-1.03.37-1.6v-1.33h3.12v1.33c0,1.13-.29,2.16-.86,3.09Z"/>
          <path class="cls-1" d="M36.08,40.73v6.75c0,.92-.2,1.8-.61,2.62-.41.82-.98,1.55-1.7,2.17-.72.62-1.56,1.11-2.51,1.46-.95.35-1.97.53-3.07.53s-2.09-.18-3.05-.53c-.96-.35-1.79-.84-2.51-1.46-.71-.62-1.27-1.35-1.68-2.17-.41-.82-.61-1.7-.61-2.62v-6.75h3.12v6.75c0,.56.12,1.1.37,1.6.25.5.58.94,1.02,1.31.43.37.93.66,1.51.87.57.21,1.19.32,1.84.32s1.27-.11,1.86-.32c.58-.21,1.09-.5,1.53-.87.43-.37.77-.81,1.02-1.31.25-.5.37-1.03.37-1.6v-6.75h3.12Z"/>
          <path class="cls-1" d="M49.93,51.58v2.68h-1.54c-1.08,0-2.09-.18-3.05-.53-.96-.35-1.8-.84-2.52-1.46-.72-.62-1.29-1.35-1.7-2.17-.41-.82-.61-1.7-.61-2.62v-6.75h3.12v2.71h6.31v2.68h-6.31v1.36c0,.56.12,1.1.37,1.6.25.5.58.94,1.02,1.31.43.37.94.66,1.53.87.58.21,1.2.32,1.86.32h1.54Z"/>
          <path class="cls-1" d="M68.73,40.73v2.68h-9.5c-.44,0-.82.13-1.12.39-.3.26-.46.58-.46.96s.15.71.46.98c.3.27.68.41,1.12.41h6.31c.65,0,1.27.11,1.84.32.57.21,1.08.5,1.51.86.43.36.77.79,1.02,1.28.25.49.37,1.02.37,1.58s-.12,1.09-.37,1.58c-.25.49-.58.92-1.02,1.3-.43.37-.94.66-1.51.87-.57.21-1.19.32-1.84.32h-9.47v-2.68h9.47c.47,0,.85-.13,1.16-.39.3-.26.46-.59.46-1,0-.38-.15-.7-.46-.96-.3-.26-.69-.39-1.16-.39h-6.31c-.65,0-1.27-.11-1.84-.32-.57-.21-1.07-.5-1.49-.87-.42-.37-.75-.8-1-1.3-.25-.49-.37-1.02-.37-1.58s.12-1.09.37-1.58c.25-.49.58-.92,1-1.28.42-.36.92-.65,1.49-.86.57-.21,1.19-.32,1.84-.32h9.5Z"/>
          <path class="cls-1" d="M89.65,45.15c-.57.93-1.35,1.71-2.33,2.34.98.62,1.76,1.41,2.33,2.35.57.95.86,1.97.86,3.08v1.36h-3.12v-1.36c0-.56-.12-1.09-.37-1.58-.25-.49-.58-.92-1.02-1.3-.43-.37-.94-.66-1.51-.87-.57-.21-1.19-.32-1.84-.32s-1.27.11-1.86.32c-.58.21-1.09.5-1.53.87-.43.37-.77.8-1.02,1.3-.25.49-.37,1.02-.37,1.58v1.36h-3.12v-13.54h3.12v6.81c.68-.44,1.42-.78,2.23-1.02s1.65-.36,2.54-.36c.65,0,1.27-.11,1.84-.32.57-.21,1.07-.5,1.51-.87.43-.37.77-.81,1.02-1.31.25-.5.37-1.03.37-1.6v-1.33h3.12v1.33c0,1.13-.29,2.16-.86,3.09Z"/>
          <path class="cls-1" d="M102.92,40.73c1.1,0,2.12.18,3.07.53.95.35,1.78.83,2.49,1.45.71.61,1.27,1.33,1.68,2.14.41.81.61,1.69.61,2.64v6.78h-7.85c-1.08,0-2.09-.18-3.05-.53-.96-.35-1.8-.84-2.52-1.46-.72-.62-1.29-1.35-1.7-2.17-.41-.82-.61-1.7-.61-2.62s.2-1.82.61-2.64c.41-.81.98-1.53,1.7-2.14.72-.61,1.57-1.1,2.52-1.45.96-.35,1.98-.53,3.05-.53ZM107.65,51.58v-4.1c0-.56-.12-1.09-.37-1.58-.25-.49-.58-.92-1.02-1.3-.43-.37-.94-.66-1.51-.87-.57-.21-1.19-.32-1.84-.32s-1.27.11-1.86.32c-.58.21-1.09.5-1.53.87-.43.37-.77.8-1.02,1.3-.25.49-.37,1.02-.37,1.58s.12,1.1.37,1.6c.25.5.58.94,1.02,1.31.43.37.94.66,1.53.87.58.21,1.2.32,1.86.32h4.73Z"/>
          <path class="cls-1" d="M123.08,40.79c1.1,0,2.12.18,3.07.53.95.35,1.78.83,2.51,1.45.72.61,1.29,1.33,1.7,2.14.41.81.61,1.69.61,2.64s-.2,1.8-.61,2.62c-.41.82-.98,1.55-1.7,2.17-.72.62-1.56,1.11-2.51,1.46-.95.35-1.97.53-3.07.53h-4.73v5.43h-3.12v-12.21c0-.94.2-1.82.61-2.64.41-.81.97-1.53,1.68-2.14.71-.61,1.55-1.1,2.51-1.45.96-.35,1.98-.53,3.05-.53ZM124.94,51.33c.58-.21,1.09-.5,1.53-.87.43-.37.77-.81,1.02-1.31.25-.5.37-1.03.37-1.6s-.12-1.09-.37-1.58c-.25-.49-.58-.92-1.02-1.3-.43-.37-.94-.66-1.53-.87-.58-.21-1.2-.32-1.86-.32s-1.27.11-1.84.32c-.57.21-1.08.5-1.51.87-.43.37-.77.8-1.02,1.3-.25.49-.37,1.02-.37,1.58v4.1h4.73c.65,0,1.27-.11,1.86-.32Z"/>
        </g>
        <g>
          <circle class="cls-1" cx="98.51" cy="38.07" r="1.36"/>
          <circle class="cls-1" cx="107.01" cy="38.07" r="1.36"/>
        </g>
      </g>
    </g>
  </g>
</svg>