<?xml version="1.0" encoding="UTF-8"?>
<svg id="Layer_2" data-name="Layer 2" xmlns="http://www.w3.org/2000/svg" viewBox="0 0 132.15 83.9">
  <defs>
    <style>
      .cls-1 {
        font-family: TacticSans-Bld, TacticSans-Bld;
        font-size: 6.03px;
      }

      .cls-1, .cls-2 {
        fill: #fff;
      }

      .cls-3 {
        letter-spacing: .07em;
      }

      .cls-4 {
        letter-spacing: .08em;
      }

      .cls-5 {
        letter-spacing: .06em;
      }

      .cls-2 {
        stroke-width: 0px;
      }

      .cls-6 {
        letter-spacing: 0em;
      }
    </style>
  </defs>
  <g id="Layer_1-2" data-name="Layer 1">
    <g>
      <g>
        <g>
          <polygon class="cls-2" points="6.2 55.74 0 55.74 0 71.65 11.98 71.65 11.98 66.56 6.2 66.56 6.2 55.74"/>
          <path class="cls-2" d="M20.16,55.56l-6.13,15.47v.62h6.43l.68-1.84h5.05l.71,1.84h6.43v-.62l-6.14-15.47h-7.02ZM22.73,65.7l.93-4,.95,4h-1.89Z"/>
          <polygon class="cls-2" points="44.59 60.29 41.41 55.74 35.41 55.74 35.41 71.65 41.55 71.65 41.55 68.11 41.12 64.43 43.5 68.11 45.69 68.11 48.07 64.43 47.64 68.11 47.64 71.65 53.75 71.65 53.75 55.74 47.77 55.74 44.59 60.29"/>
          <rect class="cls-2" x="56.26" y="61.38" width="7" height="4.48"/>
          <path class="cls-2" d="M77.83,62.99c1.25-.43,1.93-1.62,1.95-2.88.07-2.37-1.82-4.37-4.18-4.37h-10.05v15.91h10c2.79,0,4.93-1.89,5.05-4.61.11-2.09-.89-3.32-2.77-4.05ZM71.76,59.99h1.16c1.14,0,1.07,1.66,0,1.66h-1.16v-1.66ZM73.3,67.29h-1.54v-2h1.54c.82,0,1.13.5,1.13,1s-.34,1-1.13,1Z"/>
          <polygon class="cls-2" points="82.76 71.65 95.51 71.65 95.51 66.97 88.94 66.97 88.94 65.92 95.26 65.92 95.26 61.5 88.94 61.5 88.94 60.42 95.51 60.42 95.51 55.74 82.76 55.74 82.76 71.65"/>
          <path class="cls-2" d="M112.87,61.61c0-4.76-3.84-5.84-7.8-5.87h-6.86v15.91h6.21v-4.23h.43l2.02,4.23h6.25v-.5l-2.59-4.91c1.41-.86,2.34-2.32,2.34-4.64ZM105.22,62.65h-.86v-2.14h.86c1.02,0,1.5.34,1.5,1.1s-.48,1.02-1.5,1.04Z"/>
          <path class="cls-2" d="M123.37,63.13v2.68h2.48c-.3.66-1.25.95-1.93.95-1.32,0-2.64-.78-2.64-2.97.02-3.14,3.57-3.68,4.68-1.55h6.11c-1.5-9.68-16.86-9.2-16.91,1.51.05,10.36,14.57,11.02,16.75,2.27.25-1.04.23-1.84.23-2.88h-8.78Z"/>
        </g>
        <g>
          <polygon class="cls-2" points="64.32 4.27 65.36 4.27 66.08 5.01 66.82 4.27 67.86 4.27 67.86 3.24 68.59 2.5 67.86 1.78 67.86 .74 66.82 .74 66.08 0 65.36 .74 64.32 .74 64.32 1.78 63.58 2.5 64.32 3.24 64.32 4.27"/>
          <polygon class="cls-2" points="56.14 5.56 57.03 5.56 57.66 6.2 58.3 5.56 59.2 5.56 59.2 4.67 59.83 4.03 59.2 3.4 59.2 2.51 58.3 2.51 57.66 1.87 57.03 2.51 56.14 2.51 56.14 3.4 55.5 4.03 56.14 4.67 56.14 5.56"/>
          <polygon class="cls-2" points="49.27 9.53 50.03 9.53 50.56 10.08 51.1 9.53 51.86 9.53 51.86 8.79 52.39 8.25 51.86 7.72 51.86 6.96 51.1 6.96 50.56 6.42 50.03 6.96 49.27 6.96 49.27 7.72 48.74 8.25 49.27 8.79 49.27 9.53"/>
          <polygon class="cls-2" points="44.28 15.63 44.9 15.63 45.33 16.07 45.77 15.63 46.39 15.63 46.39 15.02 46.82 14.58 46.39 14.15 46.39 13.53 45.77 13.53 45.33 13.09 44.9 13.53 44.28 13.53 44.28 14.15 43.85 14.58 44.28 15.02 44.28 15.63"/>
          <polygon class="cls-2" points="41.73 23.3 42.21 23.3 42.54 23.64 42.88 23.3 43.36 23.3 43.36 22.83 43.69 22.49 43.36 22.15 43.36 21.68 42.88 21.68 42.54 21.33 42.21 21.68 41.73 21.68 41.73 22.15 41.4 22.49 41.73 22.83 41.73 23.3"/>
          <polygon class="cls-2" points="76.02 5.56 75.12 5.56 74.49 6.2 73.85 5.56 72.95 5.56 72.95 4.67 72.32 4.03 72.95 3.4 72.95 2.51 73.85 2.51 74.49 1.87 75.12 2.51 76.02 2.51 76.02 3.4 76.65 4.03 76.02 4.67 76.02 5.56"/>
          <polygon class="cls-2" points="82.88 9.53 82.12 9.53 81.59 10.08 81.05 9.53 80.29 9.53 80.29 8.79 79.76 8.25 80.29 7.72 80.29 6.96 81.05 6.96 81.59 6.42 82.12 6.96 82.88 6.96 82.88 7.72 83.42 8.25 82.88 8.79 82.88 9.53"/>
          <polygon class="cls-2" points="87.87 15.63 87.25 15.63 86.82 16.07 86.38 15.63 85.76 15.63 85.76 15.02 85.33 14.58 85.76 14.15 85.76 13.53 86.38 13.53 86.82 13.09 87.25 13.53 87.87 13.53 87.87 14.15 88.3 14.58 87.87 15.02 87.87 15.63"/>
          <polygon class="cls-2" points="90.42 23.3 89.94 23.3 89.61 23.64 89.27 23.3 88.79 23.3 88.79 22.83 88.46 22.49 88.79 22.15 88.79 21.68 89.27 21.68 89.61 21.33 89.94 21.68 90.42 21.68 90.42 22.15 90.76 22.49 90.42 22.83 90.42 23.3"/>
          <path class="cls-2" d="M67.12,14.69c-2.74,4.02-10.56,15.44-22.02,22.92,0,0,0,0,0,.01,1.22,1.97,2.71,3.76,4.43,5.31,11.75-2.58,21.68-8.04,27.63-16.16l-10.04-12.09ZM83.14,22.49c-1.81,4.97-12.18,18.06-31.9,21.87.31.24.64.47.96.69,3.98,2.72,8.63,4.19,13.47,4.27h0s.39,0,.4,0c.06,0,.26,0,.26,0,3.01-.03,5.96-.6,8.74-1.68.01,0,.04-.01.05-.02,3.83-1.51,7.25-3.99,9.91-7.17,2.52-3.03,4.29-6.63,5.13-10.45l-7.02-7.51ZM50.46,19.52c-1.4,2.09-4.81,6.89-8.46,10.47.46,2.09,1.19,4.1,2.17,5.99.01.03.03.06.05.09,4.66-3.21,8.66-7.45,11.37-11.24l-5.14-5.31Z"/>
        </g>
      </g>
      <text class="cls-1" transform="translate(3.87 82.61)"><tspan class="cls-4" x="0" y="0">O</tspan><tspan class="cls-5" x="5.3" y="0">S</tspan><tspan class="cls-4" x="10.39" y="0">TEURO</tspan><tspan class="cls-6" x="35.04" y="0">P</tspan><tspan class="cls-3" x="39.52" y="0">ÄISCHE LEBENSMITTEL</tspan></text>
    </g>
  </g>
</svg>