<?xml version="1.0" encoding="UTF-8"?>
<svg id="Layer_2" data-name="Layer 2" xmlns="http://www.w3.org/2000/svg" viewBox="0 0 122.1 81.1">
  <defs>
    <style>
      .cls-1 {
        opacity: .2;
      }

      .cls-2 {
        fill: #fff;
        stroke-width: 0px;
      }
    </style>
  </defs>
  <g id="Layer_1-2" data-name="Layer 1">
    <g>
      <g class="cls-1">
        <path class="cls-2" d="M69.32,40.69c-.09-.09-.22-.14-.35-.14h-1.33s0,0,0,0h1.32c.13,0,.26-.05.35-.14l5.58-5.58c.19-.19.19-.51,0-.7-.09-.09-.22-.14-.35-.14h-6.43c-.27,0-.49-.22-.49-.49h0v-6.43c0-.27-.23-.49-.5-.49-.13,0-.25.05-.34.14l-5.58,5.58c-.09.09-.14.22-.14.35v1.33s0,0,0,0v-1.33c0-.13-.05-.26-.14-.35l-5.58-5.58c-.19-.19-.51-.19-.7,0-.09.09-.14.22-.14.35v6.43c0,.27-.22.49-.49.49h-6.43c-.27,0-.49.22-.49.5,0,.13.05.26.15.35l5.58,5.58c.09.09.22.14.35.14h1.33s0,0,0,0h-1.33c-.13,0-.26.05-.35.14l-5.58,5.58c-.19.19-.19.51,0,.7.09.09.22.14.35.14h6.43c.27,0,.49.22.49.49h0v6.43c0,.27.22.5.49.5.13,0,.26-.05.35-.15l5.58-5.58c.09-.09.14-.22.14-.35v-1.33s0,0,0,0v1.33c0,.13.05.26.14.35l5.58,5.58c.19.19.51.19.7,0,.09-.09.14-.22.14-.35v-6.43c0-.27.22-.49.49-.49h6.43c.27,0,.5-.22.5-.49,0-.13-.05-.26-.15-.36l-5.58-5.58Z"/>
        <path class="cls-2" d="M77.7,40.35c-.17-.19-.46-.2-.64-.03-.01,0-.03.02-.04.03-.04.03-.08.08-.11.11-.12.13-.3.15-.44.07-.09-.05-.14-.16-.12-.27.01-.2.17-.25.33-.27.09-.02.19-.02.28-.03.22,0,.4-.19.39-.41h0c.01-.24-.17-.44-.4-.46h0c-.21-.05-.43.08-.48.28,0,0,0,.01,0,.02-.02.11-.04.23-.05.34,0,.14-.1.26-.23.28-.09.03-.19,0-.24-.09-.07-.11-.06-.26.02-.36.06-.08.14-.15.21-.23.15-.14.17-.38.03-.54-.02-.02-.04-.04-.06-.05-.17-.17-.44-.19-.62-.03-.18.11-.24.35-.13.54,0,.02.02.03.03.05.05.07.11.14.18.2.13.11.15.29.05.43-.05.08-.16.11-.25.07-.15-.04-.24-.18-.23-.33,0-.07,0-.13,0-.2,0-.24-.19-.43-.43-.44-.01,0-.03,0-.04,0-.23-.02-.44.15-.46.39h0c-.04.23.11.44.33.48.03,0,.05,0,.08,0,.11.01.21.03.32.05.14.03.25.1.26.25.03.11-.03.22-.12.27-.13.08-.3.07-.41-.03-.05-.04-.1-.09-.15-.13-.21-.18-.46-.29-.68-.08-.19.17-.2.46-.03.65,0,0,.01.01.02.02.21.23.46.14.68-.03.05-.05.1-.08.16-.12.11-.08.26-.09.38-.02.1.07.15.19.12.31-.03.15-.15.21-.29.23-.1.02-.22,0-.32.02-.24.01-.41.21-.4.45h0c0,.25.2.44.44.44.01,0,.03,0,.04,0,.23.02.43-.15.45-.38v-.03c0-.1,0-.2.02-.31.06-.16.19-.28.37-.2.13.04.2.18.15.32,0,.03-.02.05-.04.07-.07.1-.15.19-.23.27-.14.13-.17.33-.08.5.09.16.26.25.44.23.18.01.35-.08.43-.24.09-.15.06-.34-.06-.46-.1-.09-.18-.19-.24-.31-.05-.15-.04-.33.17-.37.14-.03.28.06.31.2,0,0,0,.02,0,.03.02.1,0,.21.02.31,0,.24.2.43.45.42.01,0,.03,0,.04,0,.23.01.44-.16.45-.4h0c.03-.25-.14-.46-.38-.49h-.05c-.22-.03-.49.03-.55-.28-.03-.12.03-.24.14-.29.27-.13.38.08.54.2.17.19.46.2.65.03,0,0,.02-.02.03-.03.18-.17.18-.45,0-.63,0,0,0,0-.01,0ZM75.78,41.06c-.23,0-.41-.19-.41-.41s.18-.41.41-.41.41.18.41.41-.18.41-.41.41Z"/>
        <path class="cls-2" d="M62.98,55.08c-.17-.18-.46-.2-.64-.03-.01.01-.02.03-.03.04-.04.03-.08.07-.12.11-.11.12-.29.15-.44.06-.09-.05-.14-.16-.12-.27.01-.2.17-.25.33-.27.09-.02.19-.02.28-.03.22,0,.4-.19.39-.41,0,0,0,0,0,0,.02-.24-.16-.44-.4-.45,0,0,0,0,0,0-.21-.05-.43.08-.48.29,0,0,0,.01,0,.02-.02.11-.04.23-.05.34,0,.14-.1.26-.23.28-.09.03-.2,0-.24-.09-.08-.11-.07-.26.02-.36.06-.08.14-.15.21-.23.15-.14.17-.38.02-.54-.02-.02-.03-.03-.05-.05-.17-.17-.44-.18-.62-.03-.18.11-.24.35-.13.54.01.02.02.03.03.05.06.08.12.14.18.2.13.11.15.29.05.43-.05.08-.16.11-.25.07-.15-.04-.24-.18-.23-.33,0-.06,0-.13,0-.19,0-.24-.19-.43-.43-.44-.01,0-.03,0-.04,0-.23-.02-.44.15-.46.39,0,0,0,0,0,.01-.04.22.11.43.33.47.03,0,.05,0,.08,0,.1.01.21.03.31.05.14.03.25.1.26.26.02.1-.03.21-.12.27-.13.08-.3.07-.41-.03-.05-.04-.1-.09-.15-.13-.2-.18-.46-.29-.68-.08-.19.17-.2.46-.03.65,0,0,.01.01.02.02.21.23.46.14.68-.03.05-.04.1-.08.16-.12.11-.08.26-.09.38-.02.1.07.15.19.13.31-.03.15-.15.21-.29.23-.11.01-.22,0-.32.01-.23.01-.41.21-.4.45h0c0,.25.2.44.44.43h.04c.23.02.43-.15.45-.38v-.03c0-.1,0-.21.02-.31.05-.16.18-.28.36-.21.13.05.2.19.15.32,0,.03-.02.05-.04.07-.07.1-.15.19-.23.27-.14.13-.17.33-.07.5.08.15.26.24.43.22.18.01.35-.08.43-.24.09-.15.06-.34-.06-.46-.1-.09-.18-.19-.24-.31-.05-.15-.04-.33.16-.38.14-.03.28.06.31.2,0,0,0,.02,0,.03.02.1,0,.21.02.31,0,.24.21.43.45.42.01,0,.03,0,.03,0,.23.02.44-.16.45-.4h0c.03-.25-.14-.46-.38-.49h-.04c-.22-.03-.49.03-.55-.28-.03-.12.03-.24.14-.29.27-.13.38.08.54.2.17.19.46.2.65.03.01-.01.03-.02.03-.03.18-.17.18-.45,0-.63,0,0,0,0-.01-.01ZM61.06,55.79c-.23,0-.41-.19-.41-.41s.18-.41.41-.41.41.18.41.41-.18.41-.41.41Z"/>
        <path class="cls-2" d="M59.04,26.1c.21.23.46.14.69-.03.05-.04.1-.08.15-.12.11-.08.26-.09.38-.02.1.07.15.19.13.31-.03.15-.15.21-.29.23-.11.02-.22,0-.32.02-.23.01-.41.21-.4.45h0c0,.25.2.44.44.44.02,0,.03,0,.04,0,.23.02.43-.15.45-.38,0,0,0-.02,0-.03,0-.1,0-.2.02-.31.05-.16.18-.28.36-.21.13.05.2.19.15.32,0,.03-.02.05-.04.07-.07.1-.15.18-.23.26-.14.13-.18.34-.08.5.08.16.26.25.43.23.18.02.35-.08.43-.24.09-.15.07-.34-.06-.46-.1-.09-.18-.19-.24-.31-.06-.15-.05-.33.16-.37.14-.03.28.06.31.2,0,.01,0,.02,0,.03.02.1,0,.21.02.31,0,.24.21.43.45.42h.04c.23.01.43-.17.45-.4h0c.03-.25-.14-.46-.38-.48-.02,0-.03,0-.05,0-.22-.03-.49.03-.55-.27-.03-.12.03-.25.14-.3.27-.13.38.08.54.2.17.19.46.21.65.03,0-.01.02-.02.03-.03.18-.17.18-.45,0-.63h-.01c-.17-.2-.46-.21-.64-.04l-.04.04s-.08.07-.11.11c-.11.12-.3.15-.44.06-.09-.05-.14-.16-.12-.27.01-.2.17-.25.33-.27.09-.02.19-.01.28-.03.22,0,.4-.18.39-.41h0c.01-.24-.16-.45-.4-.46h0c-.21-.05-.43.07-.48.28,0,0,0,.01,0,.02-.02.12-.04.23-.05.35,0,.13-.1.25-.23.28-.09.03-.2,0-.24-.09-.07-.11-.06-.26.02-.37.06-.08.14-.15.21-.23.15-.14.17-.38.03-.54-.02-.02-.04-.04-.05-.05-.17-.17-.44-.19-.63-.03-.18.11-.24.35-.13.54,0,.02.02.03.03.05.05.07.11.14.18.2.13.11.15.29.05.43-.05.08-.15.11-.25.07-.15-.04-.24-.18-.23-.33,0-.07,0-.13,0-.2,0-.24-.19-.43-.43-.44h-.04c-.23-.02-.44.16-.46.39t0,0c-.03.22.11.43.33.47.03,0,.05,0,.08,0,.1.01.21.03.32.05.14.03.25.1.26.25.02.11-.03.22-.12.27-.13.08-.29.07-.41-.03-.05-.04-.1-.09-.14-.13-.21-.18-.46-.29-.68-.08-.19.17-.2.46-.03.65,0,0,.01.01.02.02ZM60.95,25.4c.23,0,.42.18.42.41s-.19.41-.42.41-.41-.18-.41-.41.19-.41.41-.41Z"/>
        <path class="cls-2" d="M47.31,42.14c.23.01.44-.17.45-.4h0c.03-.25-.14-.46-.38-.48-.02,0-.03,0-.05,0-.22-.03-.49.03-.55-.27-.03-.12.03-.25.14-.3.27-.13.38.08.54.2.17.19.46.2.65.03,0-.01.02-.02.03-.03.18-.17.18-.45,0-.63,0,0,0,0-.01-.01-.17-.18-.46-.2-.64-.03-.01.01-.03.03-.04.04-.04.03-.08.07-.11.11-.12.12-.3.15-.44.06-.09-.05-.14-.16-.12-.27.01-.2.17-.25.33-.27.09-.02.19-.01.28-.03.22,0,.4-.19.39-.41h0c.01-.24-.17-.45-.4-.46h0c-.21-.05-.43.07-.48.28,0,0,0,.01,0,.02-.02.12-.04.23-.05.35,0,.13-.1.25-.23.28-.09.03-.2,0-.24-.09-.07-.11-.06-.26.02-.36.06-.08.14-.15.21-.23.15-.14.17-.38.03-.54-.02-.02-.04-.04-.05-.05-.17-.17-.44-.19-.63-.03-.18.11-.24.36-.13.54,0,.02.02.03.03.05.05.08.11.14.18.2.13.11.15.29.05.43-.05.08-.16.11-.25.07-.15-.04-.24-.18-.23-.33,0-.07,0-.13,0-.2,0-.23-.19-.43-.43-.44-.01,0-.03,0-.04,0-.23-.02-.44.15-.46.39h0c-.04.23.11.44.33.48.03,0,.05,0,.08,0,.1.01.21.03.31.05.14.03.25.1.26.25.02.11-.03.22-.12.27-.13.08-.3.07-.41-.03-.05-.04-.1-.09-.15-.13-.21-.18-.46-.29-.68-.08-.19.17-.2.46-.03.65l.02.02c.21.23.46.14.68-.03.05-.04.1-.08.16-.12.11-.08.26-.09.38-.02.1.07.15.19.13.31-.03.15-.15.21-.29.23-.11.02-.22,0-.32.02-.23.01-.41.22-.4.45h0c0,.25.2.44.44.44h.04c.23.02.43-.15.45-.38v-.03c0-.1,0-.2.02-.31.06-.16.19-.28.37-.21.13.05.2.19.15.32,0,.03-.02.05-.04.07-.07.1-.15.19-.23.27-.14.13-.17.34-.07.5.08.15.26.25.44.22.18.02.34-.08.42-.24.09-.15.07-.34-.06-.46-.1-.09-.18-.19-.24-.31-.06-.15-.05-.33.16-.37.14-.03.28.06.31.2,0,.01,0,.02,0,.03.02.1,0,.21.02.31,0,.24.21.43.45.42h.04ZM46.22,40.96c-.23,0-.41-.18-.41-.41s.19-.41.41-.41.41.18.41.41-.18.41-.41.41Z"/>
        <path class="cls-2" d="M98.65,44.72c-.91-.9-1.92-1.67-3.02-2.32-.83-.5-1.72-.91-2.64-1.21l-1.68-.56,1.61-.75c.23-.1.46-.18.69-.26.13-.05.27-.09.39-.13,4.27-1.64,8.34-6.09,7.49-11.08-.31-1.8-1.33-3.61-2.94-5.23-1.76-1.72-3.87-3.04-6.19-3.86-2.28-.8-4.79-.65-6.97.42-2.74,1.39-4.18,3.34-4.4,5.97-.14,1.59.65,3.42,2.12,4.89,1.07,1.15,2.51,1.88,4.07,2.07,1.34.09,3.44-.28,3.72-1.64.05-.5-.13-1-.5-1.35-.09-.1-.2-.18-.32-.24-.33-.18-.59-.13-1.13,0-.68.22-1.41.22-2.08,0-.5-.18-.95-.48-1.32-.86-.87-.83-1.31-2.02-1.18-3.23.24-1.56,1.7-2.76,4.1-3.35,3.93-.98,7.18,1.94,7.32,2.06.05.04.13.12.23.23.8.79,2.64,2.97,2.52,5.88-.05,1-.29,1.97-.72,2.87-.6,1.38-1.48,2.62-2.59,3.65-1.77,1.57-3.84,1.75-5.08,1.86l-.2.02c-1.69.23-3.42,0-4.99-.69-.53-.25-1.02-.54-2.98-2.3-1.28-1.15-2.54-2.35-3.84-3.65l-.33-.33c-1.29-1.3-2.6-2.62-3.86-3.92-1.31-1.28-2.64-2.58-3.94-3.87l-.33-.33c-1.3-1.3-2.49-2.56-3.65-3.84-1.77-1.96-2.06-2.46-2.3-2.98-.69-1.57-.92-3.29-.69-4.99l.02-.2c.11-1.24.28-3.31,1.86-5.08,1.02-1.11,2.26-1.99,3.64-2.59.9-.43,1.88-.68,2.87-.72,2.92-.12,5.08,1.72,5.88,2.52.11.11.18.19.22.23.13.14,3.04,3.39,2.06,7.32-.6,2.41-1.79,3.87-3.35,4.1-1.2.13-2.4-.31-3.23-1.18-.38-.37-.67-.82-.86-1.32-.21-.67-.21-1.4,0-2.08.13-.53.18-.8,0-1.13-.06-.12-.15-.23-.24-.32-.35-.37-.84-.55-1.35-.5-1.36.28-1.73,2.38-1.64,3.72.18,1.56.92,3,2.07,4.07,1.46,1.47,3.29,2.26,4.88,2.12,2.64-.23,4.59-1.67,5.97-4.4,1.07-2.18,1.23-4.68.42-6.97-.82-2.32-2.13-4.43-3.86-6.19-1.62-1.62-3.43-2.64-5.23-2.94-4.99-.85-9.44,3.23-11.08,7.49-.05.13-.09.26-.13.39-.07.24-.15.47-.26.69l-.75,1.61-.56-1.69c-.31-.92-.71-1.8-1.21-2.64-.65-1.1-1.43-2.12-2.32-3.02-1.28-1.37-2.95-2.31-4.79-2.71-4.97-.93-9.29,3.54-10.89,6.04-1.45,2.27-2.08,4.57-1.88,6.82.1.99.35,1.97.76,2.88.42.97,1.02,1.86,1.76,2.61.29.29.61.56.94.8,1.04.82,2.33,1.26,3.65,1.26,1.03-.08,2.04-.4,2.92-.93,1.76-1.02,3.68-2.98,3.77-5.4.05-1.44-.24-2.6-.82-3.17-.08-.08-.15-.14-.24-.2-.66-.34-1.46-.23-2,.28-.29.33-.23.78-.11,1.54.14.84.31,1.88-.34,2.87-.94,1.44-3.2,2.07-4.95,1.38-.46-.18-.87-.45-1.21-.79-1.44-1.44-1.54-3.91-1.51-4.9.07-2.45,1.36-4.15,1.98-4.97.74-.97,2.1-2.77,4.53-3.41,3.15-.83,6.16.76,7.93,2.53.38.38.72.79,1.03,1.22.79,1.18,1.31,2.53,1.52,3.93.34,1.48.26,3.03-.21,4.48-.39,1.05-.9,1.6-2.27,3.09l-.19.2c-1.82,1.98-2.43,2.68-2.79,3.1-.33.38-.46.54-1.06,1.15-1.2,1.22-8.04,8.06-9.26,9.26-.61.59-.77.73-1.14,1.06-.42.37-1.12.97-3.1,2.79l-.2.19c-1.48,1.37-2.04,1.88-3.09,2.27-1.45.48-3,.55-4.48.21-1.41-.21-2.75-.74-3.93-1.52-.44-.31-.84-.65-1.22-1.03-1.77-1.77-3.36-4.78-2.53-7.93.64-2.43,2.44-3.79,3.41-4.53.82-.62,2.52-1.92,4.97-1.98,1-.03,3.46.07,4.9,1.51.35.35.62.76.8,1.21.69,1.74.05,4.01-1.39,4.95-.99.64-2.03.47-2.87.34-.77-.13-1.21-.18-1.54.11-.51.54-.62,1.34-.28,2,.06.09.13.17.2.24.58.57,1.73.87,3.17.82,2.43-.09,4.38-2.01,5.41-3.77.54-.89.85-1.89.93-2.92,0-1.32-.45-2.61-1.26-3.65-.24-.33-.51-.65-.8-.94-.75-.74-1.64-1.34-2.61-1.76-.91-.41-1.89-.67-2.88-.76-2.25-.2-4.55.43-6.82,1.88-2.49,1.59-6.97,5.92-6.03,10.88.39,1.84,1.34,3.51,2.71,4.79.91.9,1.92,1.68,3.02,2.32.83.5,1.71.91,2.64,1.21l1.68.56-1.61.75c-.23.1-.46.18-.7.26-.13.04-.26.09-.39.13-4.27,1.64-8.34,6.09-7.49,11.08.31,1.8,1.33,3.61,2.94,5.23,1.76,1.72,3.87,3.04,6.19,3.86,2.28.8,4.8.65,6.97-.42,2.74-1.38,4.18-3.34,4.4-5.97.14-1.59-.65-3.42-2.12-4.89-1.08-1.15-2.52-1.88-4.08-2.07-1.34-.08-3.44.28-3.72,1.64-.05.5.14,1,.5,1.35.09.1.2.18.32.24.33.18.6.12,1.13,0,.68-.22,1.41-.22,2.08,0,.5.18.95.48,1.32.86.87.83,1.31,2.02,1.18,3.23-.24,1.56-1.7,2.75-4.11,3.35-3.92.97-7.18-1.94-7.32-2.06-.04-.04-.12-.12-.23-.23-.8-.79-2.64-2.97-2.52-5.88.05-1,.29-1.97.72-2.87.6-1.38,1.48-2.62,2.59-3.64,1.77-1.57,3.84-1.75,5.08-1.86l.2-.02c1.69-.23,3.42,0,4.99.69.53.25,1.02.54,2.98,2.3,1.28,1.16,2.54,2.35,3.84,3.65l.33.33c1.29,1.3,2.6,2.62,3.86,3.92,1.31,1.28,2.64,2.59,3.94,3.87l.33.33c1.3,1.3,2.5,2.56,3.65,3.84,1.77,1.96,2.06,2.45,2.3,2.98.69,1.56.92,3.29.69,4.98l-.02.2c-.11,1.24-.28,3.3-1.86,5.08-1.02,1.11-2.26,1.99-3.65,2.59-.9.43-1.87.68-2.87.72-2.91.13-5.08-1.72-5.88-2.51-.11-.11-.18-.19-.23-.23-.12-.14-3.03-3.39-2.06-7.32.6-2.41,1.79-3.87,3.35-4.11,1.2-.13,2.39.31,3.23,1.18.38.37.67.82.86,1.32.22.68.21,1.41,0,2.08-.13.53-.18.8,0,1.13.07.12.15.23.24.32.35.36.84.55,1.35.5,1.36-.28,1.73-2.38,1.64-3.72-.18-1.56-.92-3.01-2.07-4.08-1.47-1.46-3.29-2.26-4.89-2.12-2.63.23-4.58,1.67-5.97,4.41-1.07,2.17-1.22,4.68-.42,6.97.82,2.32,2.13,4.43,3.86,6.18,1.62,1.62,3.43,2.64,5.23,2.94,4.99.85,9.44-3.22,11.08-7.49.05-.13.09-.26.13-.39.07-.23.15-.47.26-.69l.75-1.61.56,1.69c.31.92.71,1.8,1.21,2.64.65,1.1,1.43,2.12,2.32,3.02.64.68,1.38,1.26,2.19,1.72.81.46,1.69.79,2.6.99,4.97.93,9.29-3.54,10.89-6.04,1.45-2.28,2.08-4.58,1.88-6.83-.1-1-.36-1.97-.77-2.88-.42-.97-1.01-1.86-1.76-2.61-.29-.29-.61-.56-.94-.8-1.04-.82-2.33-1.26-3.65-1.26-1.03.08-2.03.4-2.92.93-1.76,1.02-3.68,2.98-3.77,5.41-.05,1.44.24,2.59.82,3.17.07.08.15.14.24.2.66.34,1.46.22,2-.29.29-.33.23-.77.11-1.54-.14-.84-.31-1.88.34-2.87.94-1.44,3.21-2.07,4.95-1.38.46.18.87.45,1.21.8,1.44,1.44,1.54,3.91,1.51,4.9-.06,2.45-1.36,4.15-1.98,4.97-.73.97-2.1,2.76-4.53,3.4-3.15.83-6.16-.76-7.93-2.53-.38-.38-.72-.79-1.03-1.23-.79-1.18-1.31-2.52-1.52-3.93-.34-1.48-.26-3.03.21-4.48.38-1.05.9-1.61,2.27-3.1l.18-.2c1.82-1.98,2.43-2.68,2.79-3.1.33-.38.46-.54,1.06-1.14,1.2-1.23,8.04-8.06,9.26-9.26.61-.6.77-.73,1.14-1.06.42-.36,1.12-.97,3.1-2.79l.2-.18c1.48-1.37,2.05-1.88,3.09-2.27,1.45-.48,2.99-.55,4.48-.22,1.41.22,2.75.74,3.93,1.53.43.31.84.65,1.22,1.03,1.77,1.77,3.36,4.78,2.53,7.93-.64,2.42-2.44,3.79-3.41,4.53-.82.62-2.52,1.92-4.97,1.98-1,.03-3.46-.07-4.9-1.51-.35-.34-.62-.76-.8-1.21-.69-1.74-.05-4.01,1.39-4.95.99-.64,2.03-.48,2.87-.34.77.13,1.21.18,1.54-.11.51-.54.62-1.34.28-2-.06-.09-.13-.17-.2-.24-.58-.57-1.73-.87-3.17-.82-2.43.09-4.38,2.01-5.4,3.77-.54.89-.86,1.89-.94,2.92,0,1.33.45,2.61,1.26,3.65.24.33.51.65.8.94.75.74,1.64,1.34,2.61,1.76.91.41,1.88.67,2.88.76,2.25.2,4.55-.43,6.82-1.88,2.5-1.59,6.97-5.92,6.03-10.89-.39-1.83-1.34-3.51-2.71-4.79ZM82.19,43.49l-18.2,18.2c-1.33,1.33-3.5,1.33-4.83,0l-9.62-9.62-9.62-9.62c-1.33-1.33-1.33-3.5,0-4.83l18.2-18.2c1.33-1.33,3.5-1.33,4.83,0l9.62,9.62,9.62,9.62c1.33,1.33,1.33,3.5,0,4.83Z"/>
      </g>
      <g>
        <g>
          <path class="cls-2" d="M46.57,56.24c.58,0,.89.31.89.9v1.75c0,.58-.31.9-.89.9h-.77v-3.54h.77ZM46.34,59.29h.21c.26,0,.37-.14.37-.44v-1.68c0-.3-.12-.44-.37-.44h-.21v2.55Z"/>
          <path class="cls-2" d="M49.53,56.74v1h.78v.5h-.78v1.05h.97v.5h-1.51v-3.54h1.51v.5h-.97Z"/>
          <path class="cls-2" d="M52.71,58.29h-.25v1.5h-.54v-3.54h.77c.58,0,.89.31.89.9v.25c0,.37-.13.64-.38.78l.49,1.62h-.57l-.43-1.5ZM52.46,57.79h.22c.26,0,.37-.14.37-.44v-.18c0-.3-.12-.44-.37-.44h-.22v1.05Z"/>
          <path class="cls-2" d="M58.62,57.04v.24l-.52.03v-.21c0-.28-.11-.41-.31-.41s-.31.13-.31.36v1.93c0,.23.1.36.31.36s.31-.13.31-.41v-.61h-.3v-.5h.83v1.16c0,.54-.31.85-.85.85s-.84-.31-.84-.85v-1.94c0-.54.3-.85.84-.85s.85.31.85.85Z"/>
          <path class="cls-2" d="M60.68,56.74v1h.78v.5h-.78v1.05h.97v.5h-1.51v-3.54h1.51v.5h-.97Z"/>
          <path class="cls-2" d="M64.55,57v.1l-.52.05v-.11c0-.24-.09-.35-.28-.35-.16,0-.27.09-.27.29v.08c0,.2.1.36.45.68.48.44.64.73.64,1.14v.17c0,.52-.33.79-.82.79s-.83-.29-.83-.81v-.23l.52-.05v.24c0,.24.11.35.3.35.16,0,.29-.09.29-.34v-.11c0-.22-.1-.38-.45-.7-.48-.44-.64-.73-.64-1.11v-.09c0-.52.3-.79.8-.79s.8.29.8.81Z"/>
          <path class="cls-2" d="M67.56,57.04v.32l-.52.03v-.29c0-.28-.11-.41-.3-.41s-.3.13-.3.36v1.93c0,.23.11.36.3.36s.3-.13.3-.41v-.39l.52.03v.43c0,.54-.31.85-.84.85s-.83-.31-.83-.85v-1.94c0-.54.3-.85.83-.85s.84.31.84.85Z"/>
          <path class="cls-2" d="M70.2,59.79v-1.54h-.64v1.54h-.54v-3.54h.54v1.49h.64v-1.49h.54v3.54h-.54Z"/>
          <path class="cls-2" d="M74.06,59.79v-2.46h-.01l-.45,1.95h-.32l-.45-1.95h-.01v2.46h-.51v-3.54h.7l.42,1.9h.01l.42-1.9h.72v3.54h-.54Z"/>
          <path class="cls-2" d="M77.36,59.79l-.12-.8h-.59l-.12.8h-.54l.61-3.54h.68l.61,3.54h-.55ZM76.72,58.5h.45l-.22-1.49h-.02l-.22,1.49Z"/>
          <path class="cls-2" d="M80.88,57.04v.32l-.52.03v-.29c0-.28-.11-.41-.3-.41s-.3.13-.3.36v1.93c0,.23.11.36.3.36s.3-.13.3-.41v-.39l.52.03v.43c0,.54-.31.85-.84.85s-.83-.31-.83-.85v-1.94c0-.54.3-.85.83-.85s.84.31.84.85Z"/>
          <path class="cls-2" d="M84.17,59.79h-.57l-.53-1.55-.23.46v1.09h-.54v-3.54h.54v1.48h.01l.74-1.48h.56l-.73,1.41.74,2.14Z"/>
          <path class="cls-2" d="M87.7,59.79l-.6-3.54h.55l.4,2.7h.01l.39-2.7h.54l-.6,3.54h-.69Z"/>
          <path class="cls-2" d="M92.04,57.09v1.85c0,.56-.33.9-.87.9s-.87-.34-.87-.9v-1.85c0-.56.33-.9.87-.9s.87.34.87.9ZM90.85,57.09v1.84c0,.26.12.4.33.4s.33-.14.33-.4v-1.84c0-.26-.12-.4-.33-.4s-.33.14-.33.4Z"/>
          <path class="cls-2" d="M94.79,59.79l-.7-2.35h-.01v2.35h-.51v-3.54h.6l.63,2.11h.01v-2.11h.51v3.54h-.53Z"/>
          <path class="cls-2" d="M100,59.79l-.12-.8h-.59l-.12.8h-.54l.61-3.54h.68l.61,3.54h-.55ZM99.37,58.5h.45l-.22-1.49h-.02l-.22,1.49Z"/>
          <path class="cls-2" d="M102.68,58.29h-.25v1.5h-.54v-3.54h.77c.58,0,.89.31.89.9v.25c0,.37-.13.64-.38.78l.49,1.62h-.57l-.43-1.5ZM102.43,57.79h.22c.26,0,.37-.14.37-.44v-.18c0-.3-.12-.44-.37-.44h-.22v1.05Z"/>
          <path class="cls-2" d="M106.81,59.79v-2.46h-.01l-.45,1.95h-.32l-.45-1.95h-.01v2.46h-.51v-3.54h.7l.42,1.9h.01l.42-1.9h.72v3.54h-.54Z"/>
          <path class="cls-2" d="M109.48,56.74v1h.78v.5h-.78v1.05h.97v.5h-1.51v-3.54h1.51v.5h-.97Z"/>
          <path class="cls-2" d="M113.14,59.79l-.7-2.35h-.01v2.35h-.51v-3.54h.6l.63,2.11h.01v-2.11h.51v3.54h-.53Z"/>
          <path class="cls-2" d="M115.25,59.79v-3.54h.54v3.54h-.54Z"/>
          <path class="cls-2" d="M117.91,56.74v1h.78v.5h-.78v1.05h.97v.5h-1.51v-3.54h1.51v.5h-.97Z"/>
          <path class="cls-2" d="M121.57,59.79l-.7-2.35h-.01v2.35h-.51v-3.54h.6l.63,2.11h.01v-2.11h.51v3.54h-.53Z"/>
        </g>
        <g>
          <path class="cls-2" d="M79.55,51.64c-2.11,0-4.23,0-6.34,0-.76,0-1.49-.16-2.21-.43-.5-.18-.97-.42-1.41-.71-.63-.42-1.19-.92-1.66-1.53-.36-.48-.67-.99-.91-1.54-.15-.35-.27-.72-.37-1.09-.15-.55-.23-1.11-.22-1.69,0-.65.53-1.05,1.16-.88.35.1.61.45.63.85.02.3.03.6.06.9.04.38.17.75.32,1.1.17.42.39.82.68,1.17.49.62,1.08,1.12,1.78,1.49.8.42,1.65.58,2.54.58,3.97,0,7.93,0,11.9,0,.74,0,1.47-.11,2.15-.4.7-.3,1.32-.72,1.84-1.29.4-.44.73-.93.96-1.47.16-.37.28-.75.35-1.16.07-.4.08-.8.07-1.21-.01-.45-.1-.9-.24-1.33-.14-.44-.33-.86-.59-1.24-.45-.69-1.02-1.25-1.74-1.66-.43-.25-.89-.43-1.37-.55-.56-.15-1.11-.32-1.66-.48-.45-.13-.89-.27-1.34-.4-.49-.14-.99-.28-1.48-.42-.64-.18-1.28-.36-1.92-.55-.57-.16-1.13-.33-1.7-.49-.63-.18-1.25-.36-1.88-.54-.57-.17-1.14-.33-1.72-.5-.61-.18-1.21-.35-1.82-.52-.79-.23-1.58-.46-2.36-.71-.6-.2-1.15-.51-1.67-.87-.75-.53-1.37-1.18-1.87-1.95-.25-.39-.46-.81-.63-1.25-.17-.42-.28-.86-.36-1.3-.13-.68-.18-1.38-.06-2.07.06-.37.12-.75.22-1.11.1-.36.25-.71.39-1.06.15-.38.36-.72.6-1.05.39-.57.86-1.07,1.4-1.5.49-.39,1.03-.7,1.6-.95.43-.19.89-.32,1.35-.42.69-.14,1.39-.16,2.09-.16,3.75,0,7.51,0,11.26,0,.71,0,1.4.08,2.08.26.84.22,1.61.6,2.32,1.12.51.37.96.8,1.35,1.28.26.32.48.67.69,1.02.34.6.57,1.25.72,1.92.08.39.09.79.13,1.18.01.14,0,.27,0,.41-.03.37-.34.71-.69.78-.36.07-.77-.11-.95-.43-.11-.19-.16-.41-.16-.63.01-.44-.07-.88-.19-1.3-.14-.45-.32-.88-.58-1.29-.31-.49-.69-.93-1.13-1.3-.41-.34-.86-.61-1.35-.81-.69-.28-1.41-.4-2.15-.4-3.95,0-7.9,0-11.86,0-.48,0-.96.05-1.43.17-1.23.31-2.22.98-2.97,2-.38.52-.65,1.09-.82,1.71-.21.74-.23,1.49-.1,2.24.19,1.15.73,2.13,1.58,2.93.52.49,1.12.86,1.79,1.1.24.09.5.16.75.23.47.14.93.28,1.4.41.76.22,1.52.43,2.28.64.45.13.89.27,1.34.4.57.17,1.14.33,1.72.5.44.13.88.24,1.33.37.59.17,1.18.35,1.78.52.65.19,1.29.36,1.94.55.74.21,1.47.44,2.21.65.44.13.89.23,1.33.37.44.14.88.31,1.29.53.58.32,1.11.7,1.59,1.17.68.67,1.21,1.44,1.58,2.33.16.4.29.81.39,1.23.07.29.09.58.12.88.05.65.04,1.31-.09,1.95-.09.43-.24.84-.39,1.25-.09.24-.21.48-.33.71-.41.75-.93,1.42-1.59,1.98-.74.63-1.57,1.09-2.5,1.4-.64.21-1.3.31-1.98.31-2.09,0-4.17,0-6.26,0h0Z"/>
          <path class="cls-2" d="M1.76,49.87h24.29c.01-.17-.08-.31-.13-.45-.32-.77-.65-1.54-.98-2.31-.22-.51-.44-1.02-.66-1.53-.22-.51-.42-1.03-.64-1.54-.07-.17-.15-.34-.22-.51-.17-.39-.33-.78-.5-1.17-.1-.25-.11-.51-.02-.76.26-.68,1.07-.75,1.53-.23.09.11.16.24.22.37.21.5.41,1,.63,1.5.21.49.43.98.64,1.47.12.27.23.54.34.81.14.33.29.67.43,1,.13.3.25.61.38.91.21.5.43,1.01.64,1.51.13.3.26.6.39.91.07.16.14.31.2.47.07.17.11.34.09.52-.05.48-.36.78-.84.84-.05,0-.11,0-.16,0-6.86,0-13.72,0-20.58,0-1.91,0-3.83,0-5.74,0-.16,0-.32-.01-.47-.06-.31-.09-.49-.31-.55-.63-.02-.12-.03-.25-.03-.37,0-9.43,0-18.87,0-28.3,0-.11,0-.22.02-.33.07-.43.47-.77.88-.73.44.04.81.33.84.83.01.2,0,.4,0,.6,0,8.97,0,17.95,0,26.92,0,.07,0,.15,0,.25Z"/>
          <path class="cls-2" d="M33.7,48.4c.21-.48,11.19-26.15,11.41-26.64.19-.41.65-.59,1.07-.42.15.06.3.14.41.26.21.22.25.49.18.79-.02.07-.04.15-.07.21-.22.5-11.94,27.98-12.2,28.55-.15.33-.42.48-.77.48-.36,0-.65-.11-.82-.45-.16-.32-12.1-28.28-12.26-28.7-.16-.41.05-.91.42-1.09.5-.25,1.06-.08,1.29.44.29.66,11.3,26.49,11.34,26.56Z"/>
          <path class="cls-2" d="M61.53,42.21c0,.62-.5,1.02-1.08.92-.25-.04-.47-.13-.71-.22-.42-.16-.85-.31-1.28-.44-.48-.15-.97-.31-1.46-.42-.7-.15-1.4-.33-2.12-.38-.28-.02-.56-.09-.84-.11-1.06-.1-2.12-.11-3.19-.05-.52.03-1.04.1-1.55.16-.45.06-.9.11-1.34.2-.51.1-1.01.23-1.52.37-.74.2-1.47.43-2.18.72-.19.08-.4.13-.61.17-.43.08-.81-.12-.99-.52-.09-.21-.12-.43-.03-.66.21-.49.42-.98.63-1.47.22-.51.43-1.02.65-1.53.22-.52.45-1.03.67-1.55.31-.73.61-1.45.92-2.18.31-.72.63-1.44.94-2.17.38-.88.75-1.77,1.12-2.65.21-.49.42-.97.63-1.45.22-.51.43-1.02.65-1.53.21-.49.42-.98.63-1.47.1-.24.21-.48.31-.72.26-.6.52-1.19.77-1.79.21-.5.41-1,.62-1.5.09-.2.2-.38.39-.51.51-.33,1.13-.05,1.32.42.2.49.4.97.61,1.46.21.5.43.99.65,1.49.12.28.24.57.36.85.22.52.45,1.04.68,1.57.12.28.23.56.35.83.14.33.28.66.42.98.21.5.42,1,.64,1.49.21.49.43.98.63,1.47.22.52.43,1.04.65,1.55.11.26.22.52.33.77.38.89.77,1.79,1.15,2.68.3.71.6,1.43.9,2.14.3.71.61,1.41.92,2.11.11.26.21.52.31.78.02.06.03.13.04.17ZM58.91,40.69l.04-.04s-.03-.1-.05-.15c-.15-.34-.3-.68-.44-1.02-.25-.59-.5-1.17-.75-1.76-.11-.26-.22-.52-.33-.78-.21-.51-.42-1.01-.64-1.52-.22-.52-.45-1.04-.67-1.57-.13-.3-.26-.61-.39-.91-.11-.26-.23-.53-.35-.79-.22-.52-.43-1.04-.65-1.55-.41-.97-.83-1.94-1.25-2.91-.22-.52-.45-1.04-.67-1.57-.21-.5-.42-1.01-.64-1.52-.01-.03-.04-.05-.07-.09-2.3,5.38-4.59,10.73-6.88,16.08,0,.01,0,.04.01.07.05,0,.09,0,.14-.02.28-.08.55-.16.83-.23.77-.21,1.54-.38,2.33-.49.6-.09,1.19-.17,1.8-.22.86-.08,1.73-.08,2.59-.06.65.02,1.3.08,1.95.17.61.08,1.22.15,1.83.3.57.14,1.15.27,1.72.41.18.04.36.11.54.16Z"/>
          <path class="cls-2" d="M22.62,37.18c-.04.41-.23.72-.61.88-.98.43-1.97.84-2.95,1.26-.92.39-1.85.78-2.77,1.17-.91.39-1.82.79-2.74,1.18-.94.4-1.88.79-2.82,1.19-.81.34-1.61.69-2.42,1.03-.48.21-.97.42-1.45.63-.18.08-.35.16-.53.23-.43.18-1.01-.11-1.14-.57-.06-.22-.06-.45.04-.66.25-.57.49-1.15.74-1.72.21-.5.42-1,.63-1.5.13-.3.26-.59.39-.89.12-.27.23-.54.34-.81.23-.55.47-1.1.7-1.64.21-.49.41-.97.61-1.46.11-.27.23-.54.35-.81.14-.31.27-.63.41-.94.23-.54.46-1.08.69-1.63.2-.48.4-.96.61-1.44.22-.53.45-1.06.68-1.59.22-.53.44-1.06.67-1.59.09-.21.18-.42.27-.62.22-.51.44-1.02.66-1.53.21-.49.41-.99.62-1.48.13-.3.27-.6.4-.9.13-.32.26-.63.39-.95.09-.23.2-.45.42-.59.49-.3,1.11-.1,1.33.43.14.36.31.7.46,1.06.12.28.23.56.35.83.22.52.45,1.03.67,1.55.1.24.21.48.31.72.29.69.58,1.39.88,2.08.22.5.44,1,.66,1.51.22.52.43,1.04.65,1.55.19.43.38.87.56,1.3.15.34.29.68.44,1.02.11.26.23.53.34.79.24.56.48,1.12.71,1.68.1.25.21.49.32.73.07.16.14.31.13.5ZM15.32,24.57s-.04,0-.05,0c-.09.2-.17.41-.26.61-2.39,5.63-4.78,11.26-7.17,16.89,0,0,0,.01,0,.02,0,0,0,0,.03.02.18-.07.37-.15.56-.23.3-.13.59-.26.89-.39.5-.22,1.01-.43,1.51-.64.7-.3,1.4-.6,2.1-.9.55-.23,1.1-.46,1.65-.7.64-.28,1.28-.56,1.92-.83.55-.23,1.1-.46,1.65-.69.73-.31,1.46-.63,2.19-.95.14-.06.15-.09.09-.23-.1-.23-.21-.46-.31-.7-.22-.52-.43-1.04-.64-1.56-.22-.52-.45-1.04-.68-1.57-.08-.19-.16-.38-.24-.57-.22-.54-.44-1.08-.67-1.61-.28-.67-.58-1.33-.86-2-.23-.54-.46-1.09-.68-1.63-.09-.22-.19-.44-.28-.66-.14-.33-.28-.66-.42-.98-.1-.24-.21-.47-.31-.71Z"/>
          <path class="cls-2" d="M97.66,39.99c0,.08,0,.15,0,.23,0,3.46,0,6.92,0,10.37,0,.13,0,.26-.02.39-.06.4-.42.7-.86.71-.41,0-.77-.29-.84-.68-.02-.12-.03-.25-.03-.37,0-3.81,0-7.63,0-11.44,0-.1,0-.21.02-.31.06-.42.39-.72.81-.73.53-.01,1.06,0,1.58,0,7.21,0,14.42,0,21.63,0,.39,0,.78,0,1.17,0,.43-.02.96.38.96.95,0,.99,0,1.99,0,2.98,0,2.86,0,5.72,0,8.58,0,.33-.1.61-.35.82-.27.22-.58.27-.91.13-.31-.13-.5-.36-.55-.69-.01-.09,0-.19,0-.29,0-3.46,0-6.93,0-10.39,0-.08,0-.16,0-.23-.03-.02-.03-.03-.04-.03,0,0-.01-.01-.02-.01-.03,0-.07-.01-.1-.01-7.46,0-14.92,0-22.37,0-.02,0-.04.01-.1.03Z"/>
          <path class="cls-2" d="M108.97,34.77c-4.03,0-8.07,0-12.1,0-.26,0-.51-.03-.7-.23-.13-.12-.21-.27-.23-.45-.01-.11-.03-.22-.03-.33,0-3.82,0-7.64,0-11.46,0-.19,0-.37.09-.54.16-.32.55-.54.88-.48.42.07.73.38.76.78.01.12.02.25.02.37,0,3.42,0,6.85,0,10.27,0,.05,0,.1,0,.14,0,.06.04.1.1.1.05,0,.1,0,.14,0,7.39,0,14.78,0,22.17,0,.2,0,.21,0,.21-.2,0-3.44,0-6.89,0-10.33,0-.08,0-.15,0-.23,0-.5.36-.82.8-.9.31-.06.57.09.77.31.16.17.25.39.24.64,0,.29,0,.59,0,.89,0,3.55,0,7.09,0,10.64,0,.34-.1.62-.37.83-.13.1-.27.16-.43.17-.14,0-.27,0-.41,0-3.97,0-7.95,0-11.92,0h0Z"/>
          <path class="cls-2" d="M52.05,44.83c.63.04,1.29.05,1.93.12.57.06,1.13.15,1.69.26.5.1.98.25,1.47.37.5.13.98.31,1.46.49.67.25,1.32.54,1.95.88.38.2.75.43,1.12.65.31.19.62.4.93.61.33.24.66.48.96.74.42.36.83.74,1.24,1.11.23.21.39.46.35.79-.04.36-.23.62-.57.74-.37.13-.72.06-1.01-.21-.35-.32-.7-.64-1.06-.95-.5-.43-1.03-.82-1.59-1.17-.56-.34-1.12-.66-1.7-.96-.54-.28-1.11-.51-1.69-.7-.55-.19-1.11-.36-1.68-.49-.55-.13-1.12-.21-1.68-.3-1.17-.18-2.35-.19-3.53-.08-.66.06-1.32.15-1.97.28-.72.15-1.43.33-2.11.6-.52.21-1.05.4-1.56.64-.56.27-1.1.59-1.64.9-.6.35-1.15.77-1.69,1.2-.31.24-.59.52-.88.78-.1.09-.2.19-.3.28-.26.24-.57.32-.91.22-.57-.17-.88-.99-.42-1.43.41-.4.82-.79,1.25-1.16.52-.45,1.08-.86,1.67-1.24.33-.22.67-.43,1.02-.62.4-.22.81-.43,1.22-.63.34-.16.69-.3,1.04-.44.36-.14.72-.27,1.08-.39.17-.06.34-.1.51-.15.29-.08.58-.16.87-.23.61-.16,1.22-.26,1.84-.32.16-.02.31-.07.47-.08.63-.04,1.26-.07,1.91-.11Z"/>
        </g>
        <path class="cls-2" d="M1.82,56.19h41.28v3.65H1.82C.82,59.84,0,59.02,0,58.01H0C0,57.01.82,56.19,1.82,56.19Z" transform="translate(43.1 116.03) rotate(180)"/>
      </g>
    </g>
  </g>
</svg>