<?xml version="1.0" encoding="UTF-8"?>
<svg id="Layer_2" data-name="Layer 2" xmlns="http://www.w3.org/2000/svg" viewBox="0 0 115.84 44.56">
  <defs>
    <style>
      .cls-1 {
        fill: #fff;
        stroke-width: 0px;
      }
    </style>
  </defs>
  <g id="Layer_1-2" data-name="Layer 1">
    <g>
      <path class="cls-1" d="M5.61,27.45c1.54-.04,3-.4,4.38-1.08,1.38-.68,2.69-1.58,3.93-2.68.89.76,1.8,1.56,2.75,2.4.95.84,1.91,1.65,2.89,2.46.98.8,1.99,1.56,3.01,2.28,1.03.72,2.07,1.35,3.13,1.88,1.06.54,2.14.96,3.24,1.26,1.1.3,2.21.44,3.33.41.51-.01.97-.12,1.35-.32.39-.2.71-.44.98-.72.26-.28.46-.56.59-.85.13-.29.19-.53.18-.74,0-.16-.07-.24-.2-.22-.13.02-.3.07-.52.17-.22.09-.48.19-.76.29-.29.1-.59.16-.9.16-1.23.03-2.4-.1-3.5-.38-1.1-.28-2.16-.67-3.18-1.17-1.01-.5-1.99-1.07-2.92-1.73-.93-.66-1.85-1.36-2.74-2.1-.9-.74-1.78-1.5-2.66-2.26-.87-.76-1.75-1.49-2.63-2.19.62-.62,1.22-1.28,1.8-1.96.58-.68,1.14-1.4,1.69-2.14.16,0,.33.02.49.02.16,0,.33,0,.51,0,.85-.02,1.8-.2,2.85-.54,1.05-.34,2.11-.8,3.17-1.39,1.07-.59,2.1-1.29,3.11-2.12,1-.82,1.89-1.73,2.66-2.72.77-.99,1.39-2.04,1.85-3.16.46-1.12.67-2.28.64-3.49,0-.22-.05-.45-.12-.69-.07-.24-.2-.47-.37-.68-.17-.21-.41-.39-.7-.52-.29-.13-.66-.2-1.09-.19-.95.02-1.87.23-2.76.62-.89.39-1.75.91-2.58,1.58-.83.66-1.64,1.44-2.44,2.33-.8.89-1.58,1.84-2.35,2.85-.77,1.01-1.52,2.07-2.26,3.16-.74,1.09-1.48,2.18-2.22,3.25-.49-.23-.91-.51-1.24-.83-.33-.32-.61-.66-.82-1-.21-.34-.36-.67-.45-.98-.09-.32-.14-.58-.14-.78-.01-.41.02-.76.1-1.05.07-.29.16-.54.26-.73.1-.19.19-.35.27-.47.08-.12.13-.22.12-.29,0-.15-.1-.29-.27-.41-.18-.12-.38-.18-.59-.18-.11,0-.28.06-.51.18-.23.11-.47.3-.7.55-.23.25-.43.58-.61.98-.17.4-.25.9-.24,1.48.03,1.06.36,2.02,1.01,2.89.64.87,1.63,1.51,2.95,1.93-.42.61-.84,1.2-1.26,1.77-.42.57-.84,1.12-1.26,1.65-.63-.44-1.28-.85-1.94-1.23-.66-.38-1.33-.7-2.02-.97-.69-.27-1.4-.47-2.13-.61-.73-.14-1.48-.2-2.25-.18-.65.02-1.31.15-1.97.4-.66.25-1.26.6-1.8,1.03-.54.43-.97.95-1.3,1.56-.33.6-.49,1.26-.47,1.96.02.64.16,1.22.42,1.75.26.53.63.98,1.11,1.35.48.37,1.06.66,1.75.87.69.21,1.47.3,2.33.28ZM22.01,13.87c.73-1.08,1.44-2.12,2.13-3.12.69-1,1.36-1.93,2.01-2.8.66-.87,1.3-1.63,1.92-2.27.63-.65,1.24-1.16,1.85-1.54.61-.38,1.2-.58,1.78-.59.15,0,.31.02.47.06.16.04.31.11.44.21.13.1.24.22.32.38.09.15.13.34.14.56.02.62-.17,1.36-.56,2.2-.39.84-.93,1.72-1.6,2.62-.68.9-1.45,1.8-2.33,2.69-.88.89-1.8,1.69-2.76,2.39-.96.71-1.94,1.28-2.91,1.73-.98.44-1.89.68-2.75.7h-.43c.79-1.05,1.54-2.12,2.28-3.2ZM2.71,25.79c-.35-.33-.61-.72-.79-1.17-.18-.45-.28-.93-.29-1.45-.02-.74.09-1.38.32-1.91.23-.53.54-.96.92-1.29.38-.33.82-.58,1.31-.74.49-.16.98-.25,1.47-.26.51-.01,1.05.07,1.61.24.56.18,1.13.43,1.72.76.58.33,1.19.72,1.82,1.17.63.45,1.27.95,1.92,1.49-1.09,1.23-2.2,2.23-3.33,2.99-1.13.76-2.3,1.15-3.54,1.19-.69.02-1.3-.07-1.82-.25-.53-.18-.96-.44-1.31-.77Z"/>
      <path class="cls-1" d="M29.48,16.56c-.6.5-1.15,1.06-1.64,1.7-.49.64-.91,1.28-1.25,1.94-.34.66-.6,1.31-.78,1.94-.18.63-.26,1.2-.25,1.7.01.6.13,1.1.33,1.52.21.41.46.75.77,1.01.3.26.63.44.98.55.35.11.66.17.95.16.69-.02,1.39-.22,2.09-.61.7-.39,1.39-.88,2.06-1.48.67-.6,1.31-1.26,1.93-2,.62-.73,1.19-1.45,1.71-2.17.52-.71.98-1.37,1.38-1.97.4-.61.71-1.08.95-1.43.05-.08.07-.16.06-.22-.02-.07-.05-.12-.12-.15-.06-.03-.14-.04-.22-.01-.09.02-.16.08-.23.16-.17.25-.45.64-.83,1.18-.39.54-.83,1.14-1.34,1.8-.5.66-1.05,1.34-1.63,2.04-.59.7-1.17,1.34-1.76,1.91-.59.58-1.16,1.05-1.7,1.43-.55.38-1.03.57-1.45.58-.42.01-.73-.12-.92-.39-.2-.27-.3-.64-.31-1.1-.01-.46.05-.99.19-1.59.14-.6.34-1.21.59-1.84.91-.05,1.75-.22,2.55-.51.79-.29,1.48-.66,2.06-1.12.58-.45,1.04-.97,1.36-1.54.32-.57.48-1.17.46-1.79-.01-.43-.14-.78-.39-1.05-.25-.26-.73-.39-1.43-.37-.77.02-1.51.19-2.2.5-.7.32-1.35.72-1.95,1.22ZM32.7,16.25c.41-.24.81-.37,1.22-.38.26,0,.43.09.51.29.08.2.07.46-.03.77-.1.31-.28.65-.54,1.01-.26.37-.6.72-1.02,1.05-.42.33-.91.61-1.47.84-.56.23-1.19.36-1.88.39.28-.57.6-1.11.94-1.64.35-.53.71-.99,1.09-1.38.38-.4.78-.72,1.18-.96Z"/>
      <path class="cls-1" d="M110.36.02c-11.86-.4-16.57,8.42-17.65,10.51-1.09,2.09-.2,2.94-.2,2.94.13.12.26.2.38.24-.09.03-.17.07-.26.11-.7.32-1.35.73-1.95,1.24-.6.51-1.15,1.09-1.64,1.74-.49.65-.91,1.31-1.25,1.97-.07.14-.14.28-.21.42-.26.35-.53.71-.82,1.07-.46.58-.92,1.12-1.39,1.61-.47.49-.94.91-1.4,1.25-.47.34-.91.55-1.33.61.53-.51,1.02-1.08,1.46-1.71.44-.63.83-1.26,1.16-1.91.33-.64.58-1.28.76-1.92.18-.63.26-1.22.25-1.74,0-.32-.04-.66-.11-1-.06-.34-.17-.66-.33-.94-.16-.28-.37-.51-.65-.69-.28-.18-.64-.27-1.08-.26-.45.01-.85.11-1.22.29-.37.19-.68.38-.95.59-.32.25-.6.54-.85.85.92-1.28,1.73-2.46,2.45-3.53.3-.45.6-.91.89-1.37.29-.46.55-.89.78-1.29.23-.4.41-.75.55-1.05.14-.3.21-.53.21-.68,0-.34-.11-.63-.32-.88-.2-.25-.42-.44-.65-.57-.23-.14-.45-.22-.65-.26-.2-.04-.29-.02-.29.05,0,.26-.1.64-.33,1.16-.22.51-.52,1.12-.89,1.81-.37.69-.79,1.45-1.26,2.28-.47.82-.96,1.67-1.45,2.54-.49.87-.98,1.74-1.45,2.62-.47.87-.89,1.71-1.26,2.5-.04.09-.08.17-.11.25-.07.09-.13.17-.2.26-.51.66-1.05,1.34-1.63,2.04-.59.7-1.17,1.34-1.76,1.91-.59.58-1.16,1.05-1.7,1.43-.55.38-1.03.57-1.45.58-.42.01-.73-.12-.92-.39-.2-.27-.3-.64-.31-1.1-.01-.46.05-.99.19-1.59.14-.6.34-1.21.59-1.84.91-.05,1.75-.22,2.55-.51.79-.29,1.48-.66,2.06-1.12.58-.45,1.04-.97,1.36-1.54.32-.57.48-1.17.46-1.79-.01-.43-.14-.78-.39-1.05-.25-.26-.73-.39-1.43-.37-.77.02-1.51.19-2.2.5-.7.32-1.35.72-1.95,1.22-.6.5-1.15,1.06-1.64,1.7-.49.64-.91,1.28-1.25,1.94-.05.1-.09.19-.14.29-.39.53-.79,1.06-1.22,1.6-.49.61-.96,1.18-1.41,1.68-.45.51-.87.92-1.25,1.25-.38.33-.68.49-.91.5-.34,0-.53-.11-.57-.35-.04-.24,0-.56.14-.95.13-.39.32-.82.56-1.3.24-.48.48-.95.72-1.42.24-.47.44-.9.62-1.3.17-.4.26-.71.25-.94,0-.26-.07-.46-.19-.61-.12-.15-.27-.28-.45-.4-.18-.11-.37-.21-.59-.31-.21-.1-.41-.22-.59-.38-.18-.16-.33-.36-.45-.62-.12-.25-.19-.58-.2-.99-.01-.41.06-.77.2-1.08.14-.31.3-.6.48-.84.18-.25.34-.47.48-.67.14-.2.21-.38.21-.54,0-.11-.07-.2-.19-.29-.12-.08-.28-.13-.47-.12-.39,0-.78.1-1.15.27-.37.17-.71.41-1,.71-.07.08-.14.15-.21.23.08-.22.15-.43.22-.65.25-.83.38-1.65.4-2.45.01-.8-.13-1.51-.42-2.12-.29-.62-.76-1.1-1.39-1.47-.63-.36-1.46-.53-2.49-.51-1.14.03-2.3.26-3.5.7-1.19.44-2.36,1.02-3.5,1.76s-2.23,1.61-3.27,2.6c-1.04.99-1.97,2.06-2.79,3.21-1.19,0-2.15-.14-2.88-.42-.73-.28-1.3-.63-1.7-1.04-.4-.42-.68-.87-.83-1.35-.15-.48-.23-.93-.26-1.34-.02-.41-.03-.75,0-1.03.02-.27,0-.41-.05-.41-.09,0-.23.06-.41.16-.18.11-.36.27-.54.5-.18.23-.33.52-.46.88-.13.36-.18.8-.17,1.31.01.49.13.99.34,1.5.22.52.57.99,1.05,1.42.48.43,1.12.78,1.91,1.06.79.28,1.75.43,2.89.46-.71,1.24-1.27,2.5-1.67,3.79-.4,1.29-.59,2.57-.55,3.84,0,.38.06.81.14,1.29.09.48.22.97.41,1.46.19.5.43.98.74,1.46.3.48.67.9,1.11,1.27.44.37.95.66,1.55.89.59.22,1.27.32,2.03.3,1.15-.03,2.14-.21,2.96-.55.82-.34,1.5-.76,2.03-1.27.53-.51.91-1.06,1.16-1.64.24-.59.36-1.15.34-1.67,0-.35-.07-.64-.17-.88-.11-.23-.24-.42-.4-.56-.16-.14-.33-.24-.53-.29-.19-.06-.37-.08-.53-.08-.18,0-.32.04-.42.11-.11.07-.16.16-.16.27,0,.05.05.1.15.14.1.04.2.1.32.18.12.09.23.21.32.38.1.17.15.4.16.7.01.49-.04.95-.15,1.4-.11.44-.31.84-.61,1.19-.3.35-.7.64-1.22.85-.52.22-1.17.33-1.97.35-.8.02-1.48-.11-2.05-.39-.57-.28-1.04-.65-1.4-1.13-.36-.48-.63-1.03-.8-1.65-.17-.62-.26-1.25-.28-1.9-.03-1.37.16-2.74.58-4.13.42-1.38,1-2.72,1.74-4.01.97-.17,1.95-.41,2.95-.72.99-.31,1.91-.61,2.74-.9.97-.35,1.91-.7,2.82-1.07-.41.36-.77.76-1.09,1.21-.26.37-.5.8-.72,1.29-.22.49-.32,1.01-.31,1.56,0,.2.05.44.13.71.08.27.21.52.37.76.17.24.39.44.65.59.27.16.58.23.95.22.74-.02,1.47-.23,2.17-.62.7-.4,1.35-.91,1.95-1.55.6-.64,1.13-1.36,1.58-2.17.05-.09.1-.18.14-.27-.03.17-.04.35-.04.54.01.43.08.79.2,1.07.12.28.27.52.45.71.18.19.37.35.57.47.2.12.39.24.57.36.18.12.33.24.45.35.12.12.18.27.18.46.01.5-.09.98-.31,1.43-.22.45-.46.92-.73,1.4-.27.48-.51.99-.72,1.54-.22.55-.32,1.17-.3,1.86,0,.38.07.71.19.99.1.24.27.46.49.66.23.2.56.29.99.28.39,0,.84-.2,1.35-.58.5-.38,1.03-.86,1.59-1.44.55-.58,1.11-1.24,1.68-1.96.17-.22.34-.44.51-.66-.09.44-.14.84-.13,1.21.01.6.13,1.1.33,1.52.21.41.46.75.77,1.01.3.26.63.44.98.55.35.11.66.17.95.16.69-.02,1.39-.22,2.09-.61.7-.39,1.39-.88,2.06-1.48.67-.6,1.31-1.26,1.93-2,.24-.29.48-.58.71-.86-.16.55-.24,1.02-.23,1.4.01.43.07.85.18,1.25.11.4.27.76.46,1.06.2.31.44.55.72.74.28.19.6.28.95.27,1.08-.03,2.09-.24,3.02-.62.93-.39,1.79-.88,2.58-1.47.79-.59,1.51-1.25,2.16-1.97.21-.23.4-.46.6-.69-.12.5-.17.95-.16,1.35.01.6.12,1.09.3,1.5.19.4.42.72.7.97.28.24.59.42.92.52.33.1.63.15.92.14.39,0,.77-.12,1.12-.34.35-.22.66-.46.93-.72.3-.31.58-.66.83-1.06-.03.39,0,.74.09,1.03.07.26.22.49.43.69.22.2.55.3,1.01.29.35,0,.77-.2,1.27-.58.42-.32.86-.72,1.32-1.19-1.03,2.91,1.37,3.99,1.37,3.99,0,0,1.66.7,1.19-.23-1.5-3.75,3.19-10.34,3.19-10.34,0,0,3.67.83,9.04-3.4,5.99-4.62,6.24-13.43-1.01-13.68ZM71.53,17.57c.35-.53.71-.99,1.09-1.38.38-.4.78-.72,1.18-.96.41-.24.81-.37,1.22-.38.26,0,.43.09.51.29.08.2.07.46-.03.77-.1.31-.28.65-.54,1.01-.26.37-.6.72-1.02,1.05-.42.33-.91.61-1.47.84-.56.23-1.19.36-1.88.39.28-.57.6-1.11.94-1.64ZM59.02,10.08c-.1.69-.27,1.39-.52,2.12-.25.72-.55,1.43-.9,2.12-.36.69-.74,1.31-1.14,1.86-.41.55-.83.99-1.26,1.32-.43.34-.84.51-1.22.52-.08,0-.18-.02-.29-.07-.11-.05-.22-.14-.32-.27-.1-.13-.2-.29-.28-.49-.08-.2-.12-.45-.13-.75-.01-.47.09-.92.3-1.33s.49-.79.82-1.15c.34-.35.7-.68,1.08-.97.39-.29.75-.55,1.09-.77.34-.22.62-.4.84-.56.22-.15.33-.27.33-.35,0-.15-.12-.28-.33-.39-.22-.11-.53-.16-.92-.15-.93.02-1.82.13-2.66.32-.84.19-1.66.42-2.45.68-.79.26-1.56.53-2.32.81-.75.28-1.5.51-2.24.71.69-.97,1.46-1.85,2.29-2.67.83-.81,1.7-1.52,2.59-2.12.89-.6,1.8-1.07,2.73-1.42.93-.35,1.83-.53,2.71-.56.65-.02,1.15.13,1.49.45.35.32.57.74.68,1.27.11.53.11,1.14.02,1.83ZM80.56,23.23c-.44.45-.84.81-1.2,1.08-.37.27-.64.4-.83.41-.32,0-.56-.13-.69-.41-.14-.28-.21-.62-.22-1.01,0-.34.09-.79.28-1.36.2-.57.45-1.18.78-1.83.32-.65.69-1.31,1.11-1.97s.85-1.26,1.29-1.8c.44-.54.87-.98,1.3-1.32.42-.34.81-.52,1.14-.53.14,0,.25.03.35.1.1.07.18.17.24.29.06.12.11.25.15.39.04.14.06.27.06.39.02.66-.09,1.35-.31,2.05-.23.7-.52,1.39-.88,2.05-.36.67-.77,1.3-1.22,1.89-.45.59-.9,1.12-1.33,1.57ZM94.13,18.87c-.18.2-.27.31-.27.34,0,.03.05.1.14.22.09.12.19.24.3.36-.35.54-.72,1.08-1.11,1.64-.39.56-.78,1.07-1.17,1.52-.39.46-.79.83-1.17,1.13-.39.29-.75.45-1.11.45-.45.01-.73-.22-.85-.7-.12-.48-.11-1.08.04-1.8.14-.72.4-1.51.76-2.35.36-.85.81-1.64,1.32-2.37.52-.73,1.09-1.34,1.73-1.84.64-.5,1.29-.75,1.97-.77.28,0,.49.09.63.28.13.19.2.45.21.76.01.45-.07.87-.25,1.28-.18.4-.38.76-.59,1.08-.22.32-.41.58-.59.78ZM103.55,14.83c2.94-5.18-.15-6.12-.15-6.12.57,3.76-3.3,9.01-5.5,12.51-.21.25-.42.49-.62.72-.45.51-.87.92-1.25,1.25-.38.33-.68.49-.91.5-.31,0-.46-.14-.44-.44.02-.3.14-.67.36-1.12.22-.45.49-.94.83-1.47.33-.54.66-1.04.98-1.5.32-.46.59-.85.82-1.18.23-.32.34-.51.34-.55,0-.05-.04-.11-.13-.17-.08-.06-.19-.12-.31-.18-.12-.06-.25-.11-.39-.16-.14-.05-.27-.09-.39-.11.14-.41.2-.78.2-1.12,0-.35-.05-.68-.14-.97-.08-.3-.21-.55-.37-.76-.17-.21-.38-.38-.65-.49-.27-.12-.6-.17-.99-.16-.34,0-.67.05-1,.11.27-.26.42-.59.42-.59,1.42-5.94,7.19-9.47,10.4-10.53,3.21-1.06,10.87-1.97,10.07,2.88-1.31,8.15-11.18,9.64-11.18,9.64Z"/>
      <path class="cls-1" d="M86.09,31.8c-11.34-1.29-21.03-4.84-29.29-.36-9-2.69-17.75,2.78-28.59,6.37-17.17,4.92-24.7-2.95-24.7-2.95,3.55,4.98,8.56,6.21,14.28,6.91,5.72.7,13.75-1.48,23.59-6.08,6.53-3.05,11.22-3.44,13.65-3.35-1.67,1.03-4.92,3.47-5.21,6.98-.39,4.75,3.56,5.24,3.56,5.24,0,0-7.86-6.32,3.52-12.01,12.31,3.23,5.92,11.04,5.92,11.04,0,0,3.77-1.29,2.41-5.86-1-3.38-4.68-5.1-6.53-5.76,2.36-.58,7.03-1.17,14.05.48,10.58,2.48,18.89,2.96,24.34,1.1,5.45-1.86,10.1-4.1,12.55-9.7,0,0-5.76,9.26-23.57,7.96Z"/>
      <path class="cls-1" d="M58.03,3.93l-.03.34c-2.55.11-5.03.67-7.33,1.72l-.3-.45-.26.05.02.03.37.56.24.39c.73-.39,1.48-.73,2.23-1,1.25-.45,2.48-.7,3.67-.73.29,0,.56,0,.83.02s.49.05.72.1l.03-.4.05-.65v-.04s-.25.05-.25.05Z"/>
      <path class="cls-1" d="M49.25,3.97c.06-.01.11-.04.15-.07l1.34,1.84c2.24-.99,4.65-1.53,7.13-1.66l.26-1.96s.09,0,.14,0c.19-.04.31-.23.27-.42-.04-.19-.23-.31-.42-.27-.19.04-.31.23-.27.42.02.09.07.16.13.21l-1.2,1.29-.27-1.75s.03,0,.04,0c.19-.04.31-.23.27-.42-.04-.19-.23-.31-.42-.27-.19.04-.31.23-.27.42,0,.04.02.07.04.11,0,.03.03.05.05.07.04.04.08.06.13.08l-1.05,1.94-1.75-2.23c.21-.16.32-.44.26-.72-.08-.38-.46-.63-.85-.54-.38.08-.63.46-.54.85.06.29.29.49.56.55l-.44,2.57-1.75-1.22c.07-.08.11-.2.08-.31-.04-.19-.23-.31-.42-.27-.19.04-.31.23-.27.42.04.19.23.31.42.27.01,0,.02,0,.04-.01l.61,1.64-1.72-.76c.02-.06.03-.13.01-.19-.04-.19-.23-.31-.42-.27-.19.04-.31.23-.27.42.04.19.23.31.42.27Z"/>
      <path class="cls-1" d="M46.79,36.17l.15.43-.26.09-.18-.5s-.01-.05,0-.08c0-.03,0-.06.02-.08.01-.03.03-.05.05-.07.02-.02.05-.04.08-.05l.21-.08-.05-.14-.21.08s-.06.02-.09.01c-.03,0-.06,0-.09-.02-.01,0-.02-.01-.04-.02s-.02-.02-.04-.03c-.02-.02-.03-.04-.04-.07l-.18-.5.26-.09.15.43.17-.06-.18-.52s-.02-.02-.03-.03c-.01,0-.03,0-.05,0l-.47.17c-.05.02-.07.05-.05.1l.19.54c.02.06.06.11.11.16.04.04.09.07.16.08-.02.03-.04.05-.05.08-.01.03-.02.06-.02.09-.01.06,0,.13.02.19h0s.19.54.19.54c.02.05.06.07.11.05l.52-.19-.2-.57-.17.06Z"/>
      <path class="cls-1" d="M47.78,35.39s-.01-.02-.02-.02c0,0-.01,0-.03,0l-.4.14-.25-.7.26-.09.17.47.17-.06-.2-.55s-.04-.05-.08-.03l-.49.18s-.03.02-.03.03c0,.02,0,.03,0,.04l.32.89s.03.03.05.02l.39-.14.25.7-.26.09-.17-.47-.17.05.2.56s.01.02.03.03c.01,0,.03,0,.04,0l.49-.18s.02-.01.03-.03c.01-.01.01-.03,0-.04l-.32-.9Z"/>
      <polygon class="cls-1" points="48.46 34.31 48.41 34.17 47.74 34.41 47.79 34.55 48.04 34.46 48.65 36.14 48.82 36.08 48.21 34.4 48.46 34.31"/>
      <path class="cls-1" d="M49.32,33.93s-.02-.03-.04-.04c-.02,0-.04-.01-.06,0l-.52.19.65,1.82.23-.08c.06-.02.11-.05.14-.08.04-.04.07-.08.09-.12.02-.04.04-.08.04-.13,0-.04,0-.08-.01-.12l-.51-1.43ZM49.65,35.57s-.07.08-.12.1h0s-.07.03-.07.03l-.55-1.54.26-.09.49,1.37c.02.05.01.1-.02.15Z"/>
      <polygon class="cls-1" points="50.23 35.35 50.23 35.35 50.23 35.35 50.23 35.35"/>
      <path class="cls-1" d="M50.31,35.53s.03,0,.04,0l.09-.03s.03-.01.03-.02c0-.01.01-.02.01-.04l-.06-.16s-.02-.02-.03-.03c-.02,0-.03,0-.05,0l-.09.03s-.03.02-.03.03c0,.02,0,.03,0,.04l.05.15s.01.02.03.03Z"/>
      <path class="cls-1" d="M64.83,33.51s.02-.04.04-.05c.01-.01.03-.03.04-.04.02-.01.03-.03.05-.04s.04-.03.05-.04c.02-.01.04-.03.06-.04.02-.01.04-.03.07-.04.02-.02.05-.03.07-.05.02-.02.05-.03.07-.05.04-.03.08-.06.12-.1.02-.02.04-.04.05-.06.02-.02.03-.04.05-.07.03-.05.06-.1.09-.18h.01s.12-.32.12-.32c0-.01,0-.03,0-.04-.01-.02-.02-.03-.04-.03l-.54-.21-.23.6.17.07.18-.46.26.1-.09.23c-.02.06-.05.11-.08.16-.01.02-.03.04-.04.06-.02.02-.03.04-.05.05-.02.02-.03.03-.05.05-.02.01-.04.03-.06.04-.02.01-.04.03-.07.04-.02.01-.05.03-.07.04-.02.01-.05.03-.07.04-.02.01-.04.03-.07.04-.02.01-.04.03-.06.04-.02.02-.04.03-.05.05-.04.03-.07.07-.09.12-.03.04-.06.09-.08.15l-.15.38.59.23.05-.14-.43-.17.09-.24c.02-.05.04-.1.06-.13Z"/>
      <path class="cls-1" d="M66.65,32.72l-.49-.19s-.03,0-.04,0c-.02,0-.03.02-.03.03h0s-.66,1.7-.66,1.7c0,.01,0,.02,0,.04,0,.01.02.02.03.03l.49.19s.03,0,.04,0c.02,0,.03-.01.03-.03l.66-1.7s0-.03,0-.04c0-.02-.02-.03-.03-.03ZM65.88,34.35l-.26-.1.6-1.53.26.1-.6,1.53Z"/>
      <path class="cls-1" d="M67.23,32.95l-.04.09c-.02.06-.06.1-.12.12l-.22.08.07.15.16-.06-.55,1.41.17.07.7-1.8-.17-.07Z"/>
      <path class="cls-1" d="M68.29,33.36l-.54-.21-.23.6.17.07.18-.46.26.1-.09.23c-.02.06-.05.11-.08.16-.01.02-.03.04-.04.06-.02.02-.03.04-.05.05-.02.02-.04.03-.05.05-.02.01-.04.03-.06.04-.02.01-.04.03-.07.04-.02.01-.05.03-.07.04-.02.01-.05.03-.07.04s-.04.03-.07.04c-.02.01-.04.03-.06.04-.02.02-.04.03-.05.05-.04.03-.07.07-.09.11-.03.04-.06.09-.08.15l-.15.38.59.23.05-.14-.43-.17.09-.24c.02-.05.04-.1.06-.13.01-.02.02-.04.04-.05.01-.01.03-.03.04-.04.02-.01.03-.03.05-.04.02-.01.04-.03.05-.04.02-.01.04-.03.06-.04.02-.01.04-.03.07-.04.03-.02.05-.03.07-.05s.05-.03.07-.05c.04-.03.08-.06.12-.1.02-.02.04-.04.05-.06.02-.02.03-.04.05-.07.03-.05.06-.1.09-.18h.01s.12-.32.12-.32c0-.01,0-.03,0-.04-.01-.02-.02-.03-.04-.03Z"/>
    </g>
  </g>
</svg>