<?xml version="1.0" encoding="UTF-8"?>
<svg id="Layer_2" data-name="Layer 2" xmlns="http://www.w3.org/2000/svg" viewBox="0 0 135.63 21.85">
  <defs>
    <style>
      .cls-1 {
        fill: #fff;
        stroke-width: 0px;
      }
    </style>
  </defs>
  <g id="Layer_1-2" data-name="Layer 1">
    <g>
      <g>
        <path class="cls-1" d="M7.69,2.35l-2.18,7.79L3.32,2.35H0v16.45h2.67v-10.04l1.67,6.13h2.35l1.65-6.13v10.04h2.67V2.35h-3.32Z"/>
        <path class="cls-1" d="M17.91,4.82c1.03,0,1.68.74,1.72,2.28h2.62v-.3c-.05-2.58-1.32-4.67-4.35-4.67s-4.37,2.14-4.37,4.74v7.29c0,2.6,1.33,4.77,4.37,4.77s4.3-2.12,4.35-4.7v-.33h-2.62c-.05,1.54-.7,2.3-1.72,2.3s-1.7-.84-1.7-2v-7.39c0-1.16.63-2,1.7-2Z"/>
        <path class="cls-1" d="M25.84,15.9c-.84,0-1.51.68-1.51,1.51s.68,1.51,1.51,1.51,1.51-.68,1.51-1.51-.68-1.51-1.51-1.51Z"/>
        <path class="cls-1" d="M35.71,2.35v7.25h-2.81V2.35h-2.67v16.45h2.67v-6.48h2.81v6.48h2.68V2.35h-2.68Z"/>
        <path class="cls-1" d="M45.26,2.12c-3.04,0-4.34,2.16-4.34,4.79v7.25c0,2.6,1.3,4.77,4.34,4.77s4.35-2.16,4.35-4.77v-7.25c0-2.62-1.3-4.79-4.35-4.79ZM46.93,14.18c0,1.18-.6,2.02-1.68,2.02s-1.67-.84-1.67-2.02v-7.35c0-1.16.6-2,1.67-2s1.68.84,1.68,2v7.35Z"/>
        <path class="cls-1" d="M57.97,2.35v11.83c0,1.18-.63,2.02-1.7,2.02s-1.7-.84-1.7-2.02V2.35h-2.67v11.81c0,2.6,1.32,4.77,4.37,4.77s4.37-2.16,4.37-4.77V2.35h-2.67Z"/>
        <path class="cls-1" d="M65.45,6.26c0-1.05.54-1.44,1.33-1.44.91,0,1.39.6,1.39,2.18v.21h2.67v-.21c0-1.65-.21-4.88-4.04-4.88s-4.02,3.21-4.02,4.09c0,4.97,5.62,5.48,5.62,8.06,0,1.77-1.05,1.93-1.41,1.93-.24,0-1.72,0-1.72-2.18v-.21h-2.67v.21c0,2.28.55,4.91,4.53,4.91s3.95-4.07,3.95-4.25c0-5.41-5.62-5.72-5.62-8.41Z"/>
        <path class="cls-1" d="M80.14,5.03v-2.68h-6.88v16.45h6.88v-2.67h-4.2v-4.14h3.41v-2.68h-3.41v-4.3h4.2Z"/>
      </g>
      <g>
        <g>
          <path class="cls-1" d="M91.54,3.56v-1.12h-2.87v6.86h1.11v-2.73h1.43v-1.12h-1.43v-1.9h1.75Z"/>
          <path class="cls-1" d="M98.72,6.99c.38-.36.57-.92.57-1.56v-.98c0-1.11-.54-2.01-1.82-2.01h-1.59v6.86h1.11v-1.88h.48c.1,0,.18,0,.27-.01l.6,1.89h1.12l-.74-2.32ZM98.19,5.47c0,.51-.27.85-.72.85h-.48v-2.75h.48c.45,0,.72.35.72.83v1.08Z"/>
          <path class="cls-1" d="M103.79,2.45v6.86h1.11V2.45h-1.11Z"/>
          <path class="cls-1" d="M112.45,3.56v-1.12h-2.87v6.86h2.87v-1.11h-1.75v-1.73h1.43v-1.12h-1.43v-1.79h1.75Z"/>
          <path class="cls-1" d="M118.62,2.45h-1.69v6.86h1.69c1.27,0,1.82-.89,1.82-2v-2.86c0-1.11-.55-2.01-1.82-2.01ZM119.33,7.35c0,.5-.27.85-.71.85h-.57V3.56h.57c.44,0,.71.35.71.83v2.96Z"/>
        </g>
        <g>
          <path class="cls-1" d="M90.49,12.92c.43,0,.7.31.72.95h1.1v-.13c-.02-1.08-.55-1.95-1.81-1.95s-1.82.9-1.82,1.99v3.02c0,1.09.55,1.99,1.82,1.99s1.81-.89,1.81-1.97v-2.24h-1.8v1.04h.69v1.21c0,.5-.27.83-.7.83s-.71-.35-.71-.84v-3.08c0-.49.26-.84.71-.84Z"/>
          <path class="cls-1" d="M99.58,16.44c.39-.36.57-.92.57-1.56v-.98c0-1.1-.54-2-1.82-2h-1.59v6.86h1.12v-1.88h.47c.1,0,.18,0,.27-.01l.6,1.89h1.12l-.74-2.32ZM99.05,14.92c0,.5-.27.84-.72.84h-.47v-2.75h.47c.45,0,.72.35.72.84v1.08Z"/>
          <path class="cls-1" d="M104.65,11.89v6.86h1.12v-6.86h-1.12Z"/>
          <path class="cls-1" d="M111.56,17.64v-5.75h-1.11v6.86h2.87v-1.12h-1.76Z"/>
          <path class="cls-1" d="M118.72,17.64v-5.75h-1.11v6.86h2.87v-1.12h-1.75Z"/>
          <path class="cls-1" d="M127.63,13.01v-1.11h-2.87v6.86h2.87v-1.12h-1.76v-1.73h1.43v-1.11h-1.43v-1.79h1.76Z"/>
          <path class="cls-1" d="M133.8,11.89h-1.69v6.86h1.69c1.27,0,1.82-.89,1.82-2v-2.86c0-1.1-.55-2-1.82-2ZM134.51,16.8c0,.5-.27.84-.71.84h-.57v-4.63h.57c.44,0,.71.35.71.84v2.96Z"/>
        </g>
        <g>
          <rect class="cls-1" x="130.53" y="2.35" width="3.78" height=".8"/>
          <rect class="cls-1" x="130.53" y="8.34" width="3.78" height=".8"/>
          <path class="cls-1" d="M133.12,3.76v.8h-1.15l.58,1.18s-.89-.06-.89.73.73.7.73.7c0,0,.59-.04.59-.83v-1.09h1.19v.66h-.41v.64s-.06.49.41.49v.73s-.9.04-.9-.51c0,0-.28.51-1.05.51s-1.41-.47-1.41-1.35.9-1.17.9-1.17l-.73-1.49h2.12Z"/>
        </g>
      </g>
      <rect class="cls-1" x="84.16" width=".75" height="21.85"/>
    </g>
  </g>
</svg>