<?xml version="1.0" encoding="UTF-8"?>
<svg id="Layer_2" data-name="Layer 2" xmlns="http://www.w3.org/2000/svg" viewBox="0 0 131.2 75.84">
  <defs>
    <style>
      .cls-1 {
        fill: #fff;
        stroke-width: 0px;
      }
    </style>
  </defs>
  <g id="Layer_1-2" data-name="Layer 1">
    <g>
      <g>
        <g>
          <polygon class="cls-1" points="77.85 18.7 80.66 21 90.05 13.33 90.05 0 67.07 18.79 80.67 29.91 86.48 25.15 86.48 41.36 79.71 41.36 79.71 33.32 75.24 29.73 65.6 37.62 55.97 29.75 51.49 33.32 51.49 41.36 44.71 41.36 44.71 25.15 50.53 29.91 64.12 18.79 41.15 0 41.15 13.33 50.53 21 53.35 18.7 44.71 11.64 44.71 7.52 58.49 18.79 50.62 25.39 41.15 17.63 41.15 44.93 55.05 44.93 55.05 35.01 55.91 34.31 65.6 42.13 75.29 34.31 76.15 35.01 76.15 44.93 90.05 44.93 90.05 17.63 80.58 25.39 72.7 18.79 86.48 7.52 86.48 11.64 77.85 18.7"/>
          <polygon class="cls-1" points="72.56 27.58 69.78 25.35 65.64 28.7 61.49 25.35 58.7 27.57 65.63 33.16 65.64 33.16 65.65 33.16 72.56 27.58"/>
        </g>
        <g>
          <path class="cls-1" d="M14.88,53.99h4.48v13.89h-5v-6.25l-3.29,4.35h-2.78l-3.29-4.35v6.25H0v-13.89h4.68l5.1,6.89,5.1-6.89Z"/>
          <path class="cls-1" d="M28.93,67.88c-2.84,0-4.17-1.31-4.17-4.17v-5.56c0-2.86,1.33-4.17,4.17-4.17h9.09c2.84,0,4.17,1.31,4.17,4.17v5.56c0,2.86-1.33,4.17-4.17,4.17h-9.09ZM35.95,63.52c.69,0,.91-.22.91-.91v-3.33c0-.69-.22-.91-.91-.91h-4.96c-.69,0-.91.22-.91.91v3.33c0,.69.22.91.91.91h4.96Z"/>
          <path class="cls-1" d="M59.69,53.99h5.12v13.89h-4.33l-7.78-7.36v7.36h-5.12v-13.89h4.52l7.58,7.16v-7.16Z"/>
          <path class="cls-1" d="M85.8,53.99v4.56h-5.36v9.33h-5.32v-9.33h-5.36v-4.56h16.03Z"/>
          <path class="cls-1" d="M107.78,67.88h-6.03l-2.74-4.09h-2.94v4.09h-5.32v-13.89h12.66c2.62,0,3.77,1.13,3.77,3.77v1.87c0,2.22-.79,3.35-2.6,3.67l3.19,4.58ZM96.08,57.76v2.38h5.04c.58,0,.75-.18.75-.75v-.87c0-.58-.18-.75-.75-.75h-5.04Z"/>
          <path class="cls-1" d="M125.17,67.88l-.77-1.87h-6.27l-.77,1.87h-5.75l6.79-13.89h6.03l6.79,13.89h-6.03ZM119.57,62.57h3.35l-1.67-3.99-1.69,3.99Z"/>
        </g>
      </g>
      <g>
        <path class="cls-1" d="M16.6,72.35h.63v3.05h-.7v-1.84l-.85,1.31h-.39l-.85-1.31v1.84h-.7v-3.05h.66l1.1,1.74,1.1-1.74Z"/>
        <path class="cls-1" d="M19.4,75.4c-.58,0-.85-.27-.85-.85v-1.36c0-.58.27-.85.85-.85h1.4c.58,0,.85.27.85.85v1.36c0,.58-.27.85-.85.85h-1.4ZM20.54,74.77c.27,0,.36-.1.36-.36v-1.06c0-.26-.09-.36-.36-.36h-.88c-.26,0-.36.1-.36.36v1.06c0,.26.1.36.36.36h.88Z"/>
        <path class="cls-1" d="M25.29,72.35h.72v3.05h-.6l-1.73-1.98v1.98h-.72v-3.05h.64l1.69,1.94v-1.94Z"/>
        <path class="cls-1" d="M30.05,72.35v.66h-1.05v2.39h-.75v-2.39h-1.05v-.66h2.86Z"/>
        <path class="cls-1" d="M33.08,75.4l-.22-.56h-1.47l-.22.56h-.79l1.35-3.05h.84l1.35,3.05h-.83ZM31.61,74.28h1.02l-.51-1.28-.51,1.28Z"/>
        <path class="cls-1" d="M34.84,73.2c0-.58.27-.85.85-.85h1.4c.58,0,.85.27.85.85v.2h-.75v-.07c0-.26-.09-.36-.36-.36h-.88c-.27,0-.36.1-.36.36v1.12c0,.26.09.36.36.36h.91c.27,0,.36-.1.36-.36v-.17h-.78v-.57h1.51v.85c0,.58-.27.85-.85.85h-1.4c-.58,0-.85-.27-.85-.85v-1.36Z"/>
        <path class="cls-1" d="M40,74.78h1.86v.62h-2.61v-3.05h2.56v.62h-1.81v.58h1.64v.57h-1.64v.67Z"/>
        <path class="cls-1" d="M45.31,71.92h.57v3.92h-.57v-3.92Z"/>
        <path class="cls-1" d="M52.14,72.35v.66h-1.05v2.39h-.75v-2.39h-1.05v-.66h2.86Z"/>
        <path class="cls-1" d="M56.32,75.4h-.82l-.71-1.06h-.73v1.06h-.75v-3.05h2.12c.54,0,.76.22.76.76v.42c0,.49-.19.72-.63.75l.76,1.12ZM54.06,72.91v.89h1.08c.23,0,.3-.07.3-.31v-.28c0-.23-.07-.3-.3-.3h-1.08Z"/>
        <path class="cls-1" d="M59.95,75.4l-.22-.56h-1.47l-.22.56h-.79l1.35-3.05h.84l1.35,3.05h-.83ZM58.48,74.28h1.02l-.51-1.28-.51,1.28Z"/>
        <path class="cls-1" d="M64.21,72.35h.72v3.05h-.6l-1.73-1.98v1.98h-.72v-3.05h.64l1.69,1.94v-1.94Z"/>
        <path class="cls-1" d="M66.25,74.46h.72v.12c0,.18.07.24.24.24h1.05c.18,0,.24-.07.24-.24v-.14c0-.18-.06-.23-.24-.24l-1.32-.12c-.46-.04-.65-.21-.65-.65v-.42c0-.45.2-.65.65-.65h1.6c.45,0,.65.2.65.65v.24h-.72v-.07c0-.18-.07-.24-.24-.24h-.94c-.18,0-.24.07-.24.24v.06c0,.18.06.23.24.24l1.32.12c.46.04.65.21.65.65v.5c0,.45-.2.65-.65.65h-1.7c-.45,0-.65-.2-.65-.65v-.29Z"/>
        <path class="cls-1" d="M70.57,75.4v-3.05h2.12c.54,0,.76.22.76.76v.58c0,.54-.22.76-.76.76h-1.37v.96h-.75ZM71.32,73.89h1.08c.23,0,.3-.07.3-.31v-.34c0-.23-.07-.31-.3-.31h-1.08v.95Z"/>
        <path class="cls-1" d="M75.49,75.4c-.58,0-.85-.27-.85-.85v-1.36c0-.58.27-.85.85-.85h1.4c.58,0,.85.27.85.85v1.36c0,.58-.27.85-.85.85h-1.4ZM76.64,74.77c.27,0,.36-.1.36-.36v-1.06c0-.26-.09-.36-.36-.36h-.88c-.26,0-.36.1-.36.36v1.06c0,.26.1.36.36.36h.88Z"/>
        <path class="cls-1" d="M82.07,75.4h-.82l-.71-1.06h-.73v1.06h-.75v-3.05h2.12c.54,0,.76.22.76.76v.42c0,.49-.19.72-.63.75l.76,1.12ZM79.81,72.91v.89h1.08c.23,0,.3-.07.3-.31v-.28c0-.23-.07-.3-.3-.3h-1.08Z"/>
        <path class="cls-1" d="M85.92,72.35v.66h-1.05v2.39h-.75v-2.39h-1.05v-.66h2.86Z"/>
        <path class="cls-1" d="M89.32,71.92h.57v3.92h-.57v-3.92Z"/>
        <path class="cls-1" d="M94.28,75.4c-.58,0-.85-.27-.85-.85v-2.21h.75v2.06c0,.26.09.36.36.36h.75c.26,0,.36-.1.36-.36v-2.06h.75v2.21c0,.58-.27.85-.85.85h-1.27Z"/>
        <path class="cls-1" d="M100.59,72.35h.63v3.05h-.7v-1.84l-.85,1.31h-.39l-.85-1.31v1.84h-.7v-3.05h.66l1.1,1.74,1.1-1.74Z"/>
        <path class="cls-1" d="M102.5,75.4v-.51l1.85-1.9h-1.76v-.64h2.86v.51l-1.85,1.9h1.85v.64h-2.95Z"/>
        <path class="cls-1" d="M107.54,75.4c-.58,0-.85-.27-.85-.85v-2.21h.75v2.06c0,.26.09.36.36.36h.75c.26,0,.36-.1.36-.36v-2.06h.75v2.21c0,.58-.27.85-.85.85h-1.27ZM107.45,72.14v-.44h.54v.44h-.54ZM108.37,72.14v-.44h.54v.44h-.54Z"/>
        <path class="cls-1" d="M110.95,73.2c0-.58.27-.85.85-.85h1.4c.58,0,.85.27.85.85v.2h-.75v-.07c0-.26-.09-.36-.36-.36h-.88c-.27,0-.36.1-.36.36v1.12c0,.26.09.36.36.36h.91c.27,0,.36-.1.36-.36v-.17h-.78v-.57h1.51v.85c0,.58-.27.85-.85.85h-1.4c-.58,0-.85-.27-.85-.85v-1.36Z"/>
        <path class="cls-1" d="M116.11,74.78h1.86v.62h-2.61v-3.05h2.56v.62h-1.81v.58h1.64v.57h-1.64v.67Z"/>
      </g>
    </g>
  </g>
</svg>