<?xml version="1.0" encoding="UTF-8"?>
<svg id="Layer_2" data-name="Layer 2" xmlns="http://www.w3.org/2000/svg" viewBox="0 0 126.97 33.62">
  <defs>
    <style>
      .cls-1 {
        fill: #333;
      }

      .cls-1, .cls-2 {
        stroke-width: 0px;
      }

      .cls-2 {
        fill: #fff;
      }
    </style>
  </defs>
  <g id="Layer_1-2" data-name="Layer 1">
    <g>
      <g>
        <path class="cls-2" d="M45.66,21.49v-10.66l-3.39,7.5h-2.97l-3.39-7.5v10.66h-5.56V1.24h6.07l4.36,9.52,4.39-9.52h6.04v20.24h-5.56Z"/>
        <path class="cls-2" d="M61.71,21.77c-1.35,0-2.53-.21-3.55-.64-1.02-.43-1.87-1-2.57-1.71-.69-.71-1.22-1.54-1.57-2.48-.35-.94-.53-1.92-.53-2.95s.18-2.01.53-2.95c.35-.94.87-1.77,1.57-2.48.69-.71,1.55-1.28,2.57-1.71,1.02-.43,2.2-.64,3.55-.64s2.51.21,3.54.64c1.03.43,1.89,1,2.58,1.71.69.71,1.22,1.54,1.57,2.48.35.94.53,1.92.53,2.95s-.18,2.01-.53,2.95-.87,1.77-1.57,2.48c-.69.71-1.55,1.28-2.58,1.71-1.03.43-2.21.64-3.54.64ZM59.06,13.99c0,1.01.25,1.8.74,2.37.49.57,1.13.86,1.91.86s1.42-.29,1.91-.86c.49-.57.74-1.36.74-2.37s-.25-1.8-.74-2.37c-.49-.57-1.13-.86-1.91-.86s-1.42.29-1.91.86c-.49.57-.74,1.36-.74,2.37Z"/>
        <path class="cls-2" d="M78.01,21.77c-1.31,0-2.59-.21-3.85-.64-1.25-.43-2.32-1.05-3.19-1.87l1.85-3.25c.93.63,1.83,1.11,2.69,1.45.86.34,1.66.51,2.38.51.76,0,1.14-.24,1.14-.71,0-.27-.15-.49-.44-.68-.29-.19-.87-.41-1.72-.66-1.06-.3-1.95-.6-2.67-.9-.71-.29-1.29-.61-1.74-.96-.45-.34-.77-.72-.95-1.14-.19-.42-.28-.91-.28-1.48,0-.76.15-1.46.46-2.11.3-.65.73-1.21,1.27-1.68.54-.47,1.19-.84,1.94-1.1.75-.26,1.57-.38,2.47-.38,1.1,0,2.15.14,3.15.43,1,.29,2,.87,3.01,1.74l-2.05,3.25c-.93-.61-1.71-1.04-2.34-1.3-.63-.26-1.22-.38-1.77-.38-.32,0-.59.06-.8.19-.21.12-.31.32-.31.58,0,.29.15.52.46.7.3.18.9.38,1.8.61,1.08.29,2,.58,2.74.9.74.31,1.33.66,1.78,1.03.45.37.76.79.95,1.25.19.47.29,1,.29,1.61,0,.78-.14,1.47-.43,2.08-.28.61-.7,1.13-1.24,1.57-.54.44-1.2.77-1.97,1-.77.23-1.64.34-2.61.34Z"/>
        <path class="cls-2" d="M90.53,21.77c-.74,0-1.44-.12-2.08-.37-.65-.25-1.2-.58-1.67-1.01-.47-.43-.83-.94-1.1-1.53-.27-.59-.4-1.23-.4-1.91,0-.76.16-1.45.48-2.08.32-.63.77-1.17,1.34-1.63.57-.46,1.25-.81,2.04-1.05.79-.25,1.66-.37,2.61-.37,1.22,0,2.22.19,3.02.57v-.46c0-.7-.2-1.23-.61-1.57-.41-.34-1.07-.51-1.98-.51-.86,0-1.64.14-2.37.41-.72.28-1.48.68-2.28,1.21l-1.57-3.36c1.98-1.27,4.23-1.91,6.76-1.91,2.39,0,4.24.53,5.53,1.6,1.29,1.06,1.94,2.66,1.94,4.79v2.91c0,.51.08.87.23,1.07.15.2.42.32.8.36v4.56c-.44.09-.85.17-1.24.21-.39.05-.74.07-1.04.07-.97,0-1.71-.18-2.21-.53-.5-.35-.83-.87-.98-1.55l-.11-.54c-.67.86-1.44,1.51-2.31,1.95-.87.45-1.81.67-2.79.67ZM92.16,17.89c.32,0,.66-.05,1-.16.34-.1.65-.24.91-.41.21-.15.38-.32.51-.5.13-.18.2-.37.2-.56v-1.11c-.32-.11-.67-.21-1.05-.29-.38-.08-.72-.11-1.03-.11-.67,0-1.22.16-1.65.48-.44.32-.66.73-.66,1.23,0,.42.17.76.5,1.03.33.27.76.4,1.27.4Z"/>
        <path class="cls-2" d="M103.19,5.24V.67h5.42v4.56h-5.42ZM103.19,21.49V6.49h5.42v15h-5.42Z"/>
        <path class="cls-2" d="M121.24,21.49l-3.39-5.47-1.08,1.2v4.28h-5.42V.67h5.42v11.38l3.99-5.56h5.7l-5.16,6.56,5.67,8.44h-5.73Z"/>
        <path class="cls-1" d="M25.06,33.62c-.05,0-.09-.02-.12-.04-.2-.04-.35-.12-.47-.24l-.22-.2c-1.05-.94-1.95-1.75-1.36-3.39.45-1.32.91-2.68,1.4-3.99.11-.25.21-.5.31-.74.2-.49.41-.99.64-1.49.33-.79.68-1.53,1.03-2.2.54-1.06,1.04-2,1.52-2.85-.89.8-1.65,1.57-2.31,2.37-.12.12-.23.23-.34.37-.22.29-.52.43-.92.43-.1,0-.21,0-.34-.02-.7-.09-1.2-.42-1.74-.89-.44-.32-.61-.81-.48-1.36.05-.18.11-.35.16-.52.2-.67.41-1.37.71-1.99.86-1.8,1.88-3.48,2.86-5.03.22-.37.57-.61,1.03-.67.21-.04.38-.06.54-.06.35,0,.64.1.89.29.24.17.37.36.4.56.03.19-.04.39-.21.61-.97,1.21-1.58,2.22-1.97,3.26-.08.21-.19.4-.29.58-.09.15-.17.3-.23.45-.38.92-.82,1.96-1.21,2.95.11-.11.22-.21.32-.32,1.37-1.44,2.92-2.84,4.9-4.38l.04-.03c.17-.15.32-.28.47-.45.59-1,1.18-1.98,1.86-2.86h0s.03-.04.03-.04c.65-.87,1.34-1.32,2.05-1.32.05,0,.11,0,.17,0h.07c1.03,0,1.24.32,1.24.59,0,.21,0,.35-.07.5-.07.14-.17.27-.34.44h0s-.01.02-.01.02c-.19.14-.32.27-.49.44-.05.05-.07.07-.08.1l-.04.09h-.06s0,0,0,0c-.57.6-1,1.25-1.46,1.94l-.15.22s-.03.07-.06.1c-1.08,1.68-1.95,3.2-2.66,4.62v.02c-.32.58-.63,1.18-.91,1.77-.5,1.04-.98,2.19-1.48,3.49-.66,1.67-1.2,3.37-1.59,5.05l-.02.07c-.02.07-.03.13-.03.18v.04c-.19.79-.33,1.62-.46,2.41l-.02.12.08.14c.11.15.14.32.08.47-.06.16-.21.29-.41.34-.07.04-.15.04-.21.04Z"/>
        <path class="cls-2" d="M4.3,17.21l1.23-1.74c.57-.83,1.11-1.65,1.71-2.45.83-1.11,1.71-2.2,2.57-3.31,1.57-1.97,3.28-3.79,5.02-5.59.34-.37.66-.74.94-1.14.23-.29.51-.37.86-.37.68,0,1.31.14,1.88.54.48.34.54.68.29,1.17l-3.91,6.93c-.2.4-.43.8-.6,1.2-.31.71-.57,1.43-.8,2.2.09-.11.2-.2.28-.34,1.11-1.62,2.45-3.11,3.76-4.59.4-.46.86-.88,1.17-1.37.68-1,1.54-1.82,2.34-2.71l2.45-2.74c.74-.86,1.51-1.71,2.28-2.57.34-.34.77-.43,1.2-.23.48.23.94.51,1.34.83.48.37.48.63.11,1.08-.11.17-.2.34-.29.48-2.57,4.7-4.82,9.52-7.1,14.34-.74,1.54-1.45,3.08-2.14,4.65-.2.43-.28.94-.34,1.48.26-.26.51-.46.71-.74,1.54-1.91,3.05-3.82,4.53-5.73.28-.37.63-.51,1.05-.51.14,0,.34.09.4.2.06.11.03.37-.09.48-.28.31-.63.57-.91.88-1.05,1.2-1.97,2.48-2.97,3.68-1.31,1.54-2.51,3.31-3.53,5.05-.48.83-1.31.97-2,.66-.37-.14-.77-.37-1.08-.63-.37-.26-.43-.68-.31-1.11.34-1.03.57-2.08,1-3.08,1-2.34,2.08-4.65,3.14-6.96.66-1.4,1.31-2.79,2.02-4.19.94-1.82,1.94-3.65,2.91-5.47l.34-.66c-.06-.03-.09-.06-.14-.09l-2.91,2.99c-.23.23-.46.46-.66.68-.91,1-1.82,1.97-2.68,2.96-.48.57-.88,1.23-1.34,1.82-.77,1.05-1.54,2.11-2.39,3.14-.34.43-.83.8-1.31,1.08-.2.11-.57.06-.8-.03-.6-.17-1.08-.54-1.4-1.08-.09-.14-.2-.26-.37-.46.94-2.99,2.37-5.79,4.08-8.61-.17.09-.23.11-.26.14-3.45,3.42-6.19,7.21-8.92,11.2-.2.29-.34.66-.54.94-.34.54-.68,1.08-1.08,1.57-.34.43-1.11.54-1.54.29-.66-.4-1.31-.8-1.51-1.8.97-2.17,1.97-4.5,3.11-6.78,1.11-2.25,2.34-4.45,3.53-6.73-.37.2-.83.74-1.05,1.17-.28.46-.57.91-.88,1.34-.29.4-1.2-.06-1.54-.14-.2-.66-.37-1.6-.14-2.25.23-.6.91-.97,1.43-1.34,1.23-1,2.48-1.94,3.85-2.77.14-.06.26-.14.4-.23.77-.43,1.71-.29,2.37.34.34.29.43.6.17.97-.66.97-1.03,2.11-1.54,3.16-.63,1.28-1.37,2.48-2.05,3.73-.71,1.31-1.4,2.62-2.05,3.93-.46.94-.86,1.88-1.28,2.82l-.09.31s.06.03.09.06Z"/>
        <path class="cls-2" d="M35.32,11c0,.2,0,.31-.06.43-.06.11-.14.23-.31.4-.2.14-.34.29-.51.46-.06.06-.09.09-.11.14-.03,0-.06.03-.09.06-.66.68-1.14,1.45-1.65,2.22t-.03.06c-.97,1.51-1.88,3.05-2.68,4.65-.31.6-.63,1.2-.91,1.8-.54,1.14-1.03,2.31-1.48,3.51-.66,1.65-1.2,3.36-1.6,5.07-.03.11-.06.2-.06.29-.2.86-.34,1.74-.48,2.59l.11.2c.2.26.03.51-.26.57-.03.03-.09.03-.14.03-.03,0-.06-.03-.06-.03-.17-.03-.31-.09-.43-.2-1.17-1.05-2.14-1.77-1.54-3.42.46-1.34.91-2.68,1.4-3.99.31-.74.6-1.48.94-2.22.31-.74.66-1.48,1.03-2.2.63-1.23,1.28-2.45,1.97-3.62-.11.06-.17.11-.23.17-1,.86-1.94,1.77-2.79,2.79-.11.11-.23.23-.34.37-.28.37-.66.4-1.11.34-.68-.09-1.17-.43-1.65-.86-.43-.31-.54-.74-.43-1.2.26-.83.48-1.71.86-2.48.83-1.74,1.82-3.39,2.85-5.02.2-.34.51-.54.91-.6.46-.09.91-.11,1.31.2.4.29.46.57.17.94-.83,1.03-1.54,2.08-2,3.31-.14.37-.37.68-.51,1.03-.43,1.03-.86,2.05-1.25,3.05-.03.09-.03.17-.03.26l.09.06c.2-.2.4-.37.57-.57,1.51-1.6,3.16-3.02,4.87-4.36.2-.17.37-.31.54-.51.57-.97,1.17-1.97,1.85-2.85l.03-.03c.48-.66,1.2-1.34,2.08-1.25h.09c.31,0,1.08.03,1.08.43Z"/>
      </g>
      <g>
        <path class="cls-2" d="M59.09,24.34l1.11,3.72,1.09-3.72h1.64l-2.09,5.67h-1.29l-2.11-5.67h1.65Z"/>
        <path class="cls-2" d="M71.24,30.02v-5.67h1.56v5.67h-1.56Z"/>
        <path class="cls-2" d="M85.7,28.66v1.36h-4.04v-5.67h3.97v1.36h-2.41v.8h2.06v1.26h-2.06v.89h2.49Z"/>
        <path class="cls-2" d="M95.86,27.23v2.79h-1.56v-5.67h1.21l2.28,2.88v-2.88h1.56v5.67h-1.24l-2.25-2.79Z"/>
        <path class="cls-2" d="M109.76,27.23v2.79h-1.56v-5.67h1.21l2.28,2.88v-2.88h1.56v5.67h-1.24l-2.25-2.79Z"/>
        <path class="cls-2" d="M123.58,24.34h1.42l1.97,5.67h-1.58l-.34-1.11h-1.51l-.34,1.11h-1.59l1.97-5.67ZM124.79,27.87l-.5-1.76-.53,1.76h1.03Z"/>
      </g>
    </g>
  </g>
</svg>