<?xml version="1.0" encoding="UTF-8"?>
<svg id="Layer_2" data-name="Layer 2" xmlns="http://www.w3.org/2000/svg" viewBox="0 0 102.46 113.57">
  <defs>
    <style>
      .cls-1 {
        fill: #fff;
        stroke-width: 0px;
      }
    </style>
  </defs>
  <g id="Layer_1-2" data-name="Layer 1">
    <g>
      <g>
        <path class="cls-1" d="M56.25,78.35c.6.32.69.77,1.24,1.24.55.47,1.49-.08,1.49-.08,0,0,.97.27,1.28,1.09.18-1.17-.62-1.86-.62-1.86.1-.93-.57-1.47-1.58-1.24-.33.08-.61.21-.94.26-.89.08-2.17-.68-2.13-1.03.04-.35.93-.56,1.68-.51.75.05.95-.67.95-.67,0,0,1.11-.11,1.42.54.28-1.13-1.35-1.4-1.35-1.4,0,0-.35-.66-1.48-.56-1.69.14-1.63,3.57-3.89-.24-.46-.86,2.45-2.1,2.22-4.58.82.48,1.47,1,1.47,1,0,0-.24-1.76-1.27-2.87,1.35.53,2.37,1.3,2.38,1.31-.01-.04-.83-2.74-3.45-3.86-1.87-.8-3.8-.44-5.05-.28-.4.13-.8.28-1.19.46-.33.16-.64.33-.92.51.34-.07,1.59-.17,2.24-.05,0,0-2.44.52-3.84,1.67-.49.8-.69,1.7-.61,2.62,3.82-1.32,6.28-.46,6.12.81-.07.5-1.95,2.1-2.94,2.62,0,0,.38.09,1.63.71-.84.22-1.41.5-1.41.5,0,0,.45.05,2,.62.75.28,1.96,1.25,1.64,2.02-.17.39-1.56.69-.96,1.71h0c-.4.89.22,1.55.7,1.92-.2-.52.03-1.38.39-1.38.42,0,1.17.02,1.48-.4.15-.2.31-.4.44-.56,1.17.7.02,1.3.62,1.91.6.61,1.57.34,1.57.34,0,0,.71.88.25,1.6,1.56-.27,1.06-1.68,1.06-1.68,0,0,.56-.79-.71-1.41-1.28-.63-1.26-1.04-1.26-1.04,0,0,.73-.08,1.33.24Z"/>
        <path class="cls-1" d="M48.91,51.19c1.47,2.98,8.09,1.96,10.85,4.47.05-.5.06-1.35-.44-2.1-.52-.24-1.12-.63-1.58-.98-.07.46-.44.86-1.04,1.07-.24-1.58-2.9-1.71-4.52-2.15l1.14.9-2.07-.27c-.9-.12-1.68-.45-2.34-.93Z"/>
        <path class="cls-1" d="M40.15,41.49s.21,1.32,1.63,1.8c.35-.32.85-.63,1.56-.87-2.27,1.91-.31,3.23-2.3,5.35.48.05,1.15-.08,1.74-.31.15-.37.18-.87.21-1.53.56,1.47.02,3.09-.17,3.61,1.05-.44,1.72-.88,1.6-1.88-.07-.64-.3-1.24.42-1.63-.68.92.49,1.75-.09,2.73.51,1.9.08,3.07.08,3.07,0,0,1.66-.62,2.38-2.49-.55-1.21-.64-2.6-.53-3.89.17,2.42,1.58,5.7,4.65,6.11,0,0-.62-.49-.85-1.48,1.24,1.41,5.83,1.1,6.53,2.82,1.63-3-5.73-2.53-4.77-5.83-.01.98,1.45,1.73,2.5,2.26.33-1.82-1.11-2.87-1.11-2.87,1.87.93,1.92,2.52,1.84,3.22l.06.03c1.14.54,2.15,1,2.27,2.08,1.18,1.09,2.14,1.83,4.18,1.47-3.52-1.24-1.82-3.67-3.24-4.6.13.65.09,1.1-.3,1.97-.26-.97-1.44-2.06-2.39-2.56,1.37.37,1.82.82,2.25,1.4.06-2.04-1.34-2.4-2.97-3.08-1.45-.61-1.48-1.71-1.06-2.25.65-.83,3.03-.24,2.47,1.33.03-.02,2.14-1.03,2.14-1.44s-.19-.79-.19-.79c0,0,.2-.43-.15-.96-.35-.52-.93-.7-.95-.71,0,.02.19.53.18.75,0,.23-.18.47-.26.5-.08.03-3.06-.77-3-.99.06-.21.73-1.47.93-1.47s1.83.1,1.83.1c0,0,.6.48.84,1,.2-.57.23-1.19.23-1.19,0,0,.46-.17.55-.53.06-.25.04-.67.03-.91-.08-.23-.72-.45-1.11-.27.24-.66,1.02-.13,1.34-.37h0c0-.08-.74-.76-2.05-.74-1.31.02-2.13-.54-2.13-.54,0,0,.13-.69-1.33-.87-.79-.1-1.5-.28-1.99-.44-.41-.46-.85-.88-1.24-1.1-1.12-.64-2.53-.42-2.53-.42,0,0,.5.41,1.05,1.06-2.27-.45-3.68.2-3.68.2,0,0,.51.1,1.18.59-.72.16-1.78.57-2.34,1.61-.88,1.66-1.87,1.8-1.87,1.8.57.44,1.51.52,2.21.33-.38.3-.83.39-1.25.4-.86,1.53-3.07,1.4-3.07,1.4ZM54.72,37.04c-.33.14-.88.73-1.31.79-.26.04-.76-.63-.76-.63h-.78c.38-.4,2.21-.08,2.85-.16ZM50.17,40.88c.32-.3.65-.52,1.05-.77,0,0-.28,1.88,1.45,3.9-1.8-1.28-2.01-2.77-2.01-2.77,0,0-.39.39-.62.68-.79-.93-.67-2.31-.1-3.28-.15.46.03,1.75.23,2.23ZM46.35,37.8c.66-.67,2.04-.77,2.95-.61.06-.18.11-.49,0-.94,0,0,.64.62.3,1.65-.95-.53-2.04-.52-2.9.15.22.75,1.12,1.22,2.23.99-1.4,2.61,1.28,2.79,1.35,4.43-.72-1.25-3.07-1.62-2.32-3.9-1.05-.22-1.7-.76-1.62-1.76ZM46.05,39.46c-1.67,1.69-.32,3.42-.67,4.96.83-.38,1.27-1.06,1.47-1.88,1.24,1.51,1.61,2.47,1.67,3.53.81-.78,1.1-1.06,1.1-2.16,1.36,2-.33,3.62,1.61,5.03-1.69-.73-1.66-1.9-1.77-3-.31.5-.82.9-1.45,1.27.14-1.31-.11-2.44-.93-3.51-.48.98-1.71,1.58-2.74,1.57,1.75-1.83-1.36-3.92,1.73-5.81Z"/>
        <path class="cls-1" d="M73.45,60.72s.8-1.09-.01-1.58c-.48-.29-1.05-.29-1.43-.24,0-.01-.01-.02-.02-.03,0,0-.01-.02-.02-.03-.01-.02-.02-.04-.03-.06,0,0,0-.01-.01-.02-.02-.03-.04-.06-.07-.08,0-.01-.02-.02-.03-.03,0,0-.01-.01-.02-.02-.02-.02-.05-.04-.07-.06,0,0,0,0-.01-.01-.01,0-.03-.02-.04-.03-.01,0-.03-.02-.04-.02,0,0-.02,0-.03-.01,0,0-.01,0-.02,0,0,0-.02,0-.03-.01,0,0-.02,0-.03,0-.02,0-.03-.01-.05-.02,0,0-.02,0-.03,0-.02,0-.05-.01-.08-.01,0,0-.02,0-.02,0,0,0,0,0-.01,0-.01,0-.02,0-.03,0,0,0-.02,0-.03,0-.01,0-.02,0-.03,0h0s-.02,0-.03,0c-.01,0-.02,0-.03,0-.04,0-.09,0-.14.01-.01,0-.02,0-.03,0,0,0-.02,0-.02,0-.06.01-.13.03-.2.05,0,0,0,0-.01,0-.06.02-.12.04-.19.07-.12.05-.23.09-.34.13-.02,0-.03.01-.04.01-.03,0-.06.02-.09.03-.03,0-.06.02-.08.02-.05.02-.11.03-.16.04-.75.16-1.12-.09-1.92-.33-.36-.11-.79-.14-1.2-.14-.03,0-.06,0-.09,0-.07,0-.14,0-.22,0-.03,0-.07,0-.1,0-.01,0-.03,0-.04,0-.04,0-.08,0-.12,0-.09,0-.18.01-.27.02-.02,0-.04,0-.05,0,0,0-.01,0-.02,0-.02,0-.05,0-.07,0-.07,0-.14.02-.2.02-.01,0-.02,0-.03,0-.03,0-.05,0-.07.01,0,0-.01,0-.02,0,0,0,0,0,0,0,0,0-.02,0-.02,0,0,0-.02,0-.02,0,0,0,0,0-.01,0-.04,0-.06,0-.06,0-.05,0-.1,0-.15-.01-.03,0-.05,0-.08,0-.06,0-.13-.01-.19-.02-.08,0-.16-.02-.23-.03-.08-.01-.16-.02-.24-.04-.04,0-.08-.01-.12-.02-.08-.01-.16-.03-.25-.04-.06-.01-.13-.02-.19-.04,0,0,0,0-.01,0-.03,0-.06-.01-.09-.02-.02,0-.05-.01-.07-.02-.02,0-.05-.01-.07-.02-.05-.01-.1-.02-.15-.03-.16-.04-.32-.07-.48-.12-1.88-.49-3.69-1.36-4.66-2.62-3.22-1.74-10.02-.94-10.41-5.08-.12-.14-.24-.28-.35-.43-.33.68-.82,1.29-1.46,1.79-.12.1-.27.2-.42.3.09.72.16,1.5.2,2.36.25,5.21-3.24,6.82-7.52,7.24-4.77.47-5.32,3.09-5.57,6.98-.18,2.83-2.83,2.33-2.91.84-.56-9.87,7.71-7.53,11.19-12.39,1.84-2.57,1.68-6.82-.87-9.02-.24-.28-.55-.6-.97-.93-.82-.65-1.3-.99-1.48-1.35-.76-1.53,1.92-1.44,1.36,0,.75-.52.24-1.45-.57-1.64-1.03-.24-1.74.4-1.81,1.18-.04.47.14.86.43,1.19-1.34-.37-3.43-.06-4.79,1.27-1.47,1.44-2.23-.41-.91-.65-1.66-.15-1.72,1.63-.38,1.85-1.84,2.44.62,5.16-.46,6.59.67-.28.74-.88.74-.88,1.55,1.94-.13,3.7-2.13,2.3.26,2.4,3.24,2.62,4.43,1.13.56-.7.62-1.88,0-3.19,1.51,1.19,1.21,2.78.25,3.59,1.76-1.03,1.53-2.83.38-4.13-.24-.27-.49-.55-.73-.83.12.01.25.02.37.02,2.79-.03,2.53-3.54-.31-3.08,1.43.32,1.17,1.5.44,1.62-1.53.24-2.7-3.47,1.27-4.4-.57.45-.75,1.2-.17,1.89-.17-2.09,3.99-2.06,5.25.47,1.08,2.16.56,4.76-.71,6.45-2.33,3.09-8.62,2.98-10.68,8.11-.72,1.79-.91,3.78-.56,5.33.73,3.23,5.24,3.07,5.73-.11.32-2.06-.17-4.68,2.54-5.62-3.73,5.12,1.42,6.33-.08,9.84-.38.89-1.51,1.67-2.86,1.67.26.32.59.49.96.56-.86.58-1.24,1.39-1.24,1.39,2.23-1.2,3.68,1.24,1.9,2.13-.53.27-1.22.44-1.73.71,0,0,.69.04,1.75.77-.69.28-1.16.67-1.16.67,1.49-.03,4.3,1.66,3.07,2.7-.56.47-1,.81-.59,1.51h0c-.44.98.24,1.72.78,2.12-.22-.58.04-1.52.43-1.52.46,0,1.29.02,1.63-.44.16-.22.34-.44.49-.61,1.3.77.02,1.44.68,2.11.66.67,1.73.37,1.73.37,0,0,.79.97.27,1.76,1.72-.3,1.18-1.85,1.18-1.85,0,0,.62-.87-.79-1.56-1.41-.69-1.39-1.15-1.39-1.15,0,0,.81-.09,1.47.27.66.36.77.85,1.37,1.37.6.52,2.05.02,2.05.02,0,0,1.08.3,1.41,1.21.2-1.29-.69-2.06-.69-2.06,0,0,.1-.91-.54-1.28-.64-.37-1.65,0-2.64.09-.99.09-2.4-.75-2.36-1.14.04-.39,1.03-.62,1.85-.57.83.05,1.05-.75,1.05-.75,0,0,1.23-.12,1.57.6.31-1.25-1.49-1.54-1.49-1.54,0,0-.38-.73-1.63-.62-.83.07-1.25.87-1.79,1.43-1.13,1.17-2.27.27-2.7-1-.65-1.91.88-2.5.42-4.73,2.52-1.13,1.94-4.05,5.59-3.78-2.58-3.2-1.79-6.67,2.17-8.52,4.1-1.91,7-.16,10.4-3.46.32-.31.61-.65.86-1-.03-.03-.05-.06-.08-.09-.57-.63-1.3-1.22-2.14-1.55-2.06-.84-2.67.36-3.96,1.52-.25-1.91-.52-3.61-1.9-5.08.52.3,1.07.72,1.49,1.33.53.76.78,1.73.88,2.56,2.25-3.27,8.69,1.04,9.45,3.74.94-1.16.65-1.75.65-1.75,0,0,.19.06.42.2.04.03.08.05.13.09,0,0,.02.01.03.02,0,0,.02.02.03.02,0,0,0,0,0,0,0,0,.02.01.02.02,0,0,.01.01.02.02.01,0,.02.02.03.03,0,0,0,0,0,0,.01.01.03.02.04.04.01.01.03.03.04.04.06.06.11.12.16.19,0,0,.01.02.02.02,0,.01.02.02.02.03,0,.01.01.02.02.03,0,.01.01.02.02.03,0,.01.01.02.02.04,0,.01.01.02.02.04.01.03.03.05.04.08,0,.01.01.02.02.03.02.04.03.08.05.12,0,.01,0,.02.01.03,0,.01,0,.02.01.04,0,0,0,.02,0,.02,0,.02.01.04.01.05,0,0,0,.01,0,.02,0,.02,0,.03.01.05,0,.02,0,.03,0,.05,0,.01,0,.03,0,.04,0,.01,0,.03,0,.04,0,.01,0,.02,0,.04,0,.01,0,.03,0,.04,0,0,0,.02,0,.03,0,.02,0,.04,0,.06,0,.02,0,.04,0,.06,0,.16,0,.3.02.43,0,.01,0,.03,0,.04.01.11.03.2.04.28,0,.02,0,.03.01.05.02.1.05.19.08.26,0,.01,0,.02.01.03,0,.01.01.02.02.03,0,0,0,0,0,.01,0,.01.01.03.02.04,0,0,0,.02.01.02,0,0,0,.02.01.02,0,0,0,.01.01.02,0,0,0,.01.01.02,0,.01.02.02.03.03,0,0,.02.02.02.03.01.01.02.02.03.03,0,0,.01,0,.01.01,0,0,0,0,.01,0,0,0,0,0,.01,0,0,0,0,0,0,0,0,0,0,0,0,0,0,0,0,0,0,0,0,0,0,0,0,0,0,0,0,0,0,0,0,0,0,0,0,0h0s-.39.8.33,1.38c.01,0,.02.02.04.03.01,0,.02.02.04.03,0,0,.01,0,.02.01.01,0,.02.01.03.02,0,0,.02.01.03.02.01,0,.03.01.04.02,0,0,.01,0,.02,0,.03.01.06.03.09.04.02,0,.03.01.05.02.01,0,.03.01.04.01.01,0,.02,0,.04.01.02,0,.03.01.05.02.02,0,.03,0,.05.01.06.02.12.03.19.05.02,0,.04,0,.06.01.02,0,.04,0,.05,0,0,0,.01,0,.02,0,.01,0,.03,0,.04,0,0,0,.02,0,.03,0,.02,0,.05,0,.07.01,0,0,.01,0,.02,0,.02,0,.04,0,.06,0,.02,0,.05,0,.07,0,.02,0,.04,0,.07,0,.02,0,.04,0,.06,0,.04,0,.08,0,.12,0,.01,0,.03,0,.04,0,.03,0,.06,0,.09,0,.03,0,.06,0,.09,0,.03,0,.06,0,.09,0-1.16-.49-.99-1.31-.99-1.31,0,0,.59-.09.65-.57.07-.49-.2-.92.23-1.18.08-.05.18-.07.29-.07.47,0,1.13.45,1.21,1.31.1,1.06,1.07.95,1.07.95,0,0,.41.56.12,1.44,1.6-.48.88-1.98.88-1.98,0,0,.2-.17-.26-.72-.46-.54-1.3-.92-1.2-1.35.09-.38.8-.31,1.37.28.01.01.03.03.04.04.01.01.02.03.04.04,0,0,.01.01.02.02.03.04.07.08.1.12.01.01.02.03.03.04.59.83,1.17.43,1.17.43,0,0,.02,0,.07.01,0,0,.01,0,.02,0,0,0,0,0,.02,0,0,0,.01,0,.02,0,0,0,0,0,.01,0,0,0,.02,0,.03,0,0,0,.02,0,.03,0,.02,0,.04.01.07.02,0,0,0,0,.01,0,.01,0,.02,0,.04.01.01,0,.03.01.04.02.01,0,.02,0,.03.01.03.01.05.02.08.03.3.14.65.42.76.95,1-1.33-.73-2.01-.73-2.01,0,0,.01-.14-.06-.32,0-.02-.02-.04-.03-.07,0-.01-.01-.02-.02-.04-.01-.03-.03-.05-.05-.08,0,0-.01-.02-.02-.02-.03-.03-.06-.07-.09-.1,0,0-.02-.02-.02-.02,0,0,0,0,0,0,0,0-.01-.01-.02-.02,0,0-.02-.01-.03-.02,0,0,0,0,0,0h0s-.01-.02-.02-.02c0,0-.01,0-.02-.01,0,0-.01,0-.02-.01,0,0-.02-.01-.03-.02-.01,0-.02-.01-.03-.02-.01,0-.02-.01-.03-.02-.04-.02-.09-.04-.14-.06-.01,0-.03-.01-.04-.02,0,0,0,0,0,0-.01,0-.03,0-.04-.01,0,0-.02,0-.02,0-.06-.02-.13-.03-.2-.04-.07-.01-.14-.02-.21-.04h-.04s-.05-.02-.08-.02c-.02,0-.05,0-.07-.01-.01,0-.02,0-.04,0-.02,0-.05,0-.07-.01-.04,0-.07-.02-.11-.02-.02,0-.04,0-.06-.01-.02,0-.04,0-.06-.01-.12-.03-.22-.06-.31-.09h0c-.28-.11-.39-.26-.35-.51.02-.12.06-.21.13-.27h0s.01-.01.02-.02c0,0,.01-.01.02-.01,0,0,0,0,.01-.01,0,0,0,0,0,0,0,0,0,0,.01,0,.02-.01.05-.03.07-.04.01,0,.03-.01.05-.01,0,0,.02,0,.02,0,.01,0,.03,0,.04,0,.01,0,.02,0,.03,0,0,0,.01,0,.02,0h0s.04,0,.06,0c.04,0,.07,0,.11,0,.03,0,.06,0,.08.01,0,0,.02,0,.03,0,.02,0,.04,0,.06.01.06.02.12.03.17.06.06.02.13.05.22.08.02,0,.03.01.05.02.02,0,.04.01.06.02.02,0,.03.01.05.02.09.03.19.06.29.08.04.01.08.02.12.03.02,0,.05.01.07.02.03,0,.07.02.1.02.02,0,.04,0,.06.01.02,0,.03,0,.05,0,.05,0,.09.01.14.02.03,0,.05,0,.08,0,.01,0,.02,0,.04,0,.03,0,.05,0,.07,0,.01,0,.02,0,.04,0,0,0,.02,0,.03,0,.02,0,.04,0,.05,0,0,0,.01,0,.01,0,0,0,0,0,.01,0,0,0,.02,0,.03-.01,0,0,0,0,.01,0,.02-.01.03-.02.04-.04.14-.23.23-.42.88-.29.65.13.74.85.74.85Z"/>
        <path class="cls-1" d="M58.62,47.89l.51.33c.21.14.38.3.51.49.47.67.4,1.53.62,2.28.27.93.97,1.41,1.96,1.76l.5.18c-.08-.12-.17-.23-.27-.34.69-.32,1.23-.87,1.25-.89-.03,0-1.59.41-1.59-1.11,0-1.18,1.27-2.52,2.6-3.01.24-.09.48-.15.72-.17-.33-.22-.62-.37-.85-.47.31-.51.85-1.3,1.12-1.37.07-.02.16,0,.28.01.6.11,1.78.6,2.25.23.18-.14.29-.3.35-.43,1.26.03,1.6-.93,1.6-.93,0,0-1.11.34-1.56-.14-.46-.49-.72-.19-1.51-.37-.8-.19-.46-1.25.41-1.45s1.97.42,2.1-.2c.02-.11.02-.19.01-.26.21.03.45.1.61.25.37.33.33.76.33.76,0,0,.6-.52.26-1.16-.34-.65-1.02-.79-1.02-.79,0,0-.36-.69-1.2-.56-.32.05-.57.13-.77.21-.34.14-.55.29-.71.33-.19.04-.3,0-.35-.09-.02-.03-.03-.07-.04-.1-.01-.11-.09-.72.54-1.06.1-.06.23-.11.37-.15.07-.02.13-.03.19-.04.88-.16,1.2.32,1.66.01.19-.13.26-.25.27-.35.17.05.35.13.49.24.05.04.09.08.13.11.27.25.29.46.29.46,0,0,.32-.9-.29-1.34,0,0,0,0,0,0-.27-.19-.64-.27-.98-.3-.06-.06-.16-.13-.32-.18-.15-.05-.34-.09-.61-.11-.13,0-.26,0-.37,0-.1,0-.19.02-.28.05-.24.06-.42.16-.57.28-.25.2-.43.44-.65.64-.13.12-.24.2-.35.25-.25.13-.43.07-.45-.16,0-.02,0-.03,0-.05,0,0,0-.01,0-.02,0,0,0,0,0-.01,0,0,0-.01,0-.02,0,0,0-.01,0-.02,0,0,0-.01,0-.02,0,0,0-.02,0-.03,0,0,0-.01,0-.02,0,0,0,0,0,0,0-.01,0-.02.01-.03,0,0,0-.01.01-.02,0,0,0-.01,0-.02,0-.01.02-.03.02-.04,0-.01.01-.02.02-.04.02-.03.04-.06.06-.09.01-.01.02-.03.04-.05.01-.02.03-.03.04-.05.02-.02.04-.05.07-.07.02-.02.04-.04.06-.06.03-.03.06-.06.08-.09.04-.04.08-.08.11-.12.02-.03.05-.05.07-.08.01-.01.03-.03.04-.04,0,0,0,0,0-.01.04-.04.07-.08.1-.12.01-.01.02-.03.03-.04.01-.01.02-.03.03-.04.01-.01.02-.03.03-.04,0-.01.01-.02.02-.03.01-.02.02-.04.03-.06.02-.03.03-.06.05-.09.01-.02.02-.03.03-.05,0-.02.02-.03.03-.05.02-.03.03-.05.05-.07,0,0,0-.01.01-.02,0-.01.02-.03.03-.04,0,0,0-.01.01-.02.01-.02.03-.03.04-.05,0,0,0,0,.01-.01,0,0,.02-.02.03-.03,0,0,0,0,.01-.01,0,0,.01,0,.02-.01.01,0,.02-.01.03-.02,0,0,.01,0,.02,0,.02,0,.03-.02.05-.02.02,0,.04-.01.05-.02,0,0,.01,0,.02,0,0,0,.02,0,.03,0,0,0,0,0,0,0,.02,0,.04,0,.05,0,.01,0,.02,0,.04,0,.01,0,.02,0,.03,0,0,0,0,0,0,0,.02,0,.04,0,.06,0,.05,0,.1,0,.15,0,.02,0,.03,0,.05,0,0,0,.02,0,.02,0,.01,0,.02,0,.03,0,.01,0,.03,0,.04,0,0,0,.02,0,.03,0,.01,0,.02,0,.04,0,0,0,0,0,0,0,.01,0,.02,0,.03,0,.01,0,.02,0,.03,0,.06.01.12.03.17.05.01,0,.02,0,.03.01.02,0,.04.02.07.03,0,0,.02,0,.02.01.03.01.06.03.08.04.03.01.05.03.07.04,0,0,.01,0,.02.01.02.01.04.02.05.03,0,0,.01,0,.01.01,0,0,0,0,0,0,0,0,0,0,0,0,0,0,0,0,0,0,0,0,0,0,0,0,0,0,0,0,0,0,0,0,0,0,0,0,0,0,0,0,0-.01,0,0,0,0,0,0,0,0,0-.01,0-.02,0,0,0,0,0,0,0-.02-.02-.05-.03-.08,0,0,0-.01,0-.02,0-.01,0-.02-.02-.03,0,0,0-.01,0-.02,0,0,0,0,0,0,0-.02-.02-.03-.03-.05,0-.02-.02-.04-.03-.05-.02-.03-.04-.06-.06-.09,0,0,0-.01-.01-.02,0-.01-.02-.02-.03-.04,0,0-.01-.01-.02-.02,0-.01-.02-.02-.03-.03-.03-.03-.05-.06-.08-.08,0,0-.02-.01-.02-.02-.01,0-.02-.02-.03-.03,0,0-.01,0-.02-.01,0,0-.02-.01-.03-.02-.01,0-.02-.02-.04-.02-.01,0-.03-.02-.05-.03-.01,0-.02-.01-.04-.02,0,0,0,0,0,0-.04-.02-.08-.04-.12-.05-.01,0-.03,0-.04-.01s-.03,0-.04-.01c0,0,0,0,0,0-.01,0-.03,0-.04-.01-.01,0-.03,0-.04-.01,0,0,0,0,0,0-.01,0-.03,0-.05,0-.08-.01-.16-.02-.24-.02,0,0,0,0,0,0-.02,0-.03,0-.04,0,0,0,0,0,0,0-.02,0-.03,0-.05,0,0,0,0,0-.01,0-.01,0-.03,0-.04,0,0,0-.02,0-.02,0-.01,0-.02,0-.03,0,0,0,0,0-.01,0-.01,0-.03,0-.04,0-.02,0-.03,0-.05.01-.04,0-.07.02-.11.03-.01,0-.02,0-.03.01-.08.03-.15.06-.21.1-.01,0-.03.01-.04.02-.01,0-.02.01-.04.02-.02,0-.04,0-.06,0-.02,0-.05,0-.08,0h0s-.07,0-.11,0c-.01,0-.02,0-.03,0-.01,0-.02,0-.03,0,0,0-.02,0-.03,0,0,0-.02,0-.03,0,0,0-.02,0-.03,0-.02,0-.04,0-.06,0-.01,0-.02,0-.03,0,0,0-.02,0-.03,0,0,0-.01,0-.02,0,0,0-.01,0-.02,0,0,0-.01,0-.02,0-.01,0-.02,0-.03,0-.03,0-.06.02-.1.03,0,0-.02,0-.03,0-.02,0-.04.02-.06.03,0,0-.02,0-.02.01,0,0,0,0,0,0,0,0-.02,0-.03.01-.03.02-.07.04-.1.06,0,0-.02.01-.03.02-.03.02-.06.04-.09.07-.01,0-.02.02-.03.03-.01.01-.02.02-.03.03,0,0,0,0,0,0-.01.01-.02.02-.04.04-.01.02-.03.03-.04.05,0,.01-.02.02-.03.03,0,0,0,0,0,0-.01.01-.02.03-.03.04,0,0,0,0,0,0-.01.01-.02.03-.03.04,0,0,0,0,0,0,0,0-.01.02-.02.03,0,0,0,.01-.01.02-.01.02-.03.04-.04.07,0,.01-.01.02-.02.03-.01.03-.03.05-.04.08,0,.01-.01.02-.01.04,0,0,0,.02-.01.03,0,.01,0,.02-.01.04,0,.02-.02.05-.02.07,0,.01,0,.02-.01.04-.02.08-.04.16-.06.25,0,.02,0,.03,0,.05,0,.05-.02.1-.02.15,0,.01,0,.03,0,.04,0,.01,0,.03,0,.04,0,.04,0,.08-.01.11,0,.04,0,.08-.01.12,0,.02,0,.04,0,.06,0,.06-.01.13-.02.2,0,.02,0,.04,0,.07-.04.35-.11.75-.25,1.2-.26.83-.57,1.99-.52,3.01-.81,1.23-3.13,3.37-5.63,4.3.07.1.13.2.18.3Z"/>
        <path class="cls-1" d="M66.36,65.49h0s-.06,0-.09,0c-.03,0-.06,0-.09,0-.03,0-.06,0-.09,0-.01,0-.03,0-.04,0-.04,0-.08,0-.13,0-.01,0-.03,0-.04,0h-.02s-.05,0-.07,0c-.02,0-.05,0-.07,0-.02,0-.04,0-.07,0,0,0-.02,0-.02,0-.02,0-.05,0-.07-.01-.01,0-.02,0-.03,0-.02,0-.03,0-.05,0,0,0-.01,0-.02,0-.02,0-.05-.01-.06-.01h0s-.03,0-.05-.01c-.05-.01-.11-.02-.16-.04v23c0,.84.68,1.53,1.53,1.53h4.81c.84,0,1.53-.68,1.53-1.53v-23.63c0-.39-.14-.74-.38-1.01-.05.1-.11.19-.18.29-.03.04-.08.07-.14.07-.01,0-.03,0-.04,0-.07-.02-.12-.07-.13-.13-.06-.31-.22-.55-.48-.73-.05,0-.09,0-.14-.01l-.02-.08s-.02,0-.03-.01c-.02-.01-.05-.02-.07-.03-.01,0-.02,0-.03-.01l-.04-.02s-.04-.01-.04-.01c-.02,0-.04-.01-.06-.02h-.02s-.03-.01-.03-.01h-.05c-.08.03-.21.08-.39.08-.24,0-.61-.1-.96-.6,0-.01-.02-.03-.03-.04-.03-.04-.06-.08-.09-.11l-.02-.02s-.02-.02-.03-.04c-.01-.01-.02-.03-.04-.04-.33-.34-.68-.46-.88-.46-.08,0-.19.02-.21.1-.04.17.26.4.54.63.21.17.45.36.63.57.36.44.37.7.32.84.08.21.26.78.02,1.31-.1.23-.27.42-.49.57.26.15.43.43.43.75v20.15c0,.48-.39.87-.87.87s-.87-.39-.87-.87v-20.15c0-.38.24-.7.57-.82.15-.56,0-.95-.09-1.11-.51,0-1.07-.3-1.15-1.11-.06-.61-.42-.97-.76-1.1l-.17.78c-.16,0-.31.03-.45.08,0,.06,0,.12-.01.18-.06.45-.45.62-.66.69,0,.21.11.68.89,1.01.08.03.12.11.1.19-.02.08-.09.14-.17.14ZM70.65,66.54c0-.48.39-.87.87-.87s.87.39.87.87v20.15c0,.48-.39.87-.87.87s-.87-.39-.87-.87v-20.15ZM66.83,65.67c.48,0,.87.39.87.87v20.15c0,.48-.39.87-.87.87s-.87-.39-.87-.87v-20.15c0-.48.39-.87.87-.87Z"/>
        <path class="cls-1" d="M69.57,39.79c-.1.07-.21.11-.33.13v.5c.36.13.57.4.65.52,0,0,0,0,.01,0v-1.4s-.04-.02-.05-.02c-.06.1-.15.19-.28.28Z"/>
        <path class="cls-1" d="M69.2,45.49l-.09,12.03-.03-12.01c-.12.02-.26.04-.4.04-.08.14-.2.28-.35.4,0,0,0,0-.01.01v11.79h-.51l-.11.49c.11.02.22.05.32.08.19.06.35.11.5.17.35.12.61.21.92.21.13,0,.26-.02.41-.05.05-.01.1-.02.15-.04.03,0,.05-.02.08-.02.03,0,.05-.02.08-.03.02,0,.03,0,.04-.01.08-.03.17-.06.26-.09l-.16-.71h-.4v-12.63c-.17.15-.4.29-.7.37Z"/>
        <path class="cls-1" d="M69.22,42.74v1.65s.1,0,.17,0c.19,0,.38-.03.51-.06v-2.06s-.08-.03-.12-.04c0,.03,0,.06-.01.08-.05.26-.24.4-.55.42Z"/>
        <path class="cls-1" d="M68.32,42.65v1.25c.14.05.27.14.42.3.08.08.19.14.34.18v-1.63c-.15,0-.31-.03-.48-.05-.09-.01-.19-.03-.29-.04Z"/>
        <path class="cls-1" d="M69.31,31.19l-.05,6.98c.08.04.15.08.2.12.16.02.31.04.44.08v-6.76l1.02-1.32-.86-3.65h-1.91l-.86,3.65,1.02,1.32v5.49s.02.03.03.04c0,0,.01.02.01.02.02.03.05.07.07.11.01.02.02.04.04.06,0,.01.02.03.03.05,0,0,0,0,0,.02,0,0,.02.03.02.03v.03s.02.01.02.01c.01.03.02.06.03.09,0,0,.01.03.01.03,0,0,0,0,0,.01,0,0,0,.01,0,.02.01.05,0,.11-.04.16-.03.04-.08.05-.12.05-.04,0-.07-.01-.1-.04v.21c.05,0,.11,0,.16,0,.22.01.42.05.58.09l-.02-6.99,1.07-1.48-.5-2.56.66,2.6-.96,1.53Z"/>
        <path class="cls-1" d="M68.32,39.78v.62c.08-.02.16-.03.24-.05.08-.01.16-.02.23-.02.1,0,.19.01.28.03v-.44c-.11,0-.21-.03-.33-.06-.13-.03-.26-.07-.43-.08Z"/>
        <path class="cls-1" d="M70.84,60.29c-.1-.03-.2-.06-.3-.09l-.05-.02s-.04-.01-.06-.02c-.01,0-.03-.01-.05-.02-.08-.03-.16-.05-.23-.08-.05-.02-.1-.04-.15-.05-.02,0-.03,0-.05-.01,0,0-.02,0-.02,0-.03,0-.05,0-.07-.01-.03,0-.06,0-.09,0-.01,0-.03,0-.04,0,0,0,0,0,0,0,0,0,0,0-.01,0,0,0-.01,0-.02,0-.01,0-.02,0-.03,0h-.02s-.02,0-.03.01c-.02,0-.03.01-.04.02,0,0-.01,0-.02.01,0,0-.01.01-.02.01,0,0,0,0,0,0-.04.04-.06.09-.07.17-.02.12-.01.22.24.32,0,0,0,0,0,0,.08.03.17.06.28.09.02,0,.04,0,.06.01.02,0,.03,0,.05.01.03,0,.07.02.1.02.02,0,.05,0,.07.01h.04s.05.02.07.02l.12.02c.07.01.13.02.21.04.08.01.15.03.22.05,0,0,.02,0,.03,0,.01,0,.03,0,.04.01,0,0,.01,0,.02,0,.01,0,.02,0,.04.01l-.13-.57s-.03,0-.05-.01Z"/>
      </g>
      <g>
        <path class="cls-1" d="M11.21,28.11c2.62,1.57,3.74,4.76,2.08,7.54-1.66,2.78-4.98,3.26-7.57,1.71-2.59-1.55-3.76-4.72-2.1-7.49,1.66-2.78,5.03-3.28,7.59-1.75ZM6.72,35.65c3.55,2.12,5.16,1.38,6.14-.25,1-1.67.91-3.44-2.65-5.57-3.55-2.12-5.16-1.38-6.16.3-.99,1.66-.87,3.4,2.68,5.53Z"/>
        <path class="cls-1" d="M17.43,24.91c.58.66,1.07,1.19,1.51,1.31.46.12.88-.16,1.02-.28.34-.3.41-.29.54-.14.12.14.19.21-.14.5-.25.22-.73.58-1.27,1.05-.36.32-.89.85-1.09,1.03-.23.2-.28.18-.42.03-.17-.19-.11-.28-.02-.36.3-.26.62-.66.54-1.18-.08-.47-.53-.98-1.19-1.73l-4.38-4.98c-.57-.07-.66-.02-1.26.51-.1.09-.25.17-.39.01-.12-.14-.15-.27.03-.42.13-.11.75-.59.87-.7.15-.13.82-.79.96-.91.11-.1.22-.13.29-.15.09,0,.46.12.55.14l9.01,1.96-3.79-4.31c-.5-.56-.99-1.13-1.61-.74-.6.37-.67.43-.81.27s-.15-.25.14-.5c.39-.34.57-.44.97-.79.3-.26.94-.9,1.09-1.03.2-.18.31-.1.41.01.12.14.12.23-.23.62-.48.56-.33.91.57,1.94l5.3,6.02c.25.29.37.43.19.59-.11.1-.17.08-.79-.06l-10.66-2.35,4.06,4.62Z"/>
        <path class="cls-1" d="M35.92,15.06c.24.8.28.86.84.7.66-.18.74-.19.83.08.05.16-.01.25-.2.31-.27.08-1.48.4-1.72.47-.29.09-1.47.5-1.71.58-.19.06-.42.11-.49-.13-.08-.26.07-.3.85-.58.11-.03.28-.1.29-.3,0-.24-.32-1.26-.41-1.55l-1.97-6.44c-.29-.96-.32-1-.72-.88-.91.28-.94.22-1.02-.02-.09-.29.22-.35.7-.49.73-.22,2.89-.94,3.87-1.24,2.17-.66,3.61,0,4.05,1.43.52,1.71-.72,3.01-2.51,3.58,1.74-.29,2.54.43,3.33,1.42,1.19,1.5,1.53,1.92,2.17,1.72.35-.11.42-.39.43-.53.02-.34.02-.39.16-.43.21-.06.28.18.3.24.12.4.02,1.67-1.32,2.08-1.18.36-2.22-.4-2.72-1.24-.17-.28-.8-1.52-.94-1.77-.69-1.18-1.34-1.3-3.24-.72l1.14,3.71ZM34.65,10.91l.72-.22c1.64-.5,2.52-1.57,2.03-3.15-.52-1.71-1.82-1.61-3.12-1.2-.41.13-.73.24-.93.32l1.3,4.26Z"/>
        <path class="cls-1" d="M48.45,3.78l.11,4.28c1.72-.04,2.15-.19,2.31-1.64.01-.12.03-.32.28-.32.22,0,.27.18.28.38,0,.38-.02,1.07,0,2,.02.75.08,1.18.09,1.5.01.43-.1.59-.3.59-.23,0-.27-.23-.27-.31-.23-1.34-.16-1.73-2.36-1.71l.09,3.43c.03,1.12.05,1.23.18,1.36.14.11.55.1.75.1,3.17-.08,3.92-.5,4.18-2.01.12-.67.15-.72.35-.73.25,0,.25.18.26.28,0,.23-.04,2.39-.05,2.67,0,.08-.04.22-.24.22-.33,0-2.12,0-3.95.05-1.9.05-3.7.14-4.18.16-.25,0-.35-.07-.36-.26,0-.28.06-.28.51-.3.65-.02.8-.04.88-.29.06-.25.06-1.65.05-1.94l-.15-6.05c-.02-.95-.07-1.32-.32-1.34-.15-.03-.82-.05-.95-.08-.1-.03-.1-.1-.1-.18,0-.28.07-.35.46-.36.43-.01,1.95,0,3.35-.03,1.53-.04,3.03-.13,3.83-.15.2,0,.22.08.23.36.01.53.07,1.27.08,1.98,0,.17,0,.33-.24.34-.22,0-.27-.11-.36-.56-.23-1.11-.97-1.56-3.64-1.49-.45.01-.68.03-.77.04ZM49.49.5c.26-.32.27-.36.37-.41.08-.04.1-.04.57-.05l1.62-.04c.35,0,.5-.01.5.17,0,.18-.06.22-.67.52l-2.83,1.42c-.46.23-.51.26-.59.27-.12,0-.18-.06-.19-.18,0-.12.03-.17.37-.59l.86-1.11Z"/>
        <path class="cls-1" d="M60.78,12.71c-.38,1.61-.34,1.67.09,1.79.97.26,1.02.26.95.53-.06.24-.2.21-.32.18-.34-.08-1.82-.48-2.13-.56-.24-.06-1.41-.28-1.63-.34-.1-.02-.22-.09-.17-.3.07-.28.15-.26.83-.11.47.09.53.02.76-.97l1.79-7.56c.16-.66.18-.78-.45-.93-.54-.13-.65-.15-.59-.41.06-.24.21-.24.37-.2.23.05,1.22.34,1.45.39.34.08,1.86.39,2.19.47,2.58.61,3.56,2.13,3.19,3.67-.63,2.64-3.68,1.92-4.49,1.73-.57-.13-.85-.24-1.15-.34l-.7,2.95ZM61.59,9.29c.14.05.31.13.67.21,2.08.49,2.83-.68,3.09-1.75.5-2.11-1.38-2.57-2.72-2.82l-1.03,4.36Z"/>
        <path class="cls-1" d="M70.66,14.46l-1.04.99c-.4.38-.7.71-.83.98-.13.25-.05.42.44.76.3.21.44.24.33.46-.11.22-.19.22-.37.13-.15-.08-.95-.53-1.33-.73-.39-.2-1.11-.5-1.29-.59-.18-.09-.19-.17-.13-.29.13-.25.12-.24.51-.08.45.19.88.29,2.54-1.22l6.27-5.74c.28-.27.43-.4.59-.32.16.08.16.17.05.83l-1.1,7.04c-.06.42-.41,2.89-.3,3.23.03.13.1.18.67.52.14.09.22.16.11.37-.12.24-.21.19-.37.11-.31-.16-.83-.47-1.48-.8-.7-.35-1.54-.72-1.79-.85-.16-.08-.23-.13-.11-.37.08-.16.14-.21.56,0,.54.27.68.25.74.13.04-.07.15-.78.25-1.31l.29-1.65-3.19-1.6ZM73.91,15.54l.76-4.73-3.62,3.29,2.86,1.44Z"/>
        <path class="cls-1" d="M80.88,23.49c-.57.61-.6.67-.18,1.08.49.48.54.55.35.75-.11.12-.22.11-.37-.02-.21-.19-1.09-1.08-1.27-1.25-.22-.2-1.17-1.02-1.35-1.19-.15-.14-.31-.31-.14-.49.18-.2.29-.09.93.45.09.08.23.19.4.1.21-.13.93-.91,1.14-1.13l4.58-4.94c.68-.73.7-.78.4-1.06-.7-.65-.66-.71-.49-.89.2-.22.41.02.78.36.56.52,2.26,2.03,3.02,2.73,1.66,1.54,1.82,3.12.8,4.22-1.21,1.31-2.96.89-4.36-.38,1.12,1.36.91,2.41.44,3.59-.7,1.78-.89,2.29-.4,2.74.27.25.55.17.68.1.3-.15.35-.18.46-.08.16.15-.01.33-.06.38-.28.31-1.43.86-2.46-.1-.9-.84-.76-2.12-.29-2.97.15-.29.91-1.45,1.06-1.7.67-1.19.45-1.81-1-3.16l-2.64,2.85ZM83.83,20.31l.55.51c1.26,1.17,2.62,1.39,3.75.18,1.21-1.31.48-2.38-.53-3.31-.32-.29-.57-.51-.74-.64l-3.03,3.26Z"/>
        <path class="cls-1" d="M96.92,28.69l-3.66,2.23c.9,1.47,1.24,1.77,2.58,1.18.11-.05.29-.14.42.08.11.18-.02.32-.19.43-.33.2-.94.51-1.73,1-.64.39-.98.66-1.25.83-.37.23-.56.2-.66.03-.12-.2.06-.35.13-.39,1.05-.87,1.42-1,.3-2.9l-2.93,1.79c-.95.58-1.04.66-1.09.84-.03.17.19.53.29.7,1.65,2.7,2.39,3.15,3.83,2.62.64-.23.7-.23.8-.06.13.21-.03.31-.11.36-.2.12-2.09,1.16-2.34,1.29-.07.04-.21.07-.32-.1-.17-.28-1.06-1.83-2.02-3.4-.99-1.62-1.97-3.13-2.22-3.54-.13-.21-.11-.34.04-.44.24-.15.28-.09.51.29.34.55.43.67.69.61.25-.07,1.46-.78,1.7-.92l5.16-3.16c.81-.5,1.11-.72,1-.95-.05-.15-.37-.73-.41-.86-.02-.1.03-.14.1-.18.24-.15.34-.11.54.22.23.37.97,1.69,1.7,2.89.8,1.31,1.62,2.56,2.04,3.25.1.17.04.23-.2.38-.46.28-1.06.69-1.68,1.06-.14.09-.28.17-.41-.04-.11-.18-.04-.29.3-.59.85-.75.86-1.62-.53-3.9-.23-.38-.37-.57-.41-.65Z"/>
      </g>
      <g>
        <path class="cls-1" d="M8.73,81.1c-.11-.24.11-.38.5-.63,1.21-.79,1.12-2.01.74-2.82-.6-1.25-1.7-1.08-2.19-.85-.65.31-1.06.92-.93,2.19l.17,1.61c.16,1.55-.35,2.59-1.53,3.16-1.39.67-3.45.4-4.36-1.5-.45-.93-.38-1.43-.28-2.19,0-.02.02-.14-.04-.26-.07-.14-.16-.15-.53-.21-.12-.03-.21-.04-.26-.15-.09-.18.05-.28.15-.33.14-.07.56-.23.95-.42.35-.17,1.28-.65,1.63-.81.17-.08.31-.1.4.08.09.19.04.24-.59.66-1.56,1.04-1.55,2.4-1.08,3.39.41.85,1.39,1.51,2.68.89.74-.35,1.27-1,1.19-2.23l-.13-1.87c-.09-1.33.54-2.29,1.42-2.71.81-.39,2.76-.69,3.73,1.33.17.36.3.78.35,1.56,0,.23.03.31.08.41.02.04.08.17.24.26.36.17.4.19.44.27.06.13-.02.25-.1.29-.03.01-.89.32-1.29.52-.21.1-.8.37-.9.41-.32.15-.38.13-.46-.04Z"/>
        <path class="cls-1" d="M9.79,91.82c-1.15.91-1.13.93-.79,1.41.41.58.52.67.32.83-.17.13-.25.08-.32,0-.2-.25-1.02-1.37-1.2-1.6-.19-.24-1.1-1.32-1.28-1.55-.08-.1-.08-.17.06-.28.22-.17.26-.12.66.36.32.38.39.44.56.38.28-.09.99-.64,1.27-.86l5.68-4.48-.54-.69c-.64-.81-1.5-1.73-2.84-1.18-.1.04-.57.25-.68.26-.11,0-.18-.08-.2-.1-.14-.18-.03-.27.27-.51l1.56-1.23c.12-.1.23-.16.34-.01.56.71,1.14,1.52,2.97,3.84,1.74,2.2,2.38,2.95,2.89,3.59.14.18.11.24-.24.52l-1.38,1.09c-.3.24-.45.3-.56.16-.09-.11-.13-.23-.03-.39.05-.08.36-.42.41-.5.64-.98.45-1.77-.52-3l-.54-.69-5.86,4.62Z"/>
        <path class="cls-1" d="M17.12,100.1c-.47.61-.49.67-.07,1.01.49.39.55.45.39.66-.09.12-.19.13-.34.01-.21-.16-1.1-.9-1.29-1.04-.22-.17-1.17-.83-1.35-.97-.15-.11-.31-.25-.17-.44.15-.2.26-.11.89.33.09.07.23.16.38.06.18-.13.78-.92.95-1.14l3.77-4.96c.56-.74.58-.78.27-1.02-.7-.53-.67-.59-.53-.77.17-.22.38-.02.75.26.56.43,2.26,1.66,3.02,2.24,1.67,1.27,1.95,2.71,1.11,3.81-1,1.31-2.65,1.09-4.04.04,1.16,1.15,1.05,2.13.73,3.27-.48,1.71-.62,2.19-.12,2.56.27.21.52.11.63.04.26-.17.3-.2.41-.11.16.12.02.31-.02.35-.23.31-1.24.92-2.27.13-.91-.69-.89-1.88-.53-2.71.12-.28.71-1.42.82-1.66.51-1.16.25-1.71-1.21-2.82l-2.17,2.86ZM19.55,96.91l.55.42c1.26.96,2.54,1.04,3.46-.17,1-1.31.22-2.23-.78-3-.32-.24-.57-.42-.74-.53l-2.49,3.28Z"/>
        <path class="cls-1" d="M28.59,105.02l-.91.97c-.35.37-.6.7-.71.95-.1.24-.02.39.45.68.29.18.42.2.33.41s-.16.22-.33.14c-.14-.06-.9-.44-1.27-.6-.37-.16-1.05-.4-1.22-.48-.17-.07-.19-.15-.14-.26.1-.24.1-.23.46-.1.42.15.83.22,2.28-1.27l5.48-5.64c.25-.26.37-.39.53-.33.16.07.15.15.09.76l-.64,6.56c-.03.39-.22,2.69-.1,3,.03.12.1.16.65.45.14.08.21.14.12.34-.1.23-.18.19-.34.12-.3-.13-.79-.39-1.41-.66-.66-.29-1.46-.58-1.7-.69-.16-.07-.22-.11-.12-.34.07-.16.12-.2.52-.03.51.22.64.19.69.08.03-.07.1-.73.16-1.22l.18-1.54-3.03-1.31ZM31.64,105.84l.45-4.41-3.16,3.23,2.72,1.18Z"/>
        <path class="cls-1" d="M44.44,105.93c-.26-.05-.24-.31-.21-.78.09-1.44-.95-2.1-1.83-2.26-1.36-.26-1.88.72-1.98,1.26-.14.71.11,1.4,1.21,2.05l1.4.82c1.34.79,1.88,1.82,1.64,3.11-.29,1.51-1.72,3.02-3.8,2.62-1.02-.19-1.37-.54-1.93-1.07-.01-.02-.11-.1-.23-.12-.15-.03-.21.04-.48.3-.09.08-.15.14-.27.12-.2-.04-.2-.21-.18-.32.03-.15.14-.58.22-1.01.07-.38.24-1.41.31-1.79.03-.18.11-.31.3-.27.21.04.22.1.18.87-.09,1.87,1.01,2.67,2.09,2.88.92.18,2.04-.22,2.3-1.63.15-.8-.05-1.61-1.09-2.28l-1.58-1.01c-1.12-.72-1.53-1.8-1.34-2.75.17-.88,1.08-2.64,3.28-2.22.39.07.81.22,1.46.64.19.13.27.16.37.18.05,0,.18.03.35-.04.35-.18.39-.21.48-.19.14.03.19.16.17.25,0,.03-.27.91-.35,1.35-.04.23-.18.86-.2.97-.07.35-.12.39-.3.35Z"/>
        <path class="cls-1" d="M51.19,104.03l.11,3.96c1.59-.04,1.99-.18,2.13-1.52.01-.11.02-.29.25-.3.2,0,.25.16.26.35,0,.35-.02.99,0,1.85.02.69.08,1.09.08,1.39.01.4-.09.54-.28.55-.22,0-.25-.21-.25-.29-.22-1.24-.15-1.6-2.19-1.58l.09,3.18c.03,1.03.05,1.14.17,1.26.13.1.51.09.7.09,2.93-.08,3.63-.47,3.87-1.86.11-.62.14-.67.32-.67.23,0,.24.16.24.26,0,.22-.03,2.21-.04,2.47,0,.08-.04.2-.23.21-.31,0-1.96,0-3.65.05-1.76.05-3.42.14-3.87.15-.23,0-.33-.07-.33-.24,0-.26.05-.26.47-.27.6-.02.74-.04.81-.27.06-.23.05-1.53.04-1.79l-.15-5.6c-.02-.88-.06-1.22-.3-1.24-.14-.03-.76-.04-.88-.07-.09-.03-.1-.09-.1-.17,0-.26.07-.33.42-.34.4-.01,1.8,0,3.1-.04,1.42-.04,2.8-.12,3.54-.14.18,0,.2.07.21.33.01.49.06,1.17.08,1.83,0,.15,0,.31-.22.31-.2,0-.25-.1-.34-.52-.21-1.03-.9-1.44-3.37-1.37-.42.01-.63.03-.71.03Z"/>
        <path class="cls-1" d="M63.4,110.73c.2.74.23.8.76.67.61-.15.69-.15.76.1.04.15-.02.23-.2.28-.25.07-1.38.32-1.61.38-.27.07-1.37.42-1.6.48-.18.05-.39.09-.45-.13-.06-.24.07-.27.81-.5.1-.03.26-.09.28-.27,0-.22-.25-1.18-.32-1.45l-1.62-6.02c-.24-.89-.27-.93-.64-.83-.85.23-.88.17-.94-.05-.07-.27.22-.31.67-.43.69-.18,2.7-.77,3.62-1.02,2.03-.54,3.33.11,3.69,1.45.43,1.59-.76,2.76-2.44,3.23,1.62-.21,2.33.48,3.03,1.42,1.05,1.43,1.35,1.82,1.95,1.66.33-.09.4-.35.41-.48.03-.31.03-.36.16-.4.19-.05.25.17.27.23.1.37-.03,1.54-1.28,1.88-1.1.3-2.03-.44-2.47-1.24-.15-.26-.69-1.43-.81-1.67-.6-1.12-1.2-1.24-2.97-.77l.93,3.47ZM62.36,106.86l.67-.18c1.53-.41,2.38-1.37,1.98-2.85-.43-1.59-1.63-1.54-2.85-1.21-.39.1-.68.2-.87.27l1.07,3.98Z"/>
        <path class="cls-1" d="M75.72,99.06c-.13-.93-.18-1.15-.27-1.32-.22-.41-.74-.18-1.04-.04-.2.09-.31.11-.39-.05-.12-.23-.08-.31.09-.4.37-.2,1.01-.49,1.49-.75.24-.13.41-.24.93-.55l.08-.04c.14-.07.23-.05.33.14.12.22-.13.35-.28.45-.63.42-.66.69-.37,2.91l.99,7.53c.05.39.06.44-.06.51-.14.07-.18.03-.64-.38l-6.66-5.84c-.76-.68-.84-.65-1.38-.4-.17.07-.27.08-.36-.09-.09-.18-.05-.29.09-.36.18-.09,1.12-.55,1.35-.67.29-.15,1.22-.7,1.39-.8.18-.09.31-.1.42.09.1.19.04.24-.62.65-.11.06-.24.14-.17.27.06.11.11.13.48.46l5.43,4.75-.82-6.07Z"/>
        <path class="cls-1" d="M85.03,98.48c.22.27,1.11,1.31,1.26,1.42.16.09.28.03.66-.26.43-.35.49-.34.61-.2.11.13.17.2.05.3-.25.2-1.29,1-1.52,1.18-.21.18-1.26,1.09-1.45,1.25-.13.11-.2.07-.29-.04-.14-.17-.16-.22.13-.47.73-.6.55-.79.12-1.31-.28-.35-.75-.96-.92-1.18l-3.37-4.12c-.64-.79-.77-.94-1.25-.55-.36.29-.45.31-.57.15-.14-.17-.12-.24.01-.35.17-.14,1.1-.84,1.28-.99.24-.2,1.3-1.12,1.36-1.17.11-.09.2-.12.34.04.15.18.13.23-.19.5-.47.38-.43.49-.39.62.08.19.87,1.18.98,1.31l3.16,3.87Z"/>
        <path class="cls-1" d="M88.23,84.99c.31-.11.33-.13.37-.18.1-.12.07-.16-.14-.63-.02-.05-.01-.13.05-.2.1-.12.21-.11.32-.02.14.12.72.65.85.76.19.16,1.04.8,1.21.93.19.16.18.25.08.36-.19.23-.32.1-.98-.27-.87-.47-2.32-.39-3.27.77-1,1.22-1.11,3.34,1.73,5.67,2.41,1.98,4.41,1.87,5.61.41,1.44-1.75.55-3.2-.18-4.08-.21-.25-.23-.35-.12-.48.03-.04.16-.19.32-.05.07.06.34.34.41.4.28.27.77.71,1.13,1.01.11.09.65.47.71.52.07.06.12.14,0,.28-.07.08-.15.11-.44.02-.19-.06-.33-.11-.43,0-.04.05-.11.13-.14.41-.04.41-.11,1.25-1.03,2.37-1.92,2.34-4.94,2.31-7.02.6-2.15-1.76-2.9-4.95-.97-7.3.22-.26.76-.9,1.92-1.32Z"/>
        <path class="cls-1" d="M91.74,79.3l3.57,1.73c.69-1.43.75-1.84-.37-2.6-.09-.06-.25-.16-.15-.36.09-.18.26-.15.43-.07.32.15.87.47,1.65.85.62.3,1.01.43,1.27.56.36.17.44.33.36.5-.09.19-.3.13-.37.09-1.21-.38-1.49-.6-2.4,1.22l2.86,1.38c.93.45,1.03.48,1.2.43.15-.06.32-.41.4-.58,1.28-2.64,1.25-3.44.12-4.29-.5-.38-.53-.43-.45-.59.1-.21.25-.13.34-.09.19.09,1.95,1.04,2.17,1.17.07.03.16.13.08.3-.13.28-.89,1.74-1.63,3.27-.77,1.58-1.45,3.1-1.64,3.5-.1.21-.21.26-.36.18-.24-.11-.21-.17-.03-.54.26-.54.31-.67.13-.84-.18-.16-1.33-.75-1.57-.86l-5.04-2.44c-.79-.38-1.11-.5-1.24-.31-.09.11-.38.65-.47.75-.07.07-.12.04-.19,0-.24-.11-.26-.21-.1-.53.17-.36.83-1.6,1.39-2.77.62-1.28,1.18-2.55,1.5-3.21.08-.17.16-.15.39-.03.44.21,1.07.48,1.67.77.14.07.28.13.18.34-.09.18-.2.18-.61.06-1.01-.28-1.69.14-2.77,2.36-.18.37-.26.58-.29.65Z"/>
      </g>
    </g>
  </g>
</svg>