<?xml version="1.0" encoding="UTF-8"?>
<svg id="Layer_2" data-name="Layer 2" xmlns="http://www.w3.org/2000/svg" viewBox="0 0 89.2 66.96">
  <defs>
    <style>
      .cls-1 {
        fill: #fff;
        stroke-width: 0px;
      }
    </style>
  </defs>
  <g id="Layer_1-2" data-name="Layer 1">
    <g>
      <g>
        <g>
          <path class="cls-1" d="M2.81,61.08c.81,0,1.16-.53,1.16-1.3v-1.3c0-2-3.86-1.19-3.86-3.86v-1.3c0-1.6,1.18-2.2,2.41-2.2.61,0,1.24.12,1.74.69h.06l.12-.58h1.04v2.87h-1.57v-.78c0-.76-.41-1.18-1.13-1.18s-1.08.44-1.08,1.18v1.3c0,1.85,3.89,1.02,3.89,3.85v1.31c0,1.69-1.4,2.34-2.86,2.34s-2.73-.72-2.73-2.35v-.84h1.73v.86c0,.92.4,1.3,1.08,1.3Z"/>
          <path class="cls-1" d="M13.22,59.78c0,1.53-.93,2.17-2.72,2.17h-3.5v-.44l.69-.46v-8.96l-.58-.4v-.43h3.37c1.42,0,2.41.38,2.41,1.95v1.54c0,.6-.31,1.18-.85,1.4.7.27,1.18.82,1.18,1.82v1.8ZM10.47,61.03c.81,0,1.16-.46,1.16-1.25v-1.8c0-.89-.35-1.31-1.3-1.31h-1.1v3.79c0,.27-.06.41-.32.5v.08h1.56ZM11.31,54.76v-1.54c0-.58-.32-1.07-.95-1.07h-1.13v3.76h1.13c.67,0,.95-.44.95-1.14Z"/>
          <path class="cls-1" d="M20.87,54.21h-1.59v-.29c0-.96-.29-1.76-1.39-1.77-.72,0-1.37.49-1.37,1.83v5.3c0,1.27.5,1.83,1.42,1.83,1.11,0,1.44-.64,1.44-1.73v-.56h1.59v.58c0,1.89-1.3,2.72-3.01,2.72s-3.02-.9-3.02-2.84v-5.3c0-1.82,1.11-2.84,2.92-2.84.66,0,1.34.15,1.8.66h.05l.12-.58h1.05v2.99Z"/>
          <path class="cls-1" d="M29.28,61.08c.81,0,1.16-.53,1.16-1.3v-1.3c0-2-3.86-1.19-3.86-3.86v-1.3c0-1.6,1.18-2.2,2.41-2.2.61,0,1.24.12,1.74.69h.06l.12-.58h1.04v2.87h-1.57v-.78c0-.76-.41-1.18-1.13-1.18s-1.08.44-1.08,1.18v1.3c0,1.85,3.89,1.02,3.89,3.85v1.31c0,1.69-1.4,2.34-2.86,2.34s-2.73-.72-2.73-2.35v-.84h1.73v.86c0,.92.4,1.3,1.08,1.3Z"/>
          <path class="cls-1" d="M34.59,61.95v-.44l.69-.46v-9.01l-.58-.4v-.4h5.44v2.4h-.76l-.43-1.5h-2.08v4.02h1.47l.4-.84h.46v2.58h-.46l-.4-.81h-1.47v3.37c0,.24-.06.38-.32.47v.08h2.6l.52-1.47h.67v2.4h-5.74Z"/>
          <path class="cls-1" d="M48.96,54.21h-1.59v-.29c0-.96-.29-1.76-1.39-1.77-.72,0-1.37.49-1.37,1.83v5.3c0,1.27.5,1.83,1.42,1.83,1.11,0,1.44-.64,1.44-1.73v-.56h1.59v.58c0,1.89-1.3,2.72-3.01,2.72s-3.02-.9-3.02-2.84v-5.3c0-1.82,1.11-2.84,2.92-2.84.66,0,1.34.15,1.8.66h.05l.12-.58h1.05v2.99Z"/>
          <path class="cls-1" d="M56.62,59.22v-7.1l-.58-.4v-.47h2.24v.47l-.58.4v7.13c0,2.05-1.25,2.84-2.84,2.86-1.59,0-2.87-.9-2.87-2.86v-7.1l-.67-.46v-.44h2.95v.44l-.67.46v7.1c0,1.27.56,1.77,1.5,1.77,1.04,0,1.53-.52,1.53-1.8Z"/>
          <path class="cls-1" d="M64.33,58.59c-.31-.82-.58-1.04-1.48-1.04v3.5l.67.46v.44h-2.9v-.44l.67-.46v-8.96l-.56-.4v-.44h3.1c1.65,0,2.99.63,2.99,2.49v1.39c0,1.31-.73,2.05-1.73,2.24.46.24.66.53.82,1.01l.72,1.97c.15.41.43,1.01.92.9v.6c-.31.15-.78.2-1.11.2-.96,0-1.05-.69-1.36-1.5l-.75-1.95ZM62.83,52.19v4.47h.98c1.02,0,1.42-.56,1.42-1.54v-1.39c0-.98-.35-1.54-1.4-1.54h-.99Z"/>
          <path class="cls-1" d="M71.81,61.05l.67.46v.44h-2.9v-.44l.69-.46v-8.96l-.58-.4v-.44h2.7v.44l-.58.4v8.96Z"/>
          <path class="cls-1" d="M78.57,52.21v8.75l.67.47v.52h-2.95v-.52l.67-.47v-8.75h-1.15l-.49,1.76h-.73l.06-2.72h6.21l.06,2.72h-.73l-.52-1.76h-1.11Z"/>
          <path class="cls-1" d="M85.06,57.25l-2.21-5.39-.43-.15v-.44h1.37c.55,0,.67.15.86.63l1.47,3.79,1.47-3.69-.58-.29v-.43h2.2v.43l-.56.29-1.97,5.07v3.92l.67.47v.5h-2.95v-.5l.67-.47v-3.73Z"/>
        </g>
        <g>
          <path class="cls-1" d="M21.86,66.72c.17,0,.24-.11.24-.27v-.28c0-.42-.83-.26-.83-.83v-.28c0-.35.26-.47.53-.47.12,0,.26.02.37.14h.01l.03-.12h.23v.62h-.35v-.17c0-.16-.08-.24-.23-.24s-.22.09-.22.24v.28c0,.39.83.22.83.83v.28c0,.37-.31.5-.62.5s-.6-.15-.6-.51v-.18h.39v.18c0,.19.08.27.22.27Z"/>
          <path class="cls-1" d="M23.98,66.92v-.1l.14-.1v-1.92l-.12-.09v-.09h1.18v.51h-.17l-.09-.31h-.43v.85h.3l.09-.18h.1v.56h-.1l-.09-.17h-.3v.71c0,.05-.01.08-.07.1v.02h.54l.12-.31h.15v.51h-1.24Z"/>
          <path class="cls-1" d="M28.06,65.25h-.36v-.06c0-.2-.06-.37-.29-.37-.14,0-.29.09-.29.38v1.14c0,.27.11.39.3.39.23,0,.3-.14.3-.36v-.12h.36v.13c0,.41-.29.58-.66.58s-.66-.19-.66-.61v-1.14c0-.39.24-.61.64-.61.13,0,.28.03.38.12h0l.03-.11h.24v.65Z"/>
          <path class="cls-1" d="M30.67,64.81l-.12-.09v-.11h.49v.11l-.12.09v1.53c0,.43-.28.61-.62.61s-.62-.19-.62-.61v-1.52l-.14-.11v-.1h.64v.1l-.14.11v1.52c0,.27.12.37.31.37.24,0,.32-.14.32-.37v-1.53Z"/>
          <path class="cls-1" d="M33.29,66.2c-.07-.17-.11-.22-.3-.22v.74l.14.1v.1h-.63v-.1l.14-.1v-1.91l-.12-.09v-.1h.67c.35,0,.65.13.65.54v.3c0,.28-.16.44-.37.48.1.05.14.12.18.22.05.14.1.28.15.42.03.09.09.21.19.19v.13c-.07.03-.17.04-.24.04-.21,0-.23-.15-.3-.32l-.16-.42ZM32.99,64.83v.95h.2c.22,0,.3-.12.3-.32v-.3c0-.2-.07-.33-.29-.33h-.2Z"/>
          <path class="cls-1" d="M35.92,66.72l.13.1v.1h-.62v-.1l.14-.1v-1.91l-.12-.09v-.1h.58v.1l-.12.09v1.91Z"/>
          <path class="cls-1" d="M38.35,64.83v1.87l.14.11v.12h-.64v-.12l.14-.11v-1.87h-.23l-.11.37h-.16v-.58h1.36v.58s-.15,0-.15,0l-.12-.37h-.23Z"/>
          <path class="cls-1" d="M40.25,64.75l-.09-.03v-.1h.3c.12,0,.15.03.19.14l.3.79.3-.78-.12-.06v-.09h.49v.09l-.12.06-.42,1.09v.84l.14.11v.11h-.64v-.11l.14-.11v-.79l-.47-1.16Z"/>
          <path class="cls-1" d="M45.41,66.72c.17,0,.24-.11.24-.27v-.28c0-.42-.83-.26-.83-.83v-.28c0-.35.26-.47.53-.47.12,0,.26.02.37.14h.01l.03-.12h.23v.62h-.35v-.17c0-.16-.08-.24-.23-.24s-.22.09-.22.24v.28c0,.39.83.22.83.83v.28c0,.37-.31.5-.62.5s-.6-.15-.6-.51v-.18h.39v.18c0,.19.08.27.22.27Z"/>
          <path class="cls-1" d="M48.92,66.34c0,.37-.26.61-.66.61s-.66-.24-.66-.61v-1.15c0-.37.26-.61.66-.61s.66.24.66.61v1.15ZM47.95,66.34c0,.25.1.38.31.38s.31-.18.31-.38v-1.15c0-.21-.1-.38-.31-.38s-.31.13-.31.38v1.15Z"/>
          <path class="cls-1" d="M50.47,66.92v-.1l.14-.1v-1.91l-.12-.09v-.1h.6v.1l-.12.09v1.79c0,.05-.07.11-.07.11h0c.18.01.33.01.51.01l.12-.31h.15v.51s-1.2,0-1.2,0Z"/>
          <path class="cls-1" d="M54.16,64.81l-.12-.09v-.11h.49v.11l-.12.09v1.53c0,.43-.28.61-.62.61s-.62-.19-.62-.61v-1.52l-.14-.11v-.1h.64v.1l-.14.11v1.52c0,.27.12.37.31.37.24,0,.32-.14.32-.37v-1.53Z"/>
          <path class="cls-1" d="M56.79,64.83v1.87l.14.11v.12h-.64v-.12l.14-.11v-1.87h-.23l-.11.37h-.16v-.58h1.36v.58s-.15,0-.15,0l-.12-.37h-.23Z"/>
          <path class="cls-1" d="M59.22,66.72l.13.1v.1h-.62v-.1l.14-.1v-1.91l-.12-.09v-.1h.58v.1l-.12.09v1.91Z"/>
          <path class="cls-1" d="M62.24,66.34c0,.37-.26.61-.66.61s-.66-.24-.66-.61v-1.15c0-.37.26-.61.66-.61s.66.24.66.61v1.15ZM61.27,66.34c0,.25.09.38.31.38s.31-.18.31-.38v-1.15c0-.21-.1-.38-.31-.38s-.31.13-.31.38v1.15Z"/>
          <path class="cls-1" d="M64.19,66.72l.14.09v.11h-.51v-.11l.13-.09v-1.92l-.12-.09v-.1h.43c.11,0,.15.03.18.14l.31,1.02.14.62h0c0-.16-.01-.37-.01-.53v-1.06l-.12-.09v-.11h.48v.11l-.12.09v2.11h-.3c-.08,0-.13-.05-.15-.12l-.52-1.82s0,0-.01,0l.04.31v1.42Z"/>
          <path class="cls-1" d="M67.34,66.72c.17,0,.24-.11.24-.27v-.28c0-.42-.83-.26-.83-.83v-.28c0-.35.26-.47.53-.47.12,0,.26.02.37.14h.01l.03-.12h.23v.62h-.35v-.17c0-.16-.08-.24-.23-.24s-.22.09-.22.24v.28c0,.39.83.22.83.83v.28c0,.37-.31.5-.62.5s-.6-.15-.6-.51v-.18h.39v.18c0,.19.08.27.22.27Z"/>
        </g>
      </g>
      <g>
        <path class="cls-1" d="M23.54,2.95s-.23,3.86,5.4,5.26c5.63,1.41,6.04,4.86,6,5.5,0,0-.41-2.64-4.39-4.39-4.01-1.76-7.58-1.98-7.01-6.37Z"/>
        <path class="cls-1" d="M10.48,0s6.25,5.5,12.69,7.9c0,0,.69.59.89.74,0,0-11.4-4.69-13.58-8.63Z"/>
        <path class="cls-1" d="M30.57,24.77c.11-.12.19-.28.27-.42.36-.6.93-1.06,1.36-1.61"/>
        <path class="cls-1" d="M33.86,23.1l-.2.27c-.06.08-.12.16-.16.25-.04.07-.06.15-.08.22-.12.39-.22.78-.29,1.18"/>
        <path class="cls-1" d="M35.59,23.37c.21.49.13,1.08-.2,1.5"/>
        <path class="cls-1" d="M65.66,2.95s.23,3.86-5.4,5.26c-5.63,1.41-6.04,4.86-6,5.5,0,0,.41-2.64,4.39-4.39s7.58-1.98,7.01-6.37Z"/>
        <path class="cls-1" d="M78.72,0s-6.25,5.5-12.69,7.9c0,0-.69.59-.89.74C65.14,8.63,76.54,3.94,78.72,0Z"/>
        <g>
          <path class="cls-1" d="M25.82,24.71c-1.01,2.21-5.5,2.85-5.5,2.85,2.85,1.58,8.09-.51,8.85-.83-.78,1.31-4.29,3.04-4.29,3.04,3.28.58,6.14-.94,7.49-1.84.53-.35.82-.61.82-.61-.14.35-.44.73-.8,1.1-.95.97-2.32,1.85-2.32,1.85.9-.04,1.72-.29,2.45-.64.42-.21.81-.45,1.16-.7,1.3-.93,2.06-2.01,2.06-2.01-.13,2.28-1.74,3.72-1.74,3.72,2.31-.5,3.02-3.39,3.02-3.39.44,1.21-.07,2.92-.07,2.92,1.71-1.27,1.21-3.96,1.21-3.96.41-.57.52-1.23.53-1.77-.1.04-.2.08-.28.1-.4.79-1.29,1.77-1.4,1.89l-.41.44-.42-.42c-.07-.07-.14-.16-.2-.25-.44.46-.9.71-.94.72l-.5.27-.27-.5c-.12-.22-.21-.51-.27-.8-.13.15-.27.29-.39.41-.34.34-.61.55-.64.57l-.62.28-.2.09-.05-.73c-.06-.4-.07-1.04-.07-1.38-.44.33-.9.65-1.27.9-.48.31-1.01.54-1.57.66v-.7c0-.56.09-1.11.21-1.61-.99.56-1.99.92-2.16.98l-1.09.38.35-1.1c.16-.49.37-.95.6-1.36-1.28.41-2.35.43-2.42.43h-.85s.31-.78.31-.78c.13-.34.3-.66.47-.96-.45.08-.92.12-1.42.12-1.09,0-1.91-.2-1.94-.21l-1.28-.32,1.4-.6c1.03-.4,1.44-.66,2.01-.91-.29.02-.57.03-.85.03-2.18,0-3.33-.68-3.38-.71l-1.6-.96,1.87-.11c.83-.05,1.59-.2,2.24-.39-3.99-.17-5.08-1.34-5.2-1.48l-.65-.78h1.11c.36.04.76.04,1.12.04.22,0,1.54-.03,1.74-.03-1.33-.43-2.62-.97-3.57-1.41-.94-.43-1.7-1.18-2.14-2.11l1.39.17c.84.15,1.64.15,2.51.18-4.54-2.09-6.76-4.79-7.55-5.95C5.72,3.84,0,.17,0,.17c0,6.27,12.31,10.72,12.7,10.86C9.09,9.89.07,6,0,5.97c2.68,6.1,12.98,8.38,12.98,8.38-1.98-.17-11.1-2.68-11.1-2.68,2.51,5.3,15.02,6,15.02,6-2.48.59-11.84-1.04-11.84-1.04,3.49,4.36,14.99,4.12,14.99,4.12-1.81.84-10.36.64-10.36.64,3.72,3.22,12.98,1.54,12.98,1.54-1.61,1.49-7.04,2.45-7.04,2.45,4.22,1.68,10.19-.67,10.19-.67ZM30.8,27.09s.16-.17.12-.09c-.7,1.28-1.96,2.17-3.42,2.31-.01,0,.06-.15.12-.16,1.33-.13,2.54-.87,3.18-2.06ZM27.23,25.77s.2.09.16.12c-1.12,1-2.4,1.35-3.84,1.66-.06.01-.19-.12-.15-.13,1.43-.31,2.7-.65,3.82-1.64ZM9.82,8.46c-2.54-1.49-4.93-3.19-7.17-5.1-.04-.03-.1-.22-.02-.15,2.22,1.9,4.61,3.6,7.14,5.08.05.03.11.21.06.17ZM10.38,11.98c-2.71-.85-5.2-2.25-7.7-3.59-.11-.06.05-.19.14-.14,2.48,1.33,4.96,2.72,7.66,3.57.12.04,0,.19-.09.16ZM13.01,15.94c-2.9-.51-6.03-.96-8.63-2.43-.11-.06,0-.21.11-.15,2.57,1.45,5.66,1.9,8.53,2.4.12.02.13.2,0,.18ZM16.05,19.22c-2.34,0-4.66-.35-6.89-1.05-.11-.03.04-.17.13-.14,2.21.69,4.5,1.03,6.81,1.04.13,0,.06.16-.04.16ZM19.26,22.08c-2.06.4-4.15.47-6.23.22-.05,0-.2-.14-.09-.12,2.06.25,4.13.18,6.17-.22.06-.01.19.11.15.12ZM18.69,25.41c1.42-.27,2.83-.63,4.2-1.1.07-.03.24.07.13.11-1.39.47-2.8.84-4.24,1.11-.09.02-.22-.1-.09-.12Z"/>
          <path class="cls-1" d="M20.42,10.43c-.07-.01-4.47-.93-9.86-4.73,0,0,2.48,4.66,10.13,7.24,0,0-2.38.37-5.4-.17,0,0,2.08,2.68,7.01,2.72,0,0-2.05.77-5.4.57,0,0,1.34,1.61,7.54,1.24,0,0-2.04,1.41-5,1.58,0,0,2.18,1.31,6.44.13,0,0-1.11,1.48-4.49,2.31,0,0,2.78.7,4.9-.57,0,0-1.11,1.07-1.61,2.38,0,0,2.61-.03,4.46-1.57-.09.08-1.49,1.43-2.07,3.25,0,0,2.71-.94,3.62-2.18-.03.05-.9,1.67-.9,3.35,0,0,1.8-.71,2.8-1.96.07-.08.13-.17.19-.25,0,.03-.33,1.23-.13,2.65,0,0,.53-.4,1.04-1.03.29-.35.57-.76.77-1.22,0,0-.03,1.58.34,2.25,0,0,1.07-.57,1.37-1.54,0,0,.1.84.44,1.17,0,0,1.14-1.24,1.41-1.98,0,0,1.46-.31,2.43-1.65.29-.4.62-.78,1.03-1.07.46-.33,1.13-.73,2.07-1.1-.06.01-2.09.48-3.15,1.31,0,0-2.18-2.1-5.63-3.24-.28-.09-.53-.18-.77-.26-.47-.16-.87-.31-1.22-.44-1.69-.67-2.02-1.13-2.07-2.13,0,0-.73.9.44,1.7.46.32.87.56,1.35.78.34.16.72.32,1.17.5.52.2,1.14.42,1.93.71,0,0-.85-.09-2.06-.53-.36-.13-.76-.3-1.17-.5-.6-.3-1.25-.68-1.9-1.17-.22-.17-.39-.41-.44-.68-.21-1.12,1.4-1.91,2.92-1.88,1.74.03,1.94-1.07.84-2.41-1.11-1.34-3.99-2.92-6.17-3.55-2.18-.64-4.53-2.25-4.73-4.9,0,0-1.61,3.72,2.68,5.83-.16-.06-10.37-3.73-15.62-8.85,0,0,2.15,5.97,10.49,9.89ZM30.25,21.64c.09-.06.22.01.11.09-.78.55-1.43,1.23-1.94,2.03-.04.07-.24.09-.17-.02.53-.83,1.2-1.54,2.01-2.11ZM28.32,20.5c.11-.07.15.12.06.17-.87.58-1.73,1.19-2.56,1.83-.1.08-.15-.11-.06-.17.83-.64,1.69-1.25,2.56-1.83ZM27.15,19.4c-.26.17-.46.39-.69.59-.24.19-.5.31-.78.42-.72.28-1.44.54-2.17.79,0,0,.03-.17.07-.18.73-.25,1.46-.51,2.17-.79.28-.11.55-.23.78-.42.24-.2.43-.42.69-.59,0,0-.03.15-.07.18ZM26.73,17.56c-1.48.9-3.13,1.39-4.86,1.42.02,0,.12-.09.17-.09,1.63-.02,3.2-.46,4.59-1.3.03-.02.21-.09.1-.02ZM25.55,16.09c-1.9.51-3.86.68-5.83.51-.1,0,0-.19.08-.18,1.93.17,3.87,0,5.75-.5.12-.03.09.15,0,.17ZM24.44,14.5c-2.18.16-4.36-.05-6.47-.65-.12-.03-.03-.2.08-.17,2.09.59,4.26.8,6.42.64.13-.01.08.17-.03.18ZM24.32,12.54c-1.7-.08-3.33-.59-4.93-1.14-1.52-.52-3.04-1.07-4.39-1.97-.1-.07.05-.21.14-.15,1.33.89,2.84,1.43,4.35,1.95,1.59.55,3.2,1.05,4.89,1.13.13,0,.06.19-.05.18Z"/>
          <path class="cls-1" d="M48.78,22.42c.97,1.34,2.43,1.65,2.43,1.65.27.74,1.41,1.98,1.41,1.98.34-.34.44-1.17.44-1.17.3.97,1.37,1.54,1.37,1.54.37-.67.34-2.25.34-2.25.19.44.46.85.74,1.19.53.64,1.07,1.05,1.07,1.05.2-1.42-.12-2.61-.13-2.65.05.08.11.15.16.23.99,1.27,2.82,1.99,2.82,1.99,0-1.68-.88-3.3-.9-3.35.91,1.24,3.62,2.18,3.62,2.18-.59-1.85-2.03-3.21-2.08-3.25,1.84,1.54,4.46,1.57,4.46,1.57-.5-1.31-1.61-2.38-1.61-2.38,2.11,1.27,4.9.57,4.9.57-3.39-.84-4.49-2.31-4.49-2.31,4.26,1.17,6.44-.13,6.44-.13-2.95-.17-5-1.58-5-1.58,6.2.37,7.54-1.24,7.54-1.24-3.35.2-5.4-.57-5.4-.57,4.93-.03,7.01-2.72,7.01-2.72-3.02.54-5.4.17-5.4.17,7.64-2.58,10.13-7.24,10.13-7.24-5.39,3.79-9.79,4.71-9.86,4.73,8.35-3.92,10.49-9.89,10.49-9.89-5.26,5.12-15.46,8.79-15.62,8.85,4.29-2.11,2.68-5.83,2.68-5.83-.2,2.65-2.55,4.26-4.73,4.9-2.18.64-5.06,2.21-6.17,3.55-1.11,1.34-.91,2.45.84,2.41,1.53-.03,3.13.76,2.92,1.88-.05.27-.22.51-.44.68-.65.49-1.3.88-1.91,1.17-.41.2-.81.37-1.17.5-1.2.44-2.05.52-2.05.52.78-.28,1.4-.5,1.91-.7.46-.18.83-.33,1.18-.49.48-.23.9-.47,1.36-.79,1.17-.8.44-1.7.44-1.7-.05,1-.38,1.46-2.08,2.13-.35.14-.75.28-1.22.44-.24.08-.49.17-.76.25-3.45,1.14-5.63,3.24-5.63,3.24-1.06-.83-3.09-1.29-3.15-1.31.94.37,1.61.77,2.07,1.1.4.29.74.66,1.03,1.07ZM64.83,12.36c1.69-.08,3.3-.58,4.88-1.13,1.51-.52,3.01-1.06,4.35-1.95.09-.06.23.08.14.15-1.35.9-2.87,1.45-4.39,1.97-1.6.55-3.23,1.06-4.93,1.14-.11,0-.18-.17-.05-.18ZM64.73,14.32c2.17.16,4.33-.05,6.42-.64.11-.03.2.14.08.17-2.11.59-4.29.81-6.47.65-.11,0-.16-.19-.03-.18ZM63.65,15.92c1.88.5,3.81.67,5.75.5.09,0,.18.17.08.18-1.96.18-3.92,0-5.83-.51-.09-.02-.12-.21,0-.17ZM62.57,17.59c1.39.85,2.96,1.28,4.59,1.3.06,0,.15.09.17.09-1.73-.03-3.39-.52-4.86-1.42-.11-.07.07,0,.1.02ZM62.67,19.81c.23.19.5.31.78.42.72.28,1.44.54,2.17.79.05.02.07.18.07.18-.73-.25-1.46-.51-2.17-.79-.28-.11-.54-.23-.78-.42-.24-.19-.43-.42-.69-.59-.05-.03-.06-.18-.07-.18.26.17.46.39.7.59ZM60.88,20.5c.87.58,1.73,1.19,2.56,1.83.08.06.04.25-.06.17-.83-.64-1.69-1.25-2.56-1.83-.09-.06-.04-.24.06-.17ZM58.95,21.64c.81.56,1.48,1.27,2.01,2.11.06.1-.13.09-.17.02-.51-.81-1.16-1.49-1.94-2.03-.11-.08.02-.15.11-.09Z"/>
          <path class="cls-1" d="M42.82,24.12c-.25-.14-.44-.75-.44-.75-.13.35,0,.69,0,.69,0,0,.54,1.04.89,1.22.35.18.57.77.57.77.03-.77-.77-1.79-1.02-1.93Z"/>
          <path class="cls-1" d="M39.76,32.72c-.41-.07-.23.36-.23.36-.05.88.36,1.5.61,1.43.25-.07.18-.18.18-.69s-.14-1.02-.55-1.09Z"/>
          <path class="cls-1" d="M40.85,32.42c-.45-.04-.55.55-.55.55,0,0,.23,1.18.74,1.32.51.14.33-.78.33-.93s-.07-.9-.52-.94Z"/>
          <path class="cls-1" d="M42.47,33.37c.11-.18-.05-1.51-.46-1.5s-.65.56-.65.56c0,0-.1.49.36.94.46.45.64.18.75,0Z"/>
          <path class="cls-1" d="M39.08,38.15c.64-1.18,1.78-2.64,2.26-3,0,0-1.77.71-2.98.68,0,0-1.57,1.71-1.48,4.03,0,0,1.56-.54,2.2-1.71Z"/>
          <path class="cls-1" d="M41.46,34.8s.08.7-.85,1.53c-.93.84-1.61,1.93-1.93,3.53-.32,1.61-.75,2.78-.75,2.78,0,0,1.28-.68,1.55-1.11.27-.43.6-3.64,1.51-5,.9-1.36.47-1.75.47-1.75Z"/>
          <path class="cls-1" d="M43.08,34.58c-.13.18-1.16.21-1.16.21.06.75-1.03,2.5-1.49,3.64-.46,1.14-.68,6.49-.68,6.49.89-.43,2.17-2.93,2.17-2.93-.22-1.64-.21-3.92,0-4.06.21-.13,1.29-3.54,1.16-3.36Z"/>
          <path class="cls-1" d="M89.2,5.97c-.07.03-9.09,3.92-12.7,5.06.29-.1,12.7-4.57,12.7-10.86,0,0-5.72,3.67-10.4,6.36-.79,1.16-3.01,3.86-7.55,5.95.87-.03,1.67-.04,2.51-.18l1.39-.17c-.45.93-1.2,1.68-2.14,2.11-.95.44-2.24.98-3.57,1.41.2,0,1.53.03,1.74.03.35,0,.76,0,1.12-.02h1.11s-.65.77-.65.77c-.12.14-1.21,1.31-5.2,1.48.65.19,1.41.34,2.24.39l1.87.11-1.6.96s-1.2.71-3.38.71c-.28,0-.56-.01-.85-.03.57.26.98.51,2.01.91l1.4.6-1.28.32s-.85.21-1.94.21c-.5,0-.97-.04-1.42-.12.18.3.34.62.47.96l.31.79h-.85c-.07-.01-1.15-.03-2.42-.44.23.41.44.87.6,1.36l.35,1.1-1.09-.38c-.18-.06-1.18-.42-2.16-.98.12.5.21,1.05.21,1.61v.7c-.56-.12-1.09-.34-1.57-.66-.37-.24-.83-.56-1.27-.9,0,.35-.01.99-.07,1.38l-.05.73-.22-.1-.6-.28s-.3-.23-.66-.59c-.12-.12-.24-.25-.37-.39-.06.3-.15.58-.27.8l-.27.5-.5-.27s-.49-.27-.94-.72c-.06.09-.12.18-.2.25l-.42.42-.41-.44c-.11-.12-1-1.1-1.4-1.89-.08-.03-.18-.06-.28-.1,0,.54.11,1.2.53,1.77,0,0-.5,2.68,1.21,3.96,0,0-.5-1.71-.07-2.92,0,0,.7,2.88,3.02,3.39,0,0-1.61-1.44-1.74-3.72,0,0,.76,1.07,2.04,2,.35.25.74.49,1.16.7.73.36,1.56.62,2.46.65,0,0-1.39-.89-2.34-1.87-.35-.36-.64-.74-.78-1.08,0,0,.29.25.8.59,1.34.9,4.22,2.43,7.51,1.85,0,0-3.51-1.73-4.29-3.04.77.32,6,2.41,8.85.83,0,0-4.49-.64-5.5-2.85,0,0,5.97,2.35,10.19.67,0,0-5.43-.96-7.04-2.45,0,0,9.25,1.68,12.98-1.54,0,0-8.55.2-10.36-.64,0,0,11.5.23,14.99-4.12,0,0-9.35,1.63-11.84,1.04,0,0,12.51-.7,15.02-6,0,0-9.12,2.51-11.1,2.68,0,0,10.29-2.28,12.98-8.38ZM79.44,8.28c2.53-1.48,4.91-3.18,7.14-5.08.08-.07.01.12-.02.15-2.23,1.91-4.63,3.62-7.17,5.1-.06.03,0-.14.06-.17ZM61.58,29.15c.05,0,.13.16.12.16-1.46-.14-2.72-1.03-3.42-2.31-.04-.08.1.06.12.09.65,1.19,1.85,1.93,3.18,2.06ZM65.79,27.41s-.08.15-.15.13c-1.43-.31-2.72-.66-3.84-1.66-.04-.03.12-.16.16-.12,1.12,1,2.39,1.34,3.82,1.64ZM70.51,25.41c.13.02,0,.14-.09.12-1.44-.27-2.85-.64-4.24-1.11-.11-.04.06-.13.13-.11,1.37.46,2.77.83,4.2,1.1ZM70.1,21.96c2.04.4,4.11.47,6.17.22.1-.01-.04.12-.09.12-2.08.25-4.17.18-6.23-.22-.04,0,.09-.13.15-.12ZM73.11,19.07c2.31,0,4.6-.35,6.81-1.04.08-.03.23.11.13.14-2.24.7-4.55,1.05-6.89,1.05-.1,0-.17-.16-.04-.16ZM84.72,13.36c.11-.06.22.08.1.15-2.6,1.47-5.72,1.92-8.63,2.43-.13.02-.12-.16,0-.18,2.86-.5,5.96-.95,8.53-2.4ZM86.52,8.39c-2.5,1.34-4.98,2.74-7.7,3.59-.1.03-.22-.12-.09-.16,2.7-.85,5.17-2.24,7.66-3.57.09-.05.24.08.14.14Z"/>
          <path class="cls-1" d="M45.93,25.28c.35-.18.89-1.22.89-1.22,0,0,.13-.34,0-.69,0,0-.18.61-.44.75-.25.14-1.06,1.16-1.02,1.93,0,0,.22-.59.57-.77Z"/>
          <path class="cls-1" d="M49.44,32.72c-.41.07-.56.58-.56,1.09s-.07.62.18.69c.25.07.65-.55.61-1.43,0,0,.18-.43-.23-.36Z"/>
          <path class="cls-1" d="M48.14,34.24c.51-.14.74-1.32.74-1.32,0,0-.1-.59-.55-.55-.45.04-.52.8-.52.94s-.18,1.07.33.93Z"/>
          <path class="cls-1" d="M47.85,32.42s-.23-.55-.65-.56-.57,1.32-.46,1.5c.11.18.28.45.75,0,.46-.45.36-.94.36-.94Z"/>
          <path class="cls-1" d="M47.85,35.15c.48.36,1.63,1.82,2.26,3,.64,1.18,2.2,1.71,2.2,1.71.09-2.32-1.48-4.03-1.48-4.03-1.21.04-2.98-.68-2.98-.68Z"/>
          <path class="cls-1" d="M48.59,36.33c-.93-.84-.85-1.53-.85-1.53,0,0-.44.39.47,1.75.9,1.36,1.24,4.57,1.51,5,.27.43,1.55,1.11,1.55,1.11,0,0-.43-1.18-.75-2.78-.32-1.61-1-2.7-1.93-3.53Z"/>
          <path class="cls-1" d="M47.28,34.8s-1.02-.04-1.16-.21c-.13-.18.95,3.23,1.16,3.36.21.13.22,2.42,0,4.06,0,0,1.29,2.5,2.17,2.93,0,0-.22-5.35-.68-6.49-.46-1.14-1.55-2.89-1.49-3.64Z"/>
          <path class="cls-1" d="M60.77,33.41s1.19,1.42,1.71,2.74c0,0-2.28-1.82-6.41-2.25-3.21-.33-4.59-.87-5.05-1.09-.24-.51-.49-1.15-.51-1.65,0,0-.36.92-.8,1.25,0,0,.18.17.44.39-.12.46.1,2,.31,2.59-.37-.47-.48-1.98-.48-1.98l-.22.09c-.04.36-.16.74-.37.96-.09.1-.19.15-.28.15h0s-.05,0-.07,0c-.27-.08-.27-.23-.26-.52,0-.08,0-.16,0-.27,0-.09,0-.18.01-.26,0,0,0,0,0,0-.17.45-.38.71-.63.78-.04.01-.09.02-.13.02-.09,0-.17-.04-.23-.1-.18-.19-.13-.62-.11-.85,0-.04,0-.08,0-.1,0,0,0-.02,0-.04-.04.06-.09.12-.15.18-.19.19-.36.28-.51.28h0c-.22,0-.34-.19-.4-.3-.09-.15-.05-.71.09-1.13-.02-.02-.04-.04-.07-.05,0-.03.02-.05.02-.07.04-.37.22-.46.4-.5.18-.04.51.07.72.4.2.34.85.1.85.1.29.41.66.44.66.44-.13-.28.13-.44.13-.44,1.42-.88.61-1.83.61-1.83.21.29.3.91-.39,1.27-.69.37-1.02.06-1.02.06.47-.09,1.86-.69,1.38-1.1-.86-.53-.34-1.32-.34-1.32,0,0,.87.26,1.11,1.48.23,1.22,1.03,1.44,1.03,1.44,0,0-.78-.44-.67-.95.07-.76-.2-2.66-.38-2.95-.18-.29-.06-.51-.06-.51.27-1.14-.4-1.99-.4-1.99.13.85-.4,1.1-.4,1.1.54-3.11-1.52-4.12-1.52-4.12.59.94.45,1.33.45,1.33-.3-.15-.87-.35-.87-.35.54.54.54,1.31.54,1.31-.13-.13-.54-.41-.54-.41.23.6-.03,1.81-.03,1.81,0-.3-.6-.66-.6-.66,0,1.15-.57,1.22-.57,1.22-.07-.25-.27-.44-.27-.44-.37.92-1.24,1.41-1.24,1.41.15-.18.8-1.07.89-1.44.08-.37-.07-.75-.07-.75,0,.39-.22.39-.32.66-.09.25-1.04,1.79-1.15,1.96-.11-.17-1.05-1.71-1.15-1.96-.1-.27-.32-.27-.32-.66,0,0-.15.38-.07.75.08.37.74,1.26.89,1.44,0,0-.87-.49-1.24-1.41,0,0-.2.19-.27.44,0,0-.57-.07-.57-1.22,0,0-.6.36-.6.66,0,0-.27-1.21-.03-1.81,0,0-.4.28-.54.41,0,0,0-.78.54-1.31,0,0-.57.2-.87.35,0,0-.15-.39.45-1.33,0,0-2.06,1.02-1.52,4.12,0,0-.54-.25-.4-1.1,0,0-.67.85-.4,1.99,0,0,.12.22-.06.51-.18.29-.45,2.19-.38,2.95.11.51-.67.95-.67.95,0,0,.79-.21,1.03-1.44.23-1.22,1.11-1.48,1.11-1.48,0,0,.52.79-.34,1.32-.48.4.91,1.01,1.38,1.1,0,0-.32.31-1.02-.06-.69-.37-.6-.98-.39-1.27,0,0-.8.95.61,1.83,0,0,.27.16.13.44,0,0,.37-.02.66-.44,0,0,.65.23.85-.1.2-.34.54-.45.72-.4.18.04.36.13.4.5,0,.02,0,.05.02.07-.02.02-.04.03-.07.05.13.41.18.98.09,1.13-.06.1-.18.3-.4.3-.15,0-.32-.09-.51-.28-.07-.07-.13-.14-.18-.21,0,.08,0,.14,0,.14,0,.02,0,.05,0,.1.02.23.07.65-.11.85-.06.07-.14.1-.23.1h0s-.08,0-.13-.02c-.23-.07-.44-.31-.6-.71,0,.04,0,.09,0,.13,0,.11,0,.19,0,.27.01.28.02.44-.26.52-.02,0-.05,0-.07,0-.09,0-.19-.05-.28-.15-.21-.22-.33-.6-.37-.96l-.22-.09s-.1,1.51-.48,1.98c.21-.58.43-2.12.31-2.59.26-.22.44-.39.44-.39-.44-.33-.8-1.25-.8-1.25-.01.5-.26,1.14-.51,1.65-.46.22-1.84.76-5.05,1.09-4.13.43-6.41,2.25-6.41,2.25.53-1.32,1.71-2.74,1.71-2.74-6.9,2.79-9.55,9.77-9.55,9.77,3.89-4.42,6.48-5.23,6.48-5.23-.59.69-.81,2.81-.81,2.81,4.28-5.78,13.16-5.57,13.16-5.57l.45-1.71c.09-.06.18-.12.27-.18l-.5,1.79c.11.46.43.54.66.54.04,0,.09-.08.14-.22,0,0,.91.33,1.66-.24.75-.57,1.37-.89,1.53-.93.1-.02,1-.47,1.63-.9.2.14.41.27.63.37,0,.04,0,.07,0,.12,0,0-4.94,5.82.41,15.51v.04s0-.01,0-.02c0,0,0,.01,0,.02v-.04c5.35-9.68.41-15.51.41-15.51,0-.04,0-.08,0-.12.22-.1.43-.23.63-.37.63.43,1.53.88,1.63.9.15.04.78.36,1.53.93.75.57,1.66.24,1.66.24.05.14.1.22.14.22.23,0,.56-.07.66-.54l-.5-1.79c.09.07.18.13.27.18l.45,1.71s8.88-.21,13.16,5.57c0,0-.23-2.12-.81-2.81,0,0,2.59.81,6.48,5.23,0,0-2.66-6.98-9.55-9.77ZM20.62,40.73c2.68-2.35,4.49-3.01,4.49-3.01-2.66,1.31-4.9,3.54-4.9,3.54,1.57-3,5.52-6.23,5.52-6.23-4.23,3.93-5.1,5.7-5.1,5.7ZM41.51,29.94s.6.06.65.08c0,0-1.28-1.6-1.32-2.62,0,0,1.46,1.46,3.74,4.74v.03s0,0,0-.01c0,0,0,0,0,.01v-.03c2.29-3.27,3.74-4.74,3.74-4.74-.03,1.02-1.32,2.62-1.32,2.62.06-.03.65-.08.65-.08-.74.2-1.51.91-1.71,1.51-.19.57-1.27.99-1.38,1.04-.11-.04-1.19-.46-1.38-1.04-.2-.6-.97-1.31-1.71-1.51ZM44.73,42.69c-.02.88-.06,1.78-.12,2.7-.05-.91-.09-1.82-.12-2.7-.04-1.47-.04-2.9,0-4.24.03-.85.07-1.57.11-2.13.04.56.08,1.28.11,2.13.04,1.34.05,2.77,0,4.24ZM64.1,37.72s1.81.66,4.49,3.01c0,0-.88-1.77-5.1-5.7,0,0,3.95,3.23,5.52,6.23,0,0-2.24-2.23-4.9-3.54Z"/>
        </g>
      </g>
    </g>
  </g>
</svg>