<?xml version="1.0" encoding="UTF-8"?>
<svg id="Layer_2" data-name="Layer 2" xmlns="http://www.w3.org/2000/svg" viewBox="0 0 78.65 105.87">
  <defs>
    <style>
      .cls-1 {
        fill: #fff;
        stroke-width: 0px;
      }
    </style>
  </defs>
  <g id="Layer_1-2" data-name="Layer 1">
    <g>
      <g>
        <g>
          <polygon class="cls-1" points="36.35 44.45 42.34 44.45 42.34 18.12 66.52 18.12 66.52 12.13 12.13 12.13 12.13 18.12 36.35 18.12 36.35 44.45"/>
          <polygon class="cls-1" points="24.19 55.86 30.17 55.86 30.17 24.1 12.13 24.1 12.13 30.09 24.19 30.09 24.19 55.86"/>
          <polygon class="cls-1" points="60.54 60.54 42.34 60.54 42.34 50.43 36.35 50.43 36.35 60.54 18.12 60.54 18.12 36.34 12.13 36.34 12.13 61.87 12.13 61.87 12.13 66.52 66.52 66.52 66.52 61.87 66.52 61.87 66.52 36.34 60.54 36.34 60.54 60.54"/>
          <polygon class="cls-1" points="48.45 24.1 48.45 55.86 54.43 55.86 54.43 30.09 66.52 30.09 66.52 24.1 48.45 24.1"/>
        </g>
        <path class="cls-1" d="M0,0v78.65h78.65V0H0ZM72.51,72.51H6.15V6.15h66.36v66.36Z"/>
      </g>
      <g>
        <g>
          <path class="cls-1" d="M5.85,88.36v10.71h-1.89v-10.71H1.94v-1.79h5.93v1.79h-2.02Z"/>
          <path class="cls-1" d="M13.08,88.33v3.53h2.77v1.75h-2.77v3.71h3.43v1.75h-5.32v-12.5h5.32v1.75h-3.43Z"/>
          <path class="cls-1" d="M23.31,88.36v10.71h-1.89v-10.71h-2.02v-1.79h5.93v1.79h-2.02Z"/>
          <path class="cls-1" d="M39.63,89.4v.86l-1.82.09v-.75c0-1-.37-1.45-1.11-1.45s-1.11.45-1.11,1.27v6.82c0,.82.36,1.27,1.09,1.27s1.09-.45,1.09-1.45v-2.14h-1.07v-1.75h2.93v4.09c0,1.89-1.09,3-2.98,3s-2.95-1.11-2.95-3v-6.86c0-1.89,1.07-3,2.95-3s2.98,1.11,2.98,3Z"/>
          <path class="cls-1" d="M46.13,93.79h-.87v5.28h-1.89v-12.5h2.73c2.04,0,3.14,1.11,3.14,3.16v.89c0,1.32-.46,2.25-1.34,2.75l1.73,5.7h-2l-1.5-5.28ZM45.25,92.04h.77c.91,0,1.32-.48,1.32-1.54v-.64c0-1.05-.41-1.54-1.32-1.54h-.77v3.71Z"/>
          <path class="cls-1" d="M59.02,89.56v6.53c0,1.96-1.16,3.16-3.05,3.16s-3.05-1.2-3.05-3.16v-6.53c0-1.96,1.16-3.16,3.05-3.16s3.05,1.2,3.05,3.16ZM54.8,89.58v6.5c0,.93.41,1.43,1.16,1.43s1.16-.5,1.16-1.43v-6.5c0-.93-.41-1.43-1.16-1.43s-1.16.5-1.16,1.43Z"/>
          <path class="cls-1" d="M68.73,96.27c0,1.96-1.12,2.98-2.95,2.98s-2.91-1.02-2.91-2.98v-9.69h1.82v9.64c0,.91.41,1.25,1.07,1.25s1.07-.34,1.07-1.25v-9.64h1.89v9.69Z"/>
          <path class="cls-1" d="M75.51,86.58c2.04,0,3.14,1.11,3.14,3.16v1c0,2.05-1.11,3.16-3.14,3.16h-.84v5.18h-1.89v-12.5h2.73ZM74.67,92.15h.77c.91,0,1.32-.48,1.32-1.54v-.75c0-1.05-.41-1.54-1.32-1.54h-.77v3.82Z"/>
        </g>
        <g>
          <path class="cls-1" d="M8.98,103.43v.09h-.33v-.1c0-.29-.11-.45-.36-.45s-.36.17-.36.45c0,.71,1.06.78,1.06,1.67,0,.48-.23.79-.72.79s-.71-.31-.71-.79v-.18h.33v.2c0,.29.12.45.37.45s.37-.17.37-.45c0-.71-1.06-.77-1.06-1.67,0-.49.23-.79.7-.79s.71.31.71.79Z"/>
          <path class="cls-1" d="M13.07,105.83h-.34l-.53-2.52v2.53h-.31v-3.17h.49l.52,2.53.5-2.53h.49v3.17h-.33v-2.55l-.5,2.54Z"/>
          <path class="cls-1" d="M17.25,105.2l-.12.64h-.33l.61-3.17h.51l.61,3.17h-.35l-.12-.64h-.8ZM17.29,104.89h.71l-.36-1.83-.35,1.83Z"/>
          <path class="cls-1" d="M22.12,102.66c.5,0,.71.25.71.72v.26c0,.35-.12.57-.39.65.29.09.4.32.4.66v.49c0,.14,0,.27.06.38h-.36c-.04-.09-.06-.17-.06-.38v-.5c0-.36-.17-.47-.46-.47h-.25v1.35h-.35v-3.17h.71ZM22.03,104.16c.28,0,.45-.09.45-.43v-.3c0-.29-.1-.43-.37-.43h-.34v1.17h.26Z"/>
          <path class="cls-1" d="M26.27,105.83v-2.85h-.58v-.32h1.52v.32h-.58v2.85h-.35Z"/>
          <path class="cls-1" d="M34.08,102.66c.5,0,.71.29.71.77v.38c0,.5-.24.76-.74.76h-.31v1.25h-.35v-3.17h.69ZM34.05,104.27c.26,0,.39-.12.39-.43v-.42c0-.29-.1-.43-.36-.43h-.34v1.28h.31Z"/>
          <path class="cls-1" d="M38.4,102.66c.5,0,.71.25.71.72v.26c0,.35-.12.57-.39.65.29.09.4.32.4.66v.49c0,.14,0,.27.06.38h-.36c-.04-.09-.06-.17-.06-.38v-.5c0-.36-.17-.47-.46-.47h-.25v1.35h-.35v-3.17h.71ZM38.31,104.16c.28,0,.45-.09.45-.43v-.3c0-.29-.1-.43-.37-.43h-.34v1.17h.26Z"/>
          <path class="cls-1" d="M42.07,103.43c0-.48.24-.8.72-.8s.73.31.73.8v1.64c0,.48-.24.8-.73.8s-.72-.32-.72-.8v-1.64ZM42.42,105.09c0,.29.12.46.38.46s.38-.17.38-.46v-1.67c0-.29-.12-.46-.38-.46s-.38.17-.38.46v1.67Z"/>
          <path class="cls-1" d="M47.22,102.66c.49,0,.72.3.72.79v1.6c0,.48-.23.78-.72.78h-.74v-3.17h.74ZM47.21,105.51c.25,0,.38-.16.38-.45v-1.63c0-.29-.12-.45-.38-.45h-.38v2.53h.38Z"/>
          <path class="cls-1" d="M51.22,105.09c0,.29.11.46.37.46s.37-.17.37-.46v-2.42h.33v2.4c0,.48-.22.8-.71.8s-.71-.32-.71-.8v-2.4h.35v2.42Z"/>
          <path class="cls-1" d="M56.65,103.43v.29h-.33v-.3c0-.29-.11-.46-.37-.46s-.37.17-.37.46v1.67c0,.29.12.46.37.46s.37-.17.37-.46v-.41h.33v.39c0,.48-.23.8-.72.8s-.71-.32-.71-.8v-1.64c0-.48.23-.8.71-.8s.72.32.72.8Z"/>
          <path class="cls-1" d="M60.05,105.83v-2.85h-.58v-.32h1.52v.32h-.58v2.85h-.35Z"/>
          <path class="cls-1" d="M64.2,102.66v3.17h-.35v-3.17h.35Z"/>
          <path class="cls-1" d="M67.15,103.43c0-.48.24-.8.72-.8s.73.31.73.8v1.64c0,.48-.24.8-.73.8s-.72-.32-.72-.8v-1.64ZM67.5,105.09c0,.29.12.46.38.46s.38-.17.38-.46v-1.67c0-.29-.12-.46-.38-.46s-.38.17-.38.46v1.67Z"/>
          <path class="cls-1" d="M71.86,105.83h-.32v-3.17h.45l.73,2.29v-2.29h.31v3.17h-.37l-.81-2.56v2.56Z"/>
        </g>
      </g>
    </g>
  </g>
</svg>