<?xml version="1.0" encoding="UTF-8"?>
<svg id="Layer_2" data-name="Layer 2" xmlns="http://www.w3.org/2000/svg" viewBox="0 0 120.12 30.74">
  <defs>
    <style>
      .cls-1 {
        fill: #fff;
        stroke-width: 0px;
      }
    </style>
  </defs>
  <g id="Layer_1-2" data-name="Layer 1">
    <g>
      <g>
        <path class="cls-1" d="M19.43,24.47h1.37c.79,0,1.19.44,1.19,1.3v3.58c0,.86-.41,1.29-1.24,1.3h-1.31v-6.17ZM20.32,25.35v4.41h.39c.26,0,.39-.14.39-.42v-3.58c0-.28-.13-.42-.39-.42h-.39Z"/>
        <path class="cls-1" d="M25.97,24.47h.89v6.17h-.89v-6.17Z"/>
        <path class="cls-1" d="M33.41,29.44c0,.86-.43,1.3-1.28,1.3-.85,0-1.28-.43-1.28-1.3v-3.77c0-.86.43-1.3,1.28-1.3s1.28.43,1.28,1.3v.83h-.89v-.83c0-.28-.13-.42-.39-.42h0c-.26,0-.38.14-.38.42v3.77c0,.28.13.42.39.42s.39-.14.39-.42v-1.45h-.39v-.88h1.28v2.33Z"/>
        <path class="cls-1" d="M37.4,24.47h.89v6.17h-.89v-6.17Z"/>
        <path class="cls-1" d="M44.65,24.47v.88h-.83v5.29h-.89v-5.29h-.83v-.88h2.56Z"/>
        <path class="cls-1" d="M50.74,28.45l.29,2.19h-.9l-.17-1.31h-.91l-.18,1.31h-.9l.29-2.18.63-3.99h1.22l.63,3.98ZM49.84,28.45l-.34-2.57-.34,2.57h.68Z"/>
        <path class="cls-1" d="M54.79,30.64v-6.17h.89v5.29h1.42v.88h-2.31Z"/>
        <path class="cls-1" d="M68.15,28.45l.29,2.19h-.9l-.17-1.31h-.91l-.18,1.31h-.9l.29-2.18.63-3.99h1.22l.63,3.98ZM67.25,28.45l-.34-2.57-.34,2.57h.68Z"/>
        <path class="cls-1" d="M74.68,29.44c0,.86-.43,1.3-1.28,1.3-.85,0-1.28-.43-1.28-1.3v-3.77c0-.86.43-1.3,1.28-1.3s1.28.43,1.28,1.3v.83h-.89v-.83c0-.28-.13-.42-.39-.42h0c-.26,0-.38.14-.38.42v3.77c0,.28.13.42.39.42s.39-.14.39-.42v-1.45h-.39v-.88h1.28v2.33Z"/>
        <path class="cls-1" d="M78.66,24.47h2.31v.88h-1.42v1.77h1.22v.88h-1.22v1.77h1.42v.88h-2.31v-6.17Z"/>
        <path class="cls-1" d="M84.84,24.47h.89l.84,3.58v-3.58h.82v6.17h-.89l-.81-3.46v3.46h-.86v-6.17Z"/>
        <path class="cls-1" d="M93.93,29.44c0,.86-.43,1.3-1.28,1.3-.85,0-1.28-.43-1.28-1.3v-3.77c0-.86.43-1.3,1.28-1.3s1.28.43,1.28,1.3v.83h-.89v-.83c0-.28-.13-.42-.39-.42h0c-.26,0-.38.14-.38.42v3.77c0,.28.13.42.39.42s.39-.14.39-.42v-.83h.89v.83Z"/>
        <path class="cls-1" d="M98.53,24.47l.61,2.41.61-2.41h.94l-1.08,3.5-.03.08v2.59h-.89v-2.59l-.03-.08-1.08-3.5h.94Z"/>
      </g>
      <g>
        <path class="cls-1" d="M56.06,9.91c-.32.13-.63.21-.92.24,0-.3.03-.62.11-.95l-.06.13-1.83.34c1.09-1.48.85-1.87,2.6-2.04.18-.28.38-.55.61-.82.96-1.1,2.14-1.77,3.12-1.87.03.98-.47,2.24-1.43,3.35-.23.27-.48.51-.73.72.07,1.75-.36,1.57-1.67,2.85l.09-1.86.12-.08ZM59.35,5.32c-.97.24-1.92.99-2.54,1.7-.34.39-.68.88-.93,1.4l.95-.7-1.17,1.22c-.1.27-.16.55-.19.83l3.89-4.45ZM57.32,9.23l-1.07.76-.13,1.2c.94-.74,1.09-.93,1.2-1.96Z"/>
        <path class="cls-1" d="M46.14,15.13s-1.05,4.02,3.02.26c4.08-3.76,5.79-5.46,5.79-5.46l-.1.57.42-.04s-4.74,9.97-9.04,9.97-3.97-3.24-3.97-3.24l3.87-2.05Z"/>
        <g>
          <polygon class="cls-1" points="10.55 0 1.65 0 .95 3.29 3.68 3.29 0 20.66 3.44 20.66 7.12 3.29 9.85 3.29 10.55 0"/>
          <path class="cls-1" d="M16.92,2.52l-3.08,14.54c-.14.68-.56,1.02-1.24,1.02-.56,0-.83-.23-.83-.69,0-.1.01-.21.04-.33l3.09-14.54h-3.44l-3.08,14.54c-.09.41-.14.8-.14,1.15,0,1.86,1.25,2.79,3.75,2.79,2.97,0,4.74-1.32,5.29-3.93l3.09-14.54h-3.44Z"/>
          <path class="cls-1" d="M30.91,5.2c0-1.81-1.15-2.72-3.46-2.73h-4.51l-3.86,18.18h3.44l1.66-7.82h.18l.69,7.82h3.75l-1.54-8.37c1.6-.49,2.58-1.55,2.93-3.2l.56-2.68c.1-.44.14-.84.14-1.21ZM27.33,6.41l-.57,2.68c-.1.5-.39.82-.86.97-.12.03-.36.05-.73.05h-.41l1.01-4.74h.77c.55,0,.82.23.82.69,0,.1-.01.22-.04.34Z"/>
          <path class="cls-1" d="M39.07,2.47h-4.76l-3.86,18.18h4.58c2.88,0,4.6-1.32,5.16-3.92l.57-2.69c.06-.29.09-.56.09-.81,0-.79-.32-1.35-.95-1.66,1.01-.42,1.65-1.25,1.91-2.48l.56-2.68c.1-.44.14-.84.14-1.21,0-1.81-1.15-2.72-3.46-2.73ZM37.33,14.04l-.56,2.69c-.15.68-.56,1.02-1.24,1.02h-1.02l1.01-4.74h.66c.36,0,.6.02.71.06.32.12.47.34.47.68,0,.08,0,.18-.03.28ZM38.95,6.41l-.57,2.68c-.1.5-.39.82-.86.97-.12.03-.36.05-.73.05h-.66l1.01-4.74h1.02c.55,0,.82.23.82.69,0,.1-.01.22-.04.34Z"/>
          <path class="cls-1" d="M49.89,2.24c-2.96,0-4.72,1.31-5.28,3.92l-2.19,10.3,3.87-2.05,1.75-8.25c.15-.68.56-1.03,1.23-1.03h.02c.55,0,.82.24.82.7,0,.1-.02.2-.04.33l-1.61,7.58s0,0,0,0c-.43,1.91-1.48,2.82-1.48,2.82l1.09-.98h0c.21-.16.44-.37.7-.61.31-.29.6-.55.88-.81h0c1.11-1.03,2-1.86,2.68-2.49l1.17-5.51c.09-.41.13-.79.13-1.15,0-1.85-1.25-2.77-3.76-2.77Z"/>
          <polygon class="cls-1" points="72.33 0 66.24 13.69 65.93 0 62.54 0 58.16 20.66 61.5 20.66 63.53 11.09 63.59 20.66 66.01 20.66 70.05 11.15 68.03 20.66 71.34 20.66 75.73 0 72.33 0"/>
          <path class="cls-1" d="M75.45,14.16l-2.35,6.49h3.46l1.38-3.78h2.53l-.24,3.78h3.47l.4-6.52.39-11.66h-4.46l-4.58,11.69ZM80.63,13.97h-1.65l2-5.5-.35,5.5Z"/>
          <polygon class="cls-1" points="94.99 2.47 93.09 11.43 92.7 2.47 89.31 2.47 85.45 20.66 88.77 20.66 90.62 11.95 90.96 20.66 94.35 20.66 98.21 2.47 94.99 2.47"/>
          <path class="cls-1" d="M104.82,8.74h3.44l.55-2.58c.09-.41.13-.79.13-1.15,0-1.85-1.25-2.77-3.76-2.77-2.96,0-4.72,1.31-5.28,3.92l-2.31,10.9c-.09.41-.13.8-.13,1.15,0,1.86,1.25,2.79,3.74,2.79,2.97,0,4.74-1.32,5.3-3.93l1.47-6.9h-4.3l-.62,2.91h.86l-.85,3.99c-.14.68-.56,1.02-1.24,1.02-.56,0-.84-.23-.84-.69,0-.1.02-.21.04-.33l2.31-10.9c.15-.68.56-1.03,1.23-1.03h.02c.55,0,.82.24.82.7,0,.1-.01.2-.04.33l-.55,2.58Z"/>
          <path class="cls-1" d="M116.36,2.24c-2.97,0-4.73,1.31-5.28,3.92l-2.31,10.9c-.09.41-.14.8-.14,1.15,0,1.86,1.25,2.79,3.75,2.79,2.97,0,4.74-1.32,5.29-3.93l2.31-10.9c.09-.41.14-.79.14-1.15,0-1.85-1.25-2.77-3.76-2.77ZM116.55,6.16l-2.31,10.9c-.14.68-.56,1.02-1.24,1.02-.56,0-.83-.23-.83-.69,0-.1.01-.21.04-.33l2.31-10.9c.15-.68.56-1.03,1.23-1.03h.02c.55,0,.82.24.82.7,0,.1-.01.2-.04.33Z"/>
        </g>
      </g>
    </g>
  </g>
</svg>