<?xml version="1.0" encoding="UTF-8"?>
<svg id="Layer_2" data-name="Layer 2" xmlns="http://www.w3.org/2000/svg" viewBox="0 0 128.57 28.67">
  <defs>
    <style>
      .cls-1 {
        fill: #fff;
        stroke-width: 0px;
      }
    </style>
  </defs>
  <g id="Layer_1-2" data-name="Layer 1">
    <g>
      <path class="cls-1" d="M47.6,12.43c-2.43,0-3.59-1.12-3.59-3.59V0h3.84v8.05c0,.85.28,1.14,1.14,1.14h2.49c.85,0,1.14-.28,1.14-1.14V0h3.84v8.85c0,2.47-1.15,3.59-3.59,3.59h-5.26Z"/>
      <path class="cls-1" d="M69.41,0h3.22v12.43h-3.55v-6.23l-2.75,4.3h-1.95l-2.75-4.3v6.23h-3.55V0h3.38l3.98,6.47,4-6.47Z"/>
      <path class="cls-1" d="M74.08,12.43v-2.65l6.63-6.54h-6.27V0h11.87v2.65l-6.63,6.54h6.63v3.25h-12.22Z"/>
      <path class="cls-1" d="M91.26,12.43c-2.43,0-3.59-1.12-3.59-3.59V0h3.84v8.05c0,.85.28,1.14,1.14,1.14h2.49c.85,0,1.14-.28,1.14-1.14V0h3.84v8.85c0,2.47-1.15,3.59-3.59,3.59h-5.26Z"/>
      <path class="cls-1" d="M101.58,3.59c0-2.47,1.15-3.59,3.59-3.59h5.79c2.43,0,3.59,1.12,3.59,3.59v.91h-3.84v-.27c0-.85-.28-1.14-1.14-1.14h-3.02c-.85,0-1.14.28-1.14,1.14v4.19c0,.83.28,1.14,1.14,1.14h3.16c.85,0,1.14-.3,1.14-1.14v-.48h-2.77v-2.5h6.47v3.41c0,2.47-1.15,3.59-3.59,3.59h-5.79c-2.43,0-3.59-1.12-3.59-3.59V3.59Z"/>
      <path class="cls-1" d="M115.96,8.44h3.69v.52c0,.59.2.78.78.78h3.52c.59,0,.78-.2.78-.78v-.44c0-.59-.16-.73-.78-.78l-5.01-.44c-1.99-.2-2.81-.91-2.81-2.81v-1.67c0-1.94.89-2.81,2.81-2.81h6.57c1.92,0,2.81.87,2.81,2.81v1.01h-3.69v-.36c0-.59-.2-.78-.78-.78h-3.09c-.59,0-.78.2-.78.78v.23c0,.57.2.73.78.78l5.01.44c1.99.16,2.81.89,2.81,2.81v1.9c0,1.94-.89,2.81-2.81,2.81h-7c-1.92,0-2.81-.87-2.81-2.81v-1.19Z"/>
      <path class="cls-1" d="M56.71,28.67h-4.16l-2.49-4h-2.13v4h-3.84v-12.43h8.85c2.27,0,3.23.96,3.23,3.23v1.69c0,1.94-.69,2.9-2.26,3.16l2.79,4.35ZM47.93,19.06v2.88h3.45c.73,0,.96-.23.96-.96v-.96c0-.73-.23-.96-.96-.96h-3.45Z"/>
      <path class="cls-1" d="M61.68,25.63h7.07v3.04h-10.91v-12.43h10.73v3.04h-6.89v1.74h6.18v2.63h-6.18v1.99Z"/>
      <path class="cls-1" d="M70.1,16.23h3.91v12.43h-3.91v-12.43Z"/>
      <path class="cls-1" d="M86.34,19.43h-6.71v2.04h6v2.95h-6v4.25h-3.84v-12.43h10.55v3.2Z"/>
      <g>
        <path class="cls-1" d="M89.06,17.72h.65v.09c0,.1.03.14.14.14h.62c.1,0,.14-.03.14-.14v-.08c0-.1-.03-.13-.14-.14l-.88-.08c-.35-.03-.5-.16-.5-.5v-.3c0-.34.16-.5.5-.5h1.16c.34,0,.5.15.5.5v.18h-.65v-.06c0-.1-.03-.14-.14-.14h-.55c-.1,0-.14.03-.14.14v.04c0,.1.03.13.14.14l.89.08c.35.03.5.16.5.5v.34c0,.34-.16.5-.5.5h-1.24c-.34,0-.5-.15-.5-.5v-.21Z"/>
        <path class="cls-1" d="M92.19,18.43v-2.2h1.56c.4,0,.57.17.57.57v.43c0,.4-.17.57-.57.57h-.88v.63h-.68ZM92.87,17.3h.61c.13,0,.17-.04.17-.17v-.21c0-.13-.04-.17-.17-.17h-.61v.55Z"/>
        <path class="cls-1" d="M96.66,18.43l-.12-.34h-.9l-.12.34h-.72l.92-2.2h.77l.92,2.2h-.75ZM95.8,17.62h.56l-.28-.78-.28.78Z"/>
        <path class="cls-1" d="M100.41,18.43h-.73l-.44-.71h-.38v.71h-.68v-2.2h1.56c.4,0,.57.17.57.57v.3c0,.34-.12.51-.4.56l.49.77ZM98.86,16.73v.51h.61c.13,0,.17-.04.17-.17v-.17c0-.13-.04-.17-.17-.17h-.61Z"/>
        <path class="cls-1" d="M101.91,17.89h1.25v.54h-1.93v-2.2h1.9v.54h-1.22v.31h1.09v.46h-1.09v.35Z"/>
        <path class="cls-1" d="M89.05,21.84v-.47l1.17-1.15h-1.11v-.57h2.1v.47l-1.17,1.15h1.17v.57h-2.16Z"/>
        <path class="cls-1" d="M92.77,21.3h1.25v.54h-1.93v-2.2h1.9v.54h-1.22v.31h1.09v.46h-1.09v.35Z"/>
        <path class="cls-1" d="M94.89,19.64h.69v2.2h-.69v-2.2Z"/>
        <path class="cls-1" d="M98.5,19.64v.6h-.71v1.6h-.68v-1.6h-.71v-.6h2.1Z"/>
        <path class="cls-1" d="M89.06,23.69c0-.44.2-.63.63-.63h1.02c.43,0,.63.2.63.63v.16h-.68v-.05c0-.15-.05-.2-.2-.2h-.53c-.15,0-.2.05-.2.2v.74c0,.15.05.2.2.2h.56c.15,0,.2-.05.2-.2v-.08h-.49v-.44h1.14v.6c0,.44-.2.63-.63.63h-1.02c-.43,0-.63-.2-.63-.63v-.93Z"/>
        <path class="cls-1" d="M92.94,24.72h1.25v.54h-1.93v-2.2h1.9v.54h-1.22v.31h1.09v.46h-1.09v.35Z"/>
        <path class="cls-1" d="M95.72,24.65h1.09v.6h-1.77v-2.2h.68v1.6Z"/>
        <path class="cls-1" d="M97.63,25.25v-2.2h1.48c.51,0,.78.27.78.78v.63c0,.51-.27.78-.78.78h-1.48ZM98.3,24.68h.65c.17,0,.25-.08.25-.25v-.55c0-.17-.08-.25-.25-.25h-.65v1.05Z"/>
        <path class="cls-1" d="M90.7,26.47h.65v2.2h-.55l-1.06-1.24v1.24h-.65v-2.2h.57l1.03,1.2v-1.2Z"/>
        <path class="cls-1" d="M92.96,28.13h1.25v.54h-1.93v-2.2h1.9v.54h-1.22v.31h1.09v.46h-1.09v.35Z"/>
        <path class="cls-1" d="M97.29,28.67h-.73l-.44-.71h-.38v.71h-.68v-2.2h1.56c.4,0,.57.17.57.57v.3c0,.34-.12.51-.4.56l.49.77ZM95.74,26.97v.51h.61c.13,0,.17-.04.17-.17v-.17c0-.13-.04-.17-.17-.17h-.61Z"/>
        <path class="cls-1" d="M99.66,26.47h.71l-.93,2.2h-.66l-.93-2.2h.74l.54,1.41.54-1.41Z"/>
        <path class="cls-1" d="M101.83,28.13h1.25v.54h-1.93v-2.2h1.9v.54h-1.22v.31h1.09v.46h-1.09v.35Z"/>
        <path class="cls-1" d="M105.54,26.47h.65v2.2h-.55l-1.06-1.24v1.24h-.65v-2.2h.57l1.03,1.2v-1.2Z"/>
      </g>
      <g>
        <path class="cls-1" d="M17.16,19.58v3.88c0,1.01-.33,1.35-1.35,1.35h-2.95c-1.01,0-1.35-.33-1.35-1.35v-3.88h-4.55v4.83c0,2.93,1.37,4.25,4.25,4.25h6.23c2.89,0,4.25-1.33,4.25-4.25v-4.74l-.05-.09h-4.5ZM17.16,14.32h4.55v-1.39h-4.55v1.39ZM17.16,3.21v4.35h4.55V3.21h-4.55ZM11.51,12.93h-4.55v1.39h4.55v-1.39ZM11.51,3.21h-4.55v4.35h4.55V3.21Z"/>
        <path class="cls-1" d="M30.09,23.31h-4.93l-2.95-4.74H4.55v4.74H0v-14.74h25.62c2.69,0,3.83,1.14,3.83,3.83v2c0,2.29-.82,3.43-2.67,3.75l3.31,5.16ZM4.55,11.92v3.41h19.22c.86,0,1.14-.27,1.14-1.14v-1.14c0-.86-.27-1.14-1.14-1.14H4.55Z"/>
        <polygon class="cls-1" points="6.03 3.21 9.24 0 12.46 3.21 6.03 3.21"/>
        <polygon class="cls-1" points="16.22 3.21 19.43 0 22.65 3.21 16.22 3.21"/>
      </g>
      <rect class="cls-1" x="35.68" width="1.19" height="28.67"/>
    </g>
  </g>
</svg>