<?xml version="1.0" encoding="UTF-8"?>
<svg id="Layer_2" data-name="Layer 2" xmlns="http://www.w3.org/2000/svg" viewBox="0 0 93.56 94.42">
  <defs>
    <style>
      .cls-1 {
        fill: #fff;
        stroke-width: 0px;
      }
    </style>
  </defs>
  <g id="Layer_1-2" data-name="Layer 1">
    <g>
      <g>
        <path class="cls-1" d="M9.48,46.49c.38.15.7.35.97.58.26.24.48.5.65.78.17.29.29.59.37.9.07.31.11.62.11.93,0,.61-.13,1.17-.38,1.67-.25.5-.6.94-1.05,1.3-.45.36-.97.64-1.58.84-.6.2-1.26.3-1.96.3H1.32c-.56,0-.91-.1-1.08-.3-.16-.2-.24-.52-.24-.96v-10.85c0-.42.08-.74.24-.95.16-.21.52-.32,1.08-.32h5.29c.61,0,1.18.06,1.71.19.53.13.99.33,1.38.61.39.28.7.64.94,1.07.23.43.35.96.35,1.57,0,.5-.14.98-.43,1.44-.28.47-.64.82-1.08,1.08v.11ZM3.84,45.35h2.12c.27,0,.52-.06.75-.19.23-.13.34-.38.34-.75,0-.29-.09-.52-.27-.67-.18-.15-.43-.23-.74-.23h-2.2v1.83ZM7.61,49.44c0-.37-.12-.67-.35-.91-.24-.24-.58-.35-1.02-.35h-2.39v2.5h2.39c.27,0,.49-.04.67-.11.18-.08.32-.18.42-.31.11-.13.18-.26.22-.4.04-.14.06-.28.06-.42Z"/>
        <path class="cls-1" d="M26.48,53.79h-6.28c-.81,0-1.47-.11-1.98-.32-.51-.22-.91-.5-1.2-.85-.29-.35-.49-.74-.6-1.17-.11-.43-.16-.86-.16-1.28v-6.11c0-.46.07-.91.2-1.35.14-.44.36-.83.66-1.17.31-.34.71-.61,1.21-.81.5-.2,1.11-.31,1.83-.31h6c.16,0,.27.02.32.07.05.04.07.18.07.39v2.16c0,.17-.03.28-.08.33-.05.06-.16.09-.31.09h-4.84c-.27,0-.49.04-.65.11-.16.07-.28.16-.37.26-.08.1-.14.22-.16.34-.03.13-.04.26-.04.38v.8h5.45c.16,0,.27.03.32.08.05.05.07.18.07.4v1.99c0,.29-.13.44-.39.44h-5.45v1.43c0,.24.03.43.09.57.06.14.15.25.25.32.11.07.24.11.39.13.15.02.31.03.49.03h5.17c.16,0,.27.02.32.07.05.04.07.18.07.39v2.16c0,.29-.13.44-.39.44Z"/>
        <path class="cls-1" d="M45.47,51.05c-.1-.15-.33-.23-.67-.26l-.87-.07v-9.04c0-.42-.08-.73-.25-.94-.16-.21-.52-.31-1.08-.31h-7.2c-.32,0-.59.04-.8.1-.21.07-.37.17-.49.31-.12.13-.2.29-.25.46-.06.18-.1.37-.12.57l-.71,5.55c-.03.14-.06.35-.1.62-.04.28-.12.57-.22.89-.11.32-.26.64-.45.97-.19.33-.44.61-.75.85l-.73.09c-.2.02-.36.07-.48.14-.11.07-.2.15-.25.25-.06.09-.08.19-.08.3v.3l.08,1.97h15.48l.09-2.08c.02-.3-.03-.51-.14-.66ZM40.08,50.75h-4.25c.24-.44.43-.97.56-1.59.13-.61.24-1.34.34-2.18l.41-3.48h2.95v7.24Z"/>
        <path class="cls-1" d="M60.64,40.34c.3,0,.39.12.28.36l-3.94,10.66c-.35.97-.86,1.66-1.53,2.08-.66.42-1.57.63-2.72.63-.37,0-.73-.02-1.1-.06-.37-.04-.75-.11-1.14-.23-.19-.06-.32-.12-.39-.17-.07-.05-.08-.17-.04-.34l.41-1.93c.04-.18.09-.27.15-.28.06,0,.19,0,.38.03.2.03.38.04.52.06.14.01.29.02.44.02.24,0,.46,0,.64,0,.18,0,.34-.03.47-.09.13-.05.24-.13.34-.25.09-.11.18-.28.26-.5l.2-.57h-.65c-.19,0-.35-.02-.47-.05-.12-.03-.22-.08-.31-.14-.08-.06-.15-.15-.21-.27-.06-.11-.13-.25-.19-.4l-3.4-8.12c-.07-.18-.06-.3.03-.35.09-.06.19-.09.32-.09h2.91c.31,0,.52.02.61.07.09.04.18.17.24.37l1.1,3.15,1,3.04h.12l.87-3.17.83-2.94c.07-.2.14-.34.22-.41.08-.07.27-.1.57-.1h3.17Z"/>
        <path class="cls-1" d="M75.76,53.71c-.05.06-.19.09-.42.09h-2.89c-.31,0-.47-.13-.47-.4v-3.88c-.42.04-.82.07-1.19.1-.37.03-.73.04-1.07.04-1.13,0-2.05-.13-2.78-.38-.73-.25-1.3-.61-1.72-1.06-.42-.45-.71-.99-.87-1.6-.16-.62-.24-1.29-.24-2.02v-3.76c0-.27.16-.4.47-.4h2.89c.23,0,.37.03.42.09.05.06.07.16.07.32v3.42c0,.82.2,1.39.59,1.71.39.32.98.49,1.77.49.24,0,.5,0,.78-.03.28-.02.57-.05.88-.1v-5.48c0-.27.16-.4.47-.4h2.89c.23,0,.37.03.42.09.05.06.07.16.07.32v12.57c0,.15-.02.26-.07.32Z"/>
        <path class="cls-1" d="M89.68,46.17l-1.83,2.83-2.77,3.94c-.14.19-.26.34-.37.46-.11.11-.22.2-.35.26-.12.06-.26.1-.43.11-.16.02-.36.03-.59.03h-.96c-.61,0-1.01-.14-1.2-.43-.19-.29-.28-.65-.28-1.08v-11.46c0-.27.16-.4.47-.4h2.79c.23,0,.37.03.42.09.05.06.07.16.07.32v7.26h.14l1.79-2.64,2.81-4.17c.14-.2.26-.36.37-.48.11-.11.22-.2.35-.26.12-.06.26-.09.43-.11.16-.01.36-.02.59-.02h.96c.57,0,.96.1,1.17.31.21.2.32.61.32,1.2v11.46c0,.27-.16.4-.47.4h-2.79c-.23,0-.37-.03-.42-.09-.05-.06-.07-.16-.07-.32v-7.22h-.14Z"/>
      </g>
      <g>
        <path class="cls-1" d="M39.02,20.25c3.13,2.62,4.93,4.47,7.65,8.56,2.72-4.1,4.51-5.94,7.65-8.56-8.72-4.82-8.07-14.29-3.46-20.03-1.39-.12-2.78-.21-4.2-.21s-2.81.09-4.2.21c4.61,5.75,5.27,15.22-3.45,20.04Z"/>
        <path class="cls-1" d="M22.03,12.28s0,.03,0,.04c.77-3.42,2.14-5.84,3.77-7.42,0,0-.02,0-.03.02,0,0,.01-.01.01-.01-1.35.67-2.67,1.4-3.95,2.19-.21,1.63-.15,3.4.17,5.23,0-.02,0-.03.01-.05Z"/>
        <path class="cls-1" d="M27.46,28.62s.01,0,.02,0h0c.06-.03.13-.06.21-.08.08-.02.15-.04.23-.07h0s0,0,.01,0c.06-.16.1-.34.17-.46-5.25-5.15-10.33-11.04-10.56-17.88,0,0-.02.01-.02.02h0c-2.95,2.31-5.61,4.97-7.93,7.92,6.84.23,12.73,5.31,17.88,10.56Z"/>
        <path class="cls-1" d="M71.31,12.31v.02c.32-1.83.38-3.6.18-5.23h-.01c-.18-.12-.37-.22-.56-.33-1.1-.66-2.23-1.29-3.39-1.87h0c1.63,1.57,3,4,3.77,7.42h0Z"/>
        <polygon class="cls-1" points="67.53 4.91 67.53 4.91 67.53 4.91 67.53 4.91"/>
        <path class="cls-1" d="M54.32,74.17c-3.14-2.62-4.93-4.47-7.65-8.56-2.72,4.09-4.52,5.95-7.66,8.56,8.72,4.82,8.06,14.29,3.46,20.03,1.38.12,2.78.21,4.2.21s2.81-.09,4.2-.21c-4.61-5.74-5.26-15.21,3.46-20.03Z"/>
        <path class="cls-1" d="M71.31,82.1v-.02c-.78,3.42-2.15,5.85-3.78,7.42,0,0,.01,0,.01,0h0c.13-.06.26-.13.4-.2.42-.21.83-.43,1.25-.66.24-.13.47-.26.71-.39.4-.23.8-.46,1.19-.69.14-.09.28-.16.42-.25.2-1.63.14-3.39-.18-5.23,0,0,0,0,0,.01Z"/>
        <path class="cls-1" d="M36.44,34.41c-.49-.6-1-1.18-1.51-1.7-.33-.32-.66-.65-.99-.94-1.48-1.31-2.82-1.74-4.27-1.57h0s-.02,0-.03,0c-.1,1.36.33,2.62,1.52,3.97.33.41.67.81,1.02,1.18h4.98c-.2-.31-.44-.63-.72-.95Z"/>
        <path class="cls-1" d="M62.29,34.18c1.19-1.34,1.62-2.6,1.52-3.97-.01,0-.02,0-.03,0h0c-1.44-.17-2.79.25-4.27,1.57-.33.29-.66.62-.99.94-.52.52-1.03,1.09-1.51,1.7-.28.31-.51.62-.71.93h4.98c.34-.37.68-.76,1.01-1.17Z"/>
        <path class="cls-1" d="M28.1,66.41c-.07-.12-.11-.3-.16-.46-.16-.05-.34-.09-.47-.16h0s0,0,0,0c-4.51,4.6-9.58,9.06-15.36,10.26-.2.04-.39.08-.59.11h-.01c-.62.11-1.26.17-1.9.19h0s-.02,0-.02,0c2.32,2.96,4.98,5.61,7.93,7.93v-.02s.02.01.03.02c.23-6.84,5.31-12.73,10.56-17.88Z"/>
        <path class="cls-1" d="M4.39,26.34c1.58-1.63,4-3,7.42-3.78-1.83-.32-3.6-.38-5.23-.17h0s-.01,0-.01,0c-.8,1.28-1.53,2.59-2.2,3.95.01-.01.03-.03.04-.04,0,0-.01.02-.02.03Z"/>
        <path class="cls-1" d="M22.04,82.08s0,.03,0,.05c0-.01,0-.03-.01-.04-.32,1.83-.38,3.6-.17,5.23,1.28.79,2.59,1.52,3.95,2.19,0,0-.02-.02-.03-.03.02,0,.03.02.05.03-1.63-1.58-3-4-3.78-7.42Z"/>
        <path class="cls-1" d="M81.53,71.85h.02s0,0,0,0c1.83.32,3.6.38,5.23.18.11-.19.22-.38.33-.56.17-.28.34-.57.5-.86.2-.34.39-.69.58-1.04.19-.35.37-.69.55-1.04.08-.15.16-.29.23-.45h-.01s0,0,.01-.02c-1.58,1.63-4.01,3-7.43,3.78Z"/>
        <path class="cls-1" d="M83.74,76.36c-6.84-.23-12.73-5.31-17.87-10.57-.13.07-.31.12-.47.16-.05.16-.09.34-.16.46,5.25,5.15,10.33,11.04,10.56,17.88h0s0,0,0,0c2.95-2.32,5.61-4.98,7.93-7.93h0,0Z"/>
        <path class="cls-1" d="M65.24,28s.02.05.03.07c0,.02.01.03.02.05.04.11.07.23.12.34.02,0,.05.02.07.02.12.04.25.08.35.13.01,0,.02,0,.03.01h.01c5.15-5.25,11.04-10.32,17.88-10.56-2.03-2.58-4.33-4.95-6.85-7.05-.15-.13-.31-.25-.47-.38-.21-.17-.41-.34-.62-.5,0,0,0,0,0,0-.24,6.84-5.31,12.72-10.57,17.88Z"/>
        <path class="cls-1" d="M81.55,22.56h0c1.29.29,2.44.67,3.46,1.12,1.67.73,2.98,1.65,3.96,2.66h0s0,0,0,0c-.67-1.35-1.4-2.67-2.19-3.94h0s0,0,0,0c-1.63-.2-3.4-.15-5.23.17h.01Z"/>
        <path class="cls-1" d="M11.79,71.85s.02,0,.02,0c-3.42-.78-5.85-2.15-7.43-3.78,0,.02.02.04.03.06-.02-.02-.03-.03-.05-.05.67,1.35,1.4,2.67,2.2,3.95,1.63.2,3.4.14,5.23-.18h0Z"/>
        <path class="cls-1" d="M32.16,59.11c-.34.37-.68.76-1,1.16-1.19,1.35-1.62,2.6-1.52,3.97,0,0,.03,0,.03,0h0c1.44.17,2.79-.26,4.27-1.57.33-.29.66-.62.99-.94.52-.52,1.03-1.09,1.51-1.69.28-.31.51-.62.71-.92h-4.98Z"/>
        <path class="cls-1" d="M61.21,59.11h-5.01c.19.28.4.56.65.84.49.6,1,1.17,1.52,1.69.33.32.66.65.99.94,1.48,1.31,2.83,1.74,4.27,1.57h0s.02,0,.02,0c.11-1.37-.32-2.63-1.51-3.97-.3-.37-.61-.73-.93-1.08Z"/>
        <path class="cls-1" d="M2.04,62.87s0-.02,0-.02c0-.08.01-.16.02-.24,0-.1,0-.2.02-.29,0-.1.02-.2.04-.3.01-.09.03-.18.04-.27.02-.11.04-.21.06-.31,0-.03.02-.06.02-.09.07-.27.15-.54.25-.81,0-.01,0-.03.02-.04.17-.44.39-.87.65-1.28.02-.04.05-.07.07-.11H.89c.33,1.27.72,2.52,1.15,3.76Z"/>
        <path class="cls-1" d="M20.48,59.19c-.45.6-.89,1.18-1.37,1.84-.25-.66-.52-1.28-.79-1.87,0-.02-.02-.03-.02-.05h-2.82s.01.04.02.06l.23,1.39c.01.22.02.43.02.66,0,.21-.02.41-.04.61-.39,3.02-3.01,4.69-5.86,2.59.92-.01,1.49-.61,1.7-1.37.41-1.47-.52-3.57-2.86-3.33-1.68.17-2.71,1.34-2.95,2.82-.36,2.15.95,4.96,4.35,6.24,7.95,3.02,13.13-5.1,17.26-9.67h-6.79s-.04.05-.06.08Z"/>
        <path class="cls-1" d="M40.89,59.11c-1.46,2.66-3.57,5.08-5.92,7.25-4.52,4.18-12.89,9.42-9.8,17.47,1.3,3.39,4.11,4.69,6.26,4.32,1.48-.24,2.65-1.28,2.81-2.96.23-2.35-1.88-3.27-3.34-2.85-.76.21-1.35.78-1.36,1.7-2.11-2.84-.45-5.46,2.57-5.87.2-.02.4-.04.61-.05.23,0,.45,0,.66.01l1.39.23c2.69.78,3.81,3.29,3.62,5.79-.23,3.01-1.66,5.28-3.62,6.54-.4.26-.83.48-1.27.65-.01,0-.03,0-.04.02-.26.1-.53.19-.8.25-.03,0-.06.02-.09.02-.1.03-.21.04-.31.06-.09.02-.18.03-.27.05-.1.01-.2.03-.3.04-.1,0-.19.01-.29.02-.08,0-.16.01-.23.02,0,0-.02,0-.02,0,2.1.73,4.26,1.33,6.48,1.76,1.12-.83,2.03-1.82,2.64-2.97,1.74-3.29,1.63-8.13-.52-11.24-1.12-1.63-2.8-2.83-4.97-3.84-.59-.27-1.2-.54-1.87-.79.66-.48,1.24-.93,1.84-1.38.2-.15.4-.31.61-.46.75-.58,1.5-1.17,2.22-1.79.66-.55,1.3-1.12,1.92-1.71.57-.54,1.12-1.11,1.64-1.7.49-.56.96-1.14,1.4-1.74.43-.59.82-1.21,1.18-1.84.37-.65.7-1.32.99-2,.15-.36.3-.71.44-1.08.15-.4.27-.81.43-1.21.03-.07.06-.16.08-.25.05-.17.1-.34.15-.5h-4.89Z"/>
        <path class="cls-1" d="M47.69,59.7c.03.09.06.17.09.24.16.4.28.81.44,1.21.14.36.29.72.44,1.08.3.68.63,1.35,1,1.99.36.63.76,1.24,1.19,1.83.44.6.91,1.18,1.4,1.73.53.59,1.08,1.15,1.65,1.69.62.59,1.27,1.16,1.92,1.7.73.61,1.48,1.2,2.23,1.78.2.16.41.31.61.46.6.45,1.19.89,1.84,1.37-.66.25-1.27.52-1.86.79-2.16,1.02-3.83,2.23-4.95,3.87-2.14,3.11-2.23,7.95-.47,11.24.62,1.15,1.53,2.13,2.66,2.95,2.22-.44,4.38-1.05,6.49-1.79h-.03c-.08,0-.15-.01-.24-.02-.1,0-.2,0-.29-.02-.1,0-.2-.02-.29-.03-.09-.02-.18-.03-.28-.05-.1-.02-.21-.04-.31-.06-.03,0-.06-.01-.09-.02-.27-.07-.54-.15-.81-.25-.01,0-.03,0-.04-.01-.44-.17-.87-.39-1.28-.65-1.96-1.25-3.41-3.51-3.65-6.52-.2-2.5.9-5.02,3.59-5.81l1.39-.23c.21-.01.43-.02.66-.02.21,0,.41.02.61.04,3.02.39,4.69,3.01,2.59,5.85-.01-.92-.61-1.49-1.37-1.7-1.47-.41-3.56.53-3.33,2.87.17,1.68,1.34,2.71,2.82,2.95,2.15.36,4.95-.96,6.24-4.35,3.05-8.07-5.34-13.27-9.88-17.42-2.37-2.17-4.51-4.61-5.99-7.29h-4.88c.05.19.11.39.18.59Z"/>
        <path class="cls-1" d="M75.01,59.12c-.27.59-.54,1.2-.78,1.87-.48-.66-.93-1.24-1.38-1.84-.01-.02-.02-.03-.04-.05h-6.81c4.15,4.56,9.37,12.65,17.31,9.6,3.39-1.31,4.69-4.12,4.32-6.27-.25-1.48-1.28-2.65-2.96-2.81-2.35-.22-3.27,1.88-2.85,3.35.21.76.78,1.35,1.7,1.36-2.83,2.11-5.46.46-5.87-2.56-.02-.2-.04-.4-.05-.61,0-.23,0-.45.01-.66l.23-1.39s0,0,0,0h-2.82s0,0,0,.01Z"/>
        <path class="cls-1" d="M90.17,59.11c.26.4.48.83.65,1.27,0,.01.01.03.02.04.1.26.19.53.26.81,0,.03.02.06.02.09.02.1.04.21.06.31.02.09.03.18.05.27.01.1.03.2.04.29.01.1.01.2.02.29,0,.08.01.16.02.23,0,0,0,.02,0,.03.41-1.19.78-2.41,1.1-3.64h-2.23Z"/>
        <path class="cls-1" d="M2.6,34.2s0-.03-.02-.04c-.1-.26-.19-.53-.26-.8,0-.03-.02-.06-.02-.09-.03-.1-.05-.21-.07-.31-.02-.09-.03-.18-.05-.27-.01-.1-.03-.2-.04-.3,0-.1-.02-.2-.02-.29,0-.08-.01-.16-.02-.23,0,0,0-.02,0-.03-.39,1.16-.75,2.33-1.06,3.52h2.13c-.23-.37-.43-.75-.58-1.15Z"/>
        <path class="cls-1" d="M10.09,25.85c-3.38,1.32-4.67,4.13-4.29,6.28.25,1.48,1.29,2.64,2.97,2.79,2.35.21,3.26-1.89,2.84-3.36-.21-.76-.79-1.34-1.71-1.35,2.83-2.12,5.46-.48,5.88,2.54.03.19.04.4.05.61,0,.23,0,.45,0,.66l-.21,1.33h2.84c.26-.58.52-1.18.76-1.83.48.65.93,1.24,1.38,1.83h6.83c-4.17-4.55-9.41-12.58-17.32-9.51Z"/>
        <path class="cls-1" d="M45.73,34.72c-.03-.09-.06-.17-.09-.24-.16-.4-.29-.81-.44-1.21-.14-.36-.29-.72-.44-1.07-.3-.68-.64-1.35-1.01-1.99-.36-.63-.76-1.24-1.19-1.83-.44-.6-.91-1.18-1.41-1.73-.53-.59-1.08-1.14-1.66-1.68-.62-.59-1.27-1.15-1.93-1.7-.73-.61-1.48-1.19-2.24-1.77-.2-.15-.41-.31-.61-.46-.6-.45-1.19-.89-1.85-1.36.67-.25,1.27-.52,1.86-.8,2.16-1.03,3.83-2.24,4.93-3.88,2.12-3.12,2.2-7.96.43-11.24-.62-1.15-1.54-2.13-2.67-2.95-2.22.45-4.38,1.07-6.48,1.81,0,0,.02,0,.03,0,.07,0,.15,0,.23.01.1,0,.2,0,.29.02.1,0,.2.02.3.04.09.01.18.03.27.04.11.02.21.04.32.06.03,0,.06.02.09.02.27.07.54.15.81.25.01,0,.03,0,.04.01.44.17.87.38,1.28.64,1.96,1.24,3.42,3.5,3.67,6.51.21,2.5-.89,5.02-3.57,5.82l-1.38.24c-.22.02-.43.02-.66.02-.21,0-.41-.02-.61-.04-3.02-.38-4.7-2.99-2.62-5.84.02.92.61,1.49,1.37,1.69,1.47.41,3.56-.54,3.32-2.88-.18-1.68-1.35-2.7-2.83-2.93-2.15-.35-4.95.97-6.22,4.38-3.02,8.08,5.39,13.25,9.95,17.39,2.39,2.17,4.54,4.6,6.03,7.28,0,0,0,0,0,0h4.88c-.06-.21-.12-.42-.19-.64Z"/>
        <path class="cls-1" d="M58.46,28.11c4.49-4.22,12.81-9.53,9.66-17.55-1.33-3.38-4.15-4.66-6.3-4.27-1.47.26-2.64,1.3-2.78,2.98-.21,2.35,1.91,3.26,3.37,2.83.76-.22,1.34-.79,1.34-1.71,2.13,2.82.5,5.46-2.52,5.89-.2.03-.4.05-.61.05-.23,0-.45,0-.67,0l-1.39-.22c-2.7-.75-3.83-3.26-3.67-5.76.2-3.01,1.62-5.29,3.57-6.57.4-.26.83-.48,1.27-.66.01,0,.03-.01.04-.02.26-.1.53-.19.8-.26.03,0,.06-.02.08-.03.11-.02.21-.04.32-.07.09-.02.18-.03.27-.05.1-.02.2-.03.3-.04.1-.01.19-.02.29-.02.08,0,.16-.01.24-.02h.02c-2.11-.71-4.28-1.29-6.51-1.7-1.11.84-2.01,1.83-2.62,2.99-1.71,3.31-1.56,8.15.62,11.23,1.14,1.62,2.82,2.81,5,3.8.6.27,1.21.53,1.88.77-.65.49-1.24.94-1.83,1.4-.2.16-.4.31-.6.47-.75.59-1.49,1.19-2.21,1.81-.65.56-1.29,1.13-1.9,1.73-.56.55-1.11,1.12-1.63,1.71-.49.56-.95,1.14-1.38,1.75-.42.59-.81,1.21-1.16,1.85-.36.65-.69,1.32-.98,2.01-.15.36-.29.72-.43,1.08-.15.4-.27.81-.42,1.21-.03.07-.06.15-.08.25-.04.14-.08.27-.12.4h4.9c1.44-2.65,3.52-5.07,5.83-7.24Z"/>
        <path class="cls-1" d="M77.99,35.13l-.24-1.38c-.02-.21-.02-.43-.02-.66,0-.21.02-.41.04-.61.37-3.02,2.97-4.71,5.83-2.64-.92.02-1.49.62-1.69,1.38-.4,1.47.55,3.56,2.9,3.31,1.68-.18,2.7-1.36,2.92-2.85.34-2.15-.99-4.95-4.4-6.21-8.01-2.96-13.12,5.27-17.23,9.87h6.76c.05-.06.09-.12.14-.19.44-.6.88-1.19,1.36-1.85.26.66.53,1.27.81,1.86.03.06.06.12.09.18h2.81c-.02-.07-.05-.14-.07-.22Z"/>
        <path class="cls-1" d="M91.41,31.34s0,0,0,.02c0,.07-.01.15-.01.23,0,.1,0,.2-.02.29,0,.1-.02.2-.04.3-.01.09-.02.18-.04.27-.02.11-.04.21-.06.32,0,.03-.02.06-.02.09-.07.27-.15.54-.24.81,0,.01-.01.03-.02.04-.17.45-.38.87-.63,1.28-.08.12-.16.25-.25.36h2.59c-.36-1.36-.78-2.7-1.26-4.01Z"/>
      </g>
    </g>
  </g>
</svg>