<?xml version="1.0" encoding="UTF-8"?>
<svg id="Layer_2" data-name="Layer 2" xmlns="http://www.w3.org/2000/svg" viewBox="0 0 119.8 26.68">
  <defs>
    <style>
      .cls-1 {
        fill: #fff;
        stroke-width: 0px;
      }
    </style>
  </defs>
  <g id="Layer_1-2" data-name="Layer 1">
    <g>
      <g>
        <path class="cls-1" d="M11.9,0v8.74h8.52s.41-2.78.41-8.74h-8.93Z"/>
        <path class="cls-1" d="M11.9,12.29v14.39s6.51-3.19,7.92-14.39h-7.92Z"/>
        <path class="cls-1" d="M10.3.5v.55s-.98.13-.98-.27c0-.36.98-.27.98-.27Z"/>
        <path class="cls-1" d="M1.51,4.34s-.51-.51,1.12-2.14c1.21-1.17,2.93-.79,2.93-.61,0,.27-2.8,1.75-3.49,2.75,0,0-.29.28-.56,0Z"/>
        <path class="cls-1" d="M1.04,5.29s-.45-.04-.87.76.04,1.15.23,1.02l.04-.03c.1-.07.18-.16.22-.27.15-.34.45-1.1.37-1.49Z"/>
        <path class="cls-1" d="M1.84,8.74s-.8-.45-1.31.99-.44,2.6-.13,2.43,2.38-2.84,1.44-3.42Z"/>
        <path class="cls-1" d="M.69,14.74c-.14.1-.21.28-.16.44.11.39.09.57.4,1.05.07.1,3.03-1.53,3.79-3.74s1.76-3.2,2.16-3.6.45-.76.23-1.04-.63-.8-1.24-.29-1.92,2.68-2.49,3.99c-.54,1.23-1.55,2.39-2.7,3.2Z"/>
        <path class="cls-1" d="M10.3,5.74v1.88s-1.57.21-1.57-.94,1.57-.94,1.57-.94Z"/>
        <path class="cls-1" d="M10.3,9.79v2s-.71.18-1.16,1.62-2.01,3.33-2.33,3.43-.89.21-1.24-.11-.35-.62.22-1.23,1.72-2.63,1.93-3.72.82-1.92,2.58-2Z"/>
        <path class="cls-1" d="M3.88,21.3s2.12-1.37,3.36-2.25,1.95-2.17,2.72-1.42.27,1.13-1.23,2.25-3,2.33-3.54,2.41-1.31-.99-1.31-.99Z"/>
        <path class="cls-1" d="M6.56,23.63s.8.89,1.48.72,1.26-.8,1.07-1.29-.63-.64-1.3-.2-1.25.76-1.25.76Z"/>
        <path class="cls-1" d="M1.85,18.32c-.1.04-.15.16-.11.26.15.39.54,1.28.9,1.26.46-.02,1.45-.8,1.56-1.04s.3-.48,0-.97-.8-.27-1.31,0c-.35.18-.79.38-1.03.49Z"/>
        <path class="cls-1" d="M10.32,24.81v1.15s-.98-.35-1-.58,1-.58,1-.58Z"/>
        <path class="cls-1" d="M2.83,7.1s-.51-.39-.09-.9,2.4-3.81,7.55-3.81v1.4s-2.41-.29-4,.96-2.59,2.45-2.59,2.45c0,0-.19.43-.87-.1Z"/>
      </g>
      <g>
        <g>
          <path class="cls-1" d="M34.6,4.28h2.54l-4.39,9.95h-2.36l-4.39-9.95h2.67l2.97,7.25,2.96-7.25Z"/>
          <path class="cls-1" d="M38.78,4.28h2.47v9.95h-2.47V4.28Z"/>
          <path class="cls-1" d="M43.63,14.24V4.28h6.91c1.75,0,2.47.71,2.47,2.47v1.88c0,1.76-.73,2.47-2.47,2.47h-4.46v3.13h-2.45ZM46.08,9.29h3.51c.75,0,.98-.24.98-1v-1.11c0-.75-.23-1-.98-1h-3.51v3.1Z"/>
          <path class="cls-1" d="M64.73,14.24h-2.67l-2.3-3.47h-2.39v3.47h-2.45V4.28h6.91c1.75,0,2.47.71,2.47,2.47v1.36c0,1.61-.63,2.35-2.06,2.46l2.49,3.65ZM57.36,6.1v2.9h3.51c.75,0,.98-.24.98-1v-.91c0-.75-.23-1-.98-1h-3.51Z"/>
          <path class="cls-1" d="M69.18,14.24c-1.88,0-2.76-.87-2.76-2.76v-4.44c0-1.89.88-2.76,2.76-2.76h4.58c1.88,0,2.76.87,2.76,2.76v4.44c0,1.89-.88,2.76-2.76,2.76h-4.58ZM72.9,12.16c.87,0,1.17-.31,1.17-1.17v-3.47c0-.85-.3-1.17-1.17-1.17h-2.87c-.85,0-1.17.31-1.17,1.17v3.47c0,.85.31,1.17,1.17,1.17h2.87Z"/>
          <path class="cls-1" d="M87.3,4.28v2.16h-3.44v7.79h-2.45v-7.79h-3.44v-2.16h9.33Z"/>
          <path class="cls-1" d="M91.45,12.22h6.06v2.02h-8.5V4.28h8.36v2.02h-5.91v1.89h5.35v1.85h-5.35v2.18Z"/>
          <path class="cls-1" d="M102.05,14.24c-1.88,0-2.76-.87-2.76-2.76v-4.44c0-1.89.88-2.76,2.76-2.76h4.21c1.88,0,2.76.87,2.76,2.76v1.17h-2.36v-.71c0-.87-.3-1.17-1.17-1.17h-2.59c-.85,0-1.17.3-1.17,1.17v3.53c0,.87.31,1.17,1.17,1.17h2.59c.87,0,1.17-.3,1.17-1.17v-.81h2.36v1.27c0,1.89-.88,2.76-2.76,2.76h-4.21Z"/>
          <path class="cls-1" d="M119.8,4.28v2.16h-3.44v7.79h-2.45v-7.79h-3.44v-2.16h9.33Z"/>
        </g>
        <g>
          <path class="cls-1" d="M39.34,21.42h.6v.17c0,.23.09.32.32.32h1.91c.23,0,.32-.09.32-.32v-.27c0-.23-.08-.3-.32-.32l-2.11-.15c-.48-.04-.68-.22-.68-.68v-.43c0-.46.21-.68.68-.68h2.31c.46,0,.68.21.68.68v.23h-.6v-.11c0-.23-.09-.32-.32-.32h-1.79c-.23,0-.32.09-.32.32v.16c0,.23.08.3.32.32l2.11.14c.48.04.68.22.68.68v.55c0,.46-.21.68-.68.68h-2.42c-.46,0-.68-.21-.68-.68v-.3Z"/>
          <path class="cls-1" d="M44.67,21.89h2.74v.51h-3.36v-3.34h3.32v.51h-2.69v.86h2.5v.47h-2.5v.99Z"/>
          <path class="cls-1" d="M49.07,22.4c-.61,0-.89-.28-.89-.89v-1.57c0-.61.28-.89.89-.89h2c.61,0,.89.28.89.89v.35h-.61v-.25c0-.35-.13-.48-.48-.48h-1.58c-.35,0-.48.13-.48.48v1.36c0,.35.13.48.48.48h1.58c.35,0,.48-.13.48-.48v-.29h.61v.4c0,.61-.28.89-.89.89h-2Z"/>
          <path class="cls-1" d="M53.71,22.4c-.61,0-.89-.28-.89-.89v-2.45h.63v2.33c0,.35.13.48.48.48h1.53c.36,0,.48-.12.48-.48v-2.33h.63v2.45c0,.61-.28.89-.89.89h-1.97Z"/>
          <path class="cls-1" d="M61.29,22.4h-.74l-.98-1.25h-1.44v1.25h-.63v-3.34h2.85c.56,0,.79.22.79.79v.47c0,.57-.23.79-.79.79h-.09s1.02,1.29,1.02,1.29ZM58.13,19.53v1.16h1.98c.31,0,.41-.09.41-.4v-.36c0-.31-.1-.4-.41-.4h-1.98Z"/>
          <path class="cls-1" d="M62.1,19.06h.64v3.34h-.64v-3.34Z"/>
          <path class="cls-1" d="M67.17,19.06v.54h-1.52v2.8h-.63v-2.8h-1.52v-.54h3.67Z"/>
          <path class="cls-1" d="M71.71,19.06l-1.75,2.11v1.23h-.63v-1.23l-1.75-2.11h.78l1.3,1.62,1.3-1.62h.74Z"/>
          <path class="cls-1" d="M74.1,21.42h.6v.17c0,.23.09.32.32.32h1.91c.23,0,.32-.09.32-.32v-.27c0-.23-.08-.3-.32-.32l-2.11-.15c-.48-.04-.68-.22-.68-.68v-.43c0-.46.21-.68.68-.68h2.31c.46,0,.68.21.68.68v.23h-.6v-.11c0-.23-.09-.32-.32-.32h-1.79c-.23,0-.32.09-.32.32v.16c0,.23.08.3.32.32l2.11.14c.48.04.68.22.68.68v.55c0,.46-.21.68-.68.68h-2.42c-.46,0-.68-.21-.68-.68v-.3Z"/>
          <path class="cls-1" d="M79.65,22.4c-.61,0-.89-.28-.89-.89v-1.57c0-.61.28-.89.89-.89h2.11c.61,0,.89.28.89.89v1.57c0,.61-.28.89-.89.89h-2.11ZM81.54,21.87c.35,0,.48-.13.48-.48v-1.34c0-.35-.13-.48-.48-.48h-1.67c-.35,0-.48.12-.48.48v1.34c0,.36.13.48.48.48h1.67Z"/>
          <path class="cls-1" d="M84.21,21.86h2.5v.54h-3.13v-3.34h.63v2.8Z"/>
          <path class="cls-1" d="M88.24,22.4c-.61,0-.89-.28-.89-.89v-2.45h.63v2.33c0,.35.13.48.48.48h1.53c.36,0,.48-.12.48-.48v-2.33h.63v2.45c0,.61-.28.89-.89.89h-1.97Z"/>
          <path class="cls-1" d="M95.47,19.06v.54h-1.52v2.8h-.63v-2.8h-1.52v-.54h3.67Z"/>
          <path class="cls-1" d="M96.23,19.06h.64v3.34h-.64v-3.34Z"/>
          <path class="cls-1" d="M98.71,22.4c-.61,0-.89-.28-.89-.89v-1.57c0-.61.28-.89.89-.89h2.11c.61,0,.89.28.89.89v1.57c0,.61-.28.89-.89.89h-2.11ZM100.6,21.87c.35,0,.48-.13.48-.48v-1.34c0-.35-.13-.48-.48-.48h-1.67c-.35,0-.48.12-.48.48v1.34c0,.36.13.48.48.48h1.67Z"/>
          <path class="cls-1" d="M105.86,19.06h.61v3.34h-.51l-2.72-2.54v2.54h-.61v-3.34h.53l2.69,2.51v-2.51Z"/>
        </g>
      </g>
    </g>
  </g>
</svg>