<?xml version="1.0" encoding="UTF-8"?>
<svg id="Layer_2" data-name="Layer 2" xmlns="http://www.w3.org/2000/svg" viewBox="0 0 78.85 76.37">
  <defs>
    <style>
      .cls-1 {
        fill: #fff;
        stroke-width: 0px;
      }
    </style>
  </defs>
  <g id="Layer_1-2" data-name="Layer 1">
    <g>
      <g>
        <path class="cls-1" d="M41.16,35.21c1.18-.14,2.32-.45,3.38-.93-.99-.95-1.74-2.07-1.78-2.12-1.28-1.93-1.08-3.74-.68-4.92.43-1.27,1.15-2.08,1.18-2.11l3.31-3.78c.19-.22.37-.43.58-.63,1.59-1.55,1.65-3.28,1.6-3.95-.01-.19-.03-.31-.03-.31-.19-1.16-.71-1.9-1.53-2.2h0s-.02,0-.02,0h-.01s-.04-.02-.06-.03c-.04-.01-.07-.02-.11-.03h0s0,0,0,0c-.06-.02-.11-.03-.18-.04h0s-.03,0-.05-.01c-.02,0-.04,0-.06,0-.02,0-.05,0-.07-.01-.07,0-.15-.02-.23-.02,0,0-.01,0-.01,0h-.04s-.03,0-.03,0c0,0-.02,0-.03,0-.79,0-1.43.64-1.43,1.43s.64,1.43,1.43,1.43c.3,0,.58-.09.81-.26l.49-.35-.17.58c-.24.81-.86,1.28-1.68,1.28-.07,0-.15,0-.22-.01-.15-.01-.35-.06-.5-.13-1.03-.54-1.67-1.6-1.67-2.77s.64-2.23,1.68-2.77c.01,0,.02-.01.03-.01.37-.16.77-.27,1.22-.33h.01s.01,0,.01,0c.24-.03.39-.03.4-.03.04,0,.08,0,.12,0,.12,0,.25,0,.37.01-.3-.45-.62-.93-.99-1.48-1.64.1-2.84.85-3.57,2.23-.54,1.03-.61,2.06-.61,2.12,0,1.35.66,2.53,1.98,3.51,1,.75,2.03,1.1,2.04,1.1l.3.1-5.15,5.52v9.95Z"/>
        <path class="cls-1" d="M47.21,23.76c-.1,0-.21.02-.31.07h-.01s-.01,0-.01,0c-.05.02-.09.04-.13.07-.76.57-1.29,1.22-1.54,1.57h0c-.15.2-.3.42-.47.67-.62.97-.9,2.05-.82,3.13.16,2.03,1.46,2.61,1.47,2.62h.01s.01.01.01.01c.55.33,1.11.5,1.67.5.12,0,.25,0,.37-.03.51-.45.97-.94,1.38-1.46.45-.57.86-1.2,1.21-1.87,0-.04-.02-.07-.03-.1-.2-.56-.7-1-1.34-1.17-.21-.06-.41-.09-.59-.09-.34,0-.64.1-.91.29h0s-.02.02-.02.02h0s0,.01,0,.01c-.32.22-.52.58-.52.97,0,.64.52,1.16,1.16,1.16.4,0,.76-.2.98-.54l.35-.55.02.66c.03.79-.46,1.48-1.22,1.72-.22.07-.45.11-.69.11-.29,0-.5-.05-.53-.06-.91-.23-1.49-.83-1.69-1.74-.33-1.56.65-3.11,2.23-3.53.61-.16,1.21-.19,1.6-.19.11,0,.2,0,.28,0-.13-.53-.18-1.01-.14-1.45-.15.62-.64.98-1.34.98-.07,0-.13,0-.16,0l-.05-.4c.29-.1.49-.37.49-.67,0-.39-.32-.72-.72-.72Z"/>
        <path class="cls-1" d="M29.39,24.73c-.01.46-.38.81-.38.81-.19.24-.35.47-.5.7-.19-.85-.3-1.73-.33-2.61.06-.01.13-.02.2-.02.56,0,1.01.45,1.01,1.01,0,.04,0,.07-.01.11Z"/>
        <path class="cls-1" d="M32.14,32.57c-.57-.52-1.1-1.11-1.57-1.76-.39-.54-.73-1.11-1.03-1.71.01-.07.03-.15.05-.21.23-.65.8-1.12,1.48-1.3.79-.22,1.33-.02,1.67.23.01,0,.02.02.03.03.37.24.61.66.61,1.14,0,.75-.61,1.36-1.36,1.36-.48,0-.91-.25-1.15-.63-.02.67.38,1.3,1.07,1.52.59.19,1.1.04,1.1.04.99-.25,1.4-.91,1.54-1.58.31-1.45-.63-2.9-2.08-3.29-1.07-.28-2.11-.16-2.11-.16,1-3.42-1.76-3.95-1.76-3.95-.15-.03-.28-.05-.41-.06.08-1.05.29-2.09.62-3.12,0-.03.02-.05.03-.08,1.39,2.09,3.2,3.6,3.2,3.6-.32.03-.57.23-.74.44-.27.35-.39.8-.35,1.23.11,1.12,1.15,1.05,1.32,1.04-.36-.12-.63-.46-.63-.87,0-.51.41-.92.92-.92.14,0,.28.04.4.09.06.02.12.05.19.1.78.58,1.32,1.26,1.58,1.61.18.22.34.46.48.68.62.98.93,2.11.85,3.26-.17,2.18-1.6,2.79-1.6,2.79-.89.54-1.7.61-2.35.48Z"/>
        <path class="cls-1" d="M38.85,35.45c-1.43-.12-2.78-.48-4-1.06,1.12-.98,2.02-2.34,2.02-2.34,2.4-3.6-.48-6.78-.48-6.78l-3.3-3.77c-.19-.22-.38-.43-.59-.63-1.64-1.6-1.71-3.39-1.66-4.11.01-.21.04-.33.04-.33.24-1.47.96-2.1,1.66-2.36,0,0,0,0,.02,0,.02-.01.04-.01.06-.02,0,0,0,0,0,0,.05-.02.1-.03.16-.04.07-.02.14-.03.2-.04.02,0,.04,0,.06-.01.04,0,.09-.01.13-.02.08-.01.17-.02.26-.02.02,0,.04,0,.06,0,.02,0,.04,0,.07,0,.9,0,1.63.73,1.63,1.63s-.73,1.63-1.63,1.63c-.35,0-.67-.11-.93-.3.2.68.74,1.21,1.68,1.12.15-.01.32-.05.43-.11.93-.49,1.56-1.46,1.56-2.58s-.63-2.1-1.57-2.59c0,0-.02,0-.03-.01-.43-.19-.86-.27-1.16-.32h-.01c-.23-.03-.38-.03-.38-.03-.41-.01-.77.03-1.1.11.41-.68.84-1.34,1.28-2,4.51.04,4.7,4.57,4.7,4.57.02,3.42-4.16,4.81-4.16,4.81l4.99,5.34v10.27Z"/>
        <path class="cls-1" d="M39.91,24.19l-3.46-3.81c6.16-5.19,1.35-9.93,1.35-9.93-1.04-1.06-2.23-1.51-3.39-1.61.16-.23.31-.46.47-.69,1.76-2.59,3.58-5.25,4.95-8.15,1.35,3.17,3.34,6.01,5.26,8.76.03.04.05.08.08.11-1.08.14-2.18.6-3.15,1.58,0,0-4.81,4.73,1.35,9.93l-3.46,3.81Z"/>
        <path class="cls-1" d="M40.96,35.44v-10.26l4.99-5.34s-4.18-1.39-4.16-4.81c0,0,.19-4.37,4.48-4.56.45.65.88,1.3,1.3,1.95-.28-.05-.58-.08-.91-.07,0,0-.15,0-.38.03h-.01c-.3.04-.73.13-1.16.32,0,0-.02,0-.03.01-.93.49-1.57,1.47-1.57,2.59s.63,2.09,1.56,2.58c.11.06.28.1.43.11.94.09,1.48-.44,1.68-1.12-.26.19-.59.3-.93.3-.9,0-1.63-.73-1.63-1.63s.73-1.63,1.63-1.63c.02,0,.04,0,.07,0,.02,0,.04,0,.06,0,.09,0,.17.01.26.02.04,0,.09.01.13.02.02,0,.04,0,.06.01.07.01.13.02.2.04.05.01.1.03.16.04,0,0,0,0,0,0,.02,0,.04.01.06.02.01,0,.02,0,.02,0,.7.26,1.42.89,1.66,2.36,0,0,.02.12.04.33.05.72-.02,2.51-1.66,4.11-.21.2-.39.41-.59.63l-3.3,3.77s-2.87,3.18-.48,6.78c0,0,.87,1.32,1.97,2.29-1.23.59-2.56.96-3.95,1.1Z"/>
        <path class="cls-1" d="M49,31.06c-.44.56-.93,1.07-1.45,1.53-.63.1-1.39.01-2.23-.5,0,0-1.43-.61-1.6-2.79-.09-1.15.23-2.28.85-3.26.14-.22.3-.46.48-.68.26-.35.8-1.03,1.58-1.61.06-.05.13-.08.19-.1.12-.06.26-.09.4-.09.51,0,.92.41.92.92,0,.4-.26.74-.63.87.17.02,1.22.08,1.32-1.04.04-.44-.07-.89-.35-1.23-.17-.22-.42-.41-.74-.44,0,0,1.77-1.47,3.15-3.51.15.48.29.98.41,1.48.13.54.21,1.09.26,1.64-.13.01-.25.03-.39.06,0,0-2.77.53-1.76,3.95,0,0-1.04-.12-2.11.16-1.45.39-2.39,1.84-2.08,3.29.14.67.55,1.33,1.54,1.58,0,0,.52.15,1.1-.04.69-.22,1.1-.85,1.07-1.52-.24.38-.66.63-1.15.63-.75,0-1.36-.61-1.36-1.36,0-.47.24-.89.61-1.14.01,0,.02-.02.03-.03.34-.25.88-.45,1.67-.23.67.19,1.24.65,1.48,1.3.02.06.03.13.05.2-.36.69-.77,1.35-1.26,1.97Z"/>
        <path class="cls-1" d="M51.31,26.26c-.15-.24-.31-.48-.51-.72,0,0-.36-.35-.38-.81,0-.04-.01-.07-.01-.11,0-.56.45-1.01,1.01-1.01.07,0,.14,0,.2.02-.01.89-.12,1.77-.31,2.63Z"/>
      </g>
      <g>
        <g>
          <path class="cls-1" d="M34.82,4.63c-.33.5-.67.99-1,1.48-2.83,4.15-5.75,8.43-7.3,13.27-.51,1.58-.77,3.19-.79,4.8-1.03.7-1.99,1.48-2.9,2.34-2.22,2.11-3.98,4.58-5.28,7.41-1.3,2.84-2,5.9-2.08,9.17-.08,3.28.45,6.4,1.61,9.35,1.15,2.96,2.78,5.55,4.89,7.77,1.22,1.29,2.58,2.43,4.07,3.41-.39.36-.91.66-1.44.95-.64.36-1.28.77-1.93,1.21l-.22-.18c-.39-.3-.84-.63-1.37-.87-.26-.13-.56-.19-.85-.2-.51-.01-.96.16-1.29.49-.29.31-.79.61-1.25.91-.32.19-.64.4-.95.62-.69.51-1.43,1.08-2.32,1.81l-.68.58c-.15.13-.31.26-.46.4l-.06.06-.06.06c-.45.54-1.02.98-1.62,1.43l-.42.32c-.1-.1-.2-.21-.3-.31-3.48-3.72-6.18-8.01-8.1-12.86C.77,53.21-.12,48.1.01,42.71c.14-5.5,1.29-10.6,3.47-15.28,2.16-4.69,5.08-8.77,8.74-12.25,3.66-3.48,7.91-6.18,12.76-8.11,3.16-1.25,6.44-2.06,9.83-2.44Z"/>
          <path class="cls-1" d="M78.84,44.73c-.14,5.38-1.29,10.45-3.46,15.2-2.17,4.74-5.12,8.89-8.84,12.42-.54.51-1.1,1.01-1.66,1.49l-.02-.02c-.32-.36-.64-.73-.96-1.09-.71-.79-1.42-1.73-1.99-2.49-.29-.38-.53-.71-.73-.96l-.42-.51-.66.07c-.09,0-.24.01-.48,0-.71-.02-1.38-.14-1.52-.2-.14-.07-.29-.18-.5-.35-1.58-1.49-3.28-3.07-5.04-4.59,1.17-.77,2.27-1.64,3.28-2.61,2.22-2.1,3.98-4.61,5.29-7.51,1.3-2.89,1.99-5.98,2.08-9.25.09-3.27-.45-6.36-1.61-9.26-1.16-2.9-2.79-5.46-4.9-7.68-.82-.86-1.69-1.65-2.62-2.37.03-1.27-.1-2.56-.39-3.84-1.24-5.37-4.29-9.72-7.52-14.33-.48-.7-.97-1.39-1.46-2.1,3.85.5,7.49,1.54,10.91,3.12,4.69,2.17,8.8,5.09,12.34,8.75,3.54,3.66,6.27,7.89,8.2,12.68,1.93,4.79,2.82,9.94,2.68,15.44Z"/>
        </g>
        <path class="cls-1" d="M62.99,73.54c-1.11-1.22-2.17-2.76-2.76-3.5-.81.08-2.25-.1-2.67-.31-.29-.14-.54-.33-.77-.54-1.66-1.57-3.34-3.13-5.08-4.64-.1-.07-.19-.13-.29-.16-.07-.02-.15-.03-.23-.03-.18,0-.36.05-.51.14-.4.31-.9.41-1.04.81,0,0,0,.02-.01.03,0,0,0,0-.02-.01-.13-.09-.36-.1-.44-.24-.13-.1-.25-.23-.39-.38-.48-.52-.95-1.03-1.42-1.55-.15-.17-.31-.34-.46-.5-.15-.17-.31-.34-.45-.51-.26-.35-.55-.69-.85-1.03-.16-.17-.31-.35-.46-.52-.94-.7-1.3-1.67-1.89-2.62-.1-.14-.19-.28-.29-.42-.1-.14-.19-.28-.29-.42-.1-.14-.2-.28-.3-.41-.97-.83-1.83-1.69-2.23-2.73-.12-.15-.25-.29-.36-.44-.12-.14-.23-.28-.35-.42-.2-.26-.84.22-.91.53-.24,1.06-.3,1.79-.92,2.7-.57.83-1.04,1.68-1.44,2.59-.45,1.02-1.09,1.9-1.74,2.82-.22.31-.55.71-.76,1.12-.61-.66-1.2-1.33-1.76-2.01-.23-.28-.66-.42-1-.26-1.24.58-1.93,1.41-2.69,2.38-.36.44-.7.9-1.1,1.32-.08.07-.15.15-.23.22-.48.45-1.07.78-1.67,1.12-.9.51-1.76,1.08-2.58,1.67-.02-.02-.05-.04-.07-.07-.06-.05-.13-.1-.19-.15-.2-.15-.39-.3-.59-.45-.38-.29-.77-.59-1.21-.79-.23-.11-.58-.13-.75.04-.63.64-1.61,1.12-2.36,1.67-.78.57-1.53,1.16-2.26,1.77-.19.15-.37.3-.55.46-.18.16-.37.31-.56.48-.62.75-1.39,1.3-2.12,1.85.35.34.71.68,1.06,1,.74-.5,1.45-.97,2.22-1.56.13-.09.26-.19.39-.28.39-.28.77-.57,1.15-.83,0,0,0-.01,0,0-.36.18-.75.32-1.15.46.07-.48-.18-.92.58-1.48.54-.39,3.12-1.57,3.63-1.99.3-.25.81.18,1.26.23.06,0,.13.02.19.03.03.02.07.03.11.05-.74.88-1.45,1.79-2.27,2.6l-1.25.77-2.06,4.32-.12.26.19-.2,2.81-3.17c.08-.05.14-.1.2-.15.24-.18.48-.36.73-.53.5-.35,1.02-.68,1.51-1.03,1.01-.72,2.07-1.41,3.1-2.11.01,0,0-.03-.02-.03-1.26.77-2.66,1.33-3.95,2.06-.07.04-.13.08-.19.12l.5-.69c.17-.13,1.59-1.2,2.66-2.42,1.92-1.28,4.49-2.35,4.58-2.41.03-.01.12-.12.25-.28.72-.88,2.67-3.49,2.67-3.49l1.15,3.67-1.73-.89-.76,1.21-.05.12-.87,2.25s1.3-.43,1.32-.44c.4.63-.16,1.7.27,2.31.1.14.07.16.19.04.81-.8,1.75-1.49,2.8-2.09.11-.06.39-.23.69-.39,1.19,1.28,3.16,3.37,3.41,3.52.27.16-1.28-2.22-2.07-3.43-.03-.06-.07-.11-.1-.16.07.05.14.12.23.18,1.68,1.35,6.02,5.14,6.49,5.59-.04-.05-.1-.12-.18-.22-.99-1.15-2.66-3.21-4.18-5.1-1.8-2.26-3.41-4.28-3.41-4.28,0,0,1.84-.82,2.96-2.49.23-.34-.06-1.24.13-1.6.57-1.04,1.43-1.99,1.97-2.54.27-.27.46-.44.49-.46.03-.03.13.09.29.31.08.1.17.24.27.39.51.77,1.31,2.07,2.12,3.34.09.14.18.29.28.43.2.18.45.51.55.84.09.14.18.27.26.4.52.78,1,1.42,1.32,1.76,1.31,1.34-5.11-3.53-5.11-3.53l2.31,6.56s-.05-.04-.06-.06c-.37-.31-.73-.63-1.12-.92-.77-.58-1.58-1.12-2.28-1.77,0,0-.02,0-.02.01.47.58,1,1.14,1.52,1.7.38.48.76.96,1.15,1.44.06.16.13.31.21.46.06.14.14.28.22.41.35.55.97.87,1.47,1.31.54.46,1,1,1.5,1.49.04.04.14-.02.1-.06-.44-.52-.89-1.07-1.19-1.66-.22-.41-.33-.85-.56-1.25,0-.01,0-.03.01-.05,3.57,3.47,7.77,7.27,7.94,7.43-.07-.11-1.23-1.91-3.5-4.64-.49-.65-1.84-2.18-2.9-3.4-.52-.6-.97-1.12-1.22-1.43l1.55,1.37,5.03,4.41-3.76-4.57s.06-.09.05-.18c-.03-.53-.86-1.9-.58-2.09.61.39,1.33.95,2.08,1.61,1.78,1.55,3.74,3.57,4.96,4.69.01.01.03,0,.02-.01-.13-.16-.26-.32-.39-.48.01,0,.02-.02,0-.03-.44-.6-.88-1.2-1.29-1.82-.08-.12-.16-.25-.24-.37-.3-.41-.54-.84-.78-1.27.25.22.49.55.88.71.17.15.37.33.58.52,3.04,2.79,9,8.03,9.21,8.19-.23-.22-.49-1.4-.49-1.4l-1.27-.2s-.74-1.01-.86-1.14c-.09-.1-2.21-2.76-3.2-4.01,1.02.71,1.88.96,2.89,1.69.32.23,1.41,0,2.27-.16,1.96,1.39,2.6,3.3,2.98,4.41.42-.31.84-.62,1.24-.96-.31-.35-.63-.71-.95-1.07ZM49.89,66.87s.06,0,.09.04l-.09-.04ZM49.98,66.92l.13.06c-.06,0-.1-.03-.13-.06Z"/>
      </g>
    </g>
  </g>
</svg>