<?xml version="1.0" encoding="UTF-8"?>
<svg xmlns="http://www.w3.org/2000/svg" viewBox="0 0 126.55 97.87">
  <defs>
    <style>
      .cls-1 {
        mix-blend-mode: screen;
      }

      .cls-2 {
        isolation: isolate;
      }

      .cls-3 {
        fill: #fff;
        stroke-width: 0px;
      }
    </style>
  </defs>
  <g class="cls-2">
    <g id="Layer_2" data-name="Layer 2">
      <g id="Layer_1-2" data-name="Layer 1">
        <g>
          <g class="cls-1">
            <path class="cls-3" d="M50.25,32.16s0,0,0,0c0,0,0,0,0,0Z"/>
            <path class="cls-3" d="M88.53,42.53c-.23-.59-.8-2.5-.72-3.33,0,0,.02-.12-.03-.16-.05-.04-.38-.53-.42-.86,0,0,.07-.1,0-.23-.08-.13-.34-.16-.48-.54-.14-.38-.19-.27-.22-.37-.03-.1-.19-1.73-1.61-4.42,0,0-.26-.63-.26-1.15,0,0,2.71.59,3.86-.75,1.15-1.35,1.17-6.15-1.46-10.05-2.34-3.48-6.07-4.8-8.64-3.93-.09.03-.18.06-.27.09-.48.15-.97.29-1.46.38-.85.17-2.11.71-2.84,2.41,0,0-1.01,1.14-.52,2.44,0,0-.12.22-.24.51-.15.37-.2.77-.15,1.16.05.39-.06,1.31-1.59,2.62-1.57,1.36-.69,1.55-.25,1.83.44.28.67.19.6.5-.07.32-.08.46-.17.64-.09.18.02.48.3.62,0,0-.18.08-.25.31-.06.19-.02.41.11.57.12.15.31.4.33.61.02.14-.02.23-.04.27-.02.03-.03.05-.04.08-.06.17-.19.65.34,1.11.48.42.94.36,1.32.5.19.07.51.16.82.25,0,.38,0,.89-.04,1.13,0,0,.08-.22.12-.55,0,0,.04.47-.07,1.11-.11.64-.15,1.18-.53,2.07.02-.04.22-.5.41-1.12,0,0,.08.41-.4,1.26,0,0,.11-.13.14-.2,0,.02-.03.28-.08.46,0,0,.22-.26.32-.42,0,0-.12.46-.33.67-.21.22-.37.22-.37.22,0,0,.45.12.87-.5,0,0-.06.14-.21.33,0,0,.87-.48,1.19-2.28,0,.04-.09,1.21-.78,2.01,0,0-.22.24-.3.32.02-.01.29-.21.45-.41,0,.01-.08.24-.23.45.02-.03.11-.14.26-.22,0,0,0,.4-.35.71,0,0,1.1,0,1.58-1.71,0,0,.06-.12.15-.24,0,0-.04.39-.18.69,0,0,.18-.1.26-.54,0,0-.05.71-.76,1.64l.17-.16s-.08.14-.14.2c.01,0,.2-.11.25-.19,0,0,.01.09-.04.15,0,0,.76-.51,1.02-1.1.06-.13.12-.33.18-.56-.13.69-.49,1.29-.51,1.29-.03,0-.16.46-.46.77-.3.3-.51.45-.6.72-.09.28-3.61,3.38-4.35,4.34-.74.96-3.2,3.38-4,4.89-.46.85-.47,2.31-.39,3.4.03.45.08.84.11,1.1.03.22.05.35.05.35,0,0-.07-.21-.3-.23-.07,0-.16-.02-.26-.03-.23-.03-.5-.07-.56-.09-.09-.04-.07-.24-.15-.26-.07-.02-.16-.02-.37,0-.21.01-.31,0-.65-.19-.34-.2-.31,0-.56-.14-.06-.03-.11-.06-.15-.09-.14-.08-.2-.13-.3-.16-.13-.05-.34-.26-.39-.3-.05-.04-.91-.09-1.55-.63,0,0,.1-.19-.29-.23-.39-.04-3.43-1.8-4.03-2.38,0,0-.12-.03-.19.06,0,0-.72-.53-.9-.75-.17-.22-.67-1.02-.78-1.27-.11-.25-.48-1.52-1.45-2.11,0,0,.34-.15.3-.54-.03-.39-.36-.31-.36-.31l1.31-1.37s.02-.02,0-.06c0,0,.06.02.16-.09.1-.11.21-.2.2-.24,0,0,.05,0,.13-.07.07-.06,1.33-1.36,1.78-1.83l.08-.04c.21-.08.43-.19.67-.31.26-.12.55-.27.88-.46.28-.14.58-.31.92-.5-.23.12-.44.23-.64.34.09-.05.18-.11.28-.17.11-.06.22-.12.33-.18-.08.04-.16.08-.23.12.12-.07.24-.15.37-.23-.18.11-.34.21-.5.3-.07.03-.13.07-.19.1.05-.03.1-.06.15-.09.16-.1.33-.2.51-.31-.08.05-.15.09-.22.13.1-.06.2-.13.3-.19-.22.14-.43.27-.63.38-.04.02-.08.04-.11.06.13-.08.26-.17.4-.26.1-.06.19-.12.3-.19-.05.03-.1.06-.16.09.05-.04.11-.07.16-.11-.1.07-.21.13-.31.2-.11.07-.23.13-.33.2.22-.14.46-.3.72-.47-.08.05-.16.1-.23.15.04-.02.07-.05.11-.07-.24.15-.46.29-.66.41.2-.13.41-.26.63-.42.04-.02.07-.05.11-.07-.01,0-.02.01-.04.02.02-.01.03-.02.05-.03-.04.03-.09.06-.13.09-.15.1-.3.19-.44.27.2-.13.41-.27.63-.43-.08.05-.16.1-.23.15.04-.03.08-.06.12-.08-.32.21-.61.39-.88.55.08-.05.16-.1.24-.15.23-.15.47-.31.73-.49-.04.03-.08.05-.11.07.03-.02.05-.04.08-.06-.34.23-.65.42-.94.6.28-.18.6-.39.95-.64-.02.01-.03.02-.05.03-.15.1-.29.19-.43.27.16-.11.34-.23.52-.36-.23.16-.45.3-.65.43.17-.11.35-.24.55-.37-.13.08-.25.16-.37.24.15-.1.3-.2.46-.32-.08.06-.17.11-.25.17.07-.05.14-.09.21-.14-.14.09-.27.18-.39.26.14-.1.29-.2.45-.32-.33.22-.62.42-.89.6-.07.04-.13.08-.2.12.3-.19.64-.41,1.02-.68-.15.1-.29.19-.43.28.16-.11.33-.23.5-.35-.11.07-.21.14-.3.21.08-.06.16-.11.25-.17-.13.09-.25.17-.36.25.13-.09.26-.18.39-.28-.37.26-.71.49-1.01.69-.06.04-.11.07-.16.1.13-.09.28-.18.42-.28.22-.15.46-.31.72-.5-.09.06-.17.12-.25.17.1-.07.21-.15.32-.23-.15.1-.28.19-.42.28.1-.07.21-.15.32-.23-.08.06-.16.11-.24.16.11-.08.23-.17.35-.26-.32.22-.61.42-.87.6.04-.03.08-.05.12-.08.21-.14.43-.3.67-.48-.09.06-.17.12-.25.17.1-.07.21-.15.31-.23-.21.15-.42.29-.6.43-.02.01-.03.02-.05.03.19-.13.39-.28.61-.43-.09.06-.17.12-.26.18.11-.08.21-.15.33-.24-.24.17-.46.32-.66.46.18-.13.37-.27.57-.42-.09.06-.17.12-.26.18.1-.07.2-.15.31-.23-.16.11-.31.22-.45.32.03-.02.05-.04.08-.06.11-.08.23-.16.35-.25-.05.03-.1.07-.15.1.07-.05.14-.1.21-.16-.15.11-.3.22-.44.32-.09.06-.19.13-.27.19.12-.09.25-.18.38-.28.08-.06.16-.11.24-.17-.03.02-.05.04-.08.06.05-.04.1-.08.15-.12-.13.1-.26.19-.38.28-.03.02-.07.05-.1.07l.03-.02c.13-.1.27-.2.41-.31-.05.04-.11.08-.16.11.07-.05.14-.11.22-.17-.18.13-.35.26-.51.38-.2.14-.38.27-.56.39.29-.21.62-.45.98-.72-.04.03-.09.06-.13.1.06-.04.12-.09.18-.14-.15.11-.3.22-.44.32.13-.1.26-.2.4-.31-.15.11-.29.22-.43.31.15-.11.31-.24.48-.37-.72.54-1.3.95-1.77,1.27,0,0,0,0,0,0,.27-.18.56-.39.89-.63.24-.18.51-.37.8-.59-.09.06-.18.13-.26.19.1-.08.21-.16.32-.24-.3.22-.58.42-.83.61.24-.18.5-.37.79-.6-.03.02-.05.04-.08.06.03-.02.06-.04.08-.06-.33.24-.62.46-.9.65.26-.19.55-.41.86-.65-.03.02-.05.04-.08.06.05-.04.1-.07.15-.11-.2.14-.38.28-.56.4.15-.11.3-.22.46-.34-.08.05-.15.11-.22.16.11-.08.22-.17.34-.26-.67.49-1.22.88-1.67,1.19,0,0,0,0,0,0,.27-.19.57-.4.91-.65.21-.15.44-.32.68-.5-.07.05-.15.1-.22.15.08-.06.16-.12.25-.19-.25.18-.48.35-.7.51-.03.02-.06.04-.09.06.02-.01.03-.03.05-.04.22-.16.46-.34.71-.53-.06.05-.12.09-.18.13.08-.06.15-.12.23-.18-.27.2-.52.39-.75.55,0,0,0,0,0,0,.12-.09.25-.19.39-.3.09-.07.18-.13.27-.21-.04.03-.07.05-.11.08.06-.04.11-.09.17-.13-.14.1-.27.2-.4.3-.17.12-.33.24-.48.34.25-.19.53-.39.83-.63-.04.03-.07.05-.11.08.06-.05.12-.09.18-.14-.24.18-.46.34-.67.49.2-.15.4-.31.63-.49-.19.14-.36.27-.53.4-.49.36-.89.65-1.24.9,0,0-.01,0-.02,0,.33-.23.71-.51,1.15-.85.19-.14.39-.29.6-.46-.06.04-.12.09-.18.13.08-.06.16-.13.25-.19-.25.19-.48.36-.7.52.18-.14.38-.29.59-.45-.06.04-.11.08-.17.12.07-.06.15-.12.23-.18-.16.12-.32.24-.46.35.15-.12.32-.25.49-.39-.46.36-.86.66-1.21.92-.1.07-.19.14-.28.2.09-.07.19-.14.29-.22.34-.25.71-.53,1.14-.87-.16.12-.32.24-.47.35.15-.12.31-.25.48-.38-.05.04-.11.08-.16.12.03-.03.07-.06.11-.08-.12.09-.23.17-.34.25.13-.11.27-.22.42-.34-.04.03-.07.06-.11.08-.28.22-.54.41-.78.59.26-.2.54-.43.85-.68-.09.07-.17.13-.25.19-.11.08-.21.16-.32.24.09-.07.19-.15.28-.23.07-.06.15-.12.23-.19-.01,0-.02.02-.03.02.03-.03.07-.06.1-.08-.16.13-.31.25-.46.36-.12.09-.23.18-.34.26.17-.14.35-.29.55-.45.05-.04.1-.08.15-.12-.02.01-.03.02-.05.03.04-.03.08-.07.12-.1-.09.07-.17.14-.26.2-.12.09-.23.18-.34.26.19-.16.4-.32.62-.51-.05.04-.1.08-.16.12.02-.02.05-.04.07-.06-.17.14-.34.27-.49.39.17-.14.34-.28.53-.44-.16.13-.32.25-.47.37.13-.11.26-.22.41-.34-.15.12-.29.23-.43.34.16-.13.33-.27.51-.43-.02.02-.04.03-.06.05-.16.13-.32.25-.46.36.11-.09.23-.19.35-.29.02-.02.05-.04.07-.06,0,0-.01.01-.02.02.03-.03.07-.06.1-.08-.09.08-.18.15-.27.22-.03.03-.06.05-.09.08.12-.1.24-.21.37-.32-.26.22-.5.42-.73.6-.08.06-.15.12-.22.18.26-.22.56-.46.88-.73-.11.08-.21.17-.3.25.11-.09.23-.19.35-.29-.22.18-.42.34-.61.49.17-.14.35-.29.54-.45-.1.09-.21.17-.3.25.13-.11.25-.22.39-.34-.05.04-.1.09-.15.13.02-.02.05-.04.07-.06-.55.46-1,.83-1.39,1.14.4-.33.88-.73,1.43-1.21-.06.05-.11.09-.17.14-.16.13-.31.25-.45.36.2-.17.4-.35.63-.55-.09.07-.17.14-.25.21.06-.05.12-.1.18-.16-.16.14-.32.27-.47.39.16-.14.33-.29.51-.45-.14.12-.28.24-.41.35.11-.09.22-.19.34-.29-.28.23-.53.44-.76.62.25-.21.53-.45.83-.71-.04.03-.07.06-.11.09.02-.01.03-.03.05-.04-.27.22-.51.43-.73.61.21-.19.45-.39.7-.62-.02.01-.03.03-.05.04.04-.04.09-.08.14-.12-.56.48-1.03.88-1.43,1.21.37-.32.81-.7,1.33-1.16,0,0,0,0,0,0,.01-.01.03-.02.04-.04-.05.04-.1.09-.15.13-.16.13-.3.25-.44.37.19-.17.4-.35.62-.55-.15.13-.29.25-.42.36.11-.1.23-.2.35-.31-.16.14-.32.27-.46.39.16-.14.33-.29.5-.46-.19.16-.36.32-.53.46.14-.12.29-.25.44-.39-.2.17-.38.32-.55.47.2-.18.41-.37.64-.57-.07.06-.13.11-.19.17.04-.04.08-.07.12-.11-.24.21-.46.4-.67.57.22-.2.45-.41.71-.65-.07.06-.14.12-.2.18.04-.04.08-.08.13-.12-.27.23-.51.45-.73.64.24-.22.5-.46.79-.72-.08.07-.15.13-.22.19.05-.05.11-.1.16-.15-.13.12-.26.23-.39.33.14-.12.28-.26.43-.4-.24.21-.46.41-.67.59.19-.17.39-.35.6-.55-.08.07-.17.15-.25.22.1-.09.21-.19.31-.29-.31.28-.59.53-.85.77-.13.11-.25.22-.36.32.33-.29.7-.63,1.13-1.02-.11.09-.21.18-.31.27.11-.1.23-.21.35-.32-.13.11-.25.22-.37.33.1-.09.21-.19.32-.29-.18.16-.36.32-.52.46.18-.16.37-.34.57-.53-.1.09-.2.18-.3.27.08-.07.16-.15.25-.23-.13.12-.26.23-.38.34.14-.13.28-.26.43-.41-.48.43-.88.8-1.22,1.12.11-.1.23-.21.35-.33.24-.22.5-.46.78-.72-.13.12-.26.23-.38.34.15-.14.3-.29.46-.44-.25.23-.47.44-.68.63,0,0,.01-.01.02-.02.18-.17.37-.35.57-.54-.09.08-.17.16-.26.23.11-.1.22-.21.33-.32-.25.23-.47.44-.68.64,0,0,0,0-.01.01.19-.18.39-.37.62-.59-.32.29-.61.56-.86.79.27-.25.56-.53.89-.85-.12.11-.24.22-.35.32.1-.1.21-.2.32-.31-.06.06-.12.11-.18.17.08-.08.17-.16.25-.25-.2.18-.38.36-.56.52.15-.14.3-.3.47-.46-.23.21-.44.41-.63.6.21-.2.44-.43.69-.67-.32.3-.61.57-.87.82.08-.08.17-.17.26-.26.16-.15.32-.31.5-.48-.05.04-.1.09-.14.13.08-.08.16-.16.24-.24-.17.16-.33.31-.48.45.13-.13.27-.26.41-.4-.13.12-.25.24-.37.35.13-.13.26-.26.4-.4-.42.4-.78.75-1.1,1.06-.21.2-.4.38-.58.55-.03.02-.05.05-.08.07,0,0,0,0-.01,0,.45-.42,1-.96,1.71-1.65-.16.15-.31.29-.45.43.16-.16.34-.33.52-.51-.15.14-.28.27-.41.39.11-.11.22-.22.34-.34-.14.14-.28.27-.41.39.15-.14.3-.3.46-.46-.16.15-.31.29-.45.43.11-.12.23-.24.36-.36-.76.74-1.33,1.3-1.78,1.74,0,0-.01,0-.02.01.47-.45,1.06-1.04,1.83-1.81-.13.13-.26.25-.38.37.12-.11.24-.23.36-.36-.07.07-.15.14-.22.21.09-.09.18-.18.27-.28-.3.29-.56.54-.8.78.22-.22.46-.46.72-.73-.1.1-.2.2-.3.29.11-.11.23-.23.35-.35-.37.36-.7.69-.99.98-.05.05-.1.1-.14.14.33-.32.7-.7,1.12-1.13-.12.11-.23.22-.33.32.08-.08.16-.16.24-.24-.18.18-.36.34-.52.5.17-.17.35-.36.55-.56-.04.04-.08.08-.13.12.06-.06.12-.12.18-.18-.21.21-.41.4-.59.58.17-.17.34-.36.53-.55-.13.13-.25.25-.36.36.11-.11.22-.23.33-.35-.36.35-.67.67-.95.95.04-.05.09-.09.13-.14.24-.25.51-.52.8-.82-.08.08-.16.16-.24.23.09-.1.19-.2.29-.3-.28.28-.54.54-.77.78.09-.09.18-.19.27-.29.14-.14.28-.3.44-.46-.03.03-.07.07-.1.1.05-.05.1-.1.15-.16-.17.18-.34.35-.5.51-.03.04-.07.07-.1.1.15-.16.32-.34.5-.52-.31.31-.58.59-.83.85.27-.28.56-.58.89-.93-.22.22-.41.42-.6.6.17-.18.35-.37.55-.58-.06.06-.12.12-.18.18.07-.08.15-.16.23-.24-.23.23-.44.45-.63.65.18-.19.36-.39.57-.61-.04.04-.08.08-.12.13.05-.05.1-.11.16-.17-.62.64-1.12,1.16-1.52,1.59,0,0,0,0,0,0,.28-.3.61-.65,1-1.07.14-.14.28-.3.43-.46-.04.04-.07.07-.11.11.06-.06.12-.13.18-.19-.19.19-.36.37-.53.54.15-.16.3-.33.47-.51-.07.07-.13.14-.2.21.06-.07.12-.13.19-.2-.3.3-.56.58-.79.82.2-.21.41-.44.64-.69.06-.06.11-.12.17-.18-.23.24-.45.46-.65.67.19-.21.4-.44.63-.68-.09.1-.18.19-.27.28.07-.08.15-.16.23-.25-.18.18-.34.35-.49.51.14-.15.28-.31.43-.48-.06.06-.12.13-.18.19.08-.09.16-.18.24-.27-.22.24-.43.45-.62.66.18-.2.38-.42.59-.66-.06.06-.11.12-.17.18.05-.05.09-.1.14-.15-.15.16-.29.3-.42.44.1-.11.21-.23.32-.36.03-.03.06-.07.09-.1-.01.01-.02.02-.03.04.02-.02.03-.03.05-.05-.04.04-.07.08-.11.12-.24.25-.46.49-.66.7.23-.26.49-.55.78-.87-.1.11-.2.21-.29.31.08-.08.15-.17.23-.26-.15.16-.29.31-.43.46.14-.16.29-.33.45-.51-.06.07-.12.13-.18.2.04-.05.09-.1.13-.15-.13.14-.25.27-.37.4.13-.15.26-.3.4-.46-.14.15-.27.29-.39.43.1-.12.21-.24.32-.37-.15.17-.29.32-.43.47.15-.17.31-.35.48-.55-.31.34-.58.63-.82.9,0,0,.02-.02.02-.03.23-.25.47-.54.75-.85-.11.12-.21.23-.31.33.11-.12.22-.25.33-.39-.2.22-.38.43-.55.62.15-.18.32-.37.49-.57-.16.18-.32.35-.46.51.15-.17.31-.36.48-.56-.08.08-.15.16-.22.24.06-.07.12-.14.18-.21-.2.23-.39.44-.56.63.18-.21.38-.44.59-.69-.06.07-.12.14-.18.21.04-.05.09-.11.14-.16-.16.17-.3.34-.44.49.14-.16.28-.33.43-.51-.14.16-.28.31-.41.46.12-.15.26-.3.39-.47-.14.16-.27.31-.4.46.13-.16.28-.32.43-.5-.26.29-.49.56-.7.8.2-.23.41-.48.64-.75-.13.14-.24.27-.36.4.12-.14.24-.29.38-.45-.19.22-.37.42-.53.62.15-.18.32-.38.5-.6-.25.29-.48.54-.68.78,0,0,.01-.02.02-.03.2-.24.42-.5.66-.78-.07.08-.14.16-.21.24.05-.06.1-.12.16-.19-.21.25-.41.47-.59.68.19-.23.4-.49.64-.77-.09.11-.18.21-.27.31.07-.09.15-.18.23-.28-.15.17-.29.33-.42.48.13-.16.27-.32.41-.5-.17.2-.33.39-.49.57.14-.17.29-.36.45-.56-.09.11-.18.22-.27.32.1-.12.2-.24.3-.37-.28.32-.52.61-.75.88.08-.1.17-.21.26-.32.13-.16.28-.34.43-.52-.05.06-.11.12-.16.18.05-.07.11-.14.17-.21-.15.17-.28.34-.41.49-.07.08-.14.16-.21.24.18-.23.38-.47.6-.74-.04.04-.07.08-.1.12.04-.05.08-.09.11-.14-.13.15-.25.29-.36.42.11-.13.22-.27.34-.41-.07.08-.14.16-.2.24.06-.07.11-.14.17-.22-.2.23-.38.45-.55.66.17-.22.36-.45.57-.71-.08.1-.16.19-.24.29.07-.09.14-.18.22-.27-.17.2-.32.38-.47.56.14-.17.28-.36.44-.55-.1.12-.19.23-.28.33.08-.1.17-.21.26-.32-.09.11-.17.21-.26.31.09-.12.19-.24.29-.37-.25.3-.47.58-.68.84,0,0,0,0,0-.01.04-.05.07-.09.11-.14.16-.2.34-.42.53-.65-.05.06-.1.12-.15.17.05-.06.1-.12.15-.19-.09.11-.18.21-.26.31.08-.1.15-.19.24-.3-.16.2-.32.38-.46.55.14-.18.3-.38.46-.59-.06.07-.12.15-.18.22.05-.07.11-.14.16-.21-.12.15-.24.29-.34.42.1-.13.21-.27.32-.41-.12.15-.24.3-.35.44.1-.13.21-.28.33-.42-.17.21-.32.4-.47.58,0,0,0-.01.01-.02.15-.19.3-.39.47-.6-.04.05-.08.1-.12.15.04-.05.08-.1.12-.16-.16.2-.3.38-.44.56.13-.17.26-.34.4-.53-.03.04-.07.08-.1.12.03-.04.07-.09.1-.13-.19.23-.37.45-.53.65.16-.21.34-.45.53-.7-.06.08-.12.15-.18.22.05-.07.1-.13.16-.2-.08.1-.16.19-.23.29.07-.09.14-.18.21-.28-.13.16-.25.32-.36.47.11-.14.22-.3.34-.46-.05.06-.1.13-.15.19.06-.08.12-.16.19-.25-.22.28-.42.54-.6.78,0,0-.02.01-.03.02.18-.24.37-.49.58-.77-.08.1-.16.2-.23.29.07-.09.14-.19.21-.29-.1.13-.2.25-.29.37.08-.11.17-.23.26-.36-.08.1-.15.19-.22.29.08-.11.17-.23.25-.35-.27.35-.51.67-.72.96-.04.05-.07.1-.11.15-.03.04-.06.08-.09.12-.14.2-.27.38-.39.55,0,0,0,0-.01.01.05-.07.1-.14.15-.22.3-.42.67-.93,1.14-1.55-.06.08-.12.15-.18.23.05-.07.1-.14.16-.21-.08.1-.15.2-.23.29.07-.09.14-.19.21-.29-.14.19-.28.36-.4.52.13-.18.27-.36.41-.56-.06.08-.13.16-.19.24.06-.08.12-.16.18-.25-.19.25-.37.48-.53.7.15-.21.31-.43.48-.67-.16.21-.32.42-.46.61.14-.19.29-.4.44-.61-.09.12-.18.23-.26.34.09-.12.18-.25.28-.39-.09.12-.17.23-.26.34.08-.11.16-.22.24-.33-.15.2-.29.38-.42.56.12-.17.25-.36.39-.55-.56.74-.98,1.34-1.3,1.83,0,0,0-.01,0-.02.32-.47.73-1.06,1.27-1.79-.14.19-.28.37-.4.53.12-.17.25-.34.38-.52-.07.1-.15.19-.22.28.08-.11.15-.22.24-.33-.23.31-.44.59-.62.84.02-.03.04-.06.06-.09.17-.23.35-.48.54-.74-.1.12-.19.25-.28.36.08-.11.16-.23.24-.35-.2.27-.38.52-.55.75-.04.06-.08.11-.13.17.04-.06.08-.11.12-.17.18-.24.37-.51.58-.8-.11.14-.21.27-.31.4.09-.13.19-.27.29-.41-.21.29-.4.55-.57.79.16-.23.34-.48.54-.76-.09.12-.18.24-.27.36.08-.12.17-.24.26-.37-.21.29-.4.55-.57.8-.13.18-.25.35-.36.5,0-.01.02-.03.02-.04.1-.15.21-.31.33-.48.18-.25.37-.51.59-.81-.1.13-.2.26-.29.38.07-.11.15-.22.23-.33-.03.04-.06.07-.08.11.03-.05.07-.1.11-.15-.15.2-.3.4-.43.58.13-.18.26-.37.41-.58-.09.12-.18.24-.26.35.09-.12.18-.25.27-.38-.13.17-.25.33-.36.48.05-.07.1-.15.16-.22.06-.09.13-.18.19-.27-.02.02-.03.04-.05.07,0,0,.01-.02.02-.03-.03.03-.05.07-.07.1-.15.21-.3.4-.43.58.08-.12.17-.25.26-.38.07-.1.15-.21.23-.32-.01.02-.03.04-.04.06.02-.02.03-.05.05-.07-.07.1-.15.2-.21.3-.18.25-.34.47-.49.69,0,0,0,0,0,0,.2-.29.42-.6.67-.95-.09.12-.18.24-.26.35.09-.13.18-.26.28-.39-.13.17-.25.34-.37.49.05-.07.09-.14.14-.21.06-.09.13-.18.19-.27-.01.02-.03.03-.04.05,0-.01.02-.03.03-.04-.04.06-.08.11-.12.16-.09.13-.18.25-.26.36.11-.16.22-.33.35-.51-.04.06-.08.11-.12.17.05-.07.1-.14.15-.22-.12.16-.23.32-.33.46.09-.14.19-.28.29-.43-.03.04-.06.09-.09.13.02-.02.03-.05.05-.07-.16.22-.31.43-.44.62.13-.2.28-.42.44-.65-.02.03-.04.06-.07.09.04-.05.07-.1.11-.16-.21.3-.4.58-.57.83,0,0,0,0,0-.01.16-.24.34-.51.54-.8-.04.06-.09.12-.13.18.03-.04.06-.09.09-.13-.17.23-.32.45-.46.65-.01.01-.02.03-.03.04.06-.09.12-.19.19-.29.1-.15.2-.3.31-.47-.02.03-.04.06-.06.09-.01.02-.03.04-.04.05-.12.16-.22.32-.32.47.12-.19.25-.38.39-.6-.05.08-.11.15-.16.23.04-.06.08-.12.12-.18-.17.24-.32.46-.45.67,0,0,0,0,0,0,.04-.06.07-.11.11-.17.1-.16.21-.32.33-.5-.02.03-.05.07-.07.1,0-.01.02-.03.03-.04-.04.06-.09.13-.13.19-.08.12-.16.23-.23.34.12-.19.26-.4.41-.62-.09.13-.18.26-.26.38.06-.1.13-.2.2-.31-.14.21-.27.4-.39.59,0,0,0,0,0,0,.13-.21.28-.43.43-.66-.11.16-.21.31-.31.45.08-.13.17-.26.26-.4-.08.11-.15.22-.22.32.07-.12.15-.24.23-.36-.16.24-.31.46-.44.66,0,0,0,0,0,0,.11-.18.23-.36.36-.56-.07.11-.14.21-.21.31.09-.14.18-.28.27-.43-.22.32-.4.61-.56.87.15-.24.31-.5.49-.78-.01.02-.03.04-.04.06.02-.03.04-.07.06-.1-.23.34-.43.65-.6.93.08-.13.16-.27.25-.42.08-.12.16-.25.25-.39-.03.05-.06.09-.09.14.06-.09.11-.18.18-.28-.17.25-.32.49-.46.71-.05.07-.09.14-.13.21.12-.21.26-.44.41-.68.05-.08.11-.17.16-.25-.21.31-.39.59-.55.84.02-.03.04-.06.05-.09.13-.21.27-.44.42-.69-.07.11-.14.21-.21.31.04-.07.08-.13.12-.2-.1.15-.19.3-.27.44-.05.08-.1.16-.14.23.01-.02.02-.04.03-.06.13-.23.28-.48.45-.75-.12.19-.24.37-.34.54.03-.06.07-.12.1-.19.05-.09.11-.18.17-.28-.04.07-.09.13-.13.2,0,0,0-.02.01-.03,0,.01-.01.02-.02.04-.12.19-.23.37-.34.54.13-.24.28-.5.45-.78-.26.42-.48.79-.66,1.12,0-.02.02-.04.03-.06.16-.3.34-.64.56-1.02-.16.26-.29.49-.42.71.09-.19.2-.4.31-.62-.18.33-.33.62-.46.89-.17.32-.31.6-.42.86-.04.08-.07.15-.1.22,0,0,0,0,0,0-.16.32-.21.53-.22.57,0,0,0,0,0,0-.03.02-1.77,2.1-1.77,2.1,0,0-.04.04-.03.09,0,0-.03,0-.07.03-.04.04-.23.29-.23.29,0,0-.01.04,0,.06,0,0-.04-.02-.09.03-.05.05-1.63,1.77-1.63,1.77,0,0-.18-.04-.23,0,0,0-.25-.11-.41-.35,0,0,.25-.37-.07-.63-.23-.18-.52-.2-.52-.2l-.13-.24.32-4.76s0-.03-.04-.06l.02-.25s0-.04-.05-.04c0,0,.06,0,.06-.13,0-.13.02-.19-.02-.21,0,0,.03,0,.06-.26.03-.27.09-1.22.18-1.6.06-.03.1-.06.12-.09.74-.22,1.47-.51,2.17-.85-.43.19-.87.38-1.32.55.36-.14.72-.29,1.07-.46.07-.03.14-.06.21-.09-.03.01-.06.02-.08.04.04-.02.08-.04.12-.06-.09.04-.19.08-.28.13-.12.05-.24.1-.36.15.1-.04.2-.09.3-.14.1-.05.21-.09.31-.14-.04.02-.08.04-.12.05.05-.02.1-.05.15-.07-.24.11-.59.26-.91.39-.06.03-.13.05-.19.08.03-.01.05-.02.08-.03.34-.13.67-.28.99-.43-.05.02-.1.04-.16.07.07-.03.13-.06.19-.09-.1.05-.19.09-.29.14-.07.03-.15.06-.23.09.09-.04.19-.09.28-.14.07-.03.14-.07.2-.1-.04.02-.08.04-.12.05.05-.02.1-.05.15-.07-.12.06-.24.11-.37.17-.08.03-.16.07-.24.1.14-.06.27-.13.41-.2.06-.03.11-.05.17-.08-.02,0-.04.02-.06.03.03-.02.06-.03.09-.05-.17.08-.4.19-.63.29-.09.04-.18.08-.27.11.05-.02.09-.04.14-.06.24-.11.49-.22.73-.34-.03.01-.05.02-.08.04.04-.02.08-.04.11-.06-.07.04-.15.07-.22.11-.09.04-.18.08-.28.12.08-.04.17-.08.25-.12.08-.04.15-.07.21-.1-.04.02-.08.04-.13.06.05-.03.1-.05.15-.08-.17.08-.41.19-.63.3-.06.03-.12.05-.18.08.09-.04.2-.09.3-.14.16-.08.32-.15.48-.24-.03.01-.06.03-.09.04.04-.02.08-.04.12-.06-.08.04-.19.09-.29.14-.11.05-.23.1-.35.16.09-.04.18-.09.26-.13.13-.06.25-.12.35-.17-.05.02-.1.05-.15.07.07-.03.13-.07.18-.1-.1.05-.21.1-.31.16-.09.04-.19.09-.29.13.09-.05.19-.09.28-.14.11-.05.21-.1.29-.15l-.18.08c.07-.04.13-.07.2-.11-.14.07-.29.14-.43.22-.09.04-.19.09-.28.13.02,0,.03-.02.05-.03.05-.03.11-.06.16-.08.16-.08.31-.16.47-.24-.08.04-.16.08-.25.12.16-.08.26-.14.27-.14-.07.04-.2.1-.36.19.13-.07.23-.13.29-.16.01,0,.03-.01.03-.02,0,0-.01,0-.02,0,.03-.02.05-.03.05-.03-.02.01-.05.03-.09.05-.07.04-.17.09-.29.15.2-.11.33-.18.35-.19-.06.03-.16.09-.29.16.11-.06.22-.12.32-.19-.24.13-.48.26-.72.39-.04.02-.07.03-.11.05.11-.06.22-.12.33-.18.16-.08.31-.17.47-.26-.05.03-.11.06-.16.09.06-.04.13-.07.19-.11-.16.09-.32.18-.48.26-.1.05-.2.1-.29.15.09-.05.17-.09.26-.14.16-.09.32-.18.48-.27-.07.04-.15.08-.22.12.08-.05.16-.1.24-.14-.17.1-.35.2-.52.29-.06.03-.12.06-.19.1.08-.05.17-.09.25-.14.14-.08.28-.16.42-.24-.06.03-.13.07-.19.1.07-.04.14-.09.21-.13-.17.1-.34.19-.51.29-.05.03-.1.05-.15.08.08-.05.16-.09.24-.14.13-.07.25-.14.38-.22-.05.03-.1.05-.15.08.06-.04.12-.07.18-.11-.17.1-.41.23-.64.36.21-.11.41-.23.61-.35-.05.03-.11.06-.18.1.07-.04.14-.09.21-.12-.12.07-.24.14-.35.2-.05.03-.1.05-.15.08.08-.05.16-.09.24-.14.09-.05.16-.09.23-.14-.04.02-.09.05-.13.07.05-.03.1-.06.15-.1-.16.1-.39.22-.61.35-.07.04-.14.08-.21.11.03-.02.07-.04.1-.06.23-.13.46-.26.69-.4-.06.03-.12.07-.19.11.08-.05.16-.1.22-.14-.13.08-.25.15-.38.23-.08.04-.17.09-.25.14.07-.04.14-.08.21-.13.15-.08.28-.16.39-.23-.08.05-.16.09-.24.14.09-.05.17-.11.26-.16-.18.11-.36.21-.53.32-.09.05-.18.1-.28.15.08-.05.16-.09.23-.14.18-.11.37-.21.55-.33-.08.05-.17.1-.25.15.09-.06.18-.12.27-.17-.2.12-.39.24-.58.36-.06.03-.11.06-.17.1.04-.02.07-.05.11-.07.02-.01.04-.02.06-.04.19-.11.37-.22.55-.33-.09.05-.18.11-.27.16.16-.1.26-.17.29-.19-.08.05-.24.15-.44.27.05-.03.09-.06.13-.09.16-.1.26-.16.28-.18-.04.03-.11.06-.19.11.12-.08.19-.13.21-.15-.06.04-.17.11-.31.21-.05.03-.1.06-.15.09.23-.15.4-.27.42-.29-.05.03-.14.09-.25.17.09-.07.19-.13.28-.2-.22.15-.44.29-.65.44-.04.02-.08.05-.12.07.03-.02.07-.04.1-.07.22-.14.43-.28.64-.43-.09.06-.18.12-.28.18.1-.07.2-.14.3-.21-.24.16-.48.33-.73.49-.09.06-.17.11-.26.17,0,0,0,0,0,0,.11-.07.22-.14.32-.22.22-.14.43-.28.64-.43-.1.06-.19.13-.29.19.1-.07.21-.15.31-.23-.23.16-.46.32-.69.47-.07.05-.15.1-.22.14.09-.06.19-.13.28-.19.2-.14.4-.27.6-.41-.09.06-.17.12-.26.17.09-.07.19-.14.28-.2-.23.16-.47.33-.7.49-.05.03-.09.06-.14.09.1-.07.19-.13.29-.2.17-.12.35-.24.52-.36-.06.04-.13.09-.19.13.07-.05.14-.11.21-.16-.24.17-.6.42-.9.62-.03.02-.06.04-.08.06.06-.04.12-.08.18-.13.26-.17.52-.35.77-.54-.07.04-.14.09-.22.15.09-.06.17-.12.24-.18-.15.1-.29.21-.44.31-.06.04-.11.08-.17.12.06-.04.12-.09.18-.13.15-.1.29-.2.4-.28-.08.06-.17.12-.25.18.09-.07.18-.14.27-.21-.21.15-.55.39-.8.56-.02.02-.05.03-.07.05.04-.03.09-.06.13-.1.24-.16.47-.33.71-.5-.06.04-.14.1-.22.15.09-.07.17-.13.25-.18-.15.11-.36.26-.56.4-.07.05-.14.09-.2.14.04-.03.09-.07.14-.1.21-.15.43-.31.59-.42-.08.06-.18.12-.28.19.11-.08.22-.16.3-.23-.17.13-.34.25-.52.38-.08.06-.17.11-.24.17.07-.05.13-.1.2-.15.19-.14.39-.28.53-.39-.1.07-.2.14-.3.22.11-.08.21-.16.32-.25-.21.16-.42.32-.63.47-.04.03-.08.06-.12.08.04-.03.08-.06.12-.09.2-.15.41-.3.61-.45-.13.09-.26.19-.38.28.22-.17.37-.29.4-.31-.06.05-.17.13-.31.24.06-.05.11-.09.15-.12.07-.05.12-.09.14-.1-.02.02-.06.04-.09.07.07-.06.11-.09.12-.1-.04.03-.1.08-.18.15-.05.03-.1.07-.15.11.17-.14.28-.23.3-.24-.08.06-.25.19-.45.35.16-.13.32-.26.48-.39-.25.2-.49.39-.74.59-.03.02-.05.04-.08.06.03-.02.05-.04.08-.06.24-.18.47-.37.71-.56l-.27.21c.1-.08.19-.16.29-.24-.23.18-.45.36-.68.54-.08.06-.16.12-.23.18.06-.05.11-.09.17-.14.24-.19.48-.38.71-.57-.11.08-.21.17-.32.25.11-.09.23-.19.34-.29-.23.19-.45.37-.68.56-.05.04-.1.08-.15.11.06-.05.12-.1.18-.14.21-.17.42-.34.62-.51-.09.07-.19.15-.28.22.1-.08.2-.17.3-.26-.23.19-.45.37-.68.56-.03.03-.07.05-.1.08.06-.05.11-.09.17-.14.2-.16.39-.32.58-.48-.08.06-.15.12-.23.18.08-.07.17-.14.25-.22-.09.07-.19.16-.3.24.09-.08.18-.15.27-.23-.08.07-.18.15-.29.23.12-.1.22-.19.31-.27-.2.17-.49.4-.76.62-.02.02-.04.03-.06.05.05-.04.11-.09.16-.14.23-.19.46-.38.63-.52-.07.06-.15.12-.24.19.09-.08.18-.16.26-.22-.15.12-.35.29-.54.45-.05.04-.1.08-.15.12.03-.02.06-.05.09-.08.21-.17.42-.35.58-.48-.08.07-.19.15-.3.24.12-.1.23-.2.32-.28-.19.16-.47.4-.72.61-.05.04-.1.08-.15.12.03-.03.06-.06.1-.08.25-.2.54-.45.73-.62-.1.08-.23.19-.36.29.14-.12.27-.23.37-.33-.22.19-.44.38-.67.58-.08.06-.15.13-.22.18.06-.05.13-.11.19-.16.24-.2.5-.42.67-.58-.12.1-.24.21-.37.31.13-.11.25-.23.38-.34-.11.1-.25.22-.4.35.13-.11.25-.22.37-.33-.1.08-.22.19-.35.29.12-.11.24-.22.36-.33-.17.15-.48.42-.6.53,0,0-.02.01-.02.02.03-.03.07-.06.12-.11.16-.14.32-.28.48-.43-.08.07-.19.17-.3.26.11-.1.23-.21.31-.29-.17.16-.34.32-.52.47-.06.05-.11.1-.13.12.07-.06.43-.39.62-.57-.16.14-.32.28-.48.43.18-.17.36-.34.49-.46-.29.26-.57.53-.86.79-.05.05-.11.1-.16.14.13-.12.26-.24.39-.36.22-.19.44-.4.6-.55-.13.11-.25.23-.38.34.13-.13.26-.25.39-.38-.06.06-.14.13-.22.2.06-.06.13-.12.19-.18-.11.1-.26.23-.41.37.16-.15.31-.29.42-.41-.24.23-.49.46-.73.69-.02.02-.04.04-.06.05.06-.06.12-.12.18-.18.21-.2.43-.4.58-.55-.11.1-.22.2-.33.3.11-.11.23-.22.34-.34-.08.08-.16.15-.24.23.07-.07.14-.14.22-.21-.1.09-.19.18-.29.27.1-.1.2-.2.3-.3-.06.06-.13.13-.21.2.06-.06.12-.12.18-.18-.09.08-.2.19-.31.29.12-.12.24-.23.33-.33-.23.22-.45.44-.68.66-.03.03-.06.06-.1.09.04-.04.07-.07.11-.11.22-.21.47-.45.63-.62-.11.11-.23.21-.34.32.12-.12.23-.24.35-.36-.06.06-.13.13-.21.2.06-.06.12-.12.18-.18-.09.08-.19.18-.31.29.12-.12.23-.24.32-.33-.08.08-.17.17-.27.26.09-.09.17-.17.24-.24-.1.09-.23.22-.36.35.14-.14.27-.28.37-.39-.23.23-.46.46-.69.69-.08.07-.15.14-.2.19.02-.02.04-.04.06-.06.22-.22.58-.58.8-.8-.13.13-.26.26-.39.38.13-.14.27-.28.4-.42-.08.08-.15.15-.22.23.07-.07.13-.14.2-.21-.15.15-.3.3-.45.45.24-.26.42-.45.45-.48-.05.05-.15.15-.26.27.01-.02.03-.03.04-.05.1-.1.17-.18.19-.2-.03.03-.08.08-.13.13.09-.1.14-.16.15-.17-.05.05-.13.14-.23.25-.01.02-.03.03-.05.05.15-.16.24-.27.25-.28-.08.08-.25.27-.47.5,0,0-.01.01-.02.02.17-.19.33-.37.5-.56-.06.06-.12.13-.18.19.05-.06.1-.11.15-.17-.11.12-.23.24-.34.36.12-.13.23-.27.35-.4-.06.06-.11.12-.17.19.05-.05.1-.11.14-.16-.13.14-.26.28-.39.42.13-.15.26-.31.39-.46-.05.05-.09.1-.14.16.04-.04.08-.09.11-.13-.11.12-.23.25-.34.37.12-.14.23-.27.35-.41-.05.05-.1.11-.15.17.04-.05.08-.09.12-.14-.09.1-.19.21-.28.31.1-.12.2-.23.29-.35-.04.04-.07.08-.11.13.03-.03.06-.07.09-.1-.1.11-.22.25-.35.39.14-.16.26-.31.37-.44-.03.04-.07.08-.11.13.03-.04.06-.07.09-.1-.09.1-.2.22-.32.36.12-.14.24-.28.33-.39-.04.04-.08.09-.13.15.04-.04.07-.08.1-.12-.1.11-.22.25-.35.4.13-.16.26-.32.36-.44-.03.04-.07.08-.11.13.03-.04.06-.07.09-.11-.11.13-.26.3-.41.47.15-.18.3-.37.41-.51-.04.04-.07.09-.11.13.03-.04.06-.07.09-.11-.12.14-.23.27-.35.41.12-.15.24-.3.35-.45-.03.04-.06.07-.09.11.02-.03.04-.05.06-.08-.12.14-.24.29-.36.43.12-.16.25-.31.37-.47-.03.04-.06.08-.09.11.02-.03.05-.06.07-.09-.09.11-.18.22-.27.33.1-.12.19-.25.29-.37-.03.04-.06.07-.09.11.02-.03.04-.05.06-.08-.12.14-.23.28-.35.42.12-.15.24-.31.35-.46-.03.03-.05.06-.08.1.02-.02.04-.05.05-.07-.13.15-.25.31-.38.47.13-.17.26-.34.38-.51-.02.03-.05.06-.07.09.02-.02.03-.04.05-.07-.12.15-.29.36-.45.56.17-.22.34-.44.46-.61-.02.03-.04.05-.06.08.01-.02.03-.04.04-.05-.12.15-.24.3-.36.45.12-.16.24-.33.36-.49-.02.02-.04.05-.06.07.01-.02.02-.03.03-.05-.11.14-.22.27-.32.41.11-.15.22-.3.33-.46-.02.02-.03.04-.05.07,0-.01.02-.03.03-.04-.1.13-.24.3-.37.48.14-.19.27-.38.37-.52-.02.03-.04.05-.06.08.01-.02.02-.03.04-.05-.12.16-.24.32-.37.47.12-.17.25-.34.37-.52-.01.02-.03.04-.04.06,0,0,.01-.02.02-.03-.1.12-.22.29-.35.46.13-.18.26-.37.36-.5-.01.02-.02.03-.04.05,0,0,.01-.02.02-.02-.11.14-.25.34-.39.52.14-.2.29-.42.4-.57-.01.02-.03.04-.04.05,0,0,.01-.02.02-.02-.15.2-.3.41-.45.62.15-.22.3-.44.45-.66-.01.02-.02.03-.03.05,0,0,0-.01.01-.02-.15.2-.29.4-.43.6.02-.03.04-.06.05-.08.19-.28.33-.5.37-.55,0,0,0,.01-.01.02-.03.04-.08.12-.15.21.09-.14.15-.24.16-.25-.01.02-.02.04-.04.06,0-.01.01-.02.02-.03-.06.09-.19.3-.36.54-.02.03-.05.07-.07.11.15-.23.29-.46.43-.7-.01.02-.03.04-.04.06,0-.01.01-.02.02-.03-.13.19-.25.37-.37.56.12-.2.25-.4.37-.61-.01.02-.03.04-.04.06,0-.01.01-.02.02-.03-.14.21-.27.41-.41.62.14-.22.27-.44.4-.67-.01.02-.02.03-.03.05,0,0,0-.01.01-.02-.12.18-.24.37-.36.56.12-.2.24-.4.36-.6,0,.02-.02.03-.03.05,0,0,0-.01,0-.02-.11.17-.22.35-.33.52.11-.19.22-.38.33-.56,0,.01-.02.03-.03.04,0,0,0,0,0-.01-.1.16-.24.37-.37.59.14-.23.27-.46.37-.64,0,0-.01.02-.02.03-.09.15-.21.34-.34.54.12-.21.25-.42.34-.58,0,0-.01.02-.02.03-.1.16-.23.38-.36.59.13-.22.26-.46.36-.64,0,.01-.01.02-.02.03-.11.18-.26.44-.4.67.14-.25.29-.52.4-.71,0,.01-.01.02-.02.04-.14.24-.28.48-.42.72.14-.25.28-.51.42-.76,0,.01-.01.02-.02.03-.16.26-.3.53-.45.79,0-.01.01-.02.02-.04.14-.26.29-.53.43-.8,0,.02-.02.04-.03.06-.04.07-.11.18-.19.33.11-.22.18-.37.2-.4,0,.01-.01.02-.02.04,0,0,0,0,0,0-.14.26-.27.52-.41.78,0,0,0,.01,0,.02.14-.28.28-.56.42-.84,0,.01-.01.02-.02.03-.19.34-.36.7-.54,1.05.18-.36.36-.73.53-1.1,0,.01-.01.03-.02.04,0,0,0,0,0,0-.11.21-.26.51-.4.78.14-.29.29-.61.39-.83,0,.01-.01.02-.02.03-.12.23-.24.46-.35.69.11-.25.23-.49.34-.74,0,.01-.01.02-.02.03-.1.19-.19.37-.28.56.09-.2.18-.4.28-.61,0,.02-.02.04-.03.05-.09.18-.21.42-.31.65.11-.25.23-.52.32-.71-.01.03-.03.05-.04.08-.1.2-.2.41-.3.61.1-.23.21-.47.31-.7-.01.03-.03.06-.04.09-.08.17-.19.39-.28.59.1-.23.22-.51.3-.7-.01.03-.03.06-.04.09-.09.19-.21.44-.3.66.11-.25.24-.56.32-.76-.02.03-.03.07-.05.1-.13.28-.26.57-.38.86.14-.32.27-.65.4-.97-.02.04-.04.08-.06.12-.09.21-.18.42-.27.62.02-.06.04-.11.06-.16.12-.31.22-.55.24-.59-.01.03-.03.06-.05.1-.02.05-.05.11-.08.18.06-.17.1-.28.11-.3,0,.01,0,.02-.02.04-.04.1-.12.31-.23.57-.02.06-.05.12-.08.18.1-.27.2-.54.29-.81,0,.01,0,.02-.01.04-.11.27-.21.54-.31.81.1-.28.2-.57.3-.85,0,.02-.01.03-.02.05-.11.28-.21.55-.31.83.1-.3.2-.59.3-.89-.03.08-.06.15-.09.23-.08.22-.16.44-.24.65.1-.3.2-.59.3-.89,0,.02-.01.04-.02.06-.09.23-.17.45-.25.68.08-.25.16-.5.25-.75,0,.03-.02.05-.03.08-.08.21-.18.49-.27.76.1-.3.2-.62.27-.85-.01.03-.02.06-.03.09-.07.19-.15.44-.24.69.09-.28.18-.58.25-.79-.01.03-.03.07-.04.11-.07.21-.16.48-.24.72.09-.28.19-.62.26-.84-.01.04-.03.08-.04.12-.08.23-.18.55-.26.81.09-.3.2-.69.28-.94-.02.05-.03.1-.05.16-.07.2-.13.41-.2.62.07-.26.15-.52.22-.78-.02.06-.04.13-.06.19-.07.21-.13.42-.19.63.08-.27.15-.55.23-.82-.02.06-.04.12-.06.17-.05.15-.09.3-.14.45.06-.21.11-.42.17-.64-.02.06-.03.11-.05.17-.06.2-.12.4-.18.6.07-.26.14-.52.2-.77-.03.11-.07.24-.11.38-.07.25-.15.54-.22.81.1-.4.21-.8.31-1.2-.02.07-.04.15-.07.23-.05.16-.1.35-.13.48.05-.19.13-.52.17-.72-.07.25-.14.5-.2.76-.03.14-.07.27-.1.41.1-.41.2-.86.28-1.18-.05.18-.1.35-.14.53-.02.1-.05.19-.07.29.06-.28.13-.55.19-.83-.02.07-.04.16-.07.25-.06.22-.12.49-.17.71.07-.31.16-.71.22-.97-.07.26-.13.52-.19.78-.07.31-.14.63-.21.94.12-.57.25-1.16.38-1.74-.02.08-.05.19-.07.3-.04.18-.09.39-.12.53.05-.22.13-.6.17-.83-.01.04-.04.16-.07.28-.03.12-.06.25-.07.32l.12-.61c-.02.09-.04.17-.06.26-.08.36-.14.72-.21,1.07,0,.02,0,.04-.01.06.08-.46.17-.94.26-1.41-.02.08-.04.17-.06.27-.06.28-.12.62-.15.75,0-.05.02-.14.03-.19.04-.27.1-.55.14-.83-.01.05-.04.18-.06.29-.01.06-.02.11-.03.14l.06-.43s0,.03,0,.05c-.03.13-.07.43-.13.79-.01.07-.03.19-.05.26.02-.17.11-.77.15-1.1-.01.07-.02.14-.04.21-.07.43-.12.86-.19,1.28.07-.5.13-1,.2-1.5-.02.09-.03.17-.04.26-.06.38-.11.77-.16,1.15.06-.47.11-.94.17-1.41-.01.09-.03.18-.04.27-.05.34-.09.69-.13,1.03.05-.43.1-.87.15-1.3-.06.36-.1.72-.14,1.08-.03.26-.06.53-.09.79,0,0,0,0,0-.01.07-.62.13-1.24.2-1.86-.01.09-.03.21-.04.33-.04.28-.07.61-.1.88.04-.37.09-.88.12-1.21-.02.14-.04.29-.05.43-.05.43-.09.85-.13,1.28h0c.05-.57.11-1.14.16-1.71-.03.22-.05.44-.08.65-.02.2-.04.41-.06.61h0c.04-.43.07-.85.11-1.27-.02.16-.04.4-.06.6-.01.13-.02.23-.03.29.01-.13.05-.63.07-.89-.02.15-.03.31-.05.46-.02.25-.04.5-.06.74h0c.03-.4.05-.81.08-1.21-.02.16-.03.31-.04.47-.02.24-.03.48-.05.73,0,0,0,0,0,0,.02-.4.05-.8.07-1.2-.02.2-.03.4-.05.61-.01.19-.02.39-.03.58,0,0,0,0,0,0,.01-.19.03-.39.04-.58.01-.2.02-.41.03-.61-.03.39-.05.79-.08,1.18,0,0,0,0,0,0,.01-.24.03-.48.04-.72,0-.16.01-.31.02-.47-.02.39-.05.79-.07,1.18h0c.01-.24.03-.48.03-.73,0-.15.01-.31.01-.46-.01.26-.04.73-.05.88,0-.06,0-.16,0-.28,0-.2.01-.44.01-.6-.02.4-.03.79-.05,1.19,0,0,0,0,0,0,0-.25.02-.49.02-.74,0-.15,0-.3,0-.45-.01.4-.03.8-.04,1.2,0,0,0,0,0,0,0-.29.02-.58.02-.87,0-.11,0-.22,0-.33-.01.4-.02.8-.03,1.21,0,0,0,0,0,0,0-.3.01-.59.01-.89,0-.11,0-.21,0-.32,0,.41-.02.82-.02,1.22,0,0,0,0,0,0,0-.3,0-.61,0-.91,0-.11,0-.21,0-.32,0,.46-.01.91-.02,1.37,0,0,0,0,0,0,0-.39,0-.78,0-1.17,0-.07,0-.14,0-.2,0,.47,0,.94,0,1.41,0,0,0,0,0,0,0,0,0,0,0,0,0-.21,0-.82-.02-1.24,0-.07,0-.13,0-.19,0,.5,0,1.01,0,1.51,0-.27,0-.54-.01-.81,0-.23,0-.47-.02-.7,0,.33.01.93.01,1.1,0-.07-.01-.19-.01-.26-.01-.36-.02-.67-.03-.8,0-.02,0-.03,0-.05,0,0,0,.38,0,.44,0-.03,0-.08,0-.14,0-.11-.02-.25-.02-.3.01.28.03.56.04.84,0,.05,0,.14,0,.19,0-.14-.03-.48-.05-.76,0-.1-.02-.19-.02-.27.03.48.06.96.08,1.43,0-.02,0-.04,0-.07-.03-.36-.05-.73-.08-1.1,0-.09-.02-.17-.02-.26,0,0,.03.49.04.62,0-.07-.02-.2-.03-.33-.01-.13-.02-.25-.03-.29.02.23.05.62.07.85-.01-.15-.03-.35-.05-.54-.01-.11-.02-.22-.04-.31.05.59.11,1.19.16,1.77-.03-.32-.06-.64-.09-.96-.03-.27-.06-.54-.09-.8.03.27.07.7.1,1.02-.03-.23-.06-.52-.09-.76-.01-.09-.02-.18-.03-.25.03.28.06.57.09.85-.01-.11-.03-.21-.04-.32-.02-.18-.04-.35-.07-.53.03.28.07.67.11,1.04,0-.08-.02-.16-.03-.24-.03-.27-.07-.53-.11-.8.02.2.06.54.08.73-.02-.13-.04-.33-.07-.49-.01-.09-.03-.17-.04-.24.05.41.1.82.16,1.24-.04-.28-.08-.58-.12-.84-.02-.14-.04-.28-.06-.39.04.29.08.58.11.86-.01-.08-.02-.16-.04-.24-.03-.2-.07-.41-.1-.61.03.23.06.45.09.68,0-.04-.01-.08-.02-.12-.03-.18-.06-.37-.1-.55.04.26.08.52.11.78-.03-.2-.07-.4-.11-.6-.01-.06-.02-.12-.03-.18l.11.74c-.03-.19-.07-.38-.11-.57-.01-.06-.02-.11-.03-.17.04.26.11.67.16.98-.05-.27-.11-.62-.16-.87,0-.04-.02-.08-.02-.12.04.24.1.6.15.89-.05-.25-.11-.55-.15-.77,0-.04-.02-.08-.02-.11.04.21.09.49.14.76-.05-.23-.09-.46-.13-.64,0-.04-.02-.08-.02-.11.04.22.1.54.16.83-.05-.25-.11-.52-.16-.72,0-.03-.02-.07-.02-.1.05.26.1.52.15.78-.05-.24-.1-.48-.16-.71,0-.02,0-.04-.01-.06.06.31.12.62.18.92-.05-.23-.1-.45-.15-.68-.02-.08-.04-.16-.06-.24.06.29.12.59.18.88-.06-.27-.12-.54-.19-.8,0-.02-.01-.05-.02-.07.06.3.13.6.2.91-.07-.29-.13-.58-.21-.86,0,0,0,0,0,0,0-.01,0-.03-.01-.04.06.28.13.56.19.84-.02-.07-.04-.13-.05-.19-.07-.27-.12-.5-.15-.6,0-.01,0-.03-.01-.04,0,.02.03.14.07.31-.02-.07-.04-.14-.06-.19-.01-.05-.02-.08-.03-.11,0,.03.08.28.16.62.01.05.03.11.04.17-.06-.22-.12-.44-.19-.65-.01-.04-.03-.09-.04-.13.09.34.19.69.28,1.03-.09-.31-.18-.62-.28-.92l-.03-.1c.06.22.15.54.23.81-.07-.23-.16-.51-.22-.71,0-.03-.02-.06-.03-.09.06.19.14.48.21.73-.07-.21-.15-.46-.21-.64,0-.03-.02-.06-.03-.08.07.25.15.49.22.74-.07-.22-.14-.43-.22-.65,0-.03-.02-.06-.03-.09.06.2.15.5.23.76-.08-.25-.17-.51-.24-.71,0-.02-.01-.04-.02-.05.07.21.13.43.2.64-.07-.2-.14-.4-.21-.6h0s0-.02-.01-.03c.08.26.16.52.25.78-.08-.24-.17-.49-.26-.73,0,0,0,0,0,0,0-.01,0-.02-.01-.03.07.23.18.54.27.84-.1-.28-.2-.58-.29-.79,0-.01,0-.03-.01-.04.13.39.26.77.39,1.16-.13-.37-.26-.75-.4-1.11,0,0,0,.01,0,.02,0-.02-.01-.03-.02-.05.1.3.2.59.31.89,0,0,0-.01,0-.02-.1-.27-.2-.55-.31-.82,0,0,0,0,0,.01,0-.01-.01-.03-.02-.04.01.04.07.19.14.42-.06-.15-.11-.27-.14-.35-.01-.02-.02-.05-.03-.06.11.28.22.57.32.85,0,.01,0,.02.01.04-.11-.28-.23-.56-.35-.84,0-.01-.01-.02-.02-.04.11.28.21.55.32.82-.11-.26-.22-.52-.33-.78,0-.01,0-.02-.01-.03.08.21.2.5.31.77-.11-.26-.23-.54-.32-.73,0,0,0,0,0,0,0-.01-.01-.02-.02-.04.07.19.18.45.28.69-.1-.23-.21-.47-.29-.65,0-.01-.01-.02-.02-.03.07.16.16.37.25.59-.09-.2-.18-.4-.25-.55,0,0,0,0,0,0,0-.01-.01-.03-.02-.04.07.18.17.41.28.65-.1-.22-.2-.44-.28-.6,0,0,0,0,0,.01,0-.01-.01-.03-.02-.04.09.2.17.4.26.61-.09-.19-.17-.38-.26-.56,0,0,0,.01,0,.02,0-.02-.02-.03-.02-.05.09.21.19.43.28.64-.09-.2-.19-.4-.29-.6,0,0,0,.01.01.02,0-.02-.02-.04-.03-.06.1.23.2.46.3.69-.1-.22-.21-.43-.31-.64,0,.01,0,.02.01.03-.01-.02-.02-.04-.03-.06.1.22.2.44.3.66-.1-.21-.2-.41-.31-.62,0,.01.01.03.02.04-.01-.02-.02-.05-.04-.07.11.25.23.5.35.75-.02-.04-.04-.08-.06-.12-.13-.26-.24-.49-.29-.58,0,0,0,.02.02.04-.01-.03-.03-.05-.04-.07.01.02.05.12.12.26-.05-.1-.09-.17-.12-.22,0,0,0,0,0,0,0,0,0,0,0,0,0,0-.01-.02-.01-.03.02.04.14.28.3.59.01.03.03.06.04.09-.12-.22-.23-.43-.35-.65,0,0,0,.01,0,.02,0-.02-.02-.03-.03-.05.12.24.25.48.37.72-.12-.23-.25-.45-.38-.68,0,0,.01.02.02.03-.01-.02-.02-.04-.03-.06.09.17.21.41.33.63-.11-.21-.24-.42-.33-.58,0,0,0,.02.01.03-.01-.02-.02-.04-.03-.06.08.15.19.36.29.55-.1-.18-.21-.37-.29-.51,0,.01.01.02.02.03-.01-.02-.03-.04-.04-.06.1.19.2.37.3.56-.1-.17-.2-.35-.3-.52,0,.02.02.03.03.05-.02-.03-.03-.05-.05-.08.08.16.2.36.31.57-.11-.19-.22-.38-.31-.53,0,.01.01.02.02.04-.01-.02-.03-.05-.04-.07.09.16.18.33.27.49-.09-.15-.18-.3-.27-.45.01.02.02.04.04.07-.02-.03-.04-.06-.06-.1.1.18.2.37.31.55-.1-.17-.21-.34-.31-.51.01.02.03.05.04.07-.02-.04-.04-.07-.06-.11.1.18.23.41.37.64-.13-.22-.27-.43-.37-.59.01.02.02.04.04.06-.02-.03-.04-.06-.06-.09.1.18.2.35.3.53-.1-.16-.2-.32-.3-.48.01.02.03.04.04.07-.02-.03-.04-.06-.06-.09.09.16.19.32.28.48-.09-.15-.19-.29-.28-.44.02.03.03.05.05.08-.02-.04-.04-.07-.07-.11.07.13.15.26.23.39-.07-.11-.15-.23-.22-.34.02.03.03.06.05.08-.02-.04-.05-.08-.07-.11.1.16.19.33.29.49-.1-.15-.19-.3-.29-.45.02.03.04.06.06.1-.03-.04-.05-.08-.08-.12.09.16.19.31.28.47-.09-.14-.19-.29-.28-.43.02.03.04.06.06.1-.03-.04-.05-.08-.08-.12.09.15.22.35.34.56-.13-.19-.25-.38-.35-.52.02.03.04.07.07.1-.03-.05-.06-.09-.09-.13.08.13.19.31.3.49-.11-.16-.22-.32-.3-.44.03.05.06.09.09.15-.04-.06-.08-.12-.12-.17.07.12.17.26.26.42-.09-.14-.18-.27-.26-.38.02.04.05.07.07.11-.03-.05-.07-.1-.1-.14.08.13.19.29.3.46-.11-.15-.21-.3-.29-.42.02.04.05.08.07.11-.03-.05-.07-.1-.1-.14.08.13.17.26.25.39-.08-.12-.16-.23-.24-.35.03.05.07.1.1.16-.04-.06-.08-.12-.12-.18.1.15.2.3.3.46-.1-.14-.19-.28-.29-.42.03.05.06.1.1.15-.04-.06-.08-.12-.12-.17.11.16.21.33.32.49-.11-.15-.21-.3-.32-.45.03.05.07.1.11.16-.04-.06-.09-.12-.13-.18.1.15.2.3.3.44-.1-.13-.19-.27-.29-.4.05.07.09.14.14.2-.05-.08-.11-.15-.16-.23.14.21.28.42.42.62,0,0-.01-.02-.02-.02-.18-.24-.33-.45-.4-.55.02.03.1.14.21.31-.01-.02-.03-.04-.04-.05-.09-.13-.16-.23-.2-.28,0,.01.05.08.13.19-.05-.07-.09-.12-.12-.15.01.02.08.1.17.23.01.02.02.03.04.05-.1-.14-.18-.24-.23-.3.03.04.18.25.39.54-.13-.17-.26-.34-.39-.5.06.08.12.17.19.25-.07-.09-.14-.18-.21-.28.12.16.23.32.35.48-.11-.15-.23-.29-.35-.44.18.25.5.65.69.89.02.03.04.05.06.07-.05-.06-.11-.13-.17-.22-.2-.26-.4-.52-.6-.77.09.12.21.28.33.44-.12-.14-.23-.29-.32-.4.06.08.14.19.23.3-.09-.12-.18-.23-.25-.32.08.1.18.24.28.38-.1-.12-.2-.24-.27-.33.06.07.11.15.17.22-.07-.09-.14-.17-.19-.24.1.14.2.27.31.41-.1-.12-.2-.25-.3-.37.15.2.38.48.59.73.03.03.05.06.08.1-.04-.04-.07-.09-.11-.13-.19-.24-.38-.48-.58-.72.08.1.17.23.27.36-.1-.12-.19-.23-.27-.32.05.06.1.13.15.19-.06-.08-.12-.15-.17-.21.08.11.17.22.26.33-.08-.1-.16-.2-.24-.29.07.09.14.18.21.27-.08-.1-.16-.19-.24-.29.1.13.2.26.3.38-.1-.12-.19-.23-.29-.35.13.17.32.39.5.61.05.06.1.13.15.19-.01-.01-.03-.03-.04-.04-.21-.26-.43-.52-.64-.77.1.13.23.29.36.45-.13-.15-.25-.29-.35-.41.06.07.11.14.17.21-.07-.08-.14-.16-.19-.23.11.15.23.29.35.43-.11-.13-.23-.26-.34-.39.15.18.36.44.56.67.11.13.22.27.34.4-.06-.06-.11-.13-.17-.19-.25-.3-.5-.6-.76-.9.12.15.28.34.44.53-.14-.16-.28-.33-.43-.49.17.2.5.59.55.65-.02-.02-.06-.07-.12-.14-.15-.18-.3-.35-.45-.53.07.09.17.21.27.33-.09-.11-.19-.22-.27-.29.14.16.28.33.43.49.04.05.07.09.09.11,0,0-.02-.02-.03-.03-.11-.13-.37-.43-.52-.6.1.12.2.24.3.36-.11-.12-.21-.23-.3-.32.1.11.19.22.29.33-.12-.13-.23-.26-.32-.36.11.13.22.26.34.39-.11-.12-.22-.24-.33-.36.16.19.41.46.63.7.05.06.1.11.16.17-.07-.07-.14-.15-.22-.23-.2-.22-.4-.44-.6-.66.09.11.21.24.33.37-.12-.13-.23-.24-.32-.34.17.2.44.49.66.72.03.03.05.06.08.09-.04-.04-.07-.08-.11-.12-.22-.24-.48-.52-.65-.71.08.09.17.2.27.31-.1-.1-.19-.2-.26-.27.13.15.32.35.5.54.03.03.06.06.08.09-.04-.04-.08-.08-.12-.12-.18-.19-.36-.39-.49-.53.07.08.14.16.23.25-.08-.08-.15-.15-.21-.22.15.17.35.38.56.6.05.05.09.1.14.15-.02-.02-.04-.04-.06-.06-.24-.25-.48-.51-.66-.7.08.09.17.19.27.3-.09-.1-.18-.19-.25-.26.08.09.16.18.24.27-.1-.1-.19-.2-.27-.29.07.08.15.16.22.25-.07-.07-.14-.14-.2-.21.18.19.36.38.54.57.05.05.1.11.15.16-.03-.03-.06-.06-.09-.09-.21-.22-.42-.44-.62-.66.09.1.18.2.27.3-.09-.09-.17-.18-.26-.27.19.21.39.42.59.62.05.05.1.1.14.15-.06-.06-.11-.11-.17-.17-.2-.21-.4-.42-.6-.63.1.11.2.22.29.32-.09-.09-.19-.19-.28-.28.21.22.42.44.63.65.05.05.11.11.16.16-.07-.07-.14-.14-.21-.2-.2-.21-.41-.42-.61-.63.08.09.17.18.25.27-.08-.08-.16-.16-.24-.24.2.21.4.41.6.61.03.04.07.07.1.11-.02-.02-.05-.04-.07-.06-.22-.22-.44-.45-.66-.67.14.15.28.3.42.45-.18-.18-.32-.33-.4-.4.03.03.12.13.27.28-.05-.05-.1-.09-.14-.13-.07-.07-.12-.13-.16-.17.01.01.05.05.1.11-.03-.03-.06-.06-.08-.08.01.01.06.06.12.12.04.04.08.09.13.14-.13-.12-.23-.22-.28-.28.02.02.16.16.35.36-.12-.11-.23-.22-.35-.32.18.18.36.35.54.52.03.03.07.07.11.11-.03-.03-.07-.06-.1-.09-.19-.18-.38-.37-.57-.55.1.1.19.19.29.29-.09-.09-.18-.17-.28-.26.13.12.3.29.48.45.06.06.12.12.18.18-.07-.06-.15-.13-.22-.2-.16-.15-.31-.29-.47-.44.07.08.17.17.27.26-.09-.08-.18-.16-.25-.22.13.13.33.31.51.48.05.04.09.09.14.13-.06-.05-.12-.1-.18-.16-.18-.17-.37-.34-.5-.47.06.06.14.14.22.22-.07-.07-.14-.13-.2-.18.2.19.41.38.61.57.05.05.1.09.15.13-.02-.02-.05-.04-.07-.06-.23-.21-.53-.48-.72-.66.08.08.17.16.25.24-.08-.07-.16-.14-.23-.21.1.1.24.22.38.35.05.05.1.09.15.14-.06-.05-.12-.1-.17-.15-.13-.12-.26-.24-.39-.36.06.06.13.13.21.2-.07-.06-.14-.12-.2-.17.23.22.46.42.7.63.06.05.11.1.16.15-.02-.02-.05-.04-.07-.06-.27-.24-.61-.54-.82-.73.06.06.13.12.19.18-.06-.05-.11-.1-.17-.15.15.14.31.29.47.43.08.08.17.15.26.23-.04-.04-.08-.07-.13-.11-.21-.19-.42-.37-.63-.56.08.08.16.16.25.23-.08-.07-.16-.13-.23-.2.18.17.37.34.56.5.08.07.16.14.24.21-.07-.05-.13-.11-.2-.17-.21-.19-.42-.37-.63-.56.09.09.18.17.27.26-.08-.07-.17-.15-.25-.22.18.17.37.33.55.49.1.09.21.18.31.27-.08-.07-.16-.13-.24-.2-.22-.19-.44-.38-.66-.58.09.08.18.17.27.25-.08-.07-.17-.14-.25-.22.19.17.39.34.59.51.03.02.06.05.08.07-.04-.03-.07-.06-.11-.08-.2-.17-.4-.34-.59-.52.08.08.17.16.25.23-.1-.09-.18-.16-.23-.2.02.02.17.15.39.34-.05-.04-.1-.07-.14-.11-.13-.11-.22-.2-.28-.25,0,0,.07.07.19.18-.08-.06-.14-.11-.18-.14.01,0,.11.09.26.21.04.03.08.07.12.11-.19-.15-.33-.27-.41-.33.01.01.11.1.26.22-.08-.06-.17-.13-.25-.19.16.14.33.27.5.4.02.02.04.03.06.05.03.03.06.05.09.08-.06-.04-.11-.08-.17-.13-.17-.14-.34-.27-.51-.41.08.07.17.14.25.21-.08-.06-.15-.12-.23-.18.16.13.33.26.5.39.07.06.14.11.22.17-.09-.06-.17-.13-.26-.19-.16-.13-.33-.26-.49-.38.08.06.15.13.23.19-.07-.05-.14-.11-.22-.16.1.08.23.18.36.28.06.05.12.1.18.14-.07-.05-.15-.11-.22-.16-.12-.09-.23-.18-.35-.27.06.05.13.11.2.16-.06-.05-.13-.09-.18-.13.21.16.42.32.63.48.03.02.06.04.09.07-.06-.04-.13-.09-.19-.13-.2-.15-.41-.31-.56-.42.05.04.09.08.14.11-.04-.03-.08-.06-.12-.09.06.05.14.11.22.16.07.06.14.11.22.17-.05-.03-.09-.07-.14-.1-.11-.08-.22-.16-.32-.25.06.05.12.1.19.15-.06-.04-.11-.08-.16-.12.21.17.43.33.65.48-.25-.18-.5-.36-.68-.49.05.04.11.09.16.13-.05-.03-.09-.07-.14-.1.12.09.24.18.36.27.08.06.15.12.23.17-.05-.04-.1-.07-.16-.11-.16-.11-.31-.23-.47-.35.07.05.13.1.2.16-.06-.04-.12-.08-.18-.13.13.1.27.2.4.3.08.06.16.12.24.18-.07-.05-.13-.09-.2-.14-.16-.12-.32-.23-.48-.35.07.06.15.12.22.17-.07-.05-.13-.09-.2-.14.15.12.31.23.47.34.07.05.14.11.22.16-.09-.06-.18-.12-.27-.19-.15-.11-.3-.22-.45-.32.05.04.11.09.16.13-.05-.03-.09-.07-.14-.1.12.09.24.17.36.26.12.09.25.18.38.27-.03-.02-.07-.04-.1-.06-.22-.16-.45-.31-.67-.48.1.08.2.15.3.23-.12-.09-.22-.16-.27-.19.02.02.14.11.32.23-.11-.08-.21-.14-.27-.18-.03-.02-.06-.04-.08-.06,0,0,.02.02.05.04,0,0-.01,0-.02-.01,0,0,.02.01.03.02.06.04.15.11.27.2-.15-.1-.27-.19-.33-.23.01,0,.1.07.25.18-.08-.05-.15-.1-.23-.15.14.1.29.2.43.29.05.03.1.07.15.1.02.01.03.02.05.03-.09-.05-.18-.11-.26-.17-.13-.09-.27-.18-.4-.27.06.05.13.09.19.13-.06-.04-.11-.07-.17-.11.08.05.17.12.27.18.09.06.18.12.26.18-.09-.06-.19-.11-.28-.17-.1-.06-.19-.13-.29-.19.05.04.1.07.16.12-.05-.03-.09-.06-.13-.08.08.06.19.12.3.19.08.06.17.11.26.17-.11-.06-.21-.13-.31-.19-.1-.06-.2-.13-.28-.18.04.02.07.05.12.08-.03-.02-.06-.04-.09-.05.14.09.28.18.42.27.11.07.22.14.32.2-.06-.03-.12-.07-.18-.11-.21-.13-.43-.27-.59-.37.05.03.1.07.14.1-.04-.02-.08-.05-.12-.07.06.04.13.08.2.13.08.05.15.1.23.15-.09-.05-.18-.1-.26-.15-.07-.04-.14-.09-.2-.13.03.02.07.04.1.07-.03-.02-.05-.03-.08-.05.22.15.45.29.69.43.03.02.06.04.09.06-.08-.05-.16-.09-.24-.14-.21-.13-.42-.25-.57-.35.03.02.06.04.09.06-.02-.01-.04-.02-.06-.04.05.03.11.07.16.1.12.08.24.16.36.24-.07-.04-.14-.08-.21-.13-.11-.07-.23-.14-.34-.22.05.03.09.06.14.09-.04-.02-.08-.05-.11-.07.06.04.12.08.19.12.09.06.17.11.26.17-.07-.04-.14-.08-.21-.12-.09-.06-.18-.11-.27-.17.05.04.11.08.18.12-.05-.03-.1-.06-.15-.09.31.2.64.39.96.57.02.01.04.02.06.03-.06-.03-.11-.06-.16-.09-.31-.18-.65-.37-.89-.52.05.03.09.06.14.09-.04-.02-.07-.04-.11-.06.09.05.17.11.26.16.1.06.2.12.3.18-.11-.06-.22-.12-.33-.19-.09-.05-.18-.11-.26-.16.03.02.07.05.1.07-.03-.01-.05-.03-.08-.04.06.04.12.07.18.11.32.2.64.39.97.57-.4-.21-.79-.44-1.18-.68.65.42,1.33.8,2.04,1.12,0,0,0,.01,0,.02,0,0,0,0,0,0,0,0,0,0,0,0,0,.02.02.03.04.05.04.11.09.48-.02,1.72,0,0-.03.15.02.19,0,0-.07.08-.06.18,0,.1.05.15.05.15,0,0-.1.06-.08.33,0,0-.03.04-.03.09s-.28,4.05-.28,4.05c0,0-.83.21-.72,1.18,0,0-.1.05-.11.09l-3.68-5.23s-.17-.26-.23-.24c0,0-.03-.26-.24-.29,0,0,.05-.12-.03-.23-.06-.09-1.07-1.68-1.38-2.17-.03-.1-.08-.26-.12-.39-.02-.07-.04-.13-.07-.21-.06-.21-.14-.45-.24-.71-.07-.22-.16-.45-.26-.71.06.17.12.34.17.49-.03-.07-.06-.14-.09-.22-.03-.08-.06-.17-.09-.25.02.06.04.12.06.18-.04-.09-.08-.19-.12-.28.06.14.11.26.16.39.02.05.03.1.05.15-.02-.04-.03-.08-.05-.12-.05-.13-.1-.26-.16-.4.02.06.05.12.07.17-.03-.08-.07-.15-.1-.23.07.17.14.33.2.49.01.03.02.06.03.09-.04-.1-.09-.21-.14-.32-.03-.07-.07-.15-.1-.23.02.04.03.08.05.12-.02-.04-.04-.08-.06-.13.04.08.07.16.1.24.04.09.07.17.1.26-.08-.17-.16-.36-.25-.56.03.06.05.12.08.18-.01-.03-.03-.06-.04-.09.08.18.15.36.22.52-.07-.15-.14-.32-.23-.5-.01-.03-.03-.06-.04-.08,0,0,0,.02.01.03,0-.01-.01-.02-.02-.04.02.03.03.07.04.1.05.12.1.23.14.34-.07-.15-.15-.32-.23-.49.03.06.06.12.08.18-.01-.03-.03-.06-.04-.1.11.25.21.48.29.68-.02-.06-.05-.11-.08-.17-.08-.18-.17-.38-.27-.58.01.03.03.06.04.09,0-.02-.02-.04-.03-.06.12.27.23.51.32.73-.1-.23-.21-.47-.34-.75,0,.01.01.02.02.03.05.11.1.22.14.33-.06-.13-.12-.26-.19-.41.08.18.16.35.23.5-.06-.13-.13-.28-.2-.43.04.1.09.19.13.29-.05-.11-.11-.23-.17-.35.03.06.06.13.09.19-.02-.05-.05-.11-.08-.16.05.1.09.2.13.3-.05-.11-.11-.23-.17-.35.12.25.23.48.32.69.02.05.04.11.07.16-.1-.24-.22-.5-.37-.8.05.11.1.22.15.33-.06-.12-.12-.25-.19-.39.04.08.07.16.11.23-.03-.06-.06-.13-.09-.19.05.1.09.19.13.28-.05-.1-.1-.2-.15-.31.14.29.26.55.37.79.02.04.04.09.05.13-.05-.11-.1-.22-.16-.34-.08-.17-.17-.36-.27-.56.03.07.06.13.09.2-.04-.08-.08-.16-.12-.25.05.11.1.22.15.32-.04-.08-.08-.16-.12-.25.03.06.06.12.09.18-.04-.09-.09-.18-.14-.27.12.25.23.47.32.68-.01-.03-.03-.06-.05-.09-.08-.17-.16-.34-.26-.53.03.07.06.13.09.19-.04-.08-.08-.16-.13-.24.08.17.16.32.23.47,0,.01.01.03.02.04-.07-.15-.15-.31-.23-.47.03.07.06.13.09.2-.04-.08-.08-.17-.13-.25.09.18.17.35.24.51-.07-.14-.14-.29-.23-.45.03.07.07.13.1.2-.04-.08-.08-.16-.12-.24.06.12.12.24.17.35-.01-.02-.02-.04-.03-.06-.04-.09-.09-.18-.13-.27.02.04.04.08.05.11-.03-.05-.06-.11-.08-.16.06.12.12.23.17.34.03.07.07.15.1.22-.05-.1-.1-.2-.16-.3-.03-.06-.06-.12-.09-.18,0,.02.02.04.03.06-.02-.04-.04-.08-.06-.12.05.1.1.2.15.3.01.03.03.05.04.08,0,0,0-.02-.01-.02-.05-.1-.11-.21-.16-.32.02.04.04.08.06.12-.03-.06-.06-.11-.09-.17.07.14.14.27.2.4.08.16.15.3.21.44-.11-.23-.24-.49-.39-.78.02.03.03.07.05.1-.02-.05-.05-.09-.07-.14.06.12.11.23.17.34-.05-.1-.11-.21-.17-.32.06.12.12.23.17.33-.06-.12-.13-.24-.2-.38.29.57.52,1.03.7,1.42,0,0,0,0,0,0-.1-.22-.22-.46-.36-.73-.1-.19-.2-.4-.32-.62.03.07.07.13.1.2-.04-.08-.09-.16-.13-.25.12.23.23.45.33.65-.1-.19-.2-.4-.32-.62.01.02.02.04.03.06-.01-.02-.02-.04-.03-.06.13.25.24.48.35.7-.1-.21-.22-.43-.35-.68.01.02.02.04.03.06-.02-.04-.04-.08-.06-.11.08.15.15.3.21.43-.06-.11-.12-.23-.19-.36.03.06.06.11.09.17-.04-.08-.09-.17-.14-.26.26.52.48.96.65,1.33,0,0,0,0,0,0-.1-.22-.22-.47-.36-.74-.08-.17-.17-.34-.27-.53.03.06.05.11.08.17-.03-.06-.07-.13-.1-.19.1.19.19.37.27.54.01.02.02.05.03.07,0-.01-.01-.03-.02-.04-.09-.17-.18-.36-.29-.56.02.05.05.09.07.14-.03-.06-.06-.12-.1-.18.11.21.21.41.3.59,0,0,0,0,0,0-.05-.1-.11-.2-.16-.31-.04-.07-.07-.14-.11-.21.01.03.03.06.04.08-.02-.04-.05-.09-.07-.13.05.11.11.21.16.31.06.13.13.26.18.38-.1-.2-.21-.42-.34-.66.01.03.03.06.04.08-.02-.05-.05-.09-.07-.14.09.19.18.36.26.52-.08-.15-.17-.32-.26-.49.07.14.14.28.21.41.2.39.36.72.5,1.01,0,0,0,0,0,.01-.13-.27-.28-.59-.47-.94-.08-.15-.16-.31-.25-.47.02.05.05.09.07.14-.03-.06-.07-.13-.1-.19.1.19.19.37.28.54-.08-.14-.16-.3-.24-.46.02.04.04.09.07.13-.03-.06-.06-.12-.1-.18.07.13.13.25.19.36-.07-.12-.14-.25-.21-.38.19.36.36.68.5.96.04.08.08.15.11.23-.04-.08-.08-.15-.12-.24-.14-.27-.29-.57-.47-.91.06.13.13.25.18.36-.06-.12-.13-.24-.2-.37.02.04.04.08.07.13-.01-.03-.03-.05-.04-.08.05.09.09.18.13.26-.06-.1-.12-.21-.18-.33.01.03.03.05.04.08.11.22.22.42.32.61-.11-.21-.24-.43-.37-.67.03.07.07.13.1.19.04.09.09.17.13.25-.04-.07-.08-.15-.12-.22-.03-.06-.07-.12-.1-.18,0,0,0,.02.01.02-.01-.03-.03-.05-.05-.08.07.12.13.24.19.36.05.09.1.18.14.27-.08-.14-.16-.28-.25-.44-.02-.04-.04-.08-.07-.12,0,.01.01.02.02.04-.02-.03-.04-.06-.05-.1.04.07.07.13.11.2.05.09.1.18.14.27-.08-.15-.18-.32-.27-.49.02.04.04.08.06.12-.01-.02-.02-.04-.03-.05.07.14.14.26.21.39-.07-.13-.15-.27-.24-.42.07.13.14.25.2.36-.06-.1-.12-.21-.18-.32.06.12.12.23.18.33-.07-.13-.15-.26-.23-.4,0,.02.02.03.03.05.07.13.13.25.19.36-.05-.09-.1-.18-.16-.28-.01-.02-.02-.04-.03-.05,0,0,0,.01,0,.02-.02-.03-.03-.05-.05-.08.04.07.08.14.12.21.01.02.03.05.04.07-.06-.09-.11-.19-.17-.29.12.2.22.4.33.57.03.06.07.12.1.18-.12-.21-.25-.45-.4-.7.05.08.09.16.13.24-.05-.09-.1-.18-.16-.27.09.17.18.33.26.48-.08-.13-.16-.28-.25-.42.05.08.09.16.13.24-.06-.1-.12-.2-.18-.31.02.04.05.08.07.12-.01-.02-.02-.04-.03-.06.25.43.45.8.63,1.12-.19-.33-.41-.72-.67-1.16.03.04.05.09.07.13.07.12.13.24.2.35-.09-.16-.19-.32-.3-.5.04.07.08.13.11.2-.03-.05-.06-.09-.08-.14.07.13.14.25.21.37-.08-.13-.16-.26-.25-.41.07.13.14.25.21.37-.06-.1-.12-.2-.18-.31.12.22.23.41.34.6-.12-.2-.25-.42-.39-.66.02.03.03.06.05.08,0-.01-.02-.03-.02-.04.12.21.23.4.33.58-.1-.17-.22-.36-.34-.56,0,.01.02.03.02.04-.02-.04-.04-.07-.06-.11.28.48.51.88.7,1.22-.19-.33-.41-.71-.68-1.15,0,0,0,0,0,0,0-.01-.01-.02-.02-.03.02.04.05.08.07.12.07.12.14.24.2.35-.09-.15-.19-.32-.3-.49.07.12.13.23.19.33-.05-.09-.11-.18-.17-.28.07.13.14.25.21.36-.08-.13-.16-.26-.25-.4.09.15.17.29.25.42-.07-.11-.14-.23-.21-.35.09.15.17.3.25.44-.1-.16-.2-.33-.31-.51.03.05.06.1.09.15-.02-.03-.04-.06-.06-.1.11.19.21.36.31.53-.11-.18-.23-.37-.35-.57.03.05.06.11.09.16-.02-.03-.04-.07-.06-.1.13.21.24.4.35.59-.12-.2-.25-.41-.4-.64.04.06.07.12.1.17-.03-.04-.05-.09-.08-.13.06.11.12.21.18.31-.07-.11-.14-.22-.22-.34.11.19.22.37.32.54-.09-.15-.19-.31-.3-.48.04.07.08.13.12.2-.05-.08-.11-.16-.16-.25.15.25.29.47.42.68.06.11.12.2.18.3-.16-.27-.35-.57-.57-.92.05.08.1.17.15.25-.06-.09-.11-.18-.17-.28.06.1.12.2.18.29-.05-.08-.1-.17-.16-.25.09.15.17.28.25.41-.09-.14-.19-.3-.29-.46.05.08.1.16.14.24-.04-.06-.08-.13-.13-.2.06.11.13.21.19.3-.07-.11-.14-.22-.22-.34.23.38.44.71.62,1-.06-.09-.12-.19-.19-.29-.12-.2-.25-.41-.4-.63.06.1.12.2.18.3-.08-.12-.16-.24-.24-.37.12.2.24.38.34.55,0,0,0-.01-.01-.02-.09-.15-.19-.3-.3-.46.04.07.08.14.13.21-.06-.09-.12-.17-.18-.27.12.2.24.38.35.55,0,0,0,0,0,0-.1-.16-.21-.32-.32-.5.16.26.3.49.44.7-.14-.22-.3-.46-.47-.72.06.1.12.19.17.28-.05-.08-.11-.17-.17-.25.03.05.06.1.09.15-.04-.07-.09-.13-.13-.2.1.16.19.31.28.45-.08-.12-.17-.25-.26-.38.12.18.22.35.33.51-.11-.17-.24-.36-.37-.56.16.26.31.49.45.7-.05-.07-.09-.14-.14-.22-.08-.13-.17-.26-.27-.41.02.04.05.08.07.11-.04-.06-.09-.13-.13-.2.09.14.17.26.25.39-.07-.11-.14-.22-.22-.33.07.1.13.2.19.3-.07-.1-.14-.21-.22-.32.22.34.42.64.59.9.12.18.22.35.32.5.01.02.03.04.04.07,0,0,0,0,0,.01-.25-.39-.55-.86-.94-1.44.08.13.16.25.23.36-.09-.13-.18-.27-.28-.42.07.12.14.23.21.33-.06-.09-.12-.18-.19-.28.07.12.15.23.21.33-.08-.12-.16-.24-.25-.37.08.13.16.25.23.36-.06-.09-.13-.19-.2-.29.41.62.73,1.11.99,1.5,0,0,0,.01,0,.02-.27-.41-.6-.91-1.03-1.55.07.11.14.21.2.31-.06-.09-.13-.19-.2-.29.04.06.08.12.11.17-.05-.07-.1-.14-.15-.22.15.24.3.45.43.65-.12-.18-.26-.38-.4-.59.05.08.11.16.16.24-.06-.09-.13-.18-.2-.28.2.3.38.57.54.81.03.04.05.08.08.12-.18-.27-.39-.58-.63-.93.06.09.12.18.18.27-.04-.06-.09-.13-.13-.19.1.15.19.29.27.42-.1-.14-.2-.29-.31-.45.02.03.04.07.07.1-.03-.05-.07-.1-.1-.14.11.17.22.33.32.48-.1-.14-.2-.28-.31-.44.07.1.13.2.2.29-.06-.09-.12-.18-.19-.27.19.29.37.55.53.78-.03-.04-.05-.07-.08-.11-.14-.2-.29-.42-.46-.66.04.07.09.13.13.19-.05-.08-.11-.15-.16-.23.15.23.3.44.43.63-.05-.07-.11-.15-.16-.23-.08-.11-.16-.23-.25-.36.02.03.04.05.05.08-.03-.04-.06-.08-.09-.12.1.14.19.28.28.4.02.03.04.06.06.09-.09-.13-.19-.27-.29-.41.17.25.33.48.47.69-.16-.22-.33-.47-.52-.74.12.17.23.34.33.49-.1-.14-.21-.29-.32-.45.03.05.07.1.1.14-.04-.06-.09-.12-.13-.19.13.19.25.36.36.52-.11-.15-.22-.3-.34-.47.02.03.05.07.07.1-.03-.04-.06-.08-.09-.13.35.51.65.94.9,1.29,0,0,0,0,0,0-.18-.25-.38-.54-.62-.87-.08-.11-.17-.23-.25-.36.02.03.04.06.06.09-.03-.05-.07-.1-.1-.14.11.15.2.3.3.43-.09-.12-.18-.25-.28-.39.04.05.08.11.11.16-.04-.05-.07-.1-.11-.15.17.24.32.46.46.66-.12-.17-.25-.34-.39-.54-.03-.05-.07-.09-.1-.14.13.19.25.37.37.53-.12-.16-.24-.34-.38-.52.05.08.1.15.15.22-.04-.06-.09-.12-.14-.19.1.14.19.28.28.41-.08-.12-.17-.24-.27-.36.04.05.07.1.1.15-.05-.06-.1-.13-.15-.2.13.18.25.35.36.51-.12-.15-.24-.32-.37-.49.05.06.09.12.13.18-.04-.05-.08-.11-.12-.16.08.12.17.24.24.35-.06-.08-.13-.17-.2-.26-.02-.02-.04-.05-.05-.07,0,0,.01.02.02.03,0-.01-.02-.03-.03-.04.02.03.04.06.07.09.14.2.27.38.39.55-.15-.2-.31-.42-.49-.65.06.08.11.16.17.24-.05-.06-.09-.13-.14-.19.09.12.17.24.25.35-.09-.12-.18-.24-.28-.37.04.05.07.1.11.15-.03-.04-.06-.07-.08-.11.08.11.15.21.22.31-.08-.11-.17-.22-.26-.34.08.11.16.22.24.32-.07-.09-.14-.18-.21-.27.09.12.18.24.26.36-.1-.13-.2-.26-.3-.4.18.25.35.48.51.69,0,0-.01-.01-.02-.02-.15-.19-.3-.4-.48-.63.06.09.12.17.18.26-.07-.09-.14-.18-.22-.28.12.16.24.32.34.46-.1-.13-.21-.27-.32-.42.1.14.19.26.28.38-.1-.13-.2-.26-.31-.41.05.06.09.12.13.18-.04-.05-.08-.1-.12-.15.13.17.24.33.35.48-.12-.16-.25-.32-.39-.5.04.05.08.1.11.15-.03-.04-.06-.08-.09-.11.1.13.19.25.27.37-.09-.12-.19-.24-.29-.37.09.12.17.23.26.34-.08-.11-.17-.22-.26-.33.09.12.17.23.25.34-.09-.11-.18-.23-.28-.36.16.22.31.41.45.6-.13-.17-.27-.35-.43-.55.08.1.15.2.22.3-.08-.1-.17-.21-.25-.32.12.16.24.31.34.45-.11-.13-.22-.27-.34-.42.16.21.3.4.44.58,0,0-.01-.01-.02-.02-.14-.17-.28-.36-.44-.56.04.06.09.12.13.18-.03-.04-.07-.09-.11-.13.14.18.26.35.39.5-.13-.17-.28-.35-.43-.55.06.08.11.15.17.22-.05-.06-.1-.13-.15-.19.09.12.18.24.27.35-.09-.11-.18-.23-.28-.35.11.15.22.28.32.41-.1-.12-.2-.25-.31-.39.06.08.12.16.18.23-.07-.08-.13-.17-.2-.26.18.23.34.45.5.64-.06-.07-.12-.15-.18-.23-.09-.12-.19-.24-.29-.37.03.05.07.09.1.13-.04-.05-.08-.09-.12-.14.1.12.19.24.28.35.05.06.09.12.14.18-.13-.16-.27-.33-.42-.52.02.03.04.06.07.09-.03-.03-.05-.06-.08-.1.08.11.16.21.23.31-.07-.09-.15-.19-.23-.29.05.06.09.12.13.17-.04-.05-.08-.1-.12-.15.13.17.25.32.37.47-.13-.15-.26-.32-.4-.49.05.07.11.14.16.2-.05-.06-.1-.12-.15-.19.11.14.21.27.31.4-.1-.12-.2-.25-.31-.38.06.08.13.16.19.24-.06-.07-.12-.14-.18-.22.06.07.12.15.17.22-.07-.08-.14-.16-.21-.25.17.21.33.41.48.59,0,0,0,0,0,0-.03-.03-.05-.07-.08-.1-.12-.14-.24-.3-.37-.46.03.04.07.08.1.13-.03-.04-.07-.08-.1-.13.06.08.12.15.18.22-.05-.07-.11-.13-.17-.2.11.14.21.27.31.39-.11-.13-.22-.26-.34-.4.04.05.08.1.12.15-.04-.05-.08-.09-.12-.14.08.1.16.2.24.3-.08-.09-.15-.18-.23-.28.08.11.17.21.25.3-.08-.09-.16-.19-.24-.29.12.14.23.28.33.41,0,0,0,0-.01-.01-.11-.13-.22-.26-.34-.41.03.04.06.07.09.11-.03-.03-.06-.07-.09-.1.11.14.21.26.31.38-.1-.11-.2-.23-.3-.35.02.03.05.06.07.08-.02-.03-.05-.06-.07-.09.13.16.25.32.37.46-.12-.15-.26-.3-.4-.47.04.05.08.1.13.15-.04-.04-.08-.09-.12-.14.06.07.11.13.16.2-.05-.06-.11-.12-.16-.19.09.11.18.22.26.32-.08-.1-.17-.2-.26-.3.04.04.07.09.11.13-.05-.05-.09-.11-.14-.16.16.19.31.37.45.53,0,0,0,.01.01.02-.14-.16-.29-.33-.45-.52.06.07.11.13.16.2-.05-.06-.11-.12-.16-.19.07.09.14.17.21.25-.07-.07-.13-.15-.2-.23.06.07.11.13.16.19-.06-.07-.13-.15-.2-.22.2.24.38.45.55.64.03.03.06.07.09.1.02.03.05.05.07.08.12.14.23.26.34.37,0,0,0,0,0,.01-.04-.05-.09-.1-.14-.15-.26-.29-.56-.63-.92-1.04.04.05.09.1.13.15-.04-.04-.08-.09-.12-.14.06.07.11.13.16.2-.05-.06-.11-.12-.16-.19.1.12.2.24.3.35-.1-.12-.21-.24-.32-.37.05.06.09.11.14.16-.05-.05-.09-.11-.14-.16.14.17.28.32.4.47-.12-.13-.25-.28-.38-.43.12.14.24.28.35.4-.11-.12-.23-.26-.35-.4.07.08.13.15.19.23-.07-.08-.15-.16-.22-.25.07.08.13.15.19.23-.06-.07-.13-.14-.19-.21.11.13.22.25.32.37-.1-.11-.21-.23-.32-.35.43.5.79.89,1.1,1.21,0,0,0,0-.01,0-.3-.31-.64-.7-1.07-1.18.11.13.21.25.31.36-.1-.11-.2-.22-.3-.34.06.07.11.13.16.19-.06-.07-.12-.14-.19-.21.17.2.34.39.49.56-.02-.02-.04-.04-.06-.06-.13-.15-.28-.31-.43-.48.07.08.14.17.21.24-.06-.07-.13-.14-.2-.22.15.18.3.34.43.49.03.04.07.08.1.12-.03-.04-.07-.07-.1-.11-.14-.16-.3-.34-.46-.52.08.09.15.18.23.27-.08-.08-.15-.17-.23-.26.16.19.31.36.45.51-.14-.15-.28-.31-.44-.49.07.08.14.16.2.24-.07-.07-.14-.15-.22-.23.17.19.32.36.47.52.11.12.21.23.3.33,0,0-.02-.02-.03-.02-.09-.1-.19-.2-.29-.31-.14-.16-.3-.34-.47-.53.08.09.15.18.22.26-.06-.07-.12-.14-.19-.21.02.02.04.05.06.07-.03-.03-.05-.06-.08-.09.12.14.23.26.33.38-.11-.12-.22-.24-.33-.37.07.08.14.16.2.23-.07-.08-.14-.16-.22-.24.1.11.19.22.28.32-.04-.05-.09-.09-.13-.14-.05-.06-.1-.11-.15-.17.01.01.02.03.04.04,0,0,0-.01-.02-.02.02.02.04.04.06.07.12.14.23.27.34.39-.07-.08-.15-.16-.22-.24-.06-.07-.12-.13-.19-.2.01.01.02.03.03.04-.01-.02-.03-.03-.04-.05.06.07.11.13.17.19.14.16.28.31.4.45,0,0,0,0,0,0-.17-.18-.36-.39-.56-.61.07.08.14.16.2.23-.07-.08-.15-.17-.23-.25.1.12.19.23.28.33-.04-.04-.08-.09-.12-.13-.05-.06-.1-.11-.16-.17,0,.01.02.02.03.03,0,0-.02-.02-.02-.03.03.04.06.07.09.11.07.08.14.16.21.24-.09-.1-.19-.21-.3-.32.03.04.06.07.09.11-.04-.04-.08-.09-.12-.14.09.11.18.21.26.3-.08-.09-.16-.18-.25-.27.03.03.05.06.08.09-.01-.02-.03-.03-.04-.05.13.14.25.28.36.4-.12-.13-.25-.26-.38-.4.02.02.04.04.05.06-.03-.03-.06-.06-.09-.1.17.19.33.37.49.53,0,0,0,0,0,0-.15-.15-.3-.32-.47-.5.03.04.07.08.1.11-.03-.03-.05-.05-.08-.08.13.15.26.29.38.42,0,.01.02.02.03.03-.06-.06-.11-.12-.17-.18-.09-.09-.18-.19-.27-.29.02.02.03.04.05.06.01.01.02.02.03.03.09.11.19.2.27.3-.11-.11-.23-.23-.35-.36.04.05.09.1.13.15-.04-.04-.07-.07-.11-.11.14.15.27.29.39.42,0,0,0,0,0,0-.03-.03-.07-.07-.1-.11-.09-.1-.19-.2-.29-.31.02.02.04.04.06.06,0,0-.01-.02-.02-.02.04.04.07.08.11.12.07.08.14.15.2.22-.12-.12-.24-.24-.37-.38.08.08.15.16.22.24-.06-.06-.12-.12-.18-.19.12.13.24.25.35.37,0,0,0,0,0,0-.12-.12-.25-.26-.39-.4.09.1.18.2.26.29-.08-.08-.15-.16-.23-.24.06.07.12.14.18.2-.07-.07-.14-.14-.21-.22.14.15.27.29.39.41,0,0,0,0,0,0-.11-.11-.22-.22-.33-.34.06.07.12.13.18.19-.08-.08-.17-.17-.25-.26.2.21.38.4.55.56-.15-.15-.32-.31-.5-.5.01.01.02.02.03.04-.02-.02-.04-.04-.06-.06.2.21.38.4.55.57-.08-.08-.17-.16-.25-.25-.07-.07-.15-.15-.23-.23.03.03.05.06.08.09-.05-.05-.11-.11-.17-.17.15.16.29.3.42.43.04.04.08.09.13.13-.13-.12-.27-.26-.41-.4-.05-.05-.1-.1-.15-.15.18.19.34.36.5.52-.02-.02-.04-.04-.06-.05-.13-.12-.26-.26-.41-.41.06.07.12.13.18.19-.04-.04-.08-.08-.12-.12.09.09.18.18.26.26.05.05.1.1.14.14-.01-.01-.03-.02-.04-.03-.14-.13-.29-.28-.45-.44.11.12.22.22.32.33-.04-.03-.08-.07-.11-.1-.05-.05-.11-.11-.16-.16.04.04.08.08.12.12h-.02s.01,0,.02,0c.11.12.22.23.32.33-.15-.13-.3-.28-.47-.44.25.25.47.47.68.65-.01-.01-.03-.02-.04-.03-.19-.16-.39-.35-.62-.57.15.15.3.29.43.41-.12-.1-.25-.2-.38-.32.2.18.38.33.55.47.14.12.27.24.4.34,0,0,0,0,0,0,.08.07.74.61.76.62l1.58,2.01s.01.04.12.03c0,0-.07.3.24.33,0,0-.06.17.12.29.18.13,3.68,5.29,3.68,5.29,0,0-.7.55-.55,1.36.16.81.48.95.54,1.26.06.31.19,1.15.19,1.23,0,.08-.1.59.16.82.26.24.67.42.67.42,0,0-.04.2.78.7.82.5,1.64,1.18,1.67,1.18.03,0,.88.39,1.12.55.24.16.85.6,1.09,1.13,0,0,0,0,0,.01,0,0-.02.02-.05.06-9.21-4.38-15.61-13.74-15.69-24.62-.03-4.62,1.08-8.99,3.08-12.83C46.2,6.84,53.81,1.24,62.82.02c-.42-.02-.85-.02-1.28-.02-16.63.11-30.02,13.68-29.9,30.31.05,8.04,3.25,15.32,8.42,20.68,5.52,5.74,13.3,9.28,21.89,9.22,6.17-.04,11.9-1.94,16.66-5.16.21-.14.42-.29.63-.44,2.39-1.71,4.51-3.75,6.31-6.07,1.27-1.64,2.38-3.41,3.29-5.29-.02.03-.22-.53-.3-.74ZM59.47,39.38c-.07.04-.13.08-.2.12-.01,0-.02.01-.03.02-.02,0-.04.02-.06.03.09-.05.19-.11.29-.17ZM59.41,39.45c.06-.03.11-.06.17-.09-.12.07-.24.14-.35.2-.02.01-.04.02-.06.03.08-.05.16-.09.25-.14ZM58.88,39.73s-.03.02-.05.03c-.04.02-.09.04-.13.06.06-.03.11-.06.17-.09ZM58.98,39.1s-.02.01-.03.02c-.08.05-.15.1-.22.15h0c.08-.05.16-.11.25-.17ZM58.13,38.64s.06-.06.09-.09c-.03.03-.06.06-.09.09,0,0,0,0,0,0ZM58.44,39.59s-.01,0-.02.01c.06-.04.12-.08.18-.12-.05.04-.11.07-.16.11ZM58.69,39.39c-.14.1-.27.18-.4.27,0,0,.02-.02.03-.02.12-.07.24-.15.37-.24ZM58.13,39.58s.01-.01.01-.02c.02-.02.05-.03.07-.05.03-.02.07-.04.1-.07-.06.04-.12.09-.18.13ZM58.86,38.99s-.07.06-.11.08c-.04.03-.08.06-.12.09,0,0,0,0,0,0,.07-.05.15-.11.22-.16ZM59.23,38.47c-.08.07-.16.13-.24.2-.24.2-.46.37-.65.53,0,0-.02.01-.02.02.27-.21.57-.45.91-.74ZM59.09,38.44c-.05.05-.11.09-.16.14-.07.06-.14.12-.21.18.12-.1.24-.2.37-.32ZM58.26,39.02s.03-.02.04-.04c-.01.01-.03.03-.04.04,0,0,0,0,0,0ZM58.06,39.3s.09-.08.14-.12c.09-.07.18-.14.27-.22-.15.12-.29.24-.42.34,0,0,0,0,0,0ZM58.5,39.01c-.16.13-.31.26-.45.37-.01,0-.02.02-.04.02.15-.12.31-.25.49-.4ZM57.87,37.94s0,0,0,0c0,0,0,0,0,.01,0,0,0,0,0-.01ZM58.06,40.17c-.12.06-.23.11-.34.16l.34-.16ZM57.45,38.27s0,0,0,0c.01-.02.02-.04.04-.06l.02-.03s-.04.06-.06.09ZM57.13,37.99c.17-.31.37-.66.62-1.07-.05.08-.09.16-.13.24-.22.36-.4.67-.54.95.02-.04.04-.09.06-.13ZM53.48,34.14s.1-.04.15-.06c-.09.04-.17.08-.26.12-.02,0-.04.02-.06.02.06-.03.11-.05.17-.08ZM53.41,33.8c.07-.04.13-.08.19-.11-.06.04-.11.08-.18.12,0,0,0,0,0,0-.04.02-.08.05-.12.07.04-.03.08-.05.11-.08ZM53.34,33.6c.12-.09.22-.17.31-.24-.09.07-.18.15-.29.23-.05.04-.1.08-.16.12-.03.02-.06.04-.09.07.08-.06.16-.12.23-.17ZM52.49,34.22s0,0,0,0c0,0,.01,0,.02-.01,0,0,0,0,0,0,0,0-.01,0-.02.01ZM52.59,34.23c.07-.05.14-.09.21-.14.02-.01.04-.02.06-.04-.06.04-.13.09-.19.13-.02.01-.05.03-.07.04ZM52.74,33.93s.02-.01.02-.02c0,0,.01,0,.02-.01-.01,0-.02.02-.03.03,0,0,0,0,0,0ZM52.8,34.06s.01,0,.02-.02c0,0,0,0,0,0-.01,0-.02.01-.03.02ZM52.97,34.18s.02,0,.02-.01c-.04.02-.07.04-.11.06,0,0-.01,0-.02,0,.04-.02.07-.04.11-.06ZM52.88,34.02s0,0,.01,0c0,0,0,0,0,0,0,0,0,0,0,0ZM52.89,34.01s0,0,.01-.01c0,0,0,0,.01,0,0,0-.02.01-.03.02ZM52.96,34.21s.04-.02.06-.03c-.05.03-.1.05-.15.08-.01,0-.03.01-.04.02.04-.02.08-.04.13-.07ZM52.79,34.19s-.02,0-.03.01c0,0,.01,0,.02,0,0,0,.02,0,.03-.01,0,0,0,0-.01,0ZM52.83,34.2s-.01,0-.02,0c0,0-.02,0-.03.01,0,0,0,0,0,0,.01,0,.03-.01.04-.02ZM52.77,34.18s-.01,0-.02.01c0,0,.01,0,.02-.01,0,0,0,0,0,0,0,0,0,0,0,0ZM52.79,34.24s.03-.01.04-.02c-.02,0-.03.02-.05.03,0,0-.02,0-.03.01.01,0,.03-.01.04-.02ZM52.82,34.3s.03-.01.04-.02c-.02.01-.05.02-.07.04,0,0-.02,0-.03.01.02,0,.04-.02.06-.03ZM52.82,34.32s.03-.01.05-.02c0,0,.01,0,.02,0-.02,0-.03.02-.05.02-.01,0-.03.01-.04.02,0,0,.02,0,.02-.01ZM52.85,34.37s.08-.03.12-.05c-.01,0-.03.01-.04.02-.04.02-.08.03-.11.04.01,0,.02-.01.04-.02ZM52.96,34.3s.03-.01.05-.02c.01,0,.02,0,.03-.01-.02,0-.04.02-.06.03,0,0-.01,0-.02,0ZM53.01,34.36s.02,0,.03-.01c-.01,0-.03.01-.04.02,0,0-.01,0-.02,0,.01,0,.02,0,.03-.01ZM53.02,34.24s-.05.02-.08.03c.05-.02.1-.05.11-.05,0,0-.02,0-.03.02ZM52.76,34.17s0,0,0,0c-.01,0-.03.02-.04.03,0,0-.01,0-.02.01.02-.01.04-.02.06-.03ZM52.71,34.51c.1-.04.19-.07.29-.11.02,0,.04-.02.06-.02-.12.05-.24.09-.35.14ZM53.02,34.13s-.03.02-.05.02c.02-.01.04-.02.06-.03.04-.02.08-.04.12-.06-.04.02-.08.04-.12.07ZM53.08,34.07s.04-.02.05-.03c.03-.02.06-.03.09-.05-.03.02-.06.03-.09.05-.02,0-.04.02-.05.03ZM53.23,34.2s-.04.02-.06.02c.02-.01.04-.02.07-.03.03-.01.07-.03.1-.04-.04.02-.08.04-.12.05ZM53.29,34.14c-.08.03-.15.07-.22.09.02,0,.04-.02.06-.03.1-.04.21-.1.34-.15l-.18.09ZM53.49,33.99c.22-.11.4-.2.51-.26-.1.06-.25.14-.41.22-.09.04-.19.09-.28.13.06-.03.12-.06.18-.09ZM53.32,34.1s.1-.04.14-.07c-.06.03-.13.06-.19.09,0,0-.02,0-.02.01.02-.01.05-.02.07-.04ZM53.13,33.96s.03-.02.04-.02c-.03.02-.06.04-.09.06.02-.01.03-.02.05-.03ZM53.19,33.95s-.02.01-.03.02c-.02,0-.03.02-.05.03.03-.01.05-.03.08-.04ZM53.06,34.05c.07-.04.14-.08.22-.12-.04.02-.09.05-.13.07-.04.02-.08.04-.12.06,0,0,.02-.01.02-.02ZM53.08,34.06s-.03.02-.05.03c-.03.01-.05.03-.08.04,0,0,.01,0,.02-.01.03-.02.07-.04.1-.05ZM52.96,33.88s-.04.03-.07.05c.01,0,.02-.02.03-.03.01-.01.03-.02.03-.02ZM53.26,33.43c-.15.13-.29.25-.42.36-.02.02-.04.03-.06.05.07-.06.13-.11.2-.17.09-.08.19-.16.28-.24ZM52.75,33.84c.09-.07.18-.15.26-.23-.03.02-.05.05-.08.07-.08.07-.15.13-.22.18.01,0,.02-.02.03-.03ZM52.95,33.56s-.06.06-.09.08c0,0-.01.01-.02.02.01-.01.03-.03.04-.04.02-.02.04-.04.07-.06ZM52.88,33.53c.07-.07.16-.16.25-.24-.07.07-.14.14-.21.2-.03.03-.06.06-.09.08.01-.01.03-.03.04-.04ZM52.92,33.51s.08-.08.13-.12c-.09.09-.18.17-.24.23,0,0-.01.01-.02.02.04-.04.08-.08.13-.13ZM52.77,33.71s.03-.03.04-.04c0,0-.01.01-.02.02-.01.01-.03.02-.04.04,0,0,0,0,.01-.01ZM52.7,33.67s-.07.06-.1.1c0,0,.01-.01.02-.02,0,0,.01-.01.02-.02.02-.02.04-.04.07-.07.02-.02.04-.04.07-.07-.02.02-.05.05-.07.08ZM52.61,33.74s.04-.04.05-.06c.01-.01.03-.03.04-.04-.02.02-.05.05-.07.07,0,0-.02.02-.03.03ZM52.69,33.63s-.05.06-.08.08c0,0,0,0,0,0,.03-.03.05-.06.08-.09.07-.07.14-.15.2-.22-.07.07-.13.15-.2.22ZM52.61,33.69s.07-.08.11-.12c.02-.02.04-.04.06-.07-.05.05-.09.1-.14.16,0,0-.02.02-.03.03ZM53.1,33.24s.06-.06.09-.09c-.02.03-.05.05-.07.08-.02.03-.05.05-.07.08.02-.02.04-.04.06-.06ZM52.98,33.39c.09-.09.18-.18.27-.27-.11.11-.21.22-.32.33.02-.02.04-.04.05-.06ZM52.88,33.44s-.01.01-.02.02c.03-.03.06-.07.09-.1-.02.03-.05.05-.07.08ZM52.76,33.42c.05-.06.1-.12.15-.18-.05.06-.09.11-.13.16-.02.02-.04.05-.06.07.01-.02.03-.04.05-.06ZM52.61,33.57s.05-.06.08-.09c-.02.02-.03.04-.05.06-.02.02-.04.04-.05.06,0,0,.01-.02.02-.03ZM52.71,33.56s.05-.05.07-.08c-.06.06-.11.13-.17.19-.01.02-.03.03-.04.05.05-.05.1-.11.14-.16ZM52.69,33.84s.05-.04.07-.06c-.07.07-.14.13-.19.18,0,0-.01,0-.02.01.04-.04.09-.08.14-.13ZM52.53,34.03s.02-.01.02-.02c-.01.01-.02.02-.03.03,0,0,0,0,0,0ZM52.48,34.19s.06-.04.09-.07c0,0-.02.02-.03.02-.02.02-.05.03-.07.05,0,0,0,0,.01,0ZM52.21,34.29s.02-.02.03-.03c.02-.02.05-.04.07-.06-.02.02-.04.03-.06.05-.02.01-.03.03-.05.04ZM52.42,34.48s0,0-.01,0c0,0,.02,0,.02-.01,0,0,0,0,.01,0,0,0-.02,0-.02.01ZM52.42,34.3s.02-.02.04-.02c-.02.01-.04.03-.06.04,0,0,.02-.01.02-.02ZM52.35,34.57s-.05.02-.07.02c0,0,.01,0,.02,0,.03,0,.05-.02.08-.03-.01,0-.02,0-.03.01ZM52.23,33.67s-.01.02-.02.03c0,0,0,.01-.01.02,0-.02.02-.03.03-.05ZM52.26,34.17s.06-.05.09-.08c-.01.01-.03.03-.04.04-.04.04-.08.07-.12.11.02-.02.05-.04.07-.07ZM52.08,33.88s.06-.09.08-.14l-.06.09s-.03.05-.05.08c0,0,0,0,0,0,0-.01.02-.03.03-.04ZM52.11,34.69h0s-.05.02-.08.02c.03,0,.05-.02.08-.02ZM52.06,34.75s-.03,0-.04.01h0s.03,0,.04-.01ZM51.95,33.92s-.01.03-.02.05c0,0,0,0,0,.01,0,0,0,0,0,0,.01-.02.02-.04.03-.07ZM51.81,33.25s0,.04,0,.05c0,.03-.01.06-.02.09,0-.04.02-.09.02-.14ZM51.7,33.16s0,0,0,0c0,.02,0,.04,0,.06,0-.02,0-.04,0-.06ZM51.47,33.37s0,0,0,0c0-.03,0-.06,0-.1,0-.01,0-.03,0-.05,0,.05,0,.1,0,.14ZM50.03,33.51s-.1-.09-.14-.13c-.1-.09-.18-.18-.26-.26.08.08.17.17.28.27.06.06.13.13.2.2,0,0,0,0,0,0-.03-.03-.06-.05-.09-.08ZM49.8,33.58s0,0,0,0c-.06-.05-.11-.09-.16-.14.05.04.11.09.17.14.03.03.07.06.1.09-.04-.03-.07-.06-.11-.08ZM49.83,33.98c-.09-.05-.17-.1-.26-.15.04.02.08.05.13.07.05.03.1.06.16.1,0,0-.02-.01-.03-.02ZM51.03,33.65s-.01-.02-.02-.03c0,0,0-.02-.01-.03,0,.02.02.04.03.06ZM50.88,33.54s-.02-.04-.04-.06c0,0,0-.02-.01-.02.02.03.04.06.05.09ZM50.9,34.07s.04.05.07.08c-.04-.04-.08-.09-.12-.13-.01-.02-.02-.03-.04-.05.03.03.06.07.09.1ZM50.95,34.22s-.03-.03-.05-.05c-.02-.02-.04-.04-.06-.06.03.03.05.05.08.08,0,.01.02.02.03.03ZM50.73,34.19s.02.02.03.03c-.03-.02-.05-.05-.08-.07.02.01.03.03.05.04ZM50.69,34.36s.02,0,.02.01c0,0,.01,0,.02.01,0,0-.01,0-.02-.01,0,0-.01,0-.02-.01ZM50.71,34.5s0,0,0,0h0s0,0,0,0ZM50.69,34.08s-.01-.01-.02-.02c0,0-.01-.01-.02-.02.01.01.03.03.04.04ZM50.62,33.87s.02.02.04.04c0,0,0,0,0,.01,0,0-.03-.03-.05-.05ZM50.67,34.09s.01.01.02.02c0,0,0,0,0,0,0,0-.01-.01-.02-.02,0,0,0,0,0,0ZM50.7,33.65s-.04-.06-.06-.08c-.05-.07-.09-.14-.14-.21.02.03.05.07.07.1.04.06.09.13.13.19ZM50.63,33.58s-.02-.03-.04-.05c-.04-.06-.08-.11-.11-.17.02.03.04.06.07.1.03.04.06.08.08.12ZM50.56,33.39s0,.01.01.02l.03.04s-.02-.04-.04-.06ZM50.63,33.44s.02.02.02.04c0-.01-.02-.03-.03-.05-.02-.03-.04-.06-.06-.09.02.04.05.07.07.1ZM50.51,33.28s.02.03.03.05c-.02-.03-.04-.06-.06-.09-.03-.05-.07-.11-.11-.17.05.07.1.14.14.21ZM50.12,32.95s.05.07.07.1c.02.02.03.05.05.07-.02-.03-.04-.06-.06-.09-.02-.03-.04-.06-.06-.09ZM50.03,32.88c.09.11.17.23.26.34.02.02.03.04.05.07-.1-.13-.2-.27-.31-.4ZM50.38,33.29s-.06-.08-.08-.12c.03.05.07.09.1.14,0,0-.01-.01-.02-.02ZM50.4,33.28c.05.07.1.14.15.22.02.03.04.06.06.09-.02-.03-.04-.06-.06-.08-.05-.08-.1-.15-.16-.23ZM50.62,33.61s-.02-.02-.02-.03c-.02-.03-.04-.05-.06-.08.01.02.02.03.04.05.02.02.03.04.05.07ZM50.47,33.45s.04.05.06.07c.02.03.04.05.06.07,0,0,.01.02.02.02,0,0,.01.01.02.02-.03-.04-.06-.07-.09-.11-.02-.03-.04-.06-.06-.09ZM50.37,33.37s.03.04.04.05c-.02-.03-.05-.06-.08-.1-.06-.08-.13-.16-.2-.25.09.11.17.21.24.3ZM50.21,33.2s.08.1.12.15c.04.06.08.11.12.15,0,0-.01-.02-.02-.03-.06-.07-.13-.17-.21-.27ZM50.31,33.41s.02.03.04.04c0,.01.02.02.03.03-.02-.03-.04-.05-.06-.08ZM50.44,33.54s.01.02.02.02c0-.01-.02-.02-.03-.04-.01-.01-.02-.03-.03-.04.01.02.03.04.04.05ZM50.42,33.59s.05.06.08.09c.05.06.1.12.14.17,0,0,0-.01-.01-.02-.06-.07-.13-.15-.21-.25ZM50.61,34.13s-.07-.06-.1-.08c-.06-.05-.12-.1-.18-.15.03.03.07.06.1.08.06.05.12.1.18.15ZM50.1,33.91s.07.05.1.07c-.02-.01-.03-.02-.05-.03-.06-.04-.13-.09-.19-.14.05.03.09.06.14.09ZM49.98,33.79s.05.04.08.06c.02.01.03.02.05.04-.02-.01-.03-.02-.05-.03-.03-.02-.05-.04-.08-.06ZM50.15,34s.08.06.13.08c.03.02.06.04.09.06,0,0,0,0-.01,0-.02-.01-.05-.03-.07-.04-.05-.03-.09-.06-.13-.09ZM50.22,34.1s-.05-.03-.07-.04c-.01,0-.02-.01-.03-.02.02.01.06.04.1.06ZM50.3,34.13s.03.02.04.02c0,0,.02.01.02.02-.01,0-.03-.01-.04-.02-.02,0-.03-.02-.05-.03,0,0,.01,0,.02.01ZM50.3,34.12s.03.02.04.02c.02.01.04.02.06.04,0,0-.02,0-.03-.01-.02-.02-.04-.03-.07-.04ZM50.38,34.1s-.07-.05-.1-.07c.01.01.03.02.04.03.03.02.06.04.09.06,0,0-.02-.01-.03-.02ZM50.29,33.83s0,0,.01,0c0,0,0,0,.01.01,0,0,0,0,0,0,0,0-.01-.01-.02-.02ZM50.35,34.05s.02.01.02.02c0,0,0,0,0,0,0,0-.02-.01-.03-.02ZM50.38,34.04s0,0-.01-.01c0,0,.02.01.02.02,0,0,.01,0,.02.01,0,0-.02-.01-.03-.02ZM50.4,34.03s0,0,0,0c0,0,0,0,0,0,0,0,.01,0,.02.01,0,0-.01,0-.02-.01ZM50.41,34.02s0,0,0,0c.02.01.03.03.05.04,0,0-.01,0-.02-.01-.01-.01-.02-.02-.04-.03ZM50.34,33.86s0,0,0,0c.01.01.02.02.03.03,0,0-.02-.02-.04-.03ZM50.44,33.77s.01.01.02.02c0,0,0,0,0,0,0,0,0,0,0-.01ZM50.47,33.69s.02.02.03.03c-.06-.06-.12-.13-.2-.21-.02-.02-.04-.05-.06-.07.08.09.16.17.23.26ZM50.03,33.24c.07.08.14.16.21.23.06.07.13.14.19.21-.02-.02-.03-.03-.05-.05-.11-.12-.23-.26-.36-.4ZM50.34,33.7s.02.02.03.03c-.01-.01-.02-.02-.03-.03-.01-.01-.02-.03-.04-.04l.05.05ZM50.28,33.73s.02.02.03.03c-.02-.02-.05-.04-.06-.05,0,0,.02.01.03.02ZM50.26,34.05s.06.04.08.06c-.02-.01-.05-.03-.07-.04-.03-.02-.07-.05-.1-.07.03.02.06.04.09.06ZM50.2,33.94s.01,0,.02.01c-.02-.02-.05-.03-.07-.05-.01,0-.03-.02-.04-.03.03.02.06.04.1.07ZM50.07,33.77s.03.03.05.04c-.03-.02-.06-.05-.09-.07.01,0,.03.02.04.03ZM50.06,33.79s-.02-.02-.03-.02c0,0-.01,0-.02-.01.02.01.03.02.05.04ZM50.14,33.87s.01,0,.02.01c-.03-.02-.07-.05-.11-.08-.03-.03-.07-.05-.1-.08.07.05.13.1.19.14ZM49.61,33.7c-.15-.1-.28-.2-.38-.27.1.07.27.19.48.32.05.04.11.08.16.11-.09-.05-.17-.11-.26-.17ZM49.86,33.88s.04.03.07.05c0,0-.02,0-.02-.01-.06-.04-.12-.08-.18-.12.05.03.09.06.14.09ZM49.94,33.99s-.07-.04-.11-.07c.03.02.07.04.1.06.02.01.04.03.06.04-.02-.01-.04-.02-.06-.03ZM49.89,33.92c-.06-.04-.12-.08-.18-.11.11.07.22.14.32.2.02.01.04.03.06.04-.06-.03-.13-.08-.2-.12ZM50.08,34.06s.02.01.04.02c.03.02.05.03.07.05,0,0-.01,0-.01,0-.03-.02-.06-.04-.1-.06ZM50.16,34.19s0,0-.01,0c-.01,0-.02-.01-.04-.02,0,0,.02,0,.02.01,0,0,.02,0,.03.01ZM50.08,34.19s.05.02.07.04c.3.17.61.32.92.46h0c-.34-.15-.66-.32-.99-.5ZM50.62,34.49c.15.07.3.15.45.22,0,0,0,0,0,0-.15-.07-.3-.14-.46-.22ZM51.13,33.85s-.02-.05-.04-.08c-.01-.03-.03-.07-.04-.1.03.06.05.11.08.17,0,0,0,.02.01.03,0,0,0,0,0-.01ZM43.55,33.41s0,.01.01.02c0,.01,0,.02.01.03,0-.02-.02-.03-.02-.05ZM43.62,33.56s.01.03.02.05h0s-.01-.03-.02-.05ZM43.09,33.23s.05.09.08.13c.02.04.05.09.07.13-.05-.08-.1-.17-.15-.26ZM42.52,34.57c-.2-.18-.42-.38-.66-.62.05.05.1.09.15.13.22.22.42.4.6.55-.03-.02-.06-.04-.08-.06ZM42.76,34.38s-.02-.02-.04-.04c0,0,0-.01-.01-.02.02.02.04.04.05.05,0,0,0,0,0,0ZM43.12,33.95s-.03-.05-.05-.08c.02.03.04.05.05.08,0,0,0,0,0,0ZM43.51,33.57s.03.07.05.1c0,0,0,0,0,0-.03-.06-.06-.12-.09-.18.02.03.03.06.05.09ZM43.16,33.2s.05.09.08.14c.11.2.21.38.3.55,0,0,0,.01,0,.02-.11-.21-.24-.45-.39-.71ZM43.41,33.91s-.01-.02-.02-.04c0,.01.01.03.02.04,0,0,0,0,0,0ZM43.59,34.11s-.05-.08-.07-.13c-.04-.07-.08-.15-.13-.23.07.13.14.25.2.36,0,0,0,0,0,0ZM43.43,33.74c.08.14.15.27.22.39,0,0,0,.02.01.03-.07-.13-.15-.27-.23-.42ZM43.84,33.87s0,.01,0,.02c-.02-.05-.04-.1-.06-.15.02.04.04.09.06.13ZM43.79,34.08s-.02-.04-.03-.06c-.01-.03-.02-.05-.04-.08.03.05.05.1.07.16,0,0,0,0,0-.01ZM43.86,33.97c-.04-.1-.09-.2-.13-.31.05.12.1.23.15.33,0,0-.01-.02-.01-.03ZM43.81,33.1c.02.05.04.11.06.16,0,0,0,.02,0,.03,0,.02.01.03.02.05-.03-.07-.06-.15-.09-.23ZM43.85,33.15s-.03-.09-.04-.13c.04.1.07.19.11.28,0,.02.01.03.02.05-.02-.06-.05-.13-.08-.2ZM43.98,33.74s0-.02,0-.02c0,0,0,.02,0,.02h0ZM43.99,33.57s0,.03.01.04c.01.03.02.07.03.1-.01-.05-.03-.09-.05-.14ZM44.17,34.1c-.02-.05-.03-.1-.05-.16,0-.02-.01-.05-.02-.07.03.08.05.15.07.22,0,0,0,0,0,0ZM51.27,33.93s0,0,0-.01c0-.02-.01-.03-.02-.05,0,.02.02.05.02.07,0,0,0,0,0,0Z"/>
          </g>
          <g>
            <g>
              <path class="cls-3" d="M10.57,82.39c-1.35,0-2.09-.65-1.92-2.01.26-1.83,2.18-4.14,5.54-7.9,2.75-3.14,4.36-5.1,4.84-6.67.35-1.31-.79-1.74-1.88-1.74-2.22,0-5.15,1.4-7.59,3.79-1.79,1.74-3.49,3.93-3.49,5.67,0,1.05.52,1.79,1.57,1.79.7,0,1.26-.22,1.57-.44.35-.22.52-.52.65-.44.13.09-.22.48-.52.7-.44.31-1,.57-1.79.57-1.22,0-2.09-.83-2.18-2.14-.09-1.92,1.18-4.54,3.36-6.5,2.66-2.4,6.28-3.4,8.42-3.4s3.58.79,3.53,2.49c-.04,1.92-2.05,4.36-4.23,6.85-3.4,3.79-5.32,6.06-5.54,7.5-.13.7.17,1,.61,1.05,1.05.13,3.18-1.18,4.8-2.36,2.66-1.96,4.71-4.06,6.41-6.11,3.18-3.84,4.62-5.5,6.85-7.76,1.05-1,2.31-1.88,3.23-1.79.87.09.79,1.09.13,1.96-.83,1.05-2.01,2.05-2.88,2.75-1.31,1.05-2.05,1.61-3.53,3.05-1.61,2.18-4.1,5.58-5.67,7.76-1.7,2.4-2.79,4.01-3.79,5.37,4.45-.13,6.98,2.01,6.46,5.28-.09.48-.31.92-.48.87-.09-.04.04-.17.13-.83.35-3.1-2.01-5.1-6.37-4.89-1.31,1.88-2.44,3.32-4.67,5.93-3.45,4.01-7.85,7.07-10.29,7.07-.79,0-1.96-.35-1.83-1.83.22-2.53,4.19-6.06,6.46-7.63,2.84-1.88,6.02-3.18,8.38-3.66,2.22-3.18,5.02-7.28,6.37-9.2-2.75,2.88-7.81,6.85-10.64,6.85ZM6.81,88.8c-2.22,1.53-5.54,5.19-5.54,7.33,0,.79.48,1.09.92,1.13.74.09,1.61-.22,2.7-.87,1.48-.92,3.75-3.18,5.58-5.63,1.05-1.4,2.57-3.49,4.1-5.54-2.22.48-5.1,1.74-7.76,3.58ZM29.76,68.04c1.13-.92,2.14-1.88,2.53-2.36.79-.96.92-1.57.57-1.7-.48-.17-1.31.65-2.09,1.66-1.09,1.31-2.09,2.7-3.23,4.23.79-.65,1.48-1.22,2.22-1.83Z"/>
              <path class="cls-3" d="M23.65,80.6c.04-1.44,1.26-2.92,2.36-3.75,1.44-1.18,3.84-2.36,5.45-2.36.96,0,1.31.61,1.26,1.18-.09,1.13-1.48,2.01-2.79,2.66-1.26.61-2.75,1.13-3.75,1.4-.17.35-.26.74-.26,1,0,.65.35,1,.96,1h.04c.57,0,2.05-.31,3.97-1.61.83-.57,1.96-1.48,2.66-2.09.26-.22.39-.26.48-.17.09.13-.04.31-.35.57-.57.52-1.79,1.57-2.57,2.09-1.83,1.22-3.62,1.88-5.1,1.88-1.57,0-2.4-.65-2.36-1.79ZM29.41,77.94c1.09-.74,1.74-1.66,1.79-2.27.04-.39-.13-.61-.52-.61s-1.05.44-1.92,1.26c-.7.65-1.79,2.05-2.31,2.92.87-.22,2.05-.7,2.97-1.31Z"/>
              <path class="cls-3" d="M35.65,76.63c-.65.57-1.31,1.18-1.79,1.61-.26.22-.39.26-.48.13-.04-.13.09-.26.22-.39.17-.17,1.83-1.61,3.18-2.75,1.13-1.44,3.27-4.1,5.15-6.24,1.48-1.74,3.27-3.66,5.19-5.41.52-.48,1-.74,1.57-.74.44,0,.65.17.65.31-.83.83-4.67,5.06-6.5,7.24-2.92,3.53-6.06,7.59-6.98,9.6-.13.31-.39.92-.09,1.18.31.22.96-.04,1.35-.26.57-.31,1.18-.74,1.79-1.22.79-.61,1.35-1.09,1.92-1.61.17-.17.52-.48.65-.35.09.09-.04.26-.31.52-.52.52-1.61,1.48-2.66,2.27-.87.65-2.49,1.74-3.93,1.74-.87,0-1.4-.39-1.35-1.18.04-1.05,1.13-2.75,2.44-4.41l-.04-.04Z"/>
              <path class="cls-3" d="M42.63,77.07c-.65.52-1.13.92-1.57,1.31-.35.31-.52.44-.65.35-.09-.09,0-.26.48-.7.48-.44,2.05-1.74,3.1-2.44,1.13-.79,1.7-.96,2.53-.96.92,0,1,.13.48.7-.79.87-1.48,1.7-2.36,2.79-.74.92-1.26,1.7-1.53,2.14-.26.48-.31.79-.13.96.22.17.61.09,1.05-.13s1.18-.7,1.92-1.31c.92-.74,1.31-1.09,2.01-1.74.39-.35.57-.52.7-.39s-.35.57-.48.7c-.52.52-1.61,1.48-2.49,2.18s-2.36,1.79-3.79,1.79c-.92,0-1.31-.44-1.31-1.13,0-.57.31-1.13.65-1.66.87-1.35,2.57-3.14,3.27-3.75-.31.13-1.22.79-1.88,1.31ZM50.61,68.74c.57,0,.83.48.31,1.13-.52.7-1.61,1.18-2.05,1.18-.22-.26-.26-.92-.04-1.48.26-.65.92-.83,1.74-.83h.04Z"/>
              <path class="cls-3" d="M51.61,79.6c1.18.09,1.44,1.09,2.31,1.13s1.74-.48,2.84-1.35c.44-.35,1.18-.96,1.66-1.4.31-.26.44-.31.52-.22.13.13-.09.31-.22.44-.57.57-1.79,1.61-2.79,2.4-.83.65-1.96,1.66-3.27,1.66-1.35-.04-1.48-1.4-2.92-1.4-.79,0-1.74.26-2.7.92-.26.31-.7.57-.83.39-.13-.22.26-.57.61-.7,1.31-.96,3.71-2.36,5.76-3.4,1.74-.87,3.66-1.83,4.84-2.53h-.04c-1.13.52-2.75,1.13-4.1,1.18-1.48,0-2.27-.39-2.57-.87-.83.83-1.74,1.74-2.53,2.49-.44.39-.65.52-.74.44s-.04-.22.17-.44c.61-.52,2.01-1.88,2.92-2.79-.04-.09-.09-.31-.04-.52.13-.7.96-1.09,1.7-1.05.79.04.04.26-.09.79-.13.48.39.92,1.53.92,1.66,0,3.05-.22,4.27-.57.31-.22.83-.44.96-.22.09.17-.17.35-.52.44-1.26.74-3.58,2.22-5.41,3.14-1.7.87-2.31,1-3.32,1.61.83-.35,1.31-.52,2.01-.48Z"/>
              <path class="cls-3" d="M71.54,81.39c.13.17.22.22.17.31s-.22,0-.35-.13c-.44-.44-.65-.92-.74-1.88-.13-1.83.65-4.67,2.84-7.46,3.14-3.88,7.37-6.46,9.9-6.19,1.53.17,1.92,1.48,1.74,3.14-.13,1.66-1.4,4.71-3.27,7.02-2.97,3.62-7.81,6.59-11.78,6.46-1.66-.04-4.01-.65-4.36-3.53-.31-2.84,1.31-6.54,4.45-9.68,3.36-3.32,8.64-5.89,13.17-5.67,1.66.09,3.1.83,3.23,2.4.09.83-.26,1.7-.65,2.14-.17.22-.52.48-.61.35-.04-.13.09-.13.35-.52.26-.39.57-1.09.44-1.92-.13-1.13-1.35-1.83-2.75-1.88-3.88-.17-9.2,3.75-11.47,6.28-2.92,3.32-4.41,7.15-4.06,9.47.26,1.61,1.61,2.14,2.7,2.18,3.01.13,6.46-2.27,9.95-6.63,1.88-2.36,3.62-5.37,3.84-7.5.13-.96-.22-1.57-.96-1.66-2.22-.22-6.11,2.53-9.03,6.19-2.09,2.66-3.23,5.37-3.23,7.07,0,.74.17,1.22.48,1.66ZM80.92,59.53c.26-.65.87-.83,1.61-.83.7,0,.92.48.44,1.13-.52.65-1.61,1.13-2.01,1.13-.22-.26-.26-.87-.04-1.44ZM85.72,59.53c.26-.65.92-.83,1.66-.83.7,0,.96.48.44,1.13s-1.57,1.13-2.09,1.13c-.17-.26-.22-.87,0-1.44Z"/>
              <path class="cls-3" d="M86.46,79.6c1.18.09,1.44,1.09,2.31,1.13s1.74-.48,2.84-1.35c.44-.35,1.18-.96,1.66-1.4.31-.26.44-.31.52-.22.13.13-.09.31-.22.44-.57.57-1.79,1.61-2.79,2.4-.83.65-1.96,1.66-3.27,1.66-1.35-.04-1.48-1.4-2.92-1.4-.79,0-1.74.26-2.7.92-.26.31-.7.57-.83.39-.13-.22.26-.57.61-.7,1.31-.96,3.71-2.36,5.76-3.4,1.74-.87,3.66-1.83,4.84-2.53h-.04c-1.13.52-2.75,1.13-4.1,1.18-1.48,0-2.27-.39-2.57-.87-.83.83-1.74,1.74-2.53,2.49-.44.39-.65.52-.74.44s-.04-.22.17-.44c.61-.52,2.01-1.88,2.92-2.79-.04-.09-.09-.31-.04-.52.13-.7.96-1.09,1.7-1.05.79.04.04.26-.09.79-.13.48.39.92,1.53.92,1.66,0,3.05-.22,4.27-.57.31-.22.83-.44.96-.22.09.17-.17.35-.52.44-1.26.74-3.58,2.22-5.41,3.14-1.7.87-2.31,1-3.32,1.61.83-.35,1.31-.52,2.01-.48Z"/>
              <path class="cls-3" d="M99.85,80.12c.83-.57,1.83-1.35,2.66-2.09.26-.22.39-.26.48-.17.09.13-.09.35-.35.57-.57.52-1.96,1.66-2.75,2.18-1.83,1.22-3.45,1.79-4.93,1.79-1.61,0-2.36-.61-2.31-1.74.04-.87.44-1.66,1.31-2.7l-.04-.04c-.13.13-.61.57-.87.79-.22.17-.35.22-.44.13-.09-.13.09-.31.26-.48.57-.52.96-.83,1.61-1.31.48-.35,1.31-.87,2.14-1.31,1.26-.65,2.57-1.22,3.75-1.22h.04c.96,0,1.31.61,1.27,1.18-.09,1.13-1.48,2.01-2.79,2.66-1.27.61-2.75,1.13-3.75,1.4-.17.35-.26.74-.26,1,0,.65.35,1,1,1,.57,0,2.05-.31,3.97-1.61ZM98.37,77.94c1.09-.74,1.74-1.66,1.79-2.27.04-.39-.13-.61-.52-.61s-1.05.44-1.92,1.26c-.7.65-1.79,2.05-2.31,2.92.87-.22,2.05-.7,2.97-1.31Z"/>
              <path class="cls-3" d="M112.63,80.64c-.26.52-.22.79-.09,1,.13.22.48.31.96.31,1.31,0,2.57-.44,3.88-.96,3.01-1.22,4.71-1.79,6.72-1.79,1.57,0,2.44.83,2.44,1.96,0,1.31-1.4,2.4-1.79,2.66-.13.09-.39.22-.44.17s.09-.13.22-.35c.22-.31.48-.96.48-1.57,0-1.53-1-2.05-2.4-2.05s-2.7.39-5.67,1.53c-.92.35-2.88,1-4.49,1-1.18,0-2.14-.26-2.14-1.26,0-1.09,1.09-2.31,1.83-3.23.65-.79,1.31-1.53,1.83-2.14.17-.22.26-.48.04-.61-.22-.13-.7.04-1.13.26-.79.39-2.01,1.13-3.4,2.22-1.92,1.48-2.97,2.49-4.89,3.97-.39.31-.65.39-1.13.39-.61,0-.92-.09-.57-.7.31-.57,1.22-2.01,1.92-2.92.48-.65,1.27-1.66,1.74-2.27.31-.39.39-.61.31-.74-.13-.17-.39-.09-.65.04-.52.26-1.18.74-1.7,1.18-.57.48-1.26,1.09-1.88,1.66-.44.39-.61.52-.74.39-.09-.13.13-.35.65-.83.52-.48,1.48-1.4,2.27-2.01,1.18-.92,2.05-1.44,2.97-1.44.83,0,1.09.48,1.09.96,0,.52-.35,1.09-.92,1.88-.65.87-1.57,2.05-2.05,2.75l.04.04c1.05-.87,2.49-2.14,4.01-3.27,1.53-1.13,3.45-2.36,4.75-2.36.92,0,1.44.44,1.35,1.18-.13.79-1.05,1.79-1.74,2.66-.65.83-1.4,1.66-1.7,2.27Z"/>
            </g>
            <g>
              <path class="cls-3" d="M36.67,85.76c-.26,0-.36.19-.34.48l.16,1.89c.03.38.1.49.38.52v.09h-1.11v-.09c.25-.04.34-.16.32-.46l-.15-1.99h-.01l-1.05,2.54h-.08l-1.03-2.54h-.01l-.17,1.89c-.03.31.09.49.4.55v.09h-.96v-.09c.31-.04.36-.23.39-.56l.19-2.11c-.12-.13-.23-.19-.4-.21v-.09h.78l.98,2.42,1-2.42h.72v.09Z"/>
              <path class="cls-3" d="M41.76,87.5h-.99l-.21.62c-.1.3-.16.53.17.54v.09h-.79v-.09c.29-.04.36-.2.46-.48l.85-2.53h.32l.89,2.65c.09.28.17.37.44.37v.09h-1.08v-.09c.21,0,.31-.09.24-.3l-.28-.85ZM41.27,86.01h-.01l-.43,1.3h.86l-.42-1.3Z"/>
              <path class="cls-3" d="M46.35,86.25c0-.4-.1-.49-.35-.49v-.09h1.1v.09c-.24,0-.34.11-.34.49v.93l1-.99c.1-.1.16-.17.16-.26,0-.1-.05-.14-.19-.17v-.09h1.16v.09h-.15c-.18,0-.44.13-.65.34l-.96.94,1.27,1.29c.26.27.34.31.57.32v.09h-.73l-1.49-1.51v.93c0,.4.11.49.34.49v.09h-1.1v-.09c.24,0,.35-.08.35-.49v-1.92Z"/>
              <path class="cls-3" d="M54.11,87.58h-.09c-.06-.26-.11-.3-.43-.3h-.76v1.1c0,.15.05.21.23.21h.54c.45,0,.56-.02.75-.42h.09l-.14.57h-2.22v-.09c.24,0,.35-.08.35-.48v-1.92c0-.38-.09-.49-.35-.49v-.09h2.22v.52h-.06c-.07-.34-.18-.36-.52-.36h-.89v1.31h.86c.21,0,.29-.04.33-.3h.09v.75Z"/>
              <path class="cls-3" d="M64.05,88.32c-.3.34-.62.5-1.02.5-.75,0-1.05-.53-1.05-1.06v-1.51c0-.41-.11-.49-.35-.49v-.09h1.11v.09c-.25,0-.35.09-.35.48v1.56c0,.47.26.81.78.81.35,0,.67-.18.88-.51v-1.85c0-.35-.08-.48-.33-.49v-.09h1.08v.09c-.26,0-.35.12-.35.49v1.92c0,.4.11.49.35.49v.09h-.76v-.43Z"/>
              <path class="cls-3" d="M68.76,88.17c0,.38.09.49.35.49v.09h-1.11v-.09c.21,0,.35-.07.35-.48v-1.93c0-.38-.09-.49-.35-.49v-.09h1.12c.85,0,1.19.45,1.19.87,0,.51-.39.79-1.08.79-.13,0-.25,0-.47-.03v.86ZM68.76,87.17c.14.05.22.05.38.05.46,0,.75-.25.75-.67,0-.33-.18-.77-.75-.77h-.38v1.38Z"/>
              <path class="cls-3" d="M78.83,87.5h-.99l-.21.62c-.1.3-.16.53.17.54v.09h-.79v-.09c.29-.04.36-.2.46-.48l.85-2.53h.32l.89,2.65c.09.28.17.37.44.37v.09h-1.08v-.09c.21,0,.31-.09.24-.3l-.28-.85ZM78.34,86.01h-.01l-.43,1.3h.86l-.42-1.3Z"/>
              <path class="cls-3" d="M83.8,88.17c0,.38.1.49.35.49v.09h-1.11v-.09c.24,0,.35-.08.35-.49v-1.93c0-.4-.1-.48-.35-.48v-.09h1.26c.69,0,1.02.4,1.02.8,0,.34-.18.62-.63.76.57.37.77,1.38,1.28,1.42v.09h-.63c-.57-.7-.74-1.42-1.3-1.42h-.25v.84ZM83.8,87.19h.38c.52,0,.72-.35.72-.71,0-.41-.31-.7-.78-.7h-.32v1.41Z"/>
              <path class="cls-3" d="M90.23,88.18c0,.37.07.47.33.47v.09h-1.09v-.09c.22,0,.35-.06.35-.49v-2.34h-.45c-.41,0-.6.12-.63.44h-.09v-.7h.09s.09.06.17.09c.07.02.17.03.3.03h1.61c.27,0,.39-.03.49-.11h.1v.7h-.06c-.06-.26-.16-.44-.65-.44h-.47v2.36Z"/>
              <path class="cls-3" d="M95.24,88.17c0,.38.09.49.35.49v.09h-1.11v-.09c.25,0,.35-.1.35-.49v-1.92c0-.39-.09-.49-.35-.49v-.09h1.11v.09c-.26,0-.35.12-.35.49v1.92Z"/>
              <path class="cls-3" d="M100.44,86.35h-.09c-.05-.46-.37-.63-.68-.63s-.55.18-.55.46c0,.57.78.72,1.22,1.16.21.21.27.41.27.61,0,.48-.39.87-.87.87-.33,0-.6-.16-.7-.16-.05,0-.09.04-.12.12h-.09v-.83h.09c0,.57.47.76.74.76.37,0,.62-.21.62-.55,0-.53-.83-.78-1.17-1.12-.19-.19-.26-.4-.26-.64,0-.47.34-.79.84-.79.33,0,.48.12.6.12.05,0,.06-.01.08-.09h.09v.72Z"/>
              <path class="cls-3" d="M105.27,88.18c0,.37.07.47.33.47v.09h-1.09v-.09c.22,0,.35-.06.35-.49v-2.34h-.45c-.41,0-.6.12-.63.44h-.09v-.7h.09s.09.06.17.09c.07.02.17.03.3.03h1.61c.27,0,.39-.03.49-.11h.1v.7h-.06c-.06-.26-.16-.44-.65-.44h-.47v2.36Z"/>
            </g>
            <rect class="cls-3" x="23.06" y="90.44" width="88.53" height=".15"/>
            <g>
              <path class="cls-3" d="M110.81,90.5s-.23-.05-.16-.18.6-.15.91-.05.36.22.35.27-.25.1-.33.09c0,0,.23.03.4-.03s1.26-.57,1.26-.57l-.43-.99s-2.13.9-2.26,1.18.25.28.25.28Z"/>
              <polygon class="cls-3" points="112.83 88.87 113.39 90.11 114.59 89.57 114.03 88.32 112.83 88.87"/>
              <polygon class="cls-3" points="114.07 88.19 114.72 89.62 115.04 89.46 114.38 88.06 114.07 88.19"/>
              <path class="cls-3" d="M117.53,87.47c-.11-.17-.22-.44-.43-.68l-2.68,1.22.69,1.47,2.66-1.22s-.13-.62-.24-.79ZM117.1,86.99c-.12.29-2.44,1.12-2.44,1.12,0,0,2.56-1.41,2.44-1.12Z"/>
            </g>
          </g>
        </g>
      </g>
    </g>
  </g>
</svg>