<?xml version="1.0" encoding="UTF-8"?>
<svg id="Layer_1" data-name="Layer 1" xmlns="http://www.w3.org/2000/svg" viewBox="0 0 510.19 160.15">
  <defs>
    <style>
      .cls-1 {
        fill: currentColor;
      }
    </style>
  </defs>
  <path class="cls-1" d="M0,19.71C0,6.15,6.34,0,19.71,0h44.11c13.37,0,19.71,6.15,19.71,19.71v4.98h-21.66v-1.46c0-4.68-1.56-6.25-6.25-6.25h-27.71c-4.68,0-6.25,1.56-6.25,6.25v23.03c0,4.68,1.56,6.25,6.25,6.25h28.49c4.68,0,6.25-1.56,6.25-6.25v-2.63h-20.79v-13.76h41.67v18.74c0,13.56-6.34,19.71-19.71,19.71H19.71c-13.37,0-19.71-6.15-19.71-19.71v-28.89Z"/>
  <path class="cls-1" d="M110.96,68.31c-13.37,0-19.71-6.15-19.71-19.71v-28.89c0-13.56,6.34-19.71,19.71-19.71h44.11c13.37,0,19.71,6.15,19.71,19.71v28.89c0,13.56-6.34,19.71-19.71,19.71h-44.11ZM146.87,50.45c4.59,0,6.25-1.56,6.25-6.25v-20.1c0-4.68-1.66-6.25-6.25-6.25h-27.71c-4.68,0-6.25,1.56-6.25,6.25v20.1c0,4.68,1.56,6.25,6.25,6.25h27.71Z"/>
  <path class="cls-1" d="M204.93,49.67h45.67v18.64h-67.33V0h21.66v49.67Z"/>
  <path class="cls-1" d="M256.46,68.31V0h58.16c15.91,0,24.4,8.39,24.4,24.4v19.52c0,16-8.49,24.4-24.4,24.4h-58.16ZM278.12,50.45h31.42c5.17,0,7.81-2.63,7.81-7.81v-16.98c0-5.17-2.64-7.81-7.81-7.81h-31.42v32.59Z"/>
  <path class="cls-1" d="M369.27,51.62h50.55v16.69h-72.21V0h71.24v16.69h-49.57v9.66h45.67v14.25h-45.67v11.03Z"/>
  <path class="cls-1" d="M488.52,0h20.88v68.31h-17.57l-44.11-41.57v41.57h-20.88V0h18.44l43.23,40.69V0Z"/>
  <path class="cls-1" d="M103.64,89.51h22.83l-28.1,68.31h-18.54l-16.59-40.6-16.59,40.6h-18.54L0,89.51h23.91l15.42,41.77,16.3-41.77h16l16.69,41.86,15.32-41.86Z"/>
  <path class="cls-1" d="M131.74,89.51h22.05v68.31h-22.05v-68.31Z"/>
  <path class="cls-1" d="M225.23,89.51h20.88v68.31h-17.57l-44.11-41.57v41.57h-20.88v-68.31h18.44l43.23,40.69v-40.69Z"/>
  <path class="cls-1" d="M254.7,109.22c0-13.56,6.34-19.71,19.71-19.71h44.11c13.37,0,19.71,6.15,19.71,19.71v4.98h-21.66v-1.46c0-4.68-1.56-6.25-6.25-6.25h-27.71c-4.68,0-6.25,1.56-6.25,6.25v23.03c0,4.68,1.56,6.25,6.25,6.25h28.5c4.68,0,6.25-1.56,6.25-6.25v-2.63h-20.79v-13.76h41.67v18.74c0,13.56-6.34,19.71-19.71,19.71h-44.11c-13.37,0-19.71-6.15-19.71-19.71v-28.89Z"/>
  <g>
    <path class="cls-1" d="M401.67,129.91v3.27c0,5.4-2.48,7.83-7.83,7.83h-22.81c-5.35,0-7.83-2.43-7.83-7.83v-4.71h10.21v2.48c0,1.64.55,2.18,2.18,2.18h13.29c1.64,0,2.18-.55,2.18-2.18v-2.03c0-1.64-.55-2.18-2.18-2.18h-11.06v-6.84h10.56c1.64,0,2.18-.55,2.18-2.18v-1.34c0-1.64-.55-2.18-2.18-2.18h-12.3c-1.64,0-2.18.55-2.18,2.18v2.08h-10.21v-4.31c0-5.4,2.48-7.83,7.83-7.83h21.82c5.35,0,7.83,2.43,7.83,7.83v2.53c0,3.47-1.19,5.65-3.62,6.54,2.73.79,4.12,3.02,4.12,6.69Z"/>
    <path class="cls-1" d="M436.57,119.1c5.35,0,7.83,2.43,7.83,7.83v6.25c0,5.4-2.48,7.83-7.83,7.83h-22.61c-5.35,0-7.83-2.43-7.83-7.83v-16.86c0-6.89,3.22-10.02,10.02-10.02h26.77v8.43h-23.01c-2.38,0-3.17.79-3.17,3.17v2.83c.94-1.09,2.63-1.64,5.06-1.64h14.78ZM433.8,128.57c0-1.64-.55-2.18-2.18-2.18h-12.69c-1.64,0-2.18.55-2.18,2.18v2.38c0,1.64.55,2.18,2.18,2.18h12.69c1.64,0,2.18-.55,2.18-2.18v-2.38Z"/>
    <path class="cls-1" d="M458.98,141.02c-6.79,0-10.02-3.12-10.02-10.02v-14.68c0-6.89,3.22-10.02,10.02-10.02h18.25c6.79,0,10.02,3.12,10.02,10.02v14.68c0,6.89-3.22,10.02-10.02,10.02h-18.25ZM473.46,132.24c2.38,0,3.17-.79,3.17-3.17v-10.81c0-2.38-.79-3.17-3.17-3.17h-10.71c-2.38,0-3.17.79-3.17,3.17v10.81c0,2.38.79,3.17,3.17,3.17h10.71Z"/>
    <path class="cls-1" d="M494.31,115.24c-1.91,0-3.1-1.19-3.1-3.1v-2.73c0-1.96,1.14-3.1,3.1-3.1h2.93c1.96,0,3.1,1.14,3.1,3.1v2.73c0,1.91-1.19,3.1-3.1,3.1h-2.93ZM496.49,112.61c.72,0,.99-.3.99-1.02v-1.64c0-.77-.27-1.02-.99-1.02h-1.44c-.72,0-.99.25-.99,1.02v1.64c0,.72.27,1.02.99,1.02h1.44Z"/>
  </g>
  <path class="cls-1" d="M489.11,87.18h-120.42c-11.63,0-21.08,9.46-21.08,21.08v30.81c0,11.63,9.46,21.08,21.08,21.08h120.42c11.63,0,21.08-9.46,21.08-21.08v-30.81c0-11.63-9.46-21.08-21.08-21.08ZM507.86,139.07c0,10.34-8.41,18.75-18.75,18.75h-120.42c-10.34,0-18.75-8.41-18.75-18.75v-30.81c0-10.34,8.41-18.75,18.75-18.75h120.42c10.34,0,18.75,8.41,18.75,18.75v30.81Z"/>
</svg>