<?xml version="1.0" encoding="UTF-8"?>
<svg id="Layer_1" data-name="Layer 1" xmlns="http://www.w3.org/2000/svg" viewBox="0 0 841.89 264.27">
  <defs>
    <style>
      .cls-1 {
        fill: #fff;
      }
    </style>
  </defs>
  <path class="cls-1" d="M0,32.53C0,10.15,10.47,0,32.53,0h72.78c22.06,0,32.53,10.15,32.53,32.53v8.21h-35.75v-2.42c0-7.73-2.58-10.31-10.31-10.31h-45.73c-7.73,0-10.31,2.58-10.31,10.31v38c0,7.73,2.58,10.31,10.31,10.31h47.02c7.73,0,10.31-2.58,10.31-10.31v-4.35h-34.3v-22.7h68.76v30.92c0,22.38-10.47,32.53-32.53,32.53H32.53C10.47,112.72,0,102.58,0,80.19v-47.66Z"/>
  <path class="cls-1" d="M183.09,112.72c-22.06,0-32.53-10.15-32.53-32.53v-47.66c0-22.38,10.47-32.53,32.53-32.53h72.78c22.06,0,32.53,10.15,32.53,32.53v47.66c0,22.38-10.47,32.53-32.53,32.53h-72.78ZM242.35,83.25c7.57,0,10.31-2.58,10.31-10.31v-33.17c0-7.73-2.74-10.31-10.31-10.31h-45.73c-7.73,0-10.31,2.58-10.31,10.31v33.17c0,7.73,2.58,10.31,10.31,10.31h45.73Z"/>
  <path class="cls-1" d="M338.16,81.96h75.36v30.76h-111.11V0h35.75v81.96Z"/>
  <path class="cls-1" d="M423.19,112.72V0h95.97c26.25,0,40.26,13.85,40.26,40.26v32.21c0,26.41-14.01,40.26-40.26,40.26h-95.97ZM458.94,83.25h51.85c8.53,0,12.88-4.35,12.88-12.88v-28.02c0-8.53-4.35-12.88-12.88-12.88h-51.85v53.78Z"/>
  <path class="cls-1" d="M609.34,85.18h83.41v27.54h-119.16V0h117.55v27.54h-81.8v15.94h75.36v23.51h-75.36v18.2Z"/>
  <path class="cls-1" d="M806.12,0h34.46v112.72h-28.99l-72.78-68.6v68.6h-34.46V0h30.43l71.34,67.15V0Z"/>
  <path class="cls-1" d="M171.01,147.7h37.68l-46.38,112.72h-30.6l-27.37-66.99-27.37,66.99h-30.6L0,147.7h39.45l25.44,68.92,26.89-68.92h26.41l27.54,69.08,25.28-69.08Z"/>
  <path class="cls-1" d="M217.39,147.7h36.39v112.72h-36.39v-112.72Z"/>
  <path class="cls-1" d="M371.66,147.7h34.46v112.72h-28.98l-72.78-68.6v68.6h-34.46v-112.72h30.43l71.34,67.15v-67.15Z"/>
  <path class="cls-1" d="M420.29,180.23c0-22.38,10.47-32.53,32.53-32.53h72.79c22.06,0,32.53,10.15,32.53,32.53v8.21h-35.75v-2.42c0-7.73-2.58-10.31-10.31-10.31h-45.73c-7.73,0-10.31,2.58-10.31,10.31v38c0,7.73,2.58,10.31,10.31,10.31h47.02c7.73,0,10.31-2.58,10.31-10.31v-4.35h-34.3v-22.7h68.76v30.92c0,22.38-10.47,32.53-32.53,32.53h-72.79c-22.06,0-32.53-10.15-32.53-32.53v-47.66Z"/>
  <g>
    <path class="cls-1" d="M662.81,214.37v5.4c0,8.92-4.09,12.93-12.93,12.93h-37.64c-8.84,0-12.93-4.01-12.93-12.93v-7.77h16.85v4.09c0,2.7.9,3.6,3.6,3.6h21.93c2.7,0,3.6-.9,3.6-3.6v-3.35c0-2.7-.9-3.6-3.6-3.6h-18.25v-11.29h17.43c2.7,0,3.6-.9,3.6-3.6v-2.21c0-2.7-.9-3.6-3.6-3.6h-20.29c-2.7,0-3.6.9-3.6,3.6v3.44h-16.85v-7.12c0-8.92,4.09-12.93,12.93-12.93h36c8.84,0,12.93,4.01,12.93,12.93v4.17c0,5.73-1.96,9.33-5.97,10.8,4.5,1.31,6.79,4.99,6.79,11.05Z"/>
    <path class="cls-1" d="M720.41,196.54c8.84,0,12.93,4.01,12.93,12.93v10.31c0,8.92-4.09,12.93-12.93,12.93h-37.31c-8.84,0-12.93-4.01-12.93-12.93v-27.82c0-11.37,5.32-16.53,16.53-16.53h44.18v13.91h-37.96c-3.93,0-5.24,1.31-5.24,5.24v4.66c1.55-1.8,4.34-2.7,8.35-2.7h24.38ZM715.82,212.16c0-2.7-.9-3.6-3.6-3.6h-20.94c-2.7,0-3.6.9-3.6,3.6v3.93c0,2.7.9,3.6,3.6,3.6h20.94c2.7,0,3.6-.9,3.6-3.6v-3.93Z"/>
    <path class="cls-1" d="M757.39,232.7c-11.21,0-16.53-5.15-16.53-16.53v-24.22c0-11.37,5.32-16.53,16.53-16.53h30.11c11.21,0,16.53,5.15,16.53,16.53v24.22c0,11.37-5.32,16.53-16.53,16.53h-30.11ZM781.28,218.22c3.93,0,5.24-1.31,5.24-5.24v-17.84c0-3.93-1.31-5.24-5.24-5.24h-17.67c-3.93,0-5.24,1.31-5.24,5.24v17.84c0,3.93,1.31,5.24,5.24,5.24h17.67Z"/>
    <path class="cls-1" d="M815.68,190.16c-3.15,0-5.11-1.96-5.11-5.11v-4.5c0-3.23,1.88-5.11,5.11-5.11h4.83c3.23,0,5.11,1.88,5.11,5.11v4.5c0,3.15-1.96,5.11-5.11,5.11h-4.83ZM819.28,185.82c1.19,0,1.64-.49,1.64-1.68v-2.7c0-1.27-.45-1.68-1.64-1.68h-2.37c-1.19,0-1.64.41-1.64,1.68v2.7c0,1.19.45,1.68,1.64,1.68h2.37Z"/>
  </g>
  <path class="cls-1" d="M807.1,143.86h-198.72c-19.18,0-34.79,15.61-34.79,34.79v50.83c0,19.18,15.61,34.79,34.79,34.79h198.72c19.18,0,34.79-15.61,34.79-34.79v-50.83c0-19.18-15.61-34.79-34.79-34.79ZM838.04,229.48c0,17.06-13.88,30.94-30.94,30.94h-198.72c-17.06,0-30.94-13.88-30.94-30.94v-50.83c0-17.06,13.88-30.94,30.94-30.94h198.72c17.06,0,30.94,13.88,30.94,30.94v50.83Z"/>
</svg>