<?xml version="1.0" encoding="UTF-8"?>
<svg id="VARG" xmlns="http://www.w3.org/2000/svg" viewBox="0 0 122.88 26.74">
  <defs>
    <style>
      .cls-1 {
        fill: #ffffff;
      }
    </style>
  </defs>
  <g>
    <path class="cls-1" d="M14.31,6.99v6.99h2.85V0h-2.85v6.99Z"/>
    <path class="cls-1" d="M20.2.25c-.3.1-.58.35-.73.63-.17.32-.18.95-.01,1.3.23.48.73.73,1.46.73.56,0,.92-.14,1.22-.48.6-.69.37-1.75-.45-2.14-.23-.11-.37-.13-.77-.13-.27,0-.59.03-.71.08Z"/>
    <path class="cls-1" d="M5.09.86c-.03.09-1.19,3.05-2.58,6.6-1.38,3.55-2.52,6.46-2.52,6.48,0,.02.7.03,1.55.03h1.55l.47-1.34.47-1.34h5l.47,1.33.47,1.33,1.57.02h1.57s-.21-.52-.21-.52c-.47-1.21-4.82-12.28-4.91-12.5l-.09-.23h-2.73l-.06.15ZM7.39,6.65c.45,1.3.82,2.36.81,2.37s-.77.01-1.69,0l-1.68-.02.83-2.4c.45-1.32.84-2.38.87-2.36.02.02.41,1.1.86,2.39Z"/>
    <path class="cls-1" d="M57.17,7.34v6.63h1.15v-5.37h1.55c2.69,0,3.5-.1,4.42-.55.36-.18.56-.32.88-.65.74-.75,1-1.44,1-2.72,0-.84-.09-1.34-.38-1.91-.47-.93-1.31-1.58-2.47-1.91-.42-.12-.52-.12-3.29-.14l-2.87-.02v6.64ZM62.83,1.81c1.09.28,1.85,1.02,2.09,2.03.1.45.1,1.26,0,1.67-.2.78-.66,1.35-1.35,1.69-.68.33-.93.37-3.21.4l-2.04.03V1.7h2.04c1.86,0,2.09.01,2.47.11Z"/>
    <path class="cls-1" d="M85.01,2.85v1.26h-1.81v.99h1.81v3.33c0,1.84.03,3.52.05,3.74.14,1.08.51,1.62,1.28,1.88.32.11,1.35.13,1.79.03.27-.06.28-.07.25-.22-.02-.09-.03-.3-.03-.45v-.29h-.73c-.82,0-.92-.03-1.17-.41-.26-.37-.26-.39-.27-4.1l-.02-3.52h2.03v-.99h-2.03V1.59h-1.15v1.26Z"/>
    <path class="cls-1" d="M29.05,4.06c-.55.14-1,.37-1.43.73-.2.16-.38.29-.4.27-.02-.02-.03-.19-.03-.37s-.02-.39-.03-.46l-.03-.12h-2.62v9.92h2.8v-7l.25-.27c.15-.16.38-.35.56-.43.29-.14.36-.15.97-.15.54,0,.69.02.85.1.27.14.43.3.56.55.12.22.12.26.14,3.71l.02,3.5h2.84v-3.25c0-1.78-.03-3.48-.05-3.77-.17-1.69-.9-2.68-2.2-2.99-.52-.12-1.66-.1-2.18.03Z"/>
    <path class="cls-1" d="M38.86,4.02c-1.87.42-3.09,1.63-3.57,3.58-.1.42-.12.63-.12,1.55s.02,1.13.12,1.51c.16.58.54,1.34.88,1.76.56.69,1.55,1.29,2.5,1.56.62.16,2.1.21,2.79.08.98-.19,1.82-.59,2.44-1.17.41-.37.47-.48.37-.61-.04-.05-.35-.39-.69-.75l-.62-.65-.29.27c-.35.33-.84.59-1.34.71-.54.13-1.47.08-1.9-.08-.63-.25-1.15-.81-1.35-1.45l-.1-.33,3.28-.02h3.28v-.93c0-1.67-.26-2.63-.96-3.56-.57-.76-1.41-1.26-2.48-1.47-.49-.09-1.83-.09-2.26,0ZM40.92,6.32c.45.23.73.63.84,1.22.03.18.06.38.06.45v.13h-1.89c-1.47,0-1.89-.02-1.89-.07,0-.38.41-1.22.73-1.5.37-.31.69-.41,1.32-.39.47.02.59.04.83.16Z"/>
    <path class="cls-1" d="M49.08,4.02c-1.78.35-3.05,1.45-3.14,2.73l-.03.37h2.81v-.14c0-.37.39-.82.82-.95.12-.04.42-.07.67-.07,1,0,1.47.51,1.47,1.57v.4h-1.1c-.6,0-1.28.03-1.49.06-1.09.16-1.95.5-2.48.99-.56.52-.8.98-.9,1.77-.13.98.14,1.76.83,2.42.71.67,1.49.95,2.64.95,1.01,0,1.59-.18,2.27-.68.19-.14.35-.25.37-.25s.03.05.03.11c0,.05.05.24.12.41l.11.3h1.43c1.59,0,1.51.02,1.34-.41-.26-.62-.26-.68-.3-3.84-.04-3.26-.04-3.31-.36-3.96-.39-.82-1.24-1.45-2.32-1.74-.48-.13-2.21-.16-2.77-.06ZM51.69,10.36v.82l-.16.19c-.38.43-1,.69-1.67.69s-1.02-.19-1.24-.62c-.09-.18-.11-.29-.09-.57.04-.6.38-1,1-1.19.41-.13.43-.13,1.33-.14h.83s0,.82,0,.82Z"/>
    <path class="cls-1" d="M70.42,4.06c-1,.25-1.97.96-2.36,1.73-.09.19-.18.49-.22.83l-.03.23.57.02.57.02.06-.31c.15-.74.88-1.38,1.82-1.58.48-.1,1.53-.04,1.93.11.48.18.86.52,1.07.94.22.44.29.78.29,1.59v.65h-1.45c-1.53,0-2.07.05-2.77.28-1.63.53-2.48,1.74-2.26,3.23.13.86.63,1.57,1.43,1.98.52.27.95.37,1.74.37,1.24,0,2.24-.37,3.03-1.13l.28-.27.06.47c.03.26.08.54.1.64l.04.16.62.02.62.02-.04-.18c-.02-.1-.07-.32-.13-.48-.08-.26-.09-.73-.13-3.59-.04-3.61-.04-3.56-.39-4.26-.36-.71-1.21-1.31-2.12-1.5-.58-.12-1.78-.1-2.32.03ZM74.1,10.2v1.05l-.18.31c-.55.96-1.72,1.59-2.95,1.59-1.05,0-1.75-.4-2.12-1.21-.14-.3-.13-1.06.02-1.37.31-.67,1.06-1.15,2.13-1.34.24-.04.89-.08,1.74-.08h1.35s0,1.04,0,1.04Z"/>
    <path class="cls-1" d="M80.88,4.03c-.67.18-1.23.59-1.62,1.19l-.22.33v-1.44h-1.15v9.92h1.15v-6.79l.13-.36c.16-.47.41-.83.77-1.17.54-.51,1.06-.69,1.95-.66l.6.02.03-.16c.02-.09.03-.32.03-.53v-.37l-.17-.03c-.29-.05-1.21-.03-1.49.05Z"/>
    <path class="cls-1" d="M93.6,4.03c-.78.19-1.57.75-2.1,1.47l-.12.16v-.44c0-.25-.02-.6-.04-.78l-.04-.33h-1.08v9.92h1.15v-6.82l.21-.44c.42-.86,1.09-1.47,1.87-1.73.3-.1.45-.12.99-.1.55.02.67.04.98.18.61.28.98.82,1.11,1.65.03.19.05,1.81.05,3.79v3.47h1.16l-.02-3.74c-.02-3.63-.02-3.75-.14-4.16-.18-.61-.37-.99-.71-1.35-.34-.37-.78-.62-1.29-.75-.44-.1-1.55-.1-1.98,0Z"/>
    <path class="cls-1" d="M102.88,4.07c-1.79.55-2.94,2.15-3.12,4.36-.21,2.46.65,4.36,2.35,5.23.79.41.99.45,2.12.45.96,0,1,0,1.47-.17.26-.1.61-.26.78-.36.33-.2.9-.73,1.11-1.01l.12-.18-.36-.27-.36-.27-.37.37c-.66.65-1.38.94-2.36.94-.87,0-1.52-.24-2.1-.77-.77-.7-1.18-1.6-1.28-2.76l-.04-.47h7.05l-.03-.92c-.03-1.09-.13-1.54-.51-2.31-.43-.87-1.16-1.51-2.05-1.81-.29-.1-.51-.13-1.18-.14-.74-.02-.87-.01-1.23.1ZM104.79,5.04c1.1.35,1.78,1.33,1.95,2.84l.03.29h-2.94c-2.31,0-2.93-.02-2.93-.07,0-.23.26-1.07.44-1.45.38-.78,1.11-1.42,1.86-1.63.39-.11,1.19-.09,1.58.03Z"/>
    <path class="cls-1" d="M112.73,4.03c-.67.18-1.23.59-1.62,1.19l-.22.33v-1.44h-1.15v9.92h1.15v-6.79l.13-.36c.16-.47.41-.83.77-1.17.54-.51,1.06-.69,1.95-.66l.6.02.03-.16c.02-.09.03-.32.03-.53v-.37l-.17-.03c-.29-.05-1.21-.03-1.49.05Z"/>
    <path class="cls-1" d="M117.96,4.06c-.53.14-.83.28-1.24.58-.8.57-1.18,1.45-1.02,2.38.2,1.2.99,1.81,3.04,2.31,1.14.28,1.51.41,1.97.64,1.08.56,1.35,1.72.59,2.48-.5.5-1.12.71-2.11.71-1.47,0-2.43-.61-2.66-1.7l-.06-.27h-1.15l.04.31c.14,1.16.89,1.97,2.22,2.44l.52.18h1.1c1,0,1.13-.01,1.51-.13,1.63-.51,2.42-1.66,2.14-3.14-.17-.9-.83-1.53-2.06-2-.2-.08-.83-.26-1.4-.41-1.19-.31-1.75-.53-2.07-.8-.43-.37-.59-.9-.42-1.47.16-.55.75-1.01,1.52-1.18.47-.1,1.47-.05,1.87.1.72.28,1.26.85,1.38,1.49l.07.33h1.12v-.18c0-.09-.04-.33-.08-.53-.23-.97-.98-1.71-2.08-2.07-.39-.13-.54-.14-1.37-.16-.79-.01-.99,0-1.33.09Z"/>
    <path class="cls-1" d="M19.46,9.04v4.92l.5.04c.27.02.92.03,1.43.03h.92V4.11h-2.85v4.93Z"/>
  </g>
  <g>
    <path class="cls-1" d="M13.95,22.67h.27l1.57,3.98h-.26l-.5-1.28h-1.91l-.51,1.28h-.26l1.6-3.98ZM14.94,25.16l-.85-2.25h-.01l-.89,2.25h1.75Z"/>
    <path class="cls-1" d="M18.73,22.67h1.3c.36,0,.65.06.89.17.24.11.42.26.57.45.14.19.24.4.3.64.06.24.09.48.09.74,0,.28-.04.55-.11.79-.07.24-.18.45-.34.63-.15.18-.34.32-.58.42-.23.1-.51.15-.83.15h-1.29v-3.98ZM20.05,26.44c.19,0,.37-.03.56-.09.19-.06.36-.15.51-.29.15-.14.28-.32.37-.55.09-.23.14-.52.14-.86,0-.27-.03-.5-.08-.7-.05-.19-.12-.36-.21-.49-.09-.13-.19-.24-.3-.31-.11-.08-.23-.13-.35-.18-.12-.04-.24-.07-.36-.08-.12-.01-.23-.02-.33-.02h-1.02v3.56h1.07Z"/>
    <path class="cls-1" d="M23.01,22.67h.25v3.98h-.25v-3.98Z"/>
    <path class="cls-1" d="M24.51,22.67h2.5v.21h-2.25v1.59h2.03v.21h-2.03v1.96h-.25v-3.98Z"/>
    <path class="cls-1" d="M27.93,22.67h2.5v.21h-2.25v1.59h2.03v.21h-2.03v1.96h-.25v-3.98Z"/>
    <path class="cls-1" d="M31.36,22.67h2.67v.21h-2.43v1.59h2.28v.21h-2.28v1.75h2.46v.21h-2.7v-3.98Z"/>
    <path class="cls-1" d="M35.03,22.67h1.66c.17,0,.34.02.49.05.15.04.29.09.4.17.12.08.21.18.27.31.06.13.1.29.1.48,0,.27-.08.49-.23.68-.15.18-.36.3-.63.34h0c.18.03.33.08.43.16.11.07.18.17.24.27.05.11.09.23.1.36.01.13.02.26.02.39v.23c0,.07,0,.14.01.21,0,.07.02.13.04.18s.04.1.07.14h-.27c-.05-.09-.08-.2-.09-.33,0-.12,0-.25,0-.39s0-.27-.02-.4c-.01-.13-.05-.25-.11-.35-.06-.1-.15-.19-.28-.25-.13-.06-.31-.09-.54-.09h-1.42v1.81h-.25v-3.98ZM36.69,24.63c.14,0,.28-.02.4-.05.12-.04.23-.09.32-.16.09-.07.16-.17.21-.28.05-.12.08-.25.08-.41,0-.15-.03-.28-.08-.38-.06-.11-.13-.19-.22-.26-.09-.07-.2-.12-.32-.14-.12-.03-.25-.04-.38-.04h-1.42v1.74h1.42Z"/>
    <path class="cls-1" d="M39.1,22.67h2.67v.21h-2.43v1.59h2.28v.21h-2.28v1.75h2.46v.21h-2.7v-3.98Z"/>
    <path class="cls-1" d="M42.78,22.67h.31l2.51,3.65h.01v-3.65h.25v3.98h-.29l-2.53-3.68h-.01v3.68h-.25v-3.98Z"/>
    <path class="cls-1" d="M46.69,22.88v-.21h3.05v.21h-1.4v3.77h-.25v-3.77h-1.4Z"/>
    <path class="cls-1" d="M52.24,22.88v-.21h3.05v.21h-1.4v3.77h-.25v-3.77h-1.4Z"/>
    <path class="cls-1" d="M56.12,22.67h1.66c.17,0,.34.02.49.05.15.04.29.09.4.17.12.08.21.18.27.31.06.13.1.29.1.48,0,.27-.08.49-.23.68-.15.18-.36.3-.63.34h0c.18.03.33.08.43.16.11.07.18.17.24.27.05.11.09.23.1.36.01.13.02.26.02.39v.23c0,.07,0,.14.01.21,0,.07.02.13.04.18s.04.1.07.14h-.27c-.05-.09-.08-.2-.09-.33,0-.12,0-.25,0-.39s0-.27-.02-.4c-.01-.13-.05-.25-.11-.35-.06-.1-.15-.19-.28-.25-.13-.06-.31-.09-.54-.09h-1.42v1.81h-.25v-3.98ZM57.78,24.63c.14,0,.28-.02.4-.05.12-.04.23-.09.32-.16.09-.07.16-.17.21-.28.05-.12.08-.25.08-.41,0-.15-.03-.28-.08-.38-.06-.11-.13-.19-.22-.26-.09-.07-.2-.12-.32-.14-.12-.03-.25-.04-.38-.04h-1.42v1.74h1.42Z"/>
    <path class="cls-1" d="M61.37,22.67h.27l1.57,3.98h-.26l-.5-1.28h-1.91l-.51,1.28h-.26l1.6-3.98ZM62.37,25.16l-.85-2.25h-.01l-.89,2.25h1.75Z"/>
    <path class="cls-1" d="M64.05,22.67h.25v3.98h-.25v-3.98Z"/>
    <path class="cls-1" d="M65.55,22.67h.31l2.51,3.65h.01v-3.65h.25v3.98h-.29l-2.53-3.68h-.01v3.68h-.25v-3.98Z"/>
    <path class="cls-1" d="M75.6,24.66c0,.29-.04.56-.13.82-.09.25-.21.48-.37.66-.16.19-.36.34-.59.44-.23.11-.5.16-.8.16s-.56-.05-.8-.16c-.24-.11-.43-.26-.6-.44-.16-.19-.29-.41-.37-.66-.09-.25-.13-.53-.13-.82s.04-.56.13-.82c.09-.25.21-.48.37-.66.16-.19.36-.34.6-.44.24-.11.5-.16.8-.16s.56.05.8.16c.23.11.43.26.59.44.16.19.29.41.37.66.09.25.13.53.13.82ZM72.06,24.66c0,.26.04.5.11.72.07.23.18.42.32.59.14.17.31.3.52.4.2.1.44.15.7.15s.49-.05.69-.15c.2-.1.37-.23.52-.4.14-.17.25-.37.32-.59.07-.23.11-.47.11-.72s-.04-.5-.11-.72c-.07-.23-.18-.42-.32-.59-.14-.17-.31-.3-.52-.4-.2-.1-.43-.15-.69-.15s-.49.05-.7.15c-.2.1-.38.24-.52.4-.14.17-.25.37-.32.59-.07.23-.11.47-.11.72Z"/>
    <path class="cls-1" d="M76.68,22.67h2.5v.21h-2.25v1.59h2.03v.21h-2.03v1.96h-.25v-3.98Z"/>
    <path class="cls-1" d="M81.78,22.88v-.21h3.05v.21h-1.4v3.77h-.25v-3.77h-1.4Z"/>
    <path class="cls-1" d="M85.66,22.67h.25v1.81h2.54v-1.81h.25v3.98h-.25v-1.96h-2.54v1.96h-.25v-3.98Z"/>
    <path class="cls-1" d="M93.56,24.66c0,.29-.04.56-.13.82-.09.25-.21.48-.37.66-.16.19-.36.34-.59.44-.23.11-.5.16-.8.16s-.56-.05-.8-.16c-.24-.11-.43-.26-.6-.44-.16-.19-.29-.41-.37-.66-.09-.25-.13-.53-.13-.82s.04-.56.13-.82c.09-.25.21-.48.37-.66.16-.19.36-.34.6-.44.24-.11.5-.16.8-.16s.56.05.8.16c.23.11.43.26.59.44.16.19.29.41.37.66.09.25.13.53.13.82ZM90.02,24.66c0,.26.04.5.11.72.07.23.18.42.32.59.14.17.31.3.52.4.2.1.44.15.7.15s.49-.05.69-.15c.2-.1.37-.23.52-.4.14-.17.25-.37.32-.59.07-.23.11-.47.11-.72s-.04-.5-.11-.72c-.07-.23-.18-.42-.32-.59-.14-.17-.31-.3-.52-.4-.2-.1-.43-.15-.69-.15s-.49.05-.7.15c-.2.1-.38.24-.52.4-.14.17-.25.37-.32.59-.07.23-.11.47-.11.72Z"/>
    <path class="cls-1" d="M94.88,22.67v2.39c0,.08,0,.17.01.27,0,.1.03.21.06.32.03.11.07.22.13.32.05.11.13.2.22.28.09.08.21.15.34.2.14.05.3.08.49.08.25,0,.45-.03.62-.1.17-.07.3-.17.4-.3.1-.13.18-.28.22-.47.04-.18.07-.39.07-.61v-2.39h.25v2.39c0,.24-.03.46-.08.66-.05.2-.13.38-.25.53-.12.15-.28.27-.48.36-.2.09-.45.13-.74.13-.23,0-.43-.03-.6-.09-.17-.06-.31-.14-.42-.23-.11-.09-.2-.2-.26-.33-.06-.12-.11-.25-.14-.37-.03-.12-.05-.25-.06-.36,0-.12-.01-.22-.01-.31v-2.39h.25Z"/>
    <path class="cls-1" d="M98.79,24.68c0-.28.04-.55.13-.81.08-.25.21-.48.36-.67.16-.19.36-.35.59-.46.23-.11.5-.17.8-.17.2,0,.4.03.59.09.19.06.35.15.5.26.15.12.27.25.37.42s.17.35.2.56h-.23c-.09-.35-.26-.62-.5-.82-.24-.2-.55-.3-.91-.3-.27,0-.5.05-.71.16-.2.1-.38.24-.51.42-.14.17-.24.38-.31.6-.07.23-.11.47-.11.72s.03.49.1.72c.07.22.17.42.31.59.14.17.31.3.51.4.2.1.44.15.72.15.24,0,.45-.04.64-.12.19-.08.35-.19.48-.33.13-.14.23-.31.3-.51.07-.2.09-.42.08-.67h-1.47v-.21h1.68v1.95h-.21v-.85h-.01c-.05.14-.12.28-.22.39-.1.12-.21.22-.34.3-.13.08-.28.14-.44.19-.16.04-.33.07-.5.07-.3,0-.57-.05-.8-.16-.23-.11-.43-.25-.59-.44-.16-.19-.28-.4-.36-.65-.08-.25-.12-.52-.12-.81Z"/>
    <path class="cls-1" d="M103.63,22.67h.25v1.81h2.54v-1.81h.25v3.98h-.25v-1.96h-2.54v1.96h-.25v-3.98Z"/>
    <path class="cls-1" d="M107.49,22.88v-.21h3.05v.21h-1.4v3.77h-.25v-3.77h-1.4Z"/>
  </g>
</svg>