<?xml version="1.0" encoding="UTF-8"?>
<svg xmlns="http://www.w3.org/2000/svg" id="Layer_1" data-name="Layer 1" viewBox="0 0 1890.26 1674.19">
  <defs>
    <style>.cls-1{fill:#ffffff;}.cls-2{fill:#fffffffff;}</style>
  </defs>
  <title>logo.638088cb-02</title>
  <path class="cls-1" d="M1900.65,2H10.49S-8.3,943.57,682.82,1567.28c76.35,68.89,172.08,108.69,271,108.93h3.46c99,0,194.66-40,271.07-108.93C1919.49,943.57,1900.65,2,1900.65,2Z" transform="translate(-10.44 -2.02)"></path>
  <path class="cls-2" d="M1900.65,2H10.49S-8.3,943.57,682.82,1567.28c76.35,68.89,172.08,108.69,271,108.93h3.46c99,0,194.66-40,271.07-108.93C1919.49,943.57,1900.65,2,1900.65,2Zm-91.93,260.76a2031.79,2031.79,0,0,1-54.31,310c-58.16,222.48-150.28,426.56-279.11,610.53a1859.41,1859.41,0,0,1-358,382.68c-34.7,28-71,41.62-112.66,19.68-22.63-11.86-38.35-30.8-47.55-61.5-6.57,12.15-10.46,21-15.67,28.73-33.77,50.82-90.57,58.15-142,17.56A1828.16,1828.16,0,0,1,489.8,1257.11,1838.34,1838.34,0,0,1,264.09,879.66a1835.89,1835.89,0,0,1-134.66-432c-14.6-82-22-165.51-32.42-248.36A175.35,175.35,0,0,1,97,178a276.32,276.32,0,0,0,33.2-8.76,58.59,58.59,0,0,0,28.14-23.36,59.56,59.56,0,0,0,9-35.68c-.93-16.23,4.86-19.18,17.47-19.09,47,.4,94,.25,141.13.25H870.18c13.29,0,21.22,1.72,25.7,18.65,7.35,27.89,36.55,48.36,60.88,47.18a64.43,64.43,0,0,0,39.09-16.18,65.68,65.68,0,0,0,20.92-37.1c2.43-12,8.47-12.55,16.69-12.5h688.78c6.38,0,12.75.74,18.93,1.13.59,60.91,31.93,83,73.49,84.72C1812.71,205.56,1811.59,234.25,1808.72,262.78Z" transform="translate(-10.44 -2.02)"></path>
  <path class="cls-2" d="M864.31,822.89,849,988.89h39.51l-15.66-166Z" transform="translate(-10.44 -2.02)"></path>
  <path class="cls-2" d="M622.67,911.49h-17v127.92h23.51a9.55,9.55,0,0,0,3.78-.56,9.68,9.68,0,0,0,3.27-2,12.87,12.87,0,0,0,2.78-9.44V933.53a25.06,25.06,0,0,0-4.87-16.23,14.79,14.79,0,0,0-5.08-4.25A14.52,14.52,0,0,0,622.67,911.49Z" transform="translate(-10.44 -2.02)"></path>
  <path class="cls-2" d="M629.2,822.89H605.69v57.72h17a14.56,14.56,0,0,0,11.59-5.81,25.11,25.11,0,0,0,4.86-16.23V834.89a16.32,16.32,0,0,0-2.14-8.41,8.16,8.16,0,0,0-7.78-3.6Z" transform="translate(-10.44 -2.02)"></path>
  <path class="cls-2" d="M778.27,367.19H755.1V495.5h23.17a9.9,9.9,0,0,0,7.06-2.6,12.7,12.7,0,0,0,2.77-9.45V379.25a16.55,16.55,0,0,0-2.14-8.42,8.43,8.43,0,0,0-3.34-2.9A8.16,8.16,0,0,0,778.27,367.19Z" transform="translate(-10.44 -2.02)"></path>
  <path class="cls-2" d="M281.62,367.19h-23.5v58h17a14.62,14.62,0,0,0,11.59-5.81,25.11,25.11,0,0,0,4.86-16.28V379.44a16.36,16.36,0,0,0-2.24-8.41,8.21,8.21,0,0,0-7.69-3.84Z" transform="translate(-10.44 -2.02)"></path>
  <path class="cls-2" d="M1716,137.43c-3.69-16-11.19-19.68-25.55-19.68q-309.33,1.19-618.5.49c-16.64,0-25.65,4.28-33.63,20.27-18.11,36.31-48.67,53-85.26,52.1s-66-20.27-83-56.72c-5.65-12.16-12-15.85-23.65-15.85q-301.11.6-602.35.45a182.35,182.35,0,0,0-32.46.49,20.94,20.94,0,0,0-8.55,4.51,21.26,21.26,0,0,0-5.66,7.89c-8.62,34.44-26.82,58.4-57.33,70.65-10.47,4.23-15.67,9.84-14.12,23.22,4.29,35.28,6.18,71,11,106.13a2040.24,2040.24,0,0,0,75.87,339.23,1878.43,1878.43,0,0,0,190.73,414.86,1833,1833,0,0,0,198.93,265.68c64.78,71.79,133.25,139.29,209.27,196.56,21.65,16.24,45.84,29.52,72.61,19.33,44.29-16.87,59.71-85.06,29.88-125.75-20.15-27.4-57.82-30.75-77.87-6.15-10,12.2-15.62,26.62-10,43.59,4.86,15.2,12.6,27.45,28.18,32.42.92-3.39,2.19-5.41,1.84-7-3.65-17.12,3.8-27.26,18.16-30.26,12.65-2.61,22.29,3.64,25.89,18.25,4.33,17.81-4.58,27.8-18,33.71-24.92,11-56.5-1.73-72.56-28.3a71,71,0,0,1,6.37-80.24c33.39-43.25,111.94-17.81,130.48,28.63,2.38,6,5.65,11.66,10.27,21,13.48-46.29,41.85-65.38,80-71.34a63.25,63.25,0,0,1,43.37,9.24,64.49,64.49,0,0,1,27,35.58c9.44,33.66-5.16,70.85-35.09,83.65-18.15,7.72-38.93,10.28-54.46-5.91-5.69-5.85-8-20-6.27-29.13,2.48-13.28,14-17.41,25.89-14.76s17.52,10.88,17.42,24.06v13.34c26.23-12.6,36.74-37.3,28.52-62a47.85,47.85,0,0,0-23.55-26.12,47.06,47.06,0,0,0-34.85-2.76c-26.33,9.6-40.78,31.79-42.73,66.33-3.31,58.79,43.41,101.54,89.93,75.37,14.31-8,29.89-14.76,42-25.83,60.34-55.55,122.88-108.88,178.9-169.3a1832.17,1832.17,0,0,0,396-669.13c51.24-152.52,81.61-310,96.7-471.19,1.26-13.58-2-20-14.07-24.6a86.34,86.34,0,0,1-36.17-25.13A87.73,87.73,0,0,1,1716,137.43ZM316.56,398.89a58.11,58.11,0,0,1-5.4,28.24,28.74,28.74,0,0,1-14.21,13,31.47,31.47,0,0,1,14.21,13.43,58.44,58.44,0,0,1,5.4,28.29v89.79a63,63,0,0,1-2.77,19.68,36.45,36.45,0,0,1-7.5,13.24,29.19,29.19,0,0,1-11.14,7.38,37.46,37.46,0,0,1-13.53,2.41H233V336.59h48.67a35.42,35.42,0,0,1,16.16,3.4,29.18,29.18,0,0,1,10.8,9.2,42.38,42.38,0,0,1,6,13.68,67.92,67.92,0,0,1,1.94,16.62Zm118.22-31.7H384.49v57.37h37.86V455.8H384.49V583.73h50.28v30.84H359.34v-278h75.44Zm114.6,247.38H495.49l-26.13-278h25.45L518,584h8.81L550,336.59h25Zm114.76,240a58.85,58.85,0,0,1-5.35,28.25,29.35,29.35,0,0,1-14.21,13,31.41,31.41,0,0,1,14.21,13.43,59,59,0,0,1,5.35,28.29v89.8a62.46,62.46,0,0,1-2.77,19.68,35.26,35.26,0,0,1-7.5,13.23,29.68,29.68,0,0,1-11.09,7.43,38.65,38.65,0,0,1-13.58,2.41H580.49V792h48.67a35.15,35.15,0,0,1,16.16,3.45,28.84,28.84,0,0,1,10.8,9.2,41.06,41.06,0,0,1,6,13.62,68.57,68.57,0,0,1,2,16.63Zm24.68-487.38H638.54v57.37H676.4V455.8H638.54V583.73h50.28v30.84H613.38v-278h75.44Zm93.53,455.7H732.08v57.32h37.86V911.5H732.08v127.92h50.27v30.9H706.92V792h75.43ZM791,614.57l-20.53-88.21H755.1v88.21H729.94v-278h48.33a35.69,35.69,0,0,1,16.2,3.4,30.75,30.75,0,0,1,10.9,9.2,39.51,39.51,0,0,1,6.23,13.72,67.93,67.93,0,0,1,1.95,16.62v104A52,52,0,0,1,808,509.78a34.22,34.22,0,0,1-14.6,13.82l25.45,91Zm105.21,455.7-4.86-53.38H846.59l-5.2,53.34H816.22L842,792h53.53l26.13,278.28Zm35.14-455.7H855.94v-278h25.11V584h50.32Zm110.86,415.21a68.49,68.49,0,0,1-1.94,16.63,40.76,40.76,0,0,1-6,13.62,28.78,28.78,0,0,1-10.8,9.21,34.76,34.76,0,0,1-16.16,3.44H991a34.71,34.71,0,0,1-16.16-3.44,28.46,28.46,0,0,1-10.8-9.21,40.37,40.37,0,0,1-6-13.62,68,68,0,0,1-2-16.63V792h25.12v237.79a15.5,15.5,0,0,0,2.28,8.41,8.24,8.24,0,0,0,7.55,3.59h16.3a8.22,8.22,0,0,0,7.54-3.59,15.55,15.55,0,0,0,2.24-8.41V792h25.16Zm.83-546.13a56.6,56.6,0,0,1-7.15,29.08,29.07,29.07,0,0,1-10.2,10,28.67,28.67,0,0,1-13.65,3.87v88H986.9V526.36a28.49,28.49,0,0,1-13.65-3.87,28.91,28.91,0,0,1-10.2-10,56.37,56.37,0,0,1-7.15-29.07V336.59H981V483.7a15.4,15.4,0,0,0,2.29,8.46,8.22,8.22,0,0,0,7.54,3.6h17.32a8.09,8.09,0,0,0,7.49-3.6,15.15,15.15,0,0,0,2.34-8.46V336.59h25.11Zm235.5-147.06h25.11v278h-25.11ZM1184,823.14h-41.51v247.37h-25.11V822.89h-41.51V792H1184ZM1168.77,455.8V614.57h-25.11v-278h25.11v88.56h38.93V336.59h25.16v278H1207.7V455.8Zm137.62,483.35a56.6,56.6,0,0,1-7.15,29.08,29.12,29.12,0,0,1-10.19,10,28.65,28.65,0,0,1-13.65,3.86v88.22h-25.17V982.05a28.59,28.59,0,0,1-13.65-3.86,29,29,0,0,1-10.19-10,56.51,56.51,0,0,1-7.16-29.08V792h25.17V939.15a14.94,14.94,0,0,0,2.28,8.41,8.13,8.13,0,0,0,7.5,3.64h17.31a8.26,8.26,0,0,0,4.26-.79,8.46,8.46,0,0,0,3.29-2.85,15.67,15.67,0,0,0,2.28-8.41V792h25.11ZM1424.8,614.43h-75.43V336.59h25.12V584h50.32Zm110.38,0h-75.39V336.59h25.31V584h50.13Zm119.19-218.11H1629.2V376.64a15.12,15.12,0,0,0-2.28-8.41,8.46,8.46,0,0,0-3.26-2.85,8.19,8.19,0,0,0-4.24-.79h-16a8.11,8.11,0,0,0-4.34.74,8.32,8.32,0,0,0-3.35,2.9,16.17,16.17,0,0,0-2.09,8.41v35.67a15.93,15.93,0,0,0,2.09,8.61,8.33,8.33,0,0,0,3.39,2.77,8.13,8.13,0,0,0,4.3.67h16a35.55,35.55,0,0,1,16.16,3.4,29.53,29.53,0,0,1,10.8,9.2,41.11,41.11,0,0,1,6,13.63,69,69,0,0,1,2,16.63V573.89a68,68,0,0,1-2,16.62,40.33,40.33,0,0,1-6,13.63,28.81,28.81,0,0,1-10.8,9.25,35.42,35.42,0,0,1-16.16,3.4h-16a35.36,35.36,0,0,1-16.16-3.4,28.11,28.11,0,0,1-10.75-9.25,40.05,40.05,0,0,1-6.09-13.63,69.4,69.4,0,0,1-1.93-16.62V491.08h25.16v83a16.17,16.17,0,0,0,2.09,8.41,8.23,8.23,0,0,0,7.69,3.65h16a8.19,8.19,0,0,0,4.24-.8,8.38,8.38,0,0,0,3.26-2.85,15.12,15.12,0,0,0,2.28-8.41V467.42a15.23,15.23,0,0,0-2.28-8.42,8.31,8.31,0,0,0-3.28-2.8,8.1,8.1,0,0,0-4.22-.79h-16a35.35,35.35,0,0,1-16.16-3.39,28.34,28.34,0,0,1-10.75-9.25,40.05,40.05,0,0,1-6.09-13.63,69.49,69.49,0,0,1-1.94-16.63V376.89a70.06,70.06,0,0,1,1.94-16.63,41.15,41.15,0,0,1,6.13-13.78,28.63,28.63,0,0,1,10.76-9.1,35.59,35.59,0,0,1,16.17-3.49h16a35.55,35.55,0,0,1,16.16,3.4,29.42,29.42,0,0,1,10.8,9.1,41.36,41.36,0,0,1,6,13.68,68.49,68.49,0,0,1,1.94,16.63Z" transform="translate(-10.44 -2.02)"></path>
  <path class="cls-2" d="M275.1,455.8h-17V583.72h23.5a9.88,9.88,0,0,0,3.76-.59,9.6,9.6,0,0,0,3.25-2A12.76,12.76,0,0,0,291,576.7a13,13,0,0,0,.44-5V477.89a25.06,25.06,0,0,0-4.87-16.23,14.79,14.79,0,0,0-5.06-4.24A14.56,14.56,0,0,0,275.1,455.8Z" transform="translate(-10.44 -2.02)"></path>
</svg>
