<?xml version="1.0" encoding="utf-8"?>
<!-- Generator: Adobe Illustrator 26.5.0, SVG Export Plug-In . SVG Version: 6.00 Build 0)  -->
<svg version="1.1" id="Layer_1" xmlns="http://www.w3.org/2000/svg" xmlns:xlink="http://www.w3.org/1999/xlink" x="0px" y="0px"
	 viewBox="0 0 411.76 105.45" style="enable-background:new 0 0 411.76 105.45;" xml:space="preserve">
<style type="text/css">
	.st0{fill:#ffffff;}
	.st1{fill:#ffffff;}
</style>
<g>
	<g>
		<path class="st0" d="M50.84,9.86v28.29h27.56c0,0,1.33-8.99,1.33-28.29H50.84z"/>
		<path class="st0" d="M50.84,49.64V96.2c0,0,21.07-10.31,25.64-46.56H50.84z"/>
		<path fill="#ffffff" d="M45.64,11.48v1.77c0,0-3.16,0.41-3.16-0.88C42.48,11.19,45.64,11.48,45.64,11.48z"/>
		<path fill="#ffffff" d="M17.21,23.89c0,0-1.66-1.64,3.63-6.93c3.9-3.79,9.49-2.54,9.49-1.96c0,0.89-9.05,5.66-11.29,8.89
			C19.04,23.89,18.09,24.79,17.21,23.89z"/>
		<path fill="#ffffff" d="M15.7,26.97c0,0-1.44-0.14-2.82,2.47c-1.37,2.61,0.14,3.71,0.76,3.3l0.14-0.09c0.32-0.21,0.57-0.51,0.72-0.86
			C14.99,30.69,15.97,28.23,15.7,26.97z"/>
		<path fill="#ffffff" d="M18.28,38.15c0,0-2.58-1.44-4.24,3.21s-1.41,8.41-0.41,7.86C14.63,48.66,21.33,40.04,18.28,38.15z"/>
		<path fill="#ffffff" d="M14.55,57.56c-0.46,0.32-0.67,0.89-0.52,1.43c0.36,1.27,0.3,1.84,1.3,3.39c0.22,0.34,9.81-4.95,12.26-12.11
			s5.7-10.36,7-11.66c1.3-1.3,1.45-2.45,0.75-3.35c-0.7-0.9-2.05-2.6-4-0.95s-6.2,8.66-8.06,12.91
			C21.55,51.19,18.28,54.96,14.55,57.56z"/>
		<path fill="#ffffff" d="M45.64,28.43v6.08c0,0-5.07,0.69-5.07-3.04S45.64,28.43,45.64,28.43z"/>
		<path fill="#ffffff" d="M45.64,41.54V48c0,0-2.29,0.57-3.76,5.25s-6.51,10.76-7.55,11.11c-1.04,0.35-2.87,0.69-4-0.35c-1.12-1.04-1.12-2,0.7-3.99
			c1.82-2,5.55-8.51,6.25-12.02S39.95,41.8,45.64,41.54z"/>
		<path fill="#ffffff" d="M24.87,78.77c0,0,6.85-4.43,10.89-7.29c4.04-2.86,6.3-7.03,8.81-4.6c2.52,2.43,0.87,3.65-3.99,7.29s-9.72,7.55-11.46,7.81
			C27.38,82.24,24.87,78.77,24.87,78.77z"/>
		<path fill="#ffffff" d="M33.55,86.32c0,0,2.6,2.86,4.77,2.34c2.17-0.52,4.08-2.6,3.47-4.17c-0.61-1.56-2.05-2.06-4.19-0.64
			C35.46,85.28,33.55,86.32,33.55,86.32z"/>
		<path fill="#ffffff" d="M18.32,69.15c-0.32,0.14-0.47,0.51-0.35,0.84c0.5,1.27,1.75,4.14,2.9,4.08c1.48-0.08,4.69-2.59,5.03-3.37
			c0.35-0.78,0.95-1.56,0-3.12s-2.6-0.87-4.25,0C20.52,68.17,19.09,68.81,18.32,69.15z"/>
		<path fill="#ffffff" d="M45.74,90.14v3.73c0,0-3.16-1.13-3.25-1.87C42.4,91.27,45.74,90.14,45.74,90.14z"/>
		<path fill="#ffffff" d="M21.48,32.82c0,0-1.65-1.27-0.28-2.93s7.75-12.31,24.44-12.31v4.53c0,0-7.79-0.94-12.93,3.09s-8.4,7.94-8.4,7.94
			S23.7,34.53,21.48,32.82z"/>
	</g>
	<g>
		<g>
			<path fill="#ffffff" d="M124.3,23.72h8.23l-14.22,32.2h-7.64l-14.22-32.2h8.65l9.61,23.46L124.3,23.72z"/>
			<path fill="#ffffff" d="M137.83,23.72h8v32.2h-8V23.72z"/>
			<path class="st1" d="M153.51,55.92v-32.2h22.36c5.66,0,8,2.3,8,8v6.07c0,5.7-2.35,8-8,8h-14.45v10.12H153.51z M161.43,39.91
				h11.36c2.44,0,3.17-0.78,3.17-3.22v-3.59c0-2.44-0.74-3.22-3.17-3.22h-11.36V39.91z"/>
			<path fill="#ffffff" d="M221.78,55.92h-8.65l-7.45-11.23h-7.73v11.23h-7.91v-32.2h22.36c5.66,0,8,2.3,8,8v4.42c0,5.2-2.02,7.59-6.67,7.96
				L221.78,55.92z M197.95,29.61v9.38h11.36c2.44,0,3.17-0.78,3.17-3.22v-2.94c0-2.44-0.74-3.22-3.17-3.22H197.95z"/>
			<path fill="#ffffff" d="M236.18,55.92c-6.07,0-8.92-2.81-8.92-8.92V32.65c0-6.12,2.85-8.92,8.92-8.92H251c6.07,0,8.92,2.81,8.92,8.92V47
				c0,6.12-2.85,8.92-8.92,8.92H236.18z M248.24,49.21c2.81,0,3.77-1.01,3.77-3.77V34.21c0-2.76-0.97-3.77-3.77-3.77h-9.29
				c-2.76,0-3.77,1.01-3.77,3.77v11.23c0,2.76,1.01,3.77,3.77,3.77H248.24z"/>
			<path fill="#ffffff" d="M294.84,23.72v6.99H283.7v25.21h-7.91V30.71h-11.13v-6.99H294.84z"/>
			<path fill="#ffffff" d="M308.27,49.39h19.6v6.53h-27.51v-32.2h27.05v6.53h-19.14v6.12h17.3v5.98h-17.3V49.39z"/>
			<path fill="#ffffff" d="M342.54,55.92c-6.07,0-8.92-2.81-8.92-8.92V32.65c0-6.12,2.85-8.92,8.92-8.92h13.62c6.07,0,8.93,2.81,8.93,8.92v3.77
				h-7.64v-2.3c0-2.81-0.97-3.77-3.77-3.77h-8.37c-2.76,0-3.77,0.97-3.77,3.77v11.41c0,2.81,1.01,3.77,3.77,3.77h8.37
				c2.81,0,3.77-0.97,3.77-3.77V42.9h7.64V47c0,6.12-2.85,8.92-8.93,8.92H342.54z"/>
			<path fill="#ffffff" d="M400,23.72v6.99h-11.13v25.21h-7.91V30.71h-11.13v-6.99H400z"/>
		</g>
		<g>
			<path fill="#ffffff" d="M139.62,79.17h1.95v0.56c0,0.76,0.29,1.05,1.05,1.05h6.18c0.76,0,1.05-0.29,1.05-1.05v-0.88c0-0.76-0.25-0.97-1.05-1.05
				l-6.83-0.48c-1.54-0.12-2.19-0.71-2.19-2.19v-1.41c0-1.5,0.7-2.19,2.19-2.19h7.47c1.5,0,2.19,0.69,2.19,2.19v0.76h-1.95v-0.34
				c0-0.76-0.29-1.05-1.05-1.05h-5.81c-0.76,0-1.05,0.29-1.05,1.05v0.53c0,0.74,0.26,0.97,1.05,1.05l6.83,0.46
				c1.54,0.12,2.19,0.71,2.19,2.19v1.78c0,1.5-0.7,2.19-2.19,2.19h-7.85c-1.5,0-2.19-0.7-2.19-2.19V79.17z"/>
			<path fill="#ffffff" d="M156.88,80.69h8.87v1.65h-10.89V71.53h10.73v1.65h-8.71v2.8h8.09v1.51h-8.09V80.69z"/>
			<path fill="#ffffff" d="M171.12,82.34c-1.98,0-2.87-0.9-2.87-2.87V74.4c0-1.98,0.9-2.87,2.87-2.87h6.46c1.98,0,2.87,0.9,2.87,2.87v1.14h-1.98
				v-0.8c0-1.13-0.42-1.54-1.54-1.54h-5.1c-1.13,0-1.54,0.42-1.54,1.54v4.39c0,1.13,0.42,1.54,1.54,1.54h5.1
				c1.13,0,1.54-0.42,1.54-1.54v-0.94h1.98v1.28c0,1.98-0.9,2.87-2.87,2.87H171.12z"/>
			<path fill="#ffffff" d="M186.13,82.34c-1.98,0-2.87-0.9-2.87-2.87v-7.94h2.04v7.54c0,1.13,0.42,1.54,1.54,1.54h4.94c1.16,0,1.54-0.39,1.54-1.54
				v-7.54h2.04v7.94c0,1.98-0.9,2.87-2.87,2.87H186.13z"/>
			<path fill="#ffffff" d="M210.66,82.34h-2.39l-3.18-4.05h-4.65v4.05h-2.04V71.53h9.24c1.81,0,2.56,0.73,2.56,2.56v1.51
				c0,1.84-0.76,2.56-2.56,2.56l-0.28,0.03L210.66,82.34z M200.43,73.04v3.77h6.41c1,0,1.31-0.29,1.31-1.3v-1.17
				c0-1-0.31-1.3-1.31-1.3H200.43z"/>
			<path fill="#ffffff" d="M213.28,71.53h2.07v10.81h-2.07V71.53z"/>
			<path fill="#ffffff" d="M229.69,71.53v1.76h-4.91v9.05h-2.04v-9.05h-4.91v-1.76H229.69z"/>
			<path fill="#ffffff" d="M244.37,71.53l-5.65,6.84v3.97h-2.04v-3.97l-5.65-6.84h2.52l4.22,5.25l4.2-5.25H244.37z"/>
			<path fill="#ffffff" d="M252.11,79.17h1.95v0.56c0,0.76,0.29,1.05,1.05,1.05h6.18c0.76,0,1.05-0.29,1.05-1.05v-0.88c0-0.76-0.25-0.97-1.05-1.05
				l-6.83-0.48c-1.54-0.12-2.19-0.71-2.19-2.19v-1.41c0-1.5,0.7-2.19,2.19-2.19h7.47c1.5,0,2.19,0.69,2.19,2.19v0.76h-1.95v-0.34
				c0-0.76-0.29-1.05-1.05-1.05h-5.81c-0.76,0-1.05,0.29-1.05,1.05v0.53c0,0.74,0.26,0.97,1.05,1.05l6.83,0.46
				c1.54,0.12,2.19,0.71,2.19,2.19v1.78c0,1.5-0.7,2.19-2.19,2.19h-7.85c-1.5,0-2.19-0.7-2.19-2.19V79.17z"/>
			<path fill="#ffffff" d="M270.08,82.34c-1.98,0-2.87-0.9-2.87-2.87V74.4c0-1.98,0.9-2.87,2.87-2.87h6.83c1.98,0,2.87,0.9,2.87,2.87v5.07
				c0,1.98-0.9,2.87-2.87,2.87H270.08z M276.19,80.64c1.13,0,1.54-0.42,1.54-1.54v-4.32c0-1.13-0.42-1.54-1.54-1.54h-5.41
				c-1.13,0-1.54,0.39-1.54,1.54v4.32c0,1.16,0.42,1.54,1.54,1.54H276.19z"/>
			<path fill="#ffffff" d="M284.81,80.58h8.09v1.76h-10.13V71.53h2.04V80.58z"/>
			<path fill="#ffffff" d="M297.86,82.34c-1.98,0-2.87-0.9-2.87-2.87v-7.94h2.04v7.54c0,1.13,0.42,1.54,1.54,1.54h4.94c1.16,0,1.54-0.39,1.54-1.54
				v-7.54h2.04v7.94c0,1.98-0.9,2.87-2.87,2.87H297.86z"/>
			<path fill="#ffffff" d="M321.25,71.53v1.76h-4.91v9.05h-2.04v-9.05h-4.91v-1.76H321.25z"/>
			<path fill="#ffffff" d="M323.72,71.53h2.07v10.81h-2.07V71.53z"/>
			<path fill="#ffffff" d="M331.73,82.34c-1.98,0-2.87-0.9-2.87-2.87V74.4c0-1.98,0.9-2.87,2.87-2.87h6.83c1.98,0,2.87,0.9,2.87,2.87v5.07
				c0,1.98-0.9,2.87-2.87,2.87H331.73z M337.85,80.64c1.13,0,1.54-0.42,1.54-1.54v-4.32c0-1.13-0.42-1.54-1.54-1.54h-5.41
				c-1.13,0-1.54,0.39-1.54,1.54v4.32c0,1.16,0.42,1.54,1.54,1.54H337.85z"/>
			<path fill="#ffffff" d="M354.87,71.53h1.98v10.81h-1.64l-8.8-8.22v8.22h-1.98V71.53h1.73l8.71,8.12V71.53z"/>
		</g>
	</g>
</g>
</svg>
