<svg xmlns="http://www.w3.org/2000/svg" id="Ebene_1" viewBox="0 0 801 202.2"><defs><style>      .st0 {        fill: #ffffff;      }      .st0, .st1, .st2, .st3, .st4 {        fill-rule: evenodd;        opacity: .8;      }      .st5 {        fill: #ffffff;      }      .st1 {        fill: #ffffff;      }      .st6 {        fill: #ffffff;      }      .st2 {        fill: #ffffff;      }      .st3 {        fill: #ffffff;      }      .st4 {        fill: #ffffff;      }    </style></defs><g><path class="st2" d="M21.8,139L1.8,104.2c-2.3-4-2.3-9,0-13.1l20.1-34.8c2.3-4,6.6-6.5,11.3-6.5h40.2c4.7,0,9,2.5,11.3,6.5l20.1,34.8c2.3,4,2.3,9,0,13.1l-20.1,34.8c-2.3,4-6.6,6.5-11.3,6.5h-40.2c-4.7,0-9-2.5-11.3-6.5Z"></path><path class="st0" d="M44.9,100.1l-20.1-34.8c-2.3-4-2.3-9,0-13.1l20.1-34.8c2.3-4,6.6-6.5,11.3-6.5h40.2c4.7,0,9,2.5,11.3,6.5l20.1,34.8c2.3,4,2.3,9,0,13.1l-20.1,34.8c-2.3,4-6.6,6.5-11.3,6.5h-40.2c-4.7,0-9-2.5-11.3-6.5Z"></path><path class="st3" d="M67.2,138.7l-20.1-34.8c-2.3-4-2.3-9,0-13.1l20.1-34.8c2.3-4,6.6-6.5,11.3-6.5h40.2c4.7,0,9,2.5,11.3,6.5l20.1,34.8c2.3,4,2.3,9,0,13.1l-20.1,34.8c-2.3,4-6.6,6.5-11.3,6.5h-40.2c-4.7,0-9-2.5-11.3-6.5Z"></path><path class="st0" d="M128.6,145.5l-20.1-34.8c-2.3-4-2.3-9,0-13.1l20.1-34.8c2.3-4,6.6-6.5,11.3-6.5h40.2c4.7,0,9,2.5,11.3,6.5l20.1,34.8c2.3,4,2.3,9,0,13.1l-20.1,34.8c-2.3,4-6.6,6.5-11.3,6.5h-40.2c-4.7,0-9-2.5-11.3-6.5Z"></path><path class="st1" d="M151,184.7l-20.1-34.8c-2.3-4-2.3-9,0-13.1l20.1-34.8c2.3-4,6.6-6.5,11.3-6.5h40.2c4.7,0,9,2.5,11.3,6.5l20.1,34.8c2.3,4,2.3,9,0,13.1l-20.1,34.8c-2.3,4-6.6,6.5-11.3,6.5h-40.2c-4.7,0-9-2.5-11.3-6.5Z"></path><path class="st4" d="M105.6,184.7l-20.1-34.8c-2.3-4-2.3-9,0-13.1l20.1-34.8c2.3-4,6.6-6.5,11.3-6.5h40.2c4.7,0,9,2.5,11.3,6.5l20.1,34.8c2.3,4,2.3,9,0,13.1l-20.1,34.8c-2.3,4-6.6,6.5-11.3,6.5h-40.2c-4.7,0-9-2.5-11.3-6.5Z"></path></g><g><path class="st6" d="M317.2,150.5c0,2.2-.2,4.2-.7,5.9-.5,1.8-1.2,3.2-2.1,4.5-.9,1.2-2.1,2.2-3.4,2.8s-2.9,1-4.6,1-1.5,0-2.2-.2c-.7-.2-1.4-.4-2-.8-.7-.4-1.3-.8-2-1.3s-1.3-1.2-2.1-2v3.1c0,.1,0,.3-.1.4,0,.1-.2.2-.4.3-.2,0-.4.1-.6.2-.3,0-.6,0-1,0s-.7,0-1,0c-.3,0-.5,0-.6-.2-.2,0-.3-.2-.3-.3s0-.2,0-.4v-37.5c0-.1,0-.3,0-.4,0-.1.2-.2.4-.3.2,0,.4-.1.7-.2.3,0,.7,0,1.1,0s.9,0,1.2,0,.5,0,.7.2c.2,0,.3.2.4.3s.1.2.1.4v15.1c.7-.8,1.5-1.4,2.2-1.9.7-.5,1.4-1,2.1-1.3s1.3-.6,2-.7,1.4-.2,2.1-.2c1.8,0,3.4.4,4.7,1.1,1.3.7,2.4,1.7,3.2,2.9.8,1.2,1.4,2.7,1.8,4.3s.6,3.4.6,5.2ZM312.4,151.1c0-1.3,0-2.5-.3-3.8s-.5-2.3-1-3.2-1.1-1.7-2-2.3c-.8-.6-1.8-.9-3-.9s-1.2,0-1.8.3c-.6.2-1.2.4-1.8.8s-1.2.9-1.9,1.5-1.3,1.4-2.1,2.3v10.1c1.3,1.6,2.5,2.7,3.7,3.6,1.2.8,2.4,1.2,3.6,1.2s2.2-.3,3-.8,1.5-1.3,2-2.2c.5-.9.9-2,1.1-3.1.2-1.2.4-2.3.4-3.5Z"></path><path class="st6" d="M345.8,163.5c0,.1,0,.3,0,.4,0,.1-.2.2-.4.3s-.4.1-.7.2c-.3,0-.6,0-1,0s-.8,0-1.1,0c-.3,0-.5,0-.6-.2-.2,0-.3-.2-.3-.3,0-.1,0-.2,0-.4v-3.3c-1.4,1.6-2.9,2.8-4.3,3.5s-2.8,1.1-4.3,1.1-3.1-.3-4.3-.8c-1.2-.6-2.1-1.3-2.8-2.3-.7-1-1.2-2.1-1.5-3.4-.3-1.3-.5-2.8-.5-4.7v-15.3c0-.1,0-.3,0-.4,0-.1.2-.2.4-.3.2,0,.4-.1.7-.2.3,0,.7,0,1.1,0s.8,0,1.1,0c.3,0,.5,0,.7.2.2,0,.3.2.4.3s.1.2.1.4v14.7c0,1.5.1,2.7.3,3.6.2.9.5,1.6,1,2.3.4.6,1,1.1,1.7,1.5.7.3,1.5.5,2.4.5s2.3-.4,3.5-1.2c1.2-.8,2.4-2,3.7-3.6v-17.7c0-.1,0-.3,0-.4,0-.1.2-.2.4-.3.2,0,.4-.1.7-.2.3,0,.7,0,1.1,0s.8,0,1.1,0c.3,0,.5,0,.7.2.2,0,.3.2.4.3,0,.1.1.2.1.4v25.3Z"></path><path class="st6" d="M359.6,129.7c0,1.1-.2,1.8-.6,2.2-.4.4-1.2.6-2.3.6s-1.8-.2-2.2-.6c-.4-.4-.6-1.1-.6-2.2s.2-1.8.6-2.2c.4-.4,1.2-.6,2.3-.6s1.8.2,2.2.6c.4.4.6,1.1.6,2.2ZM359,163.5c0,.1,0,.3-.1.4,0,.1-.2.2-.4.3-.2,0-.4.1-.7.2s-.7,0-1.2,0-.8,0-1.1,0c-.3,0-.5,0-.7-.2-.2,0-.3-.2-.4-.3,0-.1,0-.2,0-.4v-25.3c0-.1,0-.3,0-.4,0-.1.2-.2.4-.3.2,0,.4-.1.7-.2.3,0,.7,0,1.1,0s.9,0,1.2,0,.5,0,.7.2c.2,0,.3.2.4.3s.1.2.1.4v25.3Z"></path><path class="st6" d="M372.2,163.5c0,.1,0,.3-.1.4,0,.1-.2.2-.4.3-.2,0-.4.1-.7.2s-.7,0-1.2,0-.8,0-1.1,0c-.3,0-.5,0-.7-.2-.2,0-.3-.2-.4-.3,0-.1,0-.2,0-.4v-37.5c0-.1,0-.3,0-.4,0-.1.2-.2.4-.3.2,0,.4-.1.7-.2.3,0,.7,0,1.1,0s.9,0,1.2,0,.5,0,.7.2c.2,0,.3.2.4.3s.1.2.1.4v37.5Z"></path><path class="st6" d="M402.5,163.5c0,.1,0,.3,0,.4,0,.1-.2.2-.3.3-.2,0-.4.1-.6.2s-.6,0-1,0-.7,0-1,0-.5,0-.6-.2c-.2,0-.3-.2-.4-.3s-.1-.2-.1-.4v-3.3c-1.3,1.4-2.7,2.6-4.1,3.4-1.4.8-3,1.2-4.7,1.2s-3.4-.4-4.8-1.1c-1.3-.7-2.4-1.7-3.2-2.9-.8-1.2-1.4-2.7-1.8-4.3-.4-1.7-.6-3.4-.6-5.2s.2-4.1.7-5.9c.5-1.8,1.2-3.2,2.1-4.5.9-1.2,2.1-2.2,3.4-2.9,1.4-.7,2.9-1,4.7-1s2.8.3,4.1,1c1.2.6,2.4,1.6,3.6,2.9v-14.7c0-.1,0-.3,0-.4,0-.1.2-.2.4-.3.2,0,.4-.1.7-.2.3,0,.7,0,1.1,0s.9,0,1.2,0,.5.1.7.2.3.2.4.3c0,.1.1.2.1.4v37.4ZM397.8,145.7c-1.3-1.6-2.5-2.7-3.6-3.6-1.2-.8-2.4-1.2-3.7-1.2s-2.2.3-3,.8c-.8.6-1.5,1.3-2,2.2-.5.9-.9,2-1.1,3.1-.2,1.2-.4,2.3-.4,3.5s0,2.5.3,3.7c.2,1.2.5,2.3,1,3.2.5.9,1.1,1.7,1.9,2.3.8.6,1.8.9,3,.9s1.2,0,1.8-.3c.6-.2,1.2-.4,1.8-.8s1.2-.9,1.9-1.5c.7-.6,1.3-1.4,2.1-2.3v-10.1Z"></path><path class="st6" d="M416.2,129.7c0,1.1-.2,1.8-.6,2.2-.4.4-1.2.6-2.3.6s-1.8-.2-2.2-.6c-.4-.4-.6-1.1-.6-2.2s.2-1.8.6-2.2c.4-.4,1.2-.6,2.3-.6s1.8.2,2.2.6c.4.4.6,1.1.6,2.2ZM415.7,163.5c0,.1,0,.3-.1.4,0,.1-.2.2-.4.3-.2,0-.4.1-.7.2s-.7,0-1.2,0-.8,0-1.1,0c-.3,0-.5,0-.7-.2-.2,0-.3-.2-.4-.3,0-.1,0-.2,0-.4v-25.3c0-.1,0-.3,0-.4,0-.1.2-.2.4-.3.2,0,.4-.1.7-.2.3,0,.7,0,1.1,0s.9,0,1.2,0,.5,0,.7.2c.2,0,.3.2.4.3s.1.2.1.4v25.3Z"></path><path class="st6" d="M446,163.5c0,.1,0,.3-.1.4,0,.1-.2.2-.4.3-.2,0-.4.1-.7.2s-.7,0-1.1,0-.9,0-1.2,0-.5,0-.7-.2-.3-.2-.4-.3c0-.1-.1-.2-.1-.4v-14.8c0-1.4-.1-2.6-.3-3.5s-.6-1.6-1-2.3-1-1.1-1.7-1.5c-.7-.3-1.5-.5-2.4-.5s-2.3.4-3.5,1.2-2.4,2-3.7,3.6v17.7c0,.1,0,.3-.1.4,0,.1-.2.2-.4.3-.2,0-.4.1-.7.2s-.7,0-1.2,0-.8,0-1.1,0c-.3,0-.5,0-.7-.2-.2,0-.3-.2-.4-.3,0-.1,0-.2,0-.4v-25.3c0-.1,0-.3,0-.4s.2-.2.3-.3c.2,0,.4-.1.6-.2.3,0,.6,0,1,0s.8,0,1,0c.3,0,.5,0,.6.2.1,0,.3.2.3.3,0,.1,0,.2,0,.4v3.3c1.4-1.6,2.8-2.8,4.3-3.5,1.4-.7,2.8-1.1,4.3-1.1s3.1.3,4.3.9c1.2.6,2.1,1.3,2.8,2.3s1.2,2.1,1.5,3.4c.3,1.3.5,2.8.5,4.6v15.4Z"></path><path class="st6" d="M475.6,139.4c0,.7,0,1.1-.3,1.4-.2.3-.4.4-.7.4h-3.6c.7.7,1.1,1.4,1.4,2.2.3.8.4,1.7.4,2.5,0,1.5-.2,2.8-.7,3.9s-1.1,2.1-2,2.9c-.9.8-1.9,1.4-3.1,1.8s-2.5.6-4,.6-2-.1-2.9-.4c-.9-.3-1.6-.6-2.1-1-.3.3-.6.7-.8,1.2-.2.4-.3.9-.3,1.5s.3,1.2.9,1.6c.6.4,1.4.7,2.4.7l6.6.3c1.3,0,2.4.2,3.5.5,1,.3,2,.7,2.7,1.3.8.6,1.4,1.3,1.8,2.1s.6,1.8.6,2.9-.2,2.3-.7,3.3-1.2,2-2.2,2.8c-1,.8-2.3,1.4-3.8,1.9s-3.4.7-5.5.7-3.8-.2-5.2-.5c-1.4-.3-2.6-.8-3.5-1.4s-1.6-1.3-2-2.1c-.4-.8-.6-1.7-.6-2.7s0-1.2.2-1.8.4-1.1.7-1.7c.3-.5.7-1,1.2-1.5.5-.5,1-1,1.6-1.4-.9-.5-1.6-1.1-2-1.8-.4-.7-.7-1.5-.7-2.3s.2-2.2.7-3.1,1-1.7,1.7-2.4c-.6-.7-1-1.5-1.4-2.3-.3-.9-.5-1.9-.5-3.2s.2-2.7.7-3.9,1.2-2.1,2-2.9,1.9-1.4,3.1-1.8c1.2-.4,2.5-.6,3.9-.6s1.5,0,2.1.1c.7,0,1.3.2,1.9.4h7.6c.3,0,.6.2.7.5.2.3.2.8.2,1.4ZM470.7,166.1c0-1.1-.4-1.9-1.3-2.5-.9-.6-2.1-.9-3.6-.9l-6.5-.2c-.6.5-1.1.9-1.5,1.3-.4.4-.7.8-.9,1.2-.2.4-.4.8-.5,1.1,0,.4-.1.8-.1,1.2,0,1.2.6,2.1,1.9,2.8,1.2.6,3,.9,5.2.9s2.6-.1,3.5-.4c.9-.3,1.7-.6,2.3-1.1s1-1,1.2-1.5c.3-.6.4-1.2.4-1.8ZM468.4,146c0-1.7-.5-3.1-1.4-4-.9-1-2.3-1.4-4-1.4s-1.7.1-2.3.4c-.7.3-1.2.7-1.7,1.2-.4.5-.8,1.1-1,1.8-.2.7-.3,1.4-.3,2.2,0,1.7.5,3,1.4,3.9.9,1,2.3,1.4,4,1.4s1.7-.1,2.4-.4c.7-.3,1.2-.7,1.7-1.2.4-.5.8-1.1,1-1.8.2-.7.3-1.4.3-2.1Z"></path><path class="st6" d="M513.7,163.6c0,.2,0,.4-.2.5-.2.1-.4.2-.6.3s-.6,0-1.2,0-.9,0-1.2,0c-.3,0-.5-.1-.6-.3s-.2-.3-.2-.5v-2.5c-1.1,1.2-2.3,2.1-3.7,2.8-1.4.7-2.8,1-4.3,1s-2.5-.2-3.6-.5c-1.1-.3-2-.8-2.8-1.5-.8-.7-1.3-1.5-1.8-2.4-.4-1-.6-2-.6-3.3s.3-2.7.9-3.7c.6-1,1.4-1.9,2.5-2.6s2.4-1.2,4-1.6c1.6-.3,3.3-.5,5.3-.5h3.5v-2c0-1-.1-1.8-.3-2.6s-.5-1.4-1-1.9c-.5-.5-1.1-.9-1.8-1.1-.7-.3-1.6-.4-2.7-.4s-2.2.1-3.1.4c-.9.3-1.7.6-2.4.9-.7.3-1.3.6-1.7.9-.5.3-.8.4-1,.4s-.3,0-.4-.1-.2-.2-.3-.3c0-.1-.1-.3-.2-.6,0-.2,0-.5,0-.8,0-.5,0-.8,0-1.1,0-.3.2-.5.5-.8.3-.2.7-.5,1.3-.9.6-.3,1.3-.6,2.1-.9.8-.3,1.7-.5,2.6-.7,1-.2,1.9-.3,2.9-.3,1.8,0,3.4.2,4.6.6s2.3,1,3.1,1.8c.8.8,1.4,1.8,1.7,3s.5,2.6.5,4.1v17.1ZM509.1,152h-4c-1.3,0-2.4.1-3.3.3-.9.2-1.7.5-2.3,1-.6.4-1.1.9-1.4,1.5-.3.6-.4,1.3-.4,2,0,1.3.4,2.4,1.3,3.1.8.8,2,1.2,3.5,1.2s2.3-.3,3.4-.9c1-.6,2.1-1.6,3.3-2.8v-5.4Z"></path><path class="st6" d="M551.1,156.6c0,1.3-.2,2.4-.7,3.5-.5,1-1.2,1.9-2,2.6s-1.9,1.2-3.1,1.6-2.6.5-4,.5-1.8,0-2.6-.2c-.8-.1-1.5-.3-2.2-.5-.6-.2-1.2-.4-1.6-.7-.4-.2-.8-.4-1-.6s-.4-.4-.4-.8-.1-.8-.1-1.4,0-.7,0-.9c0-.2,0-.4.1-.6s.1-.3.2-.3c.1,0,.2,0,.4,0,.2,0,.5.1.9.4.4.3.9.5,1.5.8.6.3,1.3.6,2.1.8.8.3,1.7.4,2.8.4s1.5,0,2.1-.3,1.2-.4,1.7-.7c.5-.3.8-.7,1.1-1.3.3-.5.4-1.1.4-1.8s-.2-1.3-.5-1.8c-.4-.5-.8-.9-1.4-1.3s-1.3-.7-2-1-1.5-.6-2.3-.9c-.8-.3-1.6-.7-2.3-1.1-.8-.4-1.4-.9-2-1.5s-1.1-1.3-1.4-2.1c-.4-.8-.5-1.8-.5-2.9s.2-1.9.6-2.9c.4-.9,1-1.7,1.7-2.4.8-.7,1.7-1.2,2.9-1.6,1.2-.4,2.5-.6,4-.6s1.3,0,2,.2,1.3.3,1.8.4,1,.4,1.4.5c.4.2.7.4.9.5.2.1.3.3.4.4,0,.1.1.2.1.4,0,.1,0,.3,0,.5,0,.2,0,.5,0,.8s0,.6,0,.8c0,.2,0,.4-.1.6,0,.1-.1.3-.2.3s-.2,0-.3,0c-.2,0-.4-.1-.7-.3s-.7-.4-1.2-.7c-.5-.2-1.1-.5-1.8-.7-.7-.2-1.5-.3-2.3-.3s-1.5,0-2.1.3c-.6.2-1.1.4-1.5.8-.4.3-.7.7-.9,1.2-.2.4-.3.9-.3,1.5s.2,1.3.6,1.8.9.9,1.5,1.3,1.3.7,2.1,1,1.5.6,2.3.9c.8.3,1.6.7,2.4,1.1.8.4,1.5.9,2.1,1.4.6.6,1.1,1.2,1.4,2,.4.8.5,1.7.5,2.8Z"></path><path class="st6" d="M576.8,163.6c0,.2,0,.4-.2.5-.2.1-.4.2-.6.3s-.6,0-1.2,0-.9,0-1.2,0c-.3,0-.5-.1-.6-.3s-.2-.3-.2-.5v-2.5c-1.1,1.2-2.3,2.1-3.7,2.8-1.4.7-2.8,1-4.3,1s-2.5-.2-3.6-.5c-1.1-.3-2-.8-2.8-1.5-.8-.7-1.3-1.5-1.8-2.4-.4-1-.6-2-.6-3.3s.3-2.7.9-3.7c.6-1,1.4-1.9,2.5-2.6s2.4-1.2,4-1.6c1.6-.3,3.3-.5,5.3-.5h3.5v-2c0-1-.1-1.8-.3-2.6s-.5-1.4-1-1.9c-.5-.5-1.1-.9-1.8-1.1-.7-.3-1.6-.4-2.7-.4s-2.2.1-3.1.4c-.9.3-1.7.6-2.4.9-.7.3-1.3.6-1.7.9-.5.3-.8.4-1,.4s-.3,0-.4-.1-.2-.2-.3-.3c0-.1-.1-.3-.2-.6,0-.2,0-.5,0-.8,0-.5,0-.8,0-1.1,0-.3.2-.5.5-.8.3-.2.7-.5,1.3-.9.6-.3,1.3-.6,2.1-.9.8-.3,1.7-.5,2.6-.7,1-.2,1.9-.3,2.9-.3,1.8,0,3.4.2,4.6.6s2.3,1,3.1,1.8c.8.8,1.4,1.8,1.7,3s.5,2.6.5,4.1v17.1ZM572.1,152h-4c-1.3,0-2.4.1-3.3.3-.9.2-1.7.5-2.3,1-.6.4-1.1.9-1.4,1.5-.3.6-.4,1.3-.4,2,0,1.3.4,2.4,1.3,3.1.8.8,2,1.2,3.5,1.2s2.3-.3,3.4-.9c1-.6,2.1-1.6,3.3-2.8v-5.4Z"></path><path class="st6" d="M598.8,127.8c0,.4,0,.6,0,.9s0,.4-.1.5c0,.1-.1.2-.2.3s-.2,0-.3,0-.3,0-.5-.1c-.2,0-.4-.2-.7-.3s-.6-.2-1-.3c-.4,0-.8-.1-1.3-.1s-1.3.1-1.8.3-.9.6-1.2,1.1c-.3.5-.5,1.1-.6,1.9-.1.8-.2,1.7-.2,2.8v2.8h5.7c.1,0,.3,0,.4,0,.1,0,.2.2.3.3,0,.2.1.4.2.6,0,.2,0,.5,0,.9,0,.7,0,1.2-.3,1.5-.2.3-.4.4-.7.4h-5.7v22.2c0,.1,0,.3-.1.4,0,.1-.2.2-.4.3-.2,0-.4.1-.7.2-.3,0-.7,0-1.1,0s-.8,0-1.1,0c-.3,0-.5,0-.7-.2-.2,0-.3-.2-.4-.3,0-.1-.1-.2-.1-.4v-22.2h-3.6c-.3,0-.5-.1-.7-.4s-.2-.8-.2-1.5,0-.7,0-.9c0-.2,0-.4.2-.6,0-.2.2-.3.3-.3.1,0,.2,0,.4,0h3.6v-2.6c0-1.8.2-3.3.5-4.5.3-1.3.8-2.3,1.5-3.1s1.5-1.4,2.5-1.8c1-.4,2.2-.6,3.6-.6s1.3,0,1.9.2c.6.1,1.1.3,1.4.4.3.1.6.3.7.4s.2.3.3.4c0,.2.1.4.2.6,0,.3,0,.6,0,.9Z"></path><path class="st6" d="M622.7,149.8c0,.7-.2,1.2-.5,1.6-.4.3-.8.5-1.3.5h-16.7c0,1.4.1,2.7.4,3.8.3,1.1.8,2.1,1.4,2.9s1.5,1.4,2.6,1.9,2.3.6,3.9.6,2.3,0,3.2-.3c.9-.2,1.8-.4,2.4-.7s1.3-.5,1.7-.7c.4-.2.8-.3,1-.3s.2,0,.4,0c.1,0,.2.2.2.3s0,.3.1.5c0,.2,0,.5,0,.9s0,.5,0,.6,0,.3,0,.5c0,.1,0,.3-.1.4,0,.1-.1.2-.3.3-.1.1-.4.3-.9.5-.5.2-1.2.5-2,.7-.8.2-1.7.4-2.8.6-1.1.2-2.2.3-3.4.3-2.1,0-3.9-.3-5.5-.9-1.6-.6-2.9-1.4-3.9-2.6s-1.9-2.6-2.4-4.3-.8-3.7-.8-6,.3-4.1.8-5.9c.6-1.7,1.4-3.2,2.4-4.4,1.1-1.2,2.3-2.1,3.8-2.8,1.5-.6,3.2-1,5-1s3.7.3,5.1,1c1.4.6,2.5,1.5,3.4,2.6s1.6,2.3,2,3.8c.4,1.5.6,3,.6,4.7v.8ZM618,148.4c0-2.4-.5-4.3-1.6-5.7s-2.8-2.1-5.1-2.1-2.2.2-3,.6-1.6,1-2.2,1.7c-.6.7-1,1.5-1.4,2.5-.3.9-.5,1.9-.5,3h13.8Z"></path><path class="st6" d="M644.5,139.9c0,.4,0,.8,0,1s0,.5-.1.7c0,.2-.1.3-.2.4s-.2.1-.4.1-.3,0-.5-.1c-.2,0-.5-.2-.7-.3-.3,0-.6-.2-.9-.2s-.7-.1-1.1-.1-.9,0-1.4.3-.9.5-1.4.9c-.5.4-1,1-1.6,1.7s-1.1,1.6-1.8,2.6v16.6c0,.1,0,.3-.1.4,0,.1-.2.2-.4.3-.2,0-.4.1-.7.2s-.7,0-1.2,0-.8,0-1.1,0c-.3,0-.5,0-.7-.2-.2,0-.3-.2-.4-.3,0-.1,0-.2,0-.4v-25.3c0-.1,0-.3,0-.4s.2-.2.3-.3c.2,0,.4-.1.6-.2.3,0,.6,0,1,0s.8,0,1,0c.3,0,.5,0,.6.2.1,0,.3.2.3.3,0,.1,0,.2,0,.4v3.7c.7-1,1.3-1.8,2-2.5.6-.6,1.2-1.1,1.7-1.5.5-.4,1.1-.6,1.6-.8.5-.1,1.1-.2,1.6-.2s.5,0,.8,0c.3,0,.6,0,1,.2s.6.2.9.3c.3,0,.5.2.6.3s.2.2.2.3c0,0,0,.2,0,.3,0,.1,0,.3,0,.6,0,.3,0,.6,0,1Z"></path><path class="st6" d="M676.6,127.8c0,.4,0,.6,0,.9s0,.4-.1.5c0,.1-.1.2-.2.3s-.2,0-.3,0-.3,0-.5-.1c-.2,0-.4-.2-.7-.3s-.6-.2-1-.3c-.4,0-.8-.1-1.3-.1s-1.3.1-1.8.3-.9.6-1.2,1.1c-.3.5-.5,1.1-.6,1.9-.1.8-.2,1.7-.2,2.8v2.8h5.7c.1,0,.3,0,.4,0,.1,0,.2.2.3.3,0,.2.1.4.2.6,0,.2,0,.5,0,.9,0,.7,0,1.2-.3,1.5-.2.3-.4.4-.7.4h-5.7v22.2c0,.1,0,.3-.1.4,0,.1-.2.2-.4.3-.2,0-.4.1-.7.2-.3,0-.7,0-1.1,0s-.8,0-1.1,0c-.3,0-.5,0-.7-.2-.2,0-.3-.2-.4-.3,0-.1-.1-.2-.1-.4v-22.2h-3.6c-.3,0-.5-.1-.7-.4s-.2-.8-.2-1.5,0-.7,0-.9c0-.2,0-.4.2-.6,0-.2.2-.3.3-.3.1,0,.2,0,.4,0h3.6v-2.6c0-1.8.2-3.3.5-4.5.3-1.3.8-2.3,1.5-3.1s1.5-1.4,2.5-1.8c1-.4,2.2-.6,3.6-.6s1.3,0,1.9.2c.6.1,1.1.3,1.4.4.3.1.6.3.7.4s.2.3.3.4c0,.2.1.4.2.6,0,.3,0,.6,0,.9Z"></path><path class="st6" d="M702,163.5c0,.1,0,.3,0,.4,0,.1-.2.2-.4.3s-.4.1-.7.2c-.3,0-.6,0-1,0s-.8,0-1.1,0c-.3,0-.5,0-.6-.2-.2,0-.3-.2-.3-.3,0-.1,0-.2,0-.4v-3.3c-1.4,1.6-2.9,2.8-4.3,3.5s-2.8,1.1-4.3,1.1-3.1-.3-4.3-.8c-1.2-.6-2.1-1.3-2.8-2.3-.7-1-1.2-2.1-1.5-3.4-.3-1.3-.5-2.8-.5-4.7v-15.3c0-.1,0-.3,0-.4,0-.1.2-.2.4-.3.2,0,.4-.1.7-.2.3,0,.7,0,1.1,0s.8,0,1.1,0c.3,0,.5,0,.7.2.2,0,.3.2.4.3s.1.2.1.4v14.7c0,1.5.1,2.7.3,3.6.2.9.5,1.6,1,2.3.4.6,1,1.1,1.7,1.5.7.3,1.5.5,2.4.5s2.3-.4,3.5-1.2c1.2-.8,2.4-2,3.7-3.6v-17.7c0-.1,0-.3,0-.4,0-.1.2-.2.4-.3.2,0,.4-.1.7-.2.3,0,.7,0,1.1,0s.8,0,1.1,0c.3,0,.5,0,.7.2.2,0,.3.2.4.3,0,.1.1.2.1.4v25.3Z"></path><path class="st6" d="M723.7,161.7c0,.5,0,1-.1,1.3s-.2.6-.3.7-.4.3-.7.4-.6.2-1,.3c-.4,0-.8.2-1.2.2s-.9,0-1.3,0c-1.3,0-2.4-.2-3.4-.5-.9-.3-1.7-.9-2.3-1.6-.6-.7-1-1.6-1.3-2.7-.3-1.1-.4-2.3-.4-3.8v-14.8h-3.5c-.3,0-.5-.1-.7-.4s-.3-.8-.3-1.5,0-.7,0-.9c0-.2.1-.4.2-.6,0-.2.2-.3.3-.3.1,0,.3,0,.4,0h3.5v-6c0-.1,0-.3,0-.4,0-.1.2-.2.4-.3.2,0,.4-.1.7-.2s.7,0,1.1,0,.9,0,1.2,0c.3,0,.5,0,.7.2.2,0,.3.2.4.3s.1.2.1.4v6h6.5c.1,0,.3,0,.4,0,.1,0,.2.2.3.3,0,.2.1.4.2.6,0,.2,0,.5,0,.9,0,.7,0,1.2-.3,1.5s-.4.4-.7.4h-6.5v14.1c0,1.7.3,3.1.8,3.9.5.9,1.4,1.3,2.8,1.3s.8,0,1.2-.1c.3,0,.6-.2.9-.3s.5-.2.7-.3c.2,0,.4-.1.5-.1s.2,0,.3,0c0,0,.1.1.2.3,0,.1,0,.3.1.5,0,.2,0,.5,0,.8Z"></path><path class="st6" d="M751.5,163.5c0,.1,0,.3,0,.4,0,.1-.2.2-.4.3s-.4.1-.7.2c-.3,0-.6,0-1,0s-.8,0-1.1,0c-.3,0-.5,0-.6-.2-.2,0-.3-.2-.3-.3,0-.1,0-.2,0-.4v-3.3c-1.4,1.6-2.9,2.8-4.3,3.5s-2.8,1.1-4.3,1.1-3.1-.3-4.3-.8c-1.2-.6-2.1-1.3-2.8-2.3-.7-1-1.2-2.1-1.5-3.4-.3-1.3-.5-2.8-.5-4.7v-15.3c0-.1,0-.3,0-.4,0-.1.2-.2.4-.3.2,0,.4-.1.7-.2.3,0,.7,0,1.1,0s.8,0,1.1,0c.3,0,.5,0,.7.2.2,0,.3.2.4.3s.1.2.1.4v14.7c0,1.5.1,2.7.3,3.6.2.9.5,1.6,1,2.3.4.6,1,1.1,1.7,1.5.7.3,1.5.5,2.4.5s2.3-.4,3.5-1.2c1.2-.8,2.4-2,3.7-3.6v-17.7c0-.1,0-.3,0-.4,0-.1.2-.2.4-.3.2,0,.4-.1.7-.2.3,0,.7,0,1.1,0s.8,0,1.1,0c.3,0,.5,0,.7.2.2,0,.3.2.4.3,0,.1.1.2.1.4v25.3Z"></path><path class="st6" d="M774.9,139.9c0,.4,0,.8,0,1s0,.5-.1.7c0,.2-.1.3-.2.4s-.2.1-.4.1-.3,0-.5-.1c-.2,0-.5-.2-.7-.3-.3,0-.6-.2-.9-.2s-.7-.1-1.1-.1-.9,0-1.4.3-.9.5-1.4.9c-.5.4-1,1-1.6,1.7s-1.1,1.6-1.8,2.6v16.6c0,.1,0,.3-.1.4,0,.1-.2.2-.4.3-.2,0-.4.1-.7.2s-.7,0-1.2,0-.8,0-1.1,0c-.3,0-.5,0-.7-.2-.2,0-.3-.2-.4-.3,0-.1,0-.2,0-.4v-25.3c0-.1,0-.3,0-.4s.2-.2.3-.3c.2,0,.4-.1.6-.2.3,0,.6,0,1,0s.8,0,1,0c.3,0,.5,0,.6.2.1,0,.3.2.3.3,0,.1,0,.2,0,.4v3.7c.7-1,1.3-1.8,2-2.5.6-.6,1.2-1.1,1.7-1.5.5-.4,1.1-.6,1.6-.8.5-.1,1.1-.2,1.6-.2s.5,0,.8,0c.3,0,.6,0,1,.2s.6.2.9.3c.3,0,.5.2.6.3s.2.2.2.3c0,0,0,.2,0,.3,0,.1,0,.3,0,.6,0,.3,0,.6,0,1Z"></path><path class="st6" d="M801,149.8c0,.7-.2,1.2-.5,1.6-.4.3-.8.5-1.3.5h-16.7c0,1.4.1,2.7.4,3.8.3,1.1.8,2.1,1.4,2.9s1.5,1.4,2.6,1.9,2.3.6,3.9.6,2.3,0,3.2-.3c.9-.2,1.8-.4,2.4-.7s1.3-.5,1.7-.7c.4-.2.8-.3,1-.3s.2,0,.4,0c.1,0,.2.2.2.3s0,.3.1.5c0,.2,0,.5,0,.9s0,.5,0,.6,0,.3,0,.5c0,.1,0,.3-.1.4,0,.1-.1.2-.3.3-.1.1-.4.3-.9.5-.5.2-1.2.5-2,.7-.8.2-1.7.4-2.8.6-1.1.2-2.2.3-3.4.3-2.1,0-3.9-.3-5.5-.9-1.6-.6-2.9-1.4-3.9-2.6s-1.9-2.6-2.4-4.3-.8-3.7-.8-6,.3-4.1.8-5.9c.6-1.7,1.4-3.2,2.4-4.4,1.1-1.2,2.3-2.1,3.8-2.8,1.5-.6,3.2-1,5-1s3.7.3,5.1,1c1.4.6,2.5,1.5,3.4,2.6s1.6,2.3,2,3.8c.4,1.5.6,3,.6,4.7v.8ZM796.3,148.4c0-2.4-.5-4.3-1.6-5.7s-2.8-2.1-5.1-2.1-2.2.2-3,.6-1.6,1-2.2,1.7c-.6.7-1,1.5-1.4,2.5-.3.9-.5,1.9-.5,3h13.8Z"></path></g><g><path class="st5" d="M342,51.3c0,.1,0,.3,0,.5,0,.2,0,.3,0,.5,0,.2,0,.4-.1.6s-.1.5-.2.7l-17.2,48c-.1.4-.3.7-.6,1-.2.3-.6.5-1.1.6-.5.1-1.1.3-1.9.3-.7,0-1.7,0-2.8,0s-2.1,0-2.8-.1c-.7,0-1.4-.2-1.8-.3-.5-.1-.8-.4-1.1-.6-.3-.3-.5-.6-.6-1l-17.2-48c-.1-.4-.3-.8-.4-1.2,0-.3-.1-.6-.2-.8,0-.2,0-.3,0-.4,0-.3,0-.6.2-.8.1-.2.4-.4.8-.5.4-.1.8-.2,1.4-.3.6,0,1.3,0,2.2,0s2,0,2.6,0c.7,0,1.2.2,1.5.3.4.1.6.3.8.6s.3.5.5.8l14.2,41.6.2.7.2-.7,14.1-41.6c0-.3.2-.6.4-.8.2-.2.5-.4.8-.6.4-.1.8-.3,1.5-.3s1.4,0,2.4,0,1.6,0,2.1,0c.6,0,1,.1,1.3.3.3.1.5.3.7.5.1.2.2.5.2.8Z"></path><path class="st5" d="M362.8,34.4c0,2.2-.4,3.6-1.2,4.4-.8.8-2.3,1.2-4.5,1.2s-3.7-.4-4.5-1.2c-.8-.8-1.2-2.2-1.2-4.3s.4-3.6,1.2-4.4c.8-.8,2.3-1.2,4.5-1.2s3.7.4,4.5,1.2c.8.8,1.2,2.2,1.2,4.3ZM361.7,101.9c0,.3,0,.6-.2.8-.1.2-.4.4-.7.5s-.8.3-1.4.3c-.6,0-1.4.1-2.3.1s-1.6,0-2.2-.1c-.6,0-1.1-.2-1.4-.3-.4-.1-.6-.3-.7-.5-.1-.2-.2-.5-.2-.8v-50.5c0-.3,0-.5.2-.7.1-.2.4-.4.7-.6.4-.1.8-.3,1.4-.3.6,0,1.3-.1,2.2-.1s1.7,0,2.3.1c.6,0,1.1.2,1.4.3.3.1.6.3.7.6.1.2.2.5.2.7v50.5Z"></path><path class="st5" d="M408.4,54.7c0,.8,0,1.5,0,2.1,0,.6-.1,1-.2,1.3-.1.3-.3.6-.4.7s-.4.3-.7.3-.7,0-1.1-.3c-.4-.2-.9-.3-1.5-.5-.5-.2-1.2-.3-1.8-.5-.7-.1-1.4-.2-2.2-.2s-1.9.2-2.7.6c-.9.4-1.8,1-2.8,1.9-1,.9-2,2-3.1,3.4-1.1,1.4-2.3,3.2-3.6,5.2v33.2c0,.3,0,.6-.2.8-.1.2-.4.4-.7.5s-.8.3-1.4.3c-.6,0-1.4.1-2.3.1s-1.6,0-2.2-.1c-.6,0-1.1-.2-1.4-.3-.4-.1-.6-.3-.7-.5-.1-.2-.2-.5-.2-.8v-50.5c0-.3,0-.6.2-.8.1-.2.3-.4.7-.6s.8-.3,1.3-.3c.5,0,1.2,0,2.1,0s1.5,0,2,0c.5,0,1,.2,1.3.3.3.2.5.4.6.6.1.2.2.5.2.8v7.3c1.4-2,2.7-3.7,3.9-4.9,1.2-1.3,2.4-2.3,3.5-3,1.1-.7,2.2-1.2,3.2-1.5s2.1-.4,3.2-.4,1,0,1.7,0,1.3.2,1.9.3c.7.1,1.3.3,1.8.5.5.2.9.4,1.2.6.2.2.4.4.4.5,0,.2.1.4.2.6,0,.3,0,.6.1,1.2,0,.5,0,1.2,0,2Z"></path><path class="st5" d="M429.2,34.4c0,2.2-.4,3.6-1.2,4.4-.8.8-2.3,1.2-4.5,1.2s-3.7-.4-4.5-1.2c-.8-.8-1.2-2.2-1.2-4.3s.4-3.6,1.2-4.4c.8-.8,2.3-1.2,4.5-1.2s3.7.4,4.5,1.2c.8.8,1.2,2.2,1.2,4.3ZM428.2,101.9c0,.3,0,.6-.2.8-.2.2-.4.4-.7.5s-.8.3-1.4.3c-.6,0-1.4.1-2.3.1s-1.6,0-2.2-.1c-.6,0-1.1-.2-1.4-.3-.4-.1-.6-.3-.7-.5-.1-.2-.2-.5-.2-.8v-50.5c0-.3,0-.5.2-.7.1-.2.4-.4.7-.6.4-.1.8-.3,1.4-.3.6,0,1.3-.1,2.2-.1s1.7,0,2.3.1c.6,0,1.1.2,1.4.3.3.1.6.3.7.6.1.2.2.5.2.7v50.5Z"></path><path class="st5" d="M488.5,101.9c0,.3,0,.6-.2.8-.1.2-.4.4-.7.5-.3.1-.7.2-1.3.3-.5,0-1.2.1-1.9.1s-1.4,0-2-.1c-.5,0-1-.2-1.3-.3s-.6-.3-.7-.5c-.1-.2-.2-.5-.2-.8v-6.7c-2.7,2.9-5.4,5.1-8.3,6.7s-6,2.4-9.4,2.4-6.9-.7-9.5-2.2c-2.6-1.4-4.7-3.4-6.4-5.8-1.6-2.4-2.8-5.3-3.6-8.6-.7-3.3-1.1-6.8-1.1-10.5s.5-8.3,1.4-11.8c.9-3.5,2.3-6.5,4.2-8.9,1.8-2.5,4.1-4.4,6.8-5.7,2.7-1.3,5.8-2,9.4-2s5.7.6,8.1,1.9c2.4,1.3,4.9,3.2,7.3,5.7v-29.3c0-.3,0-.5.2-.8.1-.2.4-.4.8-.6.4-.1.9-.2,1.4-.3.6,0,1.3-.1,2.2-.1s1.7,0,2.3.1c.6,0,1.1.2,1.4.3.3.1.6.3.8.6.2.2.3.5.3.8v74.7ZM479.2,66.4c-2.5-3.1-4.9-5.5-7.3-7.1-2.3-1.6-4.8-2.4-7.3-2.4s-4.4.6-6,1.7c-1.6,1.1-3,2.6-4,4.4-1,1.8-1.8,3.9-2.2,6.2-.5,2.3-.7,4.7-.7,7.1s.2,5,.6,7.5c.4,2.4,1.1,4.6,2,6.5,1,1.9,2.3,3.4,3.9,4.5,1.6,1.1,3.6,1.7,6.1,1.7s2.4-.2,3.6-.5c1.1-.3,2.3-.9,3.5-1.7,1.2-.8,2.4-1.8,3.8-3.1,1.3-1.3,2.7-2.8,4.2-4.6v-20.2Z"></path><path class="st5" d="M516,34.4c0,2.2-.4,3.6-1.2,4.4-.8.8-2.3,1.2-4.5,1.2s-3.7-.4-4.5-1.2c-.8-.8-1.2-2.2-1.2-4.3s.4-3.6,1.2-4.4c.8-.8,2.3-1.2,4.5-1.2s3.7.4,4.5,1.2c.8.8,1.2,2.2,1.2,4.3ZM514.9,101.9c0,.3,0,.6-.2.8-.1.2-.4.4-.7.5s-.8.3-1.4.3c-.6,0-1.4.1-2.3.1s-1.6,0-2.2-.1c-.6,0-1.1-.2-1.4-.3-.4-.1-.6-.3-.7-.5-.1-.2-.2-.5-.2-.8v-50.5c0-.3,0-.5.2-.7.1-.2.4-.4.7-.6.4-.1.8-.3,1.4-.3.6,0,1.3-.1,2.2-.1s1.7,0,2.3.1c.6,0,1.1.2,1.4.3.3.1.6.3.7.6.1.2.2.5.2.7v50.5Z"></path><path class="st5" d="M575.3,101.9c0,.3,0,.6-.2.8-.1.2-.4.4-.7.5s-.8.3-1.3.3c-.5,0-1.2.1-2,.1s-1.6,0-2.1-.1c-.5,0-1-.2-1.3-.3-.3-.1-.5-.3-.6-.5-.1-.2-.2-.5-.2-.8v-6.7c-2.9,3.2-5.7,5.5-8.5,7s-5.6,2.2-8.5,2.2-6.2-.6-8.5-1.7-4.2-2.6-5.6-4.6c-1.4-1.9-2.4-4.2-3.1-6.7-.6-2.6-.9-5.7-.9-9.3v-30.6c0-.3,0-.6.2-.8.1-.2.4-.4.8-.6.4-.2.9-.3,1.5-.3.6,0,1.3,0,2.2,0s1.6,0,2.2,0c.6,0,1.1.2,1.4.3.4.2.6.4.8.6.1.2.2.5.2.8v29.4c0,3,.2,5.3.6,7.1.4,1.8,1.1,3.3,2,4.5.9,1.3,2,2.2,3.3,2.9,1.3.7,2.9,1,4.7,1s4.6-.8,6.9-2.5c2.3-1.6,4.7-4.1,7.3-7.2v-35.3c0-.3,0-.6.2-.8.1-.2.4-.4.8-.6.4-.2.9-.3,1.4-.3.6,0,1.3,0,2.3,0s1.6,0,2.2,0c.6,0,1.1.2,1.4.3s.6.4.8.6c.2.2.3.5.3.8v50.5Z"></path><path class="st5" d="M624.1,88.2c0,2.6-.5,4.9-1.4,6.9s-2.3,3.7-4.1,5.1c-1.8,1.4-3.9,2.4-6.3,3.1-2.4.7-5.1,1.1-8,1.1s-3.5-.1-5.1-.4-3.1-.6-4.4-1.1-2.4-.9-3.3-1.3c-.9-.5-1.6-.9-2-1.3-.4-.4-.7-.9-.9-1.6-.2-.7-.3-1.6-.3-2.7s0-1.3.1-1.8c0-.5.2-.9.3-1.2.1-.3.3-.5.5-.6.2-.1.4-.2.7-.2.4,0,1,.3,1.8.8.8.5,1.8,1.1,3,1.7,1.2.6,2.6,1.2,4.2,1.7,1.6.5,3.5.8,5.6.8s3-.2,4.3-.5c1.3-.3,2.4-.8,3.3-1.5.9-.7,1.7-1.5,2.2-2.5s.8-2.2.8-3.6-.4-2.6-1.1-3.6c-.7-1-1.7-1.8-2.9-2.6-1.2-.7-2.5-1.4-4-2-1.5-.6-3-1.2-4.6-1.8-1.6-.6-3.1-1.4-4.7-2.2-1.5-.8-2.9-1.8-4.1-2.9-1.2-1.2-2.2-2.5-2.9-4.2-.7-1.6-1.1-3.5-1.1-5.8s.4-3.9,1.2-5.7c.8-1.8,1.9-3.4,3.5-4.8,1.5-1.4,3.5-2.5,5.8-3.3,2.3-.8,5-1.2,8.1-1.2s2.7.1,4,.3,2.6.5,3.6.8c1.1.3,2,.7,2.8,1.1.8.4,1.3.7,1.7,1,.4.3.7.6.8.8.1.2.2.5.3.8s.1.6.2,1c0,.4,0,.9,0,1.5s0,1.2,0,1.7c0,.5-.1.9-.3,1.2-.1.3-.3.5-.5.6-.2.1-.4.2-.6.2-.3,0-.8-.2-1.5-.6-.6-.4-1.5-.9-2.5-1.3-1-.5-2.2-.9-3.6-1.3-1.4-.4-2.9-.6-4.7-.6s-3,.2-4.2.5c-1.2.4-2.2.9-2.9,1.5-.8.7-1.3,1.4-1.7,2.3s-.6,1.9-.6,2.9.4,2.7,1.1,3.7c.7,1,1.7,1.9,2.9,2.6,1.2.7,2.6,1.4,4.1,2,1.5.6,3.1,1.2,4.7,1.9,1.6.6,3.2,1.3,4.7,2.1,1.6.8,2.9,1.7,4.1,2.9,1.2,1.1,2.2,2.5,2.9,4s1.1,3.4,1.1,5.6Z"></path><path class="st5" d="M676,99.1c0,.7,0,1.4-.1,1.9,0,.5-.2.9-.4,1.3-.2.4-.4.6-.6.8-.2.2-.5.3-.9.3h-32.1c-.9,0-1.7-.3-2.4-.9-.8-.6-1.2-1.6-1.2-3.1V32.2c0-.3,0-.6.2-.8.1-.2.4-.4.8-.5.4-.1.9-.2,1.5-.3.6,0,1.4-.1,2.3-.1s1.7,0,2.3.1c.6,0,1.1.2,1.5.3.4.1.6.3.8.5.1.2.2.5.2.8v62.8h26c.3,0,.6,0,.9.3.2.2.4.4.6.7.2.3.3.7.4,1.3,0,.5.1,1.2.1,1.9Z"></path><path class="st5" d="M741,99.9c.3.8.5,1.5.5,2,0,.5-.1.9-.4,1.2-.3.3-.8.4-1.5.5-.7,0-1.6.1-2.8.1s-2.1,0-2.8,0c-.7,0-1.2-.1-1.6-.3-.4-.1-.6-.3-.8-.5s-.3-.5-.5-.8l-6.2-17.7h-30.2l-5.9,17.4c-.1.3-.3.6-.4.9-.2.2-.5.4-.8.6-.4.2-.9.3-1.5.4-.7,0-1.5.1-2.6.1s-2,0-2.7-.1c-.7,0-1.2-.3-1.5-.5-.3-.3-.4-.6-.4-1.2,0-.5.2-1.2.5-2l24.3-67.4c.1-.4.3-.7.6-1,.2-.3.6-.5,1.1-.6.5-.1,1.1-.3,1.8-.3s1.7,0,2.8,0,2.2,0,3,0,1.4.2,1.9.3c.5.1.9.4,1.1.6.3.3.5.6.6,1l24.3,67.4ZM709.8,40.4h0l-12.5,36.2h25.2l-12.7-36.2Z"></path><path class="st5" d="M801,82.5c0,2.3-.3,4.4-.9,6.3-.6,1.9-1.4,3.7-2.4,5.2-1,1.5-2.3,2.9-3.8,4-1.5,1.2-3.1,2.1-5,2.9s-3.8,1.4-5.9,1.8c-2.1.4-4.5.6-7.3.6h-19c-.9,0-1.7-.3-2.4-.9-.8-.6-1.2-1.6-1.2-3.1V34.7c0-1.5.4-2.5,1.2-3.1.8-.6,1.6-.9,2.4-.9h16.5c4.3,0,7.9.4,10.7,1.2,2.8.8,5.1,2,6.9,3.6s3.2,3.5,4.2,5.8c.9,2.3,1.4,4.9,1.4,7.7s-.2,3.4-.6,4.9c-.4,1.6-1,3-1.8,4.3-.8,1.3-1.8,2.5-3,3.6-1.2,1-2.6,1.9-4.2,2.6,2,.4,3.8,1.1,5.6,2,1.7,1,3.2,2.3,4.5,3.8,1.3,1.5,2.3,3.3,3.1,5.4.7,2.1,1.1,4.3,1.1,6.8ZM786.5,50c0-1.8-.2-3.3-.7-4.8-.5-1.4-1.2-2.6-2.3-3.6-1-1-2.4-1.7-4.1-2.3-1.7-.5-3.9-.8-6.7-.8h-10v23.5h11c2.5,0,4.5-.3,6-1,1.5-.7,2.8-1.5,3.8-2.6,1-1.1,1.7-2.4,2.2-3.9.5-1.5.7-3,.7-4.6ZM790.8,83.1c0-2.2-.3-4.1-1-5.7-.7-1.6-1.7-3-3-4.2-1.3-1.1-3-2-5-2.6-2-.6-4.5-.9-7.5-.9h-11.5v25.6h14c2.2,0,4.1-.3,5.8-.8,1.6-.5,3.1-1.3,4.3-2.3,1.2-1,2.2-2.3,2.9-3.8.7-1.5,1.1-3.3,1.1-5.3Z"></path></g></svg>